<?xml version="1.0" encoding="utf-8" standalone="no"?>
<!DOCTYPE svg PUBLIC "-//W3C//DTD SVG 1.1//EN"
  "http://www.w3.org/Graphics/SVG/1.1/DTD/svg11.dtd">
<svg xmlns:xlink="http://www.w3.org/1999/xlink" width="728.39952pt" height="172.171417pt" viewBox="0 0 728.39952 172.171417" xmlns="http://www.w3.org/2000/svg" version="1.1">
 <metadata>
  <rdf:RDF xmlns:dc="http://purl.org/dc/elements/1.1/" xmlns:cc="http://creativecommons.org/ns#" xmlns:rdf="http://www.w3.org/1999/02/22-rdf-syntax-ns#">
   <cc:Work>
    <dc:type rdf:resource="http://purl.org/dc/dcmitype/StillImage"/>
    <dc:date>2026-05-12T07:24:12.457882</dc:date>
    <dc:format>image/svg+xml</dc:format>
    <dc:creator>
     <cc:Agent>
      <dc:title>Matplotlib v3.10.9, https://matplotlib.org/</dc:title>
     </cc:Agent>
    </dc:creator>
   </cc:Work>
  </rdf:RDF>
 </metadata>
 <defs>
  <style type="text/css">*{stroke-linejoin: round; stroke-linecap: butt}</style>
 </defs>
 <g id="figure_1">
  <g id="patch_1">
   <path d="M 0 172.171417
L 728.39952 172.171417
L 728.39952 0
L 0 0
z
" style="fill: #ffffff"/>
  </g>
  <g id="axes_1">
   <g id="patch_2">
    <path d="M 7.2 164.971417
L 721.19952 164.971417
L 721.19952 20.798437
L 7.2 20.798437
z
" style="fill: #ffffff"/>
   </g>
   <g id="patch_3">
    <path d="M 18.871146 59.931103
L 40.153824 39.334963
L 64.182654 49.633033
L 49.765356 57.871489
L 66.242268 66.109945
L 36.034596 66.796483
z
" clip-path="url(#pc894d3b905)" style="fill: #26a69a; opacity: 0.26; stroke: #26a69a; stroke-width: 1.2; stroke-linejoin: miter"/>
   </g>
   <g id="patch_4">
    <path d="M 97.823016 125.838751
L 119.105694 146.434891
L 143.134524 136.136821
L 128.717226 127.898365
L 145.194138 119.659909
L 114.986466 118.973371
z
" clip-path="url(#pc894d3b905)" style="fill: #ef5350; opacity: 0.26; stroke: #ef5350; stroke-width: 1.2; stroke-linejoin: miter"/>
   </g>
   <g id="patch_5">
    <path d="M 176.774886 59.931103
L 198.057564 39.334963
L 222.086394 49.633033
L 207.669096 57.871489
L 224.146008 66.109945
L 193.938336 66.796483
z
" clip-path="url(#pc894d3b905)" style="fill: #26a69a; opacity: 0.26; stroke: #26a69a; stroke-width: 1.2; stroke-linejoin: miter"/>
   </g>
   <g id="patch_6">
    <path d="M 255.726756 125.838751
L 277.009434 146.434891
L 301.038264 136.136821
L 286.620966 127.898365
L 303.097878 119.659909
L 272.890206 118.973371
z
" clip-path="url(#pc894d3b905)" style="fill: #ef5350; opacity: 0.26; stroke: #ef5350; stroke-width: 1.2; stroke-linejoin: miter"/>
   </g>
   <g id="patch_7">
    <path d="M 334.678626 59.931103
L 355.961304 39.334963
L 379.990134 49.633033
L 365.572836 57.871489
L 382.049748 66.109945
L 351.842076 66.796483
z
" clip-path="url(#pc894d3b905)" style="fill: #26a69a; opacity: 0.26; stroke: #26a69a; stroke-width: 1.2; stroke-linejoin: miter"/>
   </g>
   <g id="patch_8">
    <path d="M 413.630496 125.838751
L 434.913174 146.434891
L 458.942004 136.136821
L 444.524706 127.898365
L 461.001618 119.659909
L 430.793946 118.973371
z
" clip-path="url(#pc894d3b905)" style="fill: #ef5350; opacity: 0.26; stroke: #ef5350; stroke-width: 1.2; stroke-linejoin: miter"/>
   </g>
   <g id="patch_9">
    <path d="M 492.582366 59.931103
L 513.865044 39.334963
L 537.893874 49.633033
L 523.476576 57.871489
L 539.953488 66.109945
L 509.745816 66.796483
z
" clip-path="url(#pc894d3b905)" style="fill: #26a69a; opacity: 0.26; stroke: #26a69a; stroke-width: 1.2; stroke-linejoin: miter"/>
   </g>
   <g id="patch_10">
    <path d="M 571.534236 125.838751
L 592.816914 146.434891
L 616.845744 136.136821
L 602.428446 127.898365
L 618.905358 119.659909
L 588.697686 118.973371
z
" clip-path="url(#pc894d3b905)" style="fill: #ef5350; opacity: 0.26; stroke: #ef5350; stroke-width: 1.2; stroke-linejoin: miter"/>
   </g>
   <g id="patch_11">
    <path d="M 650.486106 59.931103
L 671.768784 39.334963
L 695.797614 49.633033
L 681.380316 57.871489
L 697.857228 66.109945
L 667.649556 66.796483
z
" clip-path="url(#pc894d3b905)" style="fill: #26a69a; opacity: 0.26; stroke: #26a69a; stroke-width: 1.2; stroke-linejoin: miter"/>
   </g>
   <g id="matplotlib.axis_1"/>
   <g id="matplotlib.axis_2"/>
   <g id="line2d_1">
    <path d="M 18.871146 59.931103
L 40.153824 39.334963
L 64.182654 49.633033
L 49.765356 57.871489
L 66.242268 66.109945
L 36.034596 66.796483
L 18.871146 59.931103
" clip-path="url(#pc894d3b905)" style="fill: none; stroke: #26a69a; stroke-width: 1.2; stroke-linecap: square"/>
   </g>
   <g id="line2d_2">
    <path d="M 97.823016 125.838751
L 119.105694 146.434891
L 143.134524 136.136821
L 128.717226 127.898365
L 145.194138 119.659909
L 114.986466 118.973371
L 97.823016 125.838751
" clip-path="url(#pc894d3b905)" style="fill: none; stroke: #ef5350; stroke-width: 1.2; stroke-linecap: square"/>
   </g>
   <g id="line2d_3">
    <path d="M 176.774886 59.931103
L 198.057564 39.334963
L 222.086394 49.633033
L 207.669096 57.871489
L 224.146008 66.109945
L 193.938336 66.796483
L 176.774886 59.931103
" clip-path="url(#pc894d3b905)" style="fill: none; stroke: #26a69a; stroke-width: 1.2; stroke-linecap: square"/>
   </g>
   <g id="line2d_4">
    <path d="M 255.726756 125.838751
L 277.009434 146.434891
L 301.038264 136.136821
L 286.620966 127.898365
L 303.097878 119.659909
L 272.890206 118.973371
L 255.726756 125.838751
" clip-path="url(#pc894d3b905)" style="fill: none; stroke: #ef5350; stroke-width: 1.2; stroke-linecap: square"/>
   </g>
   <g id="line2d_5">
    <path d="M 334.678626 59.931103
L 355.961304 39.334963
L 379.990134 49.633033
L 365.572836 57.871489
L 382.049748 66.109945
L 351.842076 66.796483
L 334.678626 59.931103
" clip-path="url(#pc894d3b905)" style="fill: none; stroke: #26a69a; stroke-width: 1.2; stroke-linecap: square"/>
   </g>
   <g id="line2d_6">
    <path d="M 413.630496 125.838751
L 434.913174 146.434891
L 458.942004 136.136821
L 444.524706 127.898365
L 461.001618 119.659909
L 430.793946 118.973371
L 413.630496 125.838751
" clip-path="url(#pc894d3b905)" style="fill: none; stroke: #ef5350; stroke-width: 1.2; stroke-linecap: square"/>
   </g>
   <g id="line2d_7">
    <path d="M 492.582366 59.931103
L 513.865044 39.334963
L 537.893874 49.633033
L 523.476576 57.871489
L 539.953488 66.109945
L 509.745816 66.796483
L 492.582366 59.931103
" clip-path="url(#pc894d3b905)" style="fill: none; stroke: #26a69a; stroke-width: 1.2; stroke-linecap: square"/>
   </g>
   <g id="line2d_8">
    <path d="M 571.534236 125.838751
L 592.816914 146.434891
L 616.845744 136.136821
L 602.428446 127.898365
L 618.905358 119.659909
L 588.697686 118.973371
L 571.534236 125.838751
" clip-path="url(#pc894d3b905)" style="fill: none; stroke: #ef5350; stroke-width: 1.2; stroke-linecap: square"/>
   </g>
   <g id="line2d_9">
    <path d="M 650.486106 59.931103
L 671.768784 39.334963
L 695.797614 49.633033
L 681.380316 57.871489
L 697.857228 66.109945
L 667.649556 66.796483
L 650.486106 59.931103
" clip-path="url(#pc894d3b905)" style="fill: none; stroke: #26a69a; stroke-width: 1.2; stroke-linecap: square"/>
   </g>
   <g id="line2d_10">
    <path d="M 7.2 92.884927
L 721.19952 92.884927
" clip-path="url(#pc894d3b905)" style="fill: none; stroke: #263238; stroke-width: 1.5; stroke-linecap: square"/>
   </g>
   <g id="line2d_11">
    <path d="M 206.29602 48.259957
L 285.24789 137.509897
" clip-path="url(#pc894d3b905)" style="fill: none; stroke-dasharray: 3.7,1.6; stroke-dashoffset: 0; stroke: #5d4037"/>
   </g>
   <g id="line2d_12">
    <defs>
     <path id="m43121cd729" d="M 0 2
C 0.530406 2 1.03916 1.789267 1.414214 1.414214
C 1.789267 1.03916 2 0.530406 2 0
C 2 -0.530406 1.789267 -1.03916 1.414214 -1.414214
C 1.03916 -1.789267 0.530406 -2 0 -2
C -0.530406 -2 -1.03916 -1.789267 -1.414214 -1.414214
C -1.789267 -1.03916 -2 -0.530406 -2 0
C -2 0.530406 -1.789267 1.03916 -1.414214 1.414214
C -1.03916 1.789267 -0.530406 2 0 2
z
" style="stroke: #5d4037"/>
    </defs>
    <g clip-path="url(#pc894d3b905)">
     <use xlink:href="#m43121cd729" x="245.771955" y="92.884927" style="fill: #5d4037; stroke: #5d4037"/>
    </g>
   </g>
   <g id="line2d_13">
    <path d="M 343.60362 55.125337
L 422.55549 130.644517
" clip-path="url(#pc894d3b905)" style="fill: none; stroke-dasharray: 3.7,1.6; stroke-dashoffset: 0; stroke: #5d4037"/>
   </g>
   <g id="line2d_14">
    <g clip-path="url(#pc894d3b905)">
     <use xlink:href="#m43121cd729" x="383.079555" y="92.884927" style="fill: #5d4037; stroke: #5d4037"/>
    </g>
   </g>
   <g id="line2d_15">
    <path d="M 480.91122 43.454191
L 559.86309 142.315663
" clip-path="url(#pc894d3b905)" style="fill: none; stroke-dasharray: 3.7,1.6; stroke-dashoffset: 0; stroke: #5d4037"/>
   </g>
   <g id="line2d_16">
    <g clip-path="url(#pc894d3b905)">
     <use xlink:href="#m43121cd729" x="520.387155" y="92.884927" style="fill: #5d4037; stroke: #5d4037"/>
    </g>
   </g>
   <g id="patch_12">
    <path d="M 7.2 164.971417
L 7.2 20.798437
" style="fill: none; stroke: #000000; stroke-width: 0.8; stroke-linejoin: miter; stroke-linecap: square"/>
   </g>
   <g id="patch_13">
    <path d="M 721.19952 164.971417
L 721.19952 20.798437
" style="fill: none; stroke: #000000; stroke-width: 0.8; stroke-linejoin: miter; stroke-linecap: square"/>
   </g>
   <g id="patch_14">
    <path d="M 7.2 164.971417
L 721.19952 164.971417
" style="fill: none; stroke: #000000; stroke-width: 0.8; stroke-linejoin: miter; stroke-linecap: square"/>
   </g>
   <g id="patch_15">
    <path d="M 7.2 20.798437
L 721.19952 20.798437
" style="fill: none; stroke: #000000; stroke-width: 0.8; stroke-linejoin: miter; stroke-linecap: square"/>
   </g>
   <g id="text_1">
    <!-- G^-4 -->
    <g style="fill: #263238" transform="translate(36.740521 58.544399) scale(0.07 -0.07)">
     <defs>
      <path id="DejaVuSans-47" d="M 3809 666
L 3809 1919
L 2778 1919
L 2778 2438
L 4434 2438
L 4434 434
Q 4069 175 3628 42
Q 3188 -91 2688 -91
Q 1594 -91 976 548
Q 359 1188 359 2328
Q 359 3472 976 4111
Q 1594 4750 2688 4750
Q 3144 4750 3555 4637
Q 3966 4525 4313 4306
L 4313 3634
Q 3963 3931 3569 4081
Q 3175 4231 2741 4231
Q 1884 4231 1454 3753
Q 1025 3275 1025 2328
Q 1025 1384 1454 906
Q 1884 428 2741 428
Q 3075 428 3337 486
Q 3600 544 3809 666
z
" transform="scale(0.015625)"/>
      <path id="DejaVuSans-5e" d="M 2988 4666
L 4684 2925
L 4056 2925
L 2681 4159
L 1306 2925
L 678 2925
L 2375 4666
L 2988 4666
z
" transform="scale(0.015625)"/>
      <path id="DejaVuSans-2d" d="M 313 2009
L 1997 2009
L 1997 1497
L 313 1497
L 313 2009
z
" transform="scale(0.015625)"/>
      <path id="DejaVuSans-34" d="M 2419 4116
L 825 1625
L 2419 1625
L 2419 4116
z
M 2253 4666
L 3047 4666
L 3047 1625
L 3713 1625
L 3713 1100
L 3047 1100
L 3047 0
L 2419 0
L 2419 1100
L 313 1100
L 313 1709
L 2253 4666
z
" transform="scale(0.015625)"/>
     </defs>
     <use xlink:href="#DejaVuSans-47"/>
     <use xlink:href="#DejaVuSans-5e" transform="translate(77.490234 0)"/>
     <use xlink:href="#DejaVuSans-2d" transform="translate(161.279297 0)"/>
     <use xlink:href="#DejaVuSans-34" transform="translate(197.363281 0)"/>
    </g>
   </g>
   <g id="text_2">
    <!-- G^-3 -->
    <g style="fill: #263238" transform="translate(115.692391 131.088581) scale(0.07 -0.07)">
     <defs>
      <path id="DejaVuSans-33" d="M 2597 2516
Q 3050 2419 3304 2112
Q 3559 1806 3559 1356
Q 3559 666 3084 287
Q 2609 -91 1734 -91
Q 1441 -91 1130 -33
Q 819 25 488 141
L 488 750
Q 750 597 1062 519
Q 1375 441 1716 441
Q 2309 441 2620 675
Q 2931 909 2931 1356
Q 2931 1769 2642 2001
Q 2353 2234 1838 2234
L 1294 2234
L 1294 2753
L 1863 2753
Q 2328 2753 2575 2939
Q 2822 3125 2822 3475
Q 2822 3834 2567 4026
Q 2313 4219 1838 4219
Q 1578 4219 1281 4162
Q 984 4106 628 3988
L 628 4550
Q 988 4650 1302 4700
Q 1616 4750 1894 4750
Q 2613 4750 3031 4423
Q 3450 4097 3450 3541
Q 3450 3153 3228 2886
Q 3006 2619 2597 2516
z
" transform="scale(0.015625)"/>
     </defs>
     <use xlink:href="#DejaVuSans-47"/>
     <use xlink:href="#DejaVuSans-5e" transform="translate(77.490234 0)"/>
     <use xlink:href="#DejaVuSans-2d" transform="translate(161.279297 0)"/>
     <use xlink:href="#DejaVuSans-33" transform="translate(197.363281 0)"/>
    </g>
   </g>
   <g id="text_3">
    <!-- G^-2 -->
    <g style="fill: #263238" transform="translate(194.644261 58.544399) scale(0.07 -0.07)">
     <defs>
      <path id="DejaVuSans-32" d="M 1228 531
L 3431 531
L 3431 0
L 469 0
L 469 531
Q 828 903 1448 1529
Q 2069 2156 2228 2338
Q 2531 2678 2651 2914
Q 2772 3150 2772 3378
Q 2772 3750 2511 3984
Q 2250 4219 1831 4219
Q 1534 4219 1204 4116
Q 875 4013 500 3803
L 500 4441
Q 881 4594 1212 4672
Q 1544 4750 1819 4750
Q 2544 4750 2975 4387
Q 3406 4025 3406 3419
Q 3406 3131 3298 2873
Q 3191 2616 2906 2266
Q 2828 2175 2409 1742
Q 1991 1309 1228 531
z
" transform="scale(0.015625)"/>
     </defs>
     <use xlink:href="#DejaVuSans-47"/>
     <use xlink:href="#DejaVuSans-5e" transform="translate(77.490234 0)"/>
     <use xlink:href="#DejaVuSans-2d" transform="translate(161.279297 0)"/>
     <use xlink:href="#DejaVuSans-32" transform="translate(197.363281 0)"/>
    </g>
   </g>
   <g id="text_4">
    <!-- G^-1 -->
    <g style="fill: #263238" transform="translate(273.596131 131.088581) scale(0.07 -0.07)">
     <defs>
      <path id="DejaVuSans-31" d="M 794 531
L 1825 531
L 1825 4091
L 703 3866
L 703 4441
L 1819 4666
L 2450 4666
L 2450 531
L 3481 531
L 3481 0
L 794 0
L 794 531
z
" transform="scale(0.015625)"/>
     </defs>
     <use xlink:href="#DejaVuSans-47"/>
     <use xlink:href="#DejaVuSans-5e" transform="translate(77.490234 0)"/>
     <use xlink:href="#DejaVuSans-2d" transform="translate(161.279297 0)"/>
     <use xlink:href="#DejaVuSans-31" transform="translate(197.363281 0)"/>
    </g>
   </g>
   <g id="text_5">
    <!-- G^0 -->
    <g style="fill: #263238" transform="translate(353.810735 58.544399) scale(0.07 -0.07)">
     <defs>
      <path id="DejaVuSans-30" d="M 2034 4250
Q 1547 4250 1301 3770
Q 1056 3291 1056 2328
Q 1056 1369 1301 889
Q 1547 409 2034 409
Q 2525 409 2770 889
Q 3016 1369 3016 2328
Q 3016 3291 2770 3770
Q 2525 4250 2034 4250
z
M 2034 4750
Q 2819 4750 3233 4129
Q 3647 3509 3647 2328
Q 3647 1150 3233 529
Q 2819 -91 2034 -91
Q 1250 -91 836 529
Q 422 1150 422 2328
Q 422 3509 836 4129
Q 1250 4750 2034 4750
z
" transform="scale(0.015625)"/>
     </defs>
     <use xlink:href="#DejaVuSans-47"/>
     <use xlink:href="#DejaVuSans-5e" transform="translate(77.490234 0)"/>
     <use xlink:href="#DejaVuSans-30" transform="translate(161.279297 0)"/>
    </g>
   </g>
   <g id="text_6">
    <!-- G^1 -->
    <g style="fill: #263238" transform="translate(432.762605 131.088581) scale(0.07 -0.07)">
     <use xlink:href="#DejaVuSans-47"/>
     <use xlink:href="#DejaVuSans-5e" transform="translate(77.490234 0)"/>
     <use xlink:href="#DejaVuSans-31" transform="translate(161.279297 0)"/>
    </g>
   </g>
   <g id="text_7">
    <!-- G^2 -->
    <g style="fill: #263238" transform="translate(511.714475 58.544399) scale(0.07 -0.07)">
     <use xlink:href="#DejaVuSans-47"/>
     <use xlink:href="#DejaVuSans-5e" transform="translate(77.490234 0)"/>
     <use xlink:href="#DejaVuSans-32" transform="translate(161.279297 0)"/>
    </g>
   </g>
   <g id="text_8">
    <!-- G^3 -->
    <g style="fill: #263238" transform="translate(590.666345 131.088581) scale(0.07 -0.07)">
     <use xlink:href="#DejaVuSans-47"/>
     <use xlink:href="#DejaVuSans-5e" transform="translate(77.490234 0)"/>
     <use xlink:href="#DejaVuSans-33" transform="translate(161.279297 0)"/>
    </g>
   </g>
   <g id="text_9">
    <!-- G^4 -->
    <g style="fill: #263238" transform="translate(669.618215 58.544399) scale(0.07 -0.07)">
     <use xlink:href="#DejaVuSans-47"/>
     <use xlink:href="#DejaVuSans-5e" transform="translate(77.490234 0)"/>
     <use xlink:href="#DejaVuSans-34" transform="translate(161.279297 0)"/>
    </g>
   </g>
   <g id="text_10">
    <!-- glide axis -->
    <g style="fill: #263238" transform="translate(20.93076 87.392623) scale(0.09 -0.09)">
     <defs>
      <path id="DejaVuSans-67" d="M 2906 1791
Q 2906 2416 2648 2759
Q 2391 3103 1925 3103
Q 1463 3103 1205 2759
Q 947 2416 947 1791
Q 947 1169 1205 825
Q 1463 481 1925 481
Q 2391 481 2648 825
Q 2906 1169 2906 1791
z
M 3481 434
Q 3481 -459 3084 -895
Q 2688 -1331 1869 -1331
Q 1566 -1331 1297 -1286
Q 1028 -1241 775 -1147
L 775 -588
Q 1028 -725 1275 -790
Q 1522 -856 1778 -856
Q 2344 -856 2625 -561
Q 2906 -266 2906 331
L 2906 616
Q 2728 306 2450 153
Q 2172 0 1784 0
Q 1141 0 747 490
Q 353 981 353 1791
Q 353 2603 747 3093
Q 1141 3584 1784 3584
Q 2172 3584 2450 3431
Q 2728 3278 2906 2969
L 2906 3500
L 3481 3500
L 3481 434
z
" transform="scale(0.015625)"/>
      <path id="DejaVuSans-6c" d="M 603 4863
L 1178 4863
L 1178 0
L 603 0
L 603 4863
z
" transform="scale(0.015625)"/>
      <path id="DejaVuSans-69" d="M 603 3500
L 1178 3500
L 1178 0
L 603 0
L 603 3500
z
M 603 4863
L 1178 4863
L 1178 4134
L 603 4134
L 603 4863
z
" transform="scale(0.015625)"/>
      <path id="DejaVuSans-64" d="M 2906 2969
L 2906 4863
L 3481 4863
L 3481 0
L 2906 0
L 2906 525
Q 2725 213 2448 61
Q 2172 -91 1784 -91
Q 1150 -91 751 415
Q 353 922 353 1747
Q 353 2572 751 3078
Q 1150 3584 1784 3584
Q 2172 3584 2448 3432
Q 2725 3281 2906 2969
z
M 947 1747
Q 947 1113 1208 752
Q 1469 391 1925 391
Q 2381 391 2643 752
Q 2906 1113 2906 1747
Q 2906 2381 2643 2742
Q 2381 3103 1925 3103
Q 1469 3103 1208 2742
Q 947 2381 947 1747
z
" transform="scale(0.015625)"/>
      <path id="DejaVuSans-65" d="M 3597 1894
L 3597 1613
L 953 1613
Q 991 1019 1311 708
Q 1631 397 2203 397
Q 2534 397 2845 478
Q 3156 559 3463 722
L 3463 178
Q 3153 47 2828 -22
Q 2503 -91 2169 -91
Q 1331 -91 842 396
Q 353 884 353 1716
Q 353 2575 817 3079
Q 1281 3584 2069 3584
Q 2775 3584 3186 3129
Q 3597 2675 3597 1894
z
M 3022 2063
Q 3016 2534 2758 2815
Q 2500 3097 2075 3097
Q 1594 3097 1305 2825
Q 1016 2553 972 2059
L 3022 2063
z
" transform="scale(0.015625)"/>
      <path id="DejaVuSans-20" transform="scale(0.015625)"/>
      <path id="DejaVuSans-61" d="M 2194 1759
Q 1497 1759 1228 1600
Q 959 1441 959 1056
Q 959 750 1161 570
Q 1363 391 1709 391
Q 2188 391 2477 730
Q 2766 1069 2766 1631
L 2766 1759
L 2194 1759
z
M 3341 1997
L 3341 0
L 2766 0
L 2766 531
Q 2569 213 2275 61
Q 1981 -91 1556 -91
Q 1019 -91 701 211
Q 384 513 384 1019
Q 384 1609 779 1909
Q 1175 2209 1959 2209
L 2766 2209
L 2766 2266
Q 2766 2663 2505 2880
Q 2244 3097 1772 3097
Q 1472 3097 1187 3025
Q 903 2953 641 2809
L 641 3341
Q 956 3463 1253 3523
Q 1550 3584 1831 3584
Q 2591 3584 2966 3190
Q 3341 2797 3341 1997
z
" transform="scale(0.015625)"/>
      <path id="DejaVuSans-78" d="M 3513 3500
L 2247 1797
L 3578 0
L 2900 0
L 1881 1375
L 863 0
L 184 0
L 1544 1831
L 300 3500
L 978 3500
L 1906 2253
L 2834 3500
L 3513 3500
z
" transform="scale(0.015625)"/>
      <path id="DejaVuSans-73" d="M 2834 3397
L 2834 2853
Q 2591 2978 2328 3040
Q 2066 3103 1784 3103
Q 1356 3103 1142 2972
Q 928 2841 928 2578
Q 928 2378 1081 2264
Q 1234 2150 1697 2047
L 1894 2003
Q 2506 1872 2764 1633
Q 3022 1394 3022 966
Q 3022 478 2636 193
Q 2250 -91 1575 -91
Q 1294 -91 989 -36
Q 684 19 347 128
L 347 722
Q 666 556 975 473
Q 1284 391 1588 391
Q 1994 391 2212 530
Q 2431 669 2431 922
Q 2431 1156 2273 1281
Q 2116 1406 1581 1522
L 1381 1569
Q 847 1681 609 1914
Q 372 2147 372 2553
Q 372 3047 722 3315
Q 1072 3584 1716 3584
Q 2034 3584 2315 3537
Q 2597 3491 2834 3397
z
" transform="scale(0.015625)"/>
     </defs>
     <use xlink:href="#DejaVuSans-67"/>
     <use xlink:href="#DejaVuSans-6c" transform="translate(63.476562 0)"/>
     <use xlink:href="#DejaVuSans-69" transform="translate(91.259766 0)"/>
     <use xlink:href="#DejaVuSans-64" transform="translate(119.042969 0)"/>
     <use xlink:href="#DejaVuSans-65" transform="translate(182.519531 0)"/>
     <use xlink:href="#DejaVuSans-20" transform="translate(244.042969 0)"/>
     <use xlink:href="#DejaVuSans-61" transform="translate(275.830078 0)"/>
     <use xlink:href="#DejaVuSans-78" transform="translate(337.109375 0)"/>
     <use xlink:href="#DejaVuSans-69" transform="translate(396.289062 0)"/>
     <use xlink:href="#DejaVuSans-73" transform="translate(424.072266 0)"/>
    </g>
   </g>
   <g id="text_11">
    <!-- A glide reflection alternates sides while sliding along the axis -->
    <g transform="translate(211.041947 14.798437) scale(0.1 -0.1)">
     <defs>
      <path id="DejaVuSans-41" d="M 2188 4044
L 1331 1722
L 3047 1722
L 2188 4044
z
M 1831 4666
L 2547 4666
L 4325 0
L 3669 0
L 3244 1197
L 1141 1197
L 716 0
L 50 0
L 1831 4666
z
" transform="scale(0.015625)"/>
      <path id="DejaVuSans-72" d="M 2631 2963
Q 2534 3019 2420 3045
Q 2306 3072 2169 3072
Q 1681 3072 1420 2755
Q 1159 2438 1159 1844
L 1159 0
L 581 0
L 581 3500
L 1159 3500
L 1159 2956
Q 1341 3275 1631 3429
Q 1922 3584 2338 3584
Q 2397 3584 2469 3576
Q 2541 3569 2628 3553
L 2631 2963
z
" transform="scale(0.015625)"/>
      <path id="DejaVuSans-66" d="M 2375 4863
L 2375 4384
L 1825 4384
Q 1516 4384 1395 4259
Q 1275 4134 1275 3809
L 1275 3500
L 2222 3500
L 2222 3053
L 1275 3053
L 1275 0
L 697 0
L 697 3053
L 147 3053
L 147 3500
L 697 3500
L 697 3744
Q 697 4328 969 4595
Q 1241 4863 1831 4863
L 2375 4863
z
" transform="scale(0.015625)"/>
      <path id="DejaVuSans-63" d="M 3122 3366
L 3122 2828
Q 2878 2963 2633 3030
Q 2388 3097 2138 3097
Q 1578 3097 1268 2742
Q 959 2388 959 1747
Q 959 1106 1268 751
Q 1578 397 2138 397
Q 2388 397 2633 464
Q 2878 531 3122 666
L 3122 134
Q 2881 22 2623 -34
Q 2366 -91 2075 -91
Q 1284 -91 818 406
Q 353 903 353 1747
Q 353 2603 823 3093
Q 1294 3584 2113 3584
Q 2378 3584 2631 3529
Q 2884 3475 3122 3366
z
" transform="scale(0.015625)"/>
      <path id="DejaVuSans-74" d="M 1172 4494
L 1172 3500
L 2356 3500
L 2356 3053
L 1172 3053
L 1172 1153
Q 1172 725 1289 603
Q 1406 481 1766 481
L 2356 481
L 2356 0
L 1766 0
Q 1100 0 847 248
Q 594 497 594 1153
L 594 3053
L 172 3053
L 172 3500
L 594 3500
L 594 4494
L 1172 4494
z
" transform="scale(0.015625)"/>
      <path id="DejaVuSans-6f" d="M 1959 3097
Q 1497 3097 1228 2736
Q 959 2375 959 1747
Q 959 1119 1226 758
Q 1494 397 1959 397
Q 2419 397 2687 759
Q 2956 1122 2956 1747
Q 2956 2369 2687 2733
Q 2419 3097 1959 3097
z
M 1959 3584
Q 2709 3584 3137 3096
Q 3566 2609 3566 1747
Q 3566 888 3137 398
Q 2709 -91 1959 -91
Q 1206 -91 779 398
Q 353 888 353 1747
Q 353 2609 779 3096
Q 1206 3584 1959 3584
z
" transform="scale(0.015625)"/>
      <path id="DejaVuSans-6e" d="M 3513 2113
L 3513 0
L 2938 0
L 2938 2094
Q 2938 2591 2744 2837
Q 2550 3084 2163 3084
Q 1697 3084 1428 2787
Q 1159 2491 1159 1978
L 1159 0
L 581 0
L 581 3500
L 1159 3500
L 1159 2956
Q 1366 3272 1645 3428
Q 1925 3584 2291 3584
Q 2894 3584 3203 3211
Q 3513 2838 3513 2113
z
" transform="scale(0.015625)"/>
      <path id="DejaVuSans-77" d="M 269 3500
L 844 3500
L 1563 769
L 2278 3500
L 2956 3500
L 3675 769
L 4391 3500
L 4966 3500
L 4050 0
L 3372 0
L 2619 2869
L 1863 0
L 1184 0
L 269 3500
z
" transform="scale(0.015625)"/>
      <path id="DejaVuSans-68" d="M 3513 2113
L 3513 0
L 2938 0
L 2938 2094
Q 2938 2591 2744 2837
Q 2550 3084 2163 3084
Q 1697 3084 1428 2787
Q 1159 2491 1159 1978
L 1159 0
L 581 0
L 581 4863
L 1159 4863
L 1159 2956
Q 1366 3272 1645 3428
Q 1925 3584 2291 3584
Q 2894 3584 3203 3211
Q 3513 2838 3513 2113
z
" transform="scale(0.015625)"/>
     </defs>
     <use xlink:href="#DejaVuSans-41"/>
     <use xlink:href="#DejaVuSans-20" transform="translate(68.408203 0)"/>
     <use xlink:href="#DejaVuSans-67" transform="translate(100.195312 0)"/>
     <use xlink:href="#DejaVuSans-6c" transform="translate(163.671875 0)"/>
     <use xlink:href="#DejaVuSans-69" transform="translate(191.455078 0)"/>
     <use xlink:href="#DejaVuSans-64" transform="translate(219.238281 0)"/>
     <use xlink:href="#DejaVuSans-65" transform="translate(282.714844 0)"/>
     <use xlink:href="#DejaVuSans-20" transform="translate(344.238281 0)"/>
     <use xlink:href="#DejaVuSans-72" transform="translate(376.025391 0)"/>
     <use xlink:href="#DejaVuSans-65" transform="translate(414.888672 0)"/>
     <use xlink:href="#DejaVuSans-66" transform="translate(476.412109 0)"/>
     <use xlink:href="#DejaVuSans-6c" transform="translate(511.617188 0)"/>
     <use xlink:href="#DejaVuSans-65" transform="translate(539.400391 0)"/>
     <use xlink:href="#DejaVuSans-63" transform="translate(600.923828 0)"/>
     <use xlink:href="#DejaVuSans-74" transform="translate(655.904297 0)"/>
     <use xlink:href="#DejaVuSans-69" transform="translate(695.113281 0)"/>
     <use xlink:href="#DejaVuSans-6f" transform="translate(722.896484 0)"/>
     <use xlink:href="#DejaVuSans-6e" transform="translate(784.078125 0)"/>
     <use xlink:href="#DejaVuSans-20" transform="translate(847.457031 0)"/>
     <use xlink:href="#DejaVuSans-61" transform="translate(879.244141 0)"/>
     <use xlink:href="#DejaVuSans-6c" transform="translate(940.523438 0)"/>
     <use xlink:href="#DejaVuSans-74" transform="translate(968.306641 0)"/>
     <use xlink:href="#DejaVuSans-65" transform="translate(1007.515625 0)"/>
     <use xlink:href="#DejaVuSans-72" transform="translate(1069.039062 0)"/>
     <use xlink:href="#DejaVuSans-6e" transform="translate(1108.402344 0)"/>
     <use xlink:href="#DejaVuSans-61" transform="translate(1171.78125 0)"/>
     <use xlink:href="#DejaVuSans-74" transform="translate(1233.060547 0)"/>
     <use xlink:href="#DejaVuSans-65" transform="translate(1272.269531 0)"/>
     <use xlink:href="#DejaVuSans-73" transform="translate(1333.792969 0)"/>
     <use xlink:href="#DejaVuSans-20" transform="translate(1385.892578 0)"/>
     <use xlink:href="#DejaVuSans-73" transform="translate(1417.679688 0)"/>
     <use xlink:href="#DejaVuSans-69" transform="translate(1469.779297 0)"/>
     <use xlink:href="#DejaVuSans-64" transform="translate(1497.5625 0)"/>
     <use xlink:href="#DejaVuSans-65" transform="translate(1561.039062 0)"/>
     <use xlink:href="#DejaVuSans-73" transform="translate(1622.5625 0)"/>
     <use xlink:href="#DejaVuSans-20" transform="translate(1674.662109 0)"/>
     <use xlink:href="#DejaVuSans-77" transform="translate(1706.449219 0)"/>
     <use xlink:href="#DejaVuSans-68" transform="translate(1788.236328 0)"/>
     <use xlink:href="#DejaVuSans-69" transform="translate(1851.615234 0)"/>
     <use xlink:href="#DejaVuSans-6c" transform="translate(1879.398438 0)"/>
     <use xlink:href="#DejaVuSans-65" transform="translate(1907.181641 0)"/>
     <use xlink:href="#DejaVuSans-20" transform="translate(1968.705078 0)"/>
     <use xlink:href="#DejaVuSans-73" transform="translate(2000.492188 0)"/>
     <use xlink:href="#DejaVuSans-6c" transform="translate(2052.591797 0)"/>
     <use xlink:href="#DejaVuSans-69" transform="translate(2080.375 0)"/>
     <use xlink:href="#DejaVuSans-64" transform="translate(2108.158203 0)"/>
     <use xlink:href="#DejaVuSans-69" transform="translate(2171.634766 0)"/>
     <use xlink:href="#DejaVuSans-6e" transform="translate(2199.417969 0)"/>
     <use xlink:href="#DejaVuSans-67" transform="translate(2262.796875 0)"/>
     <use xlink:href="#DejaVuSans-20" transform="translate(2326.273438 0)"/>
     <use xlink:href="#DejaVuSans-61" transform="translate(2358.060547 0)"/>
     <use xlink:href="#DejaVuSans-6c" transform="translate(2419.339844 0)"/>
     <use xlink:href="#DejaVuSans-6f" transform="translate(2447.123047 0)"/>
     <use xlink:href="#DejaVuSans-6e" transform="translate(2508.304688 0)"/>
     <use xlink:href="#DejaVuSans-67" transform="translate(2571.683594 0)"/>
     <use xlink:href="#DejaVuSans-20" transform="translate(2635.160156 0)"/>
     <use xlink:href="#DejaVuSans-74" transform="translate(2666.947266 0)"/>
     <use xlink:href="#DejaVuSans-68" transform="translate(2706.15625 0)"/>
     <use xlink:href="#DejaVuSans-65" transform="translate(2769.535156 0)"/>
     <use xlink:href="#DejaVuSans-20" transform="translate(2831.058594 0)"/>
     <use xlink:href="#DejaVuSans-61" transform="translate(2862.845703 0)"/>
     <use xlink:href="#DejaVuSans-78" transform="translate(2924.125 0)"/>
     <use xlink:href="#DejaVuSans-69" transform="translate(2983.304688 0)"/>
     <use xlink:href="#DejaVuSans-73" transform="translate(3011.087891 0)"/>
    </g>
   </g>
  </g>
 </g>
 <defs>
  <clipPath id="pc894d3b905">
   <rect x="7.2" y="20.798437" width="713.99952" height="144.17298"/>
  </clipPath>
 </defs>
</svg>
