<?xml version="1.0" encoding="utf-8" standalone="no"?>
<!DOCTYPE svg PUBLIC "-//W3C//DTD SVG 1.1//EN"
  "http://www.w3.org/Graphics/SVG/1.1/DTD/svg11.dtd">
<svg xmlns:xlink="http://www.w3.org/1999/xlink" width="684.824905pt" height="310.91976pt" viewBox="0 0 684.824905 310.91976" xmlns="http://www.w3.org/2000/svg" version="1.1">
 <metadata>
  <rdf:RDF xmlns:dc="http://purl.org/dc/elements/1.1/" xmlns:cc="http://creativecommons.org/ns#" xmlns:rdf="http://www.w3.org/1999/02/22-rdf-syntax-ns#">
   <cc:Work>
    <dc:type rdf:resource="http://purl.org/dc/dcmitype/StillImage"/>
    <dc:date>2026-05-12T07:24:13.140849</dc:date>
    <dc:format>image/svg+xml</dc:format>
    <dc:creator>
     <cc:Agent>
      <dc:title>Matplotlib v3.10.9, https://matplotlib.org/</dc:title>
     </cc:Agent>
    </dc:creator>
   </cc:Work>
  </rdf:RDF>
 </metadata>
 <defs>
  <style type="text/css">*{stroke-linejoin: round; stroke-linecap: butt}</style>
 </defs>
 <g id="figure_1">
  <g id="patch_1">
   <path d="M 0 310.91976
L 684.824905 310.91976
L 684.824905 0
L 0 0
z
" style="fill: #ffffff"/>
  </g>
  <g id="axes_1">
   <g id="patch_2">
    <path d="M 28.942187 287.041635
L 280.665145 287.041635
L 280.665145 35.318677
L 28.942187 35.318677
z
" style="fill: #ffffff"/>
   </g>
   <g id="matplotlib.axis_1">
    <g id="xtick_1">
     <g id="line2d_1">
      <path d="M 57.987144 287.041635
L 57.987144 35.318677
" clip-path="url(#p6030d75efa)" style="fill: none; stroke: #eceff1; stroke-width: 0.6; stroke-linecap: square"/>
     </g>
     <g id="line2d_2">
      <defs>
       <path id="m651918b4d1" d="M 0 0
L 0 3.5
" style="stroke: #000000; stroke-width: 0.8"/>
      </defs>
      <g>
       <use xlink:href="#m651918b4d1" x="57.987144" y="287.041635" style="stroke: #000000; stroke-width: 0.8"/>
      </g>
     </g>
     <g id="text_1">
      <!-- −2 -->
      <g transform="translate(50.61605 301.640072) scale(0.1 -0.1)">
       <defs>
        <path id="DejaVuSans-2212" d="M 678 2272
L 4684 2272
L 4684 1741
L 678 1741
L 678 2272
z
" transform="scale(0.015625)"/>
        <path id="DejaVuSans-32" d="M 1228 531
L 3431 531
L 3431 0
L 469 0
L 469 531
Q 828 903 1448 1529
Q 2069 2156 2228 2338
Q 2531 2678 2651 2914
Q 2772 3150 2772 3378
Q 2772 3750 2511 3984
Q 2250 4219 1831 4219
Q 1534 4219 1204 4116
Q 875 4013 500 3803
L 500 4441
Q 881 4594 1212 4672
Q 1544 4750 1819 4750
Q 2544 4750 2975 4387
Q 3406 4025 3406 3419
Q 3406 3131 3298 2873
Q 3191 2616 2906 2266
Q 2828 2175 2409 1742
Q 1991 1309 1228 531
z
" transform="scale(0.015625)"/>
       </defs>
       <use xlink:href="#DejaVuSans-2212"/>
       <use xlink:href="#DejaVuSans-32" transform="translate(83.789062 0)"/>
      </g>
     </g>
    </g>
    <g id="xtick_2">
     <g id="line2d_3">
      <path d="M 106.395405 287.041635
L 106.395405 35.318677
" clip-path="url(#p6030d75efa)" style="fill: none; stroke: #eceff1; stroke-width: 0.6; stroke-linecap: square"/>
     </g>
     <g id="line2d_4">
      <g>
       <use xlink:href="#m651918b4d1" x="106.395405" y="287.041635" style="stroke: #000000; stroke-width: 0.8"/>
      </g>
     </g>
     <g id="text_2">
      <!-- −1 -->
      <g transform="translate(99.024311 301.640072) scale(0.1 -0.1)">
       <defs>
        <path id="DejaVuSans-31" d="M 794 531
L 1825 531
L 1825 4091
L 703 3866
L 703 4441
L 1819 4666
L 2450 4666
L 2450 531
L 3481 531
L 3481 0
L 794 0
L 794 531
z
" transform="scale(0.015625)"/>
       </defs>
       <use xlink:href="#DejaVuSans-2212"/>
       <use xlink:href="#DejaVuSans-31" transform="translate(83.789062 0)"/>
      </g>
     </g>
    </g>
    <g id="xtick_3">
     <g id="line2d_5">
      <path d="M 154.803666 287.041635
L 154.803666 35.318677
" clip-path="url(#p6030d75efa)" style="fill: none; stroke: #eceff1; stroke-width: 0.6; stroke-linecap: square"/>
     </g>
     <g id="line2d_6">
      <g>
       <use xlink:href="#m651918b4d1" x="154.803666" y="287.041635" style="stroke: #000000; stroke-width: 0.8"/>
      </g>
     </g>
     <g id="text_3">
      <!-- 0 -->
      <g transform="translate(151.622416 301.640072) scale(0.1 -0.1)">
       <defs>
        <path id="DejaVuSans-30" d="M 2034 4250
Q 1547 4250 1301 3770
Q 1056 3291 1056 2328
Q 1056 1369 1301 889
Q 1547 409 2034 409
Q 2525 409 2770 889
Q 3016 1369 3016 2328
Q 3016 3291 2770 3770
Q 2525 4250 2034 4250
z
M 2034 4750
Q 2819 4750 3233 4129
Q 3647 3509 3647 2328
Q 3647 1150 3233 529
Q 2819 -91 2034 -91
Q 1250 -91 836 529
Q 422 1150 422 2328
Q 422 3509 836 4129
Q 1250 4750 2034 4750
z
" transform="scale(0.015625)"/>
       </defs>
       <use xlink:href="#DejaVuSans-30"/>
      </g>
     </g>
    </g>
    <g id="xtick_4">
     <g id="line2d_7">
      <path d="M 203.211927 287.041635
L 203.211927 35.318677
" clip-path="url(#p6030d75efa)" style="fill: none; stroke: #eceff1; stroke-width: 0.6; stroke-linecap: square"/>
     </g>
     <g id="line2d_8">
      <g>
       <use xlink:href="#m651918b4d1" x="203.211927" y="287.041635" style="stroke: #000000; stroke-width: 0.8"/>
      </g>
     </g>
     <g id="text_4">
      <!-- 1 -->
      <g transform="translate(200.030677 301.640072) scale(0.1 -0.1)">
       <use xlink:href="#DejaVuSans-31"/>
      </g>
     </g>
    </g>
    <g id="xtick_5">
     <g id="line2d_9">
      <path d="M 251.620188 287.041635
L 251.620188 35.318677
" clip-path="url(#p6030d75efa)" style="fill: none; stroke: #eceff1; stroke-width: 0.6; stroke-linecap: square"/>
     </g>
     <g id="line2d_10">
      <g>
       <use xlink:href="#m651918b4d1" x="251.620188" y="287.041635" style="stroke: #000000; stroke-width: 0.8"/>
      </g>
     </g>
     <g id="text_5">
      <!-- 2 -->
      <g transform="translate(248.438938 301.640072) scale(0.1 -0.1)">
       <use xlink:href="#DejaVuSans-32"/>
      </g>
     </g>
    </g>
   </g>
   <g id="matplotlib.axis_2">
    <g id="ytick_1">
     <g id="line2d_11">
      <path d="M 28.942187 257.996678
L 280.665145 257.996678
" clip-path="url(#p6030d75efa)" style="fill: none; stroke: #eceff1; stroke-width: 0.6; stroke-linecap: square"/>
     </g>
     <g id="line2d_12">
      <defs>
       <path id="m4c1678d84d" d="M 0 0
L -3.5 0
" style="stroke: #000000; stroke-width: 0.8"/>
      </defs>
      <g>
       <use xlink:href="#m4c1678d84d" x="28.942187" y="257.996678" style="stroke: #000000; stroke-width: 0.8"/>
      </g>
     </g>
     <g id="text_6">
      <!-- −2 -->
      <g transform="translate(7.2 261.795897) scale(0.1 -0.1)">
       <use xlink:href="#DejaVuSans-2212"/>
       <use xlink:href="#DejaVuSans-32" transform="translate(83.789062 0)"/>
      </g>
     </g>
    </g>
    <g id="ytick_2">
     <g id="line2d_13">
      <path d="M 28.942187 209.588417
L 280.665145 209.588417
" clip-path="url(#p6030d75efa)" style="fill: none; stroke: #eceff1; stroke-width: 0.6; stroke-linecap: square"/>
     </g>
     <g id="line2d_14">
      <g>
       <use xlink:href="#m4c1678d84d" x="28.942187" y="209.588417" style="stroke: #000000; stroke-width: 0.8"/>
      </g>
     </g>
     <g id="text_7">
      <!-- −1 -->
      <g transform="translate(7.2 213.387636) scale(0.1 -0.1)">
       <use xlink:href="#DejaVuSans-2212"/>
       <use xlink:href="#DejaVuSans-31" transform="translate(83.789062 0)"/>
      </g>
     </g>
    </g>
    <g id="ytick_3">
     <g id="line2d_15">
      <path d="M 28.942187 161.180156
L 280.665145 161.180156
" clip-path="url(#p6030d75efa)" style="fill: none; stroke: #eceff1; stroke-width: 0.6; stroke-linecap: square"/>
     </g>
     <g id="line2d_16">
      <g>
       <use xlink:href="#m4c1678d84d" x="28.942187" y="161.180156" style="stroke: #000000; stroke-width: 0.8"/>
      </g>
     </g>
     <g id="text_8">
      <!-- 0 -->
      <g transform="translate(15.579687 164.979375) scale(0.1 -0.1)">
       <use xlink:href="#DejaVuSans-30"/>
      </g>
     </g>
    </g>
    <g id="ytick_4">
     <g id="line2d_17">
      <path d="M 28.942187 112.771895
L 280.665145 112.771895
" clip-path="url(#p6030d75efa)" style="fill: none; stroke: #eceff1; stroke-width: 0.6; stroke-linecap: square"/>
     </g>
     <g id="line2d_18">
      <g>
       <use xlink:href="#m4c1678d84d" x="28.942187" y="112.771895" style="stroke: #000000; stroke-width: 0.8"/>
      </g>
     </g>
     <g id="text_9">
      <!-- 1 -->
      <g transform="translate(15.579687 116.571114) scale(0.1 -0.1)">
       <use xlink:href="#DejaVuSans-31"/>
      </g>
     </g>
    </g>
    <g id="ytick_5">
     <g id="line2d_19">
      <path d="M 28.942187 64.363634
L 280.665145 64.363634
" clip-path="url(#p6030d75efa)" style="fill: none; stroke: #eceff1; stroke-width: 0.6; stroke-linecap: square"/>
     </g>
     <g id="line2d_20">
      <g>
       <use xlink:href="#m4c1678d84d" x="28.942187" y="64.363634" style="stroke: #000000; stroke-width: 0.8"/>
      </g>
     </g>
     <g id="text_10">
      <!-- 2 -->
      <g transform="translate(15.579687 68.162853) scale(0.1 -0.1)">
       <use xlink:href="#DejaVuSans-32"/>
      </g>
     </g>
    </g>
   </g>
   <g id="line2d_21">
    <path d="M 48.305492 112.771895
L 90.904762 112.771895
L 133.504031 112.771895
L 176.103301 112.771895
L 218.702571 112.771895
L 261.301841 112.771895
" clip-path="url(#p6030d75efa)" style="fill: none; stroke: #546e7a; stroke-width: 1.5; stroke-linecap: square"/>
    <defs>
     <path id="mc0acfa214c" d="M 0 3
C 0.795609 3 1.55874 2.683901 2.12132 2.12132
C 2.683901 1.55874 3 0.795609 3 0
C 3 -0.795609 2.683901 -1.55874 2.12132 -2.12132
C 1.55874 -2.683901 0.795609 -3 0 -3
C -0.795609 -3 -1.55874 -2.683901 -2.12132 -2.12132
C -2.683901 -1.55874 -3 -0.795609 -3 0
C -3 0.795609 -2.683901 1.55874 -2.12132 2.12132
C -1.55874 2.683901 -0.795609 3 0 3
z
" style="stroke: #546e7a"/>
    </defs>
    <g clip-path="url(#p6030d75efa)">
     <use xlink:href="#mc0acfa214c" x="48.305492" y="112.771895" style="fill: #546e7a; stroke: #546e7a"/>
     <use xlink:href="#mc0acfa214c" x="90.904762" y="112.771895" style="fill: #546e7a; stroke: #546e7a"/>
     <use xlink:href="#mc0acfa214c" x="133.504031" y="112.771895" style="fill: #546e7a; stroke: #546e7a"/>
     <use xlink:href="#mc0acfa214c" x="176.103301" y="112.771895" style="fill: #546e7a; stroke: #546e7a"/>
     <use xlink:href="#mc0acfa214c" x="218.702571" y="112.771895" style="fill: #546e7a; stroke: #546e7a"/>
     <use xlink:href="#mc0acfa214c" x="261.301841" y="112.771895" style="fill: #546e7a; stroke: #546e7a"/>
    </g>
   </g>
   <g id="line2d_22">
    <path d="M 48.305492 209.588417
L 90.904762 209.588417
L 133.504031 209.588417
L 176.103301 209.588417
L 218.702571 209.588417
L 261.301841 209.588417
" clip-path="url(#p6030d75efa)" style="fill: none; stroke: #00838f; stroke-width: 1.5; stroke-linecap: square"/>
    <defs>
     <path id="m8257989392" d="M 0 3
C 0.795609 3 1.55874 2.683901 2.12132 2.12132
C 2.683901 1.55874 3 0.795609 3 0
C 3 -0.795609 2.683901 -1.55874 2.12132 -2.12132
C 1.55874 -2.683901 0.795609 -3 0 -3
C -0.795609 -3 -1.55874 -2.683901 -2.12132 -2.12132
C -2.683901 -1.55874 -3 -0.795609 -3 0
C -3 0.795609 -2.683901 1.55874 -2.12132 2.12132
C -1.55874 2.683901 -0.795609 3 0 3
z
" style="stroke: #00838f"/>
    </defs>
    <g clip-path="url(#p6030d75efa)">
     <use xlink:href="#m8257989392" x="48.305492" y="209.588417" style="fill: #00838f; stroke: #00838f"/>
     <use xlink:href="#m8257989392" x="90.904762" y="209.588417" style="fill: #00838f; stroke: #00838f"/>
     <use xlink:href="#m8257989392" x="133.504031" y="209.588417" style="fill: #00838f; stroke: #00838f"/>
     <use xlink:href="#m8257989392" x="176.103301" y="209.588417" style="fill: #00838f; stroke: #00838f"/>
     <use xlink:href="#m8257989392" x="218.702571" y="209.588417" style="fill: #00838f; stroke: #00838f"/>
     <use xlink:href="#m8257989392" x="261.301841" y="209.588417" style="fill: #00838f; stroke: #00838f"/>
    </g>
   </g>
   <g id="line2d_23">
    <path d="M 48.305492 112.771895
L 48.305492 209.588417
" clip-path="url(#p6030d75efa)" style="fill: none; stroke-dasharray: 3.33,1.44; stroke-dashoffset: 0; stroke: #9e9e9e; stroke-width: 0.9"/>
   </g>
   <g id="line2d_24">
    <defs>
     <path id="m7353fe5ff5" d="M 0 2.5
C 0.663008 2.5 1.29895 2.236584 1.767767 1.767767
C 2.236584 1.29895 2.5 0.663008 2.5 0
C 2.5 -0.663008 2.236584 -1.29895 1.767767 -1.767767
C 1.29895 -2.236584 0.663008 -2.5 0 -2.5
C -0.663008 -2.5 -1.29895 -2.236584 -1.767767 -1.767767
C -2.236584 -1.29895 -2.5 -0.663008 -2.5 0
C -2.5 0.663008 -2.236584 1.29895 -1.767767 1.767767
C -1.29895 2.236584 -0.663008 2.5 0 2.5
z
" style="stroke: #f9a825"/>
    </defs>
    <g clip-path="url(#p6030d75efa)">
     <use xlink:href="#m7353fe5ff5" x="48.305492" y="161.180156" style="fill: #f9a825; stroke: #f9a825"/>
    </g>
   </g>
   <g id="line2d_25">
    <path d="M 90.904762 112.771895
L 90.904762 209.588417
" clip-path="url(#p6030d75efa)" style="fill: none; stroke-dasharray: 3.33,1.44; stroke-dashoffset: 0; stroke: #9e9e9e; stroke-width: 0.9"/>
   </g>
   <g id="line2d_26">
    <g clip-path="url(#p6030d75efa)">
     <use xlink:href="#m7353fe5ff5" x="90.904762" y="161.180156" style="fill: #f9a825; stroke: #f9a825"/>
    </g>
   </g>
   <g id="line2d_27">
    <path d="M 133.504031 112.771895
L 133.504031 209.588417
" clip-path="url(#p6030d75efa)" style="fill: none; stroke-dasharray: 3.33,1.44; stroke-dashoffset: 0; stroke: #9e9e9e; stroke-width: 0.9"/>
   </g>
   <g id="line2d_28">
    <g clip-path="url(#p6030d75efa)">
     <use xlink:href="#m7353fe5ff5" x="133.504031" y="161.180156" style="fill: #f9a825; stroke: #f9a825"/>
    </g>
   </g>
   <g id="line2d_29">
    <path d="M 176.103301 112.771895
L 176.103301 209.588417
" clip-path="url(#p6030d75efa)" style="fill: none; stroke-dasharray: 3.33,1.44; stroke-dashoffset: 0; stroke: #9e9e9e; stroke-width: 0.9"/>
   </g>
   <g id="line2d_30">
    <g clip-path="url(#p6030d75efa)">
     <use xlink:href="#m7353fe5ff5" x="176.103301" y="161.180156" style="fill: #f9a825; stroke: #f9a825"/>
    </g>
   </g>
   <g id="line2d_31">
    <path d="M 218.702571 112.771895
L 218.702571 209.588417
" clip-path="url(#p6030d75efa)" style="fill: none; stroke-dasharray: 3.33,1.44; stroke-dashoffset: 0; stroke: #9e9e9e; stroke-width: 0.9"/>
   </g>
   <g id="line2d_32">
    <g clip-path="url(#p6030d75efa)">
     <use xlink:href="#m7353fe5ff5" x="218.702571" y="161.180156" style="fill: #f9a825; stroke: #f9a825"/>
    </g>
   </g>
   <g id="line2d_33">
    <path d="M 261.301841 112.771895
L 261.301841 209.588417
" clip-path="url(#p6030d75efa)" style="fill: none; stroke-dasharray: 3.33,1.44; stroke-dashoffset: 0; stroke: #9e9e9e; stroke-width: 0.9"/>
   </g>
   <g id="line2d_34">
    <g clip-path="url(#p6030d75efa)">
     <use xlink:href="#m7353fe5ff5" x="261.301841" y="161.180156" style="fill: #f9a825; stroke: #f9a825"/>
    </g>
   </g>
   <g id="line2d_35">
    <path d="M 28.942187 161.180156
L 280.665145 161.180156
" clip-path="url(#p6030d75efa)" style="fill: none; stroke: #cfd8dc; stroke-width: 0.8; stroke-linecap: square"/>
   </g>
   <g id="line2d_36">
    <path d="M 154.803666 287.041635
L 154.803666 35.318677
" clip-path="url(#p6030d75efa)" style="fill: none; stroke: #cfd8dc; stroke-width: 0.8; stroke-linecap: square"/>
   </g>
   <g id="patch_3">
    <path d="M 28.942187 287.041635
L 28.942187 35.318677
" style="fill: none; stroke: #000000; stroke-width: 0.8; stroke-linejoin: miter; stroke-linecap: square"/>
   </g>
   <g id="patch_4">
    <path d="M 280.665145 287.041635
L 280.665145 35.318677
" style="fill: none; stroke: #000000; stroke-width: 0.8; stroke-linejoin: miter; stroke-linecap: square"/>
   </g>
   <g id="patch_5">
    <path d="M 28.942188 287.041635
L 280.665145 287.041635
" style="fill: none; stroke: #000000; stroke-width: 0.8; stroke-linejoin: miter; stroke-linecap: square"/>
   </g>
   <g id="patch_6">
    <path d="M 28.942188 35.318677
L 280.665145 35.318677
" style="fill: none; stroke: #000000; stroke-width: 0.8; stroke-linejoin: miter; stroke-linecap: square"/>
   </g>
   <g id="text_11">
    <!-- reflection across x-axis -->
    <g transform="translate(97.248198 29.318677) scale(0.1 -0.1)">
     <defs>
      <path id="DejaVuSans-72" d="M 2631 2963
Q 2534 3019 2420 3045
Q 2306 3072 2169 3072
Q 1681 3072 1420 2755
Q 1159 2438 1159 1844
L 1159 0
L 581 0
L 581 3500
L 1159 3500
L 1159 2956
Q 1341 3275 1631 3429
Q 1922 3584 2338 3584
Q 2397 3584 2469 3576
Q 2541 3569 2628 3553
L 2631 2963
z
" transform="scale(0.015625)"/>
      <path id="DejaVuSans-65" d="M 3597 1894
L 3597 1613
L 953 1613
Q 991 1019 1311 708
Q 1631 397 2203 397
Q 2534 397 2845 478
Q 3156 559 3463 722
L 3463 178
Q 3153 47 2828 -22
Q 2503 -91 2169 -91
Q 1331 -91 842 396
Q 353 884 353 1716
Q 353 2575 817 3079
Q 1281 3584 2069 3584
Q 2775 3584 3186 3129
Q 3597 2675 3597 1894
z
M 3022 2063
Q 3016 2534 2758 2815
Q 2500 3097 2075 3097
Q 1594 3097 1305 2825
Q 1016 2553 972 2059
L 3022 2063
z
" transform="scale(0.015625)"/>
      <path id="DejaVuSans-66" d="M 2375 4863
L 2375 4384
L 1825 4384
Q 1516 4384 1395 4259
Q 1275 4134 1275 3809
L 1275 3500
L 2222 3500
L 2222 3053
L 1275 3053
L 1275 0
L 697 0
L 697 3053
L 147 3053
L 147 3500
L 697 3500
L 697 3744
Q 697 4328 969 4595
Q 1241 4863 1831 4863
L 2375 4863
z
" transform="scale(0.015625)"/>
      <path id="DejaVuSans-6c" d="M 603 4863
L 1178 4863
L 1178 0
L 603 0
L 603 4863
z
" transform="scale(0.015625)"/>
      <path id="DejaVuSans-63" d="M 3122 3366
L 3122 2828
Q 2878 2963 2633 3030
Q 2388 3097 2138 3097
Q 1578 3097 1268 2742
Q 959 2388 959 1747
Q 959 1106 1268 751
Q 1578 397 2138 397
Q 2388 397 2633 464
Q 2878 531 3122 666
L 3122 134
Q 2881 22 2623 -34
Q 2366 -91 2075 -91
Q 1284 -91 818 406
Q 353 903 353 1747
Q 353 2603 823 3093
Q 1294 3584 2113 3584
Q 2378 3584 2631 3529
Q 2884 3475 3122 3366
z
" transform="scale(0.015625)"/>
      <path id="DejaVuSans-74" d="M 1172 4494
L 1172 3500
L 2356 3500
L 2356 3053
L 1172 3053
L 1172 1153
Q 1172 725 1289 603
Q 1406 481 1766 481
L 2356 481
L 2356 0
L 1766 0
Q 1100 0 847 248
Q 594 497 594 1153
L 594 3053
L 172 3053
L 172 3500
L 594 3500
L 594 4494
L 1172 4494
z
" transform="scale(0.015625)"/>
      <path id="DejaVuSans-69" d="M 603 3500
L 1178 3500
L 1178 0
L 603 0
L 603 3500
z
M 603 4863
L 1178 4863
L 1178 4134
L 603 4134
L 603 4863
z
" transform="scale(0.015625)"/>
      <path id="DejaVuSans-6f" d="M 1959 3097
Q 1497 3097 1228 2736
Q 959 2375 959 1747
Q 959 1119 1226 758
Q 1494 397 1959 397
Q 2419 397 2687 759
Q 2956 1122 2956 1747
Q 2956 2369 2687 2733
Q 2419 3097 1959 3097
z
M 1959 3584
Q 2709 3584 3137 3096
Q 3566 2609 3566 1747
Q 3566 888 3137 398
Q 2709 -91 1959 -91
Q 1206 -91 779 398
Q 353 888 353 1747
Q 353 2609 779 3096
Q 1206 3584 1959 3584
z
" transform="scale(0.015625)"/>
      <path id="DejaVuSans-6e" d="M 3513 2113
L 3513 0
L 2938 0
L 2938 2094
Q 2938 2591 2744 2837
Q 2550 3084 2163 3084
Q 1697 3084 1428 2787
Q 1159 2491 1159 1978
L 1159 0
L 581 0
L 581 3500
L 1159 3500
L 1159 2956
Q 1366 3272 1645 3428
Q 1925 3584 2291 3584
Q 2894 3584 3203 3211
Q 3513 2838 3513 2113
z
" transform="scale(0.015625)"/>
      <path id="DejaVuSans-20" transform="scale(0.015625)"/>
      <path id="DejaVuSans-61" d="M 2194 1759
Q 1497 1759 1228 1600
Q 959 1441 959 1056
Q 959 750 1161 570
Q 1363 391 1709 391
Q 2188 391 2477 730
Q 2766 1069 2766 1631
L 2766 1759
L 2194 1759
z
M 3341 1997
L 3341 0
L 2766 0
L 2766 531
Q 2569 213 2275 61
Q 1981 -91 1556 -91
Q 1019 -91 701 211
Q 384 513 384 1019
Q 384 1609 779 1909
Q 1175 2209 1959 2209
L 2766 2209
L 2766 2266
Q 2766 2663 2505 2880
Q 2244 3097 1772 3097
Q 1472 3097 1187 3025
Q 903 2953 641 2809
L 641 3341
Q 956 3463 1253 3523
Q 1550 3584 1831 3584
Q 2591 3584 2966 3190
Q 3341 2797 3341 1997
z
" transform="scale(0.015625)"/>
      <path id="DejaVuSans-73" d="M 2834 3397
L 2834 2853
Q 2591 2978 2328 3040
Q 2066 3103 1784 3103
Q 1356 3103 1142 2972
Q 928 2841 928 2578
Q 928 2378 1081 2264
Q 1234 2150 1697 2047
L 1894 2003
Q 2506 1872 2764 1633
Q 3022 1394 3022 966
Q 3022 478 2636 193
Q 2250 -91 1575 -91
Q 1294 -91 989 -36
Q 684 19 347 128
L 347 722
Q 666 556 975 473
Q 1284 391 1588 391
Q 1994 391 2212 530
Q 2431 669 2431 922
Q 2431 1156 2273 1281
Q 2116 1406 1581 1522
L 1381 1569
Q 847 1681 609 1914
Q 372 2147 372 2553
Q 372 3047 722 3315
Q 1072 3584 1716 3584
Q 2034 3584 2315 3537
Q 2597 3491 2834 3397
z
" transform="scale(0.015625)"/>
      <path id="DejaVuSans-78" d="M 3513 3500
L 2247 1797
L 3578 0
L 2900 0
L 1881 1375
L 863 0
L 184 0
L 1544 1831
L 300 3500
L 978 3500
L 1906 2253
L 2834 3500
L 3513 3500
z
" transform="scale(0.015625)"/>
      <path id="DejaVuSans-2d" d="M 313 2009
L 1997 2009
L 1997 1497
L 313 1497
L 313 2009
z
" transform="scale(0.015625)"/>
     </defs>
     <use xlink:href="#DejaVuSans-72"/>
     <use xlink:href="#DejaVuSans-65" transform="translate(38.863281 0)"/>
     <use xlink:href="#DejaVuSans-66" transform="translate(100.386719 0)"/>
     <use xlink:href="#DejaVuSans-6c" transform="translate(135.591797 0)"/>
     <use xlink:href="#DejaVuSans-65" transform="translate(163.375 0)"/>
     <use xlink:href="#DejaVuSans-63" transform="translate(224.898438 0)"/>
     <use xlink:href="#DejaVuSans-74" transform="translate(279.878906 0)"/>
     <use xlink:href="#DejaVuSans-69" transform="translate(319.087891 0)"/>
     <use xlink:href="#DejaVuSans-6f" transform="translate(346.871094 0)"/>
     <use xlink:href="#DejaVuSans-6e" transform="translate(408.052734 0)"/>
     <use xlink:href="#DejaVuSans-20" transform="translate(471.431641 0)"/>
     <use xlink:href="#DejaVuSans-61" transform="translate(503.21875 0)"/>
     <use xlink:href="#DejaVuSans-63" transform="translate(564.498047 0)"/>
     <use xlink:href="#DejaVuSans-72" transform="translate(619.478516 0)"/>
     <use xlink:href="#DejaVuSans-6f" transform="translate(658.341797 0)"/>
     <use xlink:href="#DejaVuSans-73" transform="translate(719.523438 0)"/>
     <use xlink:href="#DejaVuSans-73" transform="translate(771.623047 0)"/>
     <use xlink:href="#DejaVuSans-20" transform="translate(823.722656 0)"/>
     <use xlink:href="#DejaVuSans-78" transform="translate(855.509766 0)"/>
     <use xlink:href="#DejaVuSans-2d" transform="translate(914.689453 0)"/>
     <use xlink:href="#DejaVuSans-61" transform="translate(950.773438 0)"/>
     <use xlink:href="#DejaVuSans-78" transform="translate(1012.052734 0)"/>
     <use xlink:href="#DejaVuSans-69" transform="translate(1071.232422 0)"/>
     <use xlink:href="#DejaVuSans-73" transform="translate(1099.015625 0)"/>
    </g>
   </g>
   <g id="legend_1">
    <g id="patch_7">
     <path d="M 205.922645 65.203677
L 275.065145 65.203677
Q 276.665145 65.203677 276.665145 63.603677
L 276.665145 40.918677
Q 276.665145 39.318677 275.065145 39.318677
L 205.922645 39.318677
Q 204.322645 39.318677 204.322645 40.918677
L 204.322645 63.603677
Q 204.322645 65.203677 205.922645 65.203677
z
" style="fill: #ffffff; opacity: 0.8; stroke: #cccccc; stroke-linejoin: miter"/>
    </g>
    <g id="line2d_37">
     <path d="M 207.522645 45.797427
L 215.522645 45.797427
L 223.522645 45.797427
" style="fill: none; stroke: #546e7a; stroke-width: 1.5; stroke-linecap: square"/>
     <g>
      <use xlink:href="#mc0acfa214c" x="215.522645" y="45.797427" style="fill: #546e7a; stroke: #546e7a"/>
     </g>
    </g>
    <g id="text_12">
     <!-- source line -->
     <g transform="translate(229.922645 48.597427) scale(0.08 -0.08)">
      <defs>
       <path id="DejaVuSans-75" d="M 544 1381
L 544 3500
L 1119 3500
L 1119 1403
Q 1119 906 1312 657
Q 1506 409 1894 409
Q 2359 409 2629 706
Q 2900 1003 2900 1516
L 2900 3500
L 3475 3500
L 3475 0
L 2900 0
L 2900 538
Q 2691 219 2414 64
Q 2138 -91 1772 -91
Q 1169 -91 856 284
Q 544 659 544 1381
z
M 1991 3584
L 1991 3584
z
" transform="scale(0.015625)"/>
      </defs>
      <use xlink:href="#DejaVuSans-73"/>
      <use xlink:href="#DejaVuSans-6f" transform="translate(52.099609 0)"/>
      <use xlink:href="#DejaVuSans-75" transform="translate(113.28125 0)"/>
      <use xlink:href="#DejaVuSans-72" transform="translate(176.660156 0)"/>
      <use xlink:href="#DejaVuSans-63" transform="translate(215.523438 0)"/>
      <use xlink:href="#DejaVuSans-65" transform="translate(270.503906 0)"/>
      <use xlink:href="#DejaVuSans-20" transform="translate(332.027344 0)"/>
      <use xlink:href="#DejaVuSans-6c" transform="translate(363.814453 0)"/>
      <use xlink:href="#DejaVuSans-69" transform="translate(391.597656 0)"/>
      <use xlink:href="#DejaVuSans-6e" transform="translate(419.380859 0)"/>
      <use xlink:href="#DejaVuSans-65" transform="translate(482.759766 0)"/>
     </g>
    </g>
    <g id="line2d_38">
     <path d="M 207.522645 57.539927
L 215.522645 57.539927
L 223.522645 57.539927
" style="fill: none; stroke: #00838f; stroke-width: 1.5; stroke-linecap: square"/>
     <g>
      <use xlink:href="#m8257989392" x="215.522645" y="57.539927" style="fill: #00838f; stroke: #00838f"/>
     </g>
    </g>
    <g id="text_13">
     <!-- image line -->
     <g transform="translate(229.922645 60.339927) scale(0.08 -0.08)">
      <defs>
       <path id="DejaVuSans-6d" d="M 3328 2828
Q 3544 3216 3844 3400
Q 4144 3584 4550 3584
Q 5097 3584 5394 3201
Q 5691 2819 5691 2113
L 5691 0
L 5113 0
L 5113 2094
Q 5113 2597 4934 2840
Q 4756 3084 4391 3084
Q 3944 3084 3684 2787
Q 3425 2491 3425 1978
L 3425 0
L 2847 0
L 2847 2094
Q 2847 2600 2669 2842
Q 2491 3084 2119 3084
Q 1678 3084 1418 2786
Q 1159 2488 1159 1978
L 1159 0
L 581 0
L 581 3500
L 1159 3500
L 1159 2956
Q 1356 3278 1631 3431
Q 1906 3584 2284 3584
Q 2666 3584 2933 3390
Q 3200 3197 3328 2828
z
" transform="scale(0.015625)"/>
       <path id="DejaVuSans-67" d="M 2906 1791
Q 2906 2416 2648 2759
Q 2391 3103 1925 3103
Q 1463 3103 1205 2759
Q 947 2416 947 1791
Q 947 1169 1205 825
Q 1463 481 1925 481
Q 2391 481 2648 825
Q 2906 1169 2906 1791
z
M 3481 434
Q 3481 -459 3084 -895
Q 2688 -1331 1869 -1331
Q 1566 -1331 1297 -1286
Q 1028 -1241 775 -1147
L 775 -588
Q 1028 -725 1275 -790
Q 1522 -856 1778 -856
Q 2344 -856 2625 -561
Q 2906 -266 2906 331
L 2906 616
Q 2728 306 2450 153
Q 2172 0 1784 0
Q 1141 0 747 490
Q 353 981 353 1791
Q 353 2603 747 3093
Q 1141 3584 1784 3584
Q 2172 3584 2450 3431
Q 2728 3278 2906 2969
L 2906 3500
L 3481 3500
L 3481 434
z
" transform="scale(0.015625)"/>
      </defs>
      <use xlink:href="#DejaVuSans-69"/>
      <use xlink:href="#DejaVuSans-6d" transform="translate(27.783203 0)"/>
      <use xlink:href="#DejaVuSans-61" transform="translate(125.195312 0)"/>
      <use xlink:href="#DejaVuSans-67" transform="translate(186.474609 0)"/>
      <use xlink:href="#DejaVuSans-65" transform="translate(249.951172 0)"/>
      <use xlink:href="#DejaVuSans-20" transform="translate(311.474609 0)"/>
      <use xlink:href="#DejaVuSans-6c" transform="translate(343.261719 0)"/>
      <use xlink:href="#DejaVuSans-69" transform="translate(371.044922 0)"/>
      <use xlink:href="#DejaVuSans-6e" transform="translate(398.828125 0)"/>
      <use xlink:href="#DejaVuSans-65" transform="translate(462.207031 0)"/>
     </g>
    </g>
   </g>
  </g>
  <g id="axes_2">
   <g id="patch_8">
    <path d="M 425.901948 287.041635
L 677.624905 287.041635
L 677.624905 35.318677
L 425.901948 35.318677
z
" style="fill: #ffffff"/>
   </g>
   <g id="matplotlib.axis_3">
    <g id="xtick_6">
     <g id="line2d_39">
      <path d="M 454.946904 287.041635
L 454.946904 35.318677
" clip-path="url(#pf8feddc594)" style="fill: none; stroke: #eceff1; stroke-width: 0.6; stroke-linecap: square"/>
     </g>
     <g id="line2d_40">
      <g>
       <use xlink:href="#m651918b4d1" x="454.946904" y="287.041635" style="stroke: #000000; stroke-width: 0.8"/>
      </g>
     </g>
     <g id="text_14">
      <!-- −2 -->
      <g transform="translate(447.57581 301.640072) scale(0.1 -0.1)">
       <use xlink:href="#DejaVuSans-2212"/>
       <use xlink:href="#DejaVuSans-32" transform="translate(83.789062 0)"/>
      </g>
     </g>
    </g>
    <g id="xtick_7">
     <g id="line2d_41">
      <path d="M 503.355165 287.041635
L 503.355165 35.318677
" clip-path="url(#pf8feddc594)" style="fill: none; stroke: #eceff1; stroke-width: 0.6; stroke-linecap: square"/>
     </g>
     <g id="line2d_42">
      <g>
       <use xlink:href="#m651918b4d1" x="503.355165" y="287.041635" style="stroke: #000000; stroke-width: 0.8"/>
      </g>
     </g>
     <g id="text_15">
      <!-- −1 -->
      <g transform="translate(495.984071 301.640072) scale(0.1 -0.1)">
       <use xlink:href="#DejaVuSans-2212"/>
       <use xlink:href="#DejaVuSans-31" transform="translate(83.789062 0)"/>
      </g>
     </g>
    </g>
    <g id="xtick_8">
     <g id="line2d_43">
      <path d="M 551.763426 287.041635
L 551.763426 35.318677
" clip-path="url(#pf8feddc594)" style="fill: none; stroke: #eceff1; stroke-width: 0.6; stroke-linecap: square"/>
     </g>
     <g id="line2d_44">
      <g>
       <use xlink:href="#m651918b4d1" x="551.763426" y="287.041635" style="stroke: #000000; stroke-width: 0.8"/>
      </g>
     </g>
     <g id="text_16">
      <!-- 0 -->
      <g transform="translate(548.582176 301.640072) scale(0.1 -0.1)">
       <use xlink:href="#DejaVuSans-30"/>
      </g>
     </g>
    </g>
    <g id="xtick_9">
     <g id="line2d_45">
      <path d="M 600.171687 287.041635
L 600.171687 35.318677
" clip-path="url(#pf8feddc594)" style="fill: none; stroke: #eceff1; stroke-width: 0.6; stroke-linecap: square"/>
     </g>
     <g id="line2d_46">
      <g>
       <use xlink:href="#m651918b4d1" x="600.171687" y="287.041635" style="stroke: #000000; stroke-width: 0.8"/>
      </g>
     </g>
     <g id="text_17">
      <!-- 1 -->
      <g transform="translate(596.990437 301.640072) scale(0.1 -0.1)">
       <use xlink:href="#DejaVuSans-31"/>
      </g>
     </g>
    </g>
    <g id="xtick_10">
     <g id="line2d_47">
      <path d="M 648.579948 287.041635
L 648.579948 35.318677
" clip-path="url(#pf8feddc594)" style="fill: none; stroke: #eceff1; stroke-width: 0.6; stroke-linecap: square"/>
     </g>
     <g id="line2d_48">
      <g>
       <use xlink:href="#m651918b4d1" x="648.579948" y="287.041635" style="stroke: #000000; stroke-width: 0.8"/>
      </g>
     </g>
     <g id="text_18">
      <!-- 2 -->
      <g transform="translate(645.398698 301.640072) scale(0.1 -0.1)">
       <use xlink:href="#DejaVuSans-32"/>
      </g>
     </g>
    </g>
   </g>
   <g id="matplotlib.axis_4">
    <g id="ytick_6">
     <g id="line2d_49">
      <path d="M 425.901948 257.996678
L 677.624905 257.996678
" clip-path="url(#pf8feddc594)" style="fill: none; stroke: #eceff1; stroke-width: 0.6; stroke-linecap: square"/>
     </g>
     <g id="line2d_50">
      <g>
       <use xlink:href="#m4c1678d84d" x="425.901948" y="257.996678" style="stroke: #000000; stroke-width: 0.8"/>
      </g>
     </g>
     <g id="text_19">
      <!-- −2 -->
      <g transform="translate(404.15976 261.795897) scale(0.1 -0.1)">
       <use xlink:href="#DejaVuSans-2212"/>
       <use xlink:href="#DejaVuSans-32" transform="translate(83.789062 0)"/>
      </g>
     </g>
    </g>
    <g id="ytick_7">
     <g id="line2d_51">
      <path d="M 425.901948 209.588417
L 677.624905 209.588417
" clip-path="url(#pf8feddc594)" style="fill: none; stroke: #eceff1; stroke-width: 0.6; stroke-linecap: square"/>
     </g>
     <g id="line2d_52">
      <g>
       <use xlink:href="#m4c1678d84d" x="425.901948" y="209.588417" style="stroke: #000000; stroke-width: 0.8"/>
      </g>
     </g>
     <g id="text_20">
      <!-- −1 -->
      <g transform="translate(404.15976 213.387636) scale(0.1 -0.1)">
       <use xlink:href="#DejaVuSans-2212"/>
       <use xlink:href="#DejaVuSans-31" transform="translate(83.789062 0)"/>
      </g>
     </g>
    </g>
    <g id="ytick_8">
     <g id="line2d_53">
      <path d="M 425.901948 161.180156
L 677.624905 161.180156
" clip-path="url(#pf8feddc594)" style="fill: none; stroke: #eceff1; stroke-width: 0.6; stroke-linecap: square"/>
     </g>
     <g id="line2d_54">
      <g>
       <use xlink:href="#m4c1678d84d" x="425.901948" y="161.180156" style="stroke: #000000; stroke-width: 0.8"/>
      </g>
     </g>
     <g id="text_21">
      <!-- 0 -->
      <g transform="translate(412.539447 164.979375) scale(0.1 -0.1)">
       <use xlink:href="#DejaVuSans-30"/>
      </g>
     </g>
    </g>
    <g id="ytick_9">
     <g id="line2d_55">
      <path d="M 425.901948 112.771895
L 677.624905 112.771895
" clip-path="url(#pf8feddc594)" style="fill: none; stroke: #eceff1; stroke-width: 0.6; stroke-linecap: square"/>
     </g>
     <g id="line2d_56">
      <g>
       <use xlink:href="#m4c1678d84d" x="425.901948" y="112.771895" style="stroke: #000000; stroke-width: 0.8"/>
      </g>
     </g>
     <g id="text_22">
      <!-- 1 -->
      <g transform="translate(412.539447 116.571114) scale(0.1 -0.1)">
       <use xlink:href="#DejaVuSans-31"/>
      </g>
     </g>
    </g>
    <g id="ytick_10">
     <g id="line2d_57">
      <path d="M 425.901948 64.363634
L 677.624905 64.363634
" clip-path="url(#pf8feddc594)" style="fill: none; stroke: #eceff1; stroke-width: 0.6; stroke-linecap: square"/>
     </g>
     <g id="line2d_58">
      <g>
       <use xlink:href="#m4c1678d84d" x="425.901948" y="64.363634" style="stroke: #000000; stroke-width: 0.8"/>
      </g>
     </g>
     <g id="text_23">
      <!-- 2 -->
      <g transform="translate(412.539447 68.162853) scale(0.1 -0.1)">
       <use xlink:href="#DejaVuSans-32"/>
      </g>
     </g>
    </g>
   </g>
   <g id="line2d_59">
    <path d="M 445.265252 112.771895
L 487.864522 112.771895
L 530.463791 112.771895
L 573.063061 112.771895
L 615.662331 112.771895
L 658.261601 112.771895
" clip-path="url(#pf8feddc594)" style="fill: none; stroke: #546e7a; stroke-width: 1.5; stroke-linecap: square"/>
    <g clip-path="url(#pf8feddc594)">
     <use xlink:href="#mc0acfa214c" x="445.265252" y="112.771895" style="fill: #546e7a; stroke: #546e7a"/>
     <use xlink:href="#mc0acfa214c" x="487.864522" y="112.771895" style="fill: #546e7a; stroke: #546e7a"/>
     <use xlink:href="#mc0acfa214c" x="530.463791" y="112.771895" style="fill: #546e7a; stroke: #546e7a"/>
     <use xlink:href="#mc0acfa214c" x="573.063061" y="112.771895" style="fill: #546e7a; stroke: #546e7a"/>
     <use xlink:href="#mc0acfa214c" x="615.662331" y="112.771895" style="fill: #546e7a; stroke: #546e7a"/>
     <use xlink:href="#mc0acfa214c" x="658.261601" y="112.771895" style="fill: #546e7a; stroke: #546e7a"/>
    </g>
   </g>
   <g id="line2d_60">
    <path d="M 658.261601 209.588417
L 615.662331 209.588417
L 573.063061 209.588417
L 530.463791 209.588417
L 487.864522 209.588417
L 445.265252 209.588417
" clip-path="url(#pf8feddc594)" style="fill: none; stroke: #c62828; stroke-width: 1.5; stroke-linecap: square"/>
    <defs>
     <path id="m4952596191" d="M 0 3
C 0.795609 3 1.55874 2.683901 2.12132 2.12132
C 2.683901 1.55874 3 0.795609 3 0
C 3 -0.795609 2.683901 -1.55874 2.12132 -2.12132
C 1.55874 -2.683901 0.795609 -3 0 -3
C -0.795609 -3 -1.55874 -2.683901 -2.12132 -2.12132
C -2.683901 -1.55874 -3 -0.795609 -3 0
C -3 0.795609 -2.683901 1.55874 -2.12132 2.12132
C -1.55874 2.683901 -0.795609 3 0 3
z
" style="stroke: #c62828"/>
    </defs>
    <g clip-path="url(#pf8feddc594)">
     <use xlink:href="#m4952596191" x="658.261601" y="209.588417" style="fill: #c62828; stroke: #c62828"/>
     <use xlink:href="#m4952596191" x="615.662331" y="209.588417" style="fill: #c62828; stroke: #c62828"/>
     <use xlink:href="#m4952596191" x="573.063061" y="209.588417" style="fill: #c62828; stroke: #c62828"/>
     <use xlink:href="#m4952596191" x="530.463791" y="209.588417" style="fill: #c62828; stroke: #c62828"/>
     <use xlink:href="#m4952596191" x="487.864522" y="209.588417" style="fill: #c62828; stroke: #c62828"/>
     <use xlink:href="#m4952596191" x="445.265252" y="209.588417" style="fill: #c62828; stroke: #c62828"/>
    </g>
   </g>
   <g id="line2d_61">
    <path d="M 445.265252 112.771895
L 658.261601 209.588417
" clip-path="url(#pf8feddc594)" style="fill: none; stroke-dasharray: 3.33,1.44; stroke-dashoffset: 0; stroke: #9e9e9e; stroke-width: 0.9"/>
   </g>
   <g id="line2d_62">
    <g clip-path="url(#pf8feddc594)">
     <use xlink:href="#m7353fe5ff5" x="551.763426" y="161.180156" style="fill: #f9a825; stroke: #f9a825"/>
    </g>
   </g>
   <g id="line2d_63">
    <path d="M 487.864522 112.771895
L 615.662331 209.588417
" clip-path="url(#pf8feddc594)" style="fill: none; stroke-dasharray: 3.33,1.44; stroke-dashoffset: 0; stroke: #9e9e9e; stroke-width: 0.9"/>
   </g>
   <g id="line2d_64">
    <g clip-path="url(#pf8feddc594)">
     <use xlink:href="#m7353fe5ff5" x="551.763426" y="161.180156" style="fill: #f9a825; stroke: #f9a825"/>
    </g>
   </g>
   <g id="line2d_65">
    <path d="M 530.463791 112.771895
L 573.063061 209.588417
" clip-path="url(#pf8feddc594)" style="fill: none; stroke-dasharray: 3.33,1.44; stroke-dashoffset: 0; stroke: #9e9e9e; stroke-width: 0.9"/>
   </g>
   <g id="line2d_66">
    <g clip-path="url(#pf8feddc594)">
     <use xlink:href="#m7353fe5ff5" x="551.763426" y="161.180156" style="fill: #f9a825; stroke: #f9a825"/>
    </g>
   </g>
   <g id="line2d_67">
    <path d="M 573.063061 112.771895
L 530.463791 209.588417
" clip-path="url(#pf8feddc594)" style="fill: none; stroke-dasharray: 3.33,1.44; stroke-dashoffset: 0; stroke: #9e9e9e; stroke-width: 0.9"/>
   </g>
   <g id="line2d_68">
    <g clip-path="url(#pf8feddc594)">
     <use xlink:href="#m7353fe5ff5" x="551.763426" y="161.180156" style="fill: #f9a825; stroke: #f9a825"/>
    </g>
   </g>
   <g id="line2d_69">
    <path d="M 615.662331 112.771895
L 487.864522 209.588417
" clip-path="url(#pf8feddc594)" style="fill: none; stroke-dasharray: 3.33,1.44; stroke-dashoffset: 0; stroke: #9e9e9e; stroke-width: 0.9"/>
   </g>
   <g id="line2d_70">
    <g clip-path="url(#pf8feddc594)">
     <use xlink:href="#m7353fe5ff5" x="551.763426" y="161.180156" style="fill: #f9a825; stroke: #f9a825"/>
    </g>
   </g>
   <g id="line2d_71">
    <path d="M 658.261601 112.771895
L 445.265252 209.588417
" clip-path="url(#pf8feddc594)" style="fill: none; stroke-dasharray: 3.33,1.44; stroke-dashoffset: 0; stroke: #9e9e9e; stroke-width: 0.9"/>
   </g>
   <g id="line2d_72">
    <g clip-path="url(#pf8feddc594)">
     <use xlink:href="#m7353fe5ff5" x="551.763426" y="161.180156" style="fill: #f9a825; stroke: #f9a825"/>
    </g>
   </g>
   <g id="line2d_73">
    <path d="M 425.901948 161.180156
L 677.624905 161.180156
" clip-path="url(#pf8feddc594)" style="fill: none; stroke: #cfd8dc; stroke-width: 0.8; stroke-linecap: square"/>
   </g>
   <g id="line2d_74">
    <path d="M 551.763426 287.041635
L 551.763426 35.318677
" clip-path="url(#pf8feddc594)" style="fill: none; stroke: #cfd8dc; stroke-width: 0.8; stroke-linecap: square"/>
   </g>
   <g id="patch_9">
    <path d="M 425.901948 287.041635
L 425.901948 35.318677
" style="fill: none; stroke: #000000; stroke-width: 0.8; stroke-linejoin: miter; stroke-linecap: square"/>
   </g>
   <g id="patch_10">
    <path d="M 677.624905 287.041635
L 677.624905 35.318677
" style="fill: none; stroke: #000000; stroke-width: 0.8; stroke-linejoin: miter; stroke-linecap: square"/>
   </g>
   <g id="patch_11">
    <path d="M 425.901948 287.041635
L 677.624905 287.041635
" style="fill: none; stroke: #000000; stroke-width: 0.8; stroke-linejoin: miter; stroke-linecap: square"/>
   </g>
   <g id="patch_12">
    <path d="M 425.901948 35.318677
L 677.624905 35.318677
" style="fill: none; stroke: #000000; stroke-width: 0.8; stroke-linejoin: miter; stroke-linecap: square"/>
   </g>
   <g id="text_24">
    <!-- half-turn about origin -->
    <g transform="translate(498.746239 29.318677) scale(0.1 -0.1)">
     <defs>
      <path id="DejaVuSans-68" d="M 3513 2113
L 3513 0
L 2938 0
L 2938 2094
Q 2938 2591 2744 2837
Q 2550 3084 2163 3084
Q 1697 3084 1428 2787
Q 1159 2491 1159 1978
L 1159 0
L 581 0
L 581 4863
L 1159 4863
L 1159 2956
Q 1366 3272 1645 3428
Q 1925 3584 2291 3584
Q 2894 3584 3203 3211
Q 3513 2838 3513 2113
z
" transform="scale(0.015625)"/>
      <path id="DejaVuSans-62" d="M 3116 1747
Q 3116 2381 2855 2742
Q 2594 3103 2138 3103
Q 1681 3103 1420 2742
Q 1159 2381 1159 1747
Q 1159 1113 1420 752
Q 1681 391 2138 391
Q 2594 391 2855 752
Q 3116 1113 3116 1747
z
M 1159 2969
Q 1341 3281 1617 3432
Q 1894 3584 2278 3584
Q 2916 3584 3314 3078
Q 3713 2572 3713 1747
Q 3713 922 3314 415
Q 2916 -91 2278 -91
Q 1894 -91 1617 61
Q 1341 213 1159 525
L 1159 0
L 581 0
L 581 4863
L 1159 4863
L 1159 2969
z
" transform="scale(0.015625)"/>
     </defs>
     <use xlink:href="#DejaVuSans-68"/>
     <use xlink:href="#DejaVuSans-61" transform="translate(63.378906 0)"/>
     <use xlink:href="#DejaVuSans-6c" transform="translate(124.658203 0)"/>
     <use xlink:href="#DejaVuSans-66" transform="translate(152.441406 0)"/>
     <use xlink:href="#DejaVuSans-2d" transform="translate(182.146484 0)"/>
     <use xlink:href="#DejaVuSans-74" transform="translate(218.230469 0)"/>
     <use xlink:href="#DejaVuSans-75" transform="translate(257.439453 0)"/>
     <use xlink:href="#DejaVuSans-72" transform="translate(320.818359 0)"/>
     <use xlink:href="#DejaVuSans-6e" transform="translate(360.181641 0)"/>
     <use xlink:href="#DejaVuSans-20" transform="translate(423.560547 0)"/>
     <use xlink:href="#DejaVuSans-61" transform="translate(455.347656 0)"/>
     <use xlink:href="#DejaVuSans-62" transform="translate(516.626953 0)"/>
     <use xlink:href="#DejaVuSans-6f" transform="translate(580.103516 0)"/>
     <use xlink:href="#DejaVuSans-75" transform="translate(641.285156 0)"/>
     <use xlink:href="#DejaVuSans-74" transform="translate(704.664062 0)"/>
     <use xlink:href="#DejaVuSans-20" transform="translate(743.873047 0)"/>
     <use xlink:href="#DejaVuSans-6f" transform="translate(775.660156 0)"/>
     <use xlink:href="#DejaVuSans-72" transform="translate(836.841797 0)"/>
     <use xlink:href="#DejaVuSans-69" transform="translate(877.955078 0)"/>
     <use xlink:href="#DejaVuSans-67" transform="translate(905.738281 0)"/>
     <use xlink:href="#DejaVuSans-69" transform="translate(969.214844 0)"/>
     <use xlink:href="#DejaVuSans-6e" transform="translate(996.998047 0)"/>
    </g>
   </g>
   <g id="legend_2">
    <g id="patch_13">
     <path d="M 602.882405 65.203677
L 672.024905 65.203677
Q 673.624905 65.203677 673.624905 63.603677
L 673.624905 40.918677
Q 673.624905 39.318677 672.024905 39.318677
L 602.882405 39.318677
Q 601.282405 39.318677 601.282405 40.918677
L 601.282405 63.603677
Q 601.282405 65.203677 602.882405 65.203677
z
" style="fill: #ffffff; opacity: 0.8; stroke: #cccccc; stroke-linejoin: miter"/>
    </g>
    <g id="line2d_75">
     <path d="M 604.482405 45.797427
L 612.482405 45.797427
L 620.482405 45.797427
" style="fill: none; stroke: #546e7a; stroke-width: 1.5; stroke-linecap: square"/>
     <g>
      <use xlink:href="#mc0acfa214c" x="612.482405" y="45.797427" style="fill: #546e7a; stroke: #546e7a"/>
     </g>
    </g>
    <g id="text_25">
     <!-- source line -->
     <g transform="translate(626.882405 48.597427) scale(0.08 -0.08)">
      <use xlink:href="#DejaVuSans-73"/>
      <use xlink:href="#DejaVuSans-6f" transform="translate(52.099609 0)"/>
      <use xlink:href="#DejaVuSans-75" transform="translate(113.28125 0)"/>
      <use xlink:href="#DejaVuSans-72" transform="translate(176.660156 0)"/>
      <use xlink:href="#DejaVuSans-63" transform="translate(215.523438 0)"/>
      <use xlink:href="#DejaVuSans-65" transform="translate(270.503906 0)"/>
      <use xlink:href="#DejaVuSans-20" transform="translate(332.027344 0)"/>
      <use xlink:href="#DejaVuSans-6c" transform="translate(363.814453 0)"/>
      <use xlink:href="#DejaVuSans-69" transform="translate(391.597656 0)"/>
      <use xlink:href="#DejaVuSans-6e" transform="translate(419.380859 0)"/>
      <use xlink:href="#DejaVuSans-65" transform="translate(482.759766 0)"/>
     </g>
    </g>
    <g id="line2d_76">
     <path d="M 604.482405 57.539927
L 612.482405 57.539927
L 620.482405 57.539927
" style="fill: none; stroke: #c62828; stroke-width: 1.5; stroke-linecap: square"/>
     <g>
      <use xlink:href="#m4952596191" x="612.482405" y="57.539927" style="fill: #c62828; stroke: #c62828"/>
     </g>
    </g>
    <g id="text_26">
     <!-- image line -->
     <g transform="translate(626.882405 60.339927) scale(0.08 -0.08)">
      <use xlink:href="#DejaVuSans-69"/>
      <use xlink:href="#DejaVuSans-6d" transform="translate(27.783203 0)"/>
      <use xlink:href="#DejaVuSans-61" transform="translate(125.195312 0)"/>
      <use xlink:href="#DejaVuSans-67" transform="translate(186.474609 0)"/>
      <use xlink:href="#DejaVuSans-65" transform="translate(249.951172 0)"/>
      <use xlink:href="#DejaVuSans-20" transform="translate(311.474609 0)"/>
      <use xlink:href="#DejaVuSans-6c" transform="translate(343.261719 0)"/>
      <use xlink:href="#DejaVuSans-69" transform="translate(371.044922 0)"/>
      <use xlink:href="#DejaVuSans-6e" transform="translate(398.828125 0)"/>
      <use xlink:href="#DejaVuSans-65" transform="translate(462.207031 0)"/>
     </g>
    </g>
   </g>
  </g>
  <g id="text_27">
   <!-- Midpoints from a line to its isometric image -->
   <g transform="translate(211.870968 17.077969) scale(0.13 -0.13)">
    <defs>
     <path id="DejaVuSans-4d" d="M 628 4666
L 1569 4666
L 2759 1491
L 3956 4666
L 4897 4666
L 4897 0
L 4281 0
L 4281 4097
L 3078 897
L 2444 897
L 1241 4097
L 1241 0
L 628 0
L 628 4666
z
" transform="scale(0.015625)"/>
     <path id="DejaVuSans-64" d="M 2906 2969
L 2906 4863
L 3481 4863
L 3481 0
L 2906 0
L 2906 525
Q 2725 213 2448 61
Q 2172 -91 1784 -91
Q 1150 -91 751 415
Q 353 922 353 1747
Q 353 2572 751 3078
Q 1150 3584 1784 3584
Q 2172 3584 2448 3432
Q 2725 3281 2906 2969
z
M 947 1747
Q 947 1113 1208 752
Q 1469 391 1925 391
Q 2381 391 2643 752
Q 2906 1113 2906 1747
Q 2906 2381 2643 2742
Q 2381 3103 1925 3103
Q 1469 3103 1208 2742
Q 947 2381 947 1747
z
" transform="scale(0.015625)"/>
     <path id="DejaVuSans-70" d="M 1159 525
L 1159 -1331
L 581 -1331
L 581 3500
L 1159 3500
L 1159 2969
Q 1341 3281 1617 3432
Q 1894 3584 2278 3584
Q 2916 3584 3314 3078
Q 3713 2572 3713 1747
Q 3713 922 3314 415
Q 2916 -91 2278 -91
Q 1894 -91 1617 61
Q 1341 213 1159 525
z
M 3116 1747
Q 3116 2381 2855 2742
Q 2594 3103 2138 3103
Q 1681 3103 1420 2742
Q 1159 2381 1159 1747
Q 1159 1113 1420 752
Q 1681 391 2138 391
Q 2594 391 2855 752
Q 3116 1113 3116 1747
z
" transform="scale(0.015625)"/>
    </defs>
    <use xlink:href="#DejaVuSans-4d"/>
    <use xlink:href="#DejaVuSans-69" transform="translate(86.279297 0)"/>
    <use xlink:href="#DejaVuSans-64" transform="translate(114.0625 0)"/>
    <use xlink:href="#DejaVuSans-70" transform="translate(177.539062 0)"/>
    <use xlink:href="#DejaVuSans-6f" transform="translate(241.015625 0)"/>
    <use xlink:href="#DejaVuSans-69" transform="translate(302.197266 0)"/>
    <use xlink:href="#DejaVuSans-6e" transform="translate(329.980469 0)"/>
    <use xlink:href="#DejaVuSans-74" transform="translate(393.359375 0)"/>
    <use xlink:href="#DejaVuSans-73" transform="translate(432.568359 0)"/>
    <use xlink:href="#DejaVuSans-20" transform="translate(484.667969 0)"/>
    <use xlink:href="#DejaVuSans-66" transform="translate(516.455078 0)"/>
    <use xlink:href="#DejaVuSans-72" transform="translate(551.660156 0)"/>
    <use xlink:href="#DejaVuSans-6f" transform="translate(590.523438 0)"/>
    <use xlink:href="#DejaVuSans-6d" transform="translate(651.705078 0)"/>
    <use xlink:href="#DejaVuSans-20" transform="translate(749.117188 0)"/>
    <use xlink:href="#DejaVuSans-61" transform="translate(780.904297 0)"/>
    <use xlink:href="#DejaVuSans-20" transform="translate(842.183594 0)"/>
    <use xlink:href="#DejaVuSans-6c" transform="translate(873.970703 0)"/>
    <use xlink:href="#DejaVuSans-69" transform="translate(901.753906 0)"/>
    <use xlink:href="#DejaVuSans-6e" transform="translate(929.537109 0)"/>
    <use xlink:href="#DejaVuSans-65" transform="translate(992.916016 0)"/>
    <use xlink:href="#DejaVuSans-20" transform="translate(1054.439453 0)"/>
    <use xlink:href="#DejaVuSans-74" transform="translate(1086.226562 0)"/>
    <use xlink:href="#DejaVuSans-6f" transform="translate(1125.435547 0)"/>
    <use xlink:href="#DejaVuSans-20" transform="translate(1186.617188 0)"/>
    <use xlink:href="#DejaVuSans-69" transform="translate(1218.404297 0)"/>
    <use xlink:href="#DejaVuSans-74" transform="translate(1246.1875 0)"/>
    <use xlink:href="#DejaVuSans-73" transform="translate(1285.396484 0)"/>
    <use xlink:href="#DejaVuSans-20" transform="translate(1337.496094 0)"/>
    <use xlink:href="#DejaVuSans-69" transform="translate(1369.283203 0)"/>
    <use xlink:href="#DejaVuSans-73" transform="translate(1397.066406 0)"/>
    <use xlink:href="#DejaVuSans-6f" transform="translate(1449.166016 0)"/>
    <use xlink:href="#DejaVuSans-6d" transform="translate(1510.347656 0)"/>
    <use xlink:href="#DejaVuSans-65" transform="translate(1607.759766 0)"/>
    <use xlink:href="#DejaVuSans-74" transform="translate(1669.283203 0)"/>
    <use xlink:href="#DejaVuSans-72" transform="translate(1708.492188 0)"/>
    <use xlink:href="#DejaVuSans-69" transform="translate(1749.605469 0)"/>
    <use xlink:href="#DejaVuSans-63" transform="translate(1777.388672 0)"/>
    <use xlink:href="#DejaVuSans-20" transform="translate(1832.369141 0)"/>
    <use xlink:href="#DejaVuSans-69" transform="translate(1864.15625 0)"/>
    <use xlink:href="#DejaVuSans-6d" transform="translate(1891.939453 0)"/>
    <use xlink:href="#DejaVuSans-61" transform="translate(1989.351562 0)"/>
    <use xlink:href="#DejaVuSans-67" transform="translate(2050.630859 0)"/>
    <use xlink:href="#DejaVuSans-65" transform="translate(2114.107422 0)"/>
   </g>
  </g>
 </g>
 <defs>
  <clipPath id="p6030d75efa">
   <rect x="28.942187" y="35.318677" width="251.722958" height="251.722958"/>
  </clipPath>
  <clipPath id="pf8feddc594">
   <rect x="425.901948" y="35.318677" width="251.722958" height="251.722958"/>
  </clipPath>
 </defs>
</svg>
