<svg xmlns="http://www.w3.org/2000/svg" width="760" height="520" viewBox="0 0 760 520"><rect width="760" height="520" fill="#fffdf7"/><text x="28" y="38" font-size="24" font-family="DejaVu Sans, Arial" font-weight="700" fill="#1f2933">Chapter 03 experiment</text><text x="28" y="64" font-size="14" font-family="DejaVu Sans, Arial" fill="#1f2933">Perturb the model and inspect what remains invariant</text><g font-family="DejaVu Sans, Arial"><polyline points="167.6,339.5 170.7,340.7 173.7,341.8 176.8,343.0 179.8,344.1 182.9,345.1 185.9,346.1 189.0,347.0 192.0,347.9 195.1,348.7 198.2,349.5 201.2,350.2 204.3,350.9 207.3,351.5 210.4,352.1 213.4,352.6 216.5,353.0 219.6,353.4 222.6,353.7 225.7,354.0 228.7,354.2 231.8,354.3 234.8,354.4 237.9,354.4 240.9,354.4 244.0,354.3 247.1,354.1 250.1,353.9 253.2,353.6 256.2,353.3 259.3,352.9 262.3,352.4 265.4,351.9 268.5,351.3 271.5,350.7 274.6,350.0 277.6,349.3 280.7,348.5 283.7,347.6 286.8,346.7 289.8,345.8 292.9,344.8 296.0,343.7 299.0,342.6 302.1,341.5 305.1,340.3 308.2,339.1 311.2,337.8 314.3,336.5 317.3,335.1 320.4,333.7 323.5,332.3 326.5,330.8 329.6,329.3 332.6,327.8 335.7,326.2 338.7,324.6 341.8,323.0 344.9,321.4 347.9,319.7 351.0,318.0 354.0,316.3 357.1,314.6 360.1,312.8 363.2,311.1 366.2,309.3 369.3,307.5 372.4,305.8 375.4,304.0 378.5,302.2 381.5,300.4 384.6,298.6 387.6,296.8 390.7,295.1 393.8,293.3 396.8,291.5 399.9,289.8 402.9,288.0 406.0,286.3 409.0,284.6 412.1,282.9 415.1,281.2 418.2,279.6 421.3,278.0 424.3,276.4 427.4,274.8 430.4,273.3 433.5,271.8 436.5,270.3 439.6,268.9 442.7,267.5 445.7,266.1 448.8,264.8 451.8,263.5 454.9,262.3 457.9,261.1 461.0,260.0 464.0,258.9 467.1,257.8 470.2,256.8 473.2,255.9 476.3,255.0 479.3,254.1 482.4,253.3 485.4,252.6 488.5,251.9 491.5,251.3 494.6,250.7 497.7,250.2 500.7,249.7 503.8,249.3 506.8,249.0 509.9,248.7 512.9,248.5 516.0,248.3 519.1,248.2 522.1,248.2 525.2,248.2 528.2,248.3 531.3,248.4 534.3,248.6 537.4,248.9 540.4,249.2 543.5,249.6 546.6,250.0 549.6,250.5 552.7,251.1 555.7,251.7 558.8,252.4 561.8,253.1 564.9,253.9 568.0,254.7 571.0,255.6 574.1,256.5 577.1,257.5 580.2,258.5 583.2,259.6 586.3,260.8 589.3,261.9 592.4,263.1" fill="none" stroke="#2364aa" stroke-width="2" stroke-linejoin="round"/>
<polyline points="167.6,312.7 170.7,312.9 173.7,313.0 176.8,313.1 179.8,313.1 182.9,313.0 185.9,312.9 189.0,312.7 192.0,312.5 195.1,312.2 198.2,311.8 201.2,311.4 204.3,311.0 207.3,310.4 210.4,309.8 213.4,309.2 216.5,308.5 219.6,307.7 222.6,306.9 225.7,306.1 228.7,305.2 231.8,304.2 234.8,303.2 237.9,302.1 240.9,301.0 244.0,299.8 247.1,298.6 250.1,297.4 253.2,296.1 256.2,294.8 259.3,293.4 262.3,292.0 265.4,290.5 268.5,289.1 271.5,287.5 274.6,286.0 277.6,284.4 280.7,282.8 283.7,281.2 286.8,279.5 289.8,277.9 292.9,276.2 296.0,274.5 299.0,272.7 302.1,271.0 305.1,269.2 308.2,267.5 311.2,265.7 314.3,263.9 317.3,262.1 320.4,260.3 323.5,258.6 326.5,256.8 329.6,255.0 332.6,253.2 335.7,251.4 338.7,249.7 341.8,247.9 344.9,246.2 347.9,244.5 351.0,242.8 354.0,241.1 357.1,239.4 360.1,237.8 363.2,236.2 366.2,234.6 369.3,233.1 372.4,231.5 375.4,230.0 378.5,228.6 381.5,227.2 384.6,225.8 387.6,224.4 390.7,223.1 393.8,221.9 396.8,220.6 399.9,219.5 402.9,218.3 406.0,217.2 409.0,216.2 412.1,215.2 415.1,214.3 418.2,213.4 421.3,212.6 424.3,211.8 427.4,211.1 430.4,210.4 433.5,209.8 436.5,209.2 439.6,208.7 442.7,208.3 445.7,207.9 448.8,207.6 451.8,207.3 454.9,207.1 457.9,207.0 461.0,206.9 464.0,206.9 467.1,206.9 470.2,207.0 473.2,207.2 476.3,207.4 479.3,207.7 482.4,208.0 485.4,208.4 488.5,208.9 491.5,209.4 494.6,210.0 497.7,210.6 500.7,211.3 503.8,212.0 506.8,212.8 509.9,213.7 512.9,214.6 516.0,215.5 519.1,216.5 522.1,217.6 525.2,218.7 528.2,219.8 531.3,221.0 534.3,222.2 537.4,223.5 540.4,224.8 543.5,226.2 546.6,227.6 549.6,229.0 552.7,230.5 555.7,232.0 558.8,233.5 561.8,235.1 564.9,236.7 568.0,238.3 571.0,239.9 574.1,241.6 577.1,243.3 580.2,245.0 583.2,246.7 586.3,248.5 589.3,250.2 592.4,252.0" fill="none" stroke="#f97316" stroke-width="2" stroke-linejoin="round"/>
<polyline points="167.6,264.5 170.7,263.6 173.7,262.6 176.8,261.5 179.8,260.5 182.9,259.3 185.9,258.2 189.0,257.0 192.0,255.7 195.1,254.4 198.2,253.0 201.2,251.7 204.3,250.2 207.3,248.8 210.4,247.3 213.4,245.8 216.5,244.2 219.6,242.6 222.6,241.0 225.7,239.4 228.7,237.7 231.8,236.1 234.8,234.4 237.9,232.6 240.9,230.9 244.0,229.2 247.1,227.4 250.1,225.6 253.2,223.9 256.2,222.1 259.3,220.3 262.3,218.5 265.4,216.7 268.5,214.9 271.5,213.1 274.6,211.4 277.6,209.6 280.7,207.9 283.7,206.1 286.8,204.4 289.8,202.7 292.9,201.0 296.0,199.3 299.0,197.6 302.1,196.0 305.1,194.4 308.2,192.8 311.2,191.3 314.3,189.8 317.3,188.3 320.4,186.8 323.5,185.4 326.5,184.1 329.6,182.7 332.6,181.4 335.7,180.2 338.7,179.0 341.8,177.8 344.9,176.7 347.9,175.6 351.0,174.6 354.0,173.6 357.1,172.7 360.1,171.8 363.2,171.0 366.2,170.3 369.3,169.6 372.4,168.9 375.4,168.3 378.5,167.8 381.5,167.3 384.6,166.9 387.6,166.5 390.7,166.2 393.8,166.0 396.8,165.8 399.9,165.7 402.9,165.6 406.0,165.6 409.0,165.7 412.1,165.8 415.1,166.0 418.2,166.2 421.3,166.5 424.3,166.8 427.4,167.3 430.4,167.7 433.5,168.3 436.5,168.9 439.6,169.5 442.7,170.2 445.7,171.0 448.8,171.8 451.8,172.6 454.9,173.5 457.9,174.5 461.0,175.5 464.0,176.6 467.1,177.7 470.2,178.9 473.2,180.1 476.3,181.3 479.3,182.6 482.4,183.9 485.4,185.3 488.5,186.7 491.5,188.2 494.6,189.6 497.7,191.2 500.7,192.7 503.8,194.3 506.8,195.9 509.9,197.5 512.9,199.2 516.0,200.8 519.1,202.5 522.1,204.2 525.2,206.0 528.2,207.7 531.3,209.5 534.3,211.2 537.4,213.0 540.4,214.8 543.5,216.6 546.6,218.3 549.6,220.1 552.7,221.9 555.7,223.7 558.8,225.5 561.8,227.2 564.9,229.0 568.0,230.8 571.0,232.5 574.1,234.2 577.1,235.9 580.2,237.6 583.2,239.3 586.3,240.9 589.3,242.5 592.4,244.1" fill="none" stroke="#2f9e44" stroke-width="2" stroke-linejoin="round"/>
<line x1="167.6" y1="260.0" x2="592.4" y2="260.0" stroke="#d8dee9" stroke-width="1" stroke-dasharray="4 4"/></g></svg>