<?xml version="1.0" encoding="utf-8" standalone="no"?>
<!DOCTYPE svg PUBLIC "-//W3C//DTD SVG 1.1//EN"
  "http://www.w3.org/Graphics/SVG/1.1/DTD/svg11.dtd">
<svg xmlns:xlink="http://www.w3.org/1999/xlink" width="929.439381pt" height="325.89576pt" viewBox="0 0 929.439381 325.89576" xmlns="http://www.w3.org/2000/svg" version="1.1">
 <metadata>
  <rdf:RDF xmlns:dc="http://purl.org/dc/elements/1.1/" xmlns:cc="http://creativecommons.org/ns#" xmlns:rdf="http://www.w3.org/1999/02/22-rdf-syntax-ns#">
   <cc:Work>
    <dc:type rdf:resource="http://purl.org/dc/dcmitype/StillImage"/>
    <dc:date>2026-05-12T05:32:39.254003</dc:date>
    <dc:format>image/svg+xml</dc:format>
    <dc:creator>
     <cc:Agent>
      <dc:title>Matplotlib v3.10.9, https://matplotlib.org/</dc:title>
     </cc:Agent>
    </dc:creator>
   </cc:Work>
  </rdf:RDF>
 </metadata>
 <defs>
  <style type="text/css">*{stroke-linejoin: round; stroke-linecap: butt}</style>
 </defs>
 <g id="figure_1">
  <g id="patch_1">
   <path d="M 0 325.89576 
L 929.439381 325.89576 
L 929.439381 0 
L 0 0 
z
" style="fill: #ffffff"/>
  </g>
  <g id="axes_1">
   <g id="patch_2">
    <path d="M 7.2 318.69576 
L 290.001083 318.69576 
L 290.001083 35.894677 
L 7.2 35.894677 
z
" style="fill: #ffffff"/>
   </g>
   <g id="patch_3">
    <path d="M 186.030096 180.148679 
L 235.93617 166.840393 
L 205.160758 130.242606 
z
" clip-path="url(#pe171e75bcc)" style="fill: #eceff1; opacity: 0.8; stroke: #546e7a; stroke-width: 1.4; stroke-linejoin: miter"/>
   </g>
   <g id="patch_4">
    <path d="M 140.453639 149.17659 
L 146.809555 97.919113 
L 101.348006 112.743805 
z
" clip-path="url(#pe171e75bcc)" style="fill: #80cbc4; opacity: 0.35; stroke: #00897b; stroke-width: 1.4; stroke-linejoin: miter"/>
   </g>
   <g id="patch_5">
    <path d="M 171.474158 198.447573 
C 171.474158 192.232912 169.616813 186.157809 166.141619 181.005621 
C 162.666424 175.853434 157.729461 171.85556 151.967327 169.527507 
" clip-path="url(#pe171e75bcc)" style="fill: none; stroke: #f57c00; stroke-width: 1.8; stroke-linejoin: miter"/>
   </g>
   <g id="matplotlib.axis_1"/>
   <g id="matplotlib.axis_2"/>
   <g id="line2d_1">
    <path d="M 186.030096 180.148679 
L 235.93617 166.840393 
L 205.160758 130.242606 
L 186.030096 180.148679 
" clip-path="url(#pe171e75bcc)" style="fill: none; stroke: #546e7a; stroke-width: 1.4; stroke-linecap: square"/>
   </g>
   <g id="line2d_2">
    <path d="M 140.453639 149.17659 
L 146.809555 97.919113 
L 101.348006 112.743805 
L 140.453639 149.17659 
" clip-path="url(#pe171e75bcc)" style="fill: none; stroke: #00897b; stroke-width: 1.4; stroke-linecap: square"/>
   </g>
   <g id="line2d_3">
    <path d="M 23.835358 198.447573 
L 273.365725 198.447573 
" clip-path="url(#pe171e75bcc)" style="fill: none; stroke: #263238; stroke-width: 1.5; stroke-linecap: square"/>
   </g>
   <g id="line2d_4">
    <path d="M 23.835358 276.992406 
L 273.365725 108.682049 
" clip-path="url(#pe171e75bcc)" style="fill: none; stroke: #00897b; stroke-width: 1.5; stroke-linecap: square"/>
   </g>
   <g id="line2d_5">
    <path d="M 7.2 198.447573 
L 290.001083 198.447573 
" clip-path="url(#pe171e75bcc)" style="fill: none; stroke: #cfd8dc; stroke-width: 0.8; stroke-linecap: square"/>
   </g>
   <g id="line2d_6">
    <path d="M 140.282862 318.69576 
L 140.282862 35.894677 
" clip-path="url(#pe171e75bcc)" style="fill: none; stroke: #cfd8dc; stroke-width: 0.8; stroke-linecap: square"/>
   </g>
   <g id="patch_6">
    <path d="M 7.2 318.69576 
L 7.2 35.894677 
" style="fill: none; stroke: #000000; stroke-width: 0.8; stroke-linejoin: miter; stroke-linecap: square"/>
   </g>
   <g id="patch_7">
    <path d="M 290.001083 318.69576 
L 290.001083 35.894677 
" style="fill: none; stroke: #000000; stroke-width: 0.8; stroke-linejoin: miter; stroke-linecap: square"/>
   </g>
   <g id="patch_8">
    <path d="M 7.2 318.69576 
L 290.001083 318.69576 
" style="fill: none; stroke: #000000; stroke-width: 0.8; stroke-linejoin: miter; stroke-linecap: square"/>
   </g>
   <g id="patch_9">
    <path d="M 7.2 35.894677 
L 290.001083 35.894677 
" style="fill: none; stroke: #000000; stroke-width: 0.8; stroke-linejoin: miter; stroke-linecap: square"/>
   </g>
   <g id="text_1">
    <!-- 2 theta -->
    <g style="fill: #e65100" transform="translate(171.890042 177.653375) scale(0.1 -0.1)">
     <defs>
      <path id="DejaVuSans-32" d="M 1228 531 
L 3431 531 
L 3431 0 
L 469 0 
L 469 531 
Q 828 903 1448 1529 
Q 2069 2156 2228 2338 
Q 2531 2678 2651 2914 
Q 2772 3150 2772 3378 
Q 2772 3750 2511 3984 
Q 2250 4219 1831 4219 
Q 1534 4219 1204 4116 
Q 875 4013 500 3803 
L 500 4441 
Q 881 4594 1212 4672 
Q 1544 4750 1819 4750 
Q 2544 4750 2975 4387 
Q 3406 4025 3406 3419 
Q 3406 3131 3298 2873 
Q 3191 2616 2906 2266 
Q 2828 2175 2409 1742 
Q 1991 1309 1228 531 
z
" transform="scale(0.015625)"/>
      <path id="DejaVuSans-20" transform="scale(0.015625)"/>
      <path id="DejaVuSans-74" d="M 1172 4494 
L 1172 3500 
L 2356 3500 
L 2356 3053 
L 1172 3053 
L 1172 1153 
Q 1172 725 1289 603 
Q 1406 481 1766 481 
L 2356 481 
L 2356 0 
L 1766 0 
Q 1100 0 847 248 
Q 594 497 594 1153 
L 594 3053 
L 172 3053 
L 172 3500 
L 594 3500 
L 594 4494 
L 1172 4494 
z
" transform="scale(0.015625)"/>
      <path id="DejaVuSans-68" d="M 3513 2113 
L 3513 0 
L 2938 0 
L 2938 2094 
Q 2938 2591 2744 2837 
Q 2550 3084 2163 3084 
Q 1697 3084 1428 2787 
Q 1159 2491 1159 1978 
L 1159 0 
L 581 0 
L 581 4863 
L 1159 4863 
L 1159 2956 
Q 1366 3272 1645 3428 
Q 1925 3584 2291 3584 
Q 2894 3584 3203 3211 
Q 3513 2838 3513 2113 
z
" transform="scale(0.015625)"/>
      <path id="DejaVuSans-65" d="M 3597 1894 
L 3597 1613 
L 953 1613 
Q 991 1019 1311 708 
Q 1631 397 2203 397 
Q 2534 397 2845 478 
Q 3156 559 3463 722 
L 3463 178 
Q 3153 47 2828 -22 
Q 2503 -91 2169 -91 
Q 1331 -91 842 396 
Q 353 884 353 1716 
Q 353 2575 817 3079 
Q 1281 3584 2069 3584 
Q 2775 3584 3186 3129 
Q 3597 2675 3597 1894 
z
M 3022 2063 
Q 3016 2534 2758 2815 
Q 2500 3097 2075 3097 
Q 1594 3097 1305 2825 
Q 1016 2553 972 2059 
L 3022 2063 
z
" transform="scale(0.015625)"/>
      <path id="DejaVuSans-61" d="M 2194 1759 
Q 1497 1759 1228 1600 
Q 959 1441 959 1056 
Q 959 750 1161 570 
Q 1363 391 1709 391 
Q 2188 391 2477 730 
Q 2766 1069 2766 1631 
L 2766 1759 
L 2194 1759 
z
M 3341 1997 
L 3341 0 
L 2766 0 
L 2766 531 
Q 2569 213 2275 61 
Q 1981 -91 1556 -91 
Q 1019 -91 701 211 
Q 384 513 384 1019 
Q 384 1609 779 1909 
Q 1175 2209 1959 2209 
L 2766 2209 
L 2766 2266 
Q 2766 2663 2505 2880 
Q 2244 3097 1772 3097 
Q 1472 3097 1187 3025 
Q 903 2953 641 2809 
L 641 3341 
Q 956 3463 1253 3523 
Q 1550 3584 1831 3584 
Q 2591 3584 2966 3190 
Q 3341 2797 3341 1997 
z
" transform="scale(0.015625)"/>
     </defs>
     <use xlink:href="#DejaVuSans-32"/>
     <use xlink:href="#DejaVuSans-20" transform="translate(63.623047 0)"/>
     <use xlink:href="#DejaVuSans-74" transform="translate(95.410156 0)"/>
     <use xlink:href="#DejaVuSans-68" transform="translate(134.619141 0)"/>
     <use xlink:href="#DejaVuSans-65" transform="translate(197.998047 0)"/>
     <use xlink:href="#DejaVuSans-74" transform="translate(259.521484 0)"/>
     <use xlink:href="#DejaVuSans-61" transform="translate(298.730469 0)"/>
    </g>
   </g>
   <g id="text_2">
    <!-- Intersecting mirrors -&gt; rotation -->
    <g transform="translate(70.48726 29.894677) scale(0.1 -0.1)">
     <defs>
      <path id="DejaVuSans-49" d="M 628 4666 
L 1259 4666 
L 1259 0 
L 628 0 
L 628 4666 
z
" transform="scale(0.015625)"/>
      <path id="DejaVuSans-6e" d="M 3513 2113 
L 3513 0 
L 2938 0 
L 2938 2094 
Q 2938 2591 2744 2837 
Q 2550 3084 2163 3084 
Q 1697 3084 1428 2787 
Q 1159 2491 1159 1978 
L 1159 0 
L 581 0 
L 581 3500 
L 1159 3500 
L 1159 2956 
Q 1366 3272 1645 3428 
Q 1925 3584 2291 3584 
Q 2894 3584 3203 3211 
Q 3513 2838 3513 2113 
z
" transform="scale(0.015625)"/>
      <path id="DejaVuSans-72" d="M 2631 2963 
Q 2534 3019 2420 3045 
Q 2306 3072 2169 3072 
Q 1681 3072 1420 2755 
Q 1159 2438 1159 1844 
L 1159 0 
L 581 0 
L 581 3500 
L 1159 3500 
L 1159 2956 
Q 1341 3275 1631 3429 
Q 1922 3584 2338 3584 
Q 2397 3584 2469 3576 
Q 2541 3569 2628 3553 
L 2631 2963 
z
" transform="scale(0.015625)"/>
      <path id="DejaVuSans-73" d="M 2834 3397 
L 2834 2853 
Q 2591 2978 2328 3040 
Q 2066 3103 1784 3103 
Q 1356 3103 1142 2972 
Q 928 2841 928 2578 
Q 928 2378 1081 2264 
Q 1234 2150 1697 2047 
L 1894 2003 
Q 2506 1872 2764 1633 
Q 3022 1394 3022 966 
Q 3022 478 2636 193 
Q 2250 -91 1575 -91 
Q 1294 -91 989 -36 
Q 684 19 347 128 
L 347 722 
Q 666 556 975 473 
Q 1284 391 1588 391 
Q 1994 391 2212 530 
Q 2431 669 2431 922 
Q 2431 1156 2273 1281 
Q 2116 1406 1581 1522 
L 1381 1569 
Q 847 1681 609 1914 
Q 372 2147 372 2553 
Q 372 3047 722 3315 
Q 1072 3584 1716 3584 
Q 2034 3584 2315 3537 
Q 2597 3491 2834 3397 
z
" transform="scale(0.015625)"/>
      <path id="DejaVuSans-63" d="M 3122 3366 
L 3122 2828 
Q 2878 2963 2633 3030 
Q 2388 3097 2138 3097 
Q 1578 3097 1268 2742 
Q 959 2388 959 1747 
Q 959 1106 1268 751 
Q 1578 397 2138 397 
Q 2388 397 2633 464 
Q 2878 531 3122 666 
L 3122 134 
Q 2881 22 2623 -34 
Q 2366 -91 2075 -91 
Q 1284 -91 818 406 
Q 353 903 353 1747 
Q 353 2603 823 3093 
Q 1294 3584 2113 3584 
Q 2378 3584 2631 3529 
Q 2884 3475 3122 3366 
z
" transform="scale(0.015625)"/>
      <path id="DejaVuSans-69" d="M 603 3500 
L 1178 3500 
L 1178 0 
L 603 0 
L 603 3500 
z
M 603 4863 
L 1178 4863 
L 1178 4134 
L 603 4134 
L 603 4863 
z
" transform="scale(0.015625)"/>
      <path id="DejaVuSans-67" d="M 2906 1791 
Q 2906 2416 2648 2759 
Q 2391 3103 1925 3103 
Q 1463 3103 1205 2759 
Q 947 2416 947 1791 
Q 947 1169 1205 825 
Q 1463 481 1925 481 
Q 2391 481 2648 825 
Q 2906 1169 2906 1791 
z
M 3481 434 
Q 3481 -459 3084 -895 
Q 2688 -1331 1869 -1331 
Q 1566 -1331 1297 -1286 
Q 1028 -1241 775 -1147 
L 775 -588 
Q 1028 -725 1275 -790 
Q 1522 -856 1778 -856 
Q 2344 -856 2625 -561 
Q 2906 -266 2906 331 
L 2906 616 
Q 2728 306 2450 153 
Q 2172 0 1784 0 
Q 1141 0 747 490 
Q 353 981 353 1791 
Q 353 2603 747 3093 
Q 1141 3584 1784 3584 
Q 2172 3584 2450 3431 
Q 2728 3278 2906 2969 
L 2906 3500 
L 3481 3500 
L 3481 434 
z
" transform="scale(0.015625)"/>
      <path id="DejaVuSans-6d" d="M 3328 2828 
Q 3544 3216 3844 3400 
Q 4144 3584 4550 3584 
Q 5097 3584 5394 3201 
Q 5691 2819 5691 2113 
L 5691 0 
L 5113 0 
L 5113 2094 
Q 5113 2597 4934 2840 
Q 4756 3084 4391 3084 
Q 3944 3084 3684 2787 
Q 3425 2491 3425 1978 
L 3425 0 
L 2847 0 
L 2847 2094 
Q 2847 2600 2669 2842 
Q 2491 3084 2119 3084 
Q 1678 3084 1418 2786 
Q 1159 2488 1159 1978 
L 1159 0 
L 581 0 
L 581 3500 
L 1159 3500 
L 1159 2956 
Q 1356 3278 1631 3431 
Q 1906 3584 2284 3584 
Q 2666 3584 2933 3390 
Q 3200 3197 3328 2828 
z
" transform="scale(0.015625)"/>
      <path id="DejaVuSans-6f" d="M 1959 3097 
Q 1497 3097 1228 2736 
Q 959 2375 959 1747 
Q 959 1119 1226 758 
Q 1494 397 1959 397 
Q 2419 397 2687 759 
Q 2956 1122 2956 1747 
Q 2956 2369 2687 2733 
Q 2419 3097 1959 3097 
z
M 1959 3584 
Q 2709 3584 3137 3096 
Q 3566 2609 3566 1747 
Q 3566 888 3137 398 
Q 2709 -91 1959 -91 
Q 1206 -91 779 398 
Q 353 888 353 1747 
Q 353 2609 779 3096 
Q 1206 3584 1959 3584 
z
" transform="scale(0.015625)"/>
      <path id="DejaVuSans-2d" d="M 313 2009 
L 1997 2009 
L 1997 1497 
L 313 1497 
L 313 2009 
z
" transform="scale(0.015625)"/>
      <path id="DejaVuSans-3e" d="M 678 3150 
L 678 3719 
L 4684 2266 
L 4684 1747 
L 678 294 
L 678 863 
L 3897 2003 
L 678 3150 
z
" transform="scale(0.015625)"/>
     </defs>
     <use xlink:href="#DejaVuSans-49"/>
     <use xlink:href="#DejaVuSans-6e" transform="translate(29.492188 0)"/>
     <use xlink:href="#DejaVuSans-74" transform="translate(92.871094 0)"/>
     <use xlink:href="#DejaVuSans-65" transform="translate(132.080078 0)"/>
     <use xlink:href="#DejaVuSans-72" transform="translate(193.603516 0)"/>
     <use xlink:href="#DejaVuSans-73" transform="translate(234.716797 0)"/>
     <use xlink:href="#DejaVuSans-65" transform="translate(286.816406 0)"/>
     <use xlink:href="#DejaVuSans-63" transform="translate(348.339844 0)"/>
     <use xlink:href="#DejaVuSans-74" transform="translate(403.320312 0)"/>
     <use xlink:href="#DejaVuSans-69" transform="translate(442.529297 0)"/>
     <use xlink:href="#DejaVuSans-6e" transform="translate(470.3125 0)"/>
     <use xlink:href="#DejaVuSans-67" transform="translate(533.691406 0)"/>
     <use xlink:href="#DejaVuSans-20" transform="translate(597.167969 0)"/>
     <use xlink:href="#DejaVuSans-6d" transform="translate(628.955078 0)"/>
     <use xlink:href="#DejaVuSans-69" transform="translate(726.367188 0)"/>
     <use xlink:href="#DejaVuSans-72" transform="translate(754.150391 0)"/>
     <use xlink:href="#DejaVuSans-72" transform="translate(793.513672 0)"/>
     <use xlink:href="#DejaVuSans-6f" transform="translate(832.376953 0)"/>
     <use xlink:href="#DejaVuSans-72" transform="translate(893.558594 0)"/>
     <use xlink:href="#DejaVuSans-73" transform="translate(934.671875 0)"/>
     <use xlink:href="#DejaVuSans-20" transform="translate(986.771484 0)"/>
     <use xlink:href="#DejaVuSans-2d" transform="translate(1018.558594 0)"/>
     <use xlink:href="#DejaVuSans-3e" transform="translate(1054.642578 0)"/>
     <use xlink:href="#DejaVuSans-20" transform="translate(1138.431641 0)"/>
     <use xlink:href="#DejaVuSans-72" transform="translate(1170.21875 0)"/>
     <use xlink:href="#DejaVuSans-6f" transform="translate(1209.082031 0)"/>
     <use xlink:href="#DejaVuSans-74" transform="translate(1270.263672 0)"/>
     <use xlink:href="#DejaVuSans-61" transform="translate(1309.472656 0)"/>
     <use xlink:href="#DejaVuSans-74" transform="translate(1370.751953 0)"/>
     <use xlink:href="#DejaVuSans-69" transform="translate(1409.960938 0)"/>
     <use xlink:href="#DejaVuSans-6f" transform="translate(1437.744141 0)"/>
     <use xlink:href="#DejaVuSans-6e" transform="translate(1498.925781 0)"/>
    </g>
   </g>
  </g>
  <g id="axes_2">
   <g id="patch_10">
    <path d="M 314.950372 318.69576 
L 597.751454 318.69576 
L 597.751454 35.894677 
L 314.950372 35.894677 
z
" style="fill: #ffffff"/>
   </g>
   <g id="patch_11">
    <path d="M 375.550604 235.58687 
L 439.036561 220.581099 
L 404.407857 275.987025 
z
" clip-path="url(#p2ea066de2e)" style="fill: #eceff1; opacity: 0.8; stroke: #546e7a; stroke-width: 1.4; stroke-linejoin: miter"/>
   </g>
   <g id="patch_12">
    <path d="M 375.550604 108.614956 
L 439.036561 93.609184 
L 404.407857 149.01511 
z
" clip-path="url(#p2ea066de2e)" style="fill: #c5cae9; opacity: 0.45; stroke: #3949ab; stroke-width: 1.4; stroke-linejoin: miter"/>
   </g>
   <g id="matplotlib.axis_3"/>
   <g id="matplotlib.axis_4"/>
   <g id="line2d_7">
    <path d="M 375.550604 235.58687 
L 439.036561 220.581099 
L 404.407857 275.987025 
L 375.550604 235.58687 
" clip-path="url(#p2ea066de2e)" style="fill: none; stroke: #546e7a; stroke-width: 1.4; stroke-linecap: square"/>
   </g>
   <g id="line2d_8">
    <path d="M 375.550604 108.614956 
L 439.036561 93.609184 
L 404.407857 149.01511 
L 375.550604 108.614956 
" clip-path="url(#p2ea066de2e)" style="fill: none; stroke: #3949ab; stroke-width: 1.4; stroke-linecap: square"/>
   </g>
   <g id="line2d_9">
    <path d="M 314.950372 203.266747 
L 597.751454 203.266747 
" clip-path="url(#p2ea066de2e)" style="fill: none; stroke: #263238; stroke-width: 1.4; stroke-linecap: square"/>
   </g>
   <g id="line2d_10">
    <path d="M 314.950372 139.780789 
L 597.751454 139.780789 
" clip-path="url(#p2ea066de2e)" style="fill: none; stroke: #3949ab; stroke-width: 1.4; stroke-linecap: square"/>
   </g>
   <g id="line2d_11">
    <path d="M 375.550604 235.58687 
L 375.550604 108.614956 
" clip-path="url(#p2ea066de2e)" style="fill: none; stroke-dasharray: 3.33,1.44; stroke-dashoffset: 0; stroke: #5c6bc0; stroke-width: 0.9"/>
   </g>
   <g id="line2d_12">
    <path d="M 439.036561 220.581099 
L 439.036561 93.609184 
" clip-path="url(#p2ea066de2e)" style="fill: none; stroke-dasharray: 3.33,1.44; stroke-dashoffset: 0; stroke: #5c6bc0; stroke-width: 0.9"/>
   </g>
   <g id="line2d_13">
    <path d="M 404.407857 275.987025 
L 404.407857 149.01511 
" clip-path="url(#p2ea066de2e)" style="fill: none; stroke-dasharray: 3.33,1.44; stroke-dashoffset: 0; stroke: #5c6bc0; stroke-width: 0.9"/>
   </g>
   <g id="line2d_14">
    <path d="M 314.950372 203.266747 
L 597.751454 203.266747 
" clip-path="url(#p2ea066de2e)" style="fill: none; stroke: #cfd8dc; stroke-width: 0.8; stroke-linecap: square"/>
   </g>
   <g id="line2d_15">
    <path d="M 479.436716 318.69576 
L 479.436716 35.894677 
" clip-path="url(#p2ea066de2e)" style="fill: none; stroke: #cfd8dc; stroke-width: 0.8; stroke-linecap: square"/>
   </g>
   <g id="patch_13">
    <path d="M 314.950372 318.69576 
L 314.950372 35.894677 
" style="fill: none; stroke: #000000; stroke-width: 0.8; stroke-linejoin: miter; stroke-linecap: square"/>
   </g>
   <g id="patch_14">
    <path d="M 597.751454 318.69576 
L 597.751454 35.894677 
" style="fill: none; stroke: #000000; stroke-width: 0.8; stroke-linejoin: miter; stroke-linecap: square"/>
   </g>
   <g id="patch_15">
    <path d="M 314.950372 318.69576 
L 597.751454 318.69576 
" style="fill: none; stroke: #000000; stroke-width: 0.8; stroke-linejoin: miter; stroke-linecap: square"/>
   </g>
   <g id="patch_16">
    <path d="M 314.950372 35.894677 
L 597.751454 35.894677 
" style="fill: none; stroke: #000000; stroke-width: 0.8; stroke-linejoin: miter; stroke-linecap: square"/>
   </g>
   <g id="patch_17">
    <path d="M 514.14014 190.55355 
Q 511.296693 134.980674 508.453247 79.407798 
" style="fill: none; stroke: #3949ab; stroke-linecap: round"/>
    <path d="M 515.93313 186.456578 
L 514.14014 190.55355 
L 511.938356 186.660975 
" style="fill: none; stroke: #3949ab; stroke-linecap: round"/>
    <path d="M 506.660257 83.504771 
L 508.453247 79.407798 
L 510.655031 83.300374 
" style="fill: none; stroke: #3949ab; stroke-linecap: round"/>
   </g>
   <g id="text_3">
    <!-- 2d -->
    <g style="fill: #283593" transform="translate(508.293969 203.266747) scale(0.1 -0.1)">
     <defs>
      <path id="DejaVuSans-64" d="M 2906 2969 
L 2906 4863 
L 3481 4863 
L 3481 0 
L 2906 0 
L 2906 525 
Q 2725 213 2448 61 
Q 2172 -91 1784 -91 
Q 1150 -91 751 415 
Q 353 922 353 1747 
Q 353 2572 751 3078 
Q 1150 3584 1784 3584 
Q 2172 3584 2448 3432 
Q 2725 3281 2906 2969 
z
M 947 1747 
Q 947 1113 1208 752 
Q 1469 391 1925 391 
Q 2381 391 2643 752 
Q 2906 1113 2906 1747 
Q 2906 2381 2643 2742 
Q 2381 3103 1925 3103 
Q 1469 3103 1208 2742 
Q 947 2381 947 1747 
z
" transform="scale(0.015625)"/>
     </defs>
     <use xlink:href="#DejaVuSans-32"/>
     <use xlink:href="#DejaVuSans-64" transform="translate(63.623047 0)"/>
    </g>
   </g>
   <g id="text_4">
    <!-- Parallel mirrors -&gt; translation -->
    <g transform="translate(382.599351 29.894677) scale(0.1 -0.1)">
     <defs>
      <path id="DejaVuSans-50" d="M 1259 4147 
L 1259 2394 
L 2053 2394 
Q 2494 2394 2734 2622 
Q 2975 2850 2975 3272 
Q 2975 3691 2734 3919 
Q 2494 4147 2053 4147 
L 1259 4147 
z
M 628 4666 
L 2053 4666 
Q 2838 4666 3239 4311 
Q 3641 3956 3641 3272 
Q 3641 2581 3239 2228 
Q 2838 1875 2053 1875 
L 1259 1875 
L 1259 0 
L 628 0 
L 628 4666 
z
" transform="scale(0.015625)"/>
      <path id="DejaVuSans-6c" d="M 603 4863 
L 1178 4863 
L 1178 0 
L 603 0 
L 603 4863 
z
" transform="scale(0.015625)"/>
     </defs>
     <use xlink:href="#DejaVuSans-50"/>
     <use xlink:href="#DejaVuSans-61" transform="translate(55.802734 0)"/>
     <use xlink:href="#DejaVuSans-72" transform="translate(117.082031 0)"/>
     <use xlink:href="#DejaVuSans-61" transform="translate(158.195312 0)"/>
     <use xlink:href="#DejaVuSans-6c" transform="translate(219.474609 0)"/>
     <use xlink:href="#DejaVuSans-6c" transform="translate(247.257812 0)"/>
     <use xlink:href="#DejaVuSans-65" transform="translate(275.041016 0)"/>
     <use xlink:href="#DejaVuSans-6c" transform="translate(336.564453 0)"/>
     <use xlink:href="#DejaVuSans-20" transform="translate(364.347656 0)"/>
     <use xlink:href="#DejaVuSans-6d" transform="translate(396.134766 0)"/>
     <use xlink:href="#DejaVuSans-69" transform="translate(493.546875 0)"/>
     <use xlink:href="#DejaVuSans-72" transform="translate(521.330078 0)"/>
     <use xlink:href="#DejaVuSans-72" transform="translate(560.693359 0)"/>
     <use xlink:href="#DejaVuSans-6f" transform="translate(599.556641 0)"/>
     <use xlink:href="#DejaVuSans-72" transform="translate(660.738281 0)"/>
     <use xlink:href="#DejaVuSans-73" transform="translate(701.851562 0)"/>
     <use xlink:href="#DejaVuSans-20" transform="translate(753.951172 0)"/>
     <use xlink:href="#DejaVuSans-2d" transform="translate(785.738281 0)"/>
     <use xlink:href="#DejaVuSans-3e" transform="translate(821.822266 0)"/>
     <use xlink:href="#DejaVuSans-20" transform="translate(905.611328 0)"/>
     <use xlink:href="#DejaVuSans-74" transform="translate(937.398438 0)"/>
     <use xlink:href="#DejaVuSans-72" transform="translate(976.607422 0)"/>
     <use xlink:href="#DejaVuSans-61" transform="translate(1017.720703 0)"/>
     <use xlink:href="#DejaVuSans-6e" transform="translate(1079 0)"/>
     <use xlink:href="#DejaVuSans-73" transform="translate(1142.378906 0)"/>
     <use xlink:href="#DejaVuSans-6c" transform="translate(1194.478516 0)"/>
     <use xlink:href="#DejaVuSans-61" transform="translate(1222.261719 0)"/>
     <use xlink:href="#DejaVuSans-74" transform="translate(1283.541016 0)"/>
     <use xlink:href="#DejaVuSans-69" transform="translate(1322.75 0)"/>
     <use xlink:href="#DejaVuSans-6f" transform="translate(1350.533203 0)"/>
     <use xlink:href="#DejaVuSans-6e" transform="translate(1411.714844 0)"/>
    </g>
   </g>
  </g>
  <g id="axes_3">
   <g id="patch_18">
    <path d="M 622.700744 318.69576 
L 905.501826 318.69576 
L 905.501826 35.894677 
L 622.700744 35.894677 
z
" style="fill: #ffffff"/>
   </g>
   <g id="patch_19">
    <path d="M 676.059438 217.581033 
C 676.837737 217.581033 677.584264 217.271812 678.134605 216.721471 
C 678.684945 216.171131 678.994167 215.424604 678.994167 214.646305 
C 678.994167 213.868006 678.684945 213.121479 678.134605 212.571139 
C 677.584264 212.020798 676.837737 211.711577 676.059438 211.711577 
C 675.281139 211.711577 674.534613 212.020798 673.984272 212.571139 
C 673.433932 213.121479 673.12471 213.868006 673.12471 214.646305 
C 673.12471 215.424604 673.433932 216.171131 673.984272 216.721471 
C 674.534613 217.271812 675.281139 217.581033 676.059438 217.581033 
z
" clip-path="url(#p27bf663c8e)" style="fill: #6d4c41; stroke: #6d4c41; stroke-linejoin: miter"/>
   </g>
   <g id="patch_20">
    <path d="M 764.101285 180.229947 
C 764.879584 180.229947 765.626111 179.920725 766.176451 179.370385 
C 766.726792 178.820044 767.036013 178.073518 767.036013 177.295219 
C 767.036013 176.51692 766.726792 175.770393 766.176451 175.220053 
C 765.626111 174.669712 764.879584 174.360491 764.101285 174.360491 
C 763.322986 174.360491 762.576459 174.669712 762.026119 175.220053 
C 761.475778 175.770393 761.166557 176.51692 761.166557 177.295219 
C 761.166557 178.073518 761.475778 178.820044 762.026119 179.370385 
C 762.576459 179.920725 763.322986 180.229947 764.101285 180.229947 
z
" clip-path="url(#p27bf663c8e)" style="fill: #ad1457; stroke: #ad1457; stroke-linejoin: miter"/>
   </g>
   <g id="matplotlib.axis_5"/>
   <g id="matplotlib.axis_6"/>
   <g id="line2d_16">
    <path d="M 710.74259 150.615871 
L 641.376287 278.676739 
L 886.826283 75.913699 
" clip-path="url(#p27bf663c8e)" style="fill: none; stroke-dasharray: 5.55,2.4; stroke-dashoffset: 0; stroke: #546e7a; stroke-width: 1.5"/>
    <defs>
     <path id="mb550c1b601" d="M 0 3 
C 0.795609 3 1.55874 2.683901 2.12132 2.12132 
C 2.683901 1.55874 3 0.795609 3 0 
C 3 -0.795609 2.683901 -1.55874 2.12132 -2.12132 
C 1.55874 -2.683901 0.795609 -3 0 -3 
C -0.795609 -3 -1.55874 -2.683901 -2.12132 -2.12132 
C -2.683901 -1.55874 -3 -0.795609 -3 0 
C -3 0.795609 -2.683901 1.55874 -2.12132 2.12132 
C -1.55874 2.683901 -0.795609 3 0 3 
z
" style="stroke: #546e7a"/>
    </defs>
    <g clip-path="url(#p27bf663c8e)">
     <use xlink:href="#mb550c1b601" x="710.74259" y="150.615871" style="fill: #546e7a; stroke: #546e7a"/>
     <use xlink:href="#mb550c1b601" x="641.376287" y="278.676739" style="fill: #546e7a; stroke: #546e7a"/>
     <use xlink:href="#mb550c1b601" x="886.826283" y="75.913699" style="fill: #546e7a; stroke: #546e7a"/>
    </g>
   </g>
   <g id="line2d_17">
    <path d="M 622.700744 201.306631 
L 905.501826 201.306631 
" clip-path="url(#p27bf663c8e)" style="fill: none; stroke: #cfd8dc; stroke-width: 0.8; stroke-linecap: square"/>
   </g>
   <g id="line2d_18">
    <path d="M 726.750198 318.69576 
L 726.750198 35.894677 
" clip-path="url(#p27bf663c8e)" style="fill: none; stroke: #cfd8dc; stroke-width: 0.8; stroke-linecap: square"/>
   </g>
   <g id="patch_21">
    <path d="M 622.700744 318.69576 
L 622.700744 35.894677 
" style="fill: none; stroke: #000000; stroke-width: 0.8; stroke-linejoin: miter; stroke-linecap: square"/>
   </g>
   <g id="patch_22">
    <path d="M 905.501826 318.69576 
L 905.501826 35.894677 
" style="fill: none; stroke: #000000; stroke-width: 0.8; stroke-linejoin: miter; stroke-linecap: square"/>
   </g>
   <g id="patch_23">
    <path d="M 622.700744 318.69576 
L 905.501826 318.69576 
" style="fill: none; stroke: #000000; stroke-width: 0.8; stroke-linejoin: miter; stroke-linecap: square"/>
   </g>
   <g id="patch_24">
    <path d="M 622.700744 35.894677 
L 905.501826 35.894677 
" style="fill: none; stroke: #000000; stroke-width: 0.8; stroke-linejoin: miter; stroke-linecap: square"/>
   </g>
   <g id="text_5">
    <!-- O1 -->
    <g style="fill: #6d4c41" transform="translate(679.26096 211.97837) scale(0.1 -0.1)">
     <defs>
      <path id="DejaVuSans-4f" d="M 2522 4238 
Q 1834 4238 1429 3725 
Q 1025 3213 1025 2328 
Q 1025 1447 1429 934 
Q 1834 422 2522 422 
Q 3209 422 3611 934 
Q 4013 1447 4013 2328 
Q 4013 3213 3611 3725 
Q 3209 4238 2522 4238 
z
M 2522 4750 
Q 3503 4750 4090 4092 
Q 4678 3434 4678 2328 
Q 4678 1225 4090 567 
Q 3503 -91 2522 -91 
Q 1538 -91 948 565 
Q 359 1222 359 2328 
Q 359 3434 948 4092 
Q 1538 4750 2522 4750 
z
" transform="scale(0.015625)"/>
      <path id="DejaVuSans-31" d="M 794 531 
L 1825 531 
L 1825 4091 
L 703 3866 
L 703 4441 
L 1819 4666 
L 2450 4666 
L 2450 531 
L 3481 531 
L 3481 0 
L 794 0 
L 794 531 
z
" transform="scale(0.015625)"/>
     </defs>
     <use xlink:href="#DejaVuSans-4f"/>
     <use xlink:href="#DejaVuSans-31" transform="translate(78.710938 0)"/>
    </g>
   </g>
   <g id="text_6">
    <!-- O2 -->
    <g style="fill: #ad1457" transform="translate(767.302806 174.627284) scale(0.1 -0.1)">
     <use xlink:href="#DejaVuSans-4f"/>
     <use xlink:href="#DejaVuSans-32" transform="translate(78.710938 0)"/>
    </g>
   </g>
   <g id="text_7">
    <!-- P -->
    <g transform="translate(712.876938 148.481524) scale(0.08 -0.08)">
     <use xlink:href="#DejaVuSans-50"/>
    </g>
   </g>
   <g id="text_8">
    <!-- H1(P) -->
    <g transform="translate(643.510635 276.542391) scale(0.08 -0.08)">
     <defs>
      <path id="DejaVuSans-48" d="M 628 4666 
L 1259 4666 
L 1259 2753 
L 3553 2753 
L 3553 4666 
L 4184 4666 
L 4184 0 
L 3553 0 
L 3553 2222 
L 1259 2222 
L 1259 0 
L 628 0 
L 628 4666 
z
" transform="scale(0.015625)"/>
      <path id="DejaVuSans-28" d="M 1984 4856 
Q 1566 4138 1362 3434 
Q 1159 2731 1159 2009 
Q 1159 1288 1364 580 
Q 1569 -128 1984 -844 
L 1484 -844 
Q 1016 -109 783 600 
Q 550 1309 550 2009 
Q 550 2706 781 3412 
Q 1013 4119 1484 4856 
L 1984 4856 
z
" transform="scale(0.015625)"/>
      <path id="DejaVuSans-29" d="M 513 4856 
L 1013 4856 
Q 1481 4119 1714 3412 
Q 1947 2706 1947 2009 
Q 1947 1309 1714 600 
Q 1481 -109 1013 -844 
L 513 -844 
Q 928 -128 1133 580 
Q 1338 1288 1338 2009 
Q 1338 2731 1133 3434 
Q 928 4138 513 4856 
z
" transform="scale(0.015625)"/>
     </defs>
     <use xlink:href="#DejaVuSans-48"/>
     <use xlink:href="#DejaVuSans-31" transform="translate(75.195312 0)"/>
     <use xlink:href="#DejaVuSans-28" transform="translate(138.818359 0)"/>
     <use xlink:href="#DejaVuSans-50" transform="translate(177.832031 0)"/>
     <use xlink:href="#DejaVuSans-29" transform="translate(238.134766 0)"/>
    </g>
   </g>
   <g id="text_9">
    <!-- H2H1(P) -->
    <g transform="translate(888.960631 73.779351) scale(0.08 -0.08)">
     <use xlink:href="#DejaVuSans-48"/>
     <use xlink:href="#DejaVuSans-32" transform="translate(75.195312 0)"/>
     <use xlink:href="#DejaVuSans-48" transform="translate(138.818359 0)"/>
     <use xlink:href="#DejaVuSans-31" transform="translate(214.013672 0)"/>
     <use xlink:href="#DejaVuSans-28" transform="translate(277.636719 0)"/>
     <use xlink:href="#DejaVuSans-50" transform="translate(316.650391 0)"/>
     <use xlink:href="#DejaVuSans-29" transform="translate(376.953125 0)"/>
    </g>
   </g>
   <g id="patch_25">
    <path d="M 750.341976 140.164027 
Q 817.678205 108.465329 883.497103 77.480919 
" style="fill: none; stroke: #ad1457; stroke-width: 1.5; stroke-linecap: round"/>
    <path d="M 879.026219 77.37507 
L 883.497103 77.480919 
L 880.729894 80.994116 
" style="fill: none; stroke: #ad1457; stroke-width: 1.5; stroke-linecap: round"/>
   </g>
   <g id="text_10">
    <!-- 2(O2-O1) -->
    <g style="fill: #ad1457" transform="translate(710.74259 150.615871) scale(0.1 -0.1)">
     <use xlink:href="#DejaVuSans-32"/>
     <use xlink:href="#DejaVuSans-28" transform="translate(63.623047 0)"/>
     <use xlink:href="#DejaVuSans-4f" transform="translate(102.636719 0)"/>
     <use xlink:href="#DejaVuSans-32" transform="translate(181.347656 0)"/>
     <use xlink:href="#DejaVuSans-2d" transform="translate(244.970703 0)"/>
     <use xlink:href="#DejaVuSans-4f" transform="translate(283.804688 0)"/>
     <use xlink:href="#DejaVuSans-31" transform="translate(362.515625 0)"/>
     <use xlink:href="#DejaVuSans-29" transform="translate(426.138672 0)"/>
    </g>
   </g>
   <g id="text_11">
    <!-- Two half-turns -&gt; translation -->
    <g transform="translate(693.29816 29.894677) scale(0.1 -0.1)">
     <defs>
      <path id="DejaVuSans-54" d="M -19 4666 
L 3928 4666 
L 3928 4134 
L 2272 4134 
L 2272 0 
L 1638 0 
L 1638 4134 
L -19 4134 
L -19 4666 
z
" transform="scale(0.015625)"/>
      <path id="DejaVuSans-77" d="M 269 3500 
L 844 3500 
L 1563 769 
L 2278 3500 
L 2956 3500 
L 3675 769 
L 4391 3500 
L 4966 3500 
L 4050 0 
L 3372 0 
L 2619 2869 
L 1863 0 
L 1184 0 
L 269 3500 
z
" transform="scale(0.015625)"/>
      <path id="DejaVuSans-66" d="M 2375 4863 
L 2375 4384 
L 1825 4384 
Q 1516 4384 1395 4259 
Q 1275 4134 1275 3809 
L 1275 3500 
L 2222 3500 
L 2222 3053 
L 1275 3053 
L 1275 0 
L 697 0 
L 697 3053 
L 147 3053 
L 147 3500 
L 697 3500 
L 697 3744 
Q 697 4328 969 4595 
Q 1241 4863 1831 4863 
L 2375 4863 
z
" transform="scale(0.015625)"/>
      <path id="DejaVuSans-75" d="M 544 1381 
L 544 3500 
L 1119 3500 
L 1119 1403 
Q 1119 906 1312 657 
Q 1506 409 1894 409 
Q 2359 409 2629 706 
Q 2900 1003 2900 1516 
L 2900 3500 
L 3475 3500 
L 3475 0 
L 2900 0 
L 2900 538 
Q 2691 219 2414 64 
Q 2138 -91 1772 -91 
Q 1169 -91 856 284 
Q 544 659 544 1381 
z
M 1991 3584 
L 1991 3584 
z
" transform="scale(0.015625)"/>
     </defs>
     <use xlink:href="#DejaVuSans-54"/>
     <use xlink:href="#DejaVuSans-77" transform="translate(44.583984 0)"/>
     <use xlink:href="#DejaVuSans-6f" transform="translate(126.371094 0)"/>
     <use xlink:href="#DejaVuSans-20" transform="translate(187.552734 0)"/>
     <use xlink:href="#DejaVuSans-68" transform="translate(219.339844 0)"/>
     <use xlink:href="#DejaVuSans-61" transform="translate(282.71875 0)"/>
     <use xlink:href="#DejaVuSans-6c" transform="translate(343.998047 0)"/>
     <use xlink:href="#DejaVuSans-66" transform="translate(371.78125 0)"/>
     <use xlink:href="#DejaVuSans-2d" transform="translate(401.486328 0)"/>
     <use xlink:href="#DejaVuSans-74" transform="translate(437.570312 0)"/>
     <use xlink:href="#DejaVuSans-75" transform="translate(476.779297 0)"/>
     <use xlink:href="#DejaVuSans-72" transform="translate(540.158203 0)"/>
     <use xlink:href="#DejaVuSans-6e" transform="translate(579.521484 0)"/>
     <use xlink:href="#DejaVuSans-73" transform="translate(642.900391 0)"/>
     <use xlink:href="#DejaVuSans-20" transform="translate(695 0)"/>
     <use xlink:href="#DejaVuSans-2d" transform="translate(726.787109 0)"/>
     <use xlink:href="#DejaVuSans-3e" transform="translate(762.871094 0)"/>
     <use xlink:href="#DejaVuSans-20" transform="translate(846.660156 0)"/>
     <use xlink:href="#DejaVuSans-74" transform="translate(878.447266 0)"/>
     <use xlink:href="#DejaVuSans-72" transform="translate(917.65625 0)"/>
     <use xlink:href="#DejaVuSans-61" transform="translate(958.769531 0)"/>
     <use xlink:href="#DejaVuSans-6e" transform="translate(1020.048828 0)"/>
     <use xlink:href="#DejaVuSans-73" transform="translate(1083.427734 0)"/>
     <use xlink:href="#DejaVuSans-6c" transform="translate(1135.527344 0)"/>
     <use xlink:href="#DejaVuSans-61" transform="translate(1163.310547 0)"/>
     <use xlink:href="#DejaVuSans-74" transform="translate(1224.589844 0)"/>
     <use xlink:href="#DejaVuSans-69" transform="translate(1263.798828 0)"/>
     <use xlink:href="#DejaVuSans-6f" transform="translate(1291.582031 0)"/>
     <use xlink:href="#DejaVuSans-6e" transform="translate(1352.763672 0)"/>
    </g>
   </g>
  </g>
  <g id="text_12">
   <!-- Products of elementary isometries -->
   <g transform="translate(351.10199 17.077969) scale(0.13 -0.13)">
    <defs>
     <path id="DejaVuSans-79" d="M 2059 -325 
Q 1816 -950 1584 -1140 
Q 1353 -1331 966 -1331 
L 506 -1331 
L 506 -850 
L 844 -850 
Q 1081 -850 1212 -737 
Q 1344 -625 1503 -206 
L 1606 56 
L 191 3500 
L 800 3500 
L 1894 763 
L 2988 3500 
L 3597 3500 
L 2059 -325 
z
" transform="scale(0.015625)"/>
    </defs>
    <use xlink:href="#DejaVuSans-50"/>
    <use xlink:href="#DejaVuSans-72" transform="translate(58.552734 0)"/>
    <use xlink:href="#DejaVuSans-6f" transform="translate(97.416016 0)"/>
    <use xlink:href="#DejaVuSans-64" transform="translate(158.597656 0)"/>
    <use xlink:href="#DejaVuSans-75" transform="translate(222.074219 0)"/>
    <use xlink:href="#DejaVuSans-63" transform="translate(285.453125 0)"/>
    <use xlink:href="#DejaVuSans-74" transform="translate(340.433594 0)"/>
    <use xlink:href="#DejaVuSans-73" transform="translate(379.642578 0)"/>
    <use xlink:href="#DejaVuSans-20" transform="translate(431.742188 0)"/>
    <use xlink:href="#DejaVuSans-6f" transform="translate(463.529297 0)"/>
    <use xlink:href="#DejaVuSans-66" transform="translate(524.710938 0)"/>
    <use xlink:href="#DejaVuSans-20" transform="translate(559.916016 0)"/>
    <use xlink:href="#DejaVuSans-65" transform="translate(591.703125 0)"/>
    <use xlink:href="#DejaVuSans-6c" transform="translate(653.226562 0)"/>
    <use xlink:href="#DejaVuSans-65" transform="translate(681.009766 0)"/>
    <use xlink:href="#DejaVuSans-6d" transform="translate(742.533203 0)"/>
    <use xlink:href="#DejaVuSans-65" transform="translate(839.945312 0)"/>
    <use xlink:href="#DejaVuSans-6e" transform="translate(901.46875 0)"/>
    <use xlink:href="#DejaVuSans-74" transform="translate(964.847656 0)"/>
    <use xlink:href="#DejaVuSans-61" transform="translate(1004.056641 0)"/>
    <use xlink:href="#DejaVuSans-72" transform="translate(1065.335938 0)"/>
    <use xlink:href="#DejaVuSans-79" transform="translate(1106.449219 0)"/>
    <use xlink:href="#DejaVuSans-20" transform="translate(1165.628906 0)"/>
    <use xlink:href="#DejaVuSans-69" transform="translate(1197.416016 0)"/>
    <use xlink:href="#DejaVuSans-73" transform="translate(1225.199219 0)"/>
    <use xlink:href="#DejaVuSans-6f" transform="translate(1277.298828 0)"/>
    <use xlink:href="#DejaVuSans-6d" transform="translate(1338.480469 0)"/>
    <use xlink:href="#DejaVuSans-65" transform="translate(1435.892578 0)"/>
    <use xlink:href="#DejaVuSans-74" transform="translate(1497.416016 0)"/>
    <use xlink:href="#DejaVuSans-72" transform="translate(1536.625 0)"/>
    <use xlink:href="#DejaVuSans-69" transform="translate(1577.738281 0)"/>
    <use xlink:href="#DejaVuSans-65" transform="translate(1605.521484 0)"/>
    <use xlink:href="#DejaVuSans-73" transform="translate(1667.044922 0)"/>
   </g>
  </g>
 </g>
 <defs>
  <clipPath id="pe171e75bcc">
   <rect x="7.2" y="35.894677" width="282.801083" height="282.801083"/>
  </clipPath>
  <clipPath id="p2ea066de2e">
   <rect x="314.950372" y="35.894677" width="282.801083" height="282.801083"/>
  </clipPath>
  <clipPath id="p27bf663c8e">
   <rect x="622.700744" y="35.894677" width="282.801083" height="282.801083"/>
  </clipPath>
 </defs>
</svg>
