<?xml version="1.0" encoding="utf-8" standalone="no"?>
<!DOCTYPE svg PUBLIC "-//W3C//DTD SVG 1.1//EN"
  "http://www.w3.org/Graphics/SVG/1.1/DTD/svg11.dtd">
<svg xmlns:xlink="http://www.w3.org/1999/xlink" width="836.39952pt" height="602.454105pt" viewBox="0 0 836.39952 602.454105" xmlns="http://www.w3.org/2000/svg" version="1.1">
 <metadata>
  <rdf:RDF xmlns:dc="http://purl.org/dc/elements/1.1/" xmlns:cc="http://creativecommons.org/ns#" xmlns:rdf="http://www.w3.org/1999/02/22-rdf-syntax-ns#">
   <cc:Work>
    <dc:type rdf:resource="http://purl.org/dc/dcmitype/StillImage"/>
    <dc:date>2026-05-12T07:24:13.488104</dc:date>
    <dc:format>image/svg+xml</dc:format>
    <dc:creator>
     <cc:Agent>
      <dc:title>Matplotlib v3.10.9, https://matplotlib.org/</dc:title>
     </cc:Agent>
    </dc:creator>
   </cc:Work>
  </rdf:RDF>
 </metadata>
 <defs>
  <style type="text/css">*{stroke-linejoin: round; stroke-linecap: butt}</style>
 </defs>
 <g id="figure_1">
  <g id="patch_1">
   <path d="M 0 602.454105
L 836.39952 602.454105
L 836.39952 0
L 0 0
z
" style="fill: #ffffff"/>
  </g>
  <g id="axes_1">
   <g id="patch_2">
    <path d="M 7.2 595.254105
L 829.19952 595.254105
L 829.19952 23.077969
L 7.2 23.077969
z
" style="fill: #ffffff"/>
   </g>
   <g id="patch_3">
    <path d="M 101.48818 85.130874
L 101.48818 48.060307
L 132.111692 56.925008
L 119.217582 65.789709
L 136.141101 77.877937
z
" clip-path="url(#p91944bc171)" style="fill: #00897b; opacity: 0.28; stroke: #00897b; stroke-linejoin: miter"/>
   </g>
   <g id="patch_4">
    <path d="M 182.076368 85.130874
L 182.076368 48.060307
L 212.69988 56.925008
L 199.80577 65.789709
L 216.729289 77.877937
z
" clip-path="url(#p91944bc171)" style="fill: #00897b; opacity: 0.28; stroke: #00897b; stroke-linejoin: miter"/>
   </g>
   <g id="patch_5">
    <path d="M 262.664557 85.130874
L 262.664557 48.060307
L 293.288068 56.925008
L 280.393958 65.789709
L 297.317478 77.877937
z
" clip-path="url(#p91944bc171)" style="fill: #00897b; opacity: 0.28; stroke: #00897b; stroke-linejoin: miter"/>
   </g>
   <g id="patch_6">
    <path d="M 343.252745 85.130874
L 343.252745 48.060307
L 373.876256 56.925008
L 360.982146 65.789709
L 377.905666 77.877937
z
" clip-path="url(#p91944bc171)" style="fill: #00897b; opacity: 0.28; stroke: #00897b; stroke-linejoin: miter"/>
   </g>
   <g id="patch_7">
    <path d="M 423.840933 85.130874
L 423.840933 48.060307
L 454.464445 56.925008
L 441.570335 65.789709
L 458.493854 77.877937
z
" clip-path="url(#p91944bc171)" style="fill: #00897b; opacity: 0.28; stroke: #00897b; stroke-linejoin: miter"/>
   </g>
   <g id="patch_8">
    <path d="M 504.429121 85.130874
L 504.429121 48.060307
L 535.052633 56.925008
L 522.158523 65.789709
L 539.082042 77.877937
z
" clip-path="url(#p91944bc171)" style="fill: #00897b; opacity: 0.28; stroke: #00897b; stroke-linejoin: miter"/>
   </g>
   <g id="patch_9">
    <path d="M 585.01731 85.130874
L 585.01731 48.060307
L 615.640821 56.925008
L 602.746711 65.789709
L 619.670231 77.877937
z
" clip-path="url(#p91944bc171)" style="fill: #00897b; opacity: 0.28; stroke: #00897b; stroke-linejoin: miter"/>
   </g>
   <g id="patch_10">
    <path d="M 665.605498 85.130874
L 665.605498 48.060307
L 696.229009 56.925008
L 683.334899 65.789709
L 700.258419 77.877937
z
" clip-path="url(#p91944bc171)" style="fill: #00897b; opacity: 0.28; stroke: #00897b; stroke-linejoin: miter"/>
   </g>
   <g id="patch_11">
    <path d="M 746.193686 85.130874
L 746.193686 48.060307
L 776.817198 56.925008
L 763.923088 65.789709
L 780.846607 77.877937
z
" clip-path="url(#p91944bc171)" style="fill: #00897b; opacity: 0.28; stroke: #00897b; stroke-linejoin: miter"/>
   </g>
   <g id="patch_12">
    <path d="M 223.982226 150.407306
L 223.982226 113.33674
L 254.605738 122.20144
L 241.711628 131.066141
L 258.635147 143.154369
z
" clip-path="url(#p91944bc171)" style="fill: #d81b60; opacity: 0.28; stroke: #d81b60; stroke-linejoin: miter"/>
   </g>
   <g id="patch_13">
    <path d="M 273.946903 145.572015
L 273.946903 182.642581
L 304.570415 173.777881
L 291.676304 164.91318
L 308.599824 152.824952
z
" clip-path="url(#p91944bc171)" style="fill: #d81b60; opacity: 0.28; stroke: #d81b60; stroke-linejoin: miter"/>
   </g>
   <g id="patch_14">
    <path d="M 323.91158 150.407306
L 323.91158 113.33674
L 354.535091 122.20144
L 341.640981 131.066141
L 358.564501 143.154369
z
" clip-path="url(#p91944bc171)" style="fill: #d81b60; opacity: 0.28; stroke: #d81b60; stroke-linejoin: miter"/>
   </g>
   <g id="patch_15">
    <path d="M 373.876256 145.572015
L 373.876256 182.642581
L 404.499768 173.777881
L 391.605658 164.91318
L 408.529177 152.824952
z
" clip-path="url(#p91944bc171)" style="fill: #d81b60; opacity: 0.28; stroke: #d81b60; stroke-linejoin: miter"/>
   </g>
   <g id="patch_16">
    <path d="M 423.840933 150.407306
L 423.840933 113.33674
L 454.464445 122.20144
L 441.570335 131.066141
L 458.493854 143.154369
z
" clip-path="url(#p91944bc171)" style="fill: #d81b60; opacity: 0.28; stroke: #d81b60; stroke-linejoin: miter"/>
   </g>
   <g id="patch_17">
    <path d="M 473.80561 145.572015
L 473.80561 182.642581
L 504.429121 173.777881
L 491.535011 164.91318
L 508.458531 152.824952
z
" clip-path="url(#p91944bc171)" style="fill: #d81b60; opacity: 0.28; stroke: #d81b60; stroke-linejoin: miter"/>
   </g>
   <g id="patch_18">
    <path d="M 523.770287 150.407306
L 523.770287 113.33674
L 554.393798 122.20144
L 541.499688 131.066141
L 558.423208 143.154369
z
" clip-path="url(#p91944bc171)" style="fill: #d81b60; opacity: 0.28; stroke: #d81b60; stroke-linejoin: miter"/>
   </g>
   <g id="patch_19">
    <path d="M 573.734963 145.572015
L 573.734963 182.642581
L 604.358475 173.777881
L 591.464365 164.91318
L 608.387884 152.824952
z
" clip-path="url(#p91944bc171)" style="fill: #d81b60; opacity: 0.28; stroke: #d81b60; stroke-linejoin: miter"/>
   </g>
   <g id="patch_20">
    <path d="M 623.69964 150.407306
L 623.69964 113.33674
L 654.323152 122.20144
L 641.429041 131.066141
L 658.352561 143.154369
z
" clip-path="url(#p91944bc171)" style="fill: #d81b60; opacity: 0.28; stroke: #d81b60; stroke-linejoin: miter"/>
   </g>
   <g id="patch_21">
    <path d="M 196.582242 243.083723
L 196.582242 206.013156
L 227.205754 214.877857
L 214.311644 223.742557
L 231.235163 235.830786
z
" clip-path="url(#p91944bc171)" style="fill: #5e35b1; opacity: 0.28; stroke: #5e35b1; stroke-linejoin: miter"/>
   </g>
   <g id="patch_22">
    <path d="M 277.170431 243.083723
L 277.170431 206.013156
L 246.546919 214.877857
L 259.441029 223.742557
L 242.51751 235.830786
z
" clip-path="url(#p91944bc171)" style="fill: #5e35b1; opacity: 0.28; stroke: #5e35b1; stroke-linejoin: miter"/>
   </g>
   <g id="patch_23">
    <path d="M 277.170431 243.083723
L 277.170431 206.013156
L 307.793942 214.877857
L 294.899832 223.742557
L 311.823352 235.830786
z
" clip-path="url(#p91944bc171)" style="fill: #5e35b1; opacity: 0.28; stroke: #5e35b1; stroke-linejoin: miter"/>
   </g>
   <g id="patch_24">
    <path d="M 357.758619 243.083723
L 357.758619 206.013156
L 327.135107 214.877857
L 340.029217 223.742557
L 323.105698 235.830786
z
" clip-path="url(#p91944bc171)" style="fill: #5e35b1; opacity: 0.28; stroke: #5e35b1; stroke-linejoin: miter"/>
   </g>
   <g id="patch_25">
    <path d="M 357.758619 243.083723
L 357.758619 206.013156
L 388.38213 214.877857
L 375.48802 223.742557
L 392.41154 235.830786
z
" clip-path="url(#p91944bc171)" style="fill: #5e35b1; opacity: 0.28; stroke: #5e35b1; stroke-linejoin: miter"/>
   </g>
   <g id="patch_26">
    <path d="M 438.346807 243.083723
L 438.346807 206.013156
L 407.723296 214.877857
L 420.617406 223.742557
L 403.693886 235.830786
z
" clip-path="url(#p91944bc171)" style="fill: #5e35b1; opacity: 0.28; stroke: #5e35b1; stroke-linejoin: miter"/>
   </g>
   <g id="patch_27">
    <path d="M 438.346807 243.083723
L 438.346807 206.013156
L 468.970319 214.877857
L 456.076208 223.742557
L 472.999728 235.830786
z
" clip-path="url(#p91944bc171)" style="fill: #5e35b1; opacity: 0.28; stroke: #5e35b1; stroke-linejoin: miter"/>
   </g>
   <g id="patch_28">
    <path d="M 518.934995 243.083723
L 518.934995 206.013156
L 488.311484 214.877857
L 501.205594 223.742557
L 484.282074 235.830786
z
" clip-path="url(#p91944bc171)" style="fill: #5e35b1; opacity: 0.28; stroke: #5e35b1; stroke-linejoin: miter"/>
   </g>
   <g id="patch_29">
    <path d="M 518.934995 243.083723
L 518.934995 206.013156
L 549.558507 214.877857
L 536.664397 223.742557
L 553.587916 235.830786
z
" clip-path="url(#p91944bc171)" style="fill: #5e35b1; opacity: 0.28; stroke: #5e35b1; stroke-linejoin: miter"/>
   </g>
   <g id="patch_30">
    <path d="M 599.523184 243.083723
L 599.523184 206.013156
L 568.899672 214.877857
L 581.793782 223.742557
L 564.870263 235.830786
z
" clip-path="url(#p91944bc171)" style="fill: #5e35b1; opacity: 0.28; stroke: #5e35b1; stroke-linejoin: miter"/>
   </g>
   <g id="patch_31">
    <path d="M 599.523184 243.083723
L 599.523184 206.013156
L 630.146695 214.877857
L 617.252585 223.742557
L 634.176104 235.830786
z
" clip-path="url(#p91944bc171)" style="fill: #5e35b1; opacity: 0.28; stroke: #5e35b1; stroke-linejoin: miter"/>
   </g>
   <g id="patch_32">
    <path d="M 680.111372 243.083723
L 680.111372 206.013156
L 649.48786 214.877857
L 662.38197 223.742557
L 645.458451 235.830786
z
" clip-path="url(#p91944bc171)" style="fill: #5e35b1; opacity: 0.28; stroke: #5e35b1; stroke-linejoin: miter"/>
   </g>
   <g id="patch_33">
    <path d="M 680.111372 243.083723
L 680.111372 206.013156
L 710.734883 214.877857
L 697.840773 223.742557
L 714.764293 235.830786
z
" clip-path="url(#p91944bc171)" style="fill: #5e35b1; opacity: 0.28; stroke: #5e35b1; stroke-linejoin: miter"/>
   </g>
   <g id="patch_34">
    <path d="M 760.69956 243.083723
L 760.69956 206.013156
L 730.076048 214.877857
L 742.970159 223.742557
L 726.046639 235.830786
z
" clip-path="url(#p91944bc171)" style="fill: #5e35b1; opacity: 0.28; stroke: #5e35b1; stroke-linejoin: miter"/>
   </g>
   <g id="patch_35">
    <path d="M 182.076368 313.195446
L 182.076368 276.12488
L 212.69988 284.989581
L 199.80577 293.854281
L 216.729289 305.942509
z
" clip-path="url(#p91944bc171)" style="fill: #f57c00; opacity: 0.28; stroke: #f57c00; stroke-linejoin: miter"/>
   </g>
   <g id="patch_36">
    <path d="M 271.529257 305.136628
L 271.529257 342.207194
L 240.905746 333.342493
L 253.799856 324.477793
L 236.876336 312.389565
z
" clip-path="url(#p91944bc171)" style="fill: #f57c00; opacity: 0.28; stroke: #f57c00; stroke-linejoin: miter"/>
   </g>
   <g id="patch_37">
    <path d="M 302.958651 313.195446
L 302.958651 276.12488
L 333.582162 284.989581
L 320.688052 293.854281
L 337.611572 305.942509
z
" clip-path="url(#p91944bc171)" style="fill: #f57c00; opacity: 0.28; stroke: #f57c00; stroke-linejoin: miter"/>
   </g>
   <g id="patch_38">
    <path d="M 392.41154 305.136628
L 392.41154 342.207194
L 361.788028 333.342493
L 374.682138 324.477793
L 357.758619 312.389565
z
" clip-path="url(#p91944bc171)" style="fill: #f57c00; opacity: 0.28; stroke: #f57c00; stroke-linejoin: miter"/>
   </g>
   <g id="patch_39">
    <path d="M 423.840933 313.195446
L 423.840933 276.12488
L 454.464445 284.989581
L 441.570335 293.854281
L 458.493854 305.942509
z
" clip-path="url(#p91944bc171)" style="fill: #f57c00; opacity: 0.28; stroke: #f57c00; stroke-linejoin: miter"/>
   </g>
   <g id="patch_40">
    <path d="M 513.293822 305.136628
L 513.293822 342.207194
L 482.670311 333.342493
L 495.564421 324.477793
L 478.640901 312.389565
z
" clip-path="url(#p91944bc171)" style="fill: #f57c00; opacity: 0.28; stroke: #f57c00; stroke-linejoin: miter"/>
   </g>
   <g id="patch_41">
    <path d="M 544.723216 313.195446
L 544.723216 276.12488
L 575.346727 284.989581
L 562.452617 293.854281
L 579.376136 305.942509
z
" clip-path="url(#p91944bc171)" style="fill: #f57c00; opacity: 0.28; stroke: #f57c00; stroke-linejoin: miter"/>
   </g>
   <g id="patch_42">
    <path d="M 634.176104 305.136628
L 634.176104 342.207194
L 603.552593 333.342493
L 616.446703 324.477793
L 599.523184 312.389565
z
" clip-path="url(#p91944bc171)" style="fill: #f57c00; opacity: 0.28; stroke: #f57c00; stroke-linejoin: miter"/>
   </g>
   <g id="patch_43">
    <path d="M 665.605498 313.195446
L 665.605498 276.12488
L 696.229009 284.989581
L 683.334899 293.854281
L 700.258419 305.942509
z
" clip-path="url(#p91944bc171)" style="fill: #f57c00; opacity: 0.28; stroke: #f57c00; stroke-linejoin: miter"/>
   </g>
   <g id="patch_44">
    <path d="M 196.582242 392.977753
L 196.582242 355.907186
L 227.205754 364.771887
L 214.311644 373.636588
L 231.235163 385.724816
z
" clip-path="url(#p91944bc171)" style="fill: #43a047; opacity: 0.28; stroke: #43a047; stroke-linejoin: miter"/>
   </g>
   <g id="patch_45">
    <path d="M 248.158683 386.530698
L 248.158683 423.601264
L 278.782194 414.736564
L 265.888084 405.871863
L 282.811604 393.783635
z
" clip-path="url(#p91944bc171)" style="fill: #43a047; opacity: 0.28; stroke: #43a047; stroke-linejoin: miter"/>
   </g>
   <g id="patch_46">
    <path d="M 277.170431 392.977753
L 277.170431 355.907186
L 307.793942 364.771887
L 294.899832 373.636588
L 311.823352 385.724816
z
" clip-path="url(#p91944bc171)" style="fill: #43a047; opacity: 0.28; stroke: #43a047; stroke-linejoin: miter"/>
   </g>
   <g id="patch_47">
    <path d="M 328.746871 386.530698
L 328.746871 423.601264
L 359.370383 414.736564
L 346.476272 405.871863
L 363.399792 393.783635
z
" clip-path="url(#p91944bc171)" style="fill: #43a047; opacity: 0.28; stroke: #43a047; stroke-linejoin: miter"/>
   </g>
   <g id="patch_48">
    <path d="M 357.758619 392.977753
L 357.758619 355.907186
L 388.38213 364.771887
L 375.48802 373.636588
L 392.41154 385.724816
z
" clip-path="url(#p91944bc171)" style="fill: #43a047; opacity: 0.28; stroke: #43a047; stroke-linejoin: miter"/>
   </g>
   <g id="patch_49">
    <path d="M 409.335059 386.530698
L 409.335059 423.601264
L 439.958571 414.736564
L 427.064461 405.871863
L 443.98798 393.783635
z
" clip-path="url(#p91944bc171)" style="fill: #43a047; opacity: 0.28; stroke: #43a047; stroke-linejoin: miter"/>
   </g>
   <g id="patch_50">
    <path d="M 438.346807 392.977753
L 438.346807 355.907186
L 468.970319 364.771887
L 456.076208 373.636588
L 472.999728 385.724816
z
" clip-path="url(#p91944bc171)" style="fill: #43a047; opacity: 0.28; stroke: #43a047; stroke-linejoin: miter"/>
   </g>
   <g id="patch_51">
    <path d="M 489.923248 386.530698
L 489.923248 423.601264
L 520.546759 414.736564
L 507.652649 405.871863
L 524.576168 393.783635
z
" clip-path="url(#p91944bc171)" style="fill: #43a047; opacity: 0.28; stroke: #43a047; stroke-linejoin: miter"/>
   </g>
   <g id="patch_52">
    <path d="M 518.934995 392.977753
L 518.934995 355.907186
L 549.558507 364.771887
L 536.664397 373.636588
L 553.587916 385.724816
z
" clip-path="url(#p91944bc171)" style="fill: #43a047; opacity: 0.28; stroke: #43a047; stroke-linejoin: miter"/>
   </g>
   <g id="patch_53">
    <path d="M 570.511436 386.530698
L 570.511436 423.601264
L 601.134947 414.736564
L 588.240837 405.871863
L 605.164357 393.783635
z
" clip-path="url(#p91944bc171)" style="fill: #43a047; opacity: 0.28; stroke: #43a047; stroke-linejoin: miter"/>
   </g>
   <g id="patch_54">
    <path d="M 599.523184 392.977753
L 599.523184 355.907186
L 630.146695 364.771887
L 617.252585 373.636588
L 634.176104 385.724816
z
" clip-path="url(#p91944bc171)" style="fill: #43a047; opacity: 0.28; stroke: #43a047; stroke-linejoin: miter"/>
   </g>
   <g id="patch_55">
    <path d="M 651.099624 386.530698
L 651.099624 423.601264
L 681.723136 414.736564
L 668.829025 405.871863
L 685.752545 393.783635
z
" clip-path="url(#p91944bc171)" style="fill: #43a047; opacity: 0.28; stroke: #43a047; stroke-linejoin: miter"/>
   </g>
   <g id="patch_56">
    <path d="M 680.111372 392.977753
L 680.111372 355.907186
L 710.734883 364.771887
L 697.840773 373.636588
L 714.764293 385.724816
z
" clip-path="url(#p91944bc171)" style="fill: #43a047; opacity: 0.28; stroke: #43a047; stroke-linejoin: miter"/>
   </g>
   <g id="patch_57">
    <path d="M 731.687812 386.530698
L 731.687812 423.601264
L 762.311324 414.736564
L 749.417214 405.871863
L 766.340733 393.783635
z
" clip-path="url(#p91944bc171)" style="fill: #43a047; opacity: 0.28; stroke: #43a047; stroke-linejoin: miter"/>
   </g>
   <g id="patch_58">
    <path d="M 101.48818 472.760059
L 101.48818 435.689493
L 132.111692 444.554193
L 119.217582 453.418894
L 136.141101 465.507122
z
" clip-path="url(#p91944bc171)" style="fill: #039be5; opacity: 0.28; stroke: #039be5; stroke-linejoin: miter"/>
   </g>
   <g id="patch_59">
    <path d="M 101.48818 467.924768
L 101.48818 504.995334
L 132.111692 496.130634
L 119.217582 487.265933
L 136.141101 475.177705
z
" clip-path="url(#p91944bc171)" style="fill: #039be5; opacity: 0.28; stroke: #039be5; stroke-linejoin: miter"/>
   </g>
   <g id="patch_60">
    <path d="M 182.076368 472.760059
L 182.076368 435.689493
L 212.69988 444.554193
L 199.80577 453.418894
L 216.729289 465.507122
z
" clip-path="url(#p91944bc171)" style="fill: #039be5; opacity: 0.28; stroke: #039be5; stroke-linejoin: miter"/>
   </g>
   <g id="patch_61">
    <path d="M 182.076368 467.924768
L 182.076368 504.995334
L 212.69988 496.130634
L 199.80577 487.265933
L 216.729289 475.177705
z
" clip-path="url(#p91944bc171)" style="fill: #039be5; opacity: 0.28; stroke: #039be5; stroke-linejoin: miter"/>
   </g>
   <g id="patch_62">
    <path d="M 262.664557 472.760059
L 262.664557 435.689493
L 293.288068 444.554193
L 280.393958 453.418894
L 297.317478 465.507122
z
" clip-path="url(#p91944bc171)" style="fill: #039be5; opacity: 0.28; stroke: #039be5; stroke-linejoin: miter"/>
   </g>
   <g id="patch_63">
    <path d="M 262.664557 467.924768
L 262.664557 504.995334
L 293.288068 496.130634
L 280.393958 487.265933
L 297.317478 475.177705
z
" clip-path="url(#p91944bc171)" style="fill: #039be5; opacity: 0.28; stroke: #039be5; stroke-linejoin: miter"/>
   </g>
   <g id="patch_64">
    <path d="M 343.252745 472.760059
L 343.252745 435.689493
L 373.876256 444.554193
L 360.982146 453.418894
L 377.905666 465.507122
z
" clip-path="url(#p91944bc171)" style="fill: #039be5; opacity: 0.28; stroke: #039be5; stroke-linejoin: miter"/>
   </g>
   <g id="patch_65">
    <path d="M 343.252745 467.924768
L 343.252745 504.995334
L 373.876256 496.130634
L 360.982146 487.265933
L 377.905666 475.177705
z
" clip-path="url(#p91944bc171)" style="fill: #039be5; opacity: 0.28; stroke: #039be5; stroke-linejoin: miter"/>
   </g>
   <g id="patch_66">
    <path d="M 423.840933 472.760059
L 423.840933 435.689493
L 454.464445 444.554193
L 441.570335 453.418894
L 458.493854 465.507122
z
" clip-path="url(#p91944bc171)" style="fill: #039be5; opacity: 0.28; stroke: #039be5; stroke-linejoin: miter"/>
   </g>
   <g id="patch_67">
    <path d="M 423.840933 467.924768
L 423.840933 504.995334
L 454.464445 496.130634
L 441.570335 487.265933
L 458.493854 475.177705
z
" clip-path="url(#p91944bc171)" style="fill: #039be5; opacity: 0.28; stroke: #039be5; stroke-linejoin: miter"/>
   </g>
   <g id="patch_68">
    <path d="M 504.429121 472.760059
L 504.429121 435.689493
L 535.052633 444.554193
L 522.158523 453.418894
L 539.082042 465.507122
z
" clip-path="url(#p91944bc171)" style="fill: #039be5; opacity: 0.28; stroke: #039be5; stroke-linejoin: miter"/>
   </g>
   <g id="patch_69">
    <path d="M 504.429121 467.924768
L 504.429121 504.995334
L 535.052633 496.130634
L 522.158523 487.265933
L 539.082042 475.177705
z
" clip-path="url(#p91944bc171)" style="fill: #039be5; opacity: 0.28; stroke: #039be5; stroke-linejoin: miter"/>
   </g>
   <g id="patch_70">
    <path d="M 585.01731 472.760059
L 585.01731 435.689493
L 615.640821 444.554193
L 602.746711 453.418894
L 619.670231 465.507122
z
" clip-path="url(#p91944bc171)" style="fill: #039be5; opacity: 0.28; stroke: #039be5; stroke-linejoin: miter"/>
   </g>
   <g id="patch_71">
    <path d="M 585.01731 467.924768
L 585.01731 504.995334
L 615.640821 496.130634
L 602.746711 487.265933
L 619.670231 475.177705
z
" clip-path="url(#p91944bc171)" style="fill: #039be5; opacity: 0.28; stroke: #039be5; stroke-linejoin: miter"/>
   </g>
   <g id="patch_72">
    <path d="M 665.605498 472.760059
L 665.605498 435.689493
L 696.229009 444.554193
L 683.334899 453.418894
L 700.258419 465.507122
z
" clip-path="url(#p91944bc171)" style="fill: #039be5; opacity: 0.28; stroke: #039be5; stroke-linejoin: miter"/>
   </g>
   <g id="patch_73">
    <path d="M 665.605498 467.924768
L 665.605498 504.995334
L 696.229009 496.130634
L 683.334899 487.265933
L 700.258419 475.177705
z
" clip-path="url(#p91944bc171)" style="fill: #039be5; opacity: 0.28; stroke: #039be5; stroke-linejoin: miter"/>
   </g>
   <g id="patch_74">
    <path d="M 746.193686 472.760059
L 746.193686 435.689493
L 776.817198 444.554193
L 763.923088 453.418894
L 780.846607 465.507122
z
" clip-path="url(#p91944bc171)" style="fill: #039be5; opacity: 0.28; stroke: #039be5; stroke-linejoin: miter"/>
   </g>
   <g id="patch_75">
    <path d="M 746.193686 467.924768
L 746.193686 504.995334
L 776.817198 496.130634
L 763.923088 487.265933
L 780.846607 475.177705
z
" clip-path="url(#p91944bc171)" style="fill: #039be5; opacity: 0.28; stroke: #039be5; stroke-linejoin: miter"/>
   </g>
   <g id="patch_76">
    <path d="M 240.099864 555.765893
L 240.099864 518.695326
L 270.723376 527.560027
L 257.829265 536.424728
L 274.752785 548.512956
z
" clip-path="url(#p91944bc171)" style="fill: #6d4c41; opacity: 0.2; stroke: #6d4c41; stroke-linejoin: miter"/>
   </g>
   <g id="patch_77">
    <path d="M 233.652809 555.765893
L 233.652809 518.695326
L 203.029297 527.560027
L 215.923408 536.424728
L 198.999888 548.512956
z
" clip-path="url(#p91944bc171)" style="fill: #6d4c41; opacity: 0.2; stroke: #6d4c41; stroke-linejoin: miter"/>
   </g>
   <g id="patch_78">
    <path d="M 240.099864 546.09531
L 240.099864 583.165877
L 270.723376 574.301176
L 257.829265 565.436476
L 274.752785 553.348247
z
" clip-path="url(#p91944bc171)" style="fill: #6d4c41; opacity: 0.2; stroke: #6d4c41; stroke-linejoin: miter"/>
   </g>
   <g id="patch_79">
    <path d="M 233.652809 546.09531
L 233.652809 583.165877
L 203.029297 574.301176
L 215.923408 565.436476
L 198.999888 553.348247
z
" clip-path="url(#p91944bc171)" style="fill: #6d4c41; opacity: 0.2; stroke: #6d4c41; stroke-linejoin: miter"/>
   </g>
   <g id="patch_80">
    <path d="M 320.688052 555.765893
L 320.688052 518.695326
L 351.311564 527.560027
L 338.417454 536.424728
L 355.340973 548.512956
z
" clip-path="url(#p91944bc171)" style="fill: #6d4c41; opacity: 0.2; stroke: #6d4c41; stroke-linejoin: miter"/>
   </g>
   <g id="patch_81">
    <path d="M 314.240997 555.765893
L 314.240997 518.695326
L 283.617486 527.560027
L 296.511596 536.424728
L 279.588076 548.512956
z
" clip-path="url(#p91944bc171)" style="fill: #6d4c41; opacity: 0.2; stroke: #6d4c41; stroke-linejoin: miter"/>
   </g>
   <g id="patch_82">
    <path d="M 320.688052 546.09531
L 320.688052 583.165877
L 351.311564 574.301176
L 338.417454 565.436476
L 355.340973 553.348247
z
" clip-path="url(#p91944bc171)" style="fill: #6d4c41; opacity: 0.2; stroke: #6d4c41; stroke-linejoin: miter"/>
   </g>
   <g id="patch_83">
    <path d="M 314.240997 546.09531
L 314.240997 583.165877
L 283.617486 574.301176
L 296.511596 565.436476
L 279.588076 553.348247
z
" clip-path="url(#p91944bc171)" style="fill: #6d4c41; opacity: 0.2; stroke: #6d4c41; stroke-linejoin: miter"/>
   </g>
   <g id="patch_84">
    <path d="M 401.27624 555.765893
L 401.27624 518.695326
L 431.899752 527.560027
L 419.005642 536.424728
L 435.929161 548.512956
z
" clip-path="url(#p91944bc171)" style="fill: #6d4c41; opacity: 0.2; stroke: #6d4c41; stroke-linejoin: miter"/>
   </g>
   <g id="patch_85">
    <path d="M 394.829185 555.765893
L 394.829185 518.695326
L 364.205674 527.560027
L 377.099784 536.424728
L 360.176264 548.512956
z
" clip-path="url(#p91944bc171)" style="fill: #6d4c41; opacity: 0.2; stroke: #6d4c41; stroke-linejoin: miter"/>
   </g>
   <g id="patch_86">
    <path d="M 401.27624 546.09531
L 401.27624 583.165877
L 431.899752 574.301176
L 419.005642 565.436476
L 435.929161 553.348247
z
" clip-path="url(#p91944bc171)" style="fill: #6d4c41; opacity: 0.2; stroke: #6d4c41; stroke-linejoin: miter"/>
   </g>
   <g id="patch_87">
    <path d="M 394.829185 546.09531
L 394.829185 583.165877
L 364.205674 574.301176
L 377.099784 565.436476
L 360.176264 553.348247
z
" clip-path="url(#p91944bc171)" style="fill: #6d4c41; opacity: 0.2; stroke: #6d4c41; stroke-linejoin: miter"/>
   </g>
   <g id="patch_88">
    <path d="M 481.864429 555.765893
L 481.864429 518.695326
L 512.48794 527.560027
L 499.59383 536.424728
L 516.51735 548.512956
z
" clip-path="url(#p91944bc171)" style="fill: #6d4c41; opacity: 0.2; stroke: #6d4c41; stroke-linejoin: miter"/>
   </g>
   <g id="patch_89">
    <path d="M 475.417374 555.765893
L 475.417374 518.695326
L 444.793862 527.560027
L 457.687972 536.424728
L 440.764453 548.512956
z
" clip-path="url(#p91944bc171)" style="fill: #6d4c41; opacity: 0.2; stroke: #6d4c41; stroke-linejoin: miter"/>
   </g>
   <g id="patch_90">
    <path d="M 481.864429 546.09531
L 481.864429 583.165877
L 512.48794 574.301176
L 499.59383 565.436476
L 516.51735 553.348247
z
" clip-path="url(#p91944bc171)" style="fill: #6d4c41; opacity: 0.2; stroke: #6d4c41; stroke-linejoin: miter"/>
   </g>
   <g id="patch_91">
    <path d="M 475.417374 546.09531
L 475.417374 583.165877
L 444.793862 574.301176
L 457.687972 565.436476
L 440.764453 553.348247
z
" clip-path="url(#p91944bc171)" style="fill: #6d4c41; opacity: 0.2; stroke: #6d4c41; stroke-linejoin: miter"/>
   </g>
   <g id="patch_92">
    <path d="M 562.452617 555.765893
L 562.452617 518.695326
L 593.076128 527.560027
L 580.182018 536.424728
L 597.105538 548.512956
z
" clip-path="url(#p91944bc171)" style="fill: #6d4c41; opacity: 0.2; stroke: #6d4c41; stroke-linejoin: miter"/>
   </g>
   <g id="patch_93">
    <path d="M 556.005562 555.765893
L 556.005562 518.695326
L 525.38205 527.560027
L 538.27616 536.424728
L 521.352641 548.512956
z
" clip-path="url(#p91944bc171)" style="fill: #6d4c41; opacity: 0.2; stroke: #6d4c41; stroke-linejoin: miter"/>
   </g>
   <g id="patch_94">
    <path d="M 562.452617 546.09531
L 562.452617 583.165877
L 593.076128 574.301176
L 580.182018 565.436476
L 597.105538 553.348247
z
" clip-path="url(#p91944bc171)" style="fill: #6d4c41; opacity: 0.2; stroke: #6d4c41; stroke-linejoin: miter"/>
   </g>
   <g id="patch_95">
    <path d="M 556.005562 546.09531
L 556.005562 583.165877
L 525.38205 574.301176
L 538.27616 565.436476
L 521.352641 553.348247
z
" clip-path="url(#p91944bc171)" style="fill: #6d4c41; opacity: 0.2; stroke: #6d4c41; stroke-linejoin: miter"/>
   </g>
   <g id="patch_96">
    <path d="M 643.040805 555.765893
L 643.040805 518.695326
L 673.664317 527.560027
L 660.770207 536.424728
L 677.693726 548.512956
z
" clip-path="url(#p91944bc171)" style="fill: #6d4c41; opacity: 0.2; stroke: #6d4c41; stroke-linejoin: miter"/>
   </g>
   <g id="patch_97">
    <path d="M 636.59375 555.765893
L 636.59375 518.695326
L 605.970239 527.560027
L 618.864349 536.424728
L 601.940829 548.512956
z
" clip-path="url(#p91944bc171)" style="fill: #6d4c41; opacity: 0.2; stroke: #6d4c41; stroke-linejoin: miter"/>
   </g>
   <g id="patch_98">
    <path d="M 643.040805 546.09531
L 643.040805 583.165877
L 673.664317 574.301176
L 660.770207 565.436476
L 677.693726 553.348247
z
" clip-path="url(#p91944bc171)" style="fill: #6d4c41; opacity: 0.2; stroke: #6d4c41; stroke-linejoin: miter"/>
   </g>
   <g id="patch_99">
    <path d="M 636.59375 546.09531
L 636.59375 583.165877
L 605.970239 574.301176
L 618.864349 565.436476
L 601.940829 553.348247
z
" clip-path="url(#p91944bc171)" style="fill: #6d4c41; opacity: 0.2; stroke: #6d4c41; stroke-linejoin: miter"/>
   </g>
   <g id="patch_100">
    <path d="M 723.628993 555.765893
L 723.628993 518.695326
L 754.252505 527.560027
L 741.358395 536.424728
L 758.281914 548.512956
z
" clip-path="url(#p91944bc171)" style="fill: #6d4c41; opacity: 0.2; stroke: #6d4c41; stroke-linejoin: miter"/>
   </g>
   <g id="patch_101">
    <path d="M 717.181938 555.765893
L 717.181938 518.695326
L 686.558427 527.560027
L 699.452537 536.424728
L 682.529017 548.512956
z
" clip-path="url(#p91944bc171)" style="fill: #6d4c41; opacity: 0.2; stroke: #6d4c41; stroke-linejoin: miter"/>
   </g>
   <g id="patch_102">
    <path d="M 723.628993 546.09531
L 723.628993 583.165877
L 754.252505 574.301176
L 741.358395 565.436476
L 758.281914 553.348247
z
" clip-path="url(#p91944bc171)" style="fill: #6d4c41; opacity: 0.2; stroke: #6d4c41; stroke-linejoin: miter"/>
   </g>
   <g id="patch_103">
    <path d="M 717.181938 546.09531
L 717.181938 583.165877
L 686.558427 574.301176
L 699.452537 565.436476
L 682.529017 553.348247
z
" clip-path="url(#p91944bc171)" style="fill: #6d4c41; opacity: 0.2; stroke: #6d4c41; stroke-linejoin: miter"/>
   </g>
   <g id="matplotlib.axis_1"/>
   <g id="matplotlib.axis_2"/>
   <g id="line2d_1">
    <path d="M 87.788188 67.401472
L 805.023064 67.401472
" clip-path="url(#p91944bc171)" style="fill: none; stroke: #eceff1; stroke-linecap: square"/>
   </g>
   <g id="line2d_2">
    <path d="M 101.48818 85.130874
L 101.48818 48.060307
L 132.111692 56.925008
L 119.217582 65.789709
L 136.141101 77.877937
L 101.48818 85.130874
" clip-path="url(#p91944bc171)" style="fill: none; stroke: #00897b; stroke-linecap: square"/>
   </g>
   <g id="line2d_3">
    <path d="M 182.076368 85.130874
L 182.076368 48.060307
L 212.69988 56.925008
L 199.80577 65.789709
L 216.729289 77.877937
L 182.076368 85.130874
" clip-path="url(#p91944bc171)" style="fill: none; stroke: #00897b; stroke-linecap: square"/>
   </g>
   <g id="line2d_4">
    <path d="M 262.664557 85.130874
L 262.664557 48.060307
L 293.288068 56.925008
L 280.393958 65.789709
L 297.317478 77.877937
L 262.664557 85.130874
" clip-path="url(#p91944bc171)" style="fill: none; stroke: #00897b; stroke-linecap: square"/>
   </g>
   <g id="line2d_5">
    <path d="M 343.252745 85.130874
L 343.252745 48.060307
L 373.876256 56.925008
L 360.982146 65.789709
L 377.905666 77.877937
L 343.252745 85.130874
" clip-path="url(#p91944bc171)" style="fill: none; stroke: #00897b; stroke-linecap: square"/>
   </g>
   <g id="line2d_6">
    <path d="M 423.840933 85.130874
L 423.840933 48.060307
L 454.464445 56.925008
L 441.570335 65.789709
L 458.493854 77.877937
L 423.840933 85.130874
" clip-path="url(#p91944bc171)" style="fill: none; stroke: #00897b; stroke-linecap: square"/>
   </g>
   <g id="line2d_7">
    <path d="M 504.429121 85.130874
L 504.429121 48.060307
L 535.052633 56.925008
L 522.158523 65.789709
L 539.082042 77.877937
L 504.429121 85.130874
" clip-path="url(#p91944bc171)" style="fill: none; stroke: #00897b; stroke-linecap: square"/>
   </g>
   <g id="line2d_8">
    <path d="M 585.01731 85.130874
L 585.01731 48.060307
L 615.640821 56.925008
L 602.746711 65.789709
L 619.670231 77.877937
L 585.01731 85.130874
" clip-path="url(#p91944bc171)" style="fill: none; stroke: #00897b; stroke-linecap: square"/>
   </g>
   <g id="line2d_9">
    <path d="M 665.605498 85.130874
L 665.605498 48.060307
L 696.229009 56.925008
L 683.334899 65.789709
L 700.258419 77.877937
L 665.605498 85.130874
" clip-path="url(#p91944bc171)" style="fill: none; stroke: #00897b; stroke-linecap: square"/>
   </g>
   <g id="line2d_10">
    <path d="M 746.193686 85.130874
L 746.193686 48.060307
L 776.817198 56.925008
L 763.923088 65.789709
L 780.846607 77.877937
L 746.193686 85.130874
" clip-path="url(#p91944bc171)" style="fill: none; stroke: #00897b; stroke-linecap: square"/>
   </g>
   <g id="line2d_11">
    <path d="M 87.788188 147.989661
L 805.023064 147.989661
" clip-path="url(#p91944bc171)" style="fill: none; stroke: #eceff1; stroke-linecap: square"/>
   </g>
   <g id="line2d_12">
    <path d="M 223.982226 150.407306
L 223.982226 113.33674
L 254.605738 122.20144
L 241.711628 131.066141
L 258.635147 143.154369
L 223.982226 150.407306
" clip-path="url(#p91944bc171)" style="fill: none; stroke: #d81b60; stroke-linecap: square"/>
   </g>
   <g id="line2d_13">
    <path d="M 273.946903 145.572015
L 273.946903 182.642581
L 304.570415 173.777881
L 291.676304 164.91318
L 308.599824 152.824952
L 273.946903 145.572015
" clip-path="url(#p91944bc171)" style="fill: none; stroke: #d81b60; stroke-linecap: square"/>
   </g>
   <g id="line2d_14">
    <path d="M 323.91158 150.407306
L 323.91158 113.33674
L 354.535091 122.20144
L 341.640981 131.066141
L 358.564501 143.154369
L 323.91158 150.407306
" clip-path="url(#p91944bc171)" style="fill: none; stroke: #d81b60; stroke-linecap: square"/>
   </g>
   <g id="line2d_15">
    <path d="M 373.876256 145.572015
L 373.876256 182.642581
L 404.499768 173.777881
L 391.605658 164.91318
L 408.529177 152.824952
L 373.876256 145.572015
" clip-path="url(#p91944bc171)" style="fill: none; stroke: #d81b60; stroke-linecap: square"/>
   </g>
   <g id="line2d_16">
    <path d="M 423.840933 150.407306
L 423.840933 113.33674
L 454.464445 122.20144
L 441.570335 131.066141
L 458.493854 143.154369
L 423.840933 150.407306
" clip-path="url(#p91944bc171)" style="fill: none; stroke: #d81b60; stroke-linecap: square"/>
   </g>
   <g id="line2d_17">
    <path d="M 473.80561 145.572015
L 473.80561 182.642581
L 504.429121 173.777881
L 491.535011 164.91318
L 508.458531 152.824952
L 473.80561 145.572015
" clip-path="url(#p91944bc171)" style="fill: none; stroke: #d81b60; stroke-linecap: square"/>
   </g>
   <g id="line2d_18">
    <path d="M 523.770287 150.407306
L 523.770287 113.33674
L 554.393798 122.20144
L 541.499688 131.066141
L 558.423208 143.154369
L 523.770287 150.407306
" clip-path="url(#p91944bc171)" style="fill: none; stroke: #d81b60; stroke-linecap: square"/>
   </g>
   <g id="line2d_19">
    <path d="M 573.734963 145.572015
L 573.734963 182.642581
L 604.358475 173.777881
L 591.464365 164.91318
L 608.387884 152.824952
L 573.734963 145.572015
" clip-path="url(#p91944bc171)" style="fill: none; stroke: #d81b60; stroke-linecap: square"/>
   </g>
   <g id="line2d_20">
    <path d="M 623.69964 150.407306
L 623.69964 113.33674
L 654.323152 122.20144
L 641.429041 131.066141
L 658.352561 143.154369
L 623.69964 150.407306
" clip-path="url(#p91944bc171)" style="fill: none; stroke: #d81b60; stroke-linecap: square"/>
   </g>
   <g id="line2d_21">
    <path d="M 87.788188 147.989661
L 805.023064 147.989661
" clip-path="url(#p91944bc171)" style="fill: none; stroke-dasharray: 0.9,1.485; stroke-dashoffset: 0; stroke: #ad1457; stroke-width: 0.9"/>
   </g>
   <g id="line2d_22">
    <path d="M 87.788188 228.577849
L 805.023064 228.577849
" clip-path="url(#p91944bc171)" style="fill: none; stroke: #eceff1; stroke-linecap: square"/>
   </g>
   <g id="line2d_23">
    <path d="M 236.876336 256.783715
L 236.876336 200.371983
" clip-path="url(#p91944bc171)" style="fill: none; stroke-dasharray: 3.33,1.44; stroke-dashoffset: 0; stroke: #455a64; stroke-width: 0.9"/>
   </g>
   <g id="line2d_24">
    <path d="M 196.582242 243.083723
L 196.582242 206.013156
L 227.205754 214.877857
L 214.311644 223.742557
L 231.235163 235.830786
L 196.582242 243.083723
" clip-path="url(#p91944bc171)" style="fill: none; stroke: #5e35b1; stroke-linecap: square"/>
   </g>
   <g id="line2d_25">
    <path d="M 277.170431 243.083723
L 277.170431 206.013156
L 246.546919 214.877857
L 259.441029 223.742557
L 242.51751 235.830786
L 277.170431 243.083723
" clip-path="url(#p91944bc171)" style="fill: none; stroke: #5e35b1; stroke-linecap: square"/>
   </g>
   <g id="line2d_26">
    <path d="M 317.464525 256.783715
L 317.464525 200.371983
" clip-path="url(#p91944bc171)" style="fill: none; stroke-dasharray: 3.33,1.44; stroke-dashoffset: 0; stroke: #455a64; stroke-width: 0.9"/>
   </g>
   <g id="line2d_27">
    <path d="M 277.170431 243.083723
L 277.170431 206.013156
L 307.793942 214.877857
L 294.899832 223.742557
L 311.823352 235.830786
L 277.170431 243.083723
" clip-path="url(#p91944bc171)" style="fill: none; stroke: #5e35b1; stroke-linecap: square"/>
   </g>
   <g id="line2d_28">
    <path d="M 357.758619 243.083723
L 357.758619 206.013156
L 327.135107 214.877857
L 340.029217 223.742557
L 323.105698 235.830786
L 357.758619 243.083723
" clip-path="url(#p91944bc171)" style="fill: none; stroke: #5e35b1; stroke-linecap: square"/>
   </g>
   <g id="line2d_29">
    <path d="M 398.052713 256.783715
L 398.052713 200.371983
" clip-path="url(#p91944bc171)" style="fill: none; stroke-dasharray: 3.33,1.44; stroke-dashoffset: 0; stroke: #455a64; stroke-width: 0.9"/>
   </g>
   <g id="line2d_30">
    <path d="M 357.758619 243.083723
L 357.758619 206.013156
L 388.38213 214.877857
L 375.48802 223.742557
L 392.41154 235.830786
L 357.758619 243.083723
" clip-path="url(#p91944bc171)" style="fill: none; stroke: #5e35b1; stroke-linecap: square"/>
   </g>
   <g id="line2d_31">
    <path d="M 438.346807 243.083723
L 438.346807 206.013156
L 407.723296 214.877857
L 420.617406 223.742557
L 403.693886 235.830786
L 438.346807 243.083723
" clip-path="url(#p91944bc171)" style="fill: none; stroke: #5e35b1; stroke-linecap: square"/>
   </g>
   <g id="line2d_32">
    <path d="M 478.640901 256.783715
L 478.640901 200.371983
" clip-path="url(#p91944bc171)" style="fill: none; stroke-dasharray: 3.33,1.44; stroke-dashoffset: 0; stroke: #455a64; stroke-width: 0.9"/>
   </g>
   <g id="line2d_33">
    <path d="M 438.346807 243.083723
L 438.346807 206.013156
L 468.970319 214.877857
L 456.076208 223.742557
L 472.999728 235.830786
L 438.346807 243.083723
" clip-path="url(#p91944bc171)" style="fill: none; stroke: #5e35b1; stroke-linecap: square"/>
   </g>
   <g id="line2d_34">
    <path d="M 518.934995 243.083723
L 518.934995 206.013156
L 488.311484 214.877857
L 501.205594 223.742557
L 484.282074 235.830786
L 518.934995 243.083723
" clip-path="url(#p91944bc171)" style="fill: none; stroke: #5e35b1; stroke-linecap: square"/>
   </g>
   <g id="line2d_35">
    <path d="M 559.229089 256.783715
L 559.229089 200.371983
" clip-path="url(#p91944bc171)" style="fill: none; stroke-dasharray: 3.33,1.44; stroke-dashoffset: 0; stroke: #455a64; stroke-width: 0.9"/>
   </g>
   <g id="line2d_36">
    <path d="M 518.934995 243.083723
L 518.934995 206.013156
L 549.558507 214.877857
L 536.664397 223.742557
L 553.587916 235.830786
L 518.934995 243.083723
" clip-path="url(#p91944bc171)" style="fill: none; stroke: #5e35b1; stroke-linecap: square"/>
   </g>
   <g id="line2d_37">
    <path d="M 599.523184 243.083723
L 599.523184 206.013156
L 568.899672 214.877857
L 581.793782 223.742557
L 564.870263 235.830786
L 599.523184 243.083723
" clip-path="url(#p91944bc171)" style="fill: none; stroke: #5e35b1; stroke-linecap: square"/>
   </g>
   <g id="line2d_38">
    <path d="M 639.817278 256.783715
L 639.817278 200.371983
" clip-path="url(#p91944bc171)" style="fill: none; stroke-dasharray: 3.33,1.44; stroke-dashoffset: 0; stroke: #455a64; stroke-width: 0.9"/>
   </g>
   <g id="line2d_39">
    <path d="M 599.523184 243.083723
L 599.523184 206.013156
L 630.146695 214.877857
L 617.252585 223.742557
L 634.176104 235.830786
L 599.523184 243.083723
" clip-path="url(#p91944bc171)" style="fill: none; stroke: #5e35b1; stroke-linecap: square"/>
   </g>
   <g id="line2d_40">
    <path d="M 680.111372 243.083723
L 680.111372 206.013156
L 649.48786 214.877857
L 662.38197 223.742557
L 645.458451 235.830786
L 680.111372 243.083723
" clip-path="url(#p91944bc171)" style="fill: none; stroke: #5e35b1; stroke-linecap: square"/>
   </g>
   <g id="line2d_41">
    <path d="M 720.405466 256.783715
L 720.405466 200.371983
" clip-path="url(#p91944bc171)" style="fill: none; stroke-dasharray: 3.33,1.44; stroke-dashoffset: 0; stroke: #455a64; stroke-width: 0.9"/>
   </g>
   <g id="line2d_42">
    <path d="M 680.111372 243.083723
L 680.111372 206.013156
L 710.734883 214.877857
L 697.840773 223.742557
L 714.764293 235.830786
L 680.111372 243.083723
" clip-path="url(#p91944bc171)" style="fill: none; stroke: #5e35b1; stroke-linecap: square"/>
   </g>
   <g id="line2d_43">
    <path d="M 760.69956 243.083723
L 760.69956 206.013156
L 730.076048 214.877857
L 742.970159 223.742557
L 726.046639 235.830786
L 760.69956 243.083723
" clip-path="url(#p91944bc171)" style="fill: none; stroke: #5e35b1; stroke-linecap: square"/>
   </g>
   <g id="line2d_44">
    <path d="M 87.788188 309.166037
L 805.023064 309.166037
" clip-path="url(#p91944bc171)" style="fill: none; stroke: #eceff1; stroke-linecap: square"/>
   </g>
   <g id="line2d_45">
    <path d="M 182.076368 313.195446
L 182.076368 276.12488
L 212.69988 284.989581
L 199.80577 293.854281
L 216.729289 305.942509
L 182.076368 313.195446
" clip-path="url(#p91944bc171)" style="fill: none; stroke: #f57c00; stroke-linecap: square"/>
   </g>
   <g id="line2d_46">
    <defs>
     <path id="mcc9d988c57" d="M 0 2
C 0.530406 2 1.03916 1.789267 1.414214 1.414214
C 1.789267 1.03916 2 0.530406 2 0
C 2 -0.530406 1.789267 -1.03916 1.414214 -1.414214
C 1.03916 -1.789267 0.530406 -2 0 -2
C -0.530406 -2 -1.03916 -1.789267 -1.414214 -1.414214
C -1.789267 -1.03916 -2 -0.530406 -2 0
C -2 0.530406 -1.789267 1.03916 -1.414214 1.414214
C -1.03916 1.789267 -0.530406 2 0 2
z
" style="stroke: #ef6c00"/>
    </defs>
    <g clip-path="url(#p91944bc171)">
     <use xlink:href="#mcc9d988c57" x="227.205754" y="309.166037" style="fill: #ef6c00; stroke: #ef6c00"/>
    </g>
   </g>
   <g id="line2d_47">
    <path d="M 271.529257 305.136628
L 271.529257 342.207194
L 240.905746 333.342493
L 253.799856 324.477793
L 236.876336 312.389565
L 271.529257 305.136628
" clip-path="url(#p91944bc171)" style="fill: none; stroke: #f57c00; stroke-linecap: square"/>
   </g>
   <g id="line2d_48">
    <path d="M 302.958651 313.195446
L 302.958651 276.12488
L 333.582162 284.989581
L 320.688052 293.854281
L 337.611572 305.942509
L 302.958651 313.195446
" clip-path="url(#p91944bc171)" style="fill: none; stroke: #f57c00; stroke-linecap: square"/>
   </g>
   <g id="line2d_49">
    <g clip-path="url(#p91944bc171)">
     <use xlink:href="#mcc9d988c57" x="348.088036" y="309.166037" style="fill: #ef6c00; stroke: #ef6c00"/>
    </g>
   </g>
   <g id="line2d_50">
    <path d="M 392.41154 305.136628
L 392.41154 342.207194
L 361.788028 333.342493
L 374.682138 324.477793
L 357.758619 312.389565
L 392.41154 305.136628
" clip-path="url(#p91944bc171)" style="fill: none; stroke: #f57c00; stroke-linecap: square"/>
   </g>
   <g id="line2d_51">
    <path d="M 423.840933 313.195446
L 423.840933 276.12488
L 454.464445 284.989581
L 441.570335 293.854281
L 458.493854 305.942509
L 423.840933 313.195446
" clip-path="url(#p91944bc171)" style="fill: none; stroke: #f57c00; stroke-linecap: square"/>
   </g>
   <g id="line2d_52">
    <g clip-path="url(#p91944bc171)">
     <use xlink:href="#mcc9d988c57" x="468.970319" y="309.166037" style="fill: #ef6c00; stroke: #ef6c00"/>
    </g>
   </g>
   <g id="line2d_53">
    <path d="M 513.293822 305.136628
L 513.293822 342.207194
L 482.670311 333.342493
L 495.564421 324.477793
L 478.640901 312.389565
L 513.293822 305.136628
" clip-path="url(#p91944bc171)" style="fill: none; stroke: #f57c00; stroke-linecap: square"/>
   </g>
   <g id="line2d_54">
    <path d="M 544.723216 313.195446
L 544.723216 276.12488
L 575.346727 284.989581
L 562.452617 293.854281
L 579.376136 305.942509
L 544.723216 313.195446
" clip-path="url(#p91944bc171)" style="fill: none; stroke: #f57c00; stroke-linecap: square"/>
   </g>
   <g id="line2d_55">
    <g clip-path="url(#p91944bc171)">
     <use xlink:href="#mcc9d988c57" x="589.852601" y="309.166037" style="fill: #ef6c00; stroke: #ef6c00"/>
    </g>
   </g>
   <g id="line2d_56">
    <path d="M 634.176104 305.136628
L 634.176104 342.207194
L 603.552593 333.342493
L 616.446703 324.477793
L 599.523184 312.389565
L 634.176104 305.136628
" clip-path="url(#p91944bc171)" style="fill: none; stroke: #f57c00; stroke-linecap: square"/>
   </g>
   <g id="line2d_57">
    <path d="M 665.605498 313.195446
L 665.605498 276.12488
L 696.229009 284.989581
L 683.334899 293.854281
L 700.258419 305.942509
L 665.605498 313.195446
" clip-path="url(#p91944bc171)" style="fill: none; stroke: #f57c00; stroke-linecap: square"/>
   </g>
   <g id="line2d_58">
    <g clip-path="url(#p91944bc171)">
     <use xlink:href="#mcc9d988c57" x="710.734883" y="309.166037" style="fill: #ef6c00; stroke: #ef6c00"/>
    </g>
   </g>
   <g id="line2d_59">
    <path d="M 87.788188 389.754225
L 805.023064 389.754225
" clip-path="url(#p91944bc171)" style="fill: none; stroke: #eceff1; stroke-linecap: square"/>
   </g>
   <g id="line2d_60">
    <path d="M 236.876336 417.960091
L 236.876336 361.548359
" clip-path="url(#p91944bc171)" style="fill: none; stroke-dasharray: 3.33,1.44; stroke-dashoffset: 0; stroke: #455a64; stroke-width: 0.9"/>
   </g>
   <g id="line2d_61">
    <defs>
     <path id="m3f70917ff1" d="M 0 2
C 0.530406 2 1.03916 1.789267 1.414214 1.414214
C 1.789267 1.03916 2 0.530406 2 0
C 2 -0.530406 1.789267 -1.03916 1.414214 -1.414214
C 1.03916 -1.789267 0.530406 -2 0 -2
C -0.530406 -2 -1.03916 -1.789267 -1.414214 -1.414214
C -1.789267 -1.03916 -2 -0.530406 -2 0
C -2 0.530406 -1.789267 1.03916 -1.414214 1.414214
C -1.03916 1.789267 -0.530406 2 0 2
z
" style="stroke: #2e7d32"/>
    </defs>
    <g clip-path="url(#p91944bc171)">
     <use xlink:href="#m3f70917ff1" x="196.582242" y="389.754225" style="fill: #2e7d32; stroke: #2e7d32"/>
    </g>
   </g>
   <g id="line2d_62">
    <path d="M 196.582242 392.977753
L 196.582242 355.907186
L 227.205754 364.771887
L 214.311644 373.636588
L 231.235163 385.724816
L 196.582242 392.977753
" clip-path="url(#p91944bc171)" style="fill: none; stroke: #43a047; stroke-linecap: square"/>
   </g>
   <g id="line2d_63">
    <path d="M 248.158683 386.530698
L 248.158683 423.601264
L 278.782194 414.736564
L 265.888084 405.871863
L 282.811604 393.783635
L 248.158683 386.530698
" clip-path="url(#p91944bc171)" style="fill: none; stroke: #43a047; stroke-linecap: square"/>
   </g>
   <g id="line2d_64">
    <path d="M 317.464525 417.960091
L 317.464525 361.548359
" clip-path="url(#p91944bc171)" style="fill: none; stroke-dasharray: 3.33,1.44; stroke-dashoffset: 0; stroke: #455a64; stroke-width: 0.9"/>
   </g>
   <g id="line2d_65">
    <g clip-path="url(#p91944bc171)">
     <use xlink:href="#m3f70917ff1" x="277.170431" y="389.754225" style="fill: #2e7d32; stroke: #2e7d32"/>
    </g>
   </g>
   <g id="line2d_66">
    <path d="M 277.170431 392.977753
L 277.170431 355.907186
L 307.793942 364.771887
L 294.899832 373.636588
L 311.823352 385.724816
L 277.170431 392.977753
" clip-path="url(#p91944bc171)" style="fill: none; stroke: #43a047; stroke-linecap: square"/>
   </g>
   <g id="line2d_67">
    <path d="M 328.746871 386.530698
L 328.746871 423.601264
L 359.370383 414.736564
L 346.476272 405.871863
L 363.399792 393.783635
L 328.746871 386.530698
" clip-path="url(#p91944bc171)" style="fill: none; stroke: #43a047; stroke-linecap: square"/>
   </g>
   <g id="line2d_68">
    <path d="M 398.052713 417.960091
L 398.052713 361.548359
" clip-path="url(#p91944bc171)" style="fill: none; stroke-dasharray: 3.33,1.44; stroke-dashoffset: 0; stroke: #455a64; stroke-width: 0.9"/>
   </g>
   <g id="line2d_69">
    <g clip-path="url(#p91944bc171)">
     <use xlink:href="#m3f70917ff1" x="357.758619" y="389.754225" style="fill: #2e7d32; stroke: #2e7d32"/>
    </g>
   </g>
   <g id="line2d_70">
    <path d="M 357.758619 392.977753
L 357.758619 355.907186
L 388.38213 364.771887
L 375.48802 373.636588
L 392.41154 385.724816
L 357.758619 392.977753
" clip-path="url(#p91944bc171)" style="fill: none; stroke: #43a047; stroke-linecap: square"/>
   </g>
   <g id="line2d_71">
    <path d="M 409.335059 386.530698
L 409.335059 423.601264
L 439.958571 414.736564
L 427.064461 405.871863
L 443.98798 393.783635
L 409.335059 386.530698
" clip-path="url(#p91944bc171)" style="fill: none; stroke: #43a047; stroke-linecap: square"/>
   </g>
   <g id="line2d_72">
    <path d="M 478.640901 417.960091
L 478.640901 361.548359
" clip-path="url(#p91944bc171)" style="fill: none; stroke-dasharray: 3.33,1.44; stroke-dashoffset: 0; stroke: #455a64; stroke-width: 0.9"/>
   </g>
   <g id="line2d_73">
    <g clip-path="url(#p91944bc171)">
     <use xlink:href="#m3f70917ff1" x="438.346807" y="389.754225" style="fill: #2e7d32; stroke: #2e7d32"/>
    </g>
   </g>
   <g id="line2d_74">
    <path d="M 438.346807 392.977753
L 438.346807 355.907186
L 468.970319 364.771887
L 456.076208 373.636588
L 472.999728 385.724816
L 438.346807 392.977753
" clip-path="url(#p91944bc171)" style="fill: none; stroke: #43a047; stroke-linecap: square"/>
   </g>
   <g id="line2d_75">
    <path d="M 489.923248 386.530698
L 489.923248 423.601264
L 520.546759 414.736564
L 507.652649 405.871863
L 524.576168 393.783635
L 489.923248 386.530698
" clip-path="url(#p91944bc171)" style="fill: none; stroke: #43a047; stroke-linecap: square"/>
   </g>
   <g id="line2d_76">
    <path d="M 559.229089 417.960091
L 559.229089 361.548359
" clip-path="url(#p91944bc171)" style="fill: none; stroke-dasharray: 3.33,1.44; stroke-dashoffset: 0; stroke: #455a64; stroke-width: 0.9"/>
   </g>
   <g id="line2d_77">
    <g clip-path="url(#p91944bc171)">
     <use xlink:href="#m3f70917ff1" x="518.934995" y="389.754225" style="fill: #2e7d32; stroke: #2e7d32"/>
    </g>
   </g>
   <g id="line2d_78">
    <path d="M 518.934995 392.977753
L 518.934995 355.907186
L 549.558507 364.771887
L 536.664397 373.636588
L 553.587916 385.724816
L 518.934995 392.977753
" clip-path="url(#p91944bc171)" style="fill: none; stroke: #43a047; stroke-linecap: square"/>
   </g>
   <g id="line2d_79">
    <path d="M 570.511436 386.530698
L 570.511436 423.601264
L 601.134947 414.736564
L 588.240837 405.871863
L 605.164357 393.783635
L 570.511436 386.530698
" clip-path="url(#p91944bc171)" style="fill: none; stroke: #43a047; stroke-linecap: square"/>
   </g>
   <g id="line2d_80">
    <path d="M 639.817278 417.960091
L 639.817278 361.548359
" clip-path="url(#p91944bc171)" style="fill: none; stroke-dasharray: 3.33,1.44; stroke-dashoffset: 0; stroke: #455a64; stroke-width: 0.9"/>
   </g>
   <g id="line2d_81">
    <g clip-path="url(#p91944bc171)">
     <use xlink:href="#m3f70917ff1" x="599.523184" y="389.754225" style="fill: #2e7d32; stroke: #2e7d32"/>
    </g>
   </g>
   <g id="line2d_82">
    <path d="M 599.523184 392.977753
L 599.523184 355.907186
L 630.146695 364.771887
L 617.252585 373.636588
L 634.176104 385.724816
L 599.523184 392.977753
" clip-path="url(#p91944bc171)" style="fill: none; stroke: #43a047; stroke-linecap: square"/>
   </g>
   <g id="line2d_83">
    <path d="M 651.099624 386.530698
L 651.099624 423.601264
L 681.723136 414.736564
L 668.829025 405.871863
L 685.752545 393.783635
L 651.099624 386.530698
" clip-path="url(#p91944bc171)" style="fill: none; stroke: #43a047; stroke-linecap: square"/>
   </g>
   <g id="line2d_84">
    <path d="M 720.405466 417.960091
L 720.405466 361.548359
" clip-path="url(#p91944bc171)" style="fill: none; stroke-dasharray: 3.33,1.44; stroke-dashoffset: 0; stroke: #455a64; stroke-width: 0.9"/>
   </g>
   <g id="line2d_85">
    <g clip-path="url(#p91944bc171)">
     <use xlink:href="#m3f70917ff1" x="680.111372" y="389.754225" style="fill: #2e7d32; stroke: #2e7d32"/>
    </g>
   </g>
   <g id="line2d_86">
    <path d="M 680.111372 392.977753
L 680.111372 355.907186
L 710.734883 364.771887
L 697.840773 373.636588
L 714.764293 385.724816
L 680.111372 392.977753
" clip-path="url(#p91944bc171)" style="fill: none; stroke: #43a047; stroke-linecap: square"/>
   </g>
   <g id="line2d_87">
    <path d="M 731.687812 386.530698
L 731.687812 423.601264
L 762.311324 414.736564
L 749.417214 405.871863
L 766.340733 393.783635
L 731.687812 386.530698
" clip-path="url(#p91944bc171)" style="fill: none; stroke: #43a047; stroke-linecap: square"/>
   </g>
   <g id="line2d_88">
    <path d="M 87.788188 470.342413
L 805.023064 470.342413
" clip-path="url(#p91944bc171)" style="fill: none; stroke: #eceff1; stroke-linecap: square"/>
   </g>
   <g id="line2d_89">
    <path d="M 87.788188 470.342413
L 805.023064 470.342413
" clip-path="url(#p91944bc171)" style="fill: none; stroke-dasharray: 0.9,1.485; stroke-dashoffset: 0; stroke: #455a64; stroke-width: 0.9"/>
   </g>
   <g id="line2d_90">
    <path d="M 101.48818 472.760059
L 101.48818 435.689493
L 132.111692 444.554193
L 119.217582 453.418894
L 136.141101 465.507122
L 101.48818 472.760059
" clip-path="url(#p91944bc171)" style="fill: none; stroke: #039be5; stroke-linecap: square"/>
   </g>
   <g id="line2d_91">
    <path d="M 101.48818 467.924768
L 101.48818 504.995334
L 132.111692 496.130634
L 119.217582 487.265933
L 136.141101 475.177705
L 101.48818 467.924768
" clip-path="url(#p91944bc171)" style="fill: none; stroke: #039be5; stroke-linecap: square"/>
   </g>
   <g id="line2d_92">
    <path d="M 182.076368 472.760059
L 182.076368 435.689493
L 212.69988 444.554193
L 199.80577 453.418894
L 216.729289 465.507122
L 182.076368 472.760059
" clip-path="url(#p91944bc171)" style="fill: none; stroke: #039be5; stroke-linecap: square"/>
   </g>
   <g id="line2d_93">
    <path d="M 182.076368 467.924768
L 182.076368 504.995334
L 212.69988 496.130634
L 199.80577 487.265933
L 216.729289 475.177705
L 182.076368 467.924768
" clip-path="url(#p91944bc171)" style="fill: none; stroke: #039be5; stroke-linecap: square"/>
   </g>
   <g id="line2d_94">
    <path d="M 262.664557 472.760059
L 262.664557 435.689493
L 293.288068 444.554193
L 280.393958 453.418894
L 297.317478 465.507122
L 262.664557 472.760059
" clip-path="url(#p91944bc171)" style="fill: none; stroke: #039be5; stroke-linecap: square"/>
   </g>
   <g id="line2d_95">
    <path d="M 262.664557 467.924768
L 262.664557 504.995334
L 293.288068 496.130634
L 280.393958 487.265933
L 297.317478 475.177705
L 262.664557 467.924768
" clip-path="url(#p91944bc171)" style="fill: none; stroke: #039be5; stroke-linecap: square"/>
   </g>
   <g id="line2d_96">
    <path d="M 343.252745 472.760059
L 343.252745 435.689493
L 373.876256 444.554193
L 360.982146 453.418894
L 377.905666 465.507122
L 343.252745 472.760059
" clip-path="url(#p91944bc171)" style="fill: none; stroke: #039be5; stroke-linecap: square"/>
   </g>
   <g id="line2d_97">
    <path d="M 343.252745 467.924768
L 343.252745 504.995334
L 373.876256 496.130634
L 360.982146 487.265933
L 377.905666 475.177705
L 343.252745 467.924768
" clip-path="url(#p91944bc171)" style="fill: none; stroke: #039be5; stroke-linecap: square"/>
   </g>
   <g id="line2d_98">
    <path d="M 423.840933 472.760059
L 423.840933 435.689493
L 454.464445 444.554193
L 441.570335 453.418894
L 458.493854 465.507122
L 423.840933 472.760059
" clip-path="url(#p91944bc171)" style="fill: none; stroke: #039be5; stroke-linecap: square"/>
   </g>
   <g id="line2d_99">
    <path d="M 423.840933 467.924768
L 423.840933 504.995334
L 454.464445 496.130634
L 441.570335 487.265933
L 458.493854 475.177705
L 423.840933 467.924768
" clip-path="url(#p91944bc171)" style="fill: none; stroke: #039be5; stroke-linecap: square"/>
   </g>
   <g id="line2d_100">
    <path d="M 504.429121 472.760059
L 504.429121 435.689493
L 535.052633 444.554193
L 522.158523 453.418894
L 539.082042 465.507122
L 504.429121 472.760059
" clip-path="url(#p91944bc171)" style="fill: none; stroke: #039be5; stroke-linecap: square"/>
   </g>
   <g id="line2d_101">
    <path d="M 504.429121 467.924768
L 504.429121 504.995334
L 535.052633 496.130634
L 522.158523 487.265933
L 539.082042 475.177705
L 504.429121 467.924768
" clip-path="url(#p91944bc171)" style="fill: none; stroke: #039be5; stroke-linecap: square"/>
   </g>
   <g id="line2d_102">
    <path d="M 585.01731 472.760059
L 585.01731 435.689493
L 615.640821 444.554193
L 602.746711 453.418894
L 619.670231 465.507122
L 585.01731 472.760059
" clip-path="url(#p91944bc171)" style="fill: none; stroke: #039be5; stroke-linecap: square"/>
   </g>
   <g id="line2d_103">
    <path d="M 585.01731 467.924768
L 585.01731 504.995334
L 615.640821 496.130634
L 602.746711 487.265933
L 619.670231 475.177705
L 585.01731 467.924768
" clip-path="url(#p91944bc171)" style="fill: none; stroke: #039be5; stroke-linecap: square"/>
   </g>
   <g id="line2d_104">
    <path d="M 665.605498 472.760059
L 665.605498 435.689493
L 696.229009 444.554193
L 683.334899 453.418894
L 700.258419 465.507122
L 665.605498 472.760059
" clip-path="url(#p91944bc171)" style="fill: none; stroke: #039be5; stroke-linecap: square"/>
   </g>
   <g id="line2d_105">
    <path d="M 665.605498 467.924768
L 665.605498 504.995334
L 696.229009 496.130634
L 683.334899 487.265933
L 700.258419 475.177705
L 665.605498 467.924768
" clip-path="url(#p91944bc171)" style="fill: none; stroke: #039be5; stroke-linecap: square"/>
   </g>
   <g id="line2d_106">
    <path d="M 746.193686 472.760059
L 746.193686 435.689493
L 776.817198 444.554193
L 763.923088 453.418894
L 780.846607 465.507122
L 746.193686 472.760059
" clip-path="url(#p91944bc171)" style="fill: none; stroke: #039be5; stroke-linecap: square"/>
   </g>
   <g id="line2d_107">
    <path d="M 746.193686 467.924768
L 746.193686 504.995334
L 776.817198 496.130634
L 763.923088 487.265933
L 780.846607 475.177705
L 746.193686 467.924768
" clip-path="url(#p91944bc171)" style="fill: none; stroke: #039be5; stroke-linecap: square"/>
   </g>
   <g id="line2d_108">
    <path d="M 87.788188 550.930602
L 805.023064 550.930602
" clip-path="url(#p91944bc171)" style="fill: none; stroke: #eceff1; stroke-linecap: square"/>
   </g>
   <g id="line2d_109">
    <path d="M 87.788188 550.930602
L 805.023064 550.930602
" clip-path="url(#p91944bc171)" style="fill: none; stroke-dasharray: 0.9,1.485; stroke-dashoffset: 0; stroke: #455a64; stroke-width: 0.9"/>
   </g>
   <g id="line2d_110">
    <path d="M 236.876336 581.554113
L 236.876336 520.30709
" clip-path="url(#p91944bc171)" style="fill: none; stroke-dasharray: 3.33,1.44; stroke-dashoffset: 0; stroke: #455a64; stroke-width: 0.9"/>
   </g>
   <g id="line2d_111">
    <path d="M 240.099864 555.765893
L 240.099864 518.695326
L 270.723376 527.560027
L 257.829265 536.424728
L 274.752785 548.512956
L 240.099864 555.765893
" clip-path="url(#p91944bc171)" style="fill: none; stroke: #6d4c41; stroke-linecap: square"/>
   </g>
   <g id="line2d_112">
    <path d="M 233.652809 555.765893
L 233.652809 518.695326
L 203.029297 527.560027
L 215.923408 536.424728
L 198.999888 548.512956
L 233.652809 555.765893
" clip-path="url(#p91944bc171)" style="fill: none; stroke: #6d4c41; stroke-linecap: square"/>
   </g>
   <g id="line2d_113">
    <path d="M 240.099864 546.09531
L 240.099864 583.165877
L 270.723376 574.301176
L 257.829265 565.436476
L 274.752785 553.348247
L 240.099864 546.09531
" clip-path="url(#p91944bc171)" style="fill: none; stroke: #6d4c41; stroke-linecap: square"/>
   </g>
   <g id="line2d_114">
    <path d="M 233.652809 546.09531
L 233.652809 583.165877
L 203.029297 574.301176
L 215.923408 565.436476
L 198.999888 553.348247
L 233.652809 546.09531
" clip-path="url(#p91944bc171)" style="fill: none; stroke: #6d4c41; stroke-linecap: square"/>
   </g>
   <g id="line2d_115">
    <path d="M 317.464525 581.554113
L 317.464525 520.30709
" clip-path="url(#p91944bc171)" style="fill: none; stroke-dasharray: 3.33,1.44; stroke-dashoffset: 0; stroke: #455a64; stroke-width: 0.9"/>
   </g>
   <g id="line2d_116">
    <path d="M 320.688052 555.765893
L 320.688052 518.695326
L 351.311564 527.560027
L 338.417454 536.424728
L 355.340973 548.512956
L 320.688052 555.765893
" clip-path="url(#p91944bc171)" style="fill: none; stroke: #6d4c41; stroke-linecap: square"/>
   </g>
   <g id="line2d_117">
    <path d="M 314.240997 555.765893
L 314.240997 518.695326
L 283.617486 527.560027
L 296.511596 536.424728
L 279.588076 548.512956
L 314.240997 555.765893
" clip-path="url(#p91944bc171)" style="fill: none; stroke: #6d4c41; stroke-linecap: square"/>
   </g>
   <g id="line2d_118">
    <path d="M 320.688052 546.09531
L 320.688052 583.165877
L 351.311564 574.301176
L 338.417454 565.436476
L 355.340973 553.348247
L 320.688052 546.09531
" clip-path="url(#p91944bc171)" style="fill: none; stroke: #6d4c41; stroke-linecap: square"/>
   </g>
   <g id="line2d_119">
    <path d="M 314.240997 546.09531
L 314.240997 583.165877
L 283.617486 574.301176
L 296.511596 565.436476
L 279.588076 553.348247
L 314.240997 546.09531
" clip-path="url(#p91944bc171)" style="fill: none; stroke: #6d4c41; stroke-linecap: square"/>
   </g>
   <g id="line2d_120">
    <path d="M 398.052713 581.554113
L 398.052713 520.30709
" clip-path="url(#p91944bc171)" style="fill: none; stroke-dasharray: 3.33,1.44; stroke-dashoffset: 0; stroke: #455a64; stroke-width: 0.9"/>
   </g>
   <g id="line2d_121">
    <path d="M 401.27624 555.765893
L 401.27624 518.695326
L 431.899752 527.560027
L 419.005642 536.424728
L 435.929161 548.512956
L 401.27624 555.765893
" clip-path="url(#p91944bc171)" style="fill: none; stroke: #6d4c41; stroke-linecap: square"/>
   </g>
   <g id="line2d_122">
    <path d="M 394.829185 555.765893
L 394.829185 518.695326
L 364.205674 527.560027
L 377.099784 536.424728
L 360.176264 548.512956
L 394.829185 555.765893
" clip-path="url(#p91944bc171)" style="fill: none; stroke: #6d4c41; stroke-linecap: square"/>
   </g>
   <g id="line2d_123">
    <path d="M 401.27624 546.09531
L 401.27624 583.165877
L 431.899752 574.301176
L 419.005642 565.436476
L 435.929161 553.348247
L 401.27624 546.09531
" clip-path="url(#p91944bc171)" style="fill: none; stroke: #6d4c41; stroke-linecap: square"/>
   </g>
   <g id="line2d_124">
    <path d="M 394.829185 546.09531
L 394.829185 583.165877
L 364.205674 574.301176
L 377.099784 565.436476
L 360.176264 553.348247
L 394.829185 546.09531
" clip-path="url(#p91944bc171)" style="fill: none; stroke: #6d4c41; stroke-linecap: square"/>
   </g>
   <g id="line2d_125">
    <path d="M 478.640901 581.554113
L 478.640901 520.30709
" clip-path="url(#p91944bc171)" style="fill: none; stroke-dasharray: 3.33,1.44; stroke-dashoffset: 0; stroke: #455a64; stroke-width: 0.9"/>
   </g>
   <g id="line2d_126">
    <path d="M 481.864429 555.765893
L 481.864429 518.695326
L 512.48794 527.560027
L 499.59383 536.424728
L 516.51735 548.512956
L 481.864429 555.765893
" clip-path="url(#p91944bc171)" style="fill: none; stroke: #6d4c41; stroke-linecap: square"/>
   </g>
   <g id="line2d_127">
    <path d="M 475.417374 555.765893
L 475.417374 518.695326
L 444.793862 527.560027
L 457.687972 536.424728
L 440.764453 548.512956
L 475.417374 555.765893
" clip-path="url(#p91944bc171)" style="fill: none; stroke: #6d4c41; stroke-linecap: square"/>
   </g>
   <g id="line2d_128">
    <path d="M 481.864429 546.09531
L 481.864429 583.165877
L 512.48794 574.301176
L 499.59383 565.436476
L 516.51735 553.348247
L 481.864429 546.09531
" clip-path="url(#p91944bc171)" style="fill: none; stroke: #6d4c41; stroke-linecap: square"/>
   </g>
   <g id="line2d_129">
    <path d="M 475.417374 546.09531
L 475.417374 583.165877
L 444.793862 574.301176
L 457.687972 565.436476
L 440.764453 553.348247
L 475.417374 546.09531
" clip-path="url(#p91944bc171)" style="fill: none; stroke: #6d4c41; stroke-linecap: square"/>
   </g>
   <g id="line2d_130">
    <path d="M 559.229089 581.554113
L 559.229089 520.30709
" clip-path="url(#p91944bc171)" style="fill: none; stroke-dasharray: 3.33,1.44; stroke-dashoffset: 0; stroke: #455a64; stroke-width: 0.9"/>
   </g>
   <g id="line2d_131">
    <path d="M 562.452617 555.765893
L 562.452617 518.695326
L 593.076128 527.560027
L 580.182018 536.424728
L 597.105538 548.512956
L 562.452617 555.765893
" clip-path="url(#p91944bc171)" style="fill: none; stroke: #6d4c41; stroke-linecap: square"/>
   </g>
   <g id="line2d_132">
    <path d="M 556.005562 555.765893
L 556.005562 518.695326
L 525.38205 527.560027
L 538.27616 536.424728
L 521.352641 548.512956
L 556.005562 555.765893
" clip-path="url(#p91944bc171)" style="fill: none; stroke: #6d4c41; stroke-linecap: square"/>
   </g>
   <g id="line2d_133">
    <path d="M 562.452617 546.09531
L 562.452617 583.165877
L 593.076128 574.301176
L 580.182018 565.436476
L 597.105538 553.348247
L 562.452617 546.09531
" clip-path="url(#p91944bc171)" style="fill: none; stroke: #6d4c41; stroke-linecap: square"/>
   </g>
   <g id="line2d_134">
    <path d="M 556.005562 546.09531
L 556.005562 583.165877
L 525.38205 574.301176
L 538.27616 565.436476
L 521.352641 553.348247
L 556.005562 546.09531
" clip-path="url(#p91944bc171)" style="fill: none; stroke: #6d4c41; stroke-linecap: square"/>
   </g>
   <g id="line2d_135">
    <path d="M 639.817278 581.554113
L 639.817278 520.30709
" clip-path="url(#p91944bc171)" style="fill: none; stroke-dasharray: 3.33,1.44; stroke-dashoffset: 0; stroke: #455a64; stroke-width: 0.9"/>
   </g>
   <g id="line2d_136">
    <path d="M 643.040805 555.765893
L 643.040805 518.695326
L 673.664317 527.560027
L 660.770207 536.424728
L 677.693726 548.512956
L 643.040805 555.765893
" clip-path="url(#p91944bc171)" style="fill: none; stroke: #6d4c41; stroke-linecap: square"/>
   </g>
   <g id="line2d_137">
    <path d="M 636.59375 555.765893
L 636.59375 518.695326
L 605.970239 527.560027
L 618.864349 536.424728
L 601.940829 548.512956
L 636.59375 555.765893
" clip-path="url(#p91944bc171)" style="fill: none; stroke: #6d4c41; stroke-linecap: square"/>
   </g>
   <g id="line2d_138">
    <path d="M 643.040805 546.09531
L 643.040805 583.165877
L 673.664317 574.301176
L 660.770207 565.436476
L 677.693726 553.348247
L 643.040805 546.09531
" clip-path="url(#p91944bc171)" style="fill: none; stroke: #6d4c41; stroke-linecap: square"/>
   </g>
   <g id="line2d_139">
    <path d="M 636.59375 546.09531
L 636.59375 583.165877
L 605.970239 574.301176
L 618.864349 565.436476
L 601.940829 553.348247
L 636.59375 546.09531
" clip-path="url(#p91944bc171)" style="fill: none; stroke: #6d4c41; stroke-linecap: square"/>
   </g>
   <g id="line2d_140">
    <path d="M 720.405466 581.554113
L 720.405466 520.30709
" clip-path="url(#p91944bc171)" style="fill: none; stroke-dasharray: 3.33,1.44; stroke-dashoffset: 0; stroke: #455a64; stroke-width: 0.9"/>
   </g>
   <g id="line2d_141">
    <path d="M 723.628993 555.765893
L 723.628993 518.695326
L 754.252505 527.560027
L 741.358395 536.424728
L 758.281914 548.512956
L 723.628993 555.765893
" clip-path="url(#p91944bc171)" style="fill: none; stroke: #6d4c41; stroke-linecap: square"/>
   </g>
   <g id="line2d_142">
    <path d="M 717.181938 555.765893
L 717.181938 518.695326
L 686.558427 527.560027
L 699.452537 536.424728
L 682.529017 548.512956
L 717.181938 555.765893
" clip-path="url(#p91944bc171)" style="fill: none; stroke: #6d4c41; stroke-linecap: square"/>
   </g>
   <g id="line2d_143">
    <path d="M 723.628993 546.09531
L 723.628993 583.165877
L 754.252505 574.301176
L 741.358395 565.436476
L 758.281914 553.348247
L 723.628993 546.09531
" clip-path="url(#p91944bc171)" style="fill: none; stroke: #6d4c41; stroke-linecap: square"/>
   </g>
   <g id="line2d_144">
    <path d="M 717.181938 546.09531
L 717.181938 583.165877
L 686.558427 574.301176
L 699.452537 565.436476
L 682.529017 553.348247
L 717.181938 546.09531
" clip-path="url(#p91944bc171)" style="fill: none; stroke: #6d4c41; stroke-linecap: square"/>
   </g>
   <g id="patch_104">
    <path d="M 7.2 595.254105
L 7.2 23.077969
" style="fill: none; stroke: #000000; stroke-width: 0.8; stroke-linejoin: miter; stroke-linecap: square"/>
   </g>
   <g id="patch_105">
    <path d="M 829.19952 595.254105
L 829.19952 23.077969
" style="fill: none; stroke: #000000; stroke-width: 0.8; stroke-linejoin: miter; stroke-linecap: square"/>
   </g>
   <g id="patch_106">
    <path d="M 7.2 595.254105
L 829.19952 595.254105
" style="fill: none; stroke: #000000; stroke-width: 0.8; stroke-linejoin: miter; stroke-linecap: square"/>
   </g>
   <g id="patch_107">
    <path d="M 7.2 23.077969
L 829.19952 23.077969
" style="fill: none; stroke: #000000; stroke-width: 0.8; stroke-linejoin: miter; stroke-linecap: square"/>
   </g>
   <g id="text_1">
    <!-- S1  translation only -->
    <g style="fill: #263238" transform="translate(15.258819 69.88491) scale(0.09 -0.09)">
     <defs>
      <path id="DejaVuSans-53" d="M 3425 4513
L 3425 3897
Q 3066 4069 2747 4153
Q 2428 4238 2131 4238
Q 1616 4238 1336 4038
Q 1056 3838 1056 3469
Q 1056 3159 1242 3001
Q 1428 2844 1947 2747
L 2328 2669
Q 3034 2534 3370 2195
Q 3706 1856 3706 1288
Q 3706 609 3251 259
Q 2797 -91 1919 -91
Q 1588 -91 1214 -16
Q 841 59 441 206
L 441 856
Q 825 641 1194 531
Q 1563 422 1919 422
Q 2459 422 2753 634
Q 3047 847 3047 1241
Q 3047 1584 2836 1778
Q 2625 1972 2144 2069
L 1759 2144
Q 1053 2284 737 2584
Q 422 2884 422 3419
Q 422 4038 858 4394
Q 1294 4750 2059 4750
Q 2388 4750 2728 4690
Q 3069 4631 3425 4513
z
" transform="scale(0.015625)"/>
      <path id="DejaVuSans-31" d="M 794 531
L 1825 531
L 1825 4091
L 703 3866
L 703 4441
L 1819 4666
L 2450 4666
L 2450 531
L 3481 531
L 3481 0
L 794 0
L 794 531
z
" transform="scale(0.015625)"/>
      <path id="DejaVuSans-20" transform="scale(0.015625)"/>
      <path id="DejaVuSans-74" d="M 1172 4494
L 1172 3500
L 2356 3500
L 2356 3053
L 1172 3053
L 1172 1153
Q 1172 725 1289 603
Q 1406 481 1766 481
L 2356 481
L 2356 0
L 1766 0
Q 1100 0 847 248
Q 594 497 594 1153
L 594 3053
L 172 3053
L 172 3500
L 594 3500
L 594 4494
L 1172 4494
z
" transform="scale(0.015625)"/>
      <path id="DejaVuSans-72" d="M 2631 2963
Q 2534 3019 2420 3045
Q 2306 3072 2169 3072
Q 1681 3072 1420 2755
Q 1159 2438 1159 1844
L 1159 0
L 581 0
L 581 3500
L 1159 3500
L 1159 2956
Q 1341 3275 1631 3429
Q 1922 3584 2338 3584
Q 2397 3584 2469 3576
Q 2541 3569 2628 3553
L 2631 2963
z
" transform="scale(0.015625)"/>
      <path id="DejaVuSans-61" d="M 2194 1759
Q 1497 1759 1228 1600
Q 959 1441 959 1056
Q 959 750 1161 570
Q 1363 391 1709 391
Q 2188 391 2477 730
Q 2766 1069 2766 1631
L 2766 1759
L 2194 1759
z
M 3341 1997
L 3341 0
L 2766 0
L 2766 531
Q 2569 213 2275 61
Q 1981 -91 1556 -91
Q 1019 -91 701 211
Q 384 513 384 1019
Q 384 1609 779 1909
Q 1175 2209 1959 2209
L 2766 2209
L 2766 2266
Q 2766 2663 2505 2880
Q 2244 3097 1772 3097
Q 1472 3097 1187 3025
Q 903 2953 641 2809
L 641 3341
Q 956 3463 1253 3523
Q 1550 3584 1831 3584
Q 2591 3584 2966 3190
Q 3341 2797 3341 1997
z
" transform="scale(0.015625)"/>
      <path id="DejaVuSans-6e" d="M 3513 2113
L 3513 0
L 2938 0
L 2938 2094
Q 2938 2591 2744 2837
Q 2550 3084 2163 3084
Q 1697 3084 1428 2787
Q 1159 2491 1159 1978
L 1159 0
L 581 0
L 581 3500
L 1159 3500
L 1159 2956
Q 1366 3272 1645 3428
Q 1925 3584 2291 3584
Q 2894 3584 3203 3211
Q 3513 2838 3513 2113
z
" transform="scale(0.015625)"/>
      <path id="DejaVuSans-73" d="M 2834 3397
L 2834 2853
Q 2591 2978 2328 3040
Q 2066 3103 1784 3103
Q 1356 3103 1142 2972
Q 928 2841 928 2578
Q 928 2378 1081 2264
Q 1234 2150 1697 2047
L 1894 2003
Q 2506 1872 2764 1633
Q 3022 1394 3022 966
Q 3022 478 2636 193
Q 2250 -91 1575 -91
Q 1294 -91 989 -36
Q 684 19 347 128
L 347 722
Q 666 556 975 473
Q 1284 391 1588 391
Q 1994 391 2212 530
Q 2431 669 2431 922
Q 2431 1156 2273 1281
Q 2116 1406 1581 1522
L 1381 1569
Q 847 1681 609 1914
Q 372 2147 372 2553
Q 372 3047 722 3315
Q 1072 3584 1716 3584
Q 2034 3584 2315 3537
Q 2597 3491 2834 3397
z
" transform="scale(0.015625)"/>
      <path id="DejaVuSans-6c" d="M 603 4863
L 1178 4863
L 1178 0
L 603 0
L 603 4863
z
" transform="scale(0.015625)"/>
      <path id="DejaVuSans-69" d="M 603 3500
L 1178 3500
L 1178 0
L 603 0
L 603 3500
z
M 603 4863
L 1178 4863
L 1178 4134
L 603 4134
L 603 4863
z
" transform="scale(0.015625)"/>
      <path id="DejaVuSans-6f" d="M 1959 3097
Q 1497 3097 1228 2736
Q 959 2375 959 1747
Q 959 1119 1226 758
Q 1494 397 1959 397
Q 2419 397 2687 759
Q 2956 1122 2956 1747
Q 2956 2369 2687 2733
Q 2419 3097 1959 3097
z
M 1959 3584
Q 2709 3584 3137 3096
Q 3566 2609 3566 1747
Q 3566 888 3137 398
Q 2709 -91 1959 -91
Q 1206 -91 779 398
Q 353 888 353 1747
Q 353 2609 779 3096
Q 1206 3584 1959 3584
z
" transform="scale(0.015625)"/>
      <path id="DejaVuSans-79" d="M 2059 -325
Q 1816 -950 1584 -1140
Q 1353 -1331 966 -1331
L 506 -1331
L 506 -850
L 844 -850
Q 1081 -850 1212 -737
Q 1344 -625 1503 -206
L 1606 56
L 191 3500
L 800 3500
L 1894 763
L 2988 3500
L 3597 3500
L 2059 -325
z
" transform="scale(0.015625)"/>
     </defs>
     <use xlink:href="#DejaVuSans-53"/>
     <use xlink:href="#DejaVuSans-31" transform="translate(63.476562 0)"/>
     <use xlink:href="#DejaVuSans-20" transform="translate(127.099609 0)"/>
     <use xlink:href="#DejaVuSans-20" transform="translate(158.886719 0)"/>
     <use xlink:href="#DejaVuSans-74" transform="translate(190.673828 0)"/>
     <use xlink:href="#DejaVuSans-72" transform="translate(229.882812 0)"/>
     <use xlink:href="#DejaVuSans-61" transform="translate(270.996094 0)"/>
     <use xlink:href="#DejaVuSans-6e" transform="translate(332.275391 0)"/>
     <use xlink:href="#DejaVuSans-73" transform="translate(395.654297 0)"/>
     <use xlink:href="#DejaVuSans-6c" transform="translate(447.753906 0)"/>
     <use xlink:href="#DejaVuSans-61" transform="translate(475.537109 0)"/>
     <use xlink:href="#DejaVuSans-74" transform="translate(536.816406 0)"/>
     <use xlink:href="#DejaVuSans-69" transform="translate(576.025391 0)"/>
     <use xlink:href="#DejaVuSans-6f" transform="translate(603.808594 0)"/>
     <use xlink:href="#DejaVuSans-6e" transform="translate(664.990234 0)"/>
     <use xlink:href="#DejaVuSans-20" transform="translate(728.369141 0)"/>
     <use xlink:href="#DejaVuSans-6f" transform="translate(760.15625 0)"/>
     <use xlink:href="#DejaVuSans-6e" transform="translate(821.337891 0)"/>
     <use xlink:href="#DejaVuSans-6c" transform="translate(884.716797 0)"/>
     <use xlink:href="#DejaVuSans-79" transform="translate(912.5 0)"/>
    </g>
   </g>
   <g id="text_2">
    <!-- S2  glide generated -->
    <g style="fill: #263238" transform="translate(15.258819 150.473098) scale(0.09 -0.09)">
     <defs>
      <path id="DejaVuSans-32" d="M 1228 531
L 3431 531
L 3431 0
L 469 0
L 469 531
Q 828 903 1448 1529
Q 2069 2156 2228 2338
Q 2531 2678 2651 2914
Q 2772 3150 2772 3378
Q 2772 3750 2511 3984
Q 2250 4219 1831 4219
Q 1534 4219 1204 4116
Q 875 4013 500 3803
L 500 4441
Q 881 4594 1212 4672
Q 1544 4750 1819 4750
Q 2544 4750 2975 4387
Q 3406 4025 3406 3419
Q 3406 3131 3298 2873
Q 3191 2616 2906 2266
Q 2828 2175 2409 1742
Q 1991 1309 1228 531
z
" transform="scale(0.015625)"/>
      <path id="DejaVuSans-67" d="M 2906 1791
Q 2906 2416 2648 2759
Q 2391 3103 1925 3103
Q 1463 3103 1205 2759
Q 947 2416 947 1791
Q 947 1169 1205 825
Q 1463 481 1925 481
Q 2391 481 2648 825
Q 2906 1169 2906 1791
z
M 3481 434
Q 3481 -459 3084 -895
Q 2688 -1331 1869 -1331
Q 1566 -1331 1297 -1286
Q 1028 -1241 775 -1147
L 775 -588
Q 1028 -725 1275 -790
Q 1522 -856 1778 -856
Q 2344 -856 2625 -561
Q 2906 -266 2906 331
L 2906 616
Q 2728 306 2450 153
Q 2172 0 1784 0
Q 1141 0 747 490
Q 353 981 353 1791
Q 353 2603 747 3093
Q 1141 3584 1784 3584
Q 2172 3584 2450 3431
Q 2728 3278 2906 2969
L 2906 3500
L 3481 3500
L 3481 434
z
" transform="scale(0.015625)"/>
      <path id="DejaVuSans-64" d="M 2906 2969
L 2906 4863
L 3481 4863
L 3481 0
L 2906 0
L 2906 525
Q 2725 213 2448 61
Q 2172 -91 1784 -91
Q 1150 -91 751 415
Q 353 922 353 1747
Q 353 2572 751 3078
Q 1150 3584 1784 3584
Q 2172 3584 2448 3432
Q 2725 3281 2906 2969
z
M 947 1747
Q 947 1113 1208 752
Q 1469 391 1925 391
Q 2381 391 2643 752
Q 2906 1113 2906 1747
Q 2906 2381 2643 2742
Q 2381 3103 1925 3103
Q 1469 3103 1208 2742
Q 947 2381 947 1747
z
" transform="scale(0.015625)"/>
      <path id="DejaVuSans-65" d="M 3597 1894
L 3597 1613
L 953 1613
Q 991 1019 1311 708
Q 1631 397 2203 397
Q 2534 397 2845 478
Q 3156 559 3463 722
L 3463 178
Q 3153 47 2828 -22
Q 2503 -91 2169 -91
Q 1331 -91 842 396
Q 353 884 353 1716
Q 353 2575 817 3079
Q 1281 3584 2069 3584
Q 2775 3584 3186 3129
Q 3597 2675 3597 1894
z
M 3022 2063
Q 3016 2534 2758 2815
Q 2500 3097 2075 3097
Q 1594 3097 1305 2825
Q 1016 2553 972 2059
L 3022 2063
z
" transform="scale(0.015625)"/>
     </defs>
     <use xlink:href="#DejaVuSans-53"/>
     <use xlink:href="#DejaVuSans-32" transform="translate(63.476562 0)"/>
     <use xlink:href="#DejaVuSans-20" transform="translate(127.099609 0)"/>
     <use xlink:href="#DejaVuSans-20" transform="translate(158.886719 0)"/>
     <use xlink:href="#DejaVuSans-67" transform="translate(190.673828 0)"/>
     <use xlink:href="#DejaVuSans-6c" transform="translate(254.150391 0)"/>
     <use xlink:href="#DejaVuSans-69" transform="translate(281.933594 0)"/>
     <use xlink:href="#DejaVuSans-64" transform="translate(309.716797 0)"/>
     <use xlink:href="#DejaVuSans-65" transform="translate(373.193359 0)"/>
     <use xlink:href="#DejaVuSans-20" transform="translate(434.716797 0)"/>
     <use xlink:href="#DejaVuSans-67" transform="translate(466.503906 0)"/>
     <use xlink:href="#DejaVuSans-65" transform="translate(529.980469 0)"/>
     <use xlink:href="#DejaVuSans-6e" transform="translate(591.503906 0)"/>
     <use xlink:href="#DejaVuSans-65" transform="translate(654.882812 0)"/>
     <use xlink:href="#DejaVuSans-72" transform="translate(716.40625 0)"/>
     <use xlink:href="#DejaVuSans-61" transform="translate(757.519531 0)"/>
     <use xlink:href="#DejaVuSans-74" transform="translate(818.798828 0)"/>
     <use xlink:href="#DejaVuSans-65" transform="translate(858.007812 0)"/>
     <use xlink:href="#DejaVuSans-64" transform="translate(919.53125 0)"/>
    </g>
   </g>
   <g id="text_3">
    <!-- S3  vertical mirrors -->
    <g style="fill: #263238" transform="translate(15.258819 231.061286) scale(0.09 -0.09)">
     <defs>
      <path id="DejaVuSans-33" d="M 2597 2516
Q 3050 2419 3304 2112
Q 3559 1806 3559 1356
Q 3559 666 3084 287
Q 2609 -91 1734 -91
Q 1441 -91 1130 -33
Q 819 25 488 141
L 488 750
Q 750 597 1062 519
Q 1375 441 1716 441
Q 2309 441 2620 675
Q 2931 909 2931 1356
Q 2931 1769 2642 2001
Q 2353 2234 1838 2234
L 1294 2234
L 1294 2753
L 1863 2753
Q 2328 2753 2575 2939
Q 2822 3125 2822 3475
Q 2822 3834 2567 4026
Q 2313 4219 1838 4219
Q 1578 4219 1281 4162
Q 984 4106 628 3988
L 628 4550
Q 988 4650 1302 4700
Q 1616 4750 1894 4750
Q 2613 4750 3031 4423
Q 3450 4097 3450 3541
Q 3450 3153 3228 2886
Q 3006 2619 2597 2516
z
" transform="scale(0.015625)"/>
      <path id="DejaVuSans-76" d="M 191 3500
L 800 3500
L 1894 563
L 2988 3500
L 3597 3500
L 2284 0
L 1503 0
L 191 3500
z
" transform="scale(0.015625)"/>
      <path id="DejaVuSans-63" d="M 3122 3366
L 3122 2828
Q 2878 2963 2633 3030
Q 2388 3097 2138 3097
Q 1578 3097 1268 2742
Q 959 2388 959 1747
Q 959 1106 1268 751
Q 1578 397 2138 397
Q 2388 397 2633 464
Q 2878 531 3122 666
L 3122 134
Q 2881 22 2623 -34
Q 2366 -91 2075 -91
Q 1284 -91 818 406
Q 353 903 353 1747
Q 353 2603 823 3093
Q 1294 3584 2113 3584
Q 2378 3584 2631 3529
Q 2884 3475 3122 3366
z
" transform="scale(0.015625)"/>
      <path id="DejaVuSans-6d" d="M 3328 2828
Q 3544 3216 3844 3400
Q 4144 3584 4550 3584
Q 5097 3584 5394 3201
Q 5691 2819 5691 2113
L 5691 0
L 5113 0
L 5113 2094
Q 5113 2597 4934 2840
Q 4756 3084 4391 3084
Q 3944 3084 3684 2787
Q 3425 2491 3425 1978
L 3425 0
L 2847 0
L 2847 2094
Q 2847 2600 2669 2842
Q 2491 3084 2119 3084
Q 1678 3084 1418 2786
Q 1159 2488 1159 1978
L 1159 0
L 581 0
L 581 3500
L 1159 3500
L 1159 2956
Q 1356 3278 1631 3431
Q 1906 3584 2284 3584
Q 2666 3584 2933 3390
Q 3200 3197 3328 2828
z
" transform="scale(0.015625)"/>
     </defs>
     <use xlink:href="#DejaVuSans-53"/>
     <use xlink:href="#DejaVuSans-33" transform="translate(63.476562 0)"/>
     <use xlink:href="#DejaVuSans-20" transform="translate(127.099609 0)"/>
     <use xlink:href="#DejaVuSans-20" transform="translate(158.886719 0)"/>
     <use xlink:href="#DejaVuSans-76" transform="translate(190.673828 0)"/>
     <use xlink:href="#DejaVuSans-65" transform="translate(249.853516 0)"/>
     <use xlink:href="#DejaVuSans-72" transform="translate(311.376953 0)"/>
     <use xlink:href="#DejaVuSans-74" transform="translate(352.490234 0)"/>
     <use xlink:href="#DejaVuSans-69" transform="translate(391.699219 0)"/>
     <use xlink:href="#DejaVuSans-63" transform="translate(419.482422 0)"/>
     <use xlink:href="#DejaVuSans-61" transform="translate(474.462891 0)"/>
     <use xlink:href="#DejaVuSans-6c" transform="translate(535.742188 0)"/>
     <use xlink:href="#DejaVuSans-20" transform="translate(563.525391 0)"/>
     <use xlink:href="#DejaVuSans-6d" transform="translate(595.3125 0)"/>
     <use xlink:href="#DejaVuSans-69" transform="translate(692.724609 0)"/>
     <use xlink:href="#DejaVuSans-72" transform="translate(720.507812 0)"/>
     <use xlink:href="#DejaVuSans-72" transform="translate(759.871094 0)"/>
     <use xlink:href="#DejaVuSans-6f" transform="translate(798.734375 0)"/>
     <use xlink:href="#DejaVuSans-72" transform="translate(859.916016 0)"/>
     <use xlink:href="#DejaVuSans-73" transform="translate(901.029297 0)"/>
    </g>
   </g>
   <g id="text_4">
    <!-- S4  half-turn centers -->
    <g style="fill: #263238" transform="translate(15.258819 311.649474) scale(0.09 -0.09)">
     <defs>
      <path id="DejaVuSans-34" d="M 2419 4116
L 825 1625
L 2419 1625
L 2419 4116
z
M 2253 4666
L 3047 4666
L 3047 1625
L 3713 1625
L 3713 1100
L 3047 1100
L 3047 0
L 2419 0
L 2419 1100
L 313 1100
L 313 1709
L 2253 4666
z
" transform="scale(0.015625)"/>
      <path id="DejaVuSans-68" d="M 3513 2113
L 3513 0
L 2938 0
L 2938 2094
Q 2938 2591 2744 2837
Q 2550 3084 2163 3084
Q 1697 3084 1428 2787
Q 1159 2491 1159 1978
L 1159 0
L 581 0
L 581 4863
L 1159 4863
L 1159 2956
Q 1366 3272 1645 3428
Q 1925 3584 2291 3584
Q 2894 3584 3203 3211
Q 3513 2838 3513 2113
z
" transform="scale(0.015625)"/>
      <path id="DejaVuSans-66" d="M 2375 4863
L 2375 4384
L 1825 4384
Q 1516 4384 1395 4259
Q 1275 4134 1275 3809
L 1275 3500
L 2222 3500
L 2222 3053
L 1275 3053
L 1275 0
L 697 0
L 697 3053
L 147 3053
L 147 3500
L 697 3500
L 697 3744
Q 697 4328 969 4595
Q 1241 4863 1831 4863
L 2375 4863
z
" transform="scale(0.015625)"/>
      <path id="DejaVuSans-2d" d="M 313 2009
L 1997 2009
L 1997 1497
L 313 1497
L 313 2009
z
" transform="scale(0.015625)"/>
      <path id="DejaVuSans-75" d="M 544 1381
L 544 3500
L 1119 3500
L 1119 1403
Q 1119 906 1312 657
Q 1506 409 1894 409
Q 2359 409 2629 706
Q 2900 1003 2900 1516
L 2900 3500
L 3475 3500
L 3475 0
L 2900 0
L 2900 538
Q 2691 219 2414 64
Q 2138 -91 1772 -91
Q 1169 -91 856 284
Q 544 659 544 1381
z
M 1991 3584
L 1991 3584
z
" transform="scale(0.015625)"/>
     </defs>
     <use xlink:href="#DejaVuSans-53"/>
     <use xlink:href="#DejaVuSans-34" transform="translate(63.476562 0)"/>
     <use xlink:href="#DejaVuSans-20" transform="translate(127.099609 0)"/>
     <use xlink:href="#DejaVuSans-20" transform="translate(158.886719 0)"/>
     <use xlink:href="#DejaVuSans-68" transform="translate(190.673828 0)"/>
     <use xlink:href="#DejaVuSans-61" transform="translate(254.052734 0)"/>
     <use xlink:href="#DejaVuSans-6c" transform="translate(315.332031 0)"/>
     <use xlink:href="#DejaVuSans-66" transform="translate(343.115234 0)"/>
     <use xlink:href="#DejaVuSans-2d" transform="translate(372.820312 0)"/>
     <use xlink:href="#DejaVuSans-74" transform="translate(408.904297 0)"/>
     <use xlink:href="#DejaVuSans-75" transform="translate(448.113281 0)"/>
     <use xlink:href="#DejaVuSans-72" transform="translate(511.492188 0)"/>
     <use xlink:href="#DejaVuSans-6e" transform="translate(550.855469 0)"/>
     <use xlink:href="#DejaVuSans-20" transform="translate(614.234375 0)"/>
     <use xlink:href="#DejaVuSans-63" transform="translate(646.021484 0)"/>
     <use xlink:href="#DejaVuSans-65" transform="translate(701.001953 0)"/>
     <use xlink:href="#DejaVuSans-6e" transform="translate(762.525391 0)"/>
     <use xlink:href="#DejaVuSans-74" transform="translate(825.904297 0)"/>
     <use xlink:href="#DejaVuSans-65" transform="translate(865.113281 0)"/>
     <use xlink:href="#DejaVuSans-72" transform="translate(926.636719 0)"/>
     <use xlink:href="#DejaVuSans-73" transform="translate(967.75 0)"/>
    </g>
   </g>
   <g id="text_5">
    <!-- S5  vertical mirror plus half-turn -->
    <g style="fill: #263238" transform="translate(15.258819 392.237663) scale(0.09 -0.09)">
     <defs>
      <path id="DejaVuSans-35" d="M 691 4666
L 3169 4666
L 3169 4134
L 1269 4134
L 1269 2991
Q 1406 3038 1543 3061
Q 1681 3084 1819 3084
Q 2600 3084 3056 2656
Q 3513 2228 3513 1497
Q 3513 744 3044 326
Q 2575 -91 1722 -91
Q 1428 -91 1123 -41
Q 819 9 494 109
L 494 744
Q 775 591 1075 516
Q 1375 441 1709 441
Q 2250 441 2565 725
Q 2881 1009 2881 1497
Q 2881 1984 2565 2268
Q 2250 2553 1709 2553
Q 1456 2553 1204 2497
Q 953 2441 691 2322
L 691 4666
z
" transform="scale(0.015625)"/>
      <path id="DejaVuSans-70" d="M 1159 525
L 1159 -1331
L 581 -1331
L 581 3500
L 1159 3500
L 1159 2969
Q 1341 3281 1617 3432
Q 1894 3584 2278 3584
Q 2916 3584 3314 3078
Q 3713 2572 3713 1747
Q 3713 922 3314 415
Q 2916 -91 2278 -91
Q 1894 -91 1617 61
Q 1341 213 1159 525
z
M 3116 1747
Q 3116 2381 2855 2742
Q 2594 3103 2138 3103
Q 1681 3103 1420 2742
Q 1159 2381 1159 1747
Q 1159 1113 1420 752
Q 1681 391 2138 391
Q 2594 391 2855 752
Q 3116 1113 3116 1747
z
" transform="scale(0.015625)"/>
     </defs>
     <use xlink:href="#DejaVuSans-53"/>
     <use xlink:href="#DejaVuSans-35" transform="translate(63.476562 0)"/>
     <use xlink:href="#DejaVuSans-20" transform="translate(127.099609 0)"/>
     <use xlink:href="#DejaVuSans-20" transform="translate(158.886719 0)"/>
     <use xlink:href="#DejaVuSans-76" transform="translate(190.673828 0)"/>
     <use xlink:href="#DejaVuSans-65" transform="translate(249.853516 0)"/>
     <use xlink:href="#DejaVuSans-72" transform="translate(311.376953 0)"/>
     <use xlink:href="#DejaVuSans-74" transform="translate(352.490234 0)"/>
     <use xlink:href="#DejaVuSans-69" transform="translate(391.699219 0)"/>
     <use xlink:href="#DejaVuSans-63" transform="translate(419.482422 0)"/>
     <use xlink:href="#DejaVuSans-61" transform="translate(474.462891 0)"/>
     <use xlink:href="#DejaVuSans-6c" transform="translate(535.742188 0)"/>
     <use xlink:href="#DejaVuSans-20" transform="translate(563.525391 0)"/>
     <use xlink:href="#DejaVuSans-6d" transform="translate(595.3125 0)"/>
     <use xlink:href="#DejaVuSans-69" transform="translate(692.724609 0)"/>
     <use xlink:href="#DejaVuSans-72" transform="translate(720.507812 0)"/>
     <use xlink:href="#DejaVuSans-72" transform="translate(759.871094 0)"/>
     <use xlink:href="#DejaVuSans-6f" transform="translate(798.734375 0)"/>
     <use xlink:href="#DejaVuSans-72" transform="translate(859.916016 0)"/>
     <use xlink:href="#DejaVuSans-20" transform="translate(901.029297 0)"/>
     <use xlink:href="#DejaVuSans-70" transform="translate(932.816406 0)"/>
     <use xlink:href="#DejaVuSans-6c" transform="translate(996.292969 0)"/>
     <use xlink:href="#DejaVuSans-75" transform="translate(1024.076172 0)"/>
     <use xlink:href="#DejaVuSans-73" transform="translate(1087.455078 0)"/>
     <use xlink:href="#DejaVuSans-20" transform="translate(1139.554688 0)"/>
     <use xlink:href="#DejaVuSans-68" transform="translate(1171.341797 0)"/>
     <use xlink:href="#DejaVuSans-61" transform="translate(1234.720703 0)"/>
     <use xlink:href="#DejaVuSans-6c" transform="translate(1296 0)"/>
     <use xlink:href="#DejaVuSans-66" transform="translate(1323.783203 0)"/>
     <use xlink:href="#DejaVuSans-2d" transform="translate(1353.488281 0)"/>
     <use xlink:href="#DejaVuSans-74" transform="translate(1389.572266 0)"/>
     <use xlink:href="#DejaVuSans-75" transform="translate(1428.78125 0)"/>
     <use xlink:href="#DejaVuSans-72" transform="translate(1492.160156 0)"/>
     <use xlink:href="#DejaVuSans-6e" transform="translate(1531.523438 0)"/>
    </g>
   </g>
   <g id="text_6">
    <!-- S6  horizontal mirror plus translation -->
    <g style="fill: #263238" transform="translate(15.258819 472.825851) scale(0.09 -0.09)">
     <defs>
      <path id="DejaVuSans-36" d="M 2113 2584
Q 1688 2584 1439 2293
Q 1191 2003 1191 1497
Q 1191 994 1439 701
Q 1688 409 2113 409
Q 2538 409 2786 701
Q 3034 994 3034 1497
Q 3034 2003 2786 2293
Q 2538 2584 2113 2584
z
M 3366 4563
L 3366 3988
Q 3128 4100 2886 4159
Q 2644 4219 2406 4219
Q 1781 4219 1451 3797
Q 1122 3375 1075 2522
Q 1259 2794 1537 2939
Q 1816 3084 2150 3084
Q 2853 3084 3261 2657
Q 3669 2231 3669 1497
Q 3669 778 3244 343
Q 2819 -91 2113 -91
Q 1303 -91 875 529
Q 447 1150 447 2328
Q 447 3434 972 4092
Q 1497 4750 2381 4750
Q 2619 4750 2861 4703
Q 3103 4656 3366 4563
z
" transform="scale(0.015625)"/>
      <path id="DejaVuSans-7a" d="M 353 3500
L 3084 3500
L 3084 2975
L 922 459
L 3084 459
L 3084 0
L 275 0
L 275 525
L 2438 3041
L 353 3041
L 353 3500
z
" transform="scale(0.015625)"/>
     </defs>
     <use xlink:href="#DejaVuSans-53"/>
     <use xlink:href="#DejaVuSans-36" transform="translate(63.476562 0)"/>
     <use xlink:href="#DejaVuSans-20" transform="translate(127.099609 0)"/>
     <use xlink:href="#DejaVuSans-20" transform="translate(158.886719 0)"/>
     <use xlink:href="#DejaVuSans-68" transform="translate(190.673828 0)"/>
     <use xlink:href="#DejaVuSans-6f" transform="translate(254.052734 0)"/>
     <use xlink:href="#DejaVuSans-72" transform="translate(315.234375 0)"/>
     <use xlink:href="#DejaVuSans-69" transform="translate(356.347656 0)"/>
     <use xlink:href="#DejaVuSans-7a" transform="translate(384.130859 0)"/>
     <use xlink:href="#DejaVuSans-6f" transform="translate(436.621094 0)"/>
     <use xlink:href="#DejaVuSans-6e" transform="translate(497.802734 0)"/>
     <use xlink:href="#DejaVuSans-74" transform="translate(561.181641 0)"/>
     <use xlink:href="#DejaVuSans-61" transform="translate(600.390625 0)"/>
     <use xlink:href="#DejaVuSans-6c" transform="translate(661.669922 0)"/>
     <use xlink:href="#DejaVuSans-20" transform="translate(689.453125 0)"/>
     <use xlink:href="#DejaVuSans-6d" transform="translate(721.240234 0)"/>
     <use xlink:href="#DejaVuSans-69" transform="translate(818.652344 0)"/>
     <use xlink:href="#DejaVuSans-72" transform="translate(846.435547 0)"/>
     <use xlink:href="#DejaVuSans-72" transform="translate(885.798828 0)"/>
     <use xlink:href="#DejaVuSans-6f" transform="translate(924.662109 0)"/>
     <use xlink:href="#DejaVuSans-72" transform="translate(985.84375 0)"/>
     <use xlink:href="#DejaVuSans-20" transform="translate(1026.957031 0)"/>
     <use xlink:href="#DejaVuSans-70" transform="translate(1058.744141 0)"/>
     <use xlink:href="#DejaVuSans-6c" transform="translate(1122.220703 0)"/>
     <use xlink:href="#DejaVuSans-75" transform="translate(1150.003906 0)"/>
     <use xlink:href="#DejaVuSans-73" transform="translate(1213.382812 0)"/>
     <use xlink:href="#DejaVuSans-20" transform="translate(1265.482422 0)"/>
     <use xlink:href="#DejaVuSans-74" transform="translate(1297.269531 0)"/>
     <use xlink:href="#DejaVuSans-72" transform="translate(1336.478516 0)"/>
     <use xlink:href="#DejaVuSans-61" transform="translate(1377.591797 0)"/>
     <use xlink:href="#DejaVuSans-6e" transform="translate(1438.871094 0)"/>
     <use xlink:href="#DejaVuSans-73" transform="translate(1502.25 0)"/>
     <use xlink:href="#DejaVuSans-6c" transform="translate(1554.349609 0)"/>
     <use xlink:href="#DejaVuSans-61" transform="translate(1582.132812 0)"/>
     <use xlink:href="#DejaVuSans-74" transform="translate(1643.412109 0)"/>
     <use xlink:href="#DejaVuSans-69" transform="translate(1682.621094 0)"/>
     <use xlink:href="#DejaVuSans-6f" transform="translate(1710.404297 0)"/>
     <use xlink:href="#DejaVuSans-6e" transform="translate(1771.585938 0)"/>
    </g>
   </g>
   <g id="text_7">
    <!-- S7  three reflection directions -->
    <g style="fill: #263238" transform="translate(15.258819 553.414039) scale(0.09 -0.09)">
     <defs>
      <path id="DejaVuSans-37" d="M 525 4666
L 3525 4666
L 3525 4397
L 1831 0
L 1172 0
L 2766 4134
L 525 4134
L 525 4666
z
" transform="scale(0.015625)"/>
     </defs>
     <use xlink:href="#DejaVuSans-53"/>
     <use xlink:href="#DejaVuSans-37" transform="translate(63.476562 0)"/>
     <use xlink:href="#DejaVuSans-20" transform="translate(127.099609 0)"/>
     <use xlink:href="#DejaVuSans-20" transform="translate(158.886719 0)"/>
     <use xlink:href="#DejaVuSans-74" transform="translate(190.673828 0)"/>
     <use xlink:href="#DejaVuSans-68" transform="translate(229.882812 0)"/>
     <use xlink:href="#DejaVuSans-72" transform="translate(293.261719 0)"/>
     <use xlink:href="#DejaVuSans-65" transform="translate(332.125 0)"/>
     <use xlink:href="#DejaVuSans-65" transform="translate(393.648438 0)"/>
     <use xlink:href="#DejaVuSans-20" transform="translate(455.171875 0)"/>
     <use xlink:href="#DejaVuSans-72" transform="translate(486.958984 0)"/>
     <use xlink:href="#DejaVuSans-65" transform="translate(525.822266 0)"/>
     <use xlink:href="#DejaVuSans-66" transform="translate(587.345703 0)"/>
     <use xlink:href="#DejaVuSans-6c" transform="translate(622.550781 0)"/>
     <use xlink:href="#DejaVuSans-65" transform="translate(650.333984 0)"/>
     <use xlink:href="#DejaVuSans-63" transform="translate(711.857422 0)"/>
     <use xlink:href="#DejaVuSans-74" transform="translate(766.837891 0)"/>
     <use xlink:href="#DejaVuSans-69" transform="translate(806.046875 0)"/>
     <use xlink:href="#DejaVuSans-6f" transform="translate(833.830078 0)"/>
     <use xlink:href="#DejaVuSans-6e" transform="translate(895.011719 0)"/>
     <use xlink:href="#DejaVuSans-20" transform="translate(958.390625 0)"/>
     <use xlink:href="#DejaVuSans-64" transform="translate(990.177734 0)"/>
     <use xlink:href="#DejaVuSans-69" transform="translate(1053.654297 0)"/>
     <use xlink:href="#DejaVuSans-72" transform="translate(1081.4375 0)"/>
     <use xlink:href="#DejaVuSans-65" transform="translate(1120.300781 0)"/>
     <use xlink:href="#DejaVuSans-63" transform="translate(1181.824219 0)"/>
     <use xlink:href="#DejaVuSans-74" transform="translate(1236.804688 0)"/>
     <use xlink:href="#DejaVuSans-69" transform="translate(1276.013672 0)"/>
     <use xlink:href="#DejaVuSans-6f" transform="translate(1303.796875 0)"/>
     <use xlink:href="#DejaVuSans-6e" transform="translate(1364.978516 0)"/>
     <use xlink:href="#DejaVuSans-73" transform="translate(1428.357422 0)"/>
    </g>
   </g>
   <g id="text_8">
    <!-- Seven strip-pattern generator recipes using one asymmetric motif -->
    <g transform="translate(202.281947 17.077969) scale(0.13 -0.13)">
     <use xlink:href="#DejaVuSans-53"/>
     <use xlink:href="#DejaVuSans-65" transform="translate(63.476562 0)"/>
     <use xlink:href="#DejaVuSans-76" transform="translate(125 0)"/>
     <use xlink:href="#DejaVuSans-65" transform="translate(184.179688 0)"/>
     <use xlink:href="#DejaVuSans-6e" transform="translate(245.703125 0)"/>
     <use xlink:href="#DejaVuSans-20" transform="translate(309.082031 0)"/>
     <use xlink:href="#DejaVuSans-73" transform="translate(340.869141 0)"/>
     <use xlink:href="#DejaVuSans-74" transform="translate(392.96875 0)"/>
     <use xlink:href="#DejaVuSans-72" transform="translate(432.177734 0)"/>
     <use xlink:href="#DejaVuSans-69" transform="translate(473.291016 0)"/>
     <use xlink:href="#DejaVuSans-70" transform="translate(501.074219 0)"/>
     <use xlink:href="#DejaVuSans-2d" transform="translate(564.550781 0)"/>
     <use xlink:href="#DejaVuSans-70" transform="translate(600.634766 0)"/>
     <use xlink:href="#DejaVuSans-61" transform="translate(664.111328 0)"/>
     <use xlink:href="#DejaVuSans-74" transform="translate(725.390625 0)"/>
     <use xlink:href="#DejaVuSans-74" transform="translate(764.599609 0)"/>
     <use xlink:href="#DejaVuSans-65" transform="translate(803.808594 0)"/>
     <use xlink:href="#DejaVuSans-72" transform="translate(865.332031 0)"/>
     <use xlink:href="#DejaVuSans-6e" transform="translate(904.695312 0)"/>
     <use xlink:href="#DejaVuSans-20" transform="translate(968.074219 0)"/>
     <use xlink:href="#DejaVuSans-67" transform="translate(999.861328 0)"/>
     <use xlink:href="#DejaVuSans-65" transform="translate(1063.337891 0)"/>
     <use xlink:href="#DejaVuSans-6e" transform="translate(1124.861328 0)"/>
     <use xlink:href="#DejaVuSans-65" transform="translate(1188.240234 0)"/>
     <use xlink:href="#DejaVuSans-72" transform="translate(1249.763672 0)"/>
     <use xlink:href="#DejaVuSans-61" transform="translate(1290.876953 0)"/>
     <use xlink:href="#DejaVuSans-74" transform="translate(1352.15625 0)"/>
     <use xlink:href="#DejaVuSans-6f" transform="translate(1391.365234 0)"/>
     <use xlink:href="#DejaVuSans-72" transform="translate(1452.546875 0)"/>
     <use xlink:href="#DejaVuSans-20" transform="translate(1493.660156 0)"/>
     <use xlink:href="#DejaVuSans-72" transform="translate(1525.447266 0)"/>
     <use xlink:href="#DejaVuSans-65" transform="translate(1564.310547 0)"/>
     <use xlink:href="#DejaVuSans-63" transform="translate(1625.833984 0)"/>
     <use xlink:href="#DejaVuSans-69" transform="translate(1680.814453 0)"/>
     <use xlink:href="#DejaVuSans-70" transform="translate(1708.597656 0)"/>
     <use xlink:href="#DejaVuSans-65" transform="translate(1772.074219 0)"/>
     <use xlink:href="#DejaVuSans-73" transform="translate(1833.597656 0)"/>
     <use xlink:href="#DejaVuSans-20" transform="translate(1885.697266 0)"/>
     <use xlink:href="#DejaVuSans-75" transform="translate(1917.484375 0)"/>
     <use xlink:href="#DejaVuSans-73" transform="translate(1980.863281 0)"/>
     <use xlink:href="#DejaVuSans-69" transform="translate(2032.962891 0)"/>
     <use xlink:href="#DejaVuSans-6e" transform="translate(2060.746094 0)"/>
     <use xlink:href="#DejaVuSans-67" transform="translate(2124.125 0)"/>
     <use xlink:href="#DejaVuSans-20" transform="translate(2187.601562 0)"/>
     <use xlink:href="#DejaVuSans-6f" transform="translate(2219.388672 0)"/>
     <use xlink:href="#DejaVuSans-6e" transform="translate(2280.570312 0)"/>
     <use xlink:href="#DejaVuSans-65" transform="translate(2343.949219 0)"/>
     <use xlink:href="#DejaVuSans-20" transform="translate(2405.472656 0)"/>
     <use xlink:href="#DejaVuSans-61" transform="translate(2437.259766 0)"/>
     <use xlink:href="#DejaVuSans-73" transform="translate(2498.539062 0)"/>
     <use xlink:href="#DejaVuSans-79" transform="translate(2550.638672 0)"/>
     <use xlink:href="#DejaVuSans-6d" transform="translate(2609.818359 0)"/>
     <use xlink:href="#DejaVuSans-6d" transform="translate(2707.230469 0)"/>
     <use xlink:href="#DejaVuSans-65" transform="translate(2804.642578 0)"/>
     <use xlink:href="#DejaVuSans-74" transform="translate(2866.166016 0)"/>
     <use xlink:href="#DejaVuSans-72" transform="translate(2905.375 0)"/>
     <use xlink:href="#DejaVuSans-69" transform="translate(2946.488281 0)"/>
     <use xlink:href="#DejaVuSans-63" transform="translate(2974.271484 0)"/>
     <use xlink:href="#DejaVuSans-20" transform="translate(3029.251953 0)"/>
     <use xlink:href="#DejaVuSans-6d" transform="translate(3061.039062 0)"/>
     <use xlink:href="#DejaVuSans-6f" transform="translate(3158.451172 0)"/>
     <use xlink:href="#DejaVuSans-74" transform="translate(3219.632812 0)"/>
     <use xlink:href="#DejaVuSans-69" transform="translate(3258.841797 0)"/>
     <use xlink:href="#DejaVuSans-66" transform="translate(3286.625 0)"/>
    </g>
   </g>
  </g>
 </g>
 <defs>
  <clipPath id="p91944bc171">
   <rect x="7.2" y="23.077969" width="821.99952" height="572.176136"/>
  </clipPath>
 </defs>
</svg>
