<svg xmlns="http://www.w3.org/2000/svg" width="760" height="520" viewBox="0 0 760 520"><rect width="760" height="520" fill="#fffdf7"/><text x="28" y="38" font-size="24" font-family="DejaVu Sans, Arial" font-weight="700" fill="#1f2933">Chapter 06 experiment</text><text x="28" y="64" font-size="14" font-family="DejaVu Sans, Arial" fill="#1f2933">Perturb the model and inspect what remains invariant</text><g font-family="DejaVu Sans, Arial"><polyline points="167.6,315.0 170.7,317.1 173.7,319.2 176.8,321.3 179.8,323.3 182.9,325.3 185.9,327.2 189.0,329.1 192.0,331.0 195.1,332.8 198.2,334.5 201.2,336.2 204.3,337.8 207.3,339.4 210.4,340.9 213.4,342.3 216.5,343.7 219.6,345.0 222.6,346.2 225.7,347.3 228.7,348.4 231.8,349.4 234.8,350.3 237.9,351.1 240.9,351.8 244.0,352.4 247.1,353.0 250.1,353.4 253.2,353.8 256.2,354.1 259.3,354.3 262.3,354.4 265.4,354.4 268.5,354.3 271.5,354.1 274.6,353.9 277.6,353.5 280.7,353.1 283.7,352.5 286.8,351.9 289.8,351.2 292.9,350.4 296.0,349.5 299.0,348.6 302.1,347.5 305.1,346.4 308.2,345.2 311.2,343.9 314.3,342.6 317.3,341.2 320.4,339.7 323.5,338.1 326.5,336.5 329.6,334.8 332.6,333.1 335.7,331.3 338.7,329.5 341.8,327.6 344.9,325.7 347.9,323.7 351.0,321.7 354.0,319.6 357.1,317.5 360.1,315.4 363.2,313.3 366.2,311.1 369.3,309.0 372.4,306.8 375.4,304.6 378.5,302.4 381.5,300.2 384.6,298.0 387.6,295.8 390.7,293.6 393.8,291.5 396.8,289.3 399.9,287.2 402.9,285.1 406.0,283.0 409.0,280.9 412.1,278.9 415.1,276.9 418.2,275.0 421.3,273.1 424.3,271.3 427.4,269.5 430.4,267.8 433.5,266.1 436.5,264.5 439.6,262.9 442.7,261.4 445.7,260.0 448.8,258.7 451.8,257.4 454.9,256.2 457.9,255.1 461.0,254.0 464.0,253.1 467.1,252.2 470.2,251.4 473.2,250.7 476.3,250.1 479.3,249.5 482.4,249.1 485.4,248.7 488.5,248.5 491.5,248.3 494.6,248.2 497.7,248.2 500.7,248.3 503.8,248.5 506.8,248.8 509.9,249.2 512.9,249.6 516.0,250.2 519.1,250.8 522.1,251.5 525.2,252.3 528.2,253.2 531.3,254.2 534.3,255.3 537.4,256.4 540.4,257.6 543.5,258.9 546.6,260.3 549.6,261.7 552.7,263.2 555.7,264.8 558.8,266.4 561.8,268.1 564.9,269.8 568.0,271.6 571.0,273.5 574.1,275.4 577.1,277.3 580.2,279.3 583.2,281.3 586.3,283.4 589.3,285.5 592.4,287.6" fill="none" stroke="#2364aa" stroke-width="2" stroke-linejoin="round"/>
<polyline points="167.6,302.0 170.7,303.3 173.7,304.5 176.8,305.7 179.8,306.8 182.9,307.8 185.9,308.7 189.0,309.5 192.0,310.3 195.1,310.9 198.2,311.5 201.2,312.0 204.3,312.4 207.3,312.7 210.4,312.9 213.4,313.1 216.5,313.1 219.6,313.0 222.6,312.9 225.7,312.7 228.7,312.3 231.8,311.9 234.8,311.4 237.9,310.8 240.9,310.1 244.0,309.4 247.1,308.5 250.1,307.6 253.2,306.6 256.2,305.5 259.3,304.3 262.3,303.0 265.4,301.7 268.5,300.3 271.5,298.9 274.6,297.3 277.6,295.7 280.7,294.1 283.7,292.4 286.8,290.6 289.8,288.8 292.9,286.9 296.0,285.0 299.0,283.0 302.1,281.0 305.1,279.0 308.2,276.9 311.2,274.8 314.3,272.7 317.3,270.5 320.4,268.4 323.5,266.2 326.5,264.0 329.6,261.8 332.6,259.6 335.7,257.4 338.7,255.2 341.8,253.0 344.9,250.8 347.9,248.7 351.0,246.5 354.0,244.4 357.1,242.3 360.1,240.3 363.2,238.2 366.2,236.3 369.3,234.3 372.4,232.4 375.4,230.6 378.5,228.7 381.5,227.0 384.6,225.3 387.6,223.7 390.7,222.1 393.8,220.6 396.8,219.1 399.9,217.8 402.9,216.5 406.0,215.3 409.0,214.1 412.1,213.0 415.1,212.1 418.2,211.1 421.3,210.3 424.3,209.6 427.4,208.9 430.4,208.4 433.5,207.9 436.5,207.5 439.6,207.2 442.7,207.0 445.7,206.9 448.8,206.9 451.8,207.0 454.9,207.1 457.9,207.4 461.0,207.7 464.0,208.2 467.1,208.7 470.2,209.3 473.2,210.0 476.3,210.8 479.3,211.6 482.4,212.6 485.4,213.6 488.5,214.7 491.5,215.9 494.6,217.2 497.7,218.5 500.7,219.9 503.8,221.4 506.8,223.0 509.9,224.6 512.9,226.2 516.0,228.0 519.1,229.7 522.1,231.6 525.2,233.5 528.2,235.4 531.3,237.4 534.3,239.4 537.4,241.4 540.4,243.5 543.5,245.6 546.6,247.7 549.6,249.9 552.7,252.0 555.7,254.2 558.8,256.4 561.8,258.6 564.9,260.8 568.0,263.0 571.0,265.2 574.1,267.4 577.1,269.6 580.2,271.7 583.2,273.9 586.3,276.0 589.3,278.1 592.4,280.1" fill="none" stroke="#f97316" stroke-width="2" stroke-linejoin="round"/>
<polyline points="167.6,271.8 170.7,271.8 173.7,271.7 176.8,271.4 179.8,271.2 182.9,270.8 185.9,270.3 189.0,269.7 192.0,269.1 195.1,268.3 198.2,267.5 201.2,266.6 204.3,265.6 207.3,264.5 210.4,263.4 213.4,262.2 216.5,260.8 219.6,259.5 222.6,258.0 225.7,256.5 228.7,254.9 231.8,253.3 234.8,251.6 237.9,249.9 240.9,248.0 244.0,246.2 247.1,244.3 250.1,242.3 253.2,240.3 256.2,238.3 259.3,236.2 262.3,234.2 265.4,232.0 268.5,229.9 271.5,227.7 274.6,225.6 277.6,223.4 280.7,221.2 283.7,219.0 286.8,216.8 289.8,214.6 292.9,212.4 296.0,210.2 299.0,208.1 302.1,205.9 305.1,203.8 308.2,201.7 311.2,199.6 314.3,197.6 317.3,195.6 320.4,193.6 323.5,191.7 326.5,189.8 329.6,188.0 332.6,186.2 335.7,184.5 338.7,182.9 341.8,181.3 344.9,179.8 347.9,178.3 351.0,176.9 354.0,175.6 357.1,174.3 360.1,173.2 363.2,172.1 366.2,171.1 369.3,170.1 372.4,169.3 375.4,168.5 378.5,167.8 381.5,167.3 384.6,166.8 387.6,166.3 390.7,166.0 393.8,165.8 396.8,165.6 399.9,165.6 402.9,165.6 406.0,165.8 409.0,166.0 412.1,166.3 415.1,166.7 418.2,167.2 421.3,167.8 424.3,168.5 427.4,169.2 430.4,170.1 433.5,171.0 436.5,172.0 439.6,173.1 442.7,174.2 445.7,175.5 448.8,176.8 451.8,178.2 454.9,179.6 457.9,181.2 461.0,182.8 464.0,184.4 467.1,186.1 470.2,187.9 473.2,189.7 476.3,191.6 479.3,193.5 482.4,195.4 485.4,197.4 488.5,199.5 491.5,201.5 494.6,203.6 497.7,205.8 500.7,207.9 503.8,210.1 506.8,212.2 509.9,214.4 512.9,216.6 516.0,218.8 519.1,221.0 522.1,223.2 525.2,225.4 528.2,227.6 531.3,229.8 534.3,231.9 537.4,234.0 540.4,236.1 543.5,238.2 546.6,240.2 549.6,242.2 552.7,244.1 555.7,246.1 558.8,247.9 561.8,249.7 564.9,251.5 568.0,253.2 571.0,254.8 574.1,256.4 577.1,257.9 580.2,259.4 583.2,260.8 586.3,262.1 589.3,263.3 592.4,264.5" fill="none" stroke="#2f9e44" stroke-width="2" stroke-linejoin="round"/>
<line x1="167.6" y1="260.0" x2="592.4" y2="260.0" stroke="#d8dee9" stroke-width="1" stroke-dasharray="4 4"/></g></svg>