<svg xmlns="http://www.w3.org/2000/svg" width="760" height="520" viewBox="0 0 760 520"><rect width="760" height="520" fill="#fffdf7"/><text x="28" y="38" font-size="24" font-family="DejaVu Sans, Arial" font-weight="700" fill="#1f2933">Chapter 18 experiment</text><text x="28" y="64" font-size="14" font-family="DejaVu Sans, Arial" fill="#1f2933">Perturb the model and inspect what remains invariant</text><g font-family="DejaVu Sans, Arial"><polyline points="167.6,251.0 170.7,249.9 173.7,249.1 176.8,248.5 179.8,248.2 182.9,248.2 185.9,248.5 189.0,249.1 192.0,249.9 195.1,251.0 198.2,252.3 201.2,254.0 204.3,255.8 207.3,257.9 210.4,260.3 213.4,262.8 216.5,265.6 219.6,268.5 222.6,271.6 225.7,274.9 228.7,278.3 231.8,281.8 234.8,285.5 237.9,289.2 240.9,292.9 244.0,296.8 247.1,300.6 250.1,304.5 253.2,308.3 256.2,312.1 259.3,315.8 262.3,319.5 265.4,323.1 268.5,326.5 271.5,329.8 274.6,333.0 277.6,336.0 280.7,338.8 283.7,341.4 286.8,343.9 289.8,346.0 292.9,348.0 296.0,349.7 299.0,351.2 302.1,352.4 305.1,353.3 308.2,353.9 311.2,354.3 314.3,354.4 317.3,354.2 320.4,353.7 323.5,353.0 326.5,352.0 329.6,350.7 332.6,349.2 335.7,347.4 338.7,345.4 341.8,343.1 344.9,340.6 347.9,337.9 351.0,335.1 354.0,332.0 357.1,328.8 360.1,325.4 363.2,321.9 366.2,318.3 369.3,314.6 372.4,310.9 375.4,307.1 378.5,303.2 381.5,299.4 384.6,295.5 387.6,291.7 390.7,288.0 393.8,284.3 396.8,280.7 399.9,277.2 402.9,273.8 406.0,270.6 409.0,267.5 412.1,264.7 415.1,262.0 418.2,259.5 421.3,257.2 424.3,255.2 427.4,253.4 430.4,251.9 433.5,250.6 436.5,249.6 439.6,248.9 442.7,248.4 445.7,248.2 448.8,248.3 451.8,248.7 454.9,249.3 457.9,250.2 461.0,251.4 464.0,252.9 467.1,254.6 470.2,256.6 473.2,258.7 476.3,261.2 479.3,263.8 482.4,266.6 485.4,269.6 488.5,272.8 491.5,276.1 494.6,279.5 497.7,283.1 500.7,286.8 503.8,290.5 506.8,294.3 509.9,298.1 512.9,302.0 516.0,305.8 519.1,309.7 522.1,313.4 525.2,317.1 528.2,320.8 531.3,324.3 534.3,327.7 537.4,331.0 540.4,334.1 543.5,337.0 546.6,339.8 549.6,342.3 552.7,344.7 555.7,346.8 558.8,348.6 561.8,350.3 564.9,351.6 568.0,352.7 571.0,353.5 574.1,354.1 577.1,354.4 580.2,354.4 583.2,354.1 586.3,353.5 589.3,352.7 592.4,351.6" fill="none" stroke="#2364aa" stroke-width="2" stroke-linejoin="round"/>
<polyline points="167.6,209.6 170.7,211.0 173.7,212.6 176.8,214.5 179.8,216.6 182.9,218.9 185.9,221.4 189.0,224.2 192.0,227.1 195.1,230.2 198.2,233.5 201.2,236.9 204.3,240.4 207.3,244.0 210.4,247.7 213.4,251.5 216.5,255.3 219.6,259.2 222.6,263.0 225.7,266.9 228.7,270.7 231.8,274.4 234.8,278.1 237.9,281.6 240.9,285.1 244.0,288.4 247.1,291.6 250.1,294.6 253.2,297.4 256.2,300.1 259.3,302.5 262.3,304.7 265.4,306.6 268.5,308.4 271.5,309.8 274.6,311.0 277.6,311.9 280.7,312.6 283.7,313.0 286.8,313.1 289.8,312.9 292.9,312.5 296.0,311.7 299.0,310.7 302.1,309.5 305.1,307.9 308.2,306.2 311.2,304.1 314.3,301.9 317.3,299.4 320.4,296.7 323.5,293.9 326.5,290.8 329.6,287.6 332.6,284.2 335.7,280.8 338.7,277.2 341.8,273.5 344.9,269.7 347.9,265.9 351.0,262.1 354.0,258.2 357.1,254.4 360.1,250.6 363.2,246.8 366.2,243.1 369.3,239.5 372.4,236.0 375.4,232.6 378.5,229.4 381.5,226.4 384.6,223.5 387.6,220.8 390.7,218.3 393.8,216.0 396.8,214.0 399.9,212.2 402.9,210.6 406.0,209.3 409.0,208.3 412.1,207.6 415.1,207.1 418.2,206.9 421.3,207.0 424.3,207.4 427.4,208.0 430.4,208.9 433.5,210.1 436.5,211.5 439.6,213.2 442.7,215.2 445.7,217.4 448.8,219.8 451.8,222.4 454.9,225.2 457.9,228.2 461.0,231.4 464.0,234.7 467.1,238.1 470.2,241.7 473.2,245.3 476.3,249.1 479.3,252.9 482.4,256.7 485.4,260.5 488.5,264.4 491.5,268.2 494.6,272.0 497.7,275.7 500.7,279.3 503.8,282.9 506.8,286.3 509.9,289.6 512.9,292.7 516.0,295.6 519.1,298.4 522.1,300.9 525.2,303.3 528.2,305.4 531.3,307.3 534.3,308.9 537.4,310.3 540.4,311.4 543.5,312.2 546.6,312.8 549.6,313.1 552.7,313.1 555.7,312.8 558.8,312.2 561.8,311.4 564.9,310.3 568.0,309.0 571.0,307.3 574.1,305.5 577.1,303.4 580.2,301.0 583.2,298.5 586.3,295.7 589.3,292.8 592.4,289.7" fill="none" stroke="#f97316" stroke-width="2" stroke-linejoin="round"/>
<polyline points="167.6,188.8 170.7,192.0 173.7,195.4 176.8,199.0 179.8,202.6 182.9,206.3 185.9,210.1 189.0,213.9 192.0,217.7 195.1,221.6 198.2,225.4 201.2,229.2 204.3,233.0 207.3,236.6 210.4,240.2 213.4,243.7 216.5,247.0 219.6,250.2 222.6,253.2 225.7,256.0 228.7,258.7 231.8,261.1 234.8,263.3 237.9,265.3 240.9,267.0 244.0,268.5 247.1,269.7 250.1,270.6 253.2,271.3 256.2,271.7 259.3,271.8 262.3,271.6 265.4,271.2 268.5,270.5 271.5,269.5 274.6,268.2 277.6,266.7 280.7,264.9 283.7,262.9 286.8,260.7 289.8,258.2 292.9,255.5 296.0,252.7 299.0,249.6 302.1,246.4 305.1,243.1 308.2,239.6 311.2,236.0 314.3,232.3 317.3,228.6 320.4,224.7 323.5,220.9 326.5,217.1 329.6,213.2 332.6,209.4 335.7,205.6 338.7,201.9 341.8,198.3 344.9,194.8 347.9,191.5 351.0,188.2 354.0,185.2 357.1,182.3 360.1,179.6 363.2,177.1 366.2,174.8 369.3,172.7 372.4,170.9 375.4,169.4 378.5,168.1 381.5,167.1 384.6,166.3 387.6,165.8 390.7,165.6 393.8,165.7 396.8,166.0 399.9,166.7 402.9,167.6 406.0,168.7 409.0,170.2 412.1,171.9 415.1,173.8 418.2,176.0 421.3,178.4 424.3,181.0 427.4,183.8 430.4,186.8 433.5,189.9 436.5,193.2 439.6,196.7 442.7,200.2 445.7,203.9 448.8,207.6 451.8,211.4 454.9,215.3 457.9,219.1 461.0,223.0 464.0,226.8 467.1,230.6 470.2,234.3 473.2,237.9 476.3,241.4 479.3,244.9 482.4,248.1 485.4,251.3 488.5,254.2 491.5,257.0 494.6,259.6 497.7,261.9 500.7,264.0 503.8,265.9 506.8,267.5 509.9,268.9 512.9,270.0 516.0,270.9 519.1,271.5 522.1,271.8 525.2,271.8 528.2,271.5 531.3,271.0 534.3,270.2 537.4,269.1 540.4,267.7 543.5,266.1 546.6,264.2 549.6,262.2 552.7,259.8 555.7,257.3 558.8,254.5 561.8,251.6 564.9,248.5 568.0,245.2 571.0,241.8 574.1,238.3 577.1,234.7 580.2,231.0 583.2,227.2 586.3,223.4 589.3,219.5 592.4,215.7" fill="none" stroke="#2f9e44" stroke-width="2" stroke-linejoin="round"/>
<line x1="167.6" y1="260.0" x2="592.4" y2="260.0" stroke="#d8dee9" stroke-width="1" stroke-dasharray="4 4"/></g></svg>