<svg xmlns="http://www.w3.org/2000/svg" width="760" height="520" viewBox="0 0 760 520"><rect width="760" height="520" fill="#fffdf7"/><text x="28" y="38" font-size="24" font-family="DejaVu Sans, Arial" font-weight="700" fill="#1f2933">Chapter 08: Coordinates</text><text x="28" y="64" font-size="14" font-family="DejaVu Sans, Arial" fill="#1f2933">coordinate grids, conic level sets, polar curves, tangent and area approximations, and 3D coordinate frames</text><g font-family="DejaVu Sans, Arial"><polyline points="391.8,260.0 393.1,258.3 394.2,256.2 394.9,253.8 395.2,251.2 395.0,248.4 394.3,245.5 393.2,242.6 391.5,239.7 389.2,237.1 386.5,234.6 383.3,232.6 379.6,230.9 375.6,229.8 371.3,229.3 366.7,229.4 362.1,230.2 357.4,231.7 352.8,233.9 348.5,236.8 344.4,240.5 340.8,244.8 337.8,249.8 335.4,255.3 333.7,261.2 332.9,267.5 332.9,274.1 333.8,280.8 335.7,287.4 338.6,293.9 342.5,300.1 347.2,305.9 352.9,311.1 359.3,315.5 366.5,319.2 374.3,321.9 382.5,323.5 391.1,324.0 399.9,323.4 408.6,321.5 417.3,318.4 425.6,314.1 433.3,308.6 440.5,302.0 446.7,294.3 452.0,285.7 456.2,276.3 459.1,266.3 460.7,255.7 460.9,244.9 459.5,233.9 456.7,223.1 452.4,212.5 446.6,202.4 439.4,193.1 430.9,184.7 421.1,177.4 410.4,171.3 398.7,166.7 386.4,163.6 373.5,162.1 360.4,162.4 347.3,164.5 334.4,168.4 321.9,174.0 310.1,181.3 299.3,190.2 289.6,200.7 281.3,212.5 274.5,225.4 269.5,239.3 266.3,254.0 265.0,269.1 265.8,284.5 268.7,299.8 273.6,314.7 280.6,329.1 289.5,342.5 300.2,354.8 312.6,365.7 326.5,375.0 341.7,382.4 357.9,387.8 374.8,391.0 392.2,392.0 409.8,390.7 427.3,386.9 444.2,380.9 460.4,372.5 475.5,362.0 489.2,349.5 501.3,335.1 511.4,319.1 519.4,301.7 525.1,283.2 528.3,263.9 529.0,244.2 527.0,224.4 522.4,204.8 515.2,185.9 505.4,167.9 493.2,151.2 478.8,136.1 462.4,123.0 444.2,112.0 424.5,103.4 403.8,97.5 382.2,94.4 360.2,94.1 338.2,96.8 316.5,102.3 295.6,110.8 275.8,122.1 257.6,136.0 241.2,152.3 227.0,170.8 215.2,191.1 206.2,213.0 200.1,236.1 197.1,260.0" fill="none" stroke="#f97316" stroke-width="3" stroke-linejoin="round"/>
<circle cx="391.8" cy="260.0" r="3" fill="#2364aa"/>
<circle cx="352.8" cy="233.9" r="3" fill="#2364aa"/>
<circle cx="382.5" cy="323.5" r="3" fill="#2364aa"/>
<circle cx="439.4" cy="193.1" r="3" fill="#2364aa"/>
<circle cx="265.0" cy="269.1" r="3" fill="#2364aa"/>
<circle cx="489.2" cy="349.5" r="3" fill="#2364aa"/>
<circle cx="360.2" cy="94.1" r="3" fill="#2364aa"/></g></svg>