<svg xmlns="http://www.w3.org/2000/svg" width="760" height="520" viewBox="0 0 760 520"><rect width="760" height="520" fill="#fffdf7"/><text x="28" y="38" font-size="24" font-family="DejaVu Sans, Arial" font-weight="700" fill="#1f2933">Chapter 08 experiment</text><text x="28" y="64" font-size="14" font-family="DejaVu Sans, Arial" fill="#1f2933">Perturb the model and inspect what remains invariant</text><g font-family="DejaVu Sans, Arial"><polyline points="167.6,296.1 170.7,298.6 173.7,301.0 176.8,303.5 179.8,306.0 182.9,308.4 185.9,310.9 189.0,313.3 192.0,315.7 195.1,318.1 198.2,320.4 201.2,322.7 204.3,324.9 207.3,327.1 210.4,329.2 213.4,331.3 216.5,333.3 219.6,335.3 222.6,337.1 225.7,338.9 228.7,340.6 231.8,342.2 234.8,343.8 237.9,345.2 240.9,346.6 244.0,347.8 247.1,348.9 250.1,350.0 253.2,350.9 256.2,351.7 259.3,352.5 262.3,353.1 265.4,353.6 268.5,353.9 271.5,354.2 274.6,354.4 277.6,354.4 280.7,354.3 283.7,354.1 286.8,353.8 289.8,353.4 292.9,352.9 296.0,352.2 299.0,351.4 302.1,350.6 305.1,349.6 308.2,348.5 311.2,347.3 314.3,346.0 317.3,344.7 320.4,343.2 323.5,341.6 326.5,340.0 329.6,338.2 332.6,336.4 335.7,334.5 338.7,332.6 341.8,330.5 344.9,328.4 347.9,326.3 351.0,324.1 354.0,321.8 357.1,319.5 360.1,317.1 363.2,314.8 366.2,312.4 369.3,309.9 372.4,307.5 375.4,305.0 378.5,302.5 381.5,300.1 384.6,297.6 387.6,295.1 390.7,292.7 393.8,290.2 396.8,287.8 399.9,285.5 402.9,283.1 406.0,280.8 409.0,278.5 412.1,276.3 415.1,274.2 418.2,272.1 421.3,270.0 424.3,268.1 427.4,266.2 430.4,264.4 433.5,262.6 436.5,261.0 439.6,259.4 442.7,257.9 445.7,256.6 448.8,255.3 451.8,254.1 454.9,253.0 457.9,252.0 461.0,251.2 464.0,250.4 467.1,249.7 470.2,249.2 473.2,248.8 476.3,248.5 479.3,248.3 482.4,248.2 485.4,248.2 488.5,248.4 491.5,248.7 494.6,249.0 497.7,249.5 500.7,250.1 503.8,250.9 506.8,251.7 509.9,252.6 512.9,253.7 516.0,254.8 519.1,256.0 522.1,257.4 525.2,258.8 528.2,260.4 531.3,262.0 534.3,263.7 537.4,265.5 540.4,267.3 543.5,269.3 546.6,271.3 549.6,273.4 552.7,275.5 555.7,277.7 558.8,279.9 561.8,282.2 564.9,284.5 568.0,286.9 571.0,289.3 574.1,291.7 577.1,294.2 580.2,296.6 583.2,299.1 586.3,301.6 589.3,304.0 592.4,306.5" fill="none" stroke="#2364aa" stroke-width="2" stroke-linejoin="round"/>
<polyline points="167.6,287.8 170.7,289.9 173.7,291.9 176.8,293.9 179.8,295.7 182.9,297.5 185.9,299.2 189.0,300.9 192.0,302.4 195.1,303.8 198.2,305.2 201.2,306.4 204.3,307.6 207.3,308.6 210.4,309.6 213.4,310.4 216.5,311.1 219.6,311.7 222.6,312.2 225.7,312.6 228.7,312.9 231.8,313.1 234.8,313.1 237.9,313.0 240.9,312.8 244.0,312.5 247.1,312.1 250.1,311.6 253.2,310.9 256.2,310.2 259.3,309.3 262.3,308.4 265.4,307.3 268.5,306.1 271.5,304.8 274.6,303.4 277.6,302.0 280.7,300.4 283.7,298.8 286.8,297.0 289.8,295.2 292.9,293.3 296.0,291.4 299.0,289.3 302.1,287.2 305.1,285.1 308.2,282.9 311.2,280.6 314.3,278.3 317.3,276.0 320.4,273.6 323.5,271.2 326.5,268.8 329.6,266.3 332.6,263.9 335.7,261.4 338.7,258.9 341.8,256.4 344.9,254.0 347.9,251.5 351.0,249.1 354.0,246.7 357.1,244.3 360.1,241.9 363.2,239.6 366.2,237.4 369.3,235.2 372.4,233.0 375.4,230.9 378.5,228.9 381.5,226.9 384.6,225.0 387.6,223.2 390.7,221.4 393.8,219.8 396.8,218.2 399.9,216.7 402.9,215.3 406.0,214.0 409.0,212.8 412.1,211.8 415.1,210.8 418.2,209.9 421.3,209.1 424.3,208.5 427.4,207.9 430.4,207.5 433.5,207.2 436.5,207.0 439.6,206.9 442.7,206.9 445.7,207.1 448.8,207.3 451.8,207.7 454.9,208.2 457.9,208.8 461.0,209.5 464.0,210.3 467.1,211.3 470.2,212.3 473.2,213.4 476.3,214.7 479.3,216.0 482.4,217.4 485.4,219.0 488.5,220.6 491.5,222.3 494.6,224.1 497.7,225.9 500.7,227.9 503.8,229.9 506.8,231.9 509.9,234.1 512.9,236.3 516.0,238.5 519.1,240.8 522.1,243.1 525.2,245.5 528.2,247.9 531.3,250.3 534.3,252.7 537.4,255.2 540.4,257.7 543.5,260.1 546.6,262.6 549.6,265.1 552.7,267.5 555.7,270.0 558.8,272.4 561.8,274.8 564.9,277.1 568.0,279.5 571.0,281.8 574.1,284.0 577.1,286.2 580.2,288.3 583.2,290.4 586.3,292.4 589.3,294.3 592.4,296.1" fill="none" stroke="#f97316" stroke-width="2" stroke-linejoin="round"/>
<polyline points="167.6,268.2 170.7,269.1 173.7,269.8 176.8,270.4 179.8,270.9 182.9,271.3 185.9,271.6 189.0,271.8 192.0,271.8 195.1,271.7 198.2,271.6 201.2,271.3 204.3,270.8 207.3,270.3 210.4,269.7 213.4,268.9 216.5,268.1 219.6,267.1 222.6,266.0 225.7,264.9 228.7,263.6 231.8,262.2 234.8,260.8 237.9,259.2 240.9,257.6 244.0,255.8 247.1,254.0 250.1,252.1 253.2,250.2 256.2,248.2 259.3,246.1 262.3,243.9 265.4,241.7 268.5,239.5 271.5,237.2 274.6,234.8 277.6,232.4 280.7,230.0 283.7,227.6 286.8,225.2 289.8,222.7 292.9,220.2 296.0,217.7 299.0,215.3 302.1,212.8 305.1,210.4 308.2,207.9 311.2,205.5 314.3,203.1 317.3,200.8 320.4,198.5 323.5,196.2 326.5,194.0 329.6,191.8 332.6,189.7 335.7,187.7 338.7,185.7 341.8,183.8 344.9,182.0 347.9,180.2 351.0,178.6 354.0,177.0 357.1,175.5 360.1,174.1 363.2,172.8 366.2,171.6 369.3,170.5 372.4,169.5 375.4,168.7 378.5,167.9 381.5,167.2 384.6,166.7 387.6,166.2 390.7,165.9 393.8,165.7 396.8,165.6 399.9,165.6 402.9,165.8 406.0,166.0 409.0,166.4 412.1,166.9 415.1,167.5 418.2,168.2 421.3,169.0 424.3,169.9 427.4,170.9 430.4,172.1 433.5,173.3 436.5,174.6 439.6,176.1 442.7,177.6 445.7,179.2 448.8,180.9 451.8,182.7 454.9,184.5 457.9,186.4 461.0,188.4 464.0,190.5 467.1,192.6 470.2,194.8 473.2,197.1 476.3,199.3 479.3,201.7 482.4,204.0 485.4,206.4 488.5,208.8 491.5,211.3 494.6,213.7 497.7,216.2 500.7,218.7 503.8,221.2 506.8,223.6 509.9,226.1 512.9,228.5 516.0,231.0 519.1,233.4 522.1,235.7 525.2,238.0 528.2,240.3 531.3,242.6 534.3,244.7 537.4,246.9 540.4,248.9 543.5,250.9 546.6,252.9 549.6,254.7 552.7,256.5 555.7,258.2 558.8,259.8 561.8,261.3 564.9,262.8 568.0,264.1 571.0,265.3 574.1,266.5 577.1,267.5 580.2,268.4 583.2,269.2 586.3,269.9 589.3,270.5 592.4,271.0" fill="none" stroke="#2f9e44" stroke-width="2" stroke-linejoin="round"/>
<line x1="167.6" y1="260.0" x2="592.4" y2="260.0" stroke="#d8dee9" stroke-width="1" stroke-dasharray="4 4"/></g></svg>