<svg xmlns="http://www.w3.org/2000/svg" width="760" height="520" viewBox="0 0 760 520"><rect width="760" height="520" fill="#fffdf7"/><text x="28" y="38" font-size="24" font-family="DejaVu Sans, Arial" font-weight="700" fill="#1f2933">Chapter 10 experiment</text><text x="28" y="64" font-size="14" font-family="DejaVu Sans, Arial" fill="#1f2933">Perturb the model and inspect what remains invariant</text><g font-family="DejaVu Sans, Arial"><polyline points="167.6,277.8 170.7,280.3 173.7,282.9 176.8,285.5 179.8,288.1 182.9,290.8 185.9,293.5 189.0,296.2 192.0,299.0 195.1,301.7 198.2,304.5 201.2,307.2 204.3,309.9 207.3,312.6 210.4,315.3 213.4,317.9 216.5,320.5 219.6,323.1 222.6,325.5 225.7,327.9 228.7,330.3 231.8,332.6 234.8,334.7 237.9,336.8 240.9,338.8 244.0,340.7 247.1,342.5 250.1,344.2 253.2,345.7 256.2,347.2 259.3,348.5 262.3,349.7 265.4,350.8 268.5,351.7 271.5,352.5 274.6,353.2 277.6,353.7 280.7,354.1 283.7,354.3 286.8,354.4 289.8,354.4 292.9,354.2 296.0,353.8 299.0,353.4 302.1,352.8 305.1,352.0 308.2,351.1 311.2,350.1 314.3,348.9 317.3,347.7 320.4,346.3 323.5,344.7 326.5,343.1 329.6,341.4 332.6,339.5 335.7,337.5 338.7,335.5 341.8,333.3 344.9,331.1 347.9,328.8 351.0,326.4 354.0,323.9 357.1,321.4 360.1,318.8 363.2,316.2 366.2,313.6 369.3,310.9 372.4,308.2 375.4,305.4 378.5,302.7 381.5,299.9 384.6,297.2 387.6,294.4 390.7,291.7 393.8,289.0 396.8,286.4 399.9,283.8 402.9,281.2 406.0,278.7 409.0,276.2 412.1,273.8 415.1,271.5 418.2,269.3 421.3,267.1 424.3,265.1 427.4,263.1 430.4,261.2 433.5,259.5 436.5,257.9 439.6,256.3 442.7,254.9 445.7,253.7 448.8,252.5 451.8,251.5 454.9,250.6 457.9,249.8 461.0,249.2 464.0,248.8 467.1,248.4 470.2,248.2 473.2,248.2 476.3,248.3 479.3,248.5 482.4,248.9 485.4,249.4 488.5,250.1 491.5,250.9 494.6,251.8 497.7,252.9 500.7,254.1 503.8,255.4 506.8,256.9 509.9,258.4 512.9,260.1 516.0,261.9 519.1,263.8 522.1,265.8 525.2,267.9 528.2,270.0 531.3,272.3 534.3,274.7 537.4,277.1 540.4,279.5 543.5,282.1 546.6,284.7 549.6,287.3 552.7,290.0 555.7,292.7 558.8,295.4 561.8,298.1 564.9,300.9 568.0,303.6 571.0,306.4 574.1,309.1 577.1,311.8 580.2,314.5 583.2,317.1 586.3,319.7 589.3,322.3 592.4,324.8" fill="none" stroke="#2364aa" stroke-width="2" stroke-linejoin="round"/>
<polyline points="167.6,270.1 170.7,272.8 173.7,275.4 176.8,278.1 179.8,280.6 182.9,283.1 185.9,285.6 189.0,287.9 192.0,290.2 195.1,292.5 198.2,294.6 201.2,296.6 204.3,298.6 207.3,300.4 210.4,302.1 213.4,303.8 216.5,305.3 219.6,306.6 222.6,307.9 225.7,309.0 228.7,310.0 231.8,310.9 234.8,311.6 237.9,312.2 240.9,312.6 244.0,312.9 247.1,313.1 250.1,313.1 253.2,313.0 256.2,312.7 259.3,312.3 262.3,311.7 265.4,311.1 268.5,310.2 271.5,309.3 274.6,308.2 277.6,307.0 280.7,305.6 283.7,304.1 286.8,302.6 289.8,300.9 292.9,299.0 296.0,297.1 299.0,295.1 302.1,293.0 305.1,290.8 308.2,288.5 311.2,286.2 314.3,283.7 317.3,281.3 320.4,278.7 323.5,276.1 326.5,273.5 329.6,270.8 332.6,268.1 335.7,265.4 338.7,262.6 341.8,259.9 344.9,257.1 347.9,254.4 351.0,251.6 354.0,248.9 357.1,246.3 360.1,243.6 363.2,241.0 366.2,238.5 369.3,236.0 372.4,233.6 375.4,231.2 378.5,229.0 381.5,226.8 384.6,224.7 387.6,222.7 390.7,220.8 393.8,219.0 396.8,217.3 399.9,215.7 402.9,214.2 406.0,212.9 409.0,211.7 412.1,210.6 415.1,209.7 418.2,208.9 421.3,208.2 424.3,207.7 427.4,207.3 430.4,207.0 433.5,206.9 436.5,206.9 439.6,207.1 442.7,207.4 445.7,207.9 448.8,208.5 451.8,209.2 454.9,210.1 457.9,211.1 461.0,212.2 464.0,213.5 467.1,214.9 470.2,216.4 473.2,218.0 476.3,219.8 479.3,221.6 482.4,223.6 485.4,225.6 488.5,227.7 491.5,230.0 494.6,232.3 497.7,234.7 500.7,237.1 503.8,239.6 506.8,242.2 509.9,244.8 512.9,247.5 516.0,250.2 519.1,252.9 522.1,255.6 525.2,258.3 528.2,261.1 531.3,263.8 534.3,266.6 537.4,269.3 540.4,272.0 543.5,274.7 546.6,277.3 549.6,279.9 552.7,282.4 555.7,284.8 558.8,287.2 561.8,289.6 564.9,291.8 568.0,294.0 571.0,296.0 574.1,298.0 577.1,299.9 580.2,301.6 583.2,303.3 586.3,304.8 589.3,306.2 592.4,307.5" fill="none" stroke="#f97316" stroke-width="2" stroke-linejoin="round"/>
<polyline points="167.6,258.3 170.7,260.1 173.7,261.7 176.8,263.3 179.8,264.7 182.9,266.0 185.9,267.2 189.0,268.3 192.0,269.2 195.1,270.0 198.2,270.6 201.2,271.1 204.3,271.5 207.3,271.7 210.4,271.8 213.4,271.7 216.5,271.5 219.6,271.2 222.6,270.7 225.7,270.1 228.7,269.3 231.8,268.4 234.8,267.4 237.9,266.2 240.9,264.9 244.0,263.5 247.1,262.0 250.1,260.3 253.2,258.6 256.2,256.7 259.3,254.7 262.3,252.7 265.4,250.5 268.5,248.3 271.5,245.9 274.6,243.6 277.6,241.1 280.7,238.6 283.7,236.0 286.8,233.4 289.8,230.7 292.9,228.0 296.0,225.3 299.0,222.6 302.1,219.8 305.1,217.1 308.2,214.3 311.2,211.6 314.3,208.9 317.3,206.2 320.4,203.5 323.5,200.9 326.5,198.3 329.6,195.8 332.6,193.4 335.7,191.0 338.7,188.7 341.8,186.5 344.9,184.3 347.9,182.3 351.0,180.3 354.0,178.5 357.1,176.7 360.1,175.1 363.2,173.6 366.2,172.2 369.3,170.9 372.4,169.8 375.4,168.8 378.5,167.9 381.5,167.2 384.6,166.6 387.6,166.1 390.7,165.8 393.8,165.6 396.8,165.6 399.9,165.7 402.9,166.0 406.0,166.4 409.0,166.9 412.1,167.6 415.1,168.4 418.2,169.3 421.3,170.4 424.3,171.6 427.4,172.9 430.4,174.4 433.5,176.0 436.5,177.7 439.6,179.5 442.7,181.4 445.7,183.4 448.8,185.5 451.8,187.7 454.9,189.9 457.9,192.3 461.0,194.7 464.0,197.2 467.1,199.7 470.2,202.3 473.2,205.0 476.3,207.6 479.3,210.3 482.4,213.1 485.4,215.8 488.5,218.6 491.5,221.3 494.6,224.0 497.7,226.8 500.7,229.5 503.8,232.2 506.8,234.8 509.9,237.4 512.9,239.9 516.0,242.4 519.1,244.9 522.1,247.2 525.2,249.5 528.2,251.7 531.3,253.8 534.3,255.8 537.4,257.7 540.4,259.6 543.5,261.3 546.6,262.8 549.6,264.3 552.7,265.7 555.7,266.9 558.8,268.0 561.8,268.9 564.9,269.8 568.0,270.4 571.0,271.0 574.1,271.4 577.1,271.7 580.2,271.8 583.2,271.8 586.3,271.6 589.3,271.3 592.4,270.9" fill="none" stroke="#2f9e44" stroke-width="2" stroke-linejoin="round"/>
<line x1="167.6" y1="260.0" x2="592.4" y2="260.0" stroke="#d8dee9" stroke-width="1" stroke-dasharray="4 4"/></g></svg>