<svg xmlns="http://www.w3.org/2000/svg" width="760" height="520" viewBox="0 0 760 520"><rect width="760" height="520" fill="#fffdf7"/><text x="28" y="38" font-size="24" font-family="DejaVu Sans, Arial" font-weight="700" fill="#1f2933">Chapter 20 experiment</text><text x="28" y="64" font-size="14" font-family="DejaVu Sans, Arial" fill="#1f2933">Perturb the model and inspect what remains invariant</text><g font-family="DejaVu Sans, Arial"><circle cx="380.0" cy="260.0" r="182.9" fill="none" stroke="#1f2933" stroke-width="2"/>
<polyline points="243.7,139.3 247.4,144.0 251.3,148.6 255.4,153.0 259.5,157.3 263.9,161.5 268.4,165.5 273.0,169.3 277.7,173.0 282.6,176.5 287.6,179.8 292.7,183.0 297.9,185.9 303.3,188.7 308.7,191.3 314.2,193.7 319.8,195.9 325.4,198.0 331.1,199.8 336.9,201.4 342.8,202.8 348.6,204.0 354.6,205.0 360.5,205.8 366.5,206.4 372.5,206.7 378.5,206.9 384.5,206.8 390.5,206.6 396.5,206.1 402.5,205.4 408.4,204.5 414.3,203.4 420.2,202.1 426.0,200.6 431.7,198.9 437.4,197.0 443.0,194.9 448.6,192.6 454.0,190.0 459.4,187.4 464.7,184.5 469.8,181.4 474.9,178.2 479.8,174.8 484.7,171.2 489.3,167.4 493.9,163.5 498.3,159.4 502.6,155.2 506.7,150.8 510.6,146.3 514.4,141.6 518.1,136.9" fill="none" stroke="#2f9e44" stroke-width="2" stroke-linejoin="round"/>
<polyline points="518.1,383.1 514.4,378.4 510.6,373.7 506.7,369.2 502.6,364.8 498.3,360.6 493.9,356.5 489.3,352.6 484.7,348.8 479.8,345.2 474.9,341.8 469.8,338.6 464.7,335.5 459.4,332.6 454.0,330.0 448.6,327.4 443.0,325.1 437.4,323.0 431.7,321.1 426.0,319.4 420.2,317.9 414.3,316.6 408.4,315.5 402.5,314.6 396.5,313.9 390.5,313.4 384.5,313.2 378.5,313.1 372.5,313.3 366.5,313.6 360.5,314.2 354.6,315.0 348.6,316.0 342.8,317.2 336.9,318.6 331.1,320.2 325.4,322.0 319.8,324.1 314.2,326.3 308.7,328.7 303.3,331.3 297.9,334.1 292.7,337.0 287.6,340.2 282.6,343.5 277.7,347.0 273.0,350.7 268.4,354.5 263.9,358.5 259.5,362.7 255.4,367.0 251.3,371.4 247.4,376.0 243.7,380.7" fill="none" stroke="#2f9e44" stroke-width="2" stroke-linejoin="round"/>
<polyline points="512.8,135.9 508.4,138.7 504.2,141.7 500.1,144.9 496.2,148.2 492.3,151.7 488.6,155.2 484.9,159.0 481.5,162.8 478.1,166.7 474.9,170.8 471.9,175.0 469.0,179.3 466.2,183.7 463.6,188.1 461.2,192.7 458.9,197.3 456.8,202.1 454.8,206.9 453.0,211.7 451.4,216.6 450.0,221.6 448.7,226.6 447.6,231.7 446.7,236.8 446.0,241.9 445.5,247.1 445.1,252.2 444.9,257.4 444.9,262.6 445.1,267.8 445.5,272.9 446.0,278.1 446.7,283.2 447.6,288.3 448.7,293.4 450.0,298.4 451.4,303.4 453.0,308.3 454.8,313.1 456.8,317.9 458.9,322.7 461.2,327.3 463.6,331.9 466.2,336.3 469.0,340.7 471.9,345.0 474.9,349.2 478.1,353.3 481.5,357.2 484.9,361.0 488.6,364.8 492.3,368.3 496.2,371.8 500.1,375.1 504.2,378.3 508.4,381.3 512.8,384.1" fill="none" stroke="#2f9e44" stroke-width="2" stroke-linejoin="round"/>
<polyline points="315.1,260.0 315.0,254.8 314.7,249.7 314.3,244.5 313.6,239.4 312.8,234.2 311.8,229.2 310.7,224.1 309.3,219.1 307.8,214.2 306.1,209.3 304.2,204.5 302.2,199.7 300.0,195.0 297.6,190.4 295.1,185.9 292.4,181.4 289.6,177.1 286.6,172.9 283.5,168.8 280.2,164.7 276.8,160.9 273.3,157.1 269.6,153.4 265.8,149.9 261.9,146.5 257.8,143.3 253.7,140.2 249.4,137.3 245.1,134.5 245.1,385.5 249.4,382.7 253.7,379.8 257.8,376.7 261.9,373.5 265.8,370.1 269.6,366.6 273.3,362.9 276.8,359.1 280.2,355.3 283.5,351.2 286.6,347.1 289.6,342.9 292.4,338.6 295.1,334.1 297.6,329.6 300.0,325.0 302.2,320.3 304.2,315.5 306.1,310.7 307.8,305.8 309.3,300.9 310.7,295.9 311.8,290.8 312.8,285.8 313.6,280.6 314.3,275.5 314.7,270.3 315.0,265.2 315.1,260.0" fill="none" stroke="#2f9e44" stroke-width="2" stroke-linejoin="round"/></g></svg>