<svg xmlns="http://www.w3.org/2000/svg" width="760" height="520" viewBox="0 0 760 520"><rect width="760" height="520" fill="#fffdf7"/><text x="28" y="38" font-size="24" font-family="DejaVu Sans, Arial" font-weight="700" fill="#1f2933">Chapter 19 experiment</text><text x="28" y="64" font-size="14" font-family="DejaVu Sans, Arial" fill="#1f2933">Perturb the model and inspect what remains invariant</text><g font-family="DejaVu Sans, Arial"><polyline points="247.8,392.2 269.9,396.7 291.9,400.4 313.9,403.3 335.9,405.3 358.0,406.6 380.0,407.0 402.0,406.6 424.1,405.3 446.1,403.3 468.1,400.4 490.1,396.7 512.2,392.2" fill="none" stroke="#2364aa" stroke-width="1" stroke-linejoin="round"/>
<polyline points="247.8,365.6 269.9,370.1 291.9,373.8 313.9,376.7 335.9,378.8 358.0,380.0 380.0,380.4 402.0,380.0 424.1,378.8 446.1,376.7 468.1,373.8 490.1,370.1 512.2,365.6" fill="none" stroke="#2364aa" stroke-width="1" stroke-linejoin="round"/>
<polyline points="247.8,339.9 269.9,344.4 291.9,348.1 313.9,351.0 335.9,353.0 358.0,354.3 380.0,354.7 402.0,354.3 424.1,353.0 446.1,351.0 468.1,348.1 490.1,344.4 512.2,339.9" fill="none" stroke="#2364aa" stroke-width="1" stroke-linejoin="round"/>
<polyline points="247.8,315.0 269.9,319.5 291.9,323.2 313.9,326.1 335.9,328.1 358.0,329.4 380.0,329.8 402.0,329.4 424.1,328.1 446.1,326.1 468.1,323.2 490.1,319.5 512.2,315.0" fill="none" stroke="#2364aa" stroke-width="1" stroke-linejoin="round"/>
<polyline points="247.8,290.9 269.9,295.4 291.9,299.1 313.9,302.0 335.9,304.1 358.0,305.3 380.0,305.7 402.0,305.3 424.1,304.1 446.1,302.0 468.1,299.1 490.1,295.4 512.2,290.9" fill="none" stroke="#2364aa" stroke-width="1" stroke-linejoin="round"/>
<polyline points="247.8,267.6 269.9,272.2 291.9,275.9 313.9,278.7 335.9,280.8 358.0,282.0 380.0,282.4 402.0,282.0 424.1,280.8 446.1,278.7 468.1,275.9 490.1,272.2 512.2,267.6" fill="none" stroke="#2364aa" stroke-width="1" stroke-linejoin="round"/>
<polyline points="247.8,245.2 269.9,249.7 291.9,253.4 313.9,256.3 335.9,258.4 358.0,259.6 380.0,260.0 402.0,259.6 424.1,258.4 446.1,256.3 468.1,253.4 490.1,249.7 512.2,245.2" fill="none" stroke="#2364aa" stroke-width="1" stroke-linejoin="round"/>
<polyline points="247.8,223.6 269.9,228.1 291.9,231.8 313.9,234.7 335.9,236.7 358.0,238.0 380.0,238.4 402.0,238.0 424.1,236.7 446.1,234.7 468.1,231.8 490.1,228.1 512.2,223.6" fill="none" stroke="#2364aa" stroke-width="1" stroke-linejoin="round"/>
<polyline points="247.8,202.8 269.9,207.3 291.9,211.0 313.9,213.9 335.9,215.9 358.0,217.2 380.0,217.6 402.0,217.2 424.1,215.9 446.1,213.9 468.1,211.0 490.1,207.3 512.2,202.8" fill="none" stroke="#2364aa" stroke-width="1" stroke-linejoin="round"/>
<polyline points="247.8,182.8 269.9,187.3 291.9,191.0 313.9,193.9 335.9,196.0 358.0,197.2 380.0,197.6 402.0,197.2 424.1,196.0 446.1,193.9 468.1,191.0 490.1,187.3 512.2,182.8" fill="none" stroke="#2364aa" stroke-width="1" stroke-linejoin="round"/>
<polyline points="247.8,163.7 269.9,168.2 291.9,171.9 313.9,174.8 335.9,176.8 358.0,178.1 380.0,178.5 402.0,178.1 424.1,176.8 446.1,174.8 468.1,171.9 490.1,168.2 512.2,163.7" fill="none" stroke="#2364aa" stroke-width="1" stroke-linejoin="round"/>
<polyline points="247.8,145.3 269.9,149.9 291.9,153.6 313.9,156.4 335.9,158.5 358.0,159.7 380.0,160.1 402.0,159.7 424.1,158.5 446.1,156.4 468.1,153.6 490.1,149.9 512.2,145.3" fill="none" stroke="#2364aa" stroke-width="1" stroke-linejoin="round"/>
<polyline points="247.8,127.8 269.9,132.4 291.9,136.1 313.9,138.9 335.9,141.0 358.0,142.2 380.0,142.6 402.0,142.2 424.1,141.0 446.1,138.9 468.1,136.1 490.1,132.4 512.2,127.8" fill="none" stroke="#2364aa" stroke-width="1" stroke-linejoin="round"/>
<polyline points="247.8,392.2 247.8,365.6 247.8,339.9 247.8,315.0 247.8,290.9 247.8,267.6 247.8,245.2 247.8,223.6 247.8,202.8 247.8,182.8 247.8,163.7 247.8,145.3 247.8,127.8" fill="none" stroke="#f97316" stroke-width="1" stroke-linejoin="round"/>
<polyline points="269.9,396.7 269.9,370.1 269.9,344.4 269.9,319.5 269.9,295.4 269.9,272.2 269.9,249.7 269.9,228.1 269.9,207.3 269.9,187.3 269.9,168.2 269.9,149.9 269.9,132.4" fill="none" stroke="#f97316" stroke-width="1" stroke-linejoin="round"/>
<polyline points="291.9,400.4 291.9,373.8 291.9,348.1 291.9,323.2 291.9,299.1 291.9,275.9 291.9,253.4 291.9,231.8 291.9,211.0 291.9,191.0 291.9,171.9 291.9,153.6 291.9,136.1" fill="none" stroke="#f97316" stroke-width="1" stroke-linejoin="round"/>
<polyline points="313.9,403.3 313.9,376.7 313.9,351.0 313.9,326.1 313.9,302.0 313.9,278.7 313.9,256.3 313.9,234.7 313.9,213.9 313.9,193.9 313.9,174.8 313.9,156.4 313.9,138.9" fill="none" stroke="#f97316" stroke-width="1" stroke-linejoin="round"/>
<polyline points="335.9,405.3 335.9,378.8 335.9,353.0 335.9,328.1 335.9,304.1 335.9,280.8 335.9,258.4 335.9,236.7 335.9,215.9 335.9,196.0 335.9,176.8 335.9,158.5 335.9,141.0" fill="none" stroke="#f97316" stroke-width="1" stroke-linejoin="round"/>
<polyline points="358.0,406.6 358.0,380.0 358.0,354.3 358.0,329.4 358.0,305.3 358.0,282.0 358.0,259.6 358.0,238.0 358.0,217.2 358.0,197.2 358.0,178.1 358.0,159.7 358.0,142.2" fill="none" stroke="#f97316" stroke-width="1" stroke-linejoin="round"/>
<polyline points="380.0,407.0 380.0,380.4 380.0,354.7 380.0,329.8 380.0,305.7 380.0,282.4 380.0,260.0 380.0,238.4 380.0,217.6 380.0,197.6 380.0,178.5 380.0,160.1 380.0,142.6" fill="none" stroke="#f97316" stroke-width="1" stroke-linejoin="round"/>
<polyline points="402.0,406.6 402.0,380.0 402.0,354.3 402.0,329.4 402.0,305.3 402.0,282.0 402.0,259.6 402.0,238.0 402.0,217.2 402.0,197.2 402.0,178.1 402.0,159.7 402.0,142.2" fill="none" stroke="#f97316" stroke-width="1" stroke-linejoin="round"/>
<polyline points="424.1,405.3 424.1,378.8 424.1,353.0 424.1,328.1 424.1,304.1 424.1,280.8 424.1,258.4 424.1,236.7 424.1,215.9 424.1,196.0 424.1,176.8 424.1,158.5 424.1,141.0" fill="none" stroke="#f97316" stroke-width="1" stroke-linejoin="round"/>
<polyline points="446.1,403.3 446.1,376.7 446.1,351.0 446.1,326.1 446.1,302.0 446.1,278.7 446.1,256.3 446.1,234.7 446.1,213.9 446.1,193.9 446.1,174.8 446.1,156.4 446.1,138.9" fill="none" stroke="#f97316" stroke-width="1" stroke-linejoin="round"/>
<polyline points="468.1,400.4 468.1,373.8 468.1,348.1 468.1,323.2 468.1,299.1 468.1,275.9 468.1,253.4 468.1,231.8 468.1,211.0 468.1,191.0 468.1,171.9 468.1,153.6 468.1,136.1" fill="none" stroke="#f97316" stroke-width="1" stroke-linejoin="round"/>
<polyline points="490.1,396.7 490.1,370.1 490.1,344.4 490.1,319.5 490.1,295.4 490.1,272.2 490.1,249.7 490.1,228.1 490.1,207.3 490.1,187.3 490.1,168.2 490.1,149.9 490.1,132.4" fill="none" stroke="#f97316" stroke-width="1" stroke-linejoin="round"/>
<polyline points="512.2,392.2 512.2,365.6 512.2,339.9 512.2,315.0 512.2,290.9 512.2,267.6 512.2,245.2 512.2,223.6 512.2,202.8 512.2,182.8 512.2,163.7 512.2,145.3 512.2,127.8" fill="none" stroke="#f97316" stroke-width="1" stroke-linejoin="round"/></g></svg>