<svg xmlns="http://www.w3.org/2000/svg" width="760" height="520" viewBox="0 0 760 520"><rect width="760" height="520" fill="#fffdf7"/><text x="28" y="38" font-size="24" font-family="DejaVu Sans, Arial" font-weight="700" fill="#1f2933">Chapter 14 experiment</text><text x="28" y="64" font-size="14" font-family="DejaVu Sans, Arial" fill="#1f2933">Perturb the model and inspect what remains invariant</text><g font-family="DejaVu Sans, Arial"><polyline points="167.6,252.2 170.7,253.6 173.7,255.1 176.8,256.9 179.8,258.7 182.9,260.8 185.9,263.0 189.0,265.4 192.0,267.9 195.1,270.5 198.2,273.2 201.2,276.1 204.3,279.0 207.3,282.1 210.4,285.2 213.4,288.4 216.5,291.6 219.6,294.9 222.6,298.1 225.7,301.4 228.7,304.7 231.8,308.0 234.8,311.3 237.9,314.5 240.9,317.7 244.0,320.8 247.1,323.8 250.1,326.8 253.2,329.6 256.2,332.3 259.3,335.0 262.3,337.4 265.4,339.8 268.5,342.0 271.5,344.0 274.6,345.9 277.6,347.6 280.7,349.1 283.7,350.5 286.8,351.6 289.8,352.6 292.9,353.3 296.0,353.9 299.0,354.2 302.1,354.4 305.1,354.3 308.2,354.1 311.2,353.6 314.3,352.9 317.3,352.1 320.4,351.0 323.5,349.8 326.5,348.3 329.6,346.7 332.6,344.9 335.7,342.9 338.7,340.8 341.8,338.5 344.9,336.1 347.9,333.5 351.0,330.9 354.0,328.1 357.1,325.2 360.1,322.2 363.2,319.1 366.2,316.0 369.3,312.8 372.4,309.5 375.4,306.2 378.5,303.0 381.5,299.6 384.6,296.4 387.6,293.1 390.7,289.8 393.8,286.6 396.8,283.5 399.9,280.4 402.9,277.4 406.0,274.5 409.0,271.7 412.1,269.1 415.1,266.5 418.2,264.1 421.3,261.8 424.3,259.7 427.4,257.7 430.4,255.9 433.5,254.3 436.5,252.8 439.6,251.6 442.7,250.5 445.7,249.7 448.8,249.0 451.8,248.5 454.9,248.3 457.9,248.2 461.0,248.4 464.0,248.7 467.1,249.3 470.2,250.0 473.2,251.0 476.3,252.1 479.3,253.5 482.4,255.0 485.4,256.7 488.5,258.6 491.5,260.6 494.6,262.8 497.7,265.2 500.7,267.6 503.8,270.3 506.8,273.0 509.9,275.8 512.9,278.8 516.0,281.8 519.1,284.9 522.1,288.1 525.2,291.3 528.2,294.6 531.3,297.9 534.3,301.2 537.4,304.5 540.4,307.7 543.5,311.0 546.6,314.2 549.6,317.4 552.7,320.5 555.7,323.6 558.8,326.5 561.8,329.4 564.9,332.1 568.0,334.7 571.0,337.2 574.1,339.6 577.1,341.8 580.2,343.9 583.2,345.7 586.3,347.5 589.3,349.0 592.4,350.4" fill="none" stroke="#2364aa" stroke-width="2" stroke-linejoin="round"/>
<polyline points="167.6,233.2 170.7,236.1 173.7,239.1 176.8,242.2 179.8,245.3 182.9,248.5 185.9,251.8 189.0,255.1 192.0,258.3 195.1,261.6 198.2,264.9 201.2,268.2 204.3,271.5 207.3,274.7 210.4,277.8 213.4,280.9 216.5,283.9 219.6,286.8 222.6,289.6 225.7,292.2 228.7,294.8 231.8,297.2 234.8,299.5 237.9,301.6 240.9,303.6 244.0,305.4 247.1,307.0 250.1,308.5 253.2,309.7 256.2,310.8 259.3,311.6 262.3,312.3 265.4,312.8 268.5,313.0 271.5,313.1 274.6,312.9 277.6,312.6 280.7,312.0 283.7,311.3 286.8,310.3 289.8,309.2 292.9,307.8 296.0,306.3 299.0,304.6 302.1,302.7 305.1,300.7 308.2,298.5 311.2,296.1 314.3,293.7 317.3,291.0 320.4,288.3 323.5,285.5 326.5,282.5 329.6,279.5 332.6,276.4 335.7,273.2 338.7,270.0 341.8,266.7 344.9,263.4 347.9,260.1 351.0,256.8 354.0,253.6 357.1,250.3 360.1,247.1 363.2,243.9 366.2,240.8 369.3,237.7 372.4,234.8 375.4,231.9 378.5,229.2 381.5,226.6 384.6,224.1 387.6,221.7 390.7,219.5 393.8,217.4 396.8,215.6 399.9,213.8 402.9,212.3 406.0,210.9 409.0,209.8 412.1,208.8 415.1,208.0 418.2,207.4 421.3,207.1 424.3,206.9 427.4,206.9 430.4,207.2 433.5,207.6 436.5,208.3 439.6,209.1 442.7,210.2 445.7,211.4 448.8,212.8 451.8,214.5 454.9,216.2 457.9,218.2 461.0,220.3 464.0,222.6 467.1,225.0 470.2,227.5 473.2,230.2 476.3,233.0 479.3,235.9 482.4,238.9 485.4,241.9 488.5,245.1 491.5,248.3 494.6,251.5 497.7,254.8 500.7,258.1 503.8,261.4 506.8,264.7 509.9,267.9 512.9,271.2 516.0,274.4 519.1,277.5 522.1,280.6 525.2,283.6 528.2,286.5 531.3,289.3 534.3,292.0 537.4,294.6 540.4,297.0 543.5,299.3 546.6,301.5 549.6,303.4 552.7,305.3 555.7,306.9 558.8,308.4 561.8,309.6 564.9,310.7 568.0,311.6 571.0,312.3 574.1,312.7 577.1,313.0 580.2,313.1 583.2,313.0 586.3,312.6 589.3,312.1 592.4,311.3" fill="none" stroke="#f97316" stroke-width="2" stroke-linejoin="round"/>
<polyline points="167.6,225.1 170.7,228.4 173.7,231.6 176.8,234.8 179.8,237.9 182.9,241.0 185.9,243.9 189.0,246.8 192.0,249.5 195.1,252.1 198.2,254.6 201.2,257.0 204.3,259.2 207.3,261.3 210.4,263.1 213.4,264.9 216.5,266.4 219.6,267.8 222.6,268.9 225.7,269.9 228.7,270.7 231.8,271.3 234.8,271.6 237.9,271.8 240.9,271.8 244.0,271.5 247.1,271.1 250.1,270.4 253.2,269.6 256.2,268.5 259.3,267.3 262.3,265.9 265.4,264.2 268.5,262.5 271.5,260.5 274.6,258.4 277.6,256.1 280.7,253.7 283.7,251.2 286.8,248.5 289.8,245.7 292.9,242.8 296.0,239.8 299.0,236.8 302.1,233.6 305.1,230.4 308.2,227.2 311.2,223.9 314.3,220.6 317.3,217.3 320.4,214.0 323.5,210.8 326.5,207.5 329.6,204.3 332.6,201.2 335.7,198.1 338.7,195.1 341.8,192.2 344.9,189.4 347.9,186.7 351.0,184.1 354.0,181.7 357.1,179.4 360.1,177.2 363.2,175.3 366.2,173.4 369.3,171.8 372.4,170.3 375.4,169.1 378.5,168.0 381.5,167.1 384.6,166.4 387.6,166.0 390.7,165.7 393.8,165.6 396.8,165.7 399.9,166.1 402.9,166.6 406.0,167.4 409.0,168.3 412.1,169.4 415.1,170.7 418.2,172.3 421.3,173.9 424.3,175.8 427.4,177.8 430.4,180.0 433.5,182.4 436.5,184.8 439.6,187.4 442.7,190.2 445.7,193.0 448.8,195.9 451.8,199.0 454.9,202.1 457.9,205.2 461.0,208.4 464.0,211.7 467.1,215.0 470.2,218.3 473.2,221.6 476.3,224.9 479.3,228.1 482.4,231.4 485.4,234.5 488.5,237.7 491.5,240.7 494.6,243.7 497.7,246.5 500.7,249.3 503.8,251.9 506.8,254.4 509.9,256.8 512.9,259.0 516.0,261.1 519.1,263.0 522.1,264.7 525.2,266.3 528.2,267.7 531.3,268.8 534.3,269.8 537.4,270.6 540.4,271.2 543.5,271.6 546.6,271.8 549.6,271.8 552.7,271.5 555.7,271.1 558.8,270.5 561.8,269.6 564.9,268.6 568.0,267.4 571.0,266.0 574.1,264.4 577.1,262.6 580.2,260.7 583.2,258.6 586.3,256.3 589.3,253.9 592.4,251.4" fill="none" stroke="#2f9e44" stroke-width="2" stroke-linejoin="round"/>
<line x1="167.6" y1="260.0" x2="592.4" y2="260.0" stroke="#d8dee9" stroke-width="1" stroke-dasharray="4 4"/></g></svg>