<svg xmlns="http://www.w3.org/2000/svg" width="760" height="520" viewBox="0 0 760 520"><rect width="760" height="520" fill="#fffdf7"/><text x="28" y="38" font-size="24" font-family="DejaVu Sans, Arial" font-weight="700" fill="#1f2933">Chapter 09 experiment</text><text x="28" y="64" font-size="14" font-family="DejaVu Sans, Arial" fill="#1f2933">Perturb the model and inspect what remains invariant</text><g font-family="DejaVu Sans, Arial"><polyline points="167.6,286.7 170.7,289.2 173.7,291.8 176.8,294.4 179.8,297.0 182.9,299.6 185.9,302.2 189.0,304.8 192.0,307.4 195.1,310.0 198.2,312.6 201.2,315.1 204.3,317.6 207.3,320.1 210.4,322.5 213.4,324.9 216.5,327.2 219.6,329.4 222.6,331.6 225.7,333.7 228.7,335.7 231.8,337.7 234.8,339.5 237.9,341.3 240.9,343.0 244.0,344.5 247.1,346.0 250.1,347.4 253.2,348.6 256.2,349.7 259.3,350.7 262.3,351.6 265.4,352.4 268.5,353.1 271.5,353.6 274.6,354.0 277.6,354.2 280.7,354.4 283.7,354.4 286.8,354.3 289.8,354.0 292.9,353.6 296.0,353.1 299.0,352.5 302.1,351.8 305.1,350.9 308.2,349.9 311.2,348.8 314.3,347.6 317.3,346.2 320.4,344.8 323.5,343.2 326.5,341.6 329.6,339.8 332.6,338.0 335.7,336.1 338.7,334.0 341.8,331.9 344.9,329.8 347.9,327.5 351.0,325.2 354.0,322.9 357.1,320.5 360.1,318.0 363.2,315.5 366.2,313.0 369.3,310.4 372.4,307.8 375.4,305.2 378.5,302.6 381.5,300.0 384.6,297.4 387.6,294.8 390.7,292.2 393.8,289.6 396.8,287.1 399.9,284.6 402.9,282.1 406.0,279.7 409.0,277.4 412.1,275.1 415.1,272.8 418.2,270.7 421.3,268.6 424.3,266.5 427.4,264.6 430.4,262.8 433.5,261.0 436.5,259.4 439.6,257.8 442.7,256.4 445.7,255.0 448.8,253.8 451.8,252.7 454.9,251.7 457.9,250.8 461.0,250.1 464.0,249.5 467.1,249.0 470.2,248.6 473.2,248.3 476.3,248.2 479.3,248.2 482.4,248.4 485.4,248.6 488.5,249.0 491.5,249.5 494.6,250.2 497.7,251.0 500.7,251.9 503.8,252.9 506.8,254.0 509.9,255.2 512.9,256.6 516.0,258.1 519.1,259.6 522.1,261.3 525.2,263.1 528.2,264.9 531.3,266.9 534.3,268.9 537.4,271.0 540.4,273.2 543.5,275.4 546.6,277.7 549.6,280.1 552.7,282.5 555.7,285.0 558.8,287.5 561.8,290.0 564.9,292.6 568.0,295.2 571.0,297.8 574.1,300.4 577.1,303.0 580.2,305.6 583.2,308.2 586.3,310.8 589.3,313.4 592.4,315.9" fill="none" stroke="#2364aa" stroke-width="2" stroke-linejoin="round"/>
<polyline points="167.6,279.3 170.7,281.7 173.7,284.0 176.8,286.3 179.8,288.6 182.9,290.8 185.9,292.8 189.0,294.9 192.0,296.8 195.1,298.6 198.2,300.4 201.2,302.0 204.3,303.6 207.3,305.0 210.4,306.3 213.4,307.6 216.5,308.7 219.6,309.6 222.6,310.5 225.7,311.3 228.7,311.9 231.8,312.4 234.8,312.7 237.9,313.0 240.9,313.1 244.0,313.1 247.1,312.9 250.1,312.7 253.2,312.3 256.2,311.7 259.3,311.1 262.3,310.3 265.4,309.4 268.5,308.4 271.5,307.2 274.6,306.0 277.6,304.6 280.7,303.2 283.7,301.6 286.8,299.9 289.8,298.2 292.9,296.3 296.0,294.3 299.0,292.3 302.1,290.2 305.1,288.0 308.2,285.8 311.2,283.4 314.3,281.1 317.3,278.6 320.4,276.2 323.5,273.7 326.5,271.1 329.6,268.6 332.6,266.0 335.7,263.4 338.7,260.8 341.8,258.1 344.9,255.5 347.9,252.9 351.0,250.4 354.0,247.8 357.1,245.3 360.1,242.8 363.2,240.3 366.2,237.9 369.3,235.6 372.4,233.3 375.4,231.1 378.5,228.9 381.5,226.8 384.6,224.8 387.6,222.9 390.7,221.1 393.8,219.4 396.8,217.7 399.9,216.2 402.9,214.8 406.0,213.5 409.0,212.3 412.1,211.2 415.1,210.2 418.2,209.4 421.3,208.6 424.3,208.0 427.4,207.6 430.4,207.2 433.5,207.0 436.5,206.9 439.6,206.9 442.7,207.1 445.7,207.4 448.8,207.8 451.8,208.4 454.9,209.0 457.9,209.8 461.0,210.8 464.0,211.8 467.1,212.9 470.2,214.2 473.2,215.6 476.3,217.1 479.3,218.7 482.4,220.3 485.4,222.1 488.5,224.0 491.5,226.0 494.6,228.0 497.7,230.1 500.7,232.3 503.8,234.6 506.8,236.9 509.9,239.3 512.9,241.7 516.0,244.2 519.1,246.7 522.1,249.3 525.2,251.8 528.2,254.4 531.3,257.0 534.3,259.7 537.4,262.3 540.4,264.9 543.5,267.5 546.6,270.0 549.6,272.6 552.7,275.1 555.7,277.6 558.8,280.0 561.8,282.4 564.9,284.8 568.0,287.1 571.0,289.3 574.1,291.4 577.1,293.5 580.2,295.5 583.2,297.4 586.3,299.2 589.3,300.9 592.4,302.5" fill="none" stroke="#f97316" stroke-width="2" stroke-linejoin="round"/>
<polyline points="167.6,264.0 170.7,265.3 173.7,266.5 176.8,267.6 179.8,268.5 182.9,269.4 185.9,270.1 189.0,270.7 192.0,271.2 195.1,271.5 198.2,271.7 201.2,271.8 204.3,271.8 207.3,271.6 210.4,271.3 213.4,270.9 216.5,270.3 219.6,269.6 222.6,268.8 225.7,267.9 228.7,266.9 231.8,265.7 234.8,264.4 237.9,263.0 240.9,261.5 244.0,260.0 247.1,258.3 250.1,256.5 253.2,254.6 256.2,252.6 259.3,250.6 262.3,248.4 265.4,246.2 268.5,244.0 271.5,241.6 274.6,239.3 277.6,236.8 280.7,234.4 283.7,231.8 286.8,229.3 289.8,226.7 292.9,224.1 296.0,221.5 299.0,218.9 302.1,216.3 305.1,213.7 308.2,211.1 311.2,208.5 314.3,206.0 317.3,203.5 320.4,201.0 323.5,198.5 326.5,196.1 329.6,193.8 332.6,191.5 335.7,189.3 338.7,187.2 341.8,185.1 344.9,183.1 347.9,181.2 351.0,179.4 354.0,177.7 357.1,176.1 360.1,174.6 363.2,173.2 366.2,171.9 369.3,170.7 372.4,169.7 375.4,168.7 378.5,167.9 381.5,167.2 384.6,166.6 387.6,166.2 390.7,165.9 393.8,165.7 396.8,165.6 399.9,165.7 402.9,165.9 406.0,166.2 409.0,166.6 412.1,167.2 415.1,167.9 418.2,168.7 421.3,169.7 424.3,170.7 427.4,171.9 430.4,173.2 433.5,174.6 436.5,176.1 439.6,177.7 442.7,179.4 445.7,181.2 448.8,183.1 451.8,185.1 454.9,187.2 457.9,189.3 461.0,191.5 464.0,193.8 467.1,196.1 470.2,198.5 473.2,201.0 476.3,203.4 479.3,206.0 482.4,208.5 485.4,211.1 488.5,213.7 491.5,216.3 494.6,218.9 497.7,221.5 500.7,224.1 503.8,226.7 506.8,229.3 509.9,231.8 512.9,234.3 516.0,236.8 519.1,239.3 522.1,241.6 525.2,244.0 528.2,246.2 531.3,248.4 534.3,250.6 537.4,252.6 540.4,254.6 543.5,256.5 546.6,258.3 549.6,259.9 552.7,261.5 555.7,263.0 558.8,264.4 561.8,265.7 564.9,266.8 568.0,267.9 571.0,268.8 574.1,269.6 577.1,270.3 580.2,270.9 583.2,271.3 586.3,271.6 589.3,271.8 592.4,271.8" fill="none" stroke="#2f9e44" stroke-width="2" stroke-linejoin="round"/>
<line x1="167.6" y1="260.0" x2="592.4" y2="260.0" stroke="#d8dee9" stroke-width="1" stroke-dasharray="4 4"/></g></svg>