<?xml version="1.0" encoding="utf-8" standalone="no"?>
<!DOCTYPE svg PUBLIC "-//W3C//DTD SVG 1.1//EN"
  "http://www.w3.org/Graphics/SVG/1.1/DTD/svg11.dtd">
<svg xmlns:xlink="http://www.w3.org/1999/xlink" width="720pt" height="345.6pt" viewBox="0 0 720 345.6" xmlns="http://www.w3.org/2000/svg" version="1.1">
 <metadata>
  <rdf:RDF xmlns:dc="http://purl.org/dc/elements/1.1/" xmlns:cc="http://creativecommons.org/ns#" xmlns:rdf="http://www.w3.org/1999/02/22-rdf-syntax-ns#">
   <cc:Work>
    <dc:type rdf:resource="http://purl.org/dc/dcmitype/StillImage"/>
    <dc:date>2026-05-17T13:48:22.342615</dc:date>
    <dc:format>image/svg+xml</dc:format>
    <dc:creator>
     <cc:Agent>
      <dc:title>Matplotlib v3.10.9, https://matplotlib.org/</dc:title>
     </cc:Agent>
    </dc:creator>
   </cc:Work>
  </rdf:RDF>
 </metadata>
 <defs>
  <style type="text/css">*{stroke-linejoin: round; stroke-linecap: butt}</style>
 </defs>
 <g id="figure_1">
  <g id="patch_1">
   <path d="M 0 345.6 
L 720 345.6 
L 720 0 
L 0 0 
z
" style="fill: #ffffff"/>
  </g>
  <g id="axes_1">
   <g id="line2d_1">
    <path d="M 31.341176 98.564779 
L 37.927526 96.846762 
L 45.831145 94.549744 
L 55.052033 91.629016 
L 72.176541 85.894888 
L 84.03197 82.023946 
L 93.252859 79.25504 
L 101.156478 77.140786 
L 107.742827 75.608277 
L 114.329176 74.316996 
L 120.915525 73.292604 
L 126.184605 72.679117 
L 131.453684 72.257384 
L 136.722763 72.032769 
L 141.991843 72.008133 
L 147.260922 72.183787 
L 152.530001 72.557497 
L 157.799081 73.124508 
L 163.06816 73.877603 
L 169.654509 75.065839 
L 176.240858 76.506083 
L 182.827207 78.169716 
L 190.730826 80.414126 
L 199.951715 83.292785 
L 213.124414 87.67639 
L 228.931652 92.913328 
L 238.15254 95.733469 
L 246.056159 97.907436 
L 252.642509 99.499567 
L 259.228858 100.858179 
L 265.815207 101.956274 
L 271.084286 102.632329 
L 276.353366 103.118978 
L 281.622445 103.410027 
L 286.891524 103.501773 
L 292.160604 103.393049 
L 297.429683 103.085238 
L 302.698762 102.582257 
L 307.967842 101.890507 
L 314.554191 100.773992 
L 321.14054 99.398634 
L 327.726889 97.791762 
L 335.630508 95.603162 
L 344.851397 92.770683 
L 356.706825 88.858293 
L 376.465873 82.305862 
L 385.686762 79.510508 
L 393.590381 77.365628 
L 400.17673 75.802643 
L 406.763079 74.477024 
L 413.349428 73.415113 
L 418.618508 72.769822 
L 423.887587 72.31513 
L 429.156666 72.056822 
L 434.425746 71.998185 
L 439.694825 72.139966 
L 444.963904 72.480361 
L 450.232984 73.015037 
L 455.502063 73.737192 
L 462.088412 74.889309 
L 468.674761 76.296941 
L 475.26111 77.932117 
L 483.164729 80.148657 
L 492.385618 83.004436 
L 505.558317 87.374936 
L 522.682824 93.048241 
L 531.903713 95.856435 
L 539.807332 98.016334 
L 546.393681 99.594343 
L 552.980031 100.93695 
L 559.56638 102.017474 
L 564.835459 102.67858 
L 570.104538 103.14969 
L 575.373618 103.42481 
L 580.642697 103.50044 
L 585.911776 103.375615 
L 591.180856 103.051926 
L 596.449935 102.533491 
L 601.719014 101.826907 
L 608.305364 100.693009 
L 614.891713 99.301877 
L 621.478062 97.681153 
L 629.381681 95.478855 
L 638.60257 92.634907 
L 650.457998 88.71557 
L 670.217046 82.171858 
L 679.437935 79.388925 
L 687.341554 77.258478 
L 688.658824 76.931035 
L 688.658824 76.931035 
" clip-path="url(#pa2d0434bf1)" style="fill: none; stroke: #1f6f8b; stroke-width: 2.4; stroke-linecap: square"/>
   </g>
   <g id="line2d_2">
    <path d="M 31.341176 255.954291 
L 37.927526 257.672308 
L 45.831145 259.969326 
L 55.052033 262.890054 
L 72.176541 268.624182 
L 84.03197 272.495124 
L 93.252859 275.26403 
L 101.156478 277.378283 
L 107.742827 278.910793 
L 114.329176 280.202073 
L 120.915525 281.226466 
L 126.184605 281.839952 
L 131.453684 282.261686 
L 136.722763 282.4863 
L 141.991843 282.510937 
L 147.260922 282.335283 
L 152.530001 281.961573 
L 157.799081 281.394562 
L 163.06816 280.641466 
L 169.654509 279.45323 
L 176.240858 278.012986 
L 182.827207 276.349354 
L 190.730826 274.104943 
L 199.951715 271.226285 
L 213.124414 266.84268 
L 228.931652 261.605742 
L 238.15254 258.785601 
L 246.056159 256.611634 
L 252.642509 255.019503 
L 259.228858 253.660891 
L 265.815207 252.562796 
L 271.084286 251.886741 
L 276.353366 251.400092 
L 281.622445 251.109043 
L 286.891524 251.017297 
L 292.160604 251.126021 
L 297.429683 251.433832 
L 302.698762 251.936812 
L 307.967842 252.628563 
L 314.554191 253.745077 
L 321.14054 255.120436 
L 327.726889 256.727308 
L 335.630508 258.915908 
L 344.851397 261.748387 
L 356.706825 265.660777 
L 376.465873 272.213208 
L 385.686762 275.008562 
L 393.590381 277.153442 
L 400.17673 278.716427 
L 406.763079 280.042046 
L 413.349428 281.103956 
L 418.618508 281.749247 
L 423.887587 282.20394 
L 429.156666 282.462248 
L 434.425746 282.520885 
L 439.694825 282.379103 
L 444.963904 282.038709 
L 450.232984 281.504032 
L 455.502063 280.781878 
L 462.088412 279.629761 
L 468.674761 278.222129 
L 475.26111 276.586953 
L 483.164729 274.370413 
L 492.385618 271.514634 
L 505.558317 267.144134 
L 522.682824 261.470829 
L 531.903713 258.662634 
L 539.807332 256.502735 
L 546.393681 254.924726 
L 552.980031 253.58212 
L 559.56638 252.501595 
L 564.835459 251.84049 
L 570.104538 251.36938 
L 575.373618 251.094259 
L 580.642697 251.01863 
L 585.911776 251.143454 
L 591.180856 251.467144 
L 596.449935 251.985579 
L 601.719014 252.692163 
L 608.305364 253.826061 
L 614.891713 255.217193 
L 621.478062 256.837916 
L 629.381681 259.040215 
L 638.60257 261.884162 
L 650.457998 265.803499 
L 670.217046 272.347212 
L 679.437935 275.130145 
L 687.341554 277.260592 
L 688.658824 277.588035 
L 688.658824 277.588035 
" clip-path="url(#pa2d0434bf1)" style="fill: none; stroke: #1f6f8b; stroke-width: 2.4; stroke-linecap: square"/>
   </g>
   <g id="line2d_3">
    <path d="M 31.341176 177.259535 
L 688.658824 177.259535 
L 688.658824 177.259535 
" clip-path="url(#pa2d0434bf1)" style="fill: none; stroke: #3b3b3b; stroke-width: 2; stroke-linecap: square"/>
   </g>
   <g id="line2d_4">
    <path d="M 72.423529 256.029767 
L 72.423529 98.489302 
" clip-path="url(#pa2d0434bf1)" style="fill: none; stroke: #b44b39; stroke-opacity: 0.75; stroke-width: 1.2; stroke-linecap: square"/>
   </g>
   <g id="line2d_5">
    <path d="M 154.588235 256.029767 
L 154.588235 98.489302 
" clip-path="url(#pa2d0434bf1)" style="fill: none; stroke: #b44b39; stroke-opacity: 0.75; stroke-width: 1.2; stroke-linecap: square"/>
   </g>
   <g id="line2d_6">
    <path d="M 236.752941 256.029767 
L 236.752941 98.489302 
" clip-path="url(#pa2d0434bf1)" style="fill: none; stroke: #b44b39; stroke-opacity: 0.75; stroke-width: 1.2; stroke-linecap: square"/>
   </g>
   <g id="line2d_7">
    <path d="M 318.917647 256.029767 
L 318.917647 98.489302 
" clip-path="url(#pa2d0434bf1)" style="fill: none; stroke: #b44b39; stroke-opacity: 0.75; stroke-width: 1.2; stroke-linecap: square"/>
   </g>
   <g id="line2d_8">
    <path d="M 401.082353 256.029767 
L 401.082353 98.489302 
" clip-path="url(#pa2d0434bf1)" style="fill: none; stroke: #b44b39; stroke-opacity: 0.75; stroke-width: 1.2; stroke-linecap: square"/>
   </g>
   <g id="line2d_9">
    <path d="M 483.247059 256.029767 
L 483.247059 98.489302 
" clip-path="url(#pa2d0434bf1)" style="fill: none; stroke: #b44b39; stroke-opacity: 0.75; stroke-width: 1.2; stroke-linecap: square"/>
   </g>
   <g id="line2d_10">
    <path d="M 565.411765 256.029767 
L 565.411765 98.489302 
" clip-path="url(#pa2d0434bf1)" style="fill: none; stroke: #b44b39; stroke-opacity: 0.75; stroke-width: 1.2; stroke-linecap: square"/>
   </g>
   <g id="line2d_11">
    <path d="M 647.576471 256.029767 
L 647.576471 98.489302 
" clip-path="url(#pa2d0434bf1)" style="fill: none; stroke: #b44b39; stroke-opacity: 0.75; stroke-width: 1.2; stroke-linecap: square"/>
   </g>
   <g id="text_1">
    <!-- e-1=1 -->
    <g transform="translate(74.631029 165.802047) rotate(-90) scale(0.08 -0.08)">
     <defs>
      <path id="DejaVuSans-65" d="M 3597 1894 
L 3597 1613 
L 953 1613 
Q 991 1019 1311 708 
Q 1631 397 2203 397 
Q 2534 397 2845 478 
Q 3156 559 3463 722 
L 3463 178 
Q 3153 47 2828 -22 
Q 2503 -91 2169 -91 
Q 1331 -91 842 396 
Q 353 884 353 1716 
Q 353 2575 817 3079 
Q 1281 3584 2069 3584 
Q 2775 3584 3186 3129 
Q 3597 2675 3597 1894 
z
M 3022 2063 
Q 3016 2534 2758 2815 
Q 2500 3097 2075 3097 
Q 1594 3097 1305 2825 
Q 1016 2553 972 2059 
L 3022 2063 
z
" transform="scale(0.015625)"/>
      <path id="DejaVuSans-2d" d="M 313 2009 
L 1997 2009 
L 1997 1497 
L 313 1497 
L 313 2009 
z
" transform="scale(0.015625)"/>
      <path id="DejaVuSans-31" d="M 794 531 
L 1825 531 
L 1825 4091 
L 703 3866 
L 703 4441 
L 1819 4666 
L 2450 4666 
L 2450 531 
L 3481 531 
L 3481 0 
L 794 0 
L 794 531 
z
" transform="scale(0.015625)"/>
      <path id="DejaVuSans-3d" d="M 678 2906 
L 4684 2906 
L 4684 2381 
L 678 2381 
L 678 2906 
z
M 678 1631 
L 4684 1631 
L 4684 1100 
L 678 1100 
L 678 1631 
z
" transform="scale(0.015625)"/>
     </defs>
     <use xlink:href="#DejaVuSans-65"/>
     <use xlink:href="#DejaVuSans-2d" transform="translate(61.523438 0)"/>
     <use xlink:href="#DejaVuSans-31" transform="translate(97.607422 0)"/>
     <use xlink:href="#DejaVuSans-3d" transform="translate(161.230469 0)"/>
     <use xlink:href="#DejaVuSans-31" transform="translate(245.019531 0)"/>
    </g>
   </g>
   <g id="text_2">
    <!-- e-1=1 -->
    <g transform="translate(156.795735 165.802047) rotate(-90) scale(0.08 -0.08)">
     <use xlink:href="#DejaVuSans-65"/>
     <use xlink:href="#DejaVuSans-2d" transform="translate(61.523438 0)"/>
     <use xlink:href="#DejaVuSans-31" transform="translate(97.607422 0)"/>
     <use xlink:href="#DejaVuSans-3d" transform="translate(161.230469 0)"/>
     <use xlink:href="#DejaVuSans-31" transform="translate(245.019531 0)"/>
    </g>
   </g>
   <g id="text_3">
    <!-- e-1=1 -->
    <g transform="translate(238.960441 165.802047) rotate(-90) scale(0.08 -0.08)">
     <use xlink:href="#DejaVuSans-65"/>
     <use xlink:href="#DejaVuSans-2d" transform="translate(61.523438 0)"/>
     <use xlink:href="#DejaVuSans-31" transform="translate(97.607422 0)"/>
     <use xlink:href="#DejaVuSans-3d" transform="translate(161.230469 0)"/>
     <use xlink:href="#DejaVuSans-31" transform="translate(245.019531 0)"/>
    </g>
   </g>
   <g id="text_4">
    <!-- e-1=1 -->
    <g transform="translate(321.125147 165.802047) rotate(-90) scale(0.08 -0.08)">
     <use xlink:href="#DejaVuSans-65"/>
     <use xlink:href="#DejaVuSans-2d" transform="translate(61.523438 0)"/>
     <use xlink:href="#DejaVuSans-31" transform="translate(97.607422 0)"/>
     <use xlink:href="#DejaVuSans-3d" transform="translate(161.230469 0)"/>
     <use xlink:href="#DejaVuSans-31" transform="translate(245.019531 0)"/>
    </g>
   </g>
   <g id="text_5">
    <!-- e-1=1 -->
    <g transform="translate(403.289853 165.802047) rotate(-90) scale(0.08 -0.08)">
     <use xlink:href="#DejaVuSans-65"/>
     <use xlink:href="#DejaVuSans-2d" transform="translate(61.523438 0)"/>
     <use xlink:href="#DejaVuSans-31" transform="translate(97.607422 0)"/>
     <use xlink:href="#DejaVuSans-3d" transform="translate(161.230469 0)"/>
     <use xlink:href="#DejaVuSans-31" transform="translate(245.019531 0)"/>
    </g>
   </g>
   <g id="text_6">
    <!-- e-1=1 -->
    <g transform="translate(485.454559 165.802047) rotate(-90) scale(0.08 -0.08)">
     <use xlink:href="#DejaVuSans-65"/>
     <use xlink:href="#DejaVuSans-2d" transform="translate(61.523438 0)"/>
     <use xlink:href="#DejaVuSans-31" transform="translate(97.607422 0)"/>
     <use xlink:href="#DejaVuSans-3d" transform="translate(161.230469 0)"/>
     <use xlink:href="#DejaVuSans-31" transform="translate(245.019531 0)"/>
    </g>
   </g>
   <g id="text_7">
    <!-- e-1=1 -->
    <g transform="translate(567.619265 165.802047) rotate(-90) scale(0.08 -0.08)">
     <use xlink:href="#DejaVuSans-65"/>
     <use xlink:href="#DejaVuSans-2d" transform="translate(61.523438 0)"/>
     <use xlink:href="#DejaVuSans-31" transform="translate(97.607422 0)"/>
     <use xlink:href="#DejaVuSans-3d" transform="translate(161.230469 0)"/>
     <use xlink:href="#DejaVuSans-31" transform="translate(245.019531 0)"/>
    </g>
   </g>
   <g id="text_8">
    <!-- e-1=1 -->
    <g transform="translate(649.783971 165.802047) rotate(-90) scale(0.08 -0.08)">
     <use xlink:href="#DejaVuSans-65"/>
     <use xlink:href="#DejaVuSans-2d" transform="translate(61.523438 0)"/>
     <use xlink:href="#DejaVuSans-31" transform="translate(97.607422 0)"/>
     <use xlink:href="#DejaVuSans-3d" transform="translate(161.230469 0)"/>
     <use xlink:href="#DejaVuSans-31" transform="translate(245.019531 0)"/>
    </g>
   </g>
   <g id="text_9">
    <!-- source curve: two local sheets -->
    <g transform="translate(36.476471 61.252465) scale(0.11 -0.11)">
     <defs>
      <path id="DejaVuSans-Bold-73" d="M 3272 3391 
L 3272 2541 
Q 2913 2691 2578 2766 
Q 2244 2841 1947 2841 
Q 1628 2841 1473 2761 
Q 1319 2681 1319 2516 
Q 1319 2381 1436 2309 
Q 1553 2238 1856 2203 
L 2053 2175 
Q 2913 2066 3209 1816 
Q 3506 1566 3506 1031 
Q 3506 472 3093 190 
Q 2681 -91 1863 -91 
Q 1516 -91 1145 -36 
Q 775 19 384 128 
L 384 978 
Q 719 816 1070 734 
Q 1422 653 1784 653 
Q 2113 653 2278 743 
Q 2444 834 2444 1013 
Q 2444 1163 2330 1236 
Q 2216 1309 1875 1350 
L 1678 1375 
Q 931 1469 631 1722 
Q 331 1975 331 2491 
Q 331 3047 712 3315 
Q 1094 3584 1881 3584 
Q 2191 3584 2531 3537 
Q 2872 3491 3272 3391 
z
" transform="scale(0.015625)"/>
      <path id="DejaVuSans-Bold-6f" d="M 2203 2784 
Q 1831 2784 1636 2517 
Q 1441 2250 1441 1747 
Q 1441 1244 1636 976 
Q 1831 709 2203 709 
Q 2569 709 2762 976 
Q 2956 1244 2956 1747 
Q 2956 2250 2762 2517 
Q 2569 2784 2203 2784 
z
M 2203 3584 
Q 3106 3584 3614 3096 
Q 4122 2609 4122 1747 
Q 4122 884 3614 396 
Q 3106 -91 2203 -91 
Q 1297 -91 786 396 
Q 275 884 275 1747 
Q 275 2609 786 3096 
Q 1297 3584 2203 3584 
z
" transform="scale(0.015625)"/>
      <path id="DejaVuSans-Bold-75" d="M 500 1363 
L 500 3500 
L 1625 3500 
L 1625 3150 
Q 1625 2866 1622 2436 
Q 1619 2006 1619 1863 
Q 1619 1441 1641 1255 
Q 1663 1069 1716 984 
Q 1784 875 1895 815 
Q 2006 756 2150 756 
Q 2500 756 2700 1025 
Q 2900 1294 2900 1772 
L 2900 3500 
L 4019 3500 
L 4019 0 
L 2900 0 
L 2900 506 
Q 2647 200 2364 54 
Q 2081 -91 1741 -91 
Q 1134 -91 817 281 
Q 500 653 500 1363 
z
" transform="scale(0.015625)"/>
      <path id="DejaVuSans-Bold-72" d="M 3138 2547 
Q 2991 2616 2845 2648 
Q 2700 2681 2553 2681 
Q 2122 2681 1889 2404 
Q 1656 2128 1656 1613 
L 1656 0 
L 538 0 
L 538 3500 
L 1656 3500 
L 1656 2925 
Q 1872 3269 2151 3426 
Q 2431 3584 2822 3584 
Q 2878 3584 2943 3579 
Q 3009 3575 3134 3559 
L 3138 2547 
z
" transform="scale(0.015625)"/>
      <path id="DejaVuSans-Bold-63" d="M 3366 3391 
L 3366 2478 
Q 3138 2634 2908 2709 
Q 2678 2784 2431 2784 
Q 1963 2784 1702 2511 
Q 1441 2238 1441 1747 
Q 1441 1256 1702 982 
Q 1963 709 2431 709 
Q 2694 709 2930 787 
Q 3166 866 3366 1019 
L 3366 103 
Q 3103 6 2833 -42 
Q 2563 -91 2291 -91 
Q 1344 -91 809 395 
Q 275 881 275 1747 
Q 275 2613 809 3098 
Q 1344 3584 2291 3584 
Q 2566 3584 2833 3536 
Q 3100 3488 3366 3391 
z
" transform="scale(0.015625)"/>
      <path id="DejaVuSans-Bold-65" d="M 4031 1759 
L 4031 1441 
L 1416 1441 
Q 1456 1047 1700 850 
Q 1944 653 2381 653 
Q 2734 653 3104 758 
Q 3475 863 3866 1075 
L 3866 213 
Q 3469 63 3072 -14 
Q 2675 -91 2278 -91 
Q 1328 -91 801 392 
Q 275 875 275 1747 
Q 275 2603 792 3093 
Q 1309 3584 2216 3584 
Q 3041 3584 3536 3087 
Q 4031 2591 4031 1759 
z
M 2881 2131 
Q 2881 2450 2695 2645 
Q 2509 2841 2209 2841 
Q 1884 2841 1681 2658 
Q 1478 2475 1428 2131 
L 2881 2131 
z
" transform="scale(0.015625)"/>
      <path id="DejaVuSans-Bold-20" transform="scale(0.015625)"/>
      <path id="DejaVuSans-Bold-76" d="M 97 3500 
L 1216 3500 
L 2088 1081 
L 2956 3500 
L 4078 3500 
L 2700 0 
L 1472 0 
L 97 3500 
z
" transform="scale(0.015625)"/>
      <path id="DejaVuSans-Bold-3a" d="M 716 3500 
L 1844 3500 
L 1844 2291 
L 716 2291 
L 716 3500 
z
M 716 1209 
L 1844 1209 
L 1844 0 
L 716 0 
L 716 1209 
z
" transform="scale(0.015625)"/>
      <path id="DejaVuSans-Bold-74" d="M 1759 4494 
L 1759 3500 
L 2913 3500 
L 2913 2700 
L 1759 2700 
L 1759 1216 
Q 1759 972 1856 886 
Q 1953 800 2241 800 
L 2816 800 
L 2816 0 
L 1856 0 
Q 1194 0 917 276 
Q 641 553 641 1216 
L 641 2700 
L 84 2700 
L 84 3500 
L 641 3500 
L 641 4494 
L 1759 4494 
z
" transform="scale(0.015625)"/>
      <path id="DejaVuSans-Bold-77" d="M 225 3500 
L 1313 3500 
L 1900 1088 
L 2491 3500 
L 3425 3500 
L 4013 1113 
L 4603 3500 
L 5691 3500 
L 4769 0 
L 3547 0 
L 2956 2406 
L 2369 0 
L 1147 0 
L 225 3500 
z
" transform="scale(0.015625)"/>
      <path id="DejaVuSans-Bold-6c" d="M 538 4863 
L 1656 4863 
L 1656 0 
L 538 0 
L 538 4863 
z
" transform="scale(0.015625)"/>
      <path id="DejaVuSans-Bold-61" d="M 2106 1575 
Q 1756 1575 1579 1456 
Q 1403 1338 1403 1106 
Q 1403 894 1545 773 
Q 1688 653 1941 653 
Q 2256 653 2472 879 
Q 2688 1106 2688 1447 
L 2688 1575 
L 2106 1575 
z
M 3816 1997 
L 3816 0 
L 2688 0 
L 2688 519 
Q 2463 200 2181 54 
Q 1900 -91 1497 -91 
Q 953 -91 614 226 
Q 275 544 275 1050 
Q 275 1666 698 1953 
Q 1122 2241 2028 2241 
L 2688 2241 
L 2688 2328 
Q 2688 2594 2478 2717 
Q 2269 2841 1825 2841 
Q 1466 2841 1156 2769 
Q 847 2697 581 2553 
L 581 3406 
Q 941 3494 1303 3539 
Q 1666 3584 2028 3584 
Q 2975 3584 3395 3211 
Q 3816 2838 3816 1997 
z
" transform="scale(0.015625)"/>
      <path id="DejaVuSans-Bold-68" d="M 4056 2131 
L 4056 0 
L 2931 0 
L 2931 347 
L 2931 1625 
Q 2931 2084 2911 2256 
Q 2891 2428 2841 2509 
Q 2775 2619 2662 2680 
Q 2550 2741 2406 2741 
Q 2056 2741 1856 2470 
Q 1656 2200 1656 1722 
L 1656 0 
L 538 0 
L 538 4863 
L 1656 4863 
L 1656 2988 
Q 1909 3294 2193 3439 
Q 2478 3584 2822 3584 
Q 3428 3584 3742 3212 
Q 4056 2841 4056 2131 
z
" transform="scale(0.015625)"/>
     </defs>
     <use xlink:href="#DejaVuSans-Bold-73"/>
     <use xlink:href="#DejaVuSans-Bold-6f" transform="translate(59.521484 0)"/>
     <use xlink:href="#DejaVuSans-Bold-75" transform="translate(128.222656 0)"/>
     <use xlink:href="#DejaVuSans-Bold-72" transform="translate(199.414062 0)"/>
     <use xlink:href="#DejaVuSans-Bold-63" transform="translate(248.730469 0)"/>
     <use xlink:href="#DejaVuSans-Bold-65" transform="translate(308.007812 0)"/>
     <use xlink:href="#DejaVuSans-Bold-20" transform="translate(375.830078 0)"/>
     <use xlink:href="#DejaVuSans-Bold-63" transform="translate(410.644531 0)"/>
     <use xlink:href="#DejaVuSans-Bold-75" transform="translate(469.921875 0)"/>
     <use xlink:href="#DejaVuSans-Bold-72" transform="translate(541.113281 0)"/>
     <use xlink:href="#DejaVuSans-Bold-76" transform="translate(590.429688 0)"/>
     <use xlink:href="#DejaVuSans-Bold-65" transform="translate(655.615234 0)"/>
     <use xlink:href="#DejaVuSans-Bold-3a" transform="translate(723.4375 0)"/>
     <use xlink:href="#DejaVuSans-Bold-20" transform="translate(763.427734 0)"/>
     <use xlink:href="#DejaVuSans-Bold-74" transform="translate(798.242188 0)"/>
     <use xlink:href="#DejaVuSans-Bold-77" transform="translate(846.044922 0)"/>
     <use xlink:href="#DejaVuSans-Bold-6f" transform="translate(938.427734 0)"/>
     <use xlink:href="#DejaVuSans-Bold-20" transform="translate(1007.128906 0)"/>
     <use xlink:href="#DejaVuSans-Bold-6c" transform="translate(1041.943359 0)"/>
     <use xlink:href="#DejaVuSans-Bold-6f" transform="translate(1076.220703 0)"/>
     <use xlink:href="#DejaVuSans-Bold-63" transform="translate(1144.921875 0)"/>
     <use xlink:href="#DejaVuSans-Bold-61" transform="translate(1204.199219 0)"/>
     <use xlink:href="#DejaVuSans-Bold-6c" transform="translate(1271.679688 0)"/>
     <use xlink:href="#DejaVuSans-Bold-20" transform="translate(1305.957031 0)"/>
     <use xlink:href="#DejaVuSans-Bold-73" transform="translate(1340.771484 0)"/>
     <use xlink:href="#DejaVuSans-Bold-68" transform="translate(1400.292969 0)"/>
     <use xlink:href="#DejaVuSans-Bold-65" transform="translate(1471.484375 0)"/>
     <use xlink:href="#DejaVuSans-Bold-65" transform="translate(1539.306641 0)"/>
     <use xlink:href="#DejaVuSans-Bold-74" transform="translate(1607.128906 0)"/>
     <use xlink:href="#DejaVuSans-Bold-73" transform="translate(1654.931641 0)"/>
    </g>
   </g>
   <g id="text_10">
    <!-- target P1 -->
    <g transform="translate(36.476471 207.335442) scale(0.1 -0.1)">
     <defs>
      <path id="DejaVuSans-74" d="M 1172 4494 
L 1172 3500 
L 2356 3500 
L 2356 3053 
L 1172 3053 
L 1172 1153 
Q 1172 725 1289 603 
Q 1406 481 1766 481 
L 2356 481 
L 2356 0 
L 1766 0 
Q 1100 0 847 248 
Q 594 497 594 1153 
L 594 3053 
L 172 3053 
L 172 3500 
L 594 3500 
L 594 4494 
L 1172 4494 
z
" transform="scale(0.015625)"/>
      <path id="DejaVuSans-61" d="M 2194 1759 
Q 1497 1759 1228 1600 
Q 959 1441 959 1056 
Q 959 750 1161 570 
Q 1363 391 1709 391 
Q 2188 391 2477 730 
Q 2766 1069 2766 1631 
L 2766 1759 
L 2194 1759 
z
M 3341 1997 
L 3341 0 
L 2766 0 
L 2766 531 
Q 2569 213 2275 61 
Q 1981 -91 1556 -91 
Q 1019 -91 701 211 
Q 384 513 384 1019 
Q 384 1609 779 1909 
Q 1175 2209 1959 2209 
L 2766 2209 
L 2766 2266 
Q 2766 2663 2505 2880 
Q 2244 3097 1772 3097 
Q 1472 3097 1187 3025 
Q 903 2953 641 2809 
L 641 3341 
Q 956 3463 1253 3523 
Q 1550 3584 1831 3584 
Q 2591 3584 2966 3190 
Q 3341 2797 3341 1997 
z
" transform="scale(0.015625)"/>
      <path id="DejaVuSans-72" d="M 2631 2963 
Q 2534 3019 2420 3045 
Q 2306 3072 2169 3072 
Q 1681 3072 1420 2755 
Q 1159 2438 1159 1844 
L 1159 0 
L 581 0 
L 581 3500 
L 1159 3500 
L 1159 2956 
Q 1341 3275 1631 3429 
Q 1922 3584 2338 3584 
Q 2397 3584 2469 3576 
Q 2541 3569 2628 3553 
L 2631 2963 
z
" transform="scale(0.015625)"/>
      <path id="DejaVuSans-67" d="M 2906 1791 
Q 2906 2416 2648 2759 
Q 2391 3103 1925 3103 
Q 1463 3103 1205 2759 
Q 947 2416 947 1791 
Q 947 1169 1205 825 
Q 1463 481 1925 481 
Q 2391 481 2648 825 
Q 2906 1169 2906 1791 
z
M 3481 434 
Q 3481 -459 3084 -895 
Q 2688 -1331 1869 -1331 
Q 1566 -1331 1297 -1286 
Q 1028 -1241 775 -1147 
L 775 -588 
Q 1028 -725 1275 -790 
Q 1522 -856 1778 -856 
Q 2344 -856 2625 -561 
Q 2906 -266 2906 331 
L 2906 616 
Q 2728 306 2450 153 
Q 2172 0 1784 0 
Q 1141 0 747 490 
Q 353 981 353 1791 
Q 353 2603 747 3093 
Q 1141 3584 1784 3584 
Q 2172 3584 2450 3431 
Q 2728 3278 2906 2969 
L 2906 3500 
L 3481 3500 
L 3481 434 
z
" transform="scale(0.015625)"/>
      <path id="DejaVuSans-20" transform="scale(0.015625)"/>
      <path id="DejaVuSans-50" d="M 1259 4147 
L 1259 2394 
L 2053 2394 
Q 2494 2394 2734 2622 
Q 2975 2850 2975 3272 
Q 2975 3691 2734 3919 
Q 2494 4147 2053 4147 
L 1259 4147 
z
M 628 4666 
L 2053 4666 
Q 2838 4666 3239 4311 
Q 3641 3956 3641 3272 
Q 3641 2581 3239 2228 
Q 2838 1875 2053 1875 
L 1259 1875 
L 1259 0 
L 628 0 
L 628 4666 
z
" transform="scale(0.015625)"/>
     </defs>
     <use xlink:href="#DejaVuSans-74"/>
     <use xlink:href="#DejaVuSans-61" transform="translate(39.208984 0)"/>
     <use xlink:href="#DejaVuSans-72" transform="translate(100.488281 0)"/>
     <use xlink:href="#DejaVuSans-67" transform="translate(139.851562 0)"/>
     <use xlink:href="#DejaVuSans-65" transform="translate(203.328125 0)"/>
     <use xlink:href="#DejaVuSans-74" transform="translate(264.851562 0)"/>
     <use xlink:href="#DejaVuSans-20" transform="translate(304.060547 0)"/>
     <use xlink:href="#DejaVuSans-50" transform="translate(335.847656 0)"/>
     <use xlink:href="#DejaVuSans-31" transform="translate(396.150391 0)"/>
    </g>
   </g>
   <g id="text_11">
    <!-- 2g-2 = 2(-2) + (2g+2); for g=3: 4 = -4 + 8 -->
    <g transform="translate(36.476471 313.317209) scale(0.11 -0.11)">
     <defs>
      <path id="DejaVuSans-32" d="M 1228 531 
L 3431 531 
L 3431 0 
L 469 0 
L 469 531 
Q 828 903 1448 1529 
Q 2069 2156 2228 2338 
Q 2531 2678 2651 2914 
Q 2772 3150 2772 3378 
Q 2772 3750 2511 3984 
Q 2250 4219 1831 4219 
Q 1534 4219 1204 4116 
Q 875 4013 500 3803 
L 500 4441 
Q 881 4594 1212 4672 
Q 1544 4750 1819 4750 
Q 2544 4750 2975 4387 
Q 3406 4025 3406 3419 
Q 3406 3131 3298 2873 
Q 3191 2616 2906 2266 
Q 2828 2175 2409 1742 
Q 1991 1309 1228 531 
z
" transform="scale(0.015625)"/>
      <path id="DejaVuSans-28" d="M 1984 4856 
Q 1566 4138 1362 3434 
Q 1159 2731 1159 2009 
Q 1159 1288 1364 580 
Q 1569 -128 1984 -844 
L 1484 -844 
Q 1016 -109 783 600 
Q 550 1309 550 2009 
Q 550 2706 781 3412 
Q 1013 4119 1484 4856 
L 1984 4856 
z
" transform="scale(0.015625)"/>
      <path id="DejaVuSans-29" d="M 513 4856 
L 1013 4856 
Q 1481 4119 1714 3412 
Q 1947 2706 1947 2009 
Q 1947 1309 1714 600 
Q 1481 -109 1013 -844 
L 513 -844 
Q 928 -128 1133 580 
Q 1338 1288 1338 2009 
Q 1338 2731 1133 3434 
Q 928 4138 513 4856 
z
" transform="scale(0.015625)"/>
      <path id="DejaVuSans-2b" d="M 2944 4013 
L 2944 2272 
L 4684 2272 
L 4684 1741 
L 2944 1741 
L 2944 0 
L 2419 0 
L 2419 1741 
L 678 1741 
L 678 2272 
L 2419 2272 
L 2419 4013 
L 2944 4013 
z
" transform="scale(0.015625)"/>
      <path id="DejaVuSans-3b" d="M 750 3309 
L 1409 3309 
L 1409 2516 
L 750 2516 
L 750 3309 
z
M 750 794 
L 1409 794 
L 1409 256 
L 897 -744 
L 494 -744 
L 750 256 
L 750 794 
z
" transform="scale(0.015625)"/>
      <path id="DejaVuSans-66" d="M 2375 4863 
L 2375 4384 
L 1825 4384 
Q 1516 4384 1395 4259 
Q 1275 4134 1275 3809 
L 1275 3500 
L 2222 3500 
L 2222 3053 
L 1275 3053 
L 1275 0 
L 697 0 
L 697 3053 
L 147 3053 
L 147 3500 
L 697 3500 
L 697 3744 
Q 697 4328 969 4595 
Q 1241 4863 1831 4863 
L 2375 4863 
z
" transform="scale(0.015625)"/>
      <path id="DejaVuSans-6f" d="M 1959 3097 
Q 1497 3097 1228 2736 
Q 959 2375 959 1747 
Q 959 1119 1226 758 
Q 1494 397 1959 397 
Q 2419 397 2687 759 
Q 2956 1122 2956 1747 
Q 2956 2369 2687 2733 
Q 2419 3097 1959 3097 
z
M 1959 3584 
Q 2709 3584 3137 3096 
Q 3566 2609 3566 1747 
Q 3566 888 3137 398 
Q 2709 -91 1959 -91 
Q 1206 -91 779 398 
Q 353 888 353 1747 
Q 353 2609 779 3096 
Q 1206 3584 1959 3584 
z
" transform="scale(0.015625)"/>
      <path id="DejaVuSans-33" d="M 2597 2516 
Q 3050 2419 3304 2112 
Q 3559 1806 3559 1356 
Q 3559 666 3084 287 
Q 2609 -91 1734 -91 
Q 1441 -91 1130 -33 
Q 819 25 488 141 
L 488 750 
Q 750 597 1062 519 
Q 1375 441 1716 441 
Q 2309 441 2620 675 
Q 2931 909 2931 1356 
Q 2931 1769 2642 2001 
Q 2353 2234 1838 2234 
L 1294 2234 
L 1294 2753 
L 1863 2753 
Q 2328 2753 2575 2939 
Q 2822 3125 2822 3475 
Q 2822 3834 2567 4026 
Q 2313 4219 1838 4219 
Q 1578 4219 1281 4162 
Q 984 4106 628 3988 
L 628 4550 
Q 988 4650 1302 4700 
Q 1616 4750 1894 4750 
Q 2613 4750 3031 4423 
Q 3450 4097 3450 3541 
Q 3450 3153 3228 2886 
Q 3006 2619 2597 2516 
z
" transform="scale(0.015625)"/>
      <path id="DejaVuSans-3a" d="M 750 794 
L 1409 794 
L 1409 0 
L 750 0 
L 750 794 
z
M 750 3309 
L 1409 3309 
L 1409 2516 
L 750 2516 
L 750 3309 
z
" transform="scale(0.015625)"/>
      <path id="DejaVuSans-34" d="M 2419 4116 
L 825 1625 
L 2419 1625 
L 2419 4116 
z
M 2253 4666 
L 3047 4666 
L 3047 1625 
L 3713 1625 
L 3713 1100 
L 3047 1100 
L 3047 0 
L 2419 0 
L 2419 1100 
L 313 1100 
L 313 1709 
L 2253 4666 
z
" transform="scale(0.015625)"/>
      <path id="DejaVuSans-38" d="M 2034 2216 
Q 1584 2216 1326 1975 
Q 1069 1734 1069 1313 
Q 1069 891 1326 650 
Q 1584 409 2034 409 
Q 2484 409 2743 651 
Q 3003 894 3003 1313 
Q 3003 1734 2745 1975 
Q 2488 2216 2034 2216 
z
M 1403 2484 
Q 997 2584 770 2862 
Q 544 3141 544 3541 
Q 544 4100 942 4425 
Q 1341 4750 2034 4750 
Q 2731 4750 3128 4425 
Q 3525 4100 3525 3541 
Q 3525 3141 3298 2862 
Q 3072 2584 2669 2484 
Q 3125 2378 3379 2068 
Q 3634 1759 3634 1313 
Q 3634 634 3220 271 
Q 2806 -91 2034 -91 
Q 1263 -91 848 271 
Q 434 634 434 1313 
Q 434 1759 690 2068 
Q 947 2378 1403 2484 
z
M 1172 3481 
Q 1172 3119 1398 2916 
Q 1625 2713 2034 2713 
Q 2441 2713 2670 2916 
Q 2900 3119 2900 3481 
Q 2900 3844 2670 4047 
Q 2441 4250 2034 4250 
Q 1625 4250 1398 4047 
Q 1172 3844 1172 3481 
z
" transform="scale(0.015625)"/>
     </defs>
     <use xlink:href="#DejaVuSans-32"/>
     <use xlink:href="#DejaVuSans-67" transform="translate(63.623047 0)"/>
     <use xlink:href="#DejaVuSans-2d" transform="translate(127.099609 0)"/>
     <use xlink:href="#DejaVuSans-32" transform="translate(163.183594 0)"/>
     <use xlink:href="#DejaVuSans-20" transform="translate(226.806641 0)"/>
     <use xlink:href="#DejaVuSans-3d" transform="translate(258.59375 0)"/>
     <use xlink:href="#DejaVuSans-20" transform="translate(342.382812 0)"/>
     <use xlink:href="#DejaVuSans-32" transform="translate(374.169922 0)"/>
     <use xlink:href="#DejaVuSans-28" transform="translate(437.792969 0)"/>
     <use xlink:href="#DejaVuSans-2d" transform="translate(476.806641 0)"/>
     <use xlink:href="#DejaVuSans-32" transform="translate(512.890625 0)"/>
     <use xlink:href="#DejaVuSans-29" transform="translate(576.513672 0)"/>
     <use xlink:href="#DejaVuSans-20" transform="translate(615.527344 0)"/>
     <use xlink:href="#DejaVuSans-2b" transform="translate(647.314453 0)"/>
     <use xlink:href="#DejaVuSans-20" transform="translate(731.103516 0)"/>
     <use xlink:href="#DejaVuSans-28" transform="translate(762.890625 0)"/>
     <use xlink:href="#DejaVuSans-32" transform="translate(801.904297 0)"/>
     <use xlink:href="#DejaVuSans-67" transform="translate(865.527344 0)"/>
     <use xlink:href="#DejaVuSans-2b" transform="translate(929.003906 0)"/>
     <use xlink:href="#DejaVuSans-32" transform="translate(1012.792969 0)"/>
     <use xlink:href="#DejaVuSans-29" transform="translate(1076.416016 0)"/>
     <use xlink:href="#DejaVuSans-3b" transform="translate(1115.429688 0)"/>
     <use xlink:href="#DejaVuSans-20" transform="translate(1149.121094 0)"/>
     <use xlink:href="#DejaVuSans-66" transform="translate(1180.908203 0)"/>
     <use xlink:href="#DejaVuSans-6f" transform="translate(1216.113281 0)"/>
     <use xlink:href="#DejaVuSans-72" transform="translate(1277.294922 0)"/>
     <use xlink:href="#DejaVuSans-20" transform="translate(1318.408203 0)"/>
     <use xlink:href="#DejaVuSans-67" transform="translate(1350.195312 0)"/>
     <use xlink:href="#DejaVuSans-3d" transform="translate(1413.671875 0)"/>
     <use xlink:href="#DejaVuSans-33" transform="translate(1497.460938 0)"/>
     <use xlink:href="#DejaVuSans-3a" transform="translate(1561.083984 0)"/>
     <use xlink:href="#DejaVuSans-20" transform="translate(1594.775391 0)"/>
     <use xlink:href="#DejaVuSans-34" transform="translate(1626.5625 0)"/>
     <use xlink:href="#DejaVuSans-20" transform="translate(1690.185547 0)"/>
     <use xlink:href="#DejaVuSans-3d" transform="translate(1721.972656 0)"/>
     <use xlink:href="#DejaVuSans-20" transform="translate(1805.761719 0)"/>
     <use xlink:href="#DejaVuSans-2d" transform="translate(1837.548828 0)"/>
     <use xlink:href="#DejaVuSans-34" transform="translate(1873.632812 0)"/>
     <use xlink:href="#DejaVuSans-20" transform="translate(1937.255859 0)"/>
     <use xlink:href="#DejaVuSans-2b" transform="translate(1969.042969 0)"/>
     <use xlink:href="#DejaVuSans-20" transform="translate(2052.832031 0)"/>
     <use xlink:href="#DejaVuSans-38" transform="translate(2084.619141 0)"/>
    </g>
   </g>
   <g id="text_12">
    <!-- Riemann-Hurwitz as a branch ledger -->
    <g transform="translate(250.22625 20.88) scale(0.12 -0.12)">
     <defs>
      <path id="DejaVuSans-52" d="M 2841 2188 
Q 3044 2119 3236 1894 
Q 3428 1669 3622 1275 
L 4263 0 
L 3584 0 
L 2988 1197 
Q 2756 1666 2539 1819 
Q 2322 1972 1947 1972 
L 1259 1972 
L 1259 0 
L 628 0 
L 628 4666 
L 2053 4666 
Q 2853 4666 3247 4331 
Q 3641 3997 3641 3322 
Q 3641 2881 3436 2590 
Q 3231 2300 2841 2188 
z
M 1259 4147 
L 1259 2491 
L 2053 2491 
Q 2509 2491 2742 2702 
Q 2975 2913 2975 3322 
Q 2975 3731 2742 3939 
Q 2509 4147 2053 4147 
L 1259 4147 
z
" transform="scale(0.015625)"/>
      <path id="DejaVuSans-69" d="M 603 3500 
L 1178 3500 
L 1178 0 
L 603 0 
L 603 3500 
z
M 603 4863 
L 1178 4863 
L 1178 4134 
L 603 4134 
L 603 4863 
z
" transform="scale(0.015625)"/>
      <path id="DejaVuSans-6d" d="M 3328 2828 
Q 3544 3216 3844 3400 
Q 4144 3584 4550 3584 
Q 5097 3584 5394 3201 
Q 5691 2819 5691 2113 
L 5691 0 
L 5113 0 
L 5113 2094 
Q 5113 2597 4934 2840 
Q 4756 3084 4391 3084 
Q 3944 3084 3684 2787 
Q 3425 2491 3425 1978 
L 3425 0 
L 2847 0 
L 2847 2094 
Q 2847 2600 2669 2842 
Q 2491 3084 2119 3084 
Q 1678 3084 1418 2786 
Q 1159 2488 1159 1978 
L 1159 0 
L 581 0 
L 581 3500 
L 1159 3500 
L 1159 2956 
Q 1356 3278 1631 3431 
Q 1906 3584 2284 3584 
Q 2666 3584 2933 3390 
Q 3200 3197 3328 2828 
z
" transform="scale(0.015625)"/>
      <path id="DejaVuSans-6e" d="M 3513 2113 
L 3513 0 
L 2938 0 
L 2938 2094 
Q 2938 2591 2744 2837 
Q 2550 3084 2163 3084 
Q 1697 3084 1428 2787 
Q 1159 2491 1159 1978 
L 1159 0 
L 581 0 
L 581 3500 
L 1159 3500 
L 1159 2956 
Q 1366 3272 1645 3428 
Q 1925 3584 2291 3584 
Q 2894 3584 3203 3211 
Q 3513 2838 3513 2113 
z
" transform="scale(0.015625)"/>
      <path id="DejaVuSans-48" d="M 628 4666 
L 1259 4666 
L 1259 2753 
L 3553 2753 
L 3553 4666 
L 4184 4666 
L 4184 0 
L 3553 0 
L 3553 2222 
L 1259 2222 
L 1259 0 
L 628 0 
L 628 4666 
z
" transform="scale(0.015625)"/>
      <path id="DejaVuSans-75" d="M 544 1381 
L 544 3500 
L 1119 3500 
L 1119 1403 
Q 1119 906 1312 657 
Q 1506 409 1894 409 
Q 2359 409 2629 706 
Q 2900 1003 2900 1516 
L 2900 3500 
L 3475 3500 
L 3475 0 
L 2900 0 
L 2900 538 
Q 2691 219 2414 64 
Q 2138 -91 1772 -91 
Q 1169 -91 856 284 
Q 544 659 544 1381 
z
M 1991 3584 
L 1991 3584 
z
" transform="scale(0.015625)"/>
      <path id="DejaVuSans-77" d="M 269 3500 
L 844 3500 
L 1563 769 
L 2278 3500 
L 2956 3500 
L 3675 769 
L 4391 3500 
L 4966 3500 
L 4050 0 
L 3372 0 
L 2619 2869 
L 1863 0 
L 1184 0 
L 269 3500 
z
" transform="scale(0.015625)"/>
      <path id="DejaVuSans-7a" d="M 353 3500 
L 3084 3500 
L 3084 2975 
L 922 459 
L 3084 459 
L 3084 0 
L 275 0 
L 275 525 
L 2438 3041 
L 353 3041 
L 353 3500 
z
" transform="scale(0.015625)"/>
      <path id="DejaVuSans-73" d="M 2834 3397 
L 2834 2853 
Q 2591 2978 2328 3040 
Q 2066 3103 1784 3103 
Q 1356 3103 1142 2972 
Q 928 2841 928 2578 
Q 928 2378 1081 2264 
Q 1234 2150 1697 2047 
L 1894 2003 
Q 2506 1872 2764 1633 
Q 3022 1394 3022 966 
Q 3022 478 2636 193 
Q 2250 -91 1575 -91 
Q 1294 -91 989 -36 
Q 684 19 347 128 
L 347 722 
Q 666 556 975 473 
Q 1284 391 1588 391 
Q 1994 391 2212 530 
Q 2431 669 2431 922 
Q 2431 1156 2273 1281 
Q 2116 1406 1581 1522 
L 1381 1569 
Q 847 1681 609 1914 
Q 372 2147 372 2553 
Q 372 3047 722 3315 
Q 1072 3584 1716 3584 
Q 2034 3584 2315 3537 
Q 2597 3491 2834 3397 
z
" transform="scale(0.015625)"/>
      <path id="DejaVuSans-62" d="M 3116 1747 
Q 3116 2381 2855 2742 
Q 2594 3103 2138 3103 
Q 1681 3103 1420 2742 
Q 1159 2381 1159 1747 
Q 1159 1113 1420 752 
Q 1681 391 2138 391 
Q 2594 391 2855 752 
Q 3116 1113 3116 1747 
z
M 1159 2969 
Q 1341 3281 1617 3432 
Q 1894 3584 2278 3584 
Q 2916 3584 3314 3078 
Q 3713 2572 3713 1747 
Q 3713 922 3314 415 
Q 2916 -91 2278 -91 
Q 1894 -91 1617 61 
Q 1341 213 1159 525 
L 1159 0 
L 581 0 
L 581 4863 
L 1159 4863 
L 1159 2969 
z
" transform="scale(0.015625)"/>
      <path id="DejaVuSans-63" d="M 3122 3366 
L 3122 2828 
Q 2878 2963 2633 3030 
Q 2388 3097 2138 3097 
Q 1578 3097 1268 2742 
Q 959 2388 959 1747 
Q 959 1106 1268 751 
Q 1578 397 2138 397 
Q 2388 397 2633 464 
Q 2878 531 3122 666 
L 3122 134 
Q 2881 22 2623 -34 
Q 2366 -91 2075 -91 
Q 1284 -91 818 406 
Q 353 903 353 1747 
Q 353 2603 823 3093 
Q 1294 3584 2113 3584 
Q 2378 3584 2631 3529 
Q 2884 3475 3122 3366 
z
" transform="scale(0.015625)"/>
      <path id="DejaVuSans-68" d="M 3513 2113 
L 3513 0 
L 2938 0 
L 2938 2094 
Q 2938 2591 2744 2837 
Q 2550 3084 2163 3084 
Q 1697 3084 1428 2787 
Q 1159 2491 1159 1978 
L 1159 0 
L 581 0 
L 581 4863 
L 1159 4863 
L 1159 2956 
Q 1366 3272 1645 3428 
Q 1925 3584 2291 3584 
Q 2894 3584 3203 3211 
Q 3513 2838 3513 2113 
z
" transform="scale(0.015625)"/>
      <path id="DejaVuSans-6c" d="M 603 4863 
L 1178 4863 
L 1178 0 
L 603 0 
L 603 4863 
z
" transform="scale(0.015625)"/>
      <path id="DejaVuSans-64" d="M 2906 2969 
L 2906 4863 
L 3481 4863 
L 3481 0 
L 2906 0 
L 2906 525 
Q 2725 213 2448 61 
Q 2172 -91 1784 -91 
Q 1150 -91 751 415 
Q 353 922 353 1747 
Q 353 2572 751 3078 
Q 1150 3584 1784 3584 
Q 2172 3584 2448 3432 
Q 2725 3281 2906 2969 
z
M 947 1747 
Q 947 1113 1208 752 
Q 1469 391 1925 391 
Q 2381 391 2643 752 
Q 2906 1113 2906 1747 
Q 2906 2381 2643 2742 
Q 2381 3103 1925 3103 
Q 1469 3103 1208 2742 
Q 947 2381 947 1747 
z
" transform="scale(0.015625)"/>
     </defs>
     <use xlink:href="#DejaVuSans-52"/>
     <use xlink:href="#DejaVuSans-69" transform="translate(69.482422 0)"/>
     <use xlink:href="#DejaVuSans-65" transform="translate(97.265625 0)"/>
     <use xlink:href="#DejaVuSans-6d" transform="translate(158.789062 0)"/>
     <use xlink:href="#DejaVuSans-61" transform="translate(256.201172 0)"/>
     <use xlink:href="#DejaVuSans-6e" transform="translate(317.480469 0)"/>
     <use xlink:href="#DejaVuSans-6e" transform="translate(380.859375 0)"/>
     <use xlink:href="#DejaVuSans-2d" transform="translate(444.238281 0)"/>
     <use xlink:href="#DejaVuSans-48" transform="translate(480.322266 0)"/>
     <use xlink:href="#DejaVuSans-75" transform="translate(555.517578 0)"/>
     <use xlink:href="#DejaVuSans-72" transform="translate(618.896484 0)"/>
     <use xlink:href="#DejaVuSans-77" transform="translate(660.009766 0)"/>
     <use xlink:href="#DejaVuSans-69" transform="translate(741.796875 0)"/>
     <use xlink:href="#DejaVuSans-74" transform="translate(769.580078 0)"/>
     <use xlink:href="#DejaVuSans-7a" transform="translate(808.789062 0)"/>
     <use xlink:href="#DejaVuSans-20" transform="translate(861.279297 0)"/>
     <use xlink:href="#DejaVuSans-61" transform="translate(893.066406 0)"/>
     <use xlink:href="#DejaVuSans-73" transform="translate(954.345703 0)"/>
     <use xlink:href="#DejaVuSans-20" transform="translate(1006.445312 0)"/>
     <use xlink:href="#DejaVuSans-61" transform="translate(1038.232422 0)"/>
     <use xlink:href="#DejaVuSans-20" transform="translate(1099.511719 0)"/>
     <use xlink:href="#DejaVuSans-62" transform="translate(1131.298828 0)"/>
     <use xlink:href="#DejaVuSans-72" transform="translate(1194.775391 0)"/>
     <use xlink:href="#DejaVuSans-61" transform="translate(1235.888672 0)"/>
     <use xlink:href="#DejaVuSans-6e" transform="translate(1297.167969 0)"/>
     <use xlink:href="#DejaVuSans-63" transform="translate(1360.546875 0)"/>
     <use xlink:href="#DejaVuSans-68" transform="translate(1415.527344 0)"/>
     <use xlink:href="#DejaVuSans-20" transform="translate(1478.90625 0)"/>
     <use xlink:href="#DejaVuSans-6c" transform="translate(1510.693359 0)"/>
     <use xlink:href="#DejaVuSans-65" transform="translate(1538.476562 0)"/>
     <use xlink:href="#DejaVuSans-64" transform="translate(1600 0)"/>
     <use xlink:href="#DejaVuSans-67" transform="translate(1663.476562 0)"/>
     <use xlink:href="#DejaVuSans-65" transform="translate(1726.953125 0)"/>
     <use xlink:href="#DejaVuSans-72" transform="translate(1788.476562 0)"/>
    </g>
   </g>
   <g id="PathCollection_1">
    <defs>
     <path id="mb7738ada65" d="M 0 2.915476 
C 0.773193 2.915476 1.514823 2.608283 2.061553 2.061553 
C 2.608283 1.514823 2.915476 0.773193 2.915476 0 
C 2.915476 -0.773193 2.608283 -1.514823 2.061553 -2.061553 
C 1.514823 -2.608283 0.773193 -2.915476 0 -2.915476 
C -0.773193 -2.915476 -1.514823 -2.608283 -2.061553 -2.061553 
C -2.608283 -1.514823 -2.915476 -0.773193 -2.915476 0 
C -2.915476 0.773193 -2.608283 1.514823 -2.061553 2.061553 
C -1.514823 2.608283 -0.773193 2.915476 0 2.915476 
z
" style="stroke: #b44b39"/>
    </defs>
    <g clip-path="url(#pa2d0434bf1)">
     <use xlink:href="#mb7738ada65" x="72.423529" y="177.259535" style="fill: #b44b39; stroke: #b44b39"/>
    </g>
   </g>
   <g id="PathCollection_2">
    <g clip-path="url(#pa2d0434bf1)">
     <use xlink:href="#mb7738ada65" x="154.588235" y="177.259535" style="fill: #b44b39; stroke: #b44b39"/>
    </g>
   </g>
   <g id="PathCollection_3">
    <g clip-path="url(#pa2d0434bf1)">
     <use xlink:href="#mb7738ada65" x="236.752941" y="177.259535" style="fill: #b44b39; stroke: #b44b39"/>
    </g>
   </g>
   <g id="PathCollection_4">
    <g clip-path="url(#pa2d0434bf1)">
     <use xlink:href="#mb7738ada65" x="318.917647" y="177.259535" style="fill: #b44b39; stroke: #b44b39"/>
    </g>
   </g>
   <g id="PathCollection_5">
    <g clip-path="url(#pa2d0434bf1)">
     <use xlink:href="#mb7738ada65" x="401.082353" y="177.259535" style="fill: #b44b39; stroke: #b44b39"/>
    </g>
   </g>
   <g id="PathCollection_6">
    <g clip-path="url(#pa2d0434bf1)">
     <use xlink:href="#mb7738ada65" x="483.247059" y="177.259535" style="fill: #b44b39; stroke: #b44b39"/>
    </g>
   </g>
   <g id="PathCollection_7">
    <g clip-path="url(#pa2d0434bf1)">
     <use xlink:href="#mb7738ada65" x="565.411765" y="177.259535" style="fill: #b44b39; stroke: #b44b39"/>
    </g>
   </g>
   <g id="PathCollection_8">
    <g clip-path="url(#pa2d0434bf1)">
     <use xlink:href="#mb7738ada65" x="647.576471" y="177.259535" style="fill: #b44b39; stroke: #b44b39"/>
    </g>
   </g>
  </g>
 </g>
 <defs>
  <clipPath id="pa2d0434bf1">
   <rect x="10.8" y="26.88" width="698.4" height="307.92"/>
  </clipPath>
 </defs>
</svg>
