<?xml version="1.0" encoding="utf-8" standalone="no"?>
<!DOCTYPE svg PUBLIC "-//W3C//DTD SVG 1.1//EN"
  "http://www.w3.org/Graphics/SVG/1.1/DTD/svg11.dtd">
<svg xmlns:xlink="http://www.w3.org/1999/xlink" width="792pt" height="403.2pt" viewBox="0 0 792 403.2" xmlns="http://www.w3.org/2000/svg" version="1.1">
 <metadata>
  <rdf:RDF xmlns:dc="http://purl.org/dc/elements/1.1/" xmlns:cc="http://creativecommons.org/ns#" xmlns:rdf="http://www.w3.org/1999/02/22-rdf-syntax-ns#">
   <cc:Work>
    <dc:type rdf:resource="http://purl.org/dc/dcmitype/StillImage"/>
    <dc:date>2026-05-17T13:48:24.576834</dc:date>
    <dc:format>image/svg+xml</dc:format>
    <dc:creator>
     <cc:Agent>
      <dc:title>Matplotlib v3.10.9, https://matplotlib.org/</dc:title>
     </cc:Agent>
    </dc:creator>
   </cc:Work>
  </rdf:RDF>
 </metadata>
 <defs>
  <style type="text/css">*{stroke-linejoin: round; stroke-linecap: butt}</style>
 </defs>
 <g id="figure_1">
  <g id="patch_1">
   <path d="M 0 403.2 
L 792 403.2 
L 792 0 
L 0 0 
z
" style="fill: #ffffff"/>
  </g>
  <g id="axes_1">
   <g id="patch_2">
    <path d="M 86.065942 268.62914 
Q 234.378819 232.135222 379.651872 196.389283 
" clip-path="url(#pd3ad3075cc)" style="fill: none; stroke: #526d8a; stroke-width: 2.8; stroke-linecap: round"/>
    <path d="M 371.800253 194.613875 
L 379.651872 196.389283 
L 373.520574 201.605334 
z
" clip-path="url(#pd3ad3075cc)" style="fill: #526d8a; stroke: #526d8a; stroke-width: 2.8; stroke-linecap: round"/>
   </g>
   <g id="patch_3">
    <path d="M 84.82479 265.846279 
Q 234.377886 164.648789 381.986455 64.767095 
" clip-path="url(#pd3ad3075cc)" style="fill: none; stroke: #526d8a; stroke-width: 2.1; stroke-linecap: round"/>
    <path d="M 374.005842 65.820572 
L 381.986455 64.767095 
L 378.040869 71.783671 
z
" clip-path="url(#pd3ad3075cc)" style="fill: #526d8a; stroke: #526d8a; stroke-width: 2.1; stroke-linecap: round"/>
   </g>
   <g id="patch_4">
    <path d="M 399.751854 193.950139 
Q 538.028524 199.998922 675.523317 206.013503 
" clip-path="url(#pd3ad3075cc)" style="fill: none; stroke: #526d8a; stroke-width: 0.7; stroke-linecap: round"/>
    <path d="M 668.487524 202.102286 
L 675.523317 206.013503 
L 668.172868 209.295407 
z
" clip-path="url(#pd3ad3075cc)" style="fill: #526d8a; stroke: #526d8a; stroke-width: 0.7; stroke-linecap: round"/>
   </g>
   <g id="patch_5">
    <path d="M 372.559805 345.657963 
Q 381.306797 273.915035 389.864354 203.725849 
" clip-path="url(#pd3ad3075cc)" style="fill: none; stroke: #526d8a; stroke-width: 1.4; stroke-linecap: round"/>
    <path d="M 385.419435 210.437235 
L 389.864354 203.725849 
L 392.566511 211.308616 
z
" clip-path="url(#pd3ad3075cc)" style="fill: #526d8a; stroke: #526d8a; stroke-width: 1.4; stroke-linecap: round"/>
   </g>
   <g id="patch_6">
    <path d="M 686.05231 215.01752 
Q 694.756414 283.553033 703.263313 350.53577 
" clip-path="url(#pd3ad3075cc)" style="fill: none; stroke: #526d8a; stroke-width: 1.4; stroke-linecap: round"/>
    <path d="M 705.927503 342.939581 
L 703.263313 350.53577 
L 698.784876 343.846704 
z
" clip-path="url(#pd3ad3075cc)" style="fill: #526d8a; stroke: #526d8a; stroke-width: 1.4; stroke-linecap: round"/>
   </g>
   <g id="patch_7">
    <path d="M 399.75858 58.770795 
Q 552.725427 61.812337 703.344867 64.807203 
" clip-path="url(#pd3ad3075cc)" style="fill: none; stroke: #526d8a; stroke-width: 2.1; stroke-linecap: round"/>
    <path d="M 696.217857 61.06478 
L 703.344867 64.807203 
L 696.074723 68.263358 
z
" clip-path="url(#pd3ad3075cc)" style="fill: #526d8a; stroke: #526d8a; stroke-width: 2.1; stroke-linecap: round"/>
   </g>
   <g id="patch_8">
    <path d="M 695.894986 360.514256 
Q 538.031882 357.467679 381.733734 354.451304 
" clip-path="url(#pd3ad3075cc)" style="fill: none; stroke: #526d8a; stroke-width: 1.4; stroke-linecap: round"/>
    <path d="M 388.862931 358.18956 
L 381.733734 354.451304 
L 389.001857 350.9909 
z
" clip-path="url(#pd3ad3075cc)" style="fill: #526d8a; stroke: #526d8a; stroke-width: 1.4; stroke-linecap: round"/>
   </g>
   <g id="text_1">
    <g id="patch_9">
     <path d="M 218.660336 247.073954 
L 284.897125 230.775707 
Q 287.227612 230.202266 286.654171 227.87178 
L 282.663804 211.654752 
Q 282.090363 209.324265 279.759877 209.897706 
L 213.523088 226.195953 
Q 211.192601 226.769393 211.766042 229.09988 
L 215.756409 245.316908 
Q 216.32985 247.647395 218.660336 247.073954 
z
" clip-path="url(#pd3ad3075cc)" style="fill: #ffffff; stroke: #ffffff; stroke-linejoin: miter"/>
    </g>
    <g clip-path="url(#pd3ad3075cc)">
     <!-- effective divisors -->
     <g transform="translate(215.548944 234.429124) rotate(-13.8236) scale(0.08 -0.08)">
      <defs>
       <path id="DejaVuSans-65" d="M 3597 1894 
L 3597 1613 
L 953 1613 
Q 991 1019 1311 708 
Q 1631 397 2203 397 
Q 2534 397 2845 478 
Q 3156 559 3463 722 
L 3463 178 
Q 3153 47 2828 -22 
Q 2503 -91 2169 -91 
Q 1331 -91 842 396 
Q 353 884 353 1716 
Q 353 2575 817 3079 
Q 1281 3584 2069 3584 
Q 2775 3584 3186 3129 
Q 3597 2675 3597 1894 
z
M 3022 2063 
Q 3016 2534 2758 2815 
Q 2500 3097 2075 3097 
Q 1594 3097 1305 2825 
Q 1016 2553 972 2059 
L 3022 2063 
z
" transform="scale(0.015625)"/>
       <path id="DejaVuSans-66" d="M 2375 4863 
L 2375 4384 
L 1825 4384 
Q 1516 4384 1395 4259 
Q 1275 4134 1275 3809 
L 1275 3500 
L 2222 3500 
L 2222 3053 
L 1275 3053 
L 1275 0 
L 697 0 
L 697 3053 
L 147 3053 
L 147 3500 
L 697 3500 
L 697 3744 
Q 697 4328 969 4595 
Q 1241 4863 1831 4863 
L 2375 4863 
z
" transform="scale(0.015625)"/>
       <path id="DejaVuSans-63" d="M 3122 3366 
L 3122 2828 
Q 2878 2963 2633 3030 
Q 2388 3097 2138 3097 
Q 1578 3097 1268 2742 
Q 959 2388 959 1747 
Q 959 1106 1268 751 
Q 1578 397 2138 397 
Q 2388 397 2633 464 
Q 2878 531 3122 666 
L 3122 134 
Q 2881 22 2623 -34 
Q 2366 -91 2075 -91 
Q 1284 -91 818 406 
Q 353 903 353 1747 
Q 353 2603 823 3093 
Q 1294 3584 2113 3584 
Q 2378 3584 2631 3529 
Q 2884 3475 3122 3366 
z
" transform="scale(0.015625)"/>
       <path id="DejaVuSans-74" d="M 1172 4494 
L 1172 3500 
L 2356 3500 
L 2356 3053 
L 1172 3053 
L 1172 1153 
Q 1172 725 1289 603 
Q 1406 481 1766 481 
L 2356 481 
L 2356 0 
L 1766 0 
Q 1100 0 847 248 
Q 594 497 594 1153 
L 594 3053 
L 172 3053 
L 172 3500 
L 594 3500 
L 594 4494 
L 1172 4494 
z
" transform="scale(0.015625)"/>
       <path id="DejaVuSans-69" d="M 603 3500 
L 1178 3500 
L 1178 0 
L 603 0 
L 603 3500 
z
M 603 4863 
L 1178 4863 
L 1178 4134 
L 603 4134 
L 603 4863 
z
" transform="scale(0.015625)"/>
       <path id="DejaVuSans-76" d="M 191 3500 
L 800 3500 
L 1894 563 
L 2988 3500 
L 3597 3500 
L 2284 0 
L 1503 0 
L 191 3500 
z
" transform="scale(0.015625)"/>
       <path id="DejaVuSans-20" transform="scale(0.015625)"/>
       <path id="DejaVuSans-64" d="M 2906 2969 
L 2906 4863 
L 3481 4863 
L 3481 0 
L 2906 0 
L 2906 525 
Q 2725 213 2448 61 
Q 2172 -91 1784 -91 
Q 1150 -91 751 415 
Q 353 922 353 1747 
Q 353 2572 751 3078 
Q 1150 3584 1784 3584 
Q 2172 3584 2448 3432 
Q 2725 3281 2906 2969 
z
M 947 1747 
Q 947 1113 1208 752 
Q 1469 391 1925 391 
Q 2381 391 2643 752 
Q 2906 1113 2906 1747 
Q 2906 2381 2643 2742 
Q 2381 3103 1925 3103 
Q 1469 3103 1208 2742 
Q 947 2381 947 1747 
z
" transform="scale(0.015625)"/>
       <path id="DejaVuSans-73" d="M 2834 3397 
L 2834 2853 
Q 2591 2978 2328 3040 
Q 2066 3103 1784 3103 
Q 1356 3103 1142 2972 
Q 928 2841 928 2578 
Q 928 2378 1081 2264 
Q 1234 2150 1697 2047 
L 1894 2003 
Q 2506 1872 2764 1633 
Q 3022 1394 3022 966 
Q 3022 478 2636 193 
Q 2250 -91 1575 -91 
Q 1294 -91 989 -36 
Q 684 19 347 128 
L 347 722 
Q 666 556 975 473 
Q 1284 391 1588 391 
Q 1994 391 2212 530 
Q 2431 669 2431 922 
Q 2431 1156 2273 1281 
Q 2116 1406 1581 1522 
L 1381 1569 
Q 847 1681 609 1914 
Q 372 2147 372 2553 
Q 372 3047 722 3315 
Q 1072 3584 1716 3584 
Q 2034 3584 2315 3537 
Q 2597 3491 2834 3397 
z
" transform="scale(0.015625)"/>
       <path id="DejaVuSans-6f" d="M 1959 3097 
Q 1497 3097 1228 2736 
Q 959 2375 959 1747 
Q 959 1119 1226 758 
Q 1494 397 1959 397 
Q 2419 397 2687 759 
Q 2956 1122 2956 1747 
Q 2956 2369 2687 2733 
Q 2419 3097 1959 3097 
z
M 1959 3584 
Q 2709 3584 3137 3096 
Q 3566 2609 3566 1747 
Q 3566 888 3137 398 
Q 2709 -91 1959 -91 
Q 1206 -91 779 398 
Q 353 888 353 1747 
Q 353 2609 779 3096 
Q 1206 3584 1959 3584 
z
" transform="scale(0.015625)"/>
       <path id="DejaVuSans-72" d="M 2631 2963 
Q 2534 3019 2420 3045 
Q 2306 3072 2169 3072 
Q 1681 3072 1420 2755 
Q 1159 2438 1159 1844 
L 1159 0 
L 581 0 
L 581 3500 
L 1159 3500 
L 1159 2956 
Q 1341 3275 1631 3429 
Q 1922 3584 2338 3584 
Q 2397 3584 2469 3576 
Q 2541 3569 2628 3553 
L 2631 2963 
z
" transform="scale(0.015625)"/>
      </defs>
      <use xlink:href="#DejaVuSans-65"/>
      <use xlink:href="#DejaVuSans-66" transform="translate(61.523438 0)"/>
      <use xlink:href="#DejaVuSans-66" transform="translate(96.728516 0)"/>
      <use xlink:href="#DejaVuSans-65" transform="translate(131.933594 0)"/>
      <use xlink:href="#DejaVuSans-63" transform="translate(193.457031 0)"/>
      <use xlink:href="#DejaVuSans-74" transform="translate(248.4375 0)"/>
      <use xlink:href="#DejaVuSans-69" transform="translate(287.646484 0)"/>
      <use xlink:href="#DejaVuSans-76" transform="translate(315.429688 0)"/>
      <use xlink:href="#DejaVuSans-65" transform="translate(374.609375 0)"/>
      <use xlink:href="#DejaVuSans-20" transform="translate(436.132812 0)"/>
      <use xlink:href="#DejaVuSans-64" transform="translate(467.919922 0)"/>
      <use xlink:href="#DejaVuSans-69" transform="translate(531.396484 0)"/>
      <use xlink:href="#DejaVuSans-76" transform="translate(559.179688 0)"/>
      <use xlink:href="#DejaVuSans-69" transform="translate(618.359375 0)"/>
      <use xlink:href="#DejaVuSans-73" transform="translate(646.142578 0)"/>
      <use xlink:href="#DejaVuSans-6f" transform="translate(698.242188 0)"/>
      <use xlink:href="#DejaVuSans-72" transform="translate(759.423828 0)"/>
      <use xlink:href="#DejaVuSans-73" transform="translate(800.537109 0)"/>
     </g>
    </g>
    <g clip-path="url(#pd3ad3075cc)">
     <!-- w=4 -->
     <g transform="translate(241.905186 237.169355) rotate(-13.8236) scale(0.08 -0.08)">
      <defs>
       <path id="DejaVuSans-77" d="M 269 3500 
L 844 3500 
L 1563 769 
L 2278 3500 
L 2956 3500 
L 3675 769 
L 4391 3500 
L 4966 3500 
L 4050 0 
L 3372 0 
L 2619 2869 
L 1863 0 
L 1184 0 
L 269 3500 
z
" transform="scale(0.015625)"/>
       <path id="DejaVuSans-3d" d="M 678 2906 
L 4684 2906 
L 4684 2381 
L 678 2381 
L 678 2906 
z
M 678 1631 
L 4684 1631 
L 4684 1100 
L 678 1100 
L 678 1631 
z
" transform="scale(0.015625)"/>
       <path id="DejaVuSans-34" d="M 2419 4116 
L 825 1625 
L 2419 1625 
L 2419 4116 
z
M 2253 4666 
L 3047 4666 
L 3047 1625 
L 3713 1625 
L 3713 1100 
L 3047 1100 
L 3047 0 
L 2419 0 
L 2419 1100 
L 313 1100 
L 313 1709 
L 2253 4666 
z
" transform="scale(0.015625)"/>
      </defs>
      <use xlink:href="#DejaVuSans-77"/>
      <use xlink:href="#DejaVuSans-3d" transform="translate(81.787109 0)"/>
      <use xlink:href="#DejaVuSans-34" transform="translate(165.576172 0)"/>
     </g>
    </g>
   </g>
   <g id="text_2">
    <g id="patch_10">
     <path d="M 207.94714 195.513855 
L 302.768709 131.351326 
Q 304.756409 130.006317 303.4114 128.018617 
L 294.05196 114.186917 
Q 292.706951 112.199217 290.719251 113.544226 
L 195.897682 177.706755 
Q 193.909982 179.051764 195.254991 181.039464 
L 204.614431 194.871164 
Q 205.95944 196.858864 207.94714 195.513855 
z
" clip-path="url(#pd3ad3075cc)" style="fill: #ffffff; stroke: #ffffff; stroke-linejoin: miter"/>
    </g>
    <g clip-path="url(#pd3ad3075cc)">
     <!-- ramification correspondence -->
     <g transform="translate(200.649346 184.728926) rotate(-34.084874) scale(0.08 -0.08)">
      <defs>
       <path id="DejaVuSans-61" d="M 2194 1759 
Q 1497 1759 1228 1600 
Q 959 1441 959 1056 
Q 959 750 1161 570 
Q 1363 391 1709 391 
Q 2188 391 2477 730 
Q 2766 1069 2766 1631 
L 2766 1759 
L 2194 1759 
z
M 3341 1997 
L 3341 0 
L 2766 0 
L 2766 531 
Q 2569 213 2275 61 
Q 1981 -91 1556 -91 
Q 1019 -91 701 211 
Q 384 513 384 1019 
Q 384 1609 779 1909 
Q 1175 2209 1959 2209 
L 2766 2209 
L 2766 2266 
Q 2766 2663 2505 2880 
Q 2244 3097 1772 3097 
Q 1472 3097 1187 3025 
Q 903 2953 641 2809 
L 641 3341 
Q 956 3463 1253 3523 
Q 1550 3584 1831 3584 
Q 2591 3584 2966 3190 
Q 3341 2797 3341 1997 
z
" transform="scale(0.015625)"/>
       <path id="DejaVuSans-6d" d="M 3328 2828 
Q 3544 3216 3844 3400 
Q 4144 3584 4550 3584 
Q 5097 3584 5394 3201 
Q 5691 2819 5691 2113 
L 5691 0 
L 5113 0 
L 5113 2094 
Q 5113 2597 4934 2840 
Q 4756 3084 4391 3084 
Q 3944 3084 3684 2787 
Q 3425 2491 3425 1978 
L 3425 0 
L 2847 0 
L 2847 2094 
Q 2847 2600 2669 2842 
Q 2491 3084 2119 3084 
Q 1678 3084 1418 2786 
Q 1159 2488 1159 1978 
L 1159 0 
L 581 0 
L 581 3500 
L 1159 3500 
L 1159 2956 
Q 1356 3278 1631 3431 
Q 1906 3584 2284 3584 
Q 2666 3584 2933 3390 
Q 3200 3197 3328 2828 
z
" transform="scale(0.015625)"/>
       <path id="DejaVuSans-6e" d="M 3513 2113 
L 3513 0 
L 2938 0 
L 2938 2094 
Q 2938 2591 2744 2837 
Q 2550 3084 2163 3084 
Q 1697 3084 1428 2787 
Q 1159 2491 1159 1978 
L 1159 0 
L 581 0 
L 581 3500 
L 1159 3500 
L 1159 2956 
Q 1366 3272 1645 3428 
Q 1925 3584 2291 3584 
Q 2894 3584 3203 3211 
Q 3513 2838 3513 2113 
z
" transform="scale(0.015625)"/>
       <path id="DejaVuSans-70" d="M 1159 525 
L 1159 -1331 
L 581 -1331 
L 581 3500 
L 1159 3500 
L 1159 2969 
Q 1341 3281 1617 3432 
Q 1894 3584 2278 3584 
Q 2916 3584 3314 3078 
Q 3713 2572 3713 1747 
Q 3713 922 3314 415 
Q 2916 -91 2278 -91 
Q 1894 -91 1617 61 
Q 1341 213 1159 525 
z
M 3116 1747 
Q 3116 2381 2855 2742 
Q 2594 3103 2138 3103 
Q 1681 3103 1420 2742 
Q 1159 2381 1159 1747 
Q 1159 1113 1420 752 
Q 1681 391 2138 391 
Q 2594 391 2855 752 
Q 3116 1113 3116 1747 
z
" transform="scale(0.015625)"/>
      </defs>
      <use xlink:href="#DejaVuSans-72"/>
      <use xlink:href="#DejaVuSans-61" transform="translate(41.113281 0)"/>
      <use xlink:href="#DejaVuSans-6d" transform="translate(102.392578 0)"/>
      <use xlink:href="#DejaVuSans-69" transform="translate(199.804688 0)"/>
      <use xlink:href="#DejaVuSans-66" transform="translate(227.587891 0)"/>
      <use xlink:href="#DejaVuSans-69" transform="translate(262.792969 0)"/>
      <use xlink:href="#DejaVuSans-63" transform="translate(290.576172 0)"/>
      <use xlink:href="#DejaVuSans-61" transform="translate(345.556641 0)"/>
      <use xlink:href="#DejaVuSans-74" transform="translate(406.835938 0)"/>
      <use xlink:href="#DejaVuSans-69" transform="translate(446.044922 0)"/>
      <use xlink:href="#DejaVuSans-6f" transform="translate(473.828125 0)"/>
      <use xlink:href="#DejaVuSans-6e" transform="translate(535.009766 0)"/>
      <use xlink:href="#DejaVuSans-20" transform="translate(598.388672 0)"/>
      <use xlink:href="#DejaVuSans-63" transform="translate(630.175781 0)"/>
      <use xlink:href="#DejaVuSans-6f" transform="translate(685.15625 0)"/>
      <use xlink:href="#DejaVuSans-72" transform="translate(746.337891 0)"/>
      <use xlink:href="#DejaVuSans-72" transform="translate(785.701172 0)"/>
      <use xlink:href="#DejaVuSans-65" transform="translate(824.564453 0)"/>
      <use xlink:href="#DejaVuSans-73" transform="translate(886.087891 0)"/>
      <use xlink:href="#DejaVuSans-70" transform="translate(938.1875 0)"/>
      <use xlink:href="#DejaVuSans-6f" transform="translate(1001.664062 0)"/>
      <use xlink:href="#DejaVuSans-6e" transform="translate(1062.845703 0)"/>
      <use xlink:href="#DejaVuSans-64" transform="translate(1126.224609 0)"/>
      <use xlink:href="#DejaVuSans-65" transform="translate(1189.701172 0)"/>
      <use xlink:href="#DejaVuSans-6e" transform="translate(1251.224609 0)"/>
      <use xlink:href="#DejaVuSans-63" transform="translate(1314.603516 0)"/>
      <use xlink:href="#DejaVuSans-65" transform="translate(1369.583984 0)"/>
     </g>
    </g>
    <g clip-path="url(#pd3ad3075cc)">
     <!-- w=3 -->
     <g transform="translate(245.487399 165.204963) rotate(-34.084874) scale(0.08 -0.08)">
      <defs>
       <path id="DejaVuSans-33" d="M 2597 2516 
Q 3050 2419 3304 2112 
Q 3559 1806 3559 1356 
Q 3559 666 3084 287 
Q 2609 -91 1734 -91 
Q 1441 -91 1130 -33 
Q 819 25 488 141 
L 488 750 
Q 750 597 1062 519 
Q 1375 441 1716 441 
Q 2309 441 2620 675 
Q 2931 909 2931 1356 
Q 2931 1769 2642 2001 
Q 2353 2234 1838 2234 
L 1294 2234 
L 1294 2753 
L 1863 2753 
Q 2328 2753 2575 2939 
Q 2822 3125 2822 3475 
Q 2822 3834 2567 4026 
Q 2313 4219 1838 4219 
Q 1578 4219 1281 4162 
Q 984 4106 628 3988 
L 628 4550 
Q 988 4650 1302 4700 
Q 1616 4750 1894 4750 
Q 2613 4750 3031 4423 
Q 3450 4097 3450 3541 
Q 3450 3153 3228 2886 
Q 3006 2619 2597 2516 
z
" transform="scale(0.015625)"/>
      </defs>
      <use xlink:href="#DejaVuSans-77"/>
      <use xlink:href="#DejaVuSans-3d" transform="translate(81.787109 0)"/>
      <use xlink:href="#DejaVuSans-33" transform="translate(165.576172 0)"/>
     </g>
    </g>
   </g>
   <g id="text_3">
    <g id="patch_11">
     <path d="M 532.398283 210.513288 
L 570.374466 212.17452 
Q 572.772173 212.279406 572.877059 209.881699 
L 573.606919 193.196905 
Q 573.711805 190.799198 571.314098 190.694312 
L 533.337915 189.03308 
Q 530.940208 188.928194 530.835322 191.325901 
L 530.105462 208.010695 
Q 530.000576 210.408403 532.398283 210.513288 
z
" clip-path="url(#pd3ad3075cc)" style="fill: #ffffff; stroke: #ffffff; stroke-linejoin: miter"/>
    </g>
    <g clip-path="url(#pd3ad3075cc)">
     <!-- Abel map -->
     <g transform="translate(532.967374 197.503729) rotate(-357.495247) scale(0.08 -0.08)">
      <defs>
       <path id="DejaVuSans-41" d="M 2188 4044 
L 1331 1722 
L 3047 1722 
L 2188 4044 
z
M 1831 4666 
L 2547 4666 
L 4325 0 
L 3669 0 
L 3244 1197 
L 1141 1197 
L 716 0 
L 50 0 
L 1831 4666 
z
" transform="scale(0.015625)"/>
       <path id="DejaVuSans-62" d="M 3116 1747 
Q 3116 2381 2855 2742 
Q 2594 3103 2138 3103 
Q 1681 3103 1420 2742 
Q 1159 2381 1159 1747 
Q 1159 1113 1420 752 
Q 1681 391 2138 391 
Q 2594 391 2855 752 
Q 3116 1113 3116 1747 
z
M 1159 2969 
Q 1341 3281 1617 3432 
Q 1894 3584 2278 3584 
Q 2916 3584 3314 3078 
Q 3713 2572 3713 1747 
Q 3713 922 3314 415 
Q 2916 -91 2278 -91 
Q 1894 -91 1617 61 
Q 1341 213 1159 525 
L 1159 0 
L 581 0 
L 581 4863 
L 1159 4863 
L 1159 2969 
z
" transform="scale(0.015625)"/>
       <path id="DejaVuSans-6c" d="M 603 4863 
L 1178 4863 
L 1178 0 
L 603 0 
L 603 4863 
z
" transform="scale(0.015625)"/>
      </defs>
      <use xlink:href="#DejaVuSans-41"/>
      <use xlink:href="#DejaVuSans-62" transform="translate(68.408203 0)"/>
      <use xlink:href="#DejaVuSans-65" transform="translate(131.884766 0)"/>
      <use xlink:href="#DejaVuSans-6c" transform="translate(193.408203 0)"/>
      <use xlink:href="#DejaVuSans-20" transform="translate(221.191406 0)"/>
      <use xlink:href="#DejaVuSans-6d" transform="translate(252.978516 0)"/>
      <use xlink:href="#DejaVuSans-61" transform="translate(350.390625 0)"/>
      <use xlink:href="#DejaVuSans-70" transform="translate(411.669922 0)"/>
     </g>
    </g>
    <g clip-path="url(#pd3ad3075cc)">
     <!-- w=1 -->
     <g transform="translate(542.404604 206.883369) rotate(-357.495247) scale(0.08 -0.08)">
      <defs>
       <path id="DejaVuSans-31" d="M 794 531 
L 1825 531 
L 1825 4091 
L 703 3866 
L 703 4441 
L 1819 4666 
L 2450 4666 
L 2450 531 
L 3481 531 
L 3481 0 
L 794 0 
L 794 531 
z
" transform="scale(0.015625)"/>
      </defs>
      <use xlink:href="#DejaVuSans-77"/>
      <use xlink:href="#DejaVuSans-3d" transform="translate(81.787109 0)"/>
      <use xlink:href="#DejaVuSans-31" transform="translate(165.576172 0)"/>
     </g>
    </g>
   </g>
   <g id="text_4">
    <g id="patch_12">
     <path d="M 391.01876 284.148857 
L 394.942546 251.965922 
Q 395.233006 249.583563 392.850648 249.293103 
L 375.796186 247.2138 
Q 373.413827 246.92334 373.123367 249.305699 
L 369.199581 281.488635 
Q 368.909121 283.870993 371.291479 284.161453 
L 388.345941 286.240756 
Q 390.7283 286.531216 391.01876 284.148857 
z
" clip-path="url(#pd3ad3075cc)" style="fill: #ffffff; stroke: #ffffff; stroke-linejoin: miter"/>
    </g>
    <g clip-path="url(#pd3ad3075cc)">
     <!-- fiber |D| -->
     <g transform="translate(377.871615 282.54594) rotate(-83.048731) scale(0.08 -0.08)">
      <defs>
       <path id="DejaVuSans-7c" d="M 1344 4891 
L 1344 -1509 
L 813 -1509 
L 813 4891 
L 1344 4891 
z
" transform="scale(0.015625)"/>
       <path id="DejaVuSans-44" d="M 1259 4147 
L 1259 519 
L 2022 519 
Q 2988 519 3436 956 
Q 3884 1394 3884 2338 
Q 3884 3275 3436 3711 
Q 2988 4147 2022 4147 
L 1259 4147 
z
M 628 4666 
L 1925 4666 
Q 3281 4666 3915 4102 
Q 4550 3538 4550 2338 
Q 4550 1131 3912 565 
Q 3275 0 1925 0 
L 628 0 
L 628 4666 
z
" transform="scale(0.015625)"/>
      </defs>
      <use xlink:href="#DejaVuSans-66"/>
      <use xlink:href="#DejaVuSans-69" transform="translate(35.205078 0)"/>
      <use xlink:href="#DejaVuSans-62" transform="translate(62.988281 0)"/>
      <use xlink:href="#DejaVuSans-65" transform="translate(126.464844 0)"/>
      <use xlink:href="#DejaVuSans-72" transform="translate(187.988281 0)"/>
      <use xlink:href="#DejaVuSans-20" transform="translate(229.101562 0)"/>
      <use xlink:href="#DejaVuSans-7c" transform="translate(260.888672 0)"/>
      <use xlink:href="#DejaVuSans-44" transform="translate(294.580078 0)"/>
      <use xlink:href="#DejaVuSans-7c" transform="translate(371.582031 0)"/>
     </g>
    </g>
    <g clip-path="url(#pd3ad3075cc)">
     <!-- w=2 -->
     <g transform="translate(387.837201 276.666308) rotate(-83.048731) scale(0.08 -0.08)">
      <defs>
       <path id="DejaVuSans-32" d="M 1228 531 
L 3431 531 
L 3431 0 
L 469 0 
L 469 531 
Q 828 903 1448 1529 
Q 2069 2156 2228 2338 
Q 2531 2678 2651 2914 
Q 2772 3150 2772 3378 
Q 2772 3750 2511 3984 
Q 2250 4219 1831 4219 
Q 1534 4219 1204 4116 
Q 875 4013 500 3803 
L 500 4441 
Q 881 4594 1212 4672 
Q 1544 4750 1819 4750 
Q 2544 4750 2975 4387 
Q 3406 4025 3406 3419 
Q 3406 3131 3298 2873 
Q 3191 2616 2906 2266 
Q 2828 2175 2409 1742 
Q 1991 1309 1228 531 
z
" transform="scale(0.015625)"/>
      </defs>
      <use xlink:href="#DejaVuSans-77"/>
      <use xlink:href="#DejaVuSans-3d" transform="translate(81.787109 0)"/>
      <use xlink:href="#DejaVuSans-32" transform="translate(165.576172 0)"/>
     </g>
    </g>
   </g>
   <g id="text_5">
    <g id="patch_13">
     <path d="M 683.152074 278.391907 
L 686.551424 305.158159 
Q 686.853799 307.539035 689.234675 307.236661 
L 706.2438 305.076479 
Q 708.624676 304.774104 708.322302 302.393228 
L 704.922951 275.626976 
Q 704.620577 273.2461 702.239701 273.548475 
L 685.230575 275.708657 
Q 682.849699 276.011031 683.152074 278.391907 
z
" clip-path="url(#pd3ad3075cc)" style="fill: #ffffff; stroke: #ffffff; stroke-linejoin: miter"/>
    </g>
    <g clip-path="url(#pd3ad3075cc)">
     <!-- W^r_d -->
     <g transform="translate(696.291036 276.723241) rotate(-277.237894) scale(0.08 -0.08)">
      <defs>
       <path id="DejaVuSans-57" d="M 213 4666 
L 850 4666 
L 1831 722 
L 2809 4666 
L 3519 4666 
L 4500 722 
L 5478 4666 
L 6119 4666 
L 4947 0 
L 4153 0 
L 3169 4050 
L 2175 0 
L 1381 0 
L 213 4666 
z
" transform="scale(0.015625)"/>
       <path id="DejaVuSans-5e" d="M 2988 4666 
L 4684 2925 
L 4056 2925 
L 2681 4159 
L 1306 2925 
L 678 2925 
L 2375 4666 
L 2988 4666 
z
" transform="scale(0.015625)"/>
       <path id="DejaVuSans-5f" d="M 3263 -1063 
L 3263 -1509 
L -63 -1509 
L -63 -1063 
L 3263 -1063 
z
" transform="scale(0.015625)"/>
      </defs>
      <use xlink:href="#DejaVuSans-57"/>
      <use xlink:href="#DejaVuSans-5e" transform="translate(98.876953 0)"/>
      <use xlink:href="#DejaVuSans-72" transform="translate(182.666016 0)"/>
      <use xlink:href="#DejaVuSans-5f" transform="translate(223.779297 0)"/>
      <use xlink:href="#DejaVuSans-64" transform="translate(273.779297 0)"/>
     </g>
    </g>
    <g clip-path="url(#pd3ad3075cc)">
     <!-- w=2 -->
     <g transform="translate(687.728031 282.167974) rotate(-277.237894) scale(0.08 -0.08)">
      <use xlink:href="#DejaVuSans-77"/>
      <use xlink:href="#DejaVuSans-3d" transform="translate(81.787109 0)"/>
      <use xlink:href="#DejaVuSans-32" transform="translate(165.576172 0)"/>
     </g>
    </g>
   </g>
   <g id="text_6">
    <g id="patch_14">
     <path d="M 529.020439 72.093495 
L 606.596356 73.635988 
Q 608.995881 73.683699 609.043593 71.284174 
L 609.375599 54.586724 
Q 609.423311 52.187198 607.023785 52.139487 
L 529.447869 50.596994 
Q 527.048343 50.549282 527.000631 52.948808 
L 526.668625 69.646258 
Q 526.620914 72.045783 529.020439 72.093495 
z
" clip-path="url(#pd3ad3075cc)" style="fill: #ffffff; stroke: #ffffff; stroke-linejoin: miter"/>
    </g>
    <g clip-path="url(#pd3ad3075cc)">
     <!-- degree/genus/class -->
     <g transform="translate(529.279313 59.074068) rotate(-358.8609) scale(0.08 -0.08)">
      <defs>
       <path id="DejaVuSans-67" d="M 2906 1791 
Q 2906 2416 2648 2759 
Q 2391 3103 1925 3103 
Q 1463 3103 1205 2759 
Q 947 2416 947 1791 
Q 947 1169 1205 825 
Q 1463 481 1925 481 
Q 2391 481 2648 825 
Q 2906 1169 2906 1791 
z
M 3481 434 
Q 3481 -459 3084 -895 
Q 2688 -1331 1869 -1331 
Q 1566 -1331 1297 -1286 
Q 1028 -1241 775 -1147 
L 775 -588 
Q 1028 -725 1275 -790 
Q 1522 -856 1778 -856 
Q 2344 -856 2625 -561 
Q 2906 -266 2906 331 
L 2906 616 
Q 2728 306 2450 153 
Q 2172 0 1784 0 
Q 1141 0 747 490 
Q 353 981 353 1791 
Q 353 2603 747 3093 
Q 1141 3584 1784 3584 
Q 2172 3584 2450 3431 
Q 2728 3278 2906 2969 
L 2906 3500 
L 3481 3500 
L 3481 434 
z
" transform="scale(0.015625)"/>
       <path id="DejaVuSans-2f" d="M 1625 4666 
L 2156 4666 
L 531 -594 
L 0 -594 
L 1625 4666 
z
" transform="scale(0.015625)"/>
       <path id="DejaVuSans-75" d="M 544 1381 
L 544 3500 
L 1119 3500 
L 1119 1403 
Q 1119 906 1312 657 
Q 1506 409 1894 409 
Q 2359 409 2629 706 
Q 2900 1003 2900 1516 
L 2900 3500 
L 3475 3500 
L 3475 0 
L 2900 0 
L 2900 538 
Q 2691 219 2414 64 
Q 2138 -91 1772 -91 
Q 1169 -91 856 284 
Q 544 659 544 1381 
z
M 1991 3584 
L 1991 3584 
z
" transform="scale(0.015625)"/>
      </defs>
      <use xlink:href="#DejaVuSans-64"/>
      <use xlink:href="#DejaVuSans-65" transform="translate(63.476562 0)"/>
      <use xlink:href="#DejaVuSans-67" transform="translate(125 0)"/>
      <use xlink:href="#DejaVuSans-72" transform="translate(188.476562 0)"/>
      <use xlink:href="#DejaVuSans-65" transform="translate(227.339844 0)"/>
      <use xlink:href="#DejaVuSans-65" transform="translate(288.863281 0)"/>
      <use xlink:href="#DejaVuSans-2f" transform="translate(350.386719 0)"/>
      <use xlink:href="#DejaVuSans-67" transform="translate(384.078125 0)"/>
      <use xlink:href="#DejaVuSans-65" transform="translate(447.554688 0)"/>
      <use xlink:href="#DejaVuSans-6e" transform="translate(509.078125 0)"/>
      <use xlink:href="#DejaVuSans-75" transform="translate(572.457031 0)"/>
      <use xlink:href="#DejaVuSans-73" transform="translate(635.835938 0)"/>
      <use xlink:href="#DejaVuSans-2f" transform="translate(687.935547 0)"/>
      <use xlink:href="#DejaVuSans-63" transform="translate(721.626953 0)"/>
      <use xlink:href="#DejaVuSans-6c" transform="translate(776.607422 0)"/>
      <use xlink:href="#DejaVuSans-61" transform="translate(804.390625 0)"/>
      <use xlink:href="#DejaVuSans-73" transform="translate(865.669922 0)"/>
      <use xlink:href="#DejaVuSans-73" transform="translate(917.769531 0)"/>
     </g>
    </g>
    <g clip-path="url(#pd3ad3075cc)">
     <!-- w=3 -->
     <g transform="translate(558.722871 68.619535) rotate(-358.8609) scale(0.08 -0.08)">
      <use xlink:href="#DejaVuSans-77"/>
      <use xlink:href="#DejaVuSans-3d" transform="translate(81.787109 0)"/>
      <use xlink:href="#DejaVuSans-33" transform="translate(165.576172 0)"/>
     </g>
    </g>
   </g>
   <g id="text_7">
    <g id="patch_15">
     <path d="M 502.742983 367.539021 
L 541.333297 368.283769 
Q 543.732851 368.330078 543.779159 365.930525 
L 544.101405 349.232884 
Q 544.147713 346.833331 541.74816 346.787022 
L 503.157846 346.042273 
Q 500.758293 345.995965 500.711984 348.395518 
L 500.389739 365.093159 
Q 500.34343 367.492712 502.742983 367.539021 
z
" clip-path="url(#pd3ad3075cc)" style="fill: #ffffff; stroke: #ffffff; stroke-linejoin: miter"/>
    </g>
    <g clip-path="url(#pd3ad3075cc)">
     <!-- rank drop -->
     <g transform="translate(502.994246 354.519445) rotate(-358.894395) scale(0.08 -0.08)">
      <defs>
       <path id="DejaVuSans-6b" d="M 581 4863 
L 1159 4863 
L 1159 1991 
L 2875 3500 
L 3609 3500 
L 1753 1863 
L 3688 0 
L 2938 0 
L 1159 1709 
L 1159 0 
L 581 0 
L 581 4863 
z
" transform="scale(0.015625)"/>
      </defs>
      <use xlink:href="#DejaVuSans-72"/>
      <use xlink:href="#DejaVuSans-61" transform="translate(41.113281 0)"/>
      <use xlink:href="#DejaVuSans-6e" transform="translate(102.392578 0)"/>
      <use xlink:href="#DejaVuSans-6b" transform="translate(165.771484 0)"/>
      <use xlink:href="#DejaVuSans-20" transform="translate(223.681641 0)"/>
      <use xlink:href="#DejaVuSans-64" transform="translate(255.46875 0)"/>
      <use xlink:href="#DejaVuSans-72" transform="translate(318.945312 0)"/>
      <use xlink:href="#DejaVuSans-6f" transform="translate(357.808594 0)"/>
      <use xlink:href="#DejaVuSans-70" transform="translate(418.990234 0)"/>
     </g>
    </g>
    <g clip-path="url(#pd3ad3075cc)">
     <!-- w=2 -->
     <g transform="translate(512.950133 363.6715) rotate(-358.894395) scale(0.08 -0.08)">
      <use xlink:href="#DejaVuSans-77"/>
      <use xlink:href="#DejaVuSans-3d" transform="translate(81.787109 0)"/>
      <use xlink:href="#DejaVuSans-32" transform="translate(165.576172 0)"/>
     </g>
    </g>
   </g>
   <g id="PathCollection_1">
    <defs>
     <path id="m5aaf8ee41d" d="M 0 24.494897 
C 6.496123 24.494897 12.727056 21.913961 17.320508 17.320508 
C 21.913961 12.727056 24.494897 6.496123 24.494897 0 
C 24.494897 -6.496123 21.913961 -12.727056 17.320508 -17.320508 
C 12.727056 -21.913961 6.496123 -24.494897 0 -24.494897 
C -6.496123 -24.494897 -12.727056 -21.913961 -17.320508 -17.320508 
C -21.913961 -12.727056 -24.494897 -6.496123 -24.494897 0 
C -24.494897 6.496123 -21.913961 12.727056 -17.320508 17.320508 
C -12.727056 21.913961 -6.496123 24.494897 0 24.494897 
z
" style="stroke: #333333; stroke-width: 1.2"/>
    </defs>
    <g clip-path="url(#pd3ad3075cc)">
     <use xlink:href="#m5aaf8ee41d" x="77.652893" y="270.699258" style="fill: #f2f0e6; stroke: #333333; stroke-width: 1.2"/>
     <use xlink:href="#m5aaf8ee41d" x="391.102352" y="193.571774" style="fill: #f2f0e6; stroke: #333333; stroke-width: 1.2"/>
     <use xlink:href="#m5aaf8ee41d" x="371.511761" y="354.254032" style="fill: #f2f0e6; stroke: #333333; stroke-width: 1.2"/>
     <use xlink:href="#m5aaf8ee41d" x="684.961221" y="206.426355" style="fill: #f2f0e6; stroke: #333333; stroke-width: 1.2"/>
     <use xlink:href="#m5aaf8ee41d" x="391.102352" y="58.598678" style="fill: #f2f0e6; stroke: #333333; stroke-width: 1.2"/>
     <use xlink:href="#m5aaf8ee41d" x="714.347107" y="65.025968" style="fill: #f2f0e6; stroke: #333333; stroke-width: 1.2"/>
     <use xlink:href="#m5aaf8ee41d" x="704.551812" y="360.681322" style="fill: #f2f0e6; stroke: #333333; stroke-width: 1.2"/>
    </g>
   </g>
   <g id="text_8">
    <g clip-path="url(#pd3ad3075cc)">
     <!-- Curve C -->
     <g transform="translate(59.804064 273.182695) scale(0.09 -0.09)">
      <defs>
       <path id="DejaVuSans-43" d="M 4122 4306 
L 4122 3641 
Q 3803 3938 3442 4084 
Q 3081 4231 2675 4231 
Q 1875 4231 1450 3742 
Q 1025 3253 1025 2328 
Q 1025 1406 1450 917 
Q 1875 428 2675 428 
Q 3081 428 3442 575 
Q 3803 722 4122 1019 
L 4122 359 
Q 3791 134 3420 21 
Q 3050 -91 2638 -91 
Q 1578 -91 968 557 
Q 359 1206 359 2328 
Q 359 3453 968 4101 
Q 1578 4750 2638 4750 
Q 3056 4750 3426 4639 
Q 3797 4528 4122 4306 
z
" transform="scale(0.015625)"/>
      </defs>
      <use xlink:href="#DejaVuSans-43"/>
      <use xlink:href="#DejaVuSans-75" transform="translate(69.824219 0)"/>
      <use xlink:href="#DejaVuSans-72" transform="translate(133.203125 0)"/>
      <use xlink:href="#DejaVuSans-76" transform="translate(174.316406 0)"/>
      <use xlink:href="#DejaVuSans-65" transform="translate(233.496094 0)"/>
      <use xlink:href="#DejaVuSans-20" transform="translate(295.019531 0)"/>
      <use xlink:href="#DejaVuSans-43" transform="translate(326.806641 0)"/>
     </g>
    </g>
   </g>
   <g id="text_9">
    <g clip-path="url(#pd3ad3075cc)">
     <!-- Symmetric product C^(d) -->
     <g transform="translate(333.260477 196.055212) scale(0.09 -0.09)">
      <defs>
       <path id="DejaVuSans-53" d="M 3425 4513 
L 3425 3897 
Q 3066 4069 2747 4153 
Q 2428 4238 2131 4238 
Q 1616 4238 1336 4038 
Q 1056 3838 1056 3469 
Q 1056 3159 1242 3001 
Q 1428 2844 1947 2747 
L 2328 2669 
Q 3034 2534 3370 2195 
Q 3706 1856 3706 1288 
Q 3706 609 3251 259 
Q 2797 -91 1919 -91 
Q 1588 -91 1214 -16 
Q 841 59 441 206 
L 441 856 
Q 825 641 1194 531 
Q 1563 422 1919 422 
Q 2459 422 2753 634 
Q 3047 847 3047 1241 
Q 3047 1584 2836 1778 
Q 2625 1972 2144 2069 
L 1759 2144 
Q 1053 2284 737 2584 
Q 422 2884 422 3419 
Q 422 4038 858 4394 
Q 1294 4750 2059 4750 
Q 2388 4750 2728 4690 
Q 3069 4631 3425 4513 
z
" transform="scale(0.015625)"/>
       <path id="DejaVuSans-79" d="M 2059 -325 
Q 1816 -950 1584 -1140 
Q 1353 -1331 966 -1331 
L 506 -1331 
L 506 -850 
L 844 -850 
Q 1081 -850 1212 -737 
Q 1344 -625 1503 -206 
L 1606 56 
L 191 3500 
L 800 3500 
L 1894 763 
L 2988 3500 
L 3597 3500 
L 2059 -325 
z
" transform="scale(0.015625)"/>
       <path id="DejaVuSans-28" d="M 1984 4856 
Q 1566 4138 1362 3434 
Q 1159 2731 1159 2009 
Q 1159 1288 1364 580 
Q 1569 -128 1984 -844 
L 1484 -844 
Q 1016 -109 783 600 
Q 550 1309 550 2009 
Q 550 2706 781 3412 
Q 1013 4119 1484 4856 
L 1984 4856 
z
" transform="scale(0.015625)"/>
       <path id="DejaVuSans-29" d="M 513 4856 
L 1013 4856 
Q 1481 4119 1714 3412 
Q 1947 2706 1947 2009 
Q 1947 1309 1714 600 
Q 1481 -109 1013 -844 
L 513 -844 
Q 928 -128 1133 580 
Q 1338 1288 1338 2009 
Q 1338 2731 1133 3434 
Q 928 4138 513 4856 
z
" transform="scale(0.015625)"/>
      </defs>
      <use xlink:href="#DejaVuSans-53"/>
      <use xlink:href="#DejaVuSans-79" transform="translate(63.476562 0)"/>
      <use xlink:href="#DejaVuSans-6d" transform="translate(122.65625 0)"/>
      <use xlink:href="#DejaVuSans-6d" transform="translate(220.068359 0)"/>
      <use xlink:href="#DejaVuSans-65" transform="translate(317.480469 0)"/>
      <use xlink:href="#DejaVuSans-74" transform="translate(379.003906 0)"/>
      <use xlink:href="#DejaVuSans-72" transform="translate(418.212891 0)"/>
      <use xlink:href="#DejaVuSans-69" transform="translate(459.326172 0)"/>
      <use xlink:href="#DejaVuSans-63" transform="translate(487.109375 0)"/>
      <use xlink:href="#DejaVuSans-20" transform="translate(542.089844 0)"/>
      <use xlink:href="#DejaVuSans-70" transform="translate(573.876953 0)"/>
      <use xlink:href="#DejaVuSans-72" transform="translate(637.353516 0)"/>
      <use xlink:href="#DejaVuSans-6f" transform="translate(676.216797 0)"/>
      <use xlink:href="#DejaVuSans-64" transform="translate(737.398438 0)"/>
      <use xlink:href="#DejaVuSans-75" transform="translate(800.875 0)"/>
      <use xlink:href="#DejaVuSans-63" transform="translate(864.253906 0)"/>
      <use xlink:href="#DejaVuSans-74" transform="translate(919.234375 0)"/>
      <use xlink:href="#DejaVuSans-20" transform="translate(958.443359 0)"/>
      <use xlink:href="#DejaVuSans-43" transform="translate(990.230469 0)"/>
      <use xlink:href="#DejaVuSans-5e" transform="translate(1060.054688 0)"/>
      <use xlink:href="#DejaVuSans-28" transform="translate(1143.84375 0)"/>
      <use xlink:href="#DejaVuSans-64" transform="translate(1182.857422 0)"/>
      <use xlink:href="#DejaVuSans-29" transform="translate(1246.333984 0)"/>
     </g>
    </g>
   </g>
   <g id="text_10">
    <g clip-path="url(#pd3ad3075cc)">
     <!-- Linear system |D| -->
     <g transform="translate(331.900511 356.632001) scale(0.09 -0.09)">
      <defs>
       <path id="DejaVuSans-4c" d="M 628 4666 
L 1259 4666 
L 1259 531 
L 3531 531 
L 3531 0 
L 628 0 
L 628 4666 
z
" transform="scale(0.015625)"/>
      </defs>
      <use xlink:href="#DejaVuSans-4c"/>
      <use xlink:href="#DejaVuSans-69" transform="translate(55.712891 0)"/>
      <use xlink:href="#DejaVuSans-6e" transform="translate(83.496094 0)"/>
      <use xlink:href="#DejaVuSans-65" transform="translate(146.875 0)"/>
      <use xlink:href="#DejaVuSans-61" transform="translate(208.398438 0)"/>
      <use xlink:href="#DejaVuSans-72" transform="translate(269.677734 0)"/>
      <use xlink:href="#DejaVuSans-20" transform="translate(310.791016 0)"/>
      <use xlink:href="#DejaVuSans-73" transform="translate(342.578125 0)"/>
      <use xlink:href="#DejaVuSans-79" transform="translate(394.677734 0)"/>
      <use xlink:href="#DejaVuSans-73" transform="translate(453.857422 0)"/>
      <use xlink:href="#DejaVuSans-74" transform="translate(505.957031 0)"/>
      <use xlink:href="#DejaVuSans-65" transform="translate(545.166016 0)"/>
      <use xlink:href="#DejaVuSans-6d" transform="translate(606.689453 0)"/>
      <use xlink:href="#DejaVuSans-20" transform="translate(704.101562 0)"/>
      <use xlink:href="#DejaVuSans-7c" transform="translate(735.888672 0)"/>
      <use xlink:href="#DejaVuSans-44" transform="translate(769.580078 0)"/>
      <use xlink:href="#DejaVuSans-7c" transform="translate(846.582031 0)"/>
     </g>
    </g>
   </g>
   <g id="text_11">
    <g clip-path="url(#pd3ad3075cc)">
     <!-- Jacobian J(C) -->
     <g transform="translate(656.520517 208.909792) scale(0.09 -0.09)">
      <defs>
       <path id="DejaVuSans-4a" d="M 628 4666 
L 1259 4666 
L 1259 325 
Q 1259 -519 939 -900 
Q 619 -1281 -91 -1281 
L -331 -1281 
L -331 -750 
L -134 -750 
Q 284 -750 456 -515 
Q 628 -281 628 325 
L 628 4666 
z
" transform="scale(0.015625)"/>
      </defs>
      <use xlink:href="#DejaVuSans-4a"/>
      <use xlink:href="#DejaVuSans-61" transform="translate(29.492188 0)"/>
      <use xlink:href="#DejaVuSans-63" transform="translate(90.771484 0)"/>
      <use xlink:href="#DejaVuSans-6f" transform="translate(145.751953 0)"/>
      <use xlink:href="#DejaVuSans-62" transform="translate(206.933594 0)"/>
      <use xlink:href="#DejaVuSans-69" transform="translate(270.410156 0)"/>
      <use xlink:href="#DejaVuSans-61" transform="translate(298.193359 0)"/>
      <use xlink:href="#DejaVuSans-6e" transform="translate(359.472656 0)"/>
      <use xlink:href="#DejaVuSans-20" transform="translate(422.851562 0)"/>
      <use xlink:href="#DejaVuSans-4a" transform="translate(454.638672 0)"/>
      <use xlink:href="#DejaVuSans-28" transform="translate(484.130859 0)"/>
      <use xlink:href="#DejaVuSans-43" transform="translate(523.144531 0)"/>
      <use xlink:href="#DejaVuSans-29" transform="translate(592.96875 0)"/>
     </g>
    </g>
   </g>
   <g id="text_12">
    <g clip-path="url(#pd3ad3075cc)">
     <!-- Associated/dual curve -->
     <g transform="translate(341.439227 61.082115) scale(0.09 -0.09)">
      <use xlink:href="#DejaVuSans-41"/>
      <use xlink:href="#DejaVuSans-73" transform="translate(68.408203 0)"/>
      <use xlink:href="#DejaVuSans-73" transform="translate(120.507812 0)"/>
      <use xlink:href="#DejaVuSans-6f" transform="translate(172.607422 0)"/>
      <use xlink:href="#DejaVuSans-63" transform="translate(233.789062 0)"/>
      <use xlink:href="#DejaVuSans-69" transform="translate(288.769531 0)"/>
      <use xlink:href="#DejaVuSans-61" transform="translate(316.552734 0)"/>
      <use xlink:href="#DejaVuSans-74" transform="translate(377.832031 0)"/>
      <use xlink:href="#DejaVuSans-65" transform="translate(417.041016 0)"/>
      <use xlink:href="#DejaVuSans-64" transform="translate(478.564453 0)"/>
      <use xlink:href="#DejaVuSans-2f" transform="translate(542.041016 0)"/>
      <use xlink:href="#DejaVuSans-64" transform="translate(575.732422 0)"/>
      <use xlink:href="#DejaVuSans-75" transform="translate(639.208984 0)"/>
      <use xlink:href="#DejaVuSans-61" transform="translate(702.587891 0)"/>
      <use xlink:href="#DejaVuSans-6c" transform="translate(763.867188 0)"/>
      <use xlink:href="#DejaVuSans-20" transform="translate(791.650391 0)"/>
      <use xlink:href="#DejaVuSans-63" transform="translate(823.4375 0)"/>
      <use xlink:href="#DejaVuSans-75" transform="translate(878.417969 0)"/>
      <use xlink:href="#DejaVuSans-72" transform="translate(941.796875 0)"/>
      <use xlink:href="#DejaVuSans-76" transform="translate(982.910156 0)"/>
      <use xlink:href="#DejaVuSans-65" transform="translate(1042.089844 0)"/>
     </g>
    </g>
   </g>
   <g id="text_13">
    <g clip-path="url(#pd3ad3075cc)">
     <!-- Space curve invariants -->
     <g transform="translate(662.822811 67.509405) scale(0.09 -0.09)">
      <use xlink:href="#DejaVuSans-53"/>
      <use xlink:href="#DejaVuSans-70" transform="translate(63.476562 0)"/>
      <use xlink:href="#DejaVuSans-61" transform="translate(126.953125 0)"/>
      <use xlink:href="#DejaVuSans-63" transform="translate(188.232422 0)"/>
      <use xlink:href="#DejaVuSans-65" transform="translate(243.212891 0)"/>
      <use xlink:href="#DejaVuSans-20" transform="translate(304.736328 0)"/>
      <use xlink:href="#DejaVuSans-63" transform="translate(336.523438 0)"/>
      <use xlink:href="#DejaVuSans-75" transform="translate(391.503906 0)"/>
      <use xlink:href="#DejaVuSans-72" transform="translate(454.882812 0)"/>
      <use xlink:href="#DejaVuSans-76" transform="translate(495.996094 0)"/>
      <use xlink:href="#DejaVuSans-65" transform="translate(555.175781 0)"/>
      <use xlink:href="#DejaVuSans-20" transform="translate(616.699219 0)"/>
      <use xlink:href="#DejaVuSans-69" transform="translate(648.486328 0)"/>
      <use xlink:href="#DejaVuSans-6e" transform="translate(676.269531 0)"/>
      <use xlink:href="#DejaVuSans-76" transform="translate(739.648438 0)"/>
      <use xlink:href="#DejaVuSans-61" transform="translate(798.828125 0)"/>
      <use xlink:href="#DejaVuSans-72" transform="translate(860.107422 0)"/>
      <use xlink:href="#DejaVuSans-69" transform="translate(901.220703 0)"/>
      <use xlink:href="#DejaVuSans-61" transform="translate(929.003906 0)"/>
      <use xlink:href="#DejaVuSans-6e" transform="translate(990.283203 0)"/>
      <use xlink:href="#DejaVuSans-74" transform="translate(1053.662109 0)"/>
      <use xlink:href="#DejaVuSans-73" transform="translate(1092.871094 0)"/>
     </g>
    </g>
   </g>
   <g id="text_14">
    <g clip-path="url(#pd3ad3075cc)">
     <!-- Special-system locus -->
     <g transform="translate(657.341187 363.16476) scale(0.09 -0.09)">
      <defs>
       <path id="DejaVuSans-2d" d="M 313 2009 
L 1997 2009 
L 1997 1497 
L 313 1497 
L 313 2009 
z
" transform="scale(0.015625)"/>
      </defs>
      <use xlink:href="#DejaVuSans-53"/>
      <use xlink:href="#DejaVuSans-70" transform="translate(63.476562 0)"/>
      <use xlink:href="#DejaVuSans-65" transform="translate(126.953125 0)"/>
      <use xlink:href="#DejaVuSans-63" transform="translate(188.476562 0)"/>
      <use xlink:href="#DejaVuSans-69" transform="translate(243.457031 0)"/>
      <use xlink:href="#DejaVuSans-61" transform="translate(271.240234 0)"/>
      <use xlink:href="#DejaVuSans-6c" transform="translate(332.519531 0)"/>
      <use xlink:href="#DejaVuSans-2d" transform="translate(360.302734 0)"/>
      <use xlink:href="#DejaVuSans-73" transform="translate(396.386719 0)"/>
      <use xlink:href="#DejaVuSans-79" transform="translate(448.486328 0)"/>
      <use xlink:href="#DejaVuSans-73" transform="translate(507.666016 0)"/>
      <use xlink:href="#DejaVuSans-74" transform="translate(559.765625 0)"/>
      <use xlink:href="#DejaVuSans-65" transform="translate(598.974609 0)"/>
      <use xlink:href="#DejaVuSans-6d" transform="translate(660.498047 0)"/>
      <use xlink:href="#DejaVuSans-20" transform="translate(757.910156 0)"/>
      <use xlink:href="#DejaVuSans-6c" transform="translate(789.697266 0)"/>
      <use xlink:href="#DejaVuSans-6f" transform="translate(817.480469 0)"/>
      <use xlink:href="#DejaVuSans-63" transform="translate(878.662109 0)"/>
      <use xlink:href="#DejaVuSans-75" transform="translate(933.642578 0)"/>
      <use xlink:href="#DejaVuSans-73" transform="translate(997.021484 0)"/>
     </g>
    </g>
   </g>
   <g id="text_15">
    <!-- Correspondences as weighted relations -->
    <g transform="translate(277.686563 20.88) scale(0.12 -0.12)">
     <defs>
      <path id="DejaVuSans-68" d="M 3513 2113 
L 3513 0 
L 2938 0 
L 2938 2094 
Q 2938 2591 2744 2837 
Q 2550 3084 2163 3084 
Q 1697 3084 1428 2787 
Q 1159 2491 1159 1978 
L 1159 0 
L 581 0 
L 581 4863 
L 1159 4863 
L 1159 2956 
Q 1366 3272 1645 3428 
Q 1925 3584 2291 3584 
Q 2894 3584 3203 3211 
Q 3513 2838 3513 2113 
z
" transform="scale(0.015625)"/>
     </defs>
     <use xlink:href="#DejaVuSans-43"/>
     <use xlink:href="#DejaVuSans-6f" transform="translate(69.824219 0)"/>
     <use xlink:href="#DejaVuSans-72" transform="translate(131.005859 0)"/>
     <use xlink:href="#DejaVuSans-72" transform="translate(170.369141 0)"/>
     <use xlink:href="#DejaVuSans-65" transform="translate(209.232422 0)"/>
     <use xlink:href="#DejaVuSans-73" transform="translate(270.755859 0)"/>
     <use xlink:href="#DejaVuSans-70" transform="translate(322.855469 0)"/>
     <use xlink:href="#DejaVuSans-6f" transform="translate(386.332031 0)"/>
     <use xlink:href="#DejaVuSans-6e" transform="translate(447.513672 0)"/>
     <use xlink:href="#DejaVuSans-64" transform="translate(510.892578 0)"/>
     <use xlink:href="#DejaVuSans-65" transform="translate(574.369141 0)"/>
     <use xlink:href="#DejaVuSans-6e" transform="translate(635.892578 0)"/>
     <use xlink:href="#DejaVuSans-63" transform="translate(699.271484 0)"/>
     <use xlink:href="#DejaVuSans-65" transform="translate(754.251953 0)"/>
     <use xlink:href="#DejaVuSans-73" transform="translate(815.775391 0)"/>
     <use xlink:href="#DejaVuSans-20" transform="translate(867.875 0)"/>
     <use xlink:href="#DejaVuSans-61" transform="translate(899.662109 0)"/>
     <use xlink:href="#DejaVuSans-73" transform="translate(960.941406 0)"/>
     <use xlink:href="#DejaVuSans-20" transform="translate(1013.041016 0)"/>
     <use xlink:href="#DejaVuSans-77" transform="translate(1044.828125 0)"/>
     <use xlink:href="#DejaVuSans-65" transform="translate(1126.615234 0)"/>
     <use xlink:href="#DejaVuSans-69" transform="translate(1188.138672 0)"/>
     <use xlink:href="#DejaVuSans-67" transform="translate(1215.921875 0)"/>
     <use xlink:href="#DejaVuSans-68" transform="translate(1279.398438 0)"/>
     <use xlink:href="#DejaVuSans-74" transform="translate(1342.777344 0)"/>
     <use xlink:href="#DejaVuSans-65" transform="translate(1381.986328 0)"/>
     <use xlink:href="#DejaVuSans-64" transform="translate(1443.509766 0)"/>
     <use xlink:href="#DejaVuSans-20" transform="translate(1506.986328 0)"/>
     <use xlink:href="#DejaVuSans-72" transform="translate(1538.773438 0)"/>
     <use xlink:href="#DejaVuSans-65" transform="translate(1577.636719 0)"/>
     <use xlink:href="#DejaVuSans-6c" transform="translate(1639.160156 0)"/>
     <use xlink:href="#DejaVuSans-61" transform="translate(1666.943359 0)"/>
     <use xlink:href="#DejaVuSans-74" transform="translate(1728.222656 0)"/>
     <use xlink:href="#DejaVuSans-69" transform="translate(1767.431641 0)"/>
     <use xlink:href="#DejaVuSans-6f" transform="translate(1795.214844 0)"/>
     <use xlink:href="#DejaVuSans-6e" transform="translate(1856.396484 0)"/>
     <use xlink:href="#DejaVuSans-73" transform="translate(1919.775391 0)"/>
    </g>
   </g>
  </g>
 </g>
 <defs>
  <clipPath id="pd3ad3075cc">
   <rect x="10.8" y="26.88" width="770.4" height="365.52"/>
  </clipPath>
 </defs>
</svg>
