<svg xmlns="http://www.w3.org/2000/svg" width="760" height="520" viewBox="0 0 760 520"><rect width="760" height="520" fill="#fffdf7"/><text x="28" y="38" font-size="24" font-family="DejaVu Sans, Arial" font-weight="700" fill="#1f2933">Chapter 04 experiment</text><text x="28" y="64" font-size="14" font-family="DejaVu Sans, Arial" fill="#1f2933">Perturb the model and inspect what remains invariant</text><g font-family="DejaVu Sans, Arial"><polyline points="167.6,332.2 170.7,333.8 173.7,335.3 176.8,336.7 179.8,338.1 182.9,339.5 185.9,340.8 189.0,342.1 192.0,343.3 195.1,344.4 198.2,345.5 201.2,346.6 204.3,347.5 207.3,348.5 210.4,349.3 213.4,350.1 216.5,350.8 219.6,351.5 222.6,352.1 225.7,352.6 228.7,353.1 231.8,353.5 234.8,353.8 237.9,354.0 240.9,354.2 244.0,354.4 247.1,354.4 250.1,354.4 253.2,354.3 256.2,354.1 259.3,353.9 262.3,353.6 265.4,353.2 268.5,352.8 271.5,352.3 274.6,351.7 277.6,351.1 280.7,350.4 283.7,349.6 286.8,348.8 289.8,347.9 292.9,346.9 296.0,345.9 299.0,344.8 302.1,343.7 305.1,342.5 308.2,341.3 311.2,340.0 314.3,338.6 317.3,337.2 320.4,335.8 323.5,334.3 326.5,332.8 329.6,331.2 332.6,329.6 335.7,327.9 338.7,326.3 341.8,324.6 344.9,322.8 347.9,321.0 351.0,319.2 354.0,317.4 357.1,315.6 360.1,313.7 363.2,311.8 366.2,309.9 369.3,308.0 372.4,306.1 375.4,304.2 378.5,302.3 381.5,300.3 384.6,298.4 387.6,296.5 390.7,294.6 393.8,292.7 396.8,290.8 399.9,288.9 402.9,287.0 406.0,285.2 409.0,283.4 412.1,281.6 415.1,279.8 418.2,278.0 421.3,276.3 424.3,274.7 427.4,273.0 430.4,271.4 433.5,269.8 436.5,268.3 439.6,266.8 442.7,265.4 445.7,264.0 448.8,262.6 451.8,261.3 454.9,260.1 457.9,258.9 461.0,257.8 464.0,256.7 467.1,255.7 470.2,254.7 473.2,253.8 476.3,253.0 479.3,252.2 482.4,251.5 485.4,250.9 488.5,250.3 491.5,249.8 494.6,249.4 497.7,249.0 500.7,248.7 503.8,248.5 506.8,248.3 509.9,248.2 512.9,248.2 516.0,248.2 519.1,248.4 522.1,248.6 525.2,248.8 528.2,249.1 531.3,249.5 534.3,250.0 537.4,250.5 540.4,251.1 543.5,251.8 546.6,252.5 549.6,253.3 552.7,254.1 555.7,255.1 558.8,256.0 561.8,257.1 564.9,258.2 568.0,259.3 571.0,260.5 574.1,261.8 577.1,263.1 580.2,264.5 583.2,265.9 586.3,267.3 589.3,268.8 592.4,270.4" fill="none" stroke="#2364aa" stroke-width="2" stroke-linejoin="round"/>
<polyline points="167.6,310.7 170.7,311.3 173.7,311.7 176.8,312.1 179.8,312.5 182.9,312.7 185.9,312.9 189.0,313.0 192.0,313.1 195.1,313.1 198.2,313.0 201.2,312.8 204.3,312.6 207.3,312.3 210.4,312.0 213.4,311.5 216.5,311.0 219.6,310.5 222.6,309.8 225.7,309.1 228.7,308.4 231.8,307.5 234.8,306.6 237.9,305.7 240.9,304.7 244.0,303.6 247.1,302.5 250.1,301.3 253.2,300.1 256.2,298.8 259.3,297.4 262.3,296.0 265.4,294.6 268.5,293.1 271.5,291.6 274.6,290.0 277.6,288.4 280.7,286.8 283.7,285.1 286.8,283.4 289.8,281.6 292.9,279.9 296.0,278.1 299.0,276.2 302.1,274.4 305.1,272.5 308.2,270.7 311.2,268.8 314.3,266.9 317.3,264.9 320.4,263.0 323.5,261.1 326.5,259.2 329.6,257.3 332.6,255.3 335.7,253.4 338.7,251.5 341.8,249.6 344.9,247.7 347.9,245.9 351.0,244.0 354.0,242.2 357.1,240.4 360.1,238.6 363.2,236.9 366.2,235.2 369.3,233.5 372.4,231.8 375.4,230.2 378.5,228.6 381.5,227.1 384.6,225.6 387.6,224.2 390.7,222.8 393.8,221.4 396.8,220.1 399.9,218.9 402.9,217.7 406.0,216.6 409.0,215.5 412.1,214.5 415.1,213.5 418.2,212.6 421.3,211.8 424.3,211.0 427.4,210.3 430.4,209.6 433.5,209.1 436.5,208.6 439.6,208.1 442.7,207.7 445.7,207.4 448.8,207.2 451.8,207.0 454.9,206.9 457.9,206.9 461.0,206.9 464.0,207.1 467.1,207.2 470.2,207.5 473.2,207.8 476.3,208.2 479.3,208.7 482.4,209.2 485.4,209.8 488.5,210.4 491.5,211.1 494.6,211.9 497.7,212.8 500.7,213.7 503.8,214.7 506.8,215.7 509.9,216.8 512.9,217.9 516.0,219.1 519.1,220.4 522.1,221.7 525.2,223.1 528.2,224.5 531.3,225.9 534.3,227.4 537.4,229.0 540.4,230.5 543.5,232.2 546.6,233.8 549.6,235.5 552.7,237.2 555.7,239.0 558.8,240.8 561.8,242.6 564.9,244.4 568.0,246.3 571.0,248.1 574.1,250.0 577.1,251.9 580.2,253.8 583.2,255.7 586.3,257.7 589.3,259.6 592.4,261.5" fill="none" stroke="#f97316" stroke-width="2" stroke-linejoin="round"/>
<polyline points="167.6,268.6 170.7,267.9 173.7,267.1 176.8,266.3 179.8,265.4 182.9,264.5 185.9,263.5 189.0,262.4 192.0,261.3 195.1,260.1 198.2,258.9 201.2,257.6 204.3,256.2 207.3,254.8 210.4,253.4 213.4,251.9 216.5,250.4 219.6,248.8 222.6,247.2 225.7,245.6 228.7,243.9 231.8,242.2 234.8,240.5 237.9,238.7 240.9,236.9 244.0,235.1 247.1,233.2 250.1,231.4 253.2,229.5 256.2,227.6 259.3,225.7 262.3,223.8 265.4,221.9 268.5,219.9 271.5,218.0 274.6,216.1 277.6,214.2 280.7,212.3 283.7,210.4 286.8,208.5 289.8,206.6 292.9,204.7 296.0,202.9 299.0,201.0 302.1,199.2 305.1,197.5 308.2,195.7 311.2,194.0 314.3,192.3 317.3,190.6 320.4,189.0 323.5,187.5 326.5,185.9 329.6,184.4 332.6,183.0 335.7,181.6 338.7,180.2 341.8,178.9 344.9,177.7 347.9,176.5 351.0,175.3 354.0,174.3 357.1,173.2 360.1,172.3 363.2,171.4 366.2,170.5 369.3,169.7 372.4,169.0 375.4,168.4 378.5,167.8 381.5,167.3 384.6,166.8 387.6,166.5 390.7,166.1 393.8,165.9 396.8,165.7 399.9,165.6 402.9,165.6 406.0,165.6 409.0,165.7 412.1,165.9 415.1,166.2 418.2,166.5 421.3,166.9 424.3,167.3 427.4,167.8 430.4,168.4 433.5,169.1 436.5,169.8 439.6,170.6 442.7,171.4 445.7,172.3 448.8,173.3 451.8,174.3 454.9,175.4 457.9,176.6 461.0,177.7 464.0,179.0 467.1,180.3 470.2,181.7 473.2,183.1 476.3,184.5 479.3,186.0 482.4,187.5 485.4,189.1 488.5,190.7 491.5,192.4 494.6,194.1 497.7,195.8 500.7,197.6 503.8,199.3 506.8,201.1 509.9,203.0 512.9,204.8 516.0,206.7 519.1,208.6 522.1,210.5 525.2,212.4 528.2,214.3 531.3,216.2 534.3,218.1 537.4,220.1 540.4,222.0 543.5,223.9 546.6,225.8 549.6,227.7 552.7,229.6 555.7,231.5 558.8,233.4 561.8,235.2 564.9,237.0 568.0,238.8 571.0,240.6 574.1,242.3 577.1,244.0 580.2,245.7 583.2,247.3 586.3,248.9 589.3,250.5 592.4,252.0" fill="none" stroke="#2f9e44" stroke-width="2" stroke-linejoin="round"/>
<line x1="167.6" y1="260.0" x2="592.4" y2="260.0" stroke="#d8dee9" stroke-width="1" stroke-dasharray="4 4"/></g></svg>