<svg xmlns="http://www.w3.org/2000/svg" width="760" height="520" viewBox="0 0 760 520"><rect width="760" height="520" fill="#fffdf7"/><text x="28" y="38" font-size="24" font-family="DejaVu Sans, Arial" font-weight="700" fill="#1f2933">Chapter 05 experiment</text><text x="28" y="64" font-size="14" font-family="DejaVu Sans, Arial" fill="#1f2933">Perturb the model and inspect what remains invariant</text><g font-family="DejaVu Sans, Arial"><polyline points="167.6,324.0 170.7,325.8 173.7,327.7 176.8,329.4 179.8,331.2 182.9,332.8 185.9,334.5 189.0,336.1 192.0,337.6 195.1,339.1 198.2,340.5 201.2,341.8 204.3,343.2 207.3,344.4 210.4,345.6 213.4,346.7 216.5,347.7 219.6,348.7 222.6,349.6 225.7,350.4 228.7,351.1 231.8,351.8 234.8,352.4 237.9,352.9 240.9,353.4 244.0,353.7 247.1,354.0 250.1,354.2 253.2,354.4 256.2,354.4 259.3,354.4 262.3,354.3 265.4,354.1 268.5,353.8 271.5,353.4 274.6,353.0 277.6,352.5 280.7,351.9 283.7,351.2 286.8,350.5 289.8,349.7 292.9,348.8 296.0,347.8 299.0,346.8 302.1,345.7 305.1,344.5 308.2,343.3 311.2,342.0 314.3,340.7 317.3,339.3 320.4,337.8 323.5,336.3 326.5,334.7 329.6,333.1 332.6,331.4 335.7,329.7 338.7,327.9 341.8,326.1 344.9,324.2 347.9,322.4 351.0,320.5 354.0,318.5 357.1,316.6 360.1,314.6 363.2,312.6 366.2,310.5 369.3,308.5 372.4,306.4 375.4,304.4 378.5,302.3 381.5,300.3 384.6,298.2 387.6,296.2 390.7,294.1 393.8,292.1 396.8,290.0 399.9,288.0 402.9,286.0 406.0,284.1 409.0,282.1 412.1,280.2 415.1,278.4 418.2,276.5 421.3,274.7 424.3,272.9 427.4,271.2 430.4,269.5 433.5,267.9 436.5,266.3 439.6,264.8 442.7,263.3 445.7,261.9 448.8,260.6 451.8,259.3 454.9,258.1 457.9,256.9 461.0,255.8 464.0,254.8 467.1,253.8 470.2,252.9 473.2,252.1 476.3,251.4 479.3,250.7 482.4,250.1 485.4,249.6 488.5,249.2 491.5,248.8 494.6,248.5 497.7,248.3 500.7,248.2 503.8,248.2 506.8,248.2 509.9,248.4 512.9,248.6 516.0,248.9 519.1,249.2 522.1,249.7 525.2,250.2 528.2,250.8 531.3,251.5 534.3,252.2 537.4,253.0 540.4,253.9 543.5,254.9 546.6,255.9 549.6,257.0 552.7,258.2 555.7,259.4 558.8,260.8 561.8,262.1 564.9,263.5 568.0,265.0 571.0,266.5 574.1,268.1 577.1,269.8 580.2,271.4 583.2,273.2 586.3,274.9 589.3,276.8 592.4,278.6" fill="none" stroke="#2364aa" stroke-width="2" stroke-linejoin="round"/>
<polyline points="167.6,307.1 170.7,308.0 173.7,308.9 176.8,309.6 179.8,310.3 182.9,311.0 185.9,311.5 189.0,312.0 192.0,312.3 195.1,312.7 198.2,312.9 201.2,313.0 204.3,313.1 207.3,313.1 210.4,313.0 213.4,312.8 216.5,312.6 219.6,312.2 222.6,311.8 225.7,311.3 228.7,310.8 231.8,310.1 234.8,309.4 237.9,308.6 240.9,307.7 244.0,306.8 247.1,305.8 250.1,304.7 253.2,303.6 256.2,302.4 259.3,301.1 262.3,299.7 265.4,298.3 268.5,296.9 271.5,295.4 274.6,293.8 277.6,292.2 280.7,290.5 283.7,288.8 286.8,287.1 289.8,285.3 292.9,283.4 296.0,281.6 299.0,279.7 302.1,277.7 305.1,275.8 308.2,273.8 311.2,271.8 314.3,269.8 317.3,267.7 320.4,265.7 323.5,263.6 326.5,261.6 329.6,259.5 332.6,257.5 335.7,255.4 338.7,253.4 341.8,251.3 344.9,249.3 347.9,247.3 351.0,245.3 354.0,243.3 357.1,241.4 360.1,239.4 363.2,237.6 366.2,235.7 369.3,233.9 372.4,232.1 375.4,230.4 378.5,228.7 381.5,227.0 384.6,225.5 387.6,223.9 390.7,222.4 393.8,221.0 396.8,219.6 399.9,218.3 402.9,217.1 406.0,215.9 409.0,214.8 412.1,213.7 415.1,212.8 418.2,211.8 421.3,211.0 424.3,210.3 427.4,209.6 430.4,209.0 433.5,208.4 436.5,208.0 439.6,207.6 442.7,207.3 445.7,207.1 448.8,207.0 451.8,206.9 454.9,206.9 457.9,207.0 461.0,207.2 464.0,207.5 467.1,207.8 470.2,208.2 473.2,208.7 476.3,209.3 479.3,210.0 482.4,210.7 485.4,211.5 488.5,212.4 491.5,213.3 494.6,214.3 497.7,215.4 500.7,216.6 503.8,217.8 506.8,219.1 509.9,220.4 512.9,221.8 516.0,223.3 519.1,224.8 522.1,226.4 525.2,228.0 528.2,229.7 531.3,231.4 534.3,233.2 537.4,235.0 540.4,236.8 543.5,238.7 546.6,240.6 549.6,242.5 552.7,244.5 555.7,246.5 558.8,248.5 561.8,250.5 564.9,252.5 568.0,254.6 571.0,256.6 574.1,258.7 577.1,260.8 580.2,262.8 583.2,264.9 586.3,266.9 589.3,269.0 592.4,271.0" fill="none" stroke="#f97316" stroke-width="2" stroke-linejoin="round"/>
<polyline points="167.6,271.0 170.7,270.6 173.7,270.2 176.8,269.6 179.8,269.0 182.9,268.3 185.9,267.5 189.0,266.7 192.0,265.8 195.1,264.8 198.2,263.7 201.2,262.6 204.3,261.4 207.3,260.1 210.4,258.8 213.4,257.4 216.5,256.0 219.6,254.5 222.6,252.9 225.7,251.3 228.7,249.7 231.8,248.0 234.8,246.2 237.9,244.5 240.9,242.6 244.0,240.8 247.1,238.9 250.1,237.0 253.2,235.0 256.2,233.0 259.3,231.0 262.3,229.0 265.4,227.0 268.5,225.0 271.5,222.9 274.6,220.8 277.6,218.8 280.7,216.7 283.7,214.7 286.8,212.6 289.8,210.6 292.9,208.5 296.0,206.5 299.0,204.5 302.1,202.5 305.1,200.6 308.2,198.7 311.2,196.8 314.3,194.9 317.3,193.1 320.4,191.3 323.5,189.5 326.5,187.8 329.6,186.2 332.6,184.6 335.7,183.0 338.7,181.5 341.8,180.1 344.9,178.7 347.9,177.4 351.0,176.1 354.0,174.9 357.1,173.8 360.1,172.7 363.2,171.7 366.2,170.8 369.3,169.9 372.4,169.2 375.4,168.4 378.5,167.8 381.5,167.3 384.6,166.8 387.6,166.4 390.7,166.1 393.8,165.8 396.8,165.7 399.9,165.6 402.9,165.6 406.0,165.7 409.0,165.9 412.1,166.1 415.1,166.4 418.2,166.8 421.3,167.3 424.3,167.9 427.4,168.5 430.4,169.2 433.5,170.0 436.5,170.8 439.6,171.8 442.7,172.8 445.7,173.8 448.8,175.0 451.8,176.2 454.9,177.4 457.9,178.8 461.0,180.2 464.0,181.6 467.1,183.1 470.2,184.7 473.2,186.3 476.3,187.9 479.3,189.6 482.4,191.4 485.4,193.2 488.5,195.0 491.5,196.9 494.6,198.8 497.7,200.7 500.7,202.7 503.8,204.6 506.8,206.6 509.9,208.6 512.9,210.7 516.0,212.7 519.1,214.8 522.1,216.8 525.2,218.9 528.2,221.0 531.3,223.0 534.3,225.1 537.4,227.1 540.4,229.1 543.5,231.2 546.6,233.2 549.6,235.1 552.7,237.1 555.7,239.0 558.8,240.9 561.8,242.7 564.9,244.6 568.0,246.3 571.0,248.1 574.1,249.8 577.1,251.4 580.2,253.0 583.2,254.6 586.3,256.1 589.3,257.5 592.4,258.9" fill="none" stroke="#2f9e44" stroke-width="2" stroke-linejoin="round"/>
<line x1="167.6" y1="260.0" x2="592.4" y2="260.0" stroke="#d8dee9" stroke-width="1" stroke-dasharray="4 4"/></g></svg>