<svg xmlns="http://www.w3.org/2000/svg" width="760" height="520" viewBox="0 0 760 520"><rect width="760" height="520" fill="#fffdf7"/><text x="28" y="38" font-size="24" font-family="DejaVu Sans, Arial" font-weight="700" fill="#1f2933">Chapter 12: Ordered Geometry</text><text x="28" y="64" font-size="14" font-family="DejaVu Sans, Arial" fill="#1f2933">betweenness, separation by lines and planes, convex hulls, order-preserving maps, and parallel axiom experimen</text><g font-family="DejaVu Sans, Arial"><circle cx="31.9" cy="419.3" r="2.8" fill="#2364aa"/>
<circle cx="61.4" cy="366.2" r="2.8" fill="#2364aa"/>
<circle cx="90.9" cy="313.1" r="2.8" fill="#2364aa"/>
<circle cx="120.4" cy="260.0" r="2.8" fill="#2364aa"/>
<circle cx="149.9" cy="206.9" r="2.8" fill="#2364aa"/>
<circle cx="179.4" cy="153.8" r="2.8" fill="#2364aa"/>
<circle cx="208.9" cy="100.7" r="2.8" fill="#2364aa"/>
<circle cx="96.8" cy="419.3" r="2.8" fill="#2364aa"/>
<circle cx="126.3" cy="366.2" r="2.8" fill="#2364aa"/>
<circle cx="155.8" cy="313.1" r="2.8" fill="#2364aa"/>
<circle cx="185.3" cy="260.0" r="2.8" fill="#2364aa"/>
<circle cx="214.8" cy="206.9" r="2.8" fill="#2364aa"/>
<circle cx="244.3" cy="153.8" r="2.8" fill="#2364aa"/>
<circle cx="273.8" cy="100.7" r="2.8" fill="#2364aa"/>
<circle cx="161.7" cy="419.3" r="2.8" fill="#2364aa"/>
<circle cx="191.2" cy="366.2" r="2.8" fill="#2364aa"/>
<circle cx="220.7" cy="313.1" r="2.8" fill="#2364aa"/>
<circle cx="250.2" cy="260.0" r="2.8" fill="#2364aa"/>
<circle cx="279.7" cy="206.9" r="2.8" fill="#2364aa"/>
<circle cx="309.2" cy="153.8" r="2.8" fill="#2364aa"/>
<circle cx="338.7" cy="100.7" r="2.8" fill="#2364aa"/>
<circle cx="226.6" cy="419.3" r="2.8" fill="#2364aa"/>
<circle cx="256.1" cy="366.2" r="2.8" fill="#2364aa"/>
<circle cx="285.6" cy="313.1" r="2.8" fill="#2364aa"/>
<circle cx="315.1" cy="260.0" r="2.8" fill="#2364aa"/>
<circle cx="344.6" cy="206.9" r="2.8" fill="#2364aa"/>
<circle cx="374.1" cy="153.8" r="2.8" fill="#2364aa"/>
<circle cx="403.6" cy="100.7" r="2.8" fill="#2364aa"/>
<circle cx="291.5" cy="419.3" r="2.8" fill="#2364aa"/>
<circle cx="321.0" cy="366.2" r="2.8" fill="#2364aa"/>
<circle cx="350.5" cy="313.1" r="2.8" fill="#2364aa"/>
<circle cx="380.0" cy="260.0" r="2.8" fill="#2364aa"/>
<circle cx="409.5" cy="206.9" r="2.8" fill="#2364aa"/>
<circle cx="439.0" cy="153.8" r="2.8" fill="#2364aa"/>
<circle cx="468.5" cy="100.7" r="2.8" fill="#2364aa"/>
<circle cx="356.4" cy="419.3" r="2.8" fill="#2364aa"/>
<circle cx="385.9" cy="366.2" r="2.8" fill="#2364aa"/>
<circle cx="415.4" cy="313.1" r="2.8" fill="#2364aa"/>
<circle cx="444.9" cy="260.0" r="2.8" fill="#2364aa"/>
<circle cx="474.4" cy="206.9" r="2.8" fill="#2364aa"/>
<circle cx="503.9" cy="153.8" r="2.8" fill="#2364aa"/>
<circle cx="533.4" cy="100.7" r="2.8" fill="#2364aa"/>
<circle cx="421.3" cy="419.3" r="2.8" fill="#2364aa"/>
<circle cx="450.8" cy="366.2" r="2.8" fill="#2364aa"/>
<circle cx="480.3" cy="313.1" r="2.8" fill="#2364aa"/>
<circle cx="509.8" cy="260.0" r="2.8" fill="#2364aa"/>
<circle cx="539.3" cy="206.9" r="2.8" fill="#2364aa"/>
<circle cx="568.8" cy="153.8" r="2.8" fill="#2364aa"/>
<circle cx="598.3" cy="100.7" r="2.8" fill="#2364aa"/>
<circle cx="486.2" cy="419.3" r="2.8" fill="#2364aa"/>
<circle cx="515.7" cy="366.2" r="2.8" fill="#2364aa"/>
<circle cx="545.2" cy="313.1" r="2.8" fill="#2364aa"/>
<circle cx="574.7" cy="260.0" r="2.8" fill="#2364aa"/>
<circle cx="604.2" cy="206.9" r="2.8" fill="#2364aa"/>
<circle cx="633.7" cy="153.8" r="2.8" fill="#2364aa"/>
<circle cx="663.2" cy="100.7" r="2.8" fill="#2364aa"/>
<circle cx="551.1" cy="419.3" r="2.8" fill="#2364aa"/>
<circle cx="580.6" cy="366.2" r="2.8" fill="#2364aa"/>
<circle cx="610.1" cy="313.1" r="2.8" fill="#2364aa"/>
<circle cx="639.6" cy="260.0" r="2.8" fill="#2364aa"/>
<circle cx="669.1" cy="206.9" r="2.8" fill="#2364aa"/>
<circle cx="698.6" cy="153.8" r="2.8" fill="#2364aa"/>
<circle cx="728.1" cy="100.7" r="2.8" fill="#2364aa"/>
<polyline points="380.0,260.0 444.9,260.0 474.4,206.9 409.5,206.9 380.0,260.0" fill="#fee2e2" stroke="#d64545" stroke-width="3" stroke-linejoin="round"/></g></svg>