<svg xmlns="http://www.w3.org/2000/svg" width="760" height="520" viewBox="0 0 760 520"><rect width="760" height="520" fill="#fffdf7"/><text x="28" y="38" font-size="24" font-family="DejaVu Sans, Arial" font-weight="700" fill="#1f2933">Chapter 12 experiment</text><text x="28" y="64" font-size="14" font-family="DejaVu Sans, Arial" fill="#1f2933">Perturb the model and inspect what remains invariant</text><g font-family="DejaVu Sans, Arial"><polyline points="167.6,262.5 170.7,264.7 173.7,266.9 176.8,269.3 179.8,271.7 182.9,274.3 185.9,276.9 189.0,279.7 192.0,282.5 195.1,285.3 198.2,288.2 201.2,291.2 204.3,294.2 207.3,297.2 210.4,300.2 213.4,303.2 216.5,306.2 219.6,309.2 222.6,312.2 225.7,315.2 228.7,318.1 231.8,320.9 234.8,323.7 237.9,326.4 240.9,329.0 244.0,331.5 247.1,334.0 250.1,336.3 253.2,338.5 256.2,340.6 259.3,342.6 262.3,344.4 265.4,346.1 268.5,347.7 271.5,349.1 274.6,350.3 277.6,351.4 280.7,352.3 283.7,353.1 286.8,353.7 289.8,354.1 292.9,354.3 296.0,354.4 299.0,354.3 302.1,354.0 305.1,353.6 308.2,353.0 311.2,352.2 314.3,351.3 317.3,350.2 320.4,348.9 323.5,347.5 326.5,345.9 329.6,344.2 332.6,342.3 335.7,340.3 338.7,338.2 341.8,336.0 344.9,333.7 347.9,331.2 351.0,328.7 354.0,326.0 357.1,323.3 360.1,320.5 363.2,317.7 366.2,314.8 369.3,311.8 372.4,308.8 375.4,305.8 378.5,302.8 381.5,299.8 384.6,296.8 387.6,293.8 390.7,290.8 393.8,287.8 396.8,284.9 399.9,282.1 402.9,279.3 406.0,276.6 409.0,273.9 412.1,271.4 415.1,268.9 418.2,266.6 421.3,264.4 424.3,262.3 427.4,260.3 430.4,258.4 433.5,256.7 436.5,255.1 439.6,253.7 442.7,252.4 445.7,251.3 448.8,250.4 451.8,249.6 454.9,249.0 457.9,248.6 461.0,248.3 464.0,248.2 467.1,248.3 470.2,248.5 473.2,248.9 476.3,249.5 479.3,250.3 482.4,251.2 485.4,252.3 488.5,253.5 491.5,254.9 494.6,256.5 497.7,258.2 500.7,260.0 503.8,262.0 506.8,264.1 509.9,266.3 512.9,268.6 516.0,271.1 519.1,273.6 522.1,276.2 525.2,278.9 528.2,281.7 531.3,284.5 534.3,287.4 537.4,290.4 540.4,293.4 543.5,296.4 546.6,299.4 549.6,302.4 552.7,305.4 555.7,308.4 558.8,311.4 561.8,314.4 564.9,317.3 568.0,320.1 571.0,322.9 574.1,325.7 577.1,328.3 580.2,330.9 583.2,333.3 586.3,335.7 589.3,337.9 592.4,340.1" fill="none" stroke="#2364aa" stroke-width="2" stroke-linejoin="round"/>
<polyline points="167.6,251.1 170.7,254.1 173.7,257.1 176.8,260.1 179.8,263.2 182.9,266.2 185.9,269.2 189.0,272.1 192.0,275.1 195.1,277.9 198.2,280.7 201.2,283.5 204.3,286.2 207.3,288.8 210.4,291.3 213.4,293.6 216.5,295.9 219.6,298.1 222.6,300.1 225.7,302.1 228.7,303.8 231.8,305.5 234.8,307.0 237.9,308.3 240.9,309.5 244.0,310.5 247.1,311.3 250.1,312.0 253.2,312.6 256.2,312.9 259.3,313.1 262.3,313.1 265.4,312.9 268.5,312.6 271.5,312.1 274.6,311.4 277.6,310.5 280.7,309.5 283.7,308.4 286.8,307.0 289.8,305.5 292.9,303.9 296.0,302.1 299.0,300.2 302.1,298.2 305.1,296.0 308.2,293.8 311.2,291.4 314.3,288.9 317.3,286.3 320.4,283.6 323.5,280.9 326.5,278.1 329.6,275.2 332.6,272.3 335.7,269.3 338.7,266.3 341.8,263.3 344.9,260.3 347.9,257.3 351.0,254.2 354.0,251.2 357.1,248.3 360.1,245.3 363.2,242.5 366.2,239.6 369.3,236.9 372.4,234.2 375.4,231.6 378.5,229.1 381.5,226.7 384.6,224.4 387.6,222.2 390.7,220.1 393.8,218.2 396.8,216.4 399.9,214.7 402.9,213.2 406.0,211.9 409.0,210.7 412.1,209.6 415.1,208.8 418.2,208.1 421.3,207.5 424.3,207.1 427.4,206.9 430.4,206.9 433.5,207.1 436.5,207.4 439.6,207.9 442.7,208.5 445.7,209.3 448.8,210.3 451.8,211.5 454.9,212.8 457.9,214.2 461.0,215.9 464.0,217.6 467.1,219.5 470.2,221.5 473.2,223.7 476.3,225.9 479.3,228.3 482.4,230.8 485.4,233.3 488.5,236.0 491.5,238.7 494.6,241.5 497.7,244.4 500.7,247.3 503.8,250.3 506.8,253.3 509.9,256.3 512.9,259.3 516.0,262.3 519.1,265.4 522.1,268.3 525.2,271.3 528.2,274.3 531.3,277.1 534.3,280.0 537.4,282.8 540.4,285.4 543.5,288.1 546.6,290.6 549.6,293.0 552.7,295.3 555.7,297.5 558.8,299.6 561.8,301.5 564.9,303.4 568.0,305.0 571.0,306.6 574.1,307.9 577.1,309.2 580.2,310.2 583.2,311.1 586.3,311.9 589.3,312.4 592.4,312.8" fill="none" stroke="#f97316" stroke-width="2" stroke-linejoin="round"/>
<polyline points="167.6,243.3 170.7,245.9 173.7,248.5 176.8,250.9 179.8,253.3 182.9,255.5 185.9,257.6 189.0,259.6 192.0,261.5 195.1,263.2 198.2,264.8 201.2,266.2 204.3,267.5 207.3,268.6 210.4,269.6 213.4,270.3 216.5,271.0 219.6,271.4 222.6,271.7 225.7,271.8 228.7,271.7 231.8,271.5 234.8,271.1 237.9,270.5 240.9,269.8 244.0,268.8 247.1,267.8 250.1,266.5 253.2,265.1 256.2,263.6 259.3,261.9 262.3,260.1 265.4,258.1 268.5,256.0 271.5,253.8 274.6,251.5 277.6,249.1 280.7,246.5 283.7,243.9 286.8,241.2 289.8,238.4 292.9,235.6 296.0,232.7 299.0,229.8 302.1,226.8 305.1,223.8 308.2,220.8 311.2,217.7 314.3,214.7 317.3,211.7 320.4,208.7 323.5,205.8 326.5,202.9 329.6,200.0 332.6,197.2 335.7,194.5 338.7,191.8 341.8,189.3 344.9,186.8 347.9,184.4 351.0,182.2 354.0,180.0 357.1,178.0 360.1,176.1 363.2,174.4 366.2,172.8 369.3,171.4 372.4,170.1 375.4,168.9 378.5,168.0 381.5,167.2 384.6,166.5 387.6,166.0 390.7,165.7 393.8,165.6 396.8,165.6 399.9,165.9 402.9,166.2 406.0,166.8 409.0,167.5 412.1,168.4 415.1,169.5 418.2,170.7 421.3,172.1 424.3,173.6 427.4,175.2 430.4,177.1 433.5,179.0 436.5,181.1 439.6,183.3 442.7,185.6 445.7,188.0 448.8,190.5 451.8,193.1 454.9,195.8 457.9,198.6 461.0,201.4 464.0,204.3 467.1,207.2 470.2,210.2 473.2,213.2 476.3,216.2 479.3,219.2 482.4,222.3 485.4,225.3 488.5,228.3 491.5,231.2 494.6,234.1 497.7,237.0 500.7,239.8 503.8,242.6 506.8,245.2 509.9,247.8 512.9,250.3 516.0,252.7 519.1,254.9 522.1,257.1 525.2,259.1 528.2,261.0 531.3,262.8 534.3,264.4 537.4,265.8 540.4,267.2 543.5,268.3 546.6,269.3 549.6,270.1 552.7,270.8 555.7,271.3 558.8,271.6 561.8,271.8 564.9,271.8 568.0,271.6 571.0,271.2 574.1,270.7 577.1,270.0 580.2,269.1 583.2,268.1 586.3,266.9 589.3,265.5 592.4,264.0" fill="none" stroke="#2f9e44" stroke-width="2" stroke-linejoin="round"/>
<line x1="167.6" y1="260.0" x2="592.4" y2="260.0" stroke="#d8dee9" stroke-width="1" stroke-dasharray="4 4"/></g></svg>