<?xml version="1.0" encoding="utf-8" standalone="no"?>
<!DOCTYPE svg PUBLIC "-//W3C//DTD SVG 1.1//EN"
  "http://www.w3.org/Graphics/SVG/1.1/DTD/svg11.dtd">
<svg xmlns:xlink="http://www.w3.org/1999/xlink" width="291.6pt" height="306.718125pt" viewBox="0 0 291.6 306.718125" xmlns="http://www.w3.org/2000/svg" version="1.1">
 <metadata>
  <rdf:RDF xmlns:dc="http://purl.org/dc/elements/1.1/" xmlns:cc="http://creativecommons.org/ns#" xmlns:rdf="http://www.w3.org/1999/02/22-rdf-syntax-ns#">
   <cc:Work>
    <dc:type rdf:resource="http://purl.org/dc/dcmitype/StillImage"/>
    <dc:date>2026-05-12T05:32:29.489489</dc:date>
    <dc:format>image/svg+xml</dc:format>
    <dc:creator>
     <cc:Agent>
      <dc:title>Matplotlib v3.10.9, https://matplotlib.org/</dc:title>
     </cc:Agent>
    </dc:creator>
   </cc:Work>
  </rdf:RDF>
 </metadata>
 <defs>
  <style type="text/css">*{stroke-linejoin: round; stroke-linecap: butt}</style>
 </defs>
 <g id="figure_1">
  <g id="patch_1">
   <path d="M 0 306.718125 
L 291.6 306.718125 
L 291.6 0 
L 0 0 
z
" style="fill: #ffffff"/>
  </g>
  <g id="axes_1">
   <g id="patch_2">
    <path d="M 83.668966 269.789933 
C 112.542107 269.789933 140.236566 258.318513 160.65296 237.902119 
C 181.069353 217.485725 192.540774 189.791266 192.540774 160.918125 
C 192.540774 132.044984 181.069353 104.350525 160.65296 83.934131 
C 140.236566 63.517737 112.542107 52.046317 83.668966 52.046317 
C 54.795824 52.046317 27.101365 63.517737 6.684971 83.934131 
C -13.731422 104.350525 -25.202843 132.044984 -25.202843 160.918125 
C -25.202843 189.791266 -13.731422 217.485725 6.684971 237.902119 
C 27.101365 258.318513 54.795824 269.789933 83.668966 269.789933 
L 83.668966 269.789933 
z
" clip-path="url(#p0cb9ff9382)" style="fill: none; stroke-dasharray: 5.18,2.24; stroke-dashoffset: 0; stroke: #8d99ae; stroke-width: 1.4; stroke-linejoin: miter"/>
   </g>
   <g id="patch_3">
    <path d="M 217.489655 253.261525 
C 241.979411 253.261525 265.469427 243.531642 282.7863 226.214769 
C 300.103172 208.897897 309.833055 185.407881 309.833055 160.918125 
C 309.833055 136.428369 300.103172 112.938353 282.7863 95.621481 
C 265.469427 78.304608 241.979411 68.574725 217.489655 68.574725 
C 192.999899 68.574725 169.509883 78.304608 152.193011 95.621481 
C 134.876138 112.938353 125.146255 136.428369 125.146255 160.918125 
C 125.146255 185.407881 134.876138 208.897897 152.193011 226.214769 
C 169.509883 243.531642 192.999899 253.261525 217.489655 253.261525 
L 217.489655 253.261525 
z
" clip-path="url(#p0cb9ff9382)" style="fill: none; stroke-dasharray: 5.18,2.24; stroke-dashoffset: 0; stroke: #8d99ae; stroke-width: 1.4; stroke-linejoin: miter"/>
   </g>
   <g id="line2d_1">
    <path d="M 83.668966 160.918125 
L 217.489655 160.918125 
" clip-path="url(#p0cb9ff9382)" style="fill: none; stroke: #30343b; stroke-width: 2; stroke-linecap: square"/>
   </g>
   <g id="line2d_2">
    <path d="M 163.005517 86.360884 
L 163.005517 235.475366 
" clip-path="url(#p0cb9ff9382)" style="fill: none; stroke: #adb5bd; stroke-linecap: square"/>
   </g>
   <g id="text_1">
    <!-- A -->
    <g transform="translate(80.248653 176.163459) scale(0.1 -0.1)">
     <defs>
      <path id="DejaVuSans-41" d="M 2188 4044 
L 1331 1722 
L 3047 1722 
L 2188 4044 
z
M 1831 4666 
L 2547 4666 
L 4325 0 
L 3669 0 
L 3244 1197 
L 1141 1197 
L 716 0 
L 50 0 
L 1831 4666 
z
" transform="scale(0.015625)"/>
     </defs>
     <use xlink:href="#DejaVuSans-41"/>
    </g>
   </g>
   <g id="text_2">
    <!-- B -->
    <g transform="translate(214.059186 176.163459) scale(0.1 -0.1)">
     <defs>
      <path id="DejaVuSans-42" d="M 1259 2228 
L 1259 519 
L 2272 519 
Q 2781 519 3026 730 
Q 3272 941 3272 1375 
Q 3272 1813 3026 2020 
Q 2781 2228 2272 2228 
L 1259 2228 
z
M 1259 4147 
L 1259 2741 
L 2194 2741 
Q 2656 2741 2882 2914 
Q 3109 3088 3109 3444 
Q 3109 3797 2882 3972 
Q 2656 4147 2194 4147 
L 1259 4147 
z
M 628 4666 
L 2241 4666 
Q 2963 4666 3353 4366 
Q 3744 4066 3744 3513 
Q 3744 3084 3544 2831 
Q 3344 2578 2956 2516 
Q 3422 2416 3680 2098 
Q 3938 1781 3938 1306 
Q 3938 681 3513 340 
Q 3088 0 2303 0 
L 628 0 
L 628 4666 
z
" transform="scale(0.015625)"/>
     </defs>
     <use xlink:href="#DejaVuSans-42"/>
    </g>
   </g>
   <g id="text_3">
    <!-- P -->
    <g transform="translate(167.784828 82.537435) scale(0.1 -0.1)">
     <defs>
      <path id="DejaVuSans-50" d="M 1259 4147 
L 1259 2394 
L 2053 2394 
Q 2494 2394 2734 2622 
Q 2975 2850 2975 3272 
Q 2975 3691 2734 3919 
Q 2494 4147 2053 4147 
L 1259 4147 
z
M 628 4666 
L 2053 4666 
Q 2838 4666 3239 4311 
Q 3641 3956 3641 3272 
Q 3641 2581 3239 2228 
Q 2838 1875 2053 1875 
L 1259 1875 
L 1259 0 
L 628 0 
L 628 4666 
z
" transform="scale(0.015625)"/>
     </defs>
     <use xlink:href="#DejaVuSans-50"/>
    </g>
   </g>
   <g id="text_4">
    <!-- reflected P -->
    <g transform="translate(167.784828 243.122263) scale(0.1 -0.1)">
     <defs>
      <path id="DejaVuSans-72" d="M 2631 2963 
Q 2534 3019 2420 3045 
Q 2306 3072 2169 3072 
Q 1681 3072 1420 2755 
Q 1159 2438 1159 1844 
L 1159 0 
L 581 0 
L 581 3500 
L 1159 3500 
L 1159 2956 
Q 1341 3275 1631 3429 
Q 1922 3584 2338 3584 
Q 2397 3584 2469 3576 
Q 2541 3569 2628 3553 
L 2631 2963 
z
" transform="scale(0.015625)"/>
      <path id="DejaVuSans-65" d="M 3597 1894 
L 3597 1613 
L 953 1613 
Q 991 1019 1311 708 
Q 1631 397 2203 397 
Q 2534 397 2845 478 
Q 3156 559 3463 722 
L 3463 178 
Q 3153 47 2828 -22 
Q 2503 -91 2169 -91 
Q 1331 -91 842 396 
Q 353 884 353 1716 
Q 353 2575 817 3079 
Q 1281 3584 2069 3584 
Q 2775 3584 3186 3129 
Q 3597 2675 3597 1894 
z
M 3022 2063 
Q 3016 2534 2758 2815 
Q 2500 3097 2075 3097 
Q 1594 3097 1305 2825 
Q 1016 2553 972 2059 
L 3022 2063 
z
" transform="scale(0.015625)"/>
      <path id="DejaVuSans-66" d="M 2375 4863 
L 2375 4384 
L 1825 4384 
Q 1516 4384 1395 4259 
Q 1275 4134 1275 3809 
L 1275 3500 
L 2222 3500 
L 2222 3053 
L 1275 3053 
L 1275 0 
L 697 0 
L 697 3053 
L 147 3053 
L 147 3500 
L 697 3500 
L 697 3744 
Q 697 4328 969 4595 
Q 1241 4863 1831 4863 
L 2375 4863 
z
" transform="scale(0.015625)"/>
      <path id="DejaVuSans-6c" d="M 603 4863 
L 1178 4863 
L 1178 0 
L 603 0 
L 603 4863 
z
" transform="scale(0.015625)"/>
      <path id="DejaVuSans-63" d="M 3122 3366 
L 3122 2828 
Q 2878 2963 2633 3030 
Q 2388 3097 2138 3097 
Q 1578 3097 1268 2742 
Q 959 2388 959 1747 
Q 959 1106 1268 751 
Q 1578 397 2138 397 
Q 2388 397 2633 464 
Q 2878 531 3122 666 
L 3122 134 
Q 2881 22 2623 -34 
Q 2366 -91 2075 -91 
Q 1284 -91 818 406 
Q 353 903 353 1747 
Q 353 2603 823 3093 
Q 1294 3584 2113 3584 
Q 2378 3584 2631 3529 
Q 2884 3475 3122 3366 
z
" transform="scale(0.015625)"/>
      <path id="DejaVuSans-74" d="M 1172 4494 
L 1172 3500 
L 2356 3500 
L 2356 3053 
L 1172 3053 
L 1172 1153 
Q 1172 725 1289 603 
Q 1406 481 1766 481 
L 2356 481 
L 2356 0 
L 1766 0 
Q 1100 0 847 248 
Q 594 497 594 1153 
L 594 3053 
L 172 3053 
L 172 3500 
L 594 3500 
L 594 4494 
L 1172 4494 
z
" transform="scale(0.015625)"/>
      <path id="DejaVuSans-64" d="M 2906 2969 
L 2906 4863 
L 3481 4863 
L 3481 0 
L 2906 0 
L 2906 525 
Q 2725 213 2448 61 
Q 2172 -91 1784 -91 
Q 1150 -91 751 415 
Q 353 922 353 1747 
Q 353 2572 751 3078 
Q 1150 3584 1784 3584 
Q 2172 3584 2448 3432 
Q 2725 3281 2906 2969 
z
M 947 1747 
Q 947 1113 1208 752 
Q 1469 391 1925 391 
Q 2381 391 2643 752 
Q 2906 1113 2906 1747 
Q 2906 2381 2643 2742 
Q 2381 3103 1925 3103 
Q 1469 3103 1208 2742 
Q 947 2381 947 1747 
z
" transform="scale(0.015625)"/>
      <path id="DejaVuSans-20" transform="scale(0.015625)"/>
     </defs>
     <use xlink:href="#DejaVuSans-72"/>
     <use xlink:href="#DejaVuSans-65" transform="translate(38.863281 0)"/>
     <use xlink:href="#DejaVuSans-66" transform="translate(100.386719 0)"/>
     <use xlink:href="#DejaVuSans-6c" transform="translate(135.591797 0)"/>
     <use xlink:href="#DejaVuSans-65" transform="translate(163.375 0)"/>
     <use xlink:href="#DejaVuSans-63" transform="translate(224.898438 0)"/>
     <use xlink:href="#DejaVuSans-74" transform="translate(279.878906 0)"/>
     <use xlink:href="#DejaVuSans-65" transform="translate(319.087891 0)"/>
     <use xlink:href="#DejaVuSans-64" transform="translate(380.611328 0)"/>
     <use xlink:href="#DejaVuSans-20" transform="translate(444.087891 0)"/>
     <use xlink:href="#DejaVuSans-50" transform="translate(475.875 0)"/>
    </g>
   </g>
   <g id="text_5">
    <!-- fixed line AB -->
    <g style="fill: #30343b" transform="translate(114.544531 153.271228) scale(0.1 -0.1)">
     <defs>
      <path id="DejaVuSans-69" d="M 603 3500 
L 1178 3500 
L 1178 0 
L 603 0 
L 603 3500 
z
M 603 4863 
L 1178 4863 
L 1178 4134 
L 603 4134 
L 603 4863 
z
" transform="scale(0.015625)"/>
      <path id="DejaVuSans-78" d="M 3513 3500 
L 2247 1797 
L 3578 0 
L 2900 0 
L 1881 1375 
L 863 0 
L 184 0 
L 1544 1831 
L 300 3500 
L 978 3500 
L 1906 2253 
L 2834 3500 
L 3513 3500 
z
" transform="scale(0.015625)"/>
      <path id="DejaVuSans-6e" d="M 3513 2113 
L 3513 0 
L 2938 0 
L 2938 2094 
Q 2938 2591 2744 2837 
Q 2550 3084 2163 3084 
Q 1697 3084 1428 2787 
Q 1159 2491 1159 1978 
L 1159 0 
L 581 0 
L 581 3500 
L 1159 3500 
L 1159 2956 
Q 1366 3272 1645 3428 
Q 1925 3584 2291 3584 
Q 2894 3584 3203 3211 
Q 3513 2838 3513 2113 
z
" transform="scale(0.015625)"/>
     </defs>
     <use xlink:href="#DejaVuSans-66"/>
     <use xlink:href="#DejaVuSans-69" transform="translate(35.205078 0)"/>
     <use xlink:href="#DejaVuSans-78" transform="translate(62.988281 0)"/>
     <use xlink:href="#DejaVuSans-65" transform="translate(119.042969 0)"/>
     <use xlink:href="#DejaVuSans-64" transform="translate(180.566406 0)"/>
     <use xlink:href="#DejaVuSans-20" transform="translate(244.042969 0)"/>
     <use xlink:href="#DejaVuSans-6c" transform="translate(275.830078 0)"/>
     <use xlink:href="#DejaVuSans-69" transform="translate(303.613281 0)"/>
     <use xlink:href="#DejaVuSans-6e" transform="translate(331.396484 0)"/>
     <use xlink:href="#DejaVuSans-65" transform="translate(394.775391 0)"/>
     <use xlink:href="#DejaVuSans-20" transform="translate(456.298828 0)"/>
     <use xlink:href="#DejaVuSans-41" transform="translate(488.085938 0)"/>
     <use xlink:href="#DejaVuSans-42" transform="translate(556.494141 0)"/>
    </g>
   </g>
   <g id="text_6">
    <!-- Two fixed points force identity or reflection -->
    <g transform="translate(17.611875 16.318125) scale(0.12 -0.12)">
     <defs>
      <path id="DejaVuSans-54" d="M -19 4666 
L 3928 4666 
L 3928 4134 
L 2272 4134 
L 2272 0 
L 1638 0 
L 1638 4134 
L -19 4134 
L -19 4666 
z
" transform="scale(0.015625)"/>
      <path id="DejaVuSans-77" d="M 269 3500 
L 844 3500 
L 1563 769 
L 2278 3500 
L 2956 3500 
L 3675 769 
L 4391 3500 
L 4966 3500 
L 4050 0 
L 3372 0 
L 2619 2869 
L 1863 0 
L 1184 0 
L 269 3500 
z
" transform="scale(0.015625)"/>
      <path id="DejaVuSans-6f" d="M 1959 3097 
Q 1497 3097 1228 2736 
Q 959 2375 959 1747 
Q 959 1119 1226 758 
Q 1494 397 1959 397 
Q 2419 397 2687 759 
Q 2956 1122 2956 1747 
Q 2956 2369 2687 2733 
Q 2419 3097 1959 3097 
z
M 1959 3584 
Q 2709 3584 3137 3096 
Q 3566 2609 3566 1747 
Q 3566 888 3137 398 
Q 2709 -91 1959 -91 
Q 1206 -91 779 398 
Q 353 888 353 1747 
Q 353 2609 779 3096 
Q 1206 3584 1959 3584 
z
" transform="scale(0.015625)"/>
      <path id="DejaVuSans-70" d="M 1159 525 
L 1159 -1331 
L 581 -1331 
L 581 3500 
L 1159 3500 
L 1159 2969 
Q 1341 3281 1617 3432 
Q 1894 3584 2278 3584 
Q 2916 3584 3314 3078 
Q 3713 2572 3713 1747 
Q 3713 922 3314 415 
Q 2916 -91 2278 -91 
Q 1894 -91 1617 61 
Q 1341 213 1159 525 
z
M 3116 1747 
Q 3116 2381 2855 2742 
Q 2594 3103 2138 3103 
Q 1681 3103 1420 2742 
Q 1159 2381 1159 1747 
Q 1159 1113 1420 752 
Q 1681 391 2138 391 
Q 2594 391 2855 752 
Q 3116 1113 3116 1747 
z
" transform="scale(0.015625)"/>
      <path id="DejaVuSans-73" d="M 2834 3397 
L 2834 2853 
Q 2591 2978 2328 3040 
Q 2066 3103 1784 3103 
Q 1356 3103 1142 2972 
Q 928 2841 928 2578 
Q 928 2378 1081 2264 
Q 1234 2150 1697 2047 
L 1894 2003 
Q 2506 1872 2764 1633 
Q 3022 1394 3022 966 
Q 3022 478 2636 193 
Q 2250 -91 1575 -91 
Q 1294 -91 989 -36 
Q 684 19 347 128 
L 347 722 
Q 666 556 975 473 
Q 1284 391 1588 391 
Q 1994 391 2212 530 
Q 2431 669 2431 922 
Q 2431 1156 2273 1281 
Q 2116 1406 1581 1522 
L 1381 1569 
Q 847 1681 609 1914 
Q 372 2147 372 2553 
Q 372 3047 722 3315 
Q 1072 3584 1716 3584 
Q 2034 3584 2315 3537 
Q 2597 3491 2834 3397 
z
" transform="scale(0.015625)"/>
      <path id="DejaVuSans-79" d="M 2059 -325 
Q 1816 -950 1584 -1140 
Q 1353 -1331 966 -1331 
L 506 -1331 
L 506 -850 
L 844 -850 
Q 1081 -850 1212 -737 
Q 1344 -625 1503 -206 
L 1606 56 
L 191 3500 
L 800 3500 
L 1894 763 
L 2988 3500 
L 3597 3500 
L 2059 -325 
z
" transform="scale(0.015625)"/>
     </defs>
     <use xlink:href="#DejaVuSans-54"/>
     <use xlink:href="#DejaVuSans-77" transform="translate(44.583984 0)"/>
     <use xlink:href="#DejaVuSans-6f" transform="translate(126.371094 0)"/>
     <use xlink:href="#DejaVuSans-20" transform="translate(187.552734 0)"/>
     <use xlink:href="#DejaVuSans-66" transform="translate(219.339844 0)"/>
     <use xlink:href="#DejaVuSans-69" transform="translate(254.544922 0)"/>
     <use xlink:href="#DejaVuSans-78" transform="translate(282.328125 0)"/>
     <use xlink:href="#DejaVuSans-65" transform="translate(338.382812 0)"/>
     <use xlink:href="#DejaVuSans-64" transform="translate(399.90625 0)"/>
     <use xlink:href="#DejaVuSans-20" transform="translate(463.382812 0)"/>
     <use xlink:href="#DejaVuSans-70" transform="translate(495.169922 0)"/>
     <use xlink:href="#DejaVuSans-6f" transform="translate(558.646484 0)"/>
     <use xlink:href="#DejaVuSans-69" transform="translate(619.828125 0)"/>
     <use xlink:href="#DejaVuSans-6e" transform="translate(647.611328 0)"/>
     <use xlink:href="#DejaVuSans-74" transform="translate(710.990234 0)"/>
     <use xlink:href="#DejaVuSans-73" transform="translate(750.199219 0)"/>
     <use xlink:href="#DejaVuSans-20" transform="translate(802.298828 0)"/>
     <use xlink:href="#DejaVuSans-66" transform="translate(834.085938 0)"/>
     <use xlink:href="#DejaVuSans-6f" transform="translate(869.291016 0)"/>
     <use xlink:href="#DejaVuSans-72" transform="translate(930.472656 0)"/>
     <use xlink:href="#DejaVuSans-63" transform="translate(969.335938 0)"/>
     <use xlink:href="#DejaVuSans-65" transform="translate(1024.316406 0)"/>
     <use xlink:href="#DejaVuSans-20" transform="translate(1085.839844 0)"/>
     <use xlink:href="#DejaVuSans-69" transform="translate(1117.626953 0)"/>
     <use xlink:href="#DejaVuSans-64" transform="translate(1145.410156 0)"/>
     <use xlink:href="#DejaVuSans-65" transform="translate(1208.886719 0)"/>
     <use xlink:href="#DejaVuSans-6e" transform="translate(1270.410156 0)"/>
     <use xlink:href="#DejaVuSans-74" transform="translate(1333.789062 0)"/>
     <use xlink:href="#DejaVuSans-69" transform="translate(1372.998047 0)"/>
     <use xlink:href="#DejaVuSans-74" transform="translate(1400.78125 0)"/>
     <use xlink:href="#DejaVuSans-79" transform="translate(1439.990234 0)"/>
     <use xlink:href="#DejaVuSans-20" transform="translate(1499.169922 0)"/>
     <use xlink:href="#DejaVuSans-6f" transform="translate(1530.957031 0)"/>
     <use xlink:href="#DejaVuSans-72" transform="translate(1592.138672 0)"/>
     <use xlink:href="#DejaVuSans-20" transform="translate(1633.251953 0)"/>
     <use xlink:href="#DejaVuSans-72" transform="translate(1665.039062 0)"/>
     <use xlink:href="#DejaVuSans-65" transform="translate(1703.902344 0)"/>
     <use xlink:href="#DejaVuSans-66" transform="translate(1765.425781 0)"/>
     <use xlink:href="#DejaVuSans-6c" transform="translate(1800.630859 0)"/>
     <use xlink:href="#DejaVuSans-65" transform="translate(1828.414062 0)"/>
     <use xlink:href="#DejaVuSans-63" transform="translate(1889.9375 0)"/>
     <use xlink:href="#DejaVuSans-74" transform="translate(1944.917969 0)"/>
     <use xlink:href="#DejaVuSans-69" transform="translate(1984.126953 0)"/>
     <use xlink:href="#DejaVuSans-6f" transform="translate(2011.910156 0)"/>
     <use xlink:href="#DejaVuSans-6e" transform="translate(2073.091797 0)"/>
    </g>
   </g>
   <g id="PathCollection_1">
    <defs>
     <path id="m6201e92902" d="M 0 3.082207 
C 0.817411 3.082207 1.601453 2.757446 2.179449 2.179449 
C 2.757446 1.601453 3.082207 0.817411 3.082207 0 
C 3.082207 -0.817411 2.757446 -1.601453 2.179449 -2.179449 
C 1.601453 -2.757446 0.817411 -3.082207 0 -3.082207 
C -0.817411 -3.082207 -1.601453 -2.757446 -2.179449 -2.179449 
C -2.757446 -1.601453 -3.082207 -0.817411 -3.082207 0 
C -3.082207 0.817411 -2.757446 1.601453 -2.179449 2.179449 
C -1.601453 2.757446 -0.817411 3.082207 0 3.082207 
z
" style="stroke: #30343b"/>
    </defs>
    <g clip-path="url(#p0cb9ff9382)">
     <use xlink:href="#m6201e92902" x="83.668966" y="160.918125" style="fill: #30343b; stroke: #30343b"/>
     <use xlink:href="#m6201e92902" x="217.489655" y="160.918125" style="fill: #30343b; stroke: #30343b"/>
    </g>
   </g>
   <g id="PathCollection_2">
    <defs>
     <path id="C0_0_9e470ad49e" d="M 0 3.464102 
C 0.91869 3.464102 1.799877 3.099102 2.44949 2.44949 
C 3.099102 1.799877 3.464102 0.91869 3.464102 -0 
C 3.464102 -0.91869 3.099102 -1.799877 2.44949 -2.44949 
C 1.799877 -3.099102 0.91869 -3.464102 0 -3.464102 
C -0.91869 -3.464102 -1.799877 -3.099102 -2.44949 -2.44949 
C -3.099102 -1.799877 -3.464102 -0.91869 -3.464102 0 
C -3.464102 0.91869 -3.099102 1.799877 -2.44949 2.44949 
C -1.799877 3.099102 -0.91869 3.464102 0 3.464102 
z
"/>
    </defs>
    <g clip-path="url(#p0cb9ff9382)">
     <use xlink:href="#C0_0_9e470ad49e" x="163.005517" y="86.360884" style="fill: #e76f51; stroke: #e76f51"/>
    </g>
    <g clip-path="url(#p0cb9ff9382)">
     <use xlink:href="#C0_0_9e470ad49e" x="163.005517" y="235.475366" style="fill: #2a9d8f; stroke: #2a9d8f"/>
    </g>
   </g>
  </g>
 </g>
 <defs>
  <clipPath id="p0cb9ff9382">
   <rect x="7.2" y="22.318125" width="277.2" height="277.2"/>
  </clipPath>
 </defs>
</svg>
