<?xml version="1.0" encoding="utf-8" standalone="no"?>
<!DOCTYPE svg PUBLIC "-//W3C//DTD SVG 1.1//EN"
  "http://www.w3.org/Graphics/SVG/1.1/DTD/svg11.dtd">
<svg xmlns:xlink="http://www.w3.org/1999/xlink" width="402.48pt" height="417.598125pt" viewBox="0 0 402.48 417.598125" xmlns="http://www.w3.org/2000/svg" version="1.1">
 <metadata>
  <rdf:RDF xmlns:dc="http://purl.org/dc/elements/1.1/" xmlns:cc="http://creativecommons.org/ns#" xmlns:rdf="http://www.w3.org/1999/02/22-rdf-syntax-ns#">
   <cc:Work>
    <dc:type rdf:resource="http://purl.org/dc/dcmitype/StillImage"/>
    <dc:date>2026-05-12T07:24:06.833892</dc:date>
    <dc:format>image/svg+xml</dc:format>
    <dc:creator>
     <cc:Agent>
      <dc:title>Matplotlib v3.10.9, https://matplotlib.org/</dc:title>
     </cc:Agent>
    </dc:creator>
   </cc:Work>
  </rdf:RDF>
 </metadata>
 <defs>
  <style type="text/css">*{stroke-linejoin: round; stroke-linecap: butt}</style>
 </defs>
 <g id="figure_1">
  <g id="patch_1">
   <path d="M 0 417.598125
L 402.48 417.598125
L 402.48 0
L 0 0
z
" style="fill: #ffffff"/>
  </g>
  <g id="axes_1">
   <g id="patch_2">
    <path d="M 201.24 315.174792
C 227.446486 315.174792 252.583151 304.762844 271.113935 286.23206
C 289.644719 267.701276 300.056667 242.564611 300.056667 216.358125
C 300.056667 190.151639 289.644719 165.014974 271.113935 146.48419
C 252.583151 127.953406 227.446486 117.541458 201.24 117.541458
C 175.033514 117.541458 149.896849 127.953406 131.366065 146.48419
C 112.835281 165.014974 102.423333 190.151639 102.423333 216.358125
C 102.423333 242.564611 112.835281 267.701276 131.366065 286.23206
C 149.896849 304.762844 175.033514 315.174792 201.24 315.174792
L 201.24 315.174792
z
" clip-path="url(#p79af436b25)" style="fill: none; stroke: #e1e5ea; stroke-width: 0.7; stroke-linejoin: miter"/>
   </g>
   <g id="patch_3">
    <path d="M 231.783333 216.358125
C 231.783333 214.071095 231.52646 211.791283 231.017548 209.561594
C 230.508636 207.331904 229.750898 205.166412 228.758592 203.105869
" clip-path="url(#p79af436b25)" style="fill: none; stroke: #2a9d8f; stroke-width: 1.7; stroke-linejoin: miter"/>
   </g>
   <g id="line2d_1">
    <path d="M 201.24 216.358125
L 380.906667 216.358125
" clip-path="url(#p79af436b25)" style="fill: none; stroke: #30343b; stroke-width: 2; stroke-linecap: square"/>
   </g>
   <g id="line2d_2">
    <path d="M 201.24 216.358125
L 363.114073 138.40368
" clip-path="url(#p79af436b25)" style="fill: none; stroke: #30343b; stroke-width: 2; stroke-linecap: square"/>
   </g>
   <g id="line2d_3">
    <path d="M 201.24 216.358125
L 380.906667 216.358125
" clip-path="url(#p79af436b25)" style="fill: none; stroke-dasharray: 2.035,0.88; stroke-dashoffset: 0; stroke: #d6dbe1; stroke-width: 0.55"/>
   </g>
   <g id="line2d_4">
    <path d="M 201.24 216.358125
L 313.260334 75.889069
" clip-path="url(#p79af436b25)" style="fill: none; stroke-dasharray: 2.035,0.88; stroke-dashoffset: 0; stroke: #d6dbe1; stroke-width: 0.55"/>
   </g>
   <g id="line2d_5">
    <path d="M 201.24 216.358125
L 161.260406 41.196077
" clip-path="url(#p79af436b25)" style="fill: none; stroke-dasharray: 2.035,0.88; stroke-dashoffset: 0; stroke: #d6dbe1; stroke-width: 0.55"/>
   </g>
   <g id="line2d_6">
    <path d="M 201.24 216.358125
L 39.365927 138.40368
" clip-path="url(#p79af436b25)" style="fill: none; stroke-dasharray: 2.035,0.88; stroke-dashoffset: 0; stroke: #d6dbe1; stroke-width: 0.55"/>
   </g>
   <g id="line2d_7">
    <path d="M 201.24 216.358125
L 39.365927 294.31257
" clip-path="url(#p79af436b25)" style="fill: none; stroke-dasharray: 2.035,0.88; stroke-dashoffset: 0; stroke: #d6dbe1; stroke-width: 0.55"/>
   </g>
   <g id="line2d_8">
    <path d="M 201.24 216.358125
L 161.260406 391.520173
" clip-path="url(#p79af436b25)" style="fill: none; stroke-dasharray: 2.035,0.88; stroke-dashoffset: 0; stroke: #d6dbe1; stroke-width: 0.55"/>
   </g>
   <g id="line2d_9">
    <path d="M 201.24 216.358125
L 313.260334 356.827181
" clip-path="url(#p79af436b25)" style="fill: none; stroke-dasharray: 2.035,0.88; stroke-dashoffset: 0; stroke: #d6dbe1; stroke-width: 0.55"/>
   </g>
   <g id="text_1">
    <!-- pi/n -->
    <g style="fill: #2a9d8f" transform="translate(240.766667 210.069792) scale(0.1 -0.1)">
     <defs>
      <path id="DejaVuSans-70" d="M 1159 525
L 1159 -1331
L 581 -1331
L 581 3500
L 1159 3500
L 1159 2969
Q 1341 3281 1617 3432
Q 1894 3584 2278 3584
Q 2916 3584 3314 3078
Q 3713 2572 3713 1747
Q 3713 922 3314 415
Q 2916 -91 2278 -91
Q 1894 -91 1617 61
Q 1341 213 1159 525
z
M 3116 1747
Q 3116 2381 2855 2742
Q 2594 3103 2138 3103
Q 1681 3103 1420 2742
Q 1159 2381 1159 1747
Q 1159 1113 1420 752
Q 1681 391 2138 391
Q 2594 391 2855 752
Q 3116 1113 3116 1747
z
" transform="scale(0.015625)"/>
      <path id="DejaVuSans-69" d="M 603 3500
L 1178 3500
L 1178 0
L 603 0
L 603 3500
z
M 603 4863
L 1178 4863
L 1178 4134
L 603 4134
L 603 4863
z
" transform="scale(0.015625)"/>
      <path id="DejaVuSans-2f" d="M 1625 4666
L 2156 4666
L 531 -594
L 0 -594
L 1625 4666
z
" transform="scale(0.015625)"/>
      <path id="DejaVuSans-6e" d="M 3513 2113
L 3513 0
L 2938 0
L 2938 2094
Q 2938 2591 2744 2837
Q 2550 3084 2163 3084
Q 1697 3084 1428 2787
Q 1159 2491 1159 1978
L 1159 0
L 581 0
L 581 3500
L 1159 3500
L 1159 2956
Q 1366 3272 1645 3428
Q 1925 3584 2291 3584
Q 2894 3584 3203 3211
Q 3513 2838 3513 2113
z
" transform="scale(0.015625)"/>
     </defs>
     <use xlink:href="#DejaVuSans-70"/>
     <use xlink:href="#DejaVuSans-69" transform="translate(63.476562 0)"/>
     <use xlink:href="#DejaVuSans-2f" transform="translate(91.259766 0)"/>
     <use xlink:href="#DejaVuSans-6e" transform="translate(124.951172 0)"/>
    </g>
   </g>
   <g id="text_2">
    <!-- n = 7: 7 rotations and 7 reflected images -->
    <g transform="translate(97.940781 399.618125) scale(0.1 -0.1)">
     <defs>
      <path id="DejaVuSans-20" transform="scale(0.015625)"/>
      <path id="DejaVuSans-3d" d="M 678 2906
L 4684 2906
L 4684 2381
L 678 2381
L 678 2906
z
M 678 1631
L 4684 1631
L 4684 1100
L 678 1100
L 678 1631
z
" transform="scale(0.015625)"/>
      <path id="DejaVuSans-37" d="M 525 4666
L 3525 4666
L 3525 4397
L 1831 0
L 1172 0
L 2766 4134
L 525 4134
L 525 4666
z
" transform="scale(0.015625)"/>
      <path id="DejaVuSans-3a" d="M 750 794
L 1409 794
L 1409 0
L 750 0
L 750 794
z
M 750 3309
L 1409 3309
L 1409 2516
L 750 2516
L 750 3309
z
" transform="scale(0.015625)"/>
      <path id="DejaVuSans-72" d="M 2631 2963
Q 2534 3019 2420 3045
Q 2306 3072 2169 3072
Q 1681 3072 1420 2755
Q 1159 2438 1159 1844
L 1159 0
L 581 0
L 581 3500
L 1159 3500
L 1159 2956
Q 1341 3275 1631 3429
Q 1922 3584 2338 3584
Q 2397 3584 2469 3576
Q 2541 3569 2628 3553
L 2631 2963
z
" transform="scale(0.015625)"/>
      <path id="DejaVuSans-6f" d="M 1959 3097
Q 1497 3097 1228 2736
Q 959 2375 959 1747
Q 959 1119 1226 758
Q 1494 397 1959 397
Q 2419 397 2687 759
Q 2956 1122 2956 1747
Q 2956 2369 2687 2733
Q 2419 3097 1959 3097
z
M 1959 3584
Q 2709 3584 3137 3096
Q 3566 2609 3566 1747
Q 3566 888 3137 398
Q 2709 -91 1959 -91
Q 1206 -91 779 398
Q 353 888 353 1747
Q 353 2609 779 3096
Q 1206 3584 1959 3584
z
" transform="scale(0.015625)"/>
      <path id="DejaVuSans-74" d="M 1172 4494
L 1172 3500
L 2356 3500
L 2356 3053
L 1172 3053
L 1172 1153
Q 1172 725 1289 603
Q 1406 481 1766 481
L 2356 481
L 2356 0
L 1766 0
Q 1100 0 847 248
Q 594 497 594 1153
L 594 3053
L 172 3053
L 172 3500
L 594 3500
L 594 4494
L 1172 4494
z
" transform="scale(0.015625)"/>
      <path id="DejaVuSans-61" d="M 2194 1759
Q 1497 1759 1228 1600
Q 959 1441 959 1056
Q 959 750 1161 570
Q 1363 391 1709 391
Q 2188 391 2477 730
Q 2766 1069 2766 1631
L 2766 1759
L 2194 1759
z
M 3341 1997
L 3341 0
L 2766 0
L 2766 531
Q 2569 213 2275 61
Q 1981 -91 1556 -91
Q 1019 -91 701 211
Q 384 513 384 1019
Q 384 1609 779 1909
Q 1175 2209 1959 2209
L 2766 2209
L 2766 2266
Q 2766 2663 2505 2880
Q 2244 3097 1772 3097
Q 1472 3097 1187 3025
Q 903 2953 641 2809
L 641 3341
Q 956 3463 1253 3523
Q 1550 3584 1831 3584
Q 2591 3584 2966 3190
Q 3341 2797 3341 1997
z
" transform="scale(0.015625)"/>
      <path id="DejaVuSans-73" d="M 2834 3397
L 2834 2853
Q 2591 2978 2328 3040
Q 2066 3103 1784 3103
Q 1356 3103 1142 2972
Q 928 2841 928 2578
Q 928 2378 1081 2264
Q 1234 2150 1697 2047
L 1894 2003
Q 2506 1872 2764 1633
Q 3022 1394 3022 966
Q 3022 478 2636 193
Q 2250 -91 1575 -91
Q 1294 -91 989 -36
Q 684 19 347 128
L 347 722
Q 666 556 975 473
Q 1284 391 1588 391
Q 1994 391 2212 530
Q 2431 669 2431 922
Q 2431 1156 2273 1281
Q 2116 1406 1581 1522
L 1381 1569
Q 847 1681 609 1914
Q 372 2147 372 2553
Q 372 3047 722 3315
Q 1072 3584 1716 3584
Q 2034 3584 2315 3537
Q 2597 3491 2834 3397
z
" transform="scale(0.015625)"/>
      <path id="DejaVuSans-64" d="M 2906 2969
L 2906 4863
L 3481 4863
L 3481 0
L 2906 0
L 2906 525
Q 2725 213 2448 61
Q 2172 -91 1784 -91
Q 1150 -91 751 415
Q 353 922 353 1747
Q 353 2572 751 3078
Q 1150 3584 1784 3584
Q 2172 3584 2448 3432
Q 2725 3281 2906 2969
z
M 947 1747
Q 947 1113 1208 752
Q 1469 391 1925 391
Q 2381 391 2643 752
Q 2906 1113 2906 1747
Q 2906 2381 2643 2742
Q 2381 3103 1925 3103
Q 1469 3103 1208 2742
Q 947 2381 947 1747
z
" transform="scale(0.015625)"/>
      <path id="DejaVuSans-65" d="M 3597 1894
L 3597 1613
L 953 1613
Q 991 1019 1311 708
Q 1631 397 2203 397
Q 2534 397 2845 478
Q 3156 559 3463 722
L 3463 178
Q 3153 47 2828 -22
Q 2503 -91 2169 -91
Q 1331 -91 842 396
Q 353 884 353 1716
Q 353 2575 817 3079
Q 1281 3584 2069 3584
Q 2775 3584 3186 3129
Q 3597 2675 3597 1894
z
M 3022 2063
Q 3016 2534 2758 2815
Q 2500 3097 2075 3097
Q 1594 3097 1305 2825
Q 1016 2553 972 2059
L 3022 2063
z
" transform="scale(0.015625)"/>
      <path id="DejaVuSans-66" d="M 2375 4863
L 2375 4384
L 1825 4384
Q 1516 4384 1395 4259
Q 1275 4134 1275 3809
L 1275 3500
L 2222 3500
L 2222 3053
L 1275 3053
L 1275 0
L 697 0
L 697 3053
L 147 3053
L 147 3500
L 697 3500
L 697 3744
Q 697 4328 969 4595
Q 1241 4863 1831 4863
L 2375 4863
z
" transform="scale(0.015625)"/>
      <path id="DejaVuSans-6c" d="M 603 4863
L 1178 4863
L 1178 0
L 603 0
L 603 4863
z
" transform="scale(0.015625)"/>
      <path id="DejaVuSans-63" d="M 3122 3366
L 3122 2828
Q 2878 2963 2633 3030
Q 2388 3097 2138 3097
Q 1578 3097 1268 2742
Q 959 2388 959 1747
Q 959 1106 1268 751
Q 1578 397 2138 397
Q 2388 397 2633 464
Q 2878 531 3122 666
L 3122 134
Q 2881 22 2623 -34
Q 2366 -91 2075 -91
Q 1284 -91 818 406
Q 353 903 353 1747
Q 353 2603 823 3093
Q 1294 3584 2113 3584
Q 2378 3584 2631 3529
Q 2884 3475 3122 3366
z
" transform="scale(0.015625)"/>
      <path id="DejaVuSans-6d" d="M 3328 2828
Q 3544 3216 3844 3400
Q 4144 3584 4550 3584
Q 5097 3584 5394 3201
Q 5691 2819 5691 2113
L 5691 0
L 5113 0
L 5113 2094
Q 5113 2597 4934 2840
Q 4756 3084 4391 3084
Q 3944 3084 3684 2787
Q 3425 2491 3425 1978
L 3425 0
L 2847 0
L 2847 2094
Q 2847 2600 2669 2842
Q 2491 3084 2119 3084
Q 1678 3084 1418 2786
Q 1159 2488 1159 1978
L 1159 0
L 581 0
L 581 3500
L 1159 3500
L 1159 2956
Q 1356 3278 1631 3431
Q 1906 3584 2284 3584
Q 2666 3584 2933 3390
Q 3200 3197 3328 2828
z
" transform="scale(0.015625)"/>
      <path id="DejaVuSans-67" d="M 2906 1791
Q 2906 2416 2648 2759
Q 2391 3103 1925 3103
Q 1463 3103 1205 2759
Q 947 2416 947 1791
Q 947 1169 1205 825
Q 1463 481 1925 481
Q 2391 481 2648 825
Q 2906 1169 2906 1791
z
M 3481 434
Q 3481 -459 3084 -895
Q 2688 -1331 1869 -1331
Q 1566 -1331 1297 -1286
Q 1028 -1241 775 -1147
L 775 -588
Q 1028 -725 1275 -790
Q 1522 -856 1778 -856
Q 2344 -856 2625 -561
Q 2906 -266 2906 331
L 2906 616
Q 2728 306 2450 153
Q 2172 0 1784 0
Q 1141 0 747 490
Q 353 981 353 1791
Q 353 2603 747 3093
Q 1141 3584 1784 3584
Q 2172 3584 2450 3431
Q 2728 3278 2906 2969
L 2906 3500
L 3481 3500
L 3481 434
z
" transform="scale(0.015625)"/>
     </defs>
     <use xlink:href="#DejaVuSans-6e"/>
     <use xlink:href="#DejaVuSans-20" transform="translate(63.378906 0)"/>
     <use xlink:href="#DejaVuSans-3d" transform="translate(95.166016 0)"/>
     <use xlink:href="#DejaVuSans-20" transform="translate(178.955078 0)"/>
     <use xlink:href="#DejaVuSans-37" transform="translate(210.742188 0)"/>
     <use xlink:href="#DejaVuSans-3a" transform="translate(274.365234 0)"/>
     <use xlink:href="#DejaVuSans-20" transform="translate(308.056641 0)"/>
     <use xlink:href="#DejaVuSans-37" transform="translate(339.84375 0)"/>
     <use xlink:href="#DejaVuSans-20" transform="translate(403.466797 0)"/>
     <use xlink:href="#DejaVuSans-72" transform="translate(435.253906 0)"/>
     <use xlink:href="#DejaVuSans-6f" transform="translate(474.117188 0)"/>
     <use xlink:href="#DejaVuSans-74" transform="translate(535.298828 0)"/>
     <use xlink:href="#DejaVuSans-61" transform="translate(574.507812 0)"/>
     <use xlink:href="#DejaVuSans-74" transform="translate(635.787109 0)"/>
     <use xlink:href="#DejaVuSans-69" transform="translate(674.996094 0)"/>
     <use xlink:href="#DejaVuSans-6f" transform="translate(702.779297 0)"/>
     <use xlink:href="#DejaVuSans-6e" transform="translate(763.960938 0)"/>
     <use xlink:href="#DejaVuSans-73" transform="translate(827.339844 0)"/>
     <use xlink:href="#DejaVuSans-20" transform="translate(879.439453 0)"/>
     <use xlink:href="#DejaVuSans-61" transform="translate(911.226562 0)"/>
     <use xlink:href="#DejaVuSans-6e" transform="translate(972.505859 0)"/>
     <use xlink:href="#DejaVuSans-64" transform="translate(1035.884766 0)"/>
     <use xlink:href="#DejaVuSans-20" transform="translate(1099.361328 0)"/>
     <use xlink:href="#DejaVuSans-37" transform="translate(1131.148438 0)"/>
     <use xlink:href="#DejaVuSans-20" transform="translate(1194.771484 0)"/>
     <use xlink:href="#DejaVuSans-72" transform="translate(1226.558594 0)"/>
     <use xlink:href="#DejaVuSans-65" transform="translate(1265.421875 0)"/>
     <use xlink:href="#DejaVuSans-66" transform="translate(1326.945312 0)"/>
     <use xlink:href="#DejaVuSans-6c" transform="translate(1362.150391 0)"/>
     <use xlink:href="#DejaVuSans-65" transform="translate(1389.933594 0)"/>
     <use xlink:href="#DejaVuSans-63" transform="translate(1451.457031 0)"/>
     <use xlink:href="#DejaVuSans-74" transform="translate(1506.4375 0)"/>
     <use xlink:href="#DejaVuSans-65" transform="translate(1545.646484 0)"/>
     <use xlink:href="#DejaVuSans-64" transform="translate(1607.169922 0)"/>
     <use xlink:href="#DejaVuSans-20" transform="translate(1670.646484 0)"/>
     <use xlink:href="#DejaVuSans-69" transform="translate(1702.433594 0)"/>
     <use xlink:href="#DejaVuSans-6d" transform="translate(1730.216797 0)"/>
     <use xlink:href="#DejaVuSans-61" transform="translate(1827.628906 0)"/>
     <use xlink:href="#DejaVuSans-67" transform="translate(1888.908203 0)"/>
     <use xlink:href="#DejaVuSans-65" transform="translate(1952.384766 0)"/>
     <use xlink:href="#DejaVuSans-73" transform="translate(2013.908203 0)"/>
    </g>
   </g>
   <g id="text_3">
    <!-- Kaleidoscope wedge generates a dihedral orbit -->
    <g transform="translate(59.646562 16.318125) scale(0.12 -0.12)">
     <defs>
      <path id="DejaVuSans-4b" d="M 628 4666
L 1259 4666
L 1259 2694
L 3353 4666
L 4166 4666
L 1850 2491
L 4331 0
L 3500 0
L 1259 2247
L 1259 0
L 628 0
L 628 4666
z
" transform="scale(0.015625)"/>
      <path id="DejaVuSans-77" d="M 269 3500
L 844 3500
L 1563 769
L 2278 3500
L 2956 3500
L 3675 769
L 4391 3500
L 4966 3500
L 4050 0
L 3372 0
L 2619 2869
L 1863 0
L 1184 0
L 269 3500
z
" transform="scale(0.015625)"/>
      <path id="DejaVuSans-68" d="M 3513 2113
L 3513 0
L 2938 0
L 2938 2094
Q 2938 2591 2744 2837
Q 2550 3084 2163 3084
Q 1697 3084 1428 2787
Q 1159 2491 1159 1978
L 1159 0
L 581 0
L 581 4863
L 1159 4863
L 1159 2956
Q 1366 3272 1645 3428
Q 1925 3584 2291 3584
Q 2894 3584 3203 3211
Q 3513 2838 3513 2113
z
" transform="scale(0.015625)"/>
      <path id="DejaVuSans-62" d="M 3116 1747
Q 3116 2381 2855 2742
Q 2594 3103 2138 3103
Q 1681 3103 1420 2742
Q 1159 2381 1159 1747
Q 1159 1113 1420 752
Q 1681 391 2138 391
Q 2594 391 2855 752
Q 3116 1113 3116 1747
z
M 1159 2969
Q 1341 3281 1617 3432
Q 1894 3584 2278 3584
Q 2916 3584 3314 3078
Q 3713 2572 3713 1747
Q 3713 922 3314 415
Q 2916 -91 2278 -91
Q 1894 -91 1617 61
Q 1341 213 1159 525
L 1159 0
L 581 0
L 581 4863
L 1159 4863
L 1159 2969
z
" transform="scale(0.015625)"/>
     </defs>
     <use xlink:href="#DejaVuSans-4b"/>
     <use xlink:href="#DejaVuSans-61" transform="translate(63.826172 0)"/>
     <use xlink:href="#DejaVuSans-6c" transform="translate(125.105469 0)"/>
     <use xlink:href="#DejaVuSans-65" transform="translate(152.888672 0)"/>
     <use xlink:href="#DejaVuSans-69" transform="translate(214.412109 0)"/>
     <use xlink:href="#DejaVuSans-64" transform="translate(242.195312 0)"/>
     <use xlink:href="#DejaVuSans-6f" transform="translate(305.671875 0)"/>
     <use xlink:href="#DejaVuSans-73" transform="translate(366.853516 0)"/>
     <use xlink:href="#DejaVuSans-63" transform="translate(418.953125 0)"/>
     <use xlink:href="#DejaVuSans-6f" transform="translate(473.933594 0)"/>
     <use xlink:href="#DejaVuSans-70" transform="translate(535.115234 0)"/>
     <use xlink:href="#DejaVuSans-65" transform="translate(598.591797 0)"/>
     <use xlink:href="#DejaVuSans-20" transform="translate(660.115234 0)"/>
     <use xlink:href="#DejaVuSans-77" transform="translate(691.902344 0)"/>
     <use xlink:href="#DejaVuSans-65" transform="translate(773.689453 0)"/>
     <use xlink:href="#DejaVuSans-64" transform="translate(835.212891 0)"/>
     <use xlink:href="#DejaVuSans-67" transform="translate(898.689453 0)"/>
     <use xlink:href="#DejaVuSans-65" transform="translate(962.166016 0)"/>
     <use xlink:href="#DejaVuSans-20" transform="translate(1023.689453 0)"/>
     <use xlink:href="#DejaVuSans-67" transform="translate(1055.476562 0)"/>
     <use xlink:href="#DejaVuSans-65" transform="translate(1118.953125 0)"/>
     <use xlink:href="#DejaVuSans-6e" transform="translate(1180.476562 0)"/>
     <use xlink:href="#DejaVuSans-65" transform="translate(1243.855469 0)"/>
     <use xlink:href="#DejaVuSans-72" transform="translate(1305.378906 0)"/>
     <use xlink:href="#DejaVuSans-61" transform="translate(1346.492188 0)"/>
     <use xlink:href="#DejaVuSans-74" transform="translate(1407.771484 0)"/>
     <use xlink:href="#DejaVuSans-65" transform="translate(1446.980469 0)"/>
     <use xlink:href="#DejaVuSans-73" transform="translate(1508.503906 0)"/>
     <use xlink:href="#DejaVuSans-20" transform="translate(1560.603516 0)"/>
     <use xlink:href="#DejaVuSans-61" transform="translate(1592.390625 0)"/>
     <use xlink:href="#DejaVuSans-20" transform="translate(1653.669922 0)"/>
     <use xlink:href="#DejaVuSans-64" transform="translate(1685.457031 0)"/>
     <use xlink:href="#DejaVuSans-69" transform="translate(1748.933594 0)"/>
     <use xlink:href="#DejaVuSans-68" transform="translate(1776.716797 0)"/>
     <use xlink:href="#DejaVuSans-65" transform="translate(1840.095703 0)"/>
     <use xlink:href="#DejaVuSans-64" transform="translate(1901.619141 0)"/>
     <use xlink:href="#DejaVuSans-72" transform="translate(1965.095703 0)"/>
     <use xlink:href="#DejaVuSans-61" transform="translate(2006.208984 0)"/>
     <use xlink:href="#DejaVuSans-6c" transform="translate(2067.488281 0)"/>
     <use xlink:href="#DejaVuSans-20" transform="translate(2095.271484 0)"/>
     <use xlink:href="#DejaVuSans-6f" transform="translate(2127.058594 0)"/>
     <use xlink:href="#DejaVuSans-72" transform="translate(2188.240234 0)"/>
     <use xlink:href="#DejaVuSans-62" transform="translate(2229.353516 0)"/>
     <use xlink:href="#DejaVuSans-69" transform="translate(2292.830078 0)"/>
     <use xlink:href="#DejaVuSans-74" transform="translate(2320.613281 0)"/>
    </g>
   </g>
   <g id="PathCollection_1">
    <defs>
     <path id="mfc967640f4" d="M 0 3.316625
C 0.879579 3.316625 1.723251 2.967164 2.345208 2.345208
C 2.967164 1.723251 3.316625 0.879579 3.316625 0
C 3.316625 -0.879579 2.967164 -1.723251 2.345208 -2.345208
C 1.723251 -2.967164 0.879579 -3.316625 0 -3.316625
C -0.879579 -3.316625 -1.723251 -2.967164 -2.345208 -2.345208
C -2.967164 -1.723251 -3.316625 -0.879579 -3.316625 0
C -3.316625 0.879579 -2.967164 1.723251 -2.345208 2.345208
C -1.723251 2.967164 -0.879579 3.316625 0 3.316625
z
" style="stroke: #1b6ca8"/>
    </defs>
    <g clip-path="url(#p79af436b25)">
     <use xlink:href="#mfc967640f4" x="297.579127" y="194.369348" style="fill: #1b6ca8; stroke: #1b6ca8"/>
    </g>
   </g>
   <g id="PathCollection_2">
    <defs>
     <path id="mec9e971e68" d="M -3.316625 3.316625
L 3.316625 3.316625
L 3.316625 -3.316625
L -3.316625 -3.316625
z
" style="stroke: #e76f51"/>
    </defs>
    <g clip-path="url(#p79af436b25)">
     <use xlink:href="#mec9e971e68" x="297.579127" y="238.346902" style="fill: #e76f51; stroke: #e76f51"/>
    </g>
   </g>
   <g id="PathCollection_3">
    <g clip-path="url(#p79af436b25)">
     <use xlink:href="#mfc967640f4" x="244.114945" y="127.327385" style="fill: #1b6ca8; stroke: #1b6ca8"/>
    </g>
   </g>
   <g id="PathCollection_4">
    <g clip-path="url(#p79af436b25)">
     <use xlink:href="#mec9e971e68" x="278.497981" y="154.746941" style="fill: #e76f51; stroke: #e76f51"/>
    </g>
   </g>
   <g id="PathCollection_5">
    <g clip-path="url(#p79af436b25)">
     <use xlink:href="#mfc967640f4" x="158.365055" y="127.327385" style="fill: #1b6ca8; stroke: #1b6ca8"/>
    </g>
   </g>
   <g id="PathCollection_6">
    <g clip-path="url(#p79af436b25)">
     <use xlink:href="#mec9e971e68" x="201.24" y="117.541458" style="fill: #e76f51; stroke: #e76f51"/>
    </g>
   </g>
   <g id="PathCollection_7">
    <g clip-path="url(#p79af436b25)">
     <use xlink:href="#mfc967640f4" x="104.900873" y="194.369348" style="fill: #1b6ca8; stroke: #1b6ca8"/>
    </g>
   </g>
   <g id="PathCollection_8">
    <g clip-path="url(#p79af436b25)">
     <use xlink:href="#mec9e971e68" x="123.982019" y="154.746941" style="fill: #e76f51; stroke: #e76f51"/>
    </g>
   </g>
   <g id="PathCollection_9">
    <g clip-path="url(#p79af436b25)">
     <use xlink:href="#mfc967640f4" x="123.982019" y="277.969309" style="fill: #1b6ca8; stroke: #1b6ca8"/>
    </g>
   </g>
   <g id="PathCollection_10">
    <g clip-path="url(#p79af436b25)">
     <use xlink:href="#mec9e971e68" x="104.900873" y="238.346902" style="fill: #e76f51; stroke: #e76f51"/>
    </g>
   </g>
   <g id="PathCollection_11">
    <g clip-path="url(#p79af436b25)">
     <use xlink:href="#mfc967640f4" x="201.24" y="315.174792" style="fill: #1b6ca8; stroke: #1b6ca8"/>
    </g>
   </g>
   <g id="PathCollection_12">
    <g clip-path="url(#p79af436b25)">
     <use xlink:href="#mec9e971e68" x="158.365055" y="305.388865" style="fill: #e76f51; stroke: #e76f51"/>
    </g>
   </g>
   <g id="PathCollection_13">
    <g clip-path="url(#p79af436b25)">
     <use xlink:href="#mfc967640f4" x="278.497981" y="277.969309" style="fill: #1b6ca8; stroke: #1b6ca8"/>
    </g>
   </g>
   <g id="PathCollection_14">
    <g clip-path="url(#p79af436b25)">
     <use xlink:href="#mec9e971e68" x="244.114945" y="305.388865" style="fill: #e76f51; stroke: #e76f51"/>
    </g>
   </g>
  </g>
 </g>
 <defs>
  <clipPath id="p79af436b25">
   <rect x="7.2" y="22.318125" width="388.08" height="388.08"/>
  </clipPath>
 </defs>
</svg>
