<svg xmlns="http://www.w3.org/2000/svg" width="760" height="520" viewBox="0 0 760 520"><rect width="760" height="520" fill="#fffdf7"/><text x="28" y="38" font-size="24" font-family="DejaVu Sans, Arial" font-weight="700" fill="#1f2933">Chapter 02 experiment</text><text x="28" y="64" font-size="14" font-family="DejaVu Sans, Arial" fill="#1f2933">Perturb the model and inspect what remains invariant</text><g font-family="DejaVu Sans, Arial"><polyline points="167.6,345.4 170.7,346.3 173.7,347.2 176.8,348.0 179.8,348.8 182.9,349.5 185.9,350.2 189.0,350.8 192.0,351.4 195.1,351.9 198.2,352.4 201.2,352.8 204.3,353.2 207.3,353.5 210.4,353.8 213.4,354.0 216.5,354.2 219.6,354.3 222.6,354.4 225.7,354.4 228.7,354.4 231.8,354.3 234.8,354.2 237.9,354.0 240.9,353.7 244.0,353.5 247.1,353.1 250.1,352.8 253.2,352.3 256.2,351.8 259.3,351.3 262.3,350.7 265.4,350.1 268.5,349.4 271.5,348.7 274.6,347.9 277.6,347.1 280.7,346.3 283.7,345.4 286.8,344.4 289.8,343.4 292.9,342.4 296.0,341.4 299.0,340.3 302.1,339.1 305.1,337.9 308.2,336.7 311.2,335.5 314.3,334.2 317.3,332.9 320.4,331.5 323.5,330.2 326.5,328.8 329.6,327.4 332.6,325.9 335.7,324.4 338.7,322.9 341.8,321.4 344.9,319.9 347.9,318.3 351.0,316.8 354.0,315.2 357.1,313.6 360.1,312.0 363.2,310.3 366.2,308.7 369.3,307.1 372.4,305.4 375.4,303.8 378.5,302.1 381.5,300.5 384.6,298.8 387.6,297.2 390.7,295.5 393.8,293.9 396.8,292.3 399.9,290.6 402.9,289.0 406.0,287.4 409.0,285.8 412.1,284.3 415.1,282.7 418.2,281.2 421.3,279.7 424.3,278.2 427.4,276.7 430.4,275.2 433.5,273.8 436.5,272.4 439.6,271.1 442.7,269.7 445.7,268.4 448.8,267.1 451.8,265.9 454.9,264.7 457.9,263.5 461.0,262.3 464.0,261.2 467.1,260.2 470.2,259.2 473.2,258.2 476.3,257.2 479.3,256.3 482.4,255.5 485.4,254.7 488.5,253.9 491.5,253.2 494.6,252.5 497.7,251.9 500.7,251.3 503.8,250.8 506.8,250.3 509.9,249.8 512.9,249.5 516.0,249.1 519.1,248.9 522.1,248.6 525.2,248.4 528.2,248.3 531.3,248.2 534.3,248.2 537.4,248.2 540.4,248.3 543.5,248.4 546.6,248.6 549.6,248.8 552.7,249.1 555.7,249.4 558.8,249.8 561.8,250.2 564.9,250.7 568.0,251.2 571.0,251.8 574.1,252.4 577.1,253.1 580.2,253.8 583.2,254.6 586.3,255.4 589.3,256.3 592.4,257.2" fill="none" stroke="#2364aa" stroke-width="2" stroke-linejoin="round"/>
<polyline points="167.6,313.0 170.7,312.9 173.7,312.7 176.8,312.5 179.8,312.2 182.9,311.9 185.9,311.5 189.0,311.1 192.0,310.6 195.1,310.1 198.2,309.5 201.2,308.9 204.3,308.2 207.3,307.5 210.4,306.7 213.4,305.9 216.5,305.0 219.6,304.1 222.6,303.2 225.7,302.2 228.7,301.2 231.8,300.1 234.8,299.0 237.9,297.9 240.9,296.7 244.0,295.5 247.1,294.3 250.1,293.0 253.2,291.7 256.2,290.4 259.3,289.0 262.3,287.6 265.4,286.2 268.5,284.7 271.5,283.3 274.6,281.8 277.6,280.2 280.7,278.7 283.7,277.2 286.8,275.6 289.8,274.0 292.9,272.4 296.0,270.8 299.0,269.2 302.1,267.5 305.1,265.9 308.2,264.3 311.2,262.6 314.3,261.0 317.3,259.3 320.4,257.7 323.5,256.0 326.5,254.4 329.6,252.7 332.6,251.1 335.7,249.5 338.7,247.9 341.8,246.3 344.9,244.7 347.9,243.1 351.0,241.6 354.0,240.0 357.1,238.5 360.1,237.0 363.2,235.5 366.2,234.1 369.3,232.6 372.4,231.2 375.4,229.9 378.5,228.5 381.5,227.2 384.6,225.9 387.6,224.7 390.7,223.5 393.8,222.3 396.8,221.1 399.9,220.0 402.9,219.0 406.0,217.9 409.0,217.0 412.1,216.0 415.1,215.1 418.2,214.2 421.3,213.4 424.3,212.7 427.4,211.9 430.4,211.3 433.5,210.6 436.5,210.0 439.6,209.5 442.7,209.0 445.7,208.6 448.8,208.2 451.8,207.9 454.9,207.6 457.9,207.3 461.0,207.2 464.0,207.0 467.1,206.9 470.2,206.9 473.2,206.9 476.3,207.0 479.3,207.1 482.4,207.3 485.4,207.5 488.5,207.8 491.5,208.1 494.6,208.5 497.7,208.9 500.7,209.4 503.8,209.9 506.8,210.5 509.9,211.1 512.9,211.8 516.0,212.5 519.1,213.2 522.1,214.0 525.2,214.9 528.2,215.8 531.3,216.7 534.3,217.7 537.4,218.7 540.4,219.8 543.5,220.9 546.6,222.0 549.6,223.2 552.7,224.4 555.7,225.6 558.8,226.9 561.8,228.2 564.9,229.5 568.0,230.9 571.0,232.3 574.1,233.7 577.1,235.2 580.2,236.6 583.2,238.1 586.3,239.6 589.3,241.2 592.4,242.7" fill="none" stroke="#f97316" stroke-width="2" stroke-linejoin="round"/>
<polyline points="167.6,258.9 170.7,257.8 173.7,256.7 176.8,255.5 179.8,254.3 182.9,253.1 185.9,251.8 189.0,250.5 192.0,249.2 195.1,247.8 198.2,246.4 201.2,245.0 204.3,243.6 207.3,242.1 210.4,240.6 213.4,239.1 216.5,237.5 219.6,236.0 222.6,234.4 225.7,232.8 228.7,231.2 231.8,229.6 234.8,228.0 237.9,226.4 240.9,224.7 244.0,223.1 247.1,221.5 250.1,219.8 253.2,218.2 256.2,216.5 259.3,214.9 262.3,213.2 265.4,211.6 268.5,209.9 271.5,208.3 274.6,206.7 277.6,205.1 280.7,203.5 283.7,201.9 286.8,200.4 289.8,198.8 292.9,197.3 296.0,195.8 299.0,194.3 302.1,192.9 305.1,191.5 308.2,190.1 311.2,188.7 314.3,187.3 317.3,186.0 320.4,184.7 323.5,183.5 326.5,182.3 329.6,181.1 332.6,179.9 335.7,178.8 338.7,177.8 341.8,176.7 344.9,175.7 347.9,174.8 351.0,173.9 354.0,173.0 357.1,172.2 360.1,171.4 363.2,170.7 366.2,170.0 369.3,169.4 372.4,168.8 375.4,168.3 378.5,167.8 381.5,167.3 384.6,166.9 387.6,166.6 390.7,166.3 393.8,166.1 396.8,165.9 399.9,165.7 402.9,165.6 406.0,165.6 409.0,165.6 412.1,165.7 415.1,165.8 418.2,166.0 421.3,166.2 424.3,166.5 427.4,166.8 430.4,167.1 433.5,167.6 436.5,168.0 439.6,168.6 442.7,169.1 445.7,169.7 448.8,170.4 451.8,171.1 454.9,171.9 457.9,172.7 461.0,173.5 464.0,174.4 467.1,175.3 470.2,176.3 473.2,177.3 476.3,178.4 479.3,179.5 482.4,180.6 485.4,181.8 488.5,183.0 491.5,184.2 494.6,185.5 497.7,186.8 500.7,188.1 503.8,189.5 506.8,190.9 509.9,192.3 512.9,193.7 516.0,195.2 519.1,196.7 522.1,198.2 525.2,199.7 528.2,201.3 531.3,202.8 534.3,204.4 537.4,206.0 540.4,207.6 543.5,209.3 546.6,210.9 549.6,212.5 552.7,214.2 555.7,215.8 558.8,217.5 561.8,219.1 564.9,220.8 568.0,222.4 571.0,224.0 574.1,225.7 577.1,227.3 580.2,228.9 583.2,230.6 586.3,232.2 589.3,233.7 592.4,235.3" fill="none" stroke="#2f9e44" stroke-width="2" stroke-linejoin="round"/>
<line x1="167.6" y1="260.0" x2="592.4" y2="260.0" stroke="#d8dee9" stroke-width="1" stroke-dasharray="4 4"/></g></svg>