<?xml version="1.0" encoding="utf-8" standalone="no"?>
<!DOCTYPE svg PUBLIC "-//W3C//DTD SVG 1.1//EN"
  "http://www.w3.org/Graphics/SVG/1.1/DTD/svg11.dtd">
<svg xmlns:xlink="http://www.w3.org/1999/xlink" width="739.8pt" height="236.887826pt" viewBox="0 0 739.8 236.887826" xmlns="http://www.w3.org/2000/svg" version="1.1">
 <metadata>
  <rdf:RDF xmlns:dc="http://purl.org/dc/elements/1.1/" xmlns:cc="http://creativecommons.org/ns#" xmlns:rdf="http://www.w3.org/1999/02/22-rdf-syntax-ns#">
   <cc:Work>
    <dc:type rdf:resource="http://purl.org/dc/dcmitype/StillImage"/>
    <dc:date>2026-05-12T07:24:07.318722</dc:date>
    <dc:format>image/svg+xml</dc:format>
    <dc:creator>
     <cc:Agent>
      <dc:title>Matplotlib v3.10.9, https://matplotlib.org/</dc:title>
     </cc:Agent>
    </dc:creator>
   </cc:Work>
  </rdf:RDF>
 </metadata>
 <defs>
  <style type="text/css">*{stroke-linejoin: round; stroke-linecap: butt}</style>
 </defs>
 <g id="figure_1">
  <g id="patch_1">
   <path d="M 0 236.887826
L 739.8 236.887826
L 739.8 -0
L 0 -0
z
" style="fill: #ffffff"/>
  </g>
  <g id="axes_1">
   <g id="line2d_1">
    <path d="M 86.047826 86.210634
L 48.059638 203.126255
" clip-path="url(#pb976c8cdf6)" style="fill: none; stroke: #1f2937; stroke-width: 1.2; stroke-linecap: square"/>
   </g>
   <g id="line2d_2">
    <path d="M 24.581647 130.868428
L 124.036014 203.126255
" clip-path="url(#pb976c8cdf6)" style="fill: none; stroke: #1f2937; stroke-width: 1.2; stroke-linecap: square"/>
   </g>
   <g id="line2d_3">
    <path d="M 48.059638 203.126255
L 147.514005 130.868428
" clip-path="url(#pb976c8cdf6)" style="fill: none; stroke: #1f2937; stroke-width: 1.2; stroke-linecap: square"/>
   </g>
   <g id="line2d_4">
    <path d="M 124.036014 203.126255
L 86.047826 86.210634
" clip-path="url(#pb976c8cdf6)" style="fill: none; stroke: #1f2937; stroke-width: 1.2; stroke-linecap: square"/>
   </g>
   <g id="line2d_5">
    <path d="M 147.514005 130.868428
L 24.581647 130.868428
" clip-path="url(#pb976c8cdf6)" style="fill: none; stroke: #1f2937; stroke-width: 1.2; stroke-linecap: square"/>
   </g>
   <g id="PathCollection_1">
    <defs>
     <path id="m4eaceae2c0" d="M 0 2.345208
C 0.621956 2.345208 1.218523 2.098102 1.658312 1.658312
C 2.098102 1.218523 2.345208 0.621956 2.345208 0
C 2.345208 -0.621956 2.098102 -1.218523 1.658312 -1.658312
C 1.218523 -2.098102 0.621956 -2.345208 0 -2.345208
C -0.621956 -2.345208 -1.218523 -2.098102 -1.658312 -1.658312
C -2.098102 -1.218523 -2.345208 -0.621956 -2.345208 0
C -2.345208 0.621956 -2.098102 1.218523 -1.658312 1.658312
C -1.218523 2.098102 -0.621956 2.345208 0 2.345208
z
" style="stroke: #222222; stroke-width: 0.35"/>
    </defs>
    <g clip-path="url(#pb976c8cdf6)">
     <use xlink:href="#m4eaceae2c0" x="86.047826" y="86.210634" style="fill: #f77f00; stroke: #222222; stroke-width: 0.35"/>
     <use xlink:href="#m4eaceae2c0" x="24.581647" y="130.868428" style="fill: #f77f00; stroke: #222222; stroke-width: 0.35"/>
     <use xlink:href="#m4eaceae2c0" x="48.059638" y="203.126255" style="fill: #f77f00; stroke: #222222; stroke-width: 0.35"/>
     <use xlink:href="#m4eaceae2c0" x="124.036014" y="203.126255" style="fill: #f77f00; stroke: #222222; stroke-width: 0.35"/>
     <use xlink:href="#m4eaceae2c0" x="147.514005" y="130.868428" style="fill: #f77f00; stroke: #222222; stroke-width: 0.35"/>
    </g>
   </g>
   <g id="text_1">
    <!-- orbit 5 of 5; density 2 -->
    <g transform="translate(42.876576 225.810064) scale(0.08 -0.08)">
     <defs>
      <path id="DejaVuSans-6f" d="M 1959 3097
Q 1497 3097 1228 2736
Q 959 2375 959 1747
Q 959 1119 1226 758
Q 1494 397 1959 397
Q 2419 397 2687 759
Q 2956 1122 2956 1747
Q 2956 2369 2687 2733
Q 2419 3097 1959 3097
z
M 1959 3584
Q 2709 3584 3137 3096
Q 3566 2609 3566 1747
Q 3566 888 3137 398
Q 2709 -91 1959 -91
Q 1206 -91 779 398
Q 353 888 353 1747
Q 353 2609 779 3096
Q 1206 3584 1959 3584
z
" transform="scale(0.015625)"/>
      <path id="DejaVuSans-72" d="M 2631 2963
Q 2534 3019 2420 3045
Q 2306 3072 2169 3072
Q 1681 3072 1420 2755
Q 1159 2438 1159 1844
L 1159 0
L 581 0
L 581 3500
L 1159 3500
L 1159 2956
Q 1341 3275 1631 3429
Q 1922 3584 2338 3584
Q 2397 3584 2469 3576
Q 2541 3569 2628 3553
L 2631 2963
z
" transform="scale(0.015625)"/>
      <path id="DejaVuSans-62" d="M 3116 1747
Q 3116 2381 2855 2742
Q 2594 3103 2138 3103
Q 1681 3103 1420 2742
Q 1159 2381 1159 1747
Q 1159 1113 1420 752
Q 1681 391 2138 391
Q 2594 391 2855 752
Q 3116 1113 3116 1747
z
M 1159 2969
Q 1341 3281 1617 3432
Q 1894 3584 2278 3584
Q 2916 3584 3314 3078
Q 3713 2572 3713 1747
Q 3713 922 3314 415
Q 2916 -91 2278 -91
Q 1894 -91 1617 61
Q 1341 213 1159 525
L 1159 0
L 581 0
L 581 4863
L 1159 4863
L 1159 2969
z
" transform="scale(0.015625)"/>
      <path id="DejaVuSans-69" d="M 603 3500
L 1178 3500
L 1178 0
L 603 0
L 603 3500
z
M 603 4863
L 1178 4863
L 1178 4134
L 603 4134
L 603 4863
z
" transform="scale(0.015625)"/>
      <path id="DejaVuSans-74" d="M 1172 4494
L 1172 3500
L 2356 3500
L 2356 3053
L 1172 3053
L 1172 1153
Q 1172 725 1289 603
Q 1406 481 1766 481
L 2356 481
L 2356 0
L 1766 0
Q 1100 0 847 248
Q 594 497 594 1153
L 594 3053
L 172 3053
L 172 3500
L 594 3500
L 594 4494
L 1172 4494
z
" transform="scale(0.015625)"/>
      <path id="DejaVuSans-20" transform="scale(0.015625)"/>
      <path id="DejaVuSans-35" d="M 691 4666
L 3169 4666
L 3169 4134
L 1269 4134
L 1269 2991
Q 1406 3038 1543 3061
Q 1681 3084 1819 3084
Q 2600 3084 3056 2656
Q 3513 2228 3513 1497
Q 3513 744 3044 326
Q 2575 -91 1722 -91
Q 1428 -91 1123 -41
Q 819 9 494 109
L 494 744
Q 775 591 1075 516
Q 1375 441 1709 441
Q 2250 441 2565 725
Q 2881 1009 2881 1497
Q 2881 1984 2565 2268
Q 2250 2553 1709 2553
Q 1456 2553 1204 2497
Q 953 2441 691 2322
L 691 4666
z
" transform="scale(0.015625)"/>
      <path id="DejaVuSans-66" d="M 2375 4863
L 2375 4384
L 1825 4384
Q 1516 4384 1395 4259
Q 1275 4134 1275 3809
L 1275 3500
L 2222 3500
L 2222 3053
L 1275 3053
L 1275 0
L 697 0
L 697 3053
L 147 3053
L 147 3500
L 697 3500
L 697 3744
Q 697 4328 969 4595
Q 1241 4863 1831 4863
L 2375 4863
z
" transform="scale(0.015625)"/>
      <path id="DejaVuSans-3b" d="M 750 3309
L 1409 3309
L 1409 2516
L 750 2516
L 750 3309
z
M 750 794
L 1409 794
L 1409 256
L 897 -744
L 494 -744
L 750 256
L 750 794
z
" transform="scale(0.015625)"/>
      <path id="DejaVuSans-64" d="M 2906 2969
L 2906 4863
L 3481 4863
L 3481 0
L 2906 0
L 2906 525
Q 2725 213 2448 61
Q 2172 -91 1784 -91
Q 1150 -91 751 415
Q 353 922 353 1747
Q 353 2572 751 3078
Q 1150 3584 1784 3584
Q 2172 3584 2448 3432
Q 2725 3281 2906 2969
z
M 947 1747
Q 947 1113 1208 752
Q 1469 391 1925 391
Q 2381 391 2643 752
Q 2906 1113 2906 1747
Q 2906 2381 2643 2742
Q 2381 3103 1925 3103
Q 1469 3103 1208 2742
Q 947 2381 947 1747
z
" transform="scale(0.015625)"/>
      <path id="DejaVuSans-65" d="M 3597 1894
L 3597 1613
L 953 1613
Q 991 1019 1311 708
Q 1631 397 2203 397
Q 2534 397 2845 478
Q 3156 559 3463 722
L 3463 178
Q 3153 47 2828 -22
Q 2503 -91 2169 -91
Q 1331 -91 842 396
Q 353 884 353 1716
Q 353 2575 817 3079
Q 1281 3584 2069 3584
Q 2775 3584 3186 3129
Q 3597 2675 3597 1894
z
M 3022 2063
Q 3016 2534 2758 2815
Q 2500 3097 2075 3097
Q 1594 3097 1305 2825
Q 1016 2553 972 2059
L 3022 2063
z
" transform="scale(0.015625)"/>
      <path id="DejaVuSans-6e" d="M 3513 2113
L 3513 0
L 2938 0
L 2938 2094
Q 2938 2591 2744 2837
Q 2550 3084 2163 3084
Q 1697 3084 1428 2787
Q 1159 2491 1159 1978
L 1159 0
L 581 0
L 581 3500
L 1159 3500
L 1159 2956
Q 1366 3272 1645 3428
Q 1925 3584 2291 3584
Q 2894 3584 3203 3211
Q 3513 2838 3513 2113
z
" transform="scale(0.015625)"/>
      <path id="DejaVuSans-73" d="M 2834 3397
L 2834 2853
Q 2591 2978 2328 3040
Q 2066 3103 1784 3103
Q 1356 3103 1142 2972
Q 928 2841 928 2578
Q 928 2378 1081 2264
Q 1234 2150 1697 2047
L 1894 2003
Q 2506 1872 2764 1633
Q 3022 1394 3022 966
Q 3022 478 2636 193
Q 2250 -91 1575 -91
Q 1294 -91 989 -36
Q 684 19 347 128
L 347 722
Q 666 556 975 473
Q 1284 391 1588 391
Q 1994 391 2212 530
Q 2431 669 2431 922
Q 2431 1156 2273 1281
Q 2116 1406 1581 1522
L 1381 1569
Q 847 1681 609 1914
Q 372 2147 372 2553
Q 372 3047 722 3315
Q 1072 3584 1716 3584
Q 2034 3584 2315 3537
Q 2597 3491 2834 3397
z
" transform="scale(0.015625)"/>
      <path id="DejaVuSans-79" d="M 2059 -325
Q 1816 -950 1584 -1140
Q 1353 -1331 966 -1331
L 506 -1331
L 506 -850
L 844 -850
Q 1081 -850 1212 -737
Q 1344 -625 1503 -206
L 1606 56
L 191 3500
L 800 3500
L 1894 763
L 2988 3500
L 3597 3500
L 2059 -325
z
" transform="scale(0.015625)"/>
      <path id="DejaVuSans-32" d="M 1228 531
L 3431 531
L 3431 0
L 469 0
L 469 531
Q 828 903 1448 1529
Q 2069 2156 2228 2338
Q 2531 2678 2651 2914
Q 2772 3150 2772 3378
Q 2772 3750 2511 3984
Q 2250 4219 1831 4219
Q 1534 4219 1204 4116
Q 875 4013 500 3803
L 500 4441
Q 881 4594 1212 4672
Q 1544 4750 1819 4750
Q 2544 4750 2975 4387
Q 3406 4025 3406 3419
Q 3406 3131 3298 2873
Q 3191 2616 2906 2266
Q 2828 2175 2409 1742
Q 1991 1309 1228 531
z
" transform="scale(0.015625)"/>
     </defs>
     <use xlink:href="#DejaVuSans-6f"/>
     <use xlink:href="#DejaVuSans-72" transform="translate(61.181641 0)"/>
     <use xlink:href="#DejaVuSans-62" transform="translate(102.294922 0)"/>
     <use xlink:href="#DejaVuSans-69" transform="translate(165.771484 0)"/>
     <use xlink:href="#DejaVuSans-74" transform="translate(193.554688 0)"/>
     <use xlink:href="#DejaVuSans-20" transform="translate(232.763672 0)"/>
     <use xlink:href="#DejaVuSans-35" transform="translate(264.550781 0)"/>
     <use xlink:href="#DejaVuSans-20" transform="translate(328.173828 0)"/>
     <use xlink:href="#DejaVuSans-6f" transform="translate(359.960938 0)"/>
     <use xlink:href="#DejaVuSans-66" transform="translate(421.142578 0)"/>
     <use xlink:href="#DejaVuSans-20" transform="translate(456.347656 0)"/>
     <use xlink:href="#DejaVuSans-35" transform="translate(488.134766 0)"/>
     <use xlink:href="#DejaVuSans-3b" transform="translate(551.757812 0)"/>
     <use xlink:href="#DejaVuSans-20" transform="translate(585.449219 0)"/>
     <use xlink:href="#DejaVuSans-64" transform="translate(617.236328 0)"/>
     <use xlink:href="#DejaVuSans-65" transform="translate(680.712891 0)"/>
     <use xlink:href="#DejaVuSans-6e" transform="translate(742.236328 0)"/>
     <use xlink:href="#DejaVuSans-73" transform="translate(805.615234 0)"/>
     <use xlink:href="#DejaVuSans-69" transform="translate(857.714844 0)"/>
     <use xlink:href="#DejaVuSans-74" transform="translate(885.498047 0)"/>
     <use xlink:href="#DejaVuSans-79" transform="translate(924.707031 0)"/>
     <use xlink:href="#DejaVuSans-20" transform="translate(983.886719 0)"/>
     <use xlink:href="#DejaVuSans-32" transform="translate(1015.673828 0)"/>
    </g>
   </g>
   <g id="text_2">
    <!-- {5/2} -->
    <g transform="translate(68.756576 65.992174) scale(0.12 -0.12)">
     <defs>
      <path id="DejaVuSans-7b" d="M 3272 -594
L 3272 -1044
L 3078 -1044
Q 2300 -1044 2036 -812
Q 1772 -581 1772 109
L 1772 856
Q 1772 1328 1603 1509
Q 1434 1691 991 1691
L 800 1691
L 800 2138
L 991 2138
Q 1438 2138 1605 2317
Q 1772 2497 1772 2963
L 1772 3713
Q 1772 4403 2036 4633
Q 2300 4863 3078 4863
L 3272 4863
L 3272 4416
L 3059 4416
Q 2619 4416 2484 4278
Q 2350 4141 2350 3700
L 2350 2925
Q 2350 2434 2208 2212
Q 2066 1991 1722 1913
Q 2069 1828 2209 1606
Q 2350 1384 2350 897
L 2350 122
Q 2350 -319 2484 -456
Q 2619 -594 3059 -594
L 3272 -594
z
" transform="scale(0.015625)"/>
      <path id="DejaVuSans-2f" d="M 1625 4666
L 2156 4666
L 531 -594
L 0 -594
L 1625 4666
z
" transform="scale(0.015625)"/>
      <path id="DejaVuSans-7d" d="M 800 -594
L 1019 -594
Q 1456 -594 1589 -459
Q 1722 -325 1722 122
L 1722 897
Q 1722 1384 1862 1606
Q 2003 1828 2350 1913
Q 2003 1991 1862 2212
Q 1722 2434 1722 2925
L 1722 3700
Q 1722 4144 1589 4280
Q 1456 4416 1019 4416
L 800 4416
L 800 4863
L 997 4863
Q 1775 4863 2036 4633
Q 2297 4403 2297 3713
L 2297 2963
Q 2297 2497 2465 2317
Q 2634 2138 3078 2138
L 3272 2138
L 3272 1691
L 3078 1691
Q 2634 1691 2465 1509
Q 2297 1328 2297 856
L 2297 109
Q 2297 -581 2036 -812
Q 1775 -1044 997 -1044
L 800 -1044
L 800 -594
z
" transform="scale(0.015625)"/>
     </defs>
     <use xlink:href="#DejaVuSans-7b"/>
     <use xlink:href="#DejaVuSans-35" transform="translate(63.623047 0)"/>
     <use xlink:href="#DejaVuSans-2f" transform="translate(127.246094 0)"/>
     <use xlink:href="#DejaVuSans-32" transform="translate(160.9375 0)"/>
     <use xlink:href="#DejaVuSans-7d" transform="translate(224.560547 0)"/>
    </g>
   </g>
  </g>
  <g id="axes_2">
   <g id="line2d_6">
    <path d="M 275.282609 86.210634
L 229.582746 196.539863
" clip-path="url(#p928e12721d)" style="fill: none; stroke: #1f2937; stroke-width: 1.2; stroke-linecap: square"/>
   </g>
   <g id="line2d_7">
    <path d="M 229.582746 105.140137
L 275.282609 215.469366
" clip-path="url(#p928e12721d)" style="fill: none; stroke: #1f2937; stroke-width: 1.2; stroke-linecap: square"/>
   </g>
   <g id="line2d_8">
    <path d="M 210.653243 150.84
L 320.982471 196.539863
" clip-path="url(#p928e12721d)" style="fill: none; stroke: #1f2937; stroke-width: 1.2; stroke-linecap: square"/>
   </g>
   <g id="line2d_9">
    <path d="M 229.582746 196.539863
L 339.911974 150.84
" clip-path="url(#p928e12721d)" style="fill: none; stroke: #1f2937; stroke-width: 1.2; stroke-linecap: square"/>
   </g>
   <g id="line2d_10">
    <path d="M 275.282609 215.469366
L 320.982471 105.140137
" clip-path="url(#p928e12721d)" style="fill: none; stroke: #1f2937; stroke-width: 1.2; stroke-linecap: square"/>
   </g>
   <g id="line2d_11">
    <path d="M 320.982471 196.539863
L 275.282609 86.210634
" clip-path="url(#p928e12721d)" style="fill: none; stroke: #1f2937; stroke-width: 1.2; stroke-linecap: square"/>
   </g>
   <g id="line2d_12">
    <path d="M 339.911974 150.84
L 229.582746 105.140137
" clip-path="url(#p928e12721d)" style="fill: none; stroke: #1f2937; stroke-width: 1.2; stroke-linecap: square"/>
   </g>
   <g id="line2d_13">
    <path d="M 320.982471 105.140137
L 210.653243 150.84
" clip-path="url(#p928e12721d)" style="fill: none; stroke: #1f2937; stroke-width: 1.2; stroke-linecap: square"/>
   </g>
   <g id="PathCollection_2">
    <g clip-path="url(#p928e12721d)">
     <use xlink:href="#m4eaceae2c0" x="275.282609" y="86.210634" style="fill: #f77f00; stroke: #222222; stroke-width: 0.35"/>
     <use xlink:href="#m4eaceae2c0" x="229.582746" y="105.140137" style="fill: #f77f00; stroke: #222222; stroke-width: 0.35"/>
     <use xlink:href="#m4eaceae2c0" x="210.653243" y="150.84" style="fill: #f77f00; stroke: #222222; stroke-width: 0.35"/>
     <use xlink:href="#m4eaceae2c0" x="229.582746" y="196.539863" style="fill: #f77f00; stroke: #222222; stroke-width: 0.35"/>
     <use xlink:href="#m4eaceae2c0" x="275.282609" y="215.469366" style="fill: #f77f00; stroke: #222222; stroke-width: 0.35"/>
     <use xlink:href="#m4eaceae2c0" x="320.982471" y="196.539863" style="fill: #f77f00; stroke: #222222; stroke-width: 0.35"/>
     <use xlink:href="#m4eaceae2c0" x="339.911974" y="150.84" style="fill: #f77f00; stroke: #222222; stroke-width: 0.35"/>
     <use xlink:href="#m4eaceae2c0" x="320.982471" y="105.140137" style="fill: #f77f00; stroke: #222222; stroke-width: 0.35"/>
    </g>
   </g>
   <g id="text_3">
    <!-- orbit 8 of 8; density 3 -->
    <g transform="translate(232.111359 225.810064) scale(0.08 -0.08)">
     <defs>
      <path id="DejaVuSans-38" d="M 2034 2216
Q 1584 2216 1326 1975
Q 1069 1734 1069 1313
Q 1069 891 1326 650
Q 1584 409 2034 409
Q 2484 409 2743 651
Q 3003 894 3003 1313
Q 3003 1734 2745 1975
Q 2488 2216 2034 2216
z
M 1403 2484
Q 997 2584 770 2862
Q 544 3141 544 3541
Q 544 4100 942 4425
Q 1341 4750 2034 4750
Q 2731 4750 3128 4425
Q 3525 4100 3525 3541
Q 3525 3141 3298 2862
Q 3072 2584 2669 2484
Q 3125 2378 3379 2068
Q 3634 1759 3634 1313
Q 3634 634 3220 271
Q 2806 -91 2034 -91
Q 1263 -91 848 271
Q 434 634 434 1313
Q 434 1759 690 2068
Q 947 2378 1403 2484
z
M 1172 3481
Q 1172 3119 1398 2916
Q 1625 2713 2034 2713
Q 2441 2713 2670 2916
Q 2900 3119 2900 3481
Q 2900 3844 2670 4047
Q 2441 4250 2034 4250
Q 1625 4250 1398 4047
Q 1172 3844 1172 3481
z
" transform="scale(0.015625)"/>
      <path id="DejaVuSans-33" d="M 2597 2516
Q 3050 2419 3304 2112
Q 3559 1806 3559 1356
Q 3559 666 3084 287
Q 2609 -91 1734 -91
Q 1441 -91 1130 -33
Q 819 25 488 141
L 488 750
Q 750 597 1062 519
Q 1375 441 1716 441
Q 2309 441 2620 675
Q 2931 909 2931 1356
Q 2931 1769 2642 2001
Q 2353 2234 1838 2234
L 1294 2234
L 1294 2753
L 1863 2753
Q 2328 2753 2575 2939
Q 2822 3125 2822 3475
Q 2822 3834 2567 4026
Q 2313 4219 1838 4219
Q 1578 4219 1281 4162
Q 984 4106 628 3988
L 628 4550
Q 988 4650 1302 4700
Q 1616 4750 1894 4750
Q 2613 4750 3031 4423
Q 3450 4097 3450 3541
Q 3450 3153 3228 2886
Q 3006 2619 2597 2516
z
" transform="scale(0.015625)"/>
     </defs>
     <use xlink:href="#DejaVuSans-6f"/>
     <use xlink:href="#DejaVuSans-72" transform="translate(61.181641 0)"/>
     <use xlink:href="#DejaVuSans-62" transform="translate(102.294922 0)"/>
     <use xlink:href="#DejaVuSans-69" transform="translate(165.771484 0)"/>
     <use xlink:href="#DejaVuSans-74" transform="translate(193.554688 0)"/>
     <use xlink:href="#DejaVuSans-20" transform="translate(232.763672 0)"/>
     <use xlink:href="#DejaVuSans-38" transform="translate(264.550781 0)"/>
     <use xlink:href="#DejaVuSans-20" transform="translate(328.173828 0)"/>
     <use xlink:href="#DejaVuSans-6f" transform="translate(359.960938 0)"/>
     <use xlink:href="#DejaVuSans-66" transform="translate(421.142578 0)"/>
     <use xlink:href="#DejaVuSans-20" transform="translate(456.347656 0)"/>
     <use xlink:href="#DejaVuSans-38" transform="translate(488.134766 0)"/>
     <use xlink:href="#DejaVuSans-3b" transform="translate(551.757812 0)"/>
     <use xlink:href="#DejaVuSans-20" transform="translate(585.449219 0)"/>
     <use xlink:href="#DejaVuSans-64" transform="translate(617.236328 0)"/>
     <use xlink:href="#DejaVuSans-65" transform="translate(680.712891 0)"/>
     <use xlink:href="#DejaVuSans-6e" transform="translate(742.236328 0)"/>
     <use xlink:href="#DejaVuSans-73" transform="translate(805.615234 0)"/>
     <use xlink:href="#DejaVuSans-69" transform="translate(857.714844 0)"/>
     <use xlink:href="#DejaVuSans-74" transform="translate(885.498047 0)"/>
     <use xlink:href="#DejaVuSans-79" transform="translate(924.707031 0)"/>
     <use xlink:href="#DejaVuSans-20" transform="translate(983.886719 0)"/>
     <use xlink:href="#DejaVuSans-33" transform="translate(1015.673828 0)"/>
    </g>
   </g>
   <g id="text_4">
    <!-- {8/3} -->
    <g transform="translate(257.991359 65.992174) scale(0.12 -0.12)">
     <use xlink:href="#DejaVuSans-7b"/>
     <use xlink:href="#DejaVuSans-38" transform="translate(63.623047 0)"/>
     <use xlink:href="#DejaVuSans-2f" transform="translate(127.246094 0)"/>
     <use xlink:href="#DejaVuSans-33" transform="translate(160.9375 0)"/>
     <use xlink:href="#DejaVuSans-7d" transform="translate(224.560547 0)"/>
    </g>
   </g>
  </g>
  <g id="axes_3">
   <g id="line2d_14">
    <path d="M 464.517391 86.210634
L 403.051212 170.811572
" clip-path="url(#p0df4e84cf8)" style="fill: none; stroke: #1f2937; stroke-width: 1.2; stroke-linecap: square"/>
   </g>
   <g id="line2d_15">
    <path d="M 426.529203 98.553745
L 426.529203 203.126255
" clip-path="url(#p0df4e84cf8)" style="fill: none; stroke: #1f2937; stroke-width: 1.2; stroke-linecap: square"/>
   </g>
   <g id="line2d_16">
    <path d="M 403.051212 130.868428
L 464.517391 215.469366
" clip-path="url(#p0df4e84cf8)" style="fill: none; stroke: #1f2937; stroke-width: 1.2; stroke-linecap: square"/>
   </g>
   <g id="line2d_17">
    <path d="M 403.051212 170.811572
L 502.505579 203.126255
" clip-path="url(#p0df4e84cf8)" style="fill: none; stroke: #1f2937; stroke-width: 1.2; stroke-linecap: square"/>
   </g>
   <g id="line2d_18">
    <path d="M 426.529203 203.126255
L 525.983571 170.811572
" clip-path="url(#p0df4e84cf8)" style="fill: none; stroke: #1f2937; stroke-width: 1.2; stroke-linecap: square"/>
   </g>
   <g id="line2d_19">
    <path d="M 464.517391 215.469366
L 525.983571 130.868428
" clip-path="url(#p0df4e84cf8)" style="fill: none; stroke: #1f2937; stroke-width: 1.2; stroke-linecap: square"/>
   </g>
   <g id="line2d_20">
    <path d="M 502.505579 203.126255
L 502.505579 98.553745
" clip-path="url(#p0df4e84cf8)" style="fill: none; stroke: #1f2937; stroke-width: 1.2; stroke-linecap: square"/>
   </g>
   <g id="line2d_21">
    <path d="M 525.983571 170.811572
L 464.517391 86.210634
" clip-path="url(#p0df4e84cf8)" style="fill: none; stroke: #1f2937; stroke-width: 1.2; stroke-linecap: square"/>
   </g>
   <g id="line2d_22">
    <path d="M 525.983571 130.868428
L 426.529203 98.553745
" clip-path="url(#p0df4e84cf8)" style="fill: none; stroke: #1f2937; stroke-width: 1.2; stroke-linecap: square"/>
   </g>
   <g id="line2d_23">
    <path d="M 502.505579 98.553745
L 403.051212 130.868428
" clip-path="url(#p0df4e84cf8)" style="fill: none; stroke: #1f2937; stroke-width: 1.2; stroke-linecap: square"/>
   </g>
   <g id="PathCollection_3">
    <g clip-path="url(#p0df4e84cf8)">
     <use xlink:href="#m4eaceae2c0" x="464.517391" y="86.210634" style="fill: #f77f00; stroke: #222222; stroke-width: 0.35"/>
     <use xlink:href="#m4eaceae2c0" x="426.529203" y="98.553745" style="fill: #f77f00; stroke: #222222; stroke-width: 0.35"/>
     <use xlink:href="#m4eaceae2c0" x="403.051212" y="130.868428" style="fill: #f77f00; stroke: #222222; stroke-width: 0.35"/>
     <use xlink:href="#m4eaceae2c0" x="403.051212" y="170.811572" style="fill: #f77f00; stroke: #222222; stroke-width: 0.35"/>
     <use xlink:href="#m4eaceae2c0" x="426.529203" y="203.126255" style="fill: #f77f00; stroke: #222222; stroke-width: 0.35"/>
     <use xlink:href="#m4eaceae2c0" x="464.517391" y="215.469366" style="fill: #f77f00; stroke: #222222; stroke-width: 0.35"/>
     <use xlink:href="#m4eaceae2c0" x="502.505579" y="203.126255" style="fill: #f77f00; stroke: #222222; stroke-width: 0.35"/>
     <use xlink:href="#m4eaceae2c0" x="525.983571" y="170.811572" style="fill: #f77f00; stroke: #222222; stroke-width: 0.35"/>
     <use xlink:href="#m4eaceae2c0" x="525.983571" y="130.868428" style="fill: #f77f00; stroke: #222222; stroke-width: 0.35"/>
     <use xlink:href="#m4eaceae2c0" x="502.505579" y="98.553745" style="fill: #f77f00; stroke: #222222; stroke-width: 0.35"/>
    </g>
   </g>
   <g id="text_5">
    <!-- orbit 10 of 10; density 3 -->
    <g transform="translate(416.256141 225.810064) scale(0.08 -0.08)">
     <defs>
      <path id="DejaVuSans-31" d="M 794 531
L 1825 531
L 1825 4091
L 703 3866
L 703 4441
L 1819 4666
L 2450 4666
L 2450 531
L 3481 531
L 3481 0
L 794 0
L 794 531
z
" transform="scale(0.015625)"/>
      <path id="DejaVuSans-30" d="M 2034 4250
Q 1547 4250 1301 3770
Q 1056 3291 1056 2328
Q 1056 1369 1301 889
Q 1547 409 2034 409
Q 2525 409 2770 889
Q 3016 1369 3016 2328
Q 3016 3291 2770 3770
Q 2525 4250 2034 4250
z
M 2034 4750
Q 2819 4750 3233 4129
Q 3647 3509 3647 2328
Q 3647 1150 3233 529
Q 2819 -91 2034 -91
Q 1250 -91 836 529
Q 422 1150 422 2328
Q 422 3509 836 4129
Q 1250 4750 2034 4750
z
" transform="scale(0.015625)"/>
     </defs>
     <use xlink:href="#DejaVuSans-6f"/>
     <use xlink:href="#DejaVuSans-72" transform="translate(61.181641 0)"/>
     <use xlink:href="#DejaVuSans-62" transform="translate(102.294922 0)"/>
     <use xlink:href="#DejaVuSans-69" transform="translate(165.771484 0)"/>
     <use xlink:href="#DejaVuSans-74" transform="translate(193.554688 0)"/>
     <use xlink:href="#DejaVuSans-20" transform="translate(232.763672 0)"/>
     <use xlink:href="#DejaVuSans-31" transform="translate(264.550781 0)"/>
     <use xlink:href="#DejaVuSans-30" transform="translate(328.173828 0)"/>
     <use xlink:href="#DejaVuSans-20" transform="translate(391.796875 0)"/>
     <use xlink:href="#DejaVuSans-6f" transform="translate(423.583984 0)"/>
     <use xlink:href="#DejaVuSans-66" transform="translate(484.765625 0)"/>
     <use xlink:href="#DejaVuSans-20" transform="translate(519.970703 0)"/>
     <use xlink:href="#DejaVuSans-31" transform="translate(551.757812 0)"/>
     <use xlink:href="#DejaVuSans-30" transform="translate(615.380859 0)"/>
     <use xlink:href="#DejaVuSans-3b" transform="translate(679.003906 0)"/>
     <use xlink:href="#DejaVuSans-20" transform="translate(712.695312 0)"/>
     <use xlink:href="#DejaVuSans-64" transform="translate(744.482422 0)"/>
     <use xlink:href="#DejaVuSans-65" transform="translate(807.958984 0)"/>
     <use xlink:href="#DejaVuSans-6e" transform="translate(869.482422 0)"/>
     <use xlink:href="#DejaVuSans-73" transform="translate(932.861328 0)"/>
     <use xlink:href="#DejaVuSans-69" transform="translate(984.960938 0)"/>
     <use xlink:href="#DejaVuSans-74" transform="translate(1012.744141 0)"/>
     <use xlink:href="#DejaVuSans-79" transform="translate(1051.953125 0)"/>
     <use xlink:href="#DejaVuSans-20" transform="translate(1111.132812 0)"/>
     <use xlink:href="#DejaVuSans-33" transform="translate(1142.919922 0)"/>
    </g>
   </g>
   <g id="text_6">
    <!-- {10/3} -->
    <g transform="translate(443.408641 65.992174) scale(0.12 -0.12)">
     <use xlink:href="#DejaVuSans-7b"/>
     <use xlink:href="#DejaVuSans-31" transform="translate(63.623047 0)"/>
     <use xlink:href="#DejaVuSans-30" transform="translate(127.246094 0)"/>
     <use xlink:href="#DejaVuSans-2f" transform="translate(190.869141 0)"/>
     <use xlink:href="#DejaVuSans-33" transform="translate(224.560547 0)"/>
     <use xlink:href="#DejaVuSans-7d" transform="translate(288.183594 0)"/>
    </g>
   </g>
  </g>
  <g id="axes_4">
   <g id="line2d_24">
    <path d="M 653.752174 86.210634
L 621.437491 206.810672
" clip-path="url(#pee6f11abc8)" style="fill: none; stroke: #1f2937; stroke-width: 1.2; stroke-linecap: square"/>
   </g>
   <g id="line2d_25">
    <path d="M 621.437491 94.869328
L 653.752174 215.469366
" clip-path="url(#pee6f11abc8)" style="fill: none; stroke: #1f2937; stroke-width: 1.2; stroke-linecap: square"/>
   </g>
   <g id="line2d_26">
    <path d="M 597.781501 118.525317
L 686.066857 206.810672
" clip-path="url(#pee6f11abc8)" style="fill: none; stroke: #1f2937; stroke-width: 1.2; stroke-linecap: square"/>
   </g>
   <g id="line2d_27">
    <path d="M 589.122808 150.84
L 709.722846 183.154683
" clip-path="url(#pee6f11abc8)" style="fill: none; stroke: #1f2937; stroke-width: 1.2; stroke-linecap: square"/>
   </g>
   <g id="line2d_28">
    <path d="M 597.781501 183.154683
L 718.38154 150.84
" clip-path="url(#pee6f11abc8)" style="fill: none; stroke: #1f2937; stroke-width: 1.2; stroke-linecap: square"/>
   </g>
   <g id="line2d_29">
    <path d="M 621.437491 206.810672
L 709.722846 118.525317
" clip-path="url(#pee6f11abc8)" style="fill: none; stroke: #1f2937; stroke-width: 1.2; stroke-linecap: square"/>
   </g>
   <g id="line2d_30">
    <path d="M 653.752174 215.469366
L 686.066857 94.869328
" clip-path="url(#pee6f11abc8)" style="fill: none; stroke: #1f2937; stroke-width: 1.2; stroke-linecap: square"/>
   </g>
   <g id="line2d_31">
    <path d="M 686.066857 206.810672
L 653.752174 86.210634
" clip-path="url(#pee6f11abc8)" style="fill: none; stroke: #1f2937; stroke-width: 1.2; stroke-linecap: square"/>
   </g>
   <g id="line2d_32">
    <path d="M 709.722846 183.154683
L 621.437491 94.869328
" clip-path="url(#pee6f11abc8)" style="fill: none; stroke: #1f2937; stroke-width: 1.2; stroke-linecap: square"/>
   </g>
   <g id="line2d_33">
    <path d="M 718.38154 150.84
L 597.781501 118.525317
" clip-path="url(#pee6f11abc8)" style="fill: none; stroke: #1f2937; stroke-width: 1.2; stroke-linecap: square"/>
   </g>
   <g id="line2d_34">
    <path d="M 709.722846 118.525317
L 589.122808 150.84
" clip-path="url(#pee6f11abc8)" style="fill: none; stroke: #1f2937; stroke-width: 1.2; stroke-linecap: square"/>
   </g>
   <g id="line2d_35">
    <path d="M 686.066857 94.869328
L 597.781501 183.154683
" clip-path="url(#pee6f11abc8)" style="fill: none; stroke: #1f2937; stroke-width: 1.2; stroke-linecap: square"/>
   </g>
   <g id="PathCollection_4">
    <g clip-path="url(#pee6f11abc8)">
     <use xlink:href="#m4eaceae2c0" x="653.752174" y="86.210634" style="fill: #f77f00; stroke: #222222; stroke-width: 0.35"/>
     <use xlink:href="#m4eaceae2c0" x="621.437491" y="94.869328" style="fill: #f77f00; stroke: #222222; stroke-width: 0.35"/>
     <use xlink:href="#m4eaceae2c0" x="597.781501" y="118.525317" style="fill: #f77f00; stroke: #222222; stroke-width: 0.35"/>
     <use xlink:href="#m4eaceae2c0" x="589.122808" y="150.84" style="fill: #f77f00; stroke: #222222; stroke-width: 0.35"/>
     <use xlink:href="#m4eaceae2c0" x="597.781501" y="183.154683" style="fill: #f77f00; stroke: #222222; stroke-width: 0.35"/>
     <use xlink:href="#m4eaceae2c0" x="621.437491" y="206.810672" style="fill: #f77f00; stroke: #222222; stroke-width: 0.35"/>
     <use xlink:href="#m4eaceae2c0" x="653.752174" y="215.469366" style="fill: #f77f00; stroke: #222222; stroke-width: 0.35"/>
     <use xlink:href="#m4eaceae2c0" x="686.066857" y="206.810672" style="fill: #f77f00; stroke: #222222; stroke-width: 0.35"/>
     <use xlink:href="#m4eaceae2c0" x="709.722846" y="183.154683" style="fill: #f77f00; stroke: #222222; stroke-width: 0.35"/>
     <use xlink:href="#m4eaceae2c0" x="718.38154" y="150.84" style="fill: #f77f00; stroke: #222222; stroke-width: 0.35"/>
     <use xlink:href="#m4eaceae2c0" x="709.722846" y="118.525317" style="fill: #f77f00; stroke: #222222; stroke-width: 0.35"/>
     <use xlink:href="#m4eaceae2c0" x="686.066857" y="94.869328" style="fill: #f77f00; stroke: #222222; stroke-width: 0.35"/>
    </g>
   </g>
   <g id="text_7">
    <!-- orbit 12 of 12; density 5 -->
    <g transform="translate(605.490924 225.810064) scale(0.08 -0.08)">
     <use xlink:href="#DejaVuSans-6f"/>
     <use xlink:href="#DejaVuSans-72" transform="translate(61.181641 0)"/>
     <use xlink:href="#DejaVuSans-62" transform="translate(102.294922 0)"/>
     <use xlink:href="#DejaVuSans-69" transform="translate(165.771484 0)"/>
     <use xlink:href="#DejaVuSans-74" transform="translate(193.554688 0)"/>
     <use xlink:href="#DejaVuSans-20" transform="translate(232.763672 0)"/>
     <use xlink:href="#DejaVuSans-31" transform="translate(264.550781 0)"/>
     <use xlink:href="#DejaVuSans-32" transform="translate(328.173828 0)"/>
     <use xlink:href="#DejaVuSans-20" transform="translate(391.796875 0)"/>
     <use xlink:href="#DejaVuSans-6f" transform="translate(423.583984 0)"/>
     <use xlink:href="#DejaVuSans-66" transform="translate(484.765625 0)"/>
     <use xlink:href="#DejaVuSans-20" transform="translate(519.970703 0)"/>
     <use xlink:href="#DejaVuSans-31" transform="translate(551.757812 0)"/>
     <use xlink:href="#DejaVuSans-32" transform="translate(615.380859 0)"/>
     <use xlink:href="#DejaVuSans-3b" transform="translate(679.003906 0)"/>
     <use xlink:href="#DejaVuSans-20" transform="translate(712.695312 0)"/>
     <use xlink:href="#DejaVuSans-64" transform="translate(744.482422 0)"/>
     <use xlink:href="#DejaVuSans-65" transform="translate(807.958984 0)"/>
     <use xlink:href="#DejaVuSans-6e" transform="translate(869.482422 0)"/>
     <use xlink:href="#DejaVuSans-73" transform="translate(932.861328 0)"/>
     <use xlink:href="#DejaVuSans-69" transform="translate(984.960938 0)"/>
     <use xlink:href="#DejaVuSans-74" transform="translate(1012.744141 0)"/>
     <use xlink:href="#DejaVuSans-79" transform="translate(1051.953125 0)"/>
     <use xlink:href="#DejaVuSans-20" transform="translate(1111.132812 0)"/>
     <use xlink:href="#DejaVuSans-35" transform="translate(1142.919922 0)"/>
    </g>
   </g>
   <g id="text_8">
    <!-- {12/5} -->
    <g transform="translate(632.643424 65.992174) scale(0.12 -0.12)">
     <use xlink:href="#DejaVuSans-7b"/>
     <use xlink:href="#DejaVuSans-31" transform="translate(63.623047 0)"/>
     <use xlink:href="#DejaVuSans-32" transform="translate(127.246094 0)"/>
     <use xlink:href="#DejaVuSans-2f" transform="translate(190.869141 0)"/>
     <use xlink:href="#DejaVuSans-35" transform="translate(224.560547 0)"/>
     <use xlink:href="#DejaVuSans-7d" transform="translate(288.183594 0)"/>
    </g>
   </g>
  </g>
  <g id="text_9">
   <!-- Star polygons as step-q cyclic orbits -->
   <g transform="translate(249.625313 16.318125) scale(0.12 -0.12)">
    <defs>
     <path id="DejaVuSans-53" d="M 3425 4513
L 3425 3897
Q 3066 4069 2747 4153
Q 2428 4238 2131 4238
Q 1616 4238 1336 4038
Q 1056 3838 1056 3469
Q 1056 3159 1242 3001
Q 1428 2844 1947 2747
L 2328 2669
Q 3034 2534 3370 2195
Q 3706 1856 3706 1288
Q 3706 609 3251 259
Q 2797 -91 1919 -91
Q 1588 -91 1214 -16
Q 841 59 441 206
L 441 856
Q 825 641 1194 531
Q 1563 422 1919 422
Q 2459 422 2753 634
Q 3047 847 3047 1241
Q 3047 1584 2836 1778
Q 2625 1972 2144 2069
L 1759 2144
Q 1053 2284 737 2584
Q 422 2884 422 3419
Q 422 4038 858 4394
Q 1294 4750 2059 4750
Q 2388 4750 2728 4690
Q 3069 4631 3425 4513
z
" transform="scale(0.015625)"/>
     <path id="DejaVuSans-61" d="M 2194 1759
Q 1497 1759 1228 1600
Q 959 1441 959 1056
Q 959 750 1161 570
Q 1363 391 1709 391
Q 2188 391 2477 730
Q 2766 1069 2766 1631
L 2766 1759
L 2194 1759
z
M 3341 1997
L 3341 0
L 2766 0
L 2766 531
Q 2569 213 2275 61
Q 1981 -91 1556 -91
Q 1019 -91 701 211
Q 384 513 384 1019
Q 384 1609 779 1909
Q 1175 2209 1959 2209
L 2766 2209
L 2766 2266
Q 2766 2663 2505 2880
Q 2244 3097 1772 3097
Q 1472 3097 1187 3025
Q 903 2953 641 2809
L 641 3341
Q 956 3463 1253 3523
Q 1550 3584 1831 3584
Q 2591 3584 2966 3190
Q 3341 2797 3341 1997
z
" transform="scale(0.015625)"/>
     <path id="DejaVuSans-70" d="M 1159 525
L 1159 -1331
L 581 -1331
L 581 3500
L 1159 3500
L 1159 2969
Q 1341 3281 1617 3432
Q 1894 3584 2278 3584
Q 2916 3584 3314 3078
Q 3713 2572 3713 1747
Q 3713 922 3314 415
Q 2916 -91 2278 -91
Q 1894 -91 1617 61
Q 1341 213 1159 525
z
M 3116 1747
Q 3116 2381 2855 2742
Q 2594 3103 2138 3103
Q 1681 3103 1420 2742
Q 1159 2381 1159 1747
Q 1159 1113 1420 752
Q 1681 391 2138 391
Q 2594 391 2855 752
Q 3116 1113 3116 1747
z
" transform="scale(0.015625)"/>
     <path id="DejaVuSans-6c" d="M 603 4863
L 1178 4863
L 1178 0
L 603 0
L 603 4863
z
" transform="scale(0.015625)"/>
     <path id="DejaVuSans-67" d="M 2906 1791
Q 2906 2416 2648 2759
Q 2391 3103 1925 3103
Q 1463 3103 1205 2759
Q 947 2416 947 1791
Q 947 1169 1205 825
Q 1463 481 1925 481
Q 2391 481 2648 825
Q 2906 1169 2906 1791
z
M 3481 434
Q 3481 -459 3084 -895
Q 2688 -1331 1869 -1331
Q 1566 -1331 1297 -1286
Q 1028 -1241 775 -1147
L 775 -588
Q 1028 -725 1275 -790
Q 1522 -856 1778 -856
Q 2344 -856 2625 -561
Q 2906 -266 2906 331
L 2906 616
Q 2728 306 2450 153
Q 2172 0 1784 0
Q 1141 0 747 490
Q 353 981 353 1791
Q 353 2603 747 3093
Q 1141 3584 1784 3584
Q 2172 3584 2450 3431
Q 2728 3278 2906 2969
L 2906 3500
L 3481 3500
L 3481 434
z
" transform="scale(0.015625)"/>
     <path id="DejaVuSans-2d" d="M 313 2009
L 1997 2009
L 1997 1497
L 313 1497
L 313 2009
z
" transform="scale(0.015625)"/>
     <path id="DejaVuSans-71" d="M 947 1747
Q 947 1113 1208 752
Q 1469 391 1925 391
Q 2381 391 2643 752
Q 2906 1113 2906 1747
Q 2906 2381 2643 2742
Q 2381 3103 1925 3103
Q 1469 3103 1208 2742
Q 947 2381 947 1747
z
M 2906 525
Q 2725 213 2448 61
Q 2172 -91 1784 -91
Q 1150 -91 751 415
Q 353 922 353 1747
Q 353 2572 751 3078
Q 1150 3584 1784 3584
Q 2172 3584 2448 3432
Q 2725 3281 2906 2969
L 2906 3500
L 3481 3500
L 3481 -1331
L 2906 -1331
L 2906 525
z
" transform="scale(0.015625)"/>
     <path id="DejaVuSans-63" d="M 3122 3366
L 3122 2828
Q 2878 2963 2633 3030
Q 2388 3097 2138 3097
Q 1578 3097 1268 2742
Q 959 2388 959 1747
Q 959 1106 1268 751
Q 1578 397 2138 397
Q 2388 397 2633 464
Q 2878 531 3122 666
L 3122 134
Q 2881 22 2623 -34
Q 2366 -91 2075 -91
Q 1284 -91 818 406
Q 353 903 353 1747
Q 353 2603 823 3093
Q 1294 3584 2113 3584
Q 2378 3584 2631 3529
Q 2884 3475 3122 3366
z
" transform="scale(0.015625)"/>
    </defs>
    <use xlink:href="#DejaVuSans-53"/>
    <use xlink:href="#DejaVuSans-74" transform="translate(63.476562 0)"/>
    <use xlink:href="#DejaVuSans-61" transform="translate(102.685547 0)"/>
    <use xlink:href="#DejaVuSans-72" transform="translate(163.964844 0)"/>
    <use xlink:href="#DejaVuSans-20" transform="translate(205.078125 0)"/>
    <use xlink:href="#DejaVuSans-70" transform="translate(236.865234 0)"/>
    <use xlink:href="#DejaVuSans-6f" transform="translate(300.341797 0)"/>
    <use xlink:href="#DejaVuSans-6c" transform="translate(361.523438 0)"/>
    <use xlink:href="#DejaVuSans-79" transform="translate(389.306641 0)"/>
    <use xlink:href="#DejaVuSans-67" transform="translate(448.486328 0)"/>
    <use xlink:href="#DejaVuSans-6f" transform="translate(511.962891 0)"/>
    <use xlink:href="#DejaVuSans-6e" transform="translate(573.144531 0)"/>
    <use xlink:href="#DejaVuSans-73" transform="translate(636.523438 0)"/>
    <use xlink:href="#DejaVuSans-20" transform="translate(688.623047 0)"/>
    <use xlink:href="#DejaVuSans-61" transform="translate(720.410156 0)"/>
    <use xlink:href="#DejaVuSans-73" transform="translate(781.689453 0)"/>
    <use xlink:href="#DejaVuSans-20" transform="translate(833.789062 0)"/>
    <use xlink:href="#DejaVuSans-73" transform="translate(865.576172 0)"/>
    <use xlink:href="#DejaVuSans-74" transform="translate(917.675781 0)"/>
    <use xlink:href="#DejaVuSans-65" transform="translate(956.884766 0)"/>
    <use xlink:href="#DejaVuSans-70" transform="translate(1018.408203 0)"/>
    <use xlink:href="#DejaVuSans-2d" transform="translate(1081.884766 0)"/>
    <use xlink:href="#DejaVuSans-71" transform="translate(1117.96875 0)"/>
    <use xlink:href="#DejaVuSans-20" transform="translate(1181.445312 0)"/>
    <use xlink:href="#DejaVuSans-63" transform="translate(1213.232422 0)"/>
    <use xlink:href="#DejaVuSans-79" transform="translate(1268.212891 0)"/>
    <use xlink:href="#DejaVuSans-63" transform="translate(1327.392578 0)"/>
    <use xlink:href="#DejaVuSans-6c" transform="translate(1382.373047 0)"/>
    <use xlink:href="#DejaVuSans-69" transform="translate(1410.15625 0)"/>
    <use xlink:href="#DejaVuSans-63" transform="translate(1437.939453 0)"/>
    <use xlink:href="#DejaVuSans-20" transform="translate(1492.919922 0)"/>
    <use xlink:href="#DejaVuSans-6f" transform="translate(1524.707031 0)"/>
    <use xlink:href="#DejaVuSans-72" transform="translate(1585.888672 0)"/>
    <use xlink:href="#DejaVuSans-62" transform="translate(1627.001953 0)"/>
    <use xlink:href="#DejaVuSans-69" transform="translate(1690.478516 0)"/>
    <use xlink:href="#DejaVuSans-74" transform="translate(1718.261719 0)"/>
    <use xlink:href="#DejaVuSans-73" transform="translate(1757.470703 0)"/>
   </g>
  </g>
 </g>
 <defs>
  <clipPath id="pb976c8cdf6">
   <rect x="7.2" y="71.992174" width="157.695652" height="157.695652"/>
  </clipPath>
  <clipPath id="p928e12721d">
   <rect x="196.434783" y="71.992174" width="157.695652" height="157.695652"/>
  </clipPath>
  <clipPath id="p0df4e84cf8">
   <rect x="385.669565" y="71.992174" width="157.695652" height="157.695652"/>
  </clipPath>
  <clipPath id="pee6f11abc8">
   <rect x="574.904348" y="71.992174" width="157.695652" height="157.695652"/>
  </clipPath>
 </defs>
</svg>
