<?xml version="1.0" encoding="utf-8" standalone="no"?>
<!DOCTYPE svg PUBLIC "-//W3C//DTD SVG 1.1//EN"
  "http://www.w3.org/Graphics/SVG/1.1/DTD/svg11.dtd">
<svg xmlns:xlink="http://www.w3.org/1999/xlink" width="493.633125pt" height="302.842562pt" viewBox="0 0 493.633125 302.842562" xmlns="http://www.w3.org/2000/svg" version="1.1">
 <metadata>
  <rdf:RDF xmlns:dc="http://purl.org/dc/elements/1.1/" xmlns:cc="http://creativecommons.org/ns#" xmlns:rdf="http://www.w3.org/1999/02/22-rdf-syntax-ns#">
   <cc:Work>
    <dc:type rdf:resource="http://purl.org/dc/dcmitype/StillImage"/>
    <dc:date>2026-05-12T07:24:06.139758</dc:date>
    <dc:format>image/svg+xml</dc:format>
    <dc:creator>
     <cc:Agent>
      <dc:title>Matplotlib v3.10.9, https://matplotlib.org/</dc:title>
     </cc:Agent>
    </dc:creator>
   </cc:Work>
  </rdf:RDF>
 </metadata>
 <defs>
  <style type="text/css">*{stroke-linejoin: round; stroke-linecap: butt}</style>
 </defs>
 <g id="figure_1">
  <g id="patch_1">
   <path d="M 0 302.842562
L 493.633125 302.842562
L 493.633125 0
L 0 0
z
" style="fill: #ffffff"/>
  </g>
  <g id="axes_1">
   <g id="patch_2">
    <path d="M 51.193125 266.254125
L 486.433125 266.254125
L 486.433125 22.318125
L 51.193125 22.318125
z
" style="fill: #ffffff"/>
   </g>
   <g id="matplotlib.axis_1">
    <g id="xtick_1">
     <g id="line2d_1">
      <path d="M 80.397541 266.254125
L 80.397541 22.318125
" clip-path="url(#pe6a14d93db)" style="fill: none; stroke: #e7eaef; stroke-width: 0.7; stroke-linecap: square"/>
     </g>
     <g id="line2d_2">
      <defs>
       <path id="mc367581acb" d="M 0 0
L 0 3.5
" style="stroke: #000000; stroke-width: 0.8"/>
      </defs>
      <g>
       <use xlink:href="#mc367581acb" x="80.397541" y="266.254125" style="stroke: #000000; stroke-width: 0.8"/>
      </g>
     </g>
     <g id="text_1">
      <!-- −1.0 -->
      <g transform="translate(68.256134 280.852562) scale(0.1 -0.1)">
       <defs>
        <path id="DejaVuSans-2212" d="M 678 2272
L 4684 2272
L 4684 1741
L 678 1741
L 678 2272
z
" transform="scale(0.015625)"/>
        <path id="DejaVuSans-31" d="M 794 531
L 1825 531
L 1825 4091
L 703 3866
L 703 4441
L 1819 4666
L 2450 4666
L 2450 531
L 3481 531
L 3481 0
L 794 0
L 794 531
z
" transform="scale(0.015625)"/>
        <path id="DejaVuSans-2e" d="M 684 794
L 1344 794
L 1344 0
L 684 0
L 684 794
z
" transform="scale(0.015625)"/>
        <path id="DejaVuSans-30" d="M 2034 4250
Q 1547 4250 1301 3770
Q 1056 3291 1056 2328
Q 1056 1369 1301 889
Q 1547 409 2034 409
Q 2525 409 2770 889
Q 3016 1369 3016 2328
Q 3016 3291 2770 3770
Q 2525 4250 2034 4250
z
M 2034 4750
Q 2819 4750 3233 4129
Q 3647 3509 3647 2328
Q 3647 1150 3233 529
Q 2819 -91 2034 -91
Q 1250 -91 836 529
Q 422 1150 422 2328
Q 422 3509 836 4129
Q 1250 4750 2034 4750
z
" transform="scale(0.015625)"/>
       </defs>
       <use xlink:href="#DejaVuSans-2212"/>
       <use xlink:href="#DejaVuSans-31" transform="translate(83.789062 0)"/>
       <use xlink:href="#DejaVuSans-2e" transform="translate(147.412109 0)"/>
       <use xlink:href="#DejaVuSans-30" transform="translate(179.199219 0)"/>
      </g>
     </g>
    </g>
    <g id="xtick_2">
     <g id="line2d_3">
      <path d="M 174.605333 266.254125
L 174.605333 22.318125
" clip-path="url(#pe6a14d93db)" style="fill: none; stroke: #e7eaef; stroke-width: 0.7; stroke-linecap: square"/>
     </g>
     <g id="line2d_4">
      <g>
       <use xlink:href="#mc367581acb" x="174.605333" y="266.254125" style="stroke: #000000; stroke-width: 0.8"/>
      </g>
     </g>
     <g id="text_2">
      <!-- −0.5 -->
      <g transform="translate(162.463927 280.852562) scale(0.1 -0.1)">
       <defs>
        <path id="DejaVuSans-35" d="M 691 4666
L 3169 4666
L 3169 4134
L 1269 4134
L 1269 2991
Q 1406 3038 1543 3061
Q 1681 3084 1819 3084
Q 2600 3084 3056 2656
Q 3513 2228 3513 1497
Q 3513 744 3044 326
Q 2575 -91 1722 -91
Q 1428 -91 1123 -41
Q 819 9 494 109
L 494 744
Q 775 591 1075 516
Q 1375 441 1709 441
Q 2250 441 2565 725
Q 2881 1009 2881 1497
Q 2881 1984 2565 2268
Q 2250 2553 1709 2553
Q 1456 2553 1204 2497
Q 953 2441 691 2322
L 691 4666
z
" transform="scale(0.015625)"/>
       </defs>
       <use xlink:href="#DejaVuSans-2212"/>
       <use xlink:href="#DejaVuSans-30" transform="translate(83.789062 0)"/>
       <use xlink:href="#DejaVuSans-2e" transform="translate(147.412109 0)"/>
       <use xlink:href="#DejaVuSans-35" transform="translate(179.199219 0)"/>
      </g>
     </g>
    </g>
    <g id="xtick_3">
     <g id="line2d_5">
      <path d="M 268.813125 266.254125
L 268.813125 22.318125
" clip-path="url(#pe6a14d93db)" style="fill: none; stroke: #e7eaef; stroke-width: 0.7; stroke-linecap: square"/>
     </g>
     <g id="line2d_6">
      <g>
       <use xlink:href="#mc367581acb" x="268.813125" y="266.254125" style="stroke: #000000; stroke-width: 0.8"/>
      </g>
     </g>
     <g id="text_3">
      <!-- 0.0 -->
      <g transform="translate(260.861562 280.852562) scale(0.1 -0.1)">
       <use xlink:href="#DejaVuSans-30"/>
       <use xlink:href="#DejaVuSans-2e" transform="translate(63.623047 0)"/>
       <use xlink:href="#DejaVuSans-30" transform="translate(95.410156 0)"/>
      </g>
     </g>
    </g>
    <g id="xtick_4">
     <g id="line2d_7">
      <path d="M 363.020917 266.254125
L 363.020917 22.318125
" clip-path="url(#pe6a14d93db)" style="fill: none; stroke: #e7eaef; stroke-width: 0.7; stroke-linecap: square"/>
     </g>
     <g id="line2d_8">
      <g>
       <use xlink:href="#mc367581acb" x="363.020917" y="266.254125" style="stroke: #000000; stroke-width: 0.8"/>
      </g>
     </g>
     <g id="text_4">
      <!-- 0.5 -->
      <g transform="translate(355.069355 280.852562) scale(0.1 -0.1)">
       <use xlink:href="#DejaVuSans-30"/>
       <use xlink:href="#DejaVuSans-2e" transform="translate(63.623047 0)"/>
       <use xlink:href="#DejaVuSans-35" transform="translate(95.410156 0)"/>
      </g>
     </g>
    </g>
    <g id="xtick_5">
     <g id="line2d_9">
      <path d="M 457.228709 266.254125
L 457.228709 22.318125
" clip-path="url(#pe6a14d93db)" style="fill: none; stroke: #e7eaef; stroke-width: 0.7; stroke-linecap: square"/>
     </g>
     <g id="line2d_10">
      <g>
       <use xlink:href="#mc367581acb" x="457.228709" y="266.254125" style="stroke: #000000; stroke-width: 0.8"/>
      </g>
     </g>
     <g id="text_5">
      <!-- 1.0 -->
      <g transform="translate(449.277147 280.852562) scale(0.1 -0.1)">
       <use xlink:href="#DejaVuSans-31"/>
       <use xlink:href="#DejaVuSans-2e" transform="translate(63.623047 0)"/>
       <use xlink:href="#DejaVuSans-30" transform="translate(95.410156 0)"/>
      </g>
     </g>
    </g>
    <g id="text_6">
     <!-- candidate $x = \sin(\theta/3)$ -->
     <g transform="translate(219.763125 293.770844) scale(0.09 -0.09)">
      <defs>
       <path id="DejaVuSans-63" d="M 3122 3366
L 3122 2828
Q 2878 2963 2633 3030
Q 2388 3097 2138 3097
Q 1578 3097 1268 2742
Q 959 2388 959 1747
Q 959 1106 1268 751
Q 1578 397 2138 397
Q 2388 397 2633 464
Q 2878 531 3122 666
L 3122 134
Q 2881 22 2623 -34
Q 2366 -91 2075 -91
Q 1284 -91 818 406
Q 353 903 353 1747
Q 353 2603 823 3093
Q 1294 3584 2113 3584
Q 2378 3584 2631 3529
Q 2884 3475 3122 3366
z
" transform="scale(0.015625)"/>
       <path id="DejaVuSans-61" d="M 2194 1759
Q 1497 1759 1228 1600
Q 959 1441 959 1056
Q 959 750 1161 570
Q 1363 391 1709 391
Q 2188 391 2477 730
Q 2766 1069 2766 1631
L 2766 1759
L 2194 1759
z
M 3341 1997
L 3341 0
L 2766 0
L 2766 531
Q 2569 213 2275 61
Q 1981 -91 1556 -91
Q 1019 -91 701 211
Q 384 513 384 1019
Q 384 1609 779 1909
Q 1175 2209 1959 2209
L 2766 2209
L 2766 2266
Q 2766 2663 2505 2880
Q 2244 3097 1772 3097
Q 1472 3097 1187 3025
Q 903 2953 641 2809
L 641 3341
Q 956 3463 1253 3523
Q 1550 3584 1831 3584
Q 2591 3584 2966 3190
Q 3341 2797 3341 1997
z
" transform="scale(0.015625)"/>
       <path id="DejaVuSans-6e" d="M 3513 2113
L 3513 0
L 2938 0
L 2938 2094
Q 2938 2591 2744 2837
Q 2550 3084 2163 3084
Q 1697 3084 1428 2787
Q 1159 2491 1159 1978
L 1159 0
L 581 0
L 581 3500
L 1159 3500
L 1159 2956
Q 1366 3272 1645 3428
Q 1925 3584 2291 3584
Q 2894 3584 3203 3211
Q 3513 2838 3513 2113
z
" transform="scale(0.015625)"/>
       <path id="DejaVuSans-64" d="M 2906 2969
L 2906 4863
L 3481 4863
L 3481 0
L 2906 0
L 2906 525
Q 2725 213 2448 61
Q 2172 -91 1784 -91
Q 1150 -91 751 415
Q 353 922 353 1747
Q 353 2572 751 3078
Q 1150 3584 1784 3584
Q 2172 3584 2448 3432
Q 2725 3281 2906 2969
z
M 947 1747
Q 947 1113 1208 752
Q 1469 391 1925 391
Q 2381 391 2643 752
Q 2906 1113 2906 1747
Q 2906 2381 2643 2742
Q 2381 3103 1925 3103
Q 1469 3103 1208 2742
Q 947 2381 947 1747
z
" transform="scale(0.015625)"/>
       <path id="DejaVuSans-69" d="M 603 3500
L 1178 3500
L 1178 0
L 603 0
L 603 3500
z
M 603 4863
L 1178 4863
L 1178 4134
L 603 4134
L 603 4863
z
" transform="scale(0.015625)"/>
       <path id="DejaVuSans-74" d="M 1172 4494
L 1172 3500
L 2356 3500
L 2356 3053
L 1172 3053
L 1172 1153
Q 1172 725 1289 603
Q 1406 481 1766 481
L 2356 481
L 2356 0
L 1766 0
Q 1100 0 847 248
Q 594 497 594 1153
L 594 3053
L 172 3053
L 172 3500
L 594 3500
L 594 4494
L 1172 4494
z
" transform="scale(0.015625)"/>
       <path id="DejaVuSans-65" d="M 3597 1894
L 3597 1613
L 953 1613
Q 991 1019 1311 708
Q 1631 397 2203 397
Q 2534 397 2845 478
Q 3156 559 3463 722
L 3463 178
Q 3153 47 2828 -22
Q 2503 -91 2169 -91
Q 1331 -91 842 396
Q 353 884 353 1716
Q 353 2575 817 3079
Q 1281 3584 2069 3584
Q 2775 3584 3186 3129
Q 3597 2675 3597 1894
z
M 3022 2063
Q 3016 2534 2758 2815
Q 2500 3097 2075 3097
Q 1594 3097 1305 2825
Q 1016 2553 972 2059
L 3022 2063
z
" transform="scale(0.015625)"/>
       <path id="DejaVuSans-20" transform="scale(0.015625)"/>
       <path id="DejaVuSans-Oblique-78" d="M 3841 3500
L 2234 1784
L 3219 0
L 2559 0
L 1819 1388
L 531 0
L -166 0
L 1556 1844
L 641 3500
L 1300 3500
L 1972 2234
L 3144 3500
L 3841 3500
z
" transform="scale(0.015625)"/>
       <path id="DejaVuSans-3d" d="M 678 2906
L 4684 2906
L 4684 2381
L 678 2381
L 678 2906
z
M 678 1631
L 4684 1631
L 4684 1100
L 678 1100
L 678 1631
z
" transform="scale(0.015625)"/>
       <path id="DejaVuSans-73" d="M 2834 3397
L 2834 2853
Q 2591 2978 2328 3040
Q 2066 3103 1784 3103
Q 1356 3103 1142 2972
Q 928 2841 928 2578
Q 928 2378 1081 2264
Q 1234 2150 1697 2047
L 1894 2003
Q 2506 1872 2764 1633
Q 3022 1394 3022 966
Q 3022 478 2636 193
Q 2250 -91 1575 -91
Q 1294 -91 989 -36
Q 684 19 347 128
L 347 722
Q 666 556 975 473
Q 1284 391 1588 391
Q 1994 391 2212 530
Q 2431 669 2431 922
Q 2431 1156 2273 1281
Q 2116 1406 1581 1522
L 1381 1569
Q 847 1681 609 1914
Q 372 2147 372 2553
Q 372 3047 722 3315
Q 1072 3584 1716 3584
Q 2034 3584 2315 3537
Q 2597 3491 2834 3397
z
" transform="scale(0.015625)"/>
       <path id="DejaVuSans-28" d="M 1984 4856
Q 1566 4138 1362 3434
Q 1159 2731 1159 2009
Q 1159 1288 1364 580
Q 1569 -128 1984 -844
L 1484 -844
Q 1016 -109 783 600
Q 550 1309 550 2009
Q 550 2706 781 3412
Q 1013 4119 1484 4856
L 1984 4856
z
" transform="scale(0.015625)"/>
       <path id="DejaVuSans-Oblique-3b8" d="M 2913 2219
L 925 2219
Q 791 1284 928 888
Q 1100 400 1566 400
Q 2034 400 2391 891
Q 2703 1322 2913 2219
z
M 3009 2750
Q 3094 3638 2984 3950
Q 2813 4444 2353 4444
Q 1875 4444 1525 3956
Q 1250 3563 1034 2750
L 3009 2750
z
M 2444 4913
Q 3194 4913 3494 4250
Q 3794 3591 3566 2422
Q 3341 1256 2781 594
Q 2225 -72 1475 -72
Q 722 -72 425 594
Q 128 1256 353 2422
Q 581 3591 1134 4250
Q 1691 4913 2444 4913
z
" transform="scale(0.015625)"/>
       <path id="DejaVuSans-2f" d="M 1625 4666
L 2156 4666
L 531 -594
L 0 -594
L 1625 4666
z
" transform="scale(0.015625)"/>
       <path id="DejaVuSans-33" d="M 2597 2516
Q 3050 2419 3304 2112
Q 3559 1806 3559 1356
Q 3559 666 3084 287
Q 2609 -91 1734 -91
Q 1441 -91 1130 -33
Q 819 25 488 141
L 488 750
Q 750 597 1062 519
Q 1375 441 1716 441
Q 2309 441 2620 675
Q 2931 909 2931 1356
Q 2931 1769 2642 2001
Q 2353 2234 1838 2234
L 1294 2234
L 1294 2753
L 1863 2753
Q 2328 2753 2575 2939
Q 2822 3125 2822 3475
Q 2822 3834 2567 4026
Q 2313 4219 1838 4219
Q 1578 4219 1281 4162
Q 984 4106 628 3988
L 628 4550
Q 988 4650 1302 4700
Q 1616 4750 1894 4750
Q 2613 4750 3031 4423
Q 3450 4097 3450 3541
Q 3450 3153 3228 2886
Q 3006 2619 2597 2516
z
" transform="scale(0.015625)"/>
       <path id="DejaVuSans-29" d="M 513 4856
L 1013 4856
Q 1481 4119 1714 3412
Q 1947 2706 1947 2009
Q 1947 1309 1714 600
Q 1481 -109 1013 -844
L 513 -844
Q 928 -128 1133 580
Q 1338 1288 1338 2009
Q 1338 2731 1133 3434
Q 928 4138 513 4856
z
" transform="scale(0.015625)"/>
      </defs>
      <use xlink:href="#DejaVuSans-63" transform="translate(0 0.234375)"/>
      <use xlink:href="#DejaVuSans-61" transform="translate(54.980469 0.234375)"/>
      <use xlink:href="#DejaVuSans-6e" transform="translate(116.259766 0.234375)"/>
      <use xlink:href="#DejaVuSans-64" transform="translate(179.638672 0.234375)"/>
      <use xlink:href="#DejaVuSans-69" transform="translate(243.115234 0.234375)"/>
      <use xlink:href="#DejaVuSans-64" transform="translate(270.898438 0.234375)"/>
      <use xlink:href="#DejaVuSans-61" transform="translate(334.375 0.234375)"/>
      <use xlink:href="#DejaVuSans-74" transform="translate(395.654297 0.234375)"/>
      <use xlink:href="#DejaVuSans-65" transform="translate(434.863281 0.234375)"/>
      <use xlink:href="#DejaVuSans-20" transform="translate(496.386719 0.234375)"/>
      <use xlink:href="#DejaVuSans-Oblique-78" transform="translate(528.173828 0.234375)"/>
      <use xlink:href="#DejaVuSans-3d" transform="translate(606.835938 0.234375)"/>
      <use xlink:href="#DejaVuSans-73" transform="translate(710.107422 0.234375)"/>
      <use xlink:href="#DejaVuSans-69" transform="translate(762.207031 0.234375)"/>
      <use xlink:href="#DejaVuSans-6e" transform="translate(789.990234 0.234375)"/>
      <use xlink:href="#DejaVuSans-28" transform="translate(853.369141 0.234375)"/>
      <use xlink:href="#DejaVuSans-Oblique-3b8" transform="translate(892.382812 0.234375)"/>
      <use xlink:href="#DejaVuSans-2f" transform="translate(953.564453 0.234375)"/>
      <use xlink:href="#DejaVuSans-33" transform="translate(987.255859 0.234375)"/>
      <use xlink:href="#DejaVuSans-29" transform="translate(1050.878906 0.234375)"/>
     </g>
    </g>
   </g>
   <g id="matplotlib.axis_2">
    <g id="ytick_1">
     <g id="line2d_11">
      <path d="M 51.193125 246.592708
L 486.433125 246.592708
" clip-path="url(#pe6a14d93db)" style="fill: none; stroke: #e7eaef; stroke-width: 0.7; stroke-linecap: square"/>
     </g>
     <g id="line2d_12">
      <defs>
       <path id="ma3afbc0e91" d="M 0 0
L -3.5 0
" style="stroke: #000000; stroke-width: 0.8"/>
      </defs>
      <g>
       <use xlink:href="#ma3afbc0e91" x="51.193125" y="246.592708" style="stroke: #000000; stroke-width: 0.8"/>
      </g>
     </g>
     <g id="text_7">
      <!-- −0.5 -->
      <g transform="translate(19.910313 250.391927) scale(0.1 -0.1)">
       <use xlink:href="#DejaVuSans-2212"/>
       <use xlink:href="#DejaVuSans-30" transform="translate(83.789062 0)"/>
       <use xlink:href="#DejaVuSans-2e" transform="translate(147.412109 0)"/>
       <use xlink:href="#DejaVuSans-35" transform="translate(179.199219 0)"/>
      </g>
     </g>
    </g>
    <g id="ytick_2">
     <g id="line2d_13">
      <path d="M 51.193125 209.1459
L 486.433125 209.1459
" clip-path="url(#pe6a14d93db)" style="fill: none; stroke: #e7eaef; stroke-width: 0.7; stroke-linecap: square"/>
     </g>
     <g id="line2d_14">
      <g>
       <use xlink:href="#ma3afbc0e91" x="51.193125" y="209.1459" style="stroke: #000000; stroke-width: 0.8"/>
      </g>
     </g>
     <g id="text_8">
      <!-- 0.0 -->
      <g transform="translate(28.29 212.945119) scale(0.1 -0.1)">
       <use xlink:href="#DejaVuSans-30"/>
       <use xlink:href="#DejaVuSans-2e" transform="translate(63.623047 0)"/>
       <use xlink:href="#DejaVuSans-30" transform="translate(95.410156 0)"/>
      </g>
     </g>
    </g>
    <g id="ytick_3">
     <g id="line2d_15">
      <path d="M 51.193125 171.699091
L 486.433125 171.699091
" clip-path="url(#pe6a14d93db)" style="fill: none; stroke: #e7eaef; stroke-width: 0.7; stroke-linecap: square"/>
     </g>
     <g id="line2d_16">
      <g>
       <use xlink:href="#ma3afbc0e91" x="51.193125" y="171.699091" style="stroke: #000000; stroke-width: 0.8"/>
      </g>
     </g>
     <g id="text_9">
      <!-- 0.5 -->
      <g transform="translate(28.29 175.49831) scale(0.1 -0.1)">
       <use xlink:href="#DejaVuSans-30"/>
       <use xlink:href="#DejaVuSans-2e" transform="translate(63.623047 0)"/>
       <use xlink:href="#DejaVuSans-35" transform="translate(95.410156 0)"/>
      </g>
     </g>
    </g>
    <g id="ytick_4">
     <g id="line2d_17">
      <path d="M 51.193125 134.252283
L 486.433125 134.252283
" clip-path="url(#pe6a14d93db)" style="fill: none; stroke: #e7eaef; stroke-width: 0.7; stroke-linecap: square"/>
     </g>
     <g id="line2d_18">
      <g>
       <use xlink:href="#ma3afbc0e91" x="51.193125" y="134.252283" style="stroke: #000000; stroke-width: 0.8"/>
      </g>
     </g>
     <g id="text_10">
      <!-- 1.0 -->
      <g transform="translate(28.29 138.051502) scale(0.1 -0.1)">
       <use xlink:href="#DejaVuSans-31"/>
       <use xlink:href="#DejaVuSans-2e" transform="translate(63.623047 0)"/>
       <use xlink:href="#DejaVuSans-30" transform="translate(95.410156 0)"/>
      </g>
     </g>
    </g>
    <g id="ytick_5">
     <g id="line2d_19">
      <path d="M 51.193125 96.805474
L 486.433125 96.805474
" clip-path="url(#pe6a14d93db)" style="fill: none; stroke: #e7eaef; stroke-width: 0.7; stroke-linecap: square"/>
     </g>
     <g id="line2d_20">
      <g>
       <use xlink:href="#ma3afbc0e91" x="51.193125" y="96.805474" style="stroke: #000000; stroke-width: 0.8"/>
      </g>
     </g>
     <g id="text_11">
      <!-- 1.5 -->
      <g transform="translate(28.29 100.604693) scale(0.1 -0.1)">
       <use xlink:href="#DejaVuSans-31"/>
       <use xlink:href="#DejaVuSans-2e" transform="translate(63.623047 0)"/>
       <use xlink:href="#DejaVuSans-35" transform="translate(95.410156 0)"/>
      </g>
     </g>
    </g>
    <g id="ytick_6">
     <g id="line2d_21">
      <path d="M 51.193125 59.358666
L 486.433125 59.358666
" clip-path="url(#pe6a14d93db)" style="fill: none; stroke: #e7eaef; stroke-width: 0.7; stroke-linecap: square"/>
     </g>
     <g id="line2d_22">
      <g>
       <use xlink:href="#ma3afbc0e91" x="51.193125" y="59.358666" style="stroke: #000000; stroke-width: 0.8"/>
      </g>
     </g>
     <g id="text_12">
      <!-- 2.0 -->
      <g transform="translate(28.29 63.157885) scale(0.1 -0.1)">
       <defs>
        <path id="DejaVuSans-32" d="M 1228 531
L 3431 531
L 3431 0
L 469 0
L 469 531
Q 828 903 1448 1529
Q 2069 2156 2228 2338
Q 2531 2678 2651 2914
Q 2772 3150 2772 3378
Q 2772 3750 2511 3984
Q 2250 4219 1831 4219
Q 1534 4219 1204 4116
Q 875 4013 500 3803
L 500 4441
Q 881 4594 1212 4672
Q 1544 4750 1819 4750
Q 2544 4750 2975 4387
Q 3406 4025 3406 3419
Q 3406 3131 3298 2873
Q 3191 2616 2906 2266
Q 2828 2175 2409 1742
Q 1991 1309 1228 531
z
" transform="scale(0.015625)"/>
       </defs>
       <use xlink:href="#DejaVuSans-32"/>
       <use xlink:href="#DejaVuSans-2e" transform="translate(63.623047 0)"/>
       <use xlink:href="#DejaVuSans-30" transform="translate(95.410156 0)"/>
      </g>
     </g>
    </g>
    <g id="text_13">
     <!-- cubic residual -->
     <g transform="translate(14.038594 175.452141) rotate(-90) scale(0.09 -0.09)">
      <defs>
       <path id="DejaVuSans-75" d="M 544 1381
L 544 3500
L 1119 3500
L 1119 1403
Q 1119 906 1312 657
Q 1506 409 1894 409
Q 2359 409 2629 706
Q 2900 1003 2900 1516
L 2900 3500
L 3475 3500
L 3475 0
L 2900 0
L 2900 538
Q 2691 219 2414 64
Q 2138 -91 1772 -91
Q 1169 -91 856 284
Q 544 659 544 1381
z
M 1991 3584
L 1991 3584
z
" transform="scale(0.015625)"/>
       <path id="DejaVuSans-62" d="M 3116 1747
Q 3116 2381 2855 2742
Q 2594 3103 2138 3103
Q 1681 3103 1420 2742
Q 1159 2381 1159 1747
Q 1159 1113 1420 752
Q 1681 391 2138 391
Q 2594 391 2855 752
Q 3116 1113 3116 1747
z
M 1159 2969
Q 1341 3281 1617 3432
Q 1894 3584 2278 3584
Q 2916 3584 3314 3078
Q 3713 2572 3713 1747
Q 3713 922 3314 415
Q 2916 -91 2278 -91
Q 1894 -91 1617 61
Q 1341 213 1159 525
L 1159 0
L 581 0
L 581 4863
L 1159 4863
L 1159 2969
z
" transform="scale(0.015625)"/>
       <path id="DejaVuSans-72" d="M 2631 2963
Q 2534 3019 2420 3045
Q 2306 3072 2169 3072
Q 1681 3072 1420 2755
Q 1159 2438 1159 1844
L 1159 0
L 581 0
L 581 3500
L 1159 3500
L 1159 2956
Q 1341 3275 1631 3429
Q 1922 3584 2338 3584
Q 2397 3584 2469 3576
Q 2541 3569 2628 3553
L 2631 2963
z
" transform="scale(0.015625)"/>
       <path id="DejaVuSans-6c" d="M 603 4863
L 1178 4863
L 1178 0
L 603 0
L 603 4863
z
" transform="scale(0.015625)"/>
      </defs>
      <use xlink:href="#DejaVuSans-63"/>
      <use xlink:href="#DejaVuSans-75" transform="translate(54.980469 0)"/>
      <use xlink:href="#DejaVuSans-62" transform="translate(118.359375 0)"/>
      <use xlink:href="#DejaVuSans-69" transform="translate(181.835938 0)"/>
      <use xlink:href="#DejaVuSans-63" transform="translate(209.619141 0)"/>
      <use xlink:href="#DejaVuSans-20" transform="translate(264.599609 0)"/>
      <use xlink:href="#DejaVuSans-72" transform="translate(296.386719 0)"/>
      <use xlink:href="#DejaVuSans-65" transform="translate(335.25 0)"/>
      <use xlink:href="#DejaVuSans-73" transform="translate(396.773438 0)"/>
      <use xlink:href="#DejaVuSans-69" transform="translate(448.873047 0)"/>
      <use xlink:href="#DejaVuSans-64" transform="translate(476.65625 0)"/>
      <use xlink:href="#DejaVuSans-75" transform="translate(540.132812 0)"/>
      <use xlink:href="#DejaVuSans-61" transform="translate(603.511719 0)"/>
      <use xlink:href="#DejaVuSans-6c" transform="translate(664.791016 0)"/>
     </g>
    </g>
   </g>
   <g id="line2d_23">
    <path d="M 51.193125 209.1459
L 486.433125 209.1459
" clip-path="url(#pe6a14d93db)" style="fill: none; stroke: #30343b; stroke-width: 0.8; stroke-linecap: square"/>
   </g>
   <g id="line2d_24">
    <path d="M 268.813125 266.254125
L 268.813125 22.318125
" clip-path="url(#pe6a14d93db)" style="fill: none; stroke: #d5d9df; stroke-width: 0.8; stroke-linecap: square"/>
   </g>
   <g id="line2d_25">
    <path d="M 70.976761 255.166125
L 74.941418 239.459518
L 78.906075 224.571812
L 82.870731 210.48626
L 86.835388 197.186116
L 90.800044 184.654633
L 94.764701 172.875065
L 98.729357 161.830665
L 102.694014 151.504688
L 106.658671 141.880385
L 110.623327 132.941012
L 113.795052 126.271409
L 116.966778 120.020869
L 120.138503 114.180817
L 123.310228 108.742679
L 126.481954 103.697882
L 129.653679 99.037851
L 132.825404 94.754011
L 135.997129 90.837789
L 139.168855 87.280611
L 142.34058 84.073902
L 145.512305 81.209089
L 148.68403 78.677596
L 151.855756 76.47085
L 155.027481 74.580277
L 158.199206 72.997302
L 161.370932 71.713352
L 164.542657 70.719852
L 167.714382 70.008227
L 170.886107 69.569905
L 174.057833 69.39631
L 177.229558 69.478868
L 180.401283 69.809006
L 183.573008 70.378149
L 186.744734 71.177722
L 189.916459 72.199153
L 193.088184 73.433866
L 196.259909 74.873287
L 200.224566 76.947373
L 204.189223 79.311172
L 208.153879 81.947938
L 212.118536 84.840924
L 216.876124 88.62714
L 221.633712 92.72926
L 226.3913 97.118347
L 231.941819 102.563037
L 237.492338 108.312981
L 243.835789 115.199178
L 250.97217 123.265571
L 260.487346 134.383691
L 289.032874 168.027429
L 296.169255 175.990731
L 302.512706 182.757962
L 308.063225 188.382709
L 313.613744 193.682509
L 318.371332 197.93173
L 323.12892 201.879515
L 327.093577 204.918195
L 331.058233 207.710703
L 335.02289 210.240291
L 338.987547 212.490215
L 342.952203 214.443726
L 346.123928 215.781865
L 349.295654 216.911009
L 352.467379 217.822582
L 355.639104 218.508013
L 358.810829 218.958725
L 361.982555 219.166144
L 365.15428 219.121698
L 368.326005 218.816811
L 371.497731 218.242909
L 374.669456 217.391419
L 377.841181 216.253765
L 381.012906 214.821374
L 384.184632 213.085672
L 387.356357 211.038084
L 390.528082 208.670037
L 393.699807 205.972955
L 396.871533 202.938266
L 400.043258 199.557394
L 403.214983 195.821766
L 406.386709 191.722807
L 409.558434 187.251944
L 412.730159 182.400601
L 415.901884 177.160206
L 419.07361 171.522183
L 422.245335 165.477958
L 425.41706 159.018958
L 428.588785 152.136608
L 432.553442 142.925273
L 436.518099 133.02231
L 440.482755 122.410973
L 444.447412 111.074516
L 448.412068 98.996191
L 452.376725 86.159253
L 456.341382 72.546956
L 460.306038 58.142552
L 464.270695 42.929295
L 466.649489 33.406125
L 466.649489 33.406125
" clip-path="url(#pe6a14d93db)" style="fill: none; stroke: #7b2cbf; stroke-width: 2.2; stroke-linecap: square"/>
   </g>
   <g id="patch_3">
    <path d="M 51.193125 266.254125
L 51.193125 22.318125
" style="fill: none; stroke: #000000; stroke-width: 0.8; stroke-linejoin: miter; stroke-linecap: square"/>
   </g>
   <g id="patch_4">
    <path d="M 486.433125 266.254125
L 486.433125 22.318125
" style="fill: none; stroke: #000000; stroke-width: 0.8; stroke-linejoin: miter; stroke-linecap: square"/>
   </g>
   <g id="patch_5">
    <path d="M 51.193125 266.254125
L 486.433125 266.254125
" style="fill: none; stroke: #000000; stroke-width: 0.8; stroke-linejoin: miter; stroke-linecap: square"/>
   </g>
   <g id="patch_6">
    <path d="M 51.193125 22.318125
L 486.433125 22.318125
" style="fill: none; stroke: #000000; stroke-width: 0.8; stroke-linejoin: miter; stroke-linecap: square"/>
   </g>
   <g id="text_14">
    <!-- -0.985 -->
    <g transform="translate(70.365622 197.162921) scale(0.08 -0.08)">
     <defs>
      <path id="DejaVuSans-2d" d="M 313 2009
L 1997 2009
L 1997 1497
L 313 1497
L 313 2009
z
" transform="scale(0.015625)"/>
      <path id="DejaVuSans-39" d="M 703 97
L 703 672
Q 941 559 1184 500
Q 1428 441 1663 441
Q 2288 441 2617 861
Q 2947 1281 2994 2138
Q 2813 1869 2534 1725
Q 2256 1581 1919 1581
Q 1219 1581 811 2004
Q 403 2428 403 3163
Q 403 3881 828 4315
Q 1253 4750 1959 4750
Q 2769 4750 3195 4129
Q 3622 3509 3622 2328
Q 3622 1225 3098 567
Q 2575 -91 1691 -91
Q 1453 -91 1209 -44
Q 966 3 703 97
z
M 1959 2075
Q 2384 2075 2632 2365
Q 2881 2656 2881 3163
Q 2881 3666 2632 3958
Q 2384 4250 1959 4250
Q 1534 4250 1286 3958
Q 1038 3666 1038 3163
Q 1038 2656 1286 2365
Q 1534 2075 1959 2075
z
" transform="scale(0.015625)"/>
      <path id="DejaVuSans-38" d="M 2034 2216
Q 1584 2216 1326 1975
Q 1069 1734 1069 1313
Q 1069 891 1326 650
Q 1584 409 2034 409
Q 2484 409 2743 651
Q 3003 894 3003 1313
Q 3003 1734 2745 1975
Q 2488 2216 2034 2216
z
M 1403 2484
Q 997 2584 770 2862
Q 544 3141 544 3541
Q 544 4100 942 4425
Q 1341 4750 2034 4750
Q 2731 4750 3128 4425
Q 3525 4100 3525 3541
Q 3525 3141 3298 2862
Q 3072 2584 2669 2484
Q 3125 2378 3379 2068
Q 3634 1759 3634 1313
Q 3634 634 3220 271
Q 2806 -91 2034 -91
Q 1263 -91 848 271
Q 434 634 434 1313
Q 434 1759 690 2068
Q 947 2378 1403 2484
z
M 1172 3481
Q 1172 3119 1398 2916
Q 1625 2713 2034 2713
Q 2441 2713 2670 2916
Q 2900 3119 2900 3481
Q 2900 3844 2670 4047
Q 2441 4250 2034 4250
Q 1625 4250 1398 4047
Q 1172 3844 1172 3481
z
" transform="scale(0.015625)"/>
     </defs>
     <use xlink:href="#DejaVuSans-2d"/>
     <use xlink:href="#DejaVuSans-30" transform="translate(36.083984 0)"/>
     <use xlink:href="#DejaVuSans-2e" transform="translate(99.707031 0)"/>
     <use xlink:href="#DejaVuSans-39" transform="translate(131.494141 0)"/>
     <use xlink:href="#DejaVuSans-38" transform="translate(195.117188 0)"/>
     <use xlink:href="#DejaVuSans-35" transform="translate(258.740234 0)"/>
    </g>
   </g>
   <g id="text_15">
    <!-- 0.342 -->
    <g transform="translate(321.8038 197.162921) scale(0.08 -0.08)">
     <defs>
      <path id="DejaVuSans-34" d="M 2419 4116
L 825 1625
L 2419 1625
L 2419 4116
z
M 2253 4666
L 3047 4666
L 3047 1625
L 3713 1625
L 3713 1100
L 3047 1100
L 3047 0
L 2419 0
L 2419 1100
L 313 1100
L 313 1709
L 2253 4666
z
" transform="scale(0.015625)"/>
     </defs>
     <use xlink:href="#DejaVuSans-30"/>
     <use xlink:href="#DejaVuSans-2e" transform="translate(63.623047 0)"/>
     <use xlink:href="#DejaVuSans-33" transform="translate(95.410156 0)"/>
     <use xlink:href="#DejaVuSans-34" transform="translate(159.033203 0)"/>
     <use xlink:href="#DejaVuSans-32" transform="translate(222.65625 0)"/>
    </g>
   </g>
   <g id="text_16">
    <!-- 0.643 -->
    <g transform="translate(378.473078 197.162921) scale(0.08 -0.08)">
     <defs>
      <path id="DejaVuSans-36" d="M 2113 2584
Q 1688 2584 1439 2293
Q 1191 2003 1191 1497
Q 1191 994 1439 701
Q 1688 409 2113 409
Q 2538 409 2786 701
Q 3034 994 3034 1497
Q 3034 2003 2786 2293
Q 2538 2584 2113 2584
z
M 3366 4563
L 3366 3988
Q 3128 4100 2886 4159
Q 2644 4219 2406 4219
Q 1781 4219 1451 3797
Q 1122 3375 1075 2522
Q 1259 2794 1537 2939
Q 1816 3084 2150 3084
Q 2853 3084 3261 2657
Q 3669 2231 3669 1497
Q 3669 778 3244 343
Q 2819 -91 2113 -91
Q 1303 -91 875 529
Q 447 1150 447 2328
Q 447 3434 972 4092
Q 1497 4750 2381 4750
Q 2619 4750 2861 4703
Q 3103 4656 3366 4563
z
" transform="scale(0.015625)"/>
     </defs>
     <use xlink:href="#DejaVuSans-30"/>
     <use xlink:href="#DejaVuSans-2e" transform="translate(63.623047 0)"/>
     <use xlink:href="#DejaVuSans-36" transform="translate(95.410156 0)"/>
     <use xlink:href="#DejaVuSans-34" transform="translate(159.033203 0)"/>
     <use xlink:href="#DejaVuSans-33" transform="translate(222.65625 0)"/>
    </g>
   </g>
   <g id="text_17">
    <!-- degree of minpoly(2 cos 20 deg) = 3 -->
    <g transform="translate(80.397541 232.69804) scale(0.09 -0.09)">
     <defs>
      <path id="DejaVuSans-67" d="M 2906 1791
Q 2906 2416 2648 2759
Q 2391 3103 1925 3103
Q 1463 3103 1205 2759
Q 947 2416 947 1791
Q 947 1169 1205 825
Q 1463 481 1925 481
Q 2391 481 2648 825
Q 2906 1169 2906 1791
z
M 3481 434
Q 3481 -459 3084 -895
Q 2688 -1331 1869 -1331
Q 1566 -1331 1297 -1286
Q 1028 -1241 775 -1147
L 775 -588
Q 1028 -725 1275 -790
Q 1522 -856 1778 -856
Q 2344 -856 2625 -561
Q 2906 -266 2906 331
L 2906 616
Q 2728 306 2450 153
Q 2172 0 1784 0
Q 1141 0 747 490
Q 353 981 353 1791
Q 353 2603 747 3093
Q 1141 3584 1784 3584
Q 2172 3584 2450 3431
Q 2728 3278 2906 2969
L 2906 3500
L 3481 3500
L 3481 434
z
" transform="scale(0.015625)"/>
      <path id="DejaVuSans-6f" d="M 1959 3097
Q 1497 3097 1228 2736
Q 959 2375 959 1747
Q 959 1119 1226 758
Q 1494 397 1959 397
Q 2419 397 2687 759
Q 2956 1122 2956 1747
Q 2956 2369 2687 2733
Q 2419 3097 1959 3097
z
M 1959 3584
Q 2709 3584 3137 3096
Q 3566 2609 3566 1747
Q 3566 888 3137 398
Q 2709 -91 1959 -91
Q 1206 -91 779 398
Q 353 888 353 1747
Q 353 2609 779 3096
Q 1206 3584 1959 3584
z
" transform="scale(0.015625)"/>
      <path id="DejaVuSans-66" d="M 2375 4863
L 2375 4384
L 1825 4384
Q 1516 4384 1395 4259
Q 1275 4134 1275 3809
L 1275 3500
L 2222 3500
L 2222 3053
L 1275 3053
L 1275 0
L 697 0
L 697 3053
L 147 3053
L 147 3500
L 697 3500
L 697 3744
Q 697 4328 969 4595
Q 1241 4863 1831 4863
L 2375 4863
z
" transform="scale(0.015625)"/>
      <path id="DejaVuSans-6d" d="M 3328 2828
Q 3544 3216 3844 3400
Q 4144 3584 4550 3584
Q 5097 3584 5394 3201
Q 5691 2819 5691 2113
L 5691 0
L 5113 0
L 5113 2094
Q 5113 2597 4934 2840
Q 4756 3084 4391 3084
Q 3944 3084 3684 2787
Q 3425 2491 3425 1978
L 3425 0
L 2847 0
L 2847 2094
Q 2847 2600 2669 2842
Q 2491 3084 2119 3084
Q 1678 3084 1418 2786
Q 1159 2488 1159 1978
L 1159 0
L 581 0
L 581 3500
L 1159 3500
L 1159 2956
Q 1356 3278 1631 3431
Q 1906 3584 2284 3584
Q 2666 3584 2933 3390
Q 3200 3197 3328 2828
z
" transform="scale(0.015625)"/>
      <path id="DejaVuSans-70" d="M 1159 525
L 1159 -1331
L 581 -1331
L 581 3500
L 1159 3500
L 1159 2969
Q 1341 3281 1617 3432
Q 1894 3584 2278 3584
Q 2916 3584 3314 3078
Q 3713 2572 3713 1747
Q 3713 922 3314 415
Q 2916 -91 2278 -91
Q 1894 -91 1617 61
Q 1341 213 1159 525
z
M 3116 1747
Q 3116 2381 2855 2742
Q 2594 3103 2138 3103
Q 1681 3103 1420 2742
Q 1159 2381 1159 1747
Q 1159 1113 1420 752
Q 1681 391 2138 391
Q 2594 391 2855 752
Q 3116 1113 3116 1747
z
" transform="scale(0.015625)"/>
      <path id="DejaVuSans-79" d="M 2059 -325
Q 1816 -950 1584 -1140
Q 1353 -1331 966 -1331
L 506 -1331
L 506 -850
L 844 -850
Q 1081 -850 1212 -737
Q 1344 -625 1503 -206
L 1606 56
L 191 3500
L 800 3500
L 1894 763
L 2988 3500
L 3597 3500
L 2059 -325
z
" transform="scale(0.015625)"/>
     </defs>
     <use xlink:href="#DejaVuSans-64"/>
     <use xlink:href="#DejaVuSans-65" transform="translate(63.476562 0)"/>
     <use xlink:href="#DejaVuSans-67" transform="translate(125 0)"/>
     <use xlink:href="#DejaVuSans-72" transform="translate(188.476562 0)"/>
     <use xlink:href="#DejaVuSans-65" transform="translate(227.339844 0)"/>
     <use xlink:href="#DejaVuSans-65" transform="translate(288.863281 0)"/>
     <use xlink:href="#DejaVuSans-20" transform="translate(350.386719 0)"/>
     <use xlink:href="#DejaVuSans-6f" transform="translate(382.173828 0)"/>
     <use xlink:href="#DejaVuSans-66" transform="translate(443.355469 0)"/>
     <use xlink:href="#DejaVuSans-20" transform="translate(478.560547 0)"/>
     <use xlink:href="#DejaVuSans-6d" transform="translate(510.347656 0)"/>
     <use xlink:href="#DejaVuSans-69" transform="translate(607.759766 0)"/>
     <use xlink:href="#DejaVuSans-6e" transform="translate(635.542969 0)"/>
     <use xlink:href="#DejaVuSans-70" transform="translate(698.921875 0)"/>
     <use xlink:href="#DejaVuSans-6f" transform="translate(762.398438 0)"/>
     <use xlink:href="#DejaVuSans-6c" transform="translate(823.580078 0)"/>
     <use xlink:href="#DejaVuSans-79" transform="translate(851.363281 0)"/>
     <use xlink:href="#DejaVuSans-28" transform="translate(910.542969 0)"/>
     <use xlink:href="#DejaVuSans-32" transform="translate(949.556641 0)"/>
     <use xlink:href="#DejaVuSans-20" transform="translate(1013.179688 0)"/>
     <use xlink:href="#DejaVuSans-63" transform="translate(1044.966797 0)"/>
     <use xlink:href="#DejaVuSans-6f" transform="translate(1099.947266 0)"/>
     <use xlink:href="#DejaVuSans-73" transform="translate(1161.128906 0)"/>
     <use xlink:href="#DejaVuSans-20" transform="translate(1213.228516 0)"/>
     <use xlink:href="#DejaVuSans-32" transform="translate(1245.015625 0)"/>
     <use xlink:href="#DejaVuSans-30" transform="translate(1308.638672 0)"/>
     <use xlink:href="#DejaVuSans-20" transform="translate(1372.261719 0)"/>
     <use xlink:href="#DejaVuSans-64" transform="translate(1404.048828 0)"/>
     <use xlink:href="#DejaVuSans-65" transform="translate(1467.525391 0)"/>
     <use xlink:href="#DejaVuSans-67" transform="translate(1529.048828 0)"/>
     <use xlink:href="#DejaVuSans-29" transform="translate(1592.525391 0)"/>
     <use xlink:href="#DejaVuSans-20" transform="translate(1631.539062 0)"/>
     <use xlink:href="#DejaVuSans-3d" transform="translate(1663.326172 0)"/>
     <use xlink:href="#DejaVuSans-20" transform="translate(1747.115234 0)"/>
     <use xlink:href="#DejaVuSans-33" transform="translate(1778.902344 0)"/>
    </g>
   </g>
   <g id="text_18">
    <!-- Trisection turns a familiar angle into a cubic -->
    <g transform="translate(137.350313 16.318125) scale(0.12 -0.12)">
     <defs>
      <path id="DejaVuSans-54" d="M -19 4666
L 3928 4666
L 3928 4134
L 2272 4134
L 2272 0
L 1638 0
L 1638 4134
L -19 4134
L -19 4666
z
" transform="scale(0.015625)"/>
     </defs>
     <use xlink:href="#DejaVuSans-54"/>
     <use xlink:href="#DejaVuSans-72" transform="translate(46.333984 0)"/>
     <use xlink:href="#DejaVuSans-69" transform="translate(87.447266 0)"/>
     <use xlink:href="#DejaVuSans-73" transform="translate(115.230469 0)"/>
     <use xlink:href="#DejaVuSans-65" transform="translate(167.330078 0)"/>
     <use xlink:href="#DejaVuSans-63" transform="translate(228.853516 0)"/>
     <use xlink:href="#DejaVuSans-74" transform="translate(283.833984 0)"/>
     <use xlink:href="#DejaVuSans-69" transform="translate(323.042969 0)"/>
     <use xlink:href="#DejaVuSans-6f" transform="translate(350.826172 0)"/>
     <use xlink:href="#DejaVuSans-6e" transform="translate(412.007812 0)"/>
     <use xlink:href="#DejaVuSans-20" transform="translate(475.386719 0)"/>
     <use xlink:href="#DejaVuSans-74" transform="translate(507.173828 0)"/>
     <use xlink:href="#DejaVuSans-75" transform="translate(546.382812 0)"/>
     <use xlink:href="#DejaVuSans-72" transform="translate(609.761719 0)"/>
     <use xlink:href="#DejaVuSans-6e" transform="translate(649.125 0)"/>
     <use xlink:href="#DejaVuSans-73" transform="translate(712.503906 0)"/>
     <use xlink:href="#DejaVuSans-20" transform="translate(764.603516 0)"/>
     <use xlink:href="#DejaVuSans-61" transform="translate(796.390625 0)"/>
     <use xlink:href="#DejaVuSans-20" transform="translate(857.669922 0)"/>
     <use xlink:href="#DejaVuSans-66" transform="translate(889.457031 0)"/>
     <use xlink:href="#DejaVuSans-61" transform="translate(924.662109 0)"/>
     <use xlink:href="#DejaVuSans-6d" transform="translate(985.941406 0)"/>
     <use xlink:href="#DejaVuSans-69" transform="translate(1083.353516 0)"/>
     <use xlink:href="#DejaVuSans-6c" transform="translate(1111.136719 0)"/>
     <use xlink:href="#DejaVuSans-69" transform="translate(1138.919922 0)"/>
     <use xlink:href="#DejaVuSans-61" transform="translate(1166.703125 0)"/>
     <use xlink:href="#DejaVuSans-72" transform="translate(1227.982422 0)"/>
     <use xlink:href="#DejaVuSans-20" transform="translate(1269.095703 0)"/>
     <use xlink:href="#DejaVuSans-61" transform="translate(1300.882812 0)"/>
     <use xlink:href="#DejaVuSans-6e" transform="translate(1362.162109 0)"/>
     <use xlink:href="#DejaVuSans-67" transform="translate(1425.541016 0)"/>
     <use xlink:href="#DejaVuSans-6c" transform="translate(1489.017578 0)"/>
     <use xlink:href="#DejaVuSans-65" transform="translate(1516.800781 0)"/>
     <use xlink:href="#DejaVuSans-20" transform="translate(1578.324219 0)"/>
     <use xlink:href="#DejaVuSans-69" transform="translate(1610.111328 0)"/>
     <use xlink:href="#DejaVuSans-6e" transform="translate(1637.894531 0)"/>
     <use xlink:href="#DejaVuSans-74" transform="translate(1701.273438 0)"/>
     <use xlink:href="#DejaVuSans-6f" transform="translate(1740.482422 0)"/>
     <use xlink:href="#DejaVuSans-20" transform="translate(1801.664062 0)"/>
     <use xlink:href="#DejaVuSans-61" transform="translate(1833.451172 0)"/>
     <use xlink:href="#DejaVuSans-20" transform="translate(1894.730469 0)"/>
     <use xlink:href="#DejaVuSans-63" transform="translate(1926.517578 0)"/>
     <use xlink:href="#DejaVuSans-75" transform="translate(1981.498047 0)"/>
     <use xlink:href="#DejaVuSans-62" transform="translate(2044.876953 0)"/>
     <use xlink:href="#DejaVuSans-69" transform="translate(2108.353516 0)"/>
     <use xlink:href="#DejaVuSans-63" transform="translate(2136.136719 0)"/>
    </g>
   </g>
   <g id="PathCollection_1">
    <defs>
     <path id="m994ad1ab89" d="M 0 3.24037
C 0.859356 3.24037 1.683631 2.898944 2.291288 2.291288
C 2.898944 1.683631 3.24037 0.859356 3.24037 0
C 3.24037 -0.859356 2.898944 -1.683631 2.291288 -2.291288
C 1.683631 -2.898944 0.859356 -3.24037 0 -3.24037
C -0.859356 -3.24037 -1.683631 -2.898944 -2.291288 -2.291288
C -2.898944 -1.683631 -3.24037 -0.859356 -3.24037 0
C -3.24037 0.859356 -2.898944 1.683631 -2.291288 2.291288
C -1.683631 2.898944 -0.859356 3.24037 0 3.24037
z
" style="stroke: #f77f00"/>
    </defs>
    <g clip-path="url(#pe6a14d93db)">
     <use xlink:href="#m994ad1ab89" x="83.259997" y="209.1459" style="fill: #f77f00; stroke: #f77f00"/>
    </g>
   </g>
   <g id="PathCollection_2">
    <g clip-path="url(#pe6a14d93db)">
     <use xlink:href="#m994ad1ab89" x="333.25505" y="209.1459" style="fill: #f77f00; stroke: #f77f00"/>
    </g>
   </g>
   <g id="PathCollection_3">
    <g clip-path="url(#pe6a14d93db)">
     <use xlink:href="#m994ad1ab89" x="389.924328" y="209.1459" style="fill: #f77f00; stroke: #f77f00"/>
    </g>
   </g>
   <g id="legend_1">
    <g id="line2d_26">
     <path d="M 60.193125 36.238438
L 70.193125 36.238438
L 80.193125 36.238438
" style="fill: none; stroke: #7b2cbf; stroke-width: 2.2; stroke-linecap: square"/>
    </g>
    <g id="text_19">
     <!-- $4x^3 - 3x + \sin(60^\circ)$ -->
     <g transform="translate(88.193125 39.738438) scale(0.1 -0.1)">
      <defs>
       <path id="DejaVuSans-2b" d="M 2944 4013
L 2944 2272
L 4684 2272
L 4684 1741
L 2944 1741
L 2944 0
L 2419 0
L 2419 1741
L 678 1741
L 678 2272
L 2419 2272
L 2419 4013
L 2944 4013
z
" transform="scale(0.015625)"/>
       <path id="DejaVuSans-2218" d="M 2000 2619
Q 1750 2619 1578 2445
Q 1406 2272 1406 2022
Q 1406 1775 1578 1605
Q 1750 1435 2000 1435
Q 2250 1435 2422 1605
Q 2594 1775 2594 2022
Q 2594 2269 2420 2444
Q 2247 2619 2000 2619
z
M 2000 3022
Q 2200 3022 2384 2945
Q 2569 2869 2703 2725
Q 2847 2585 2919 2406
Q 2991 2228 2991 2022
Q 2991 1610 2702 1324
Q 2413 1038 1994 1038
Q 1572 1038 1290 1319
Q 1009 1600 1009 2022
Q 1009 2441 1296 2731
Q 1584 3022 2000 3022
z
" transform="scale(0.015625)"/>
      </defs>
      <use xlink:href="#DejaVuSans-34" transform="translate(0 0.765625)"/>
      <use xlink:href="#DejaVuSans-Oblique-78" transform="translate(63.623047 0.765625)"/>
      <use xlink:href="#DejaVuSans-33" transform="translate(127.26888 39.046875) scale(0.7)"/>
      <use xlink:href="#DejaVuSans-2212" transform="translate(194.02181 0.765625)"/>
      <use xlink:href="#DejaVuSans-33" transform="translate(297.293294 0.765625)"/>
      <use xlink:href="#DejaVuSans-Oblique-78" transform="translate(360.916341 0.765625)"/>
      <use xlink:href="#DejaVuSans-2b" transform="translate(439.578451 0.765625)"/>
      <use xlink:href="#DejaVuSans-73" transform="translate(542.849935 0.765625)"/>
      <use xlink:href="#DejaVuSans-69" transform="translate(594.949544 0.765625)"/>
      <use xlink:href="#DejaVuSans-6e" transform="translate(622.732747 0.765625)"/>
      <use xlink:href="#DejaVuSans-28" transform="translate(686.111654 0.765625)"/>
      <use xlink:href="#DejaVuSans-36" transform="translate(725.125326 0.765625)"/>
      <use xlink:href="#DejaVuSans-30" transform="translate(788.748372 0.765625)"/>
      <use xlink:href="#DejaVuSans-2218" transform="translate(866.966146 39.046875) scale(0.7)"/>
      <use xlink:href="#DejaVuSans-29" transform="translate(927.156576 0.765625)"/>
     </g>
    </g>
   </g>
  </g>
 </g>
 <defs>
  <clipPath id="pe6a14d93db">
   <rect x="51.193125" y="22.318125" width="435.24" height="243.936"/>
  </clipPath>
 </defs>
</svg>
