<svg xmlns="http://www.w3.org/2000/svg" width="760" height="520" viewBox="0 0 760 520"><rect width="760" height="520" fill="#fffdf7"/><text x="28" y="38" font-size="24" font-family="DejaVu Sans, Arial" font-weight="700" fill="#1f2933">Chapter 01 experiment</text><text x="28" y="64" font-size="14" font-family="DejaVu Sans, Arial" fill="#1f2933">Perturb the model and inspect what remains invariant</text><g font-family="DejaVu Sans, Arial"><polyline points="167.6,350.0 170.7,350.6 173.7,351.1 176.8,351.6 179.8,352.1 182.9,352.5 185.9,352.9 189.0,353.2 192.0,353.5 195.1,353.8 198.2,354.0 201.2,354.2 204.3,354.3 207.3,354.4 210.4,354.4 213.4,354.4 216.5,354.3 219.6,354.3 222.6,354.1 225.7,353.9 228.7,353.7 231.8,353.5 234.8,353.1 237.9,352.8 240.9,352.4 244.0,352.0 247.1,351.5 250.1,351.0 253.2,350.4 256.2,349.9 259.3,349.2 262.3,348.5 265.4,347.8 268.5,347.1 271.5,346.3 274.6,345.5 277.6,344.6 280.7,343.7 283.7,342.8 286.8,341.8 289.8,340.9 292.9,339.8 296.0,338.8 299.0,337.7 302.1,336.6 305.1,335.4 308.2,334.3 311.2,333.1 314.3,331.8 317.3,330.6 320.4,329.3 323.5,328.0 326.5,326.7 329.6,325.4 332.6,324.0 335.7,322.6 338.7,321.2 341.8,319.8 344.9,318.4 347.9,316.9 351.0,315.5 354.0,314.0 357.1,312.6 360.1,311.1 363.2,309.6 366.2,308.1 369.3,306.6 372.4,305.1 375.4,303.6 378.5,302.1 381.5,300.5 384.6,299.0 387.6,297.5 390.7,296.0 393.8,294.5 396.8,293.0 399.9,291.5 402.9,290.0 406.0,288.6 409.0,287.1 412.1,285.7 415.1,284.2 418.2,282.8 421.3,281.4 424.3,280.0 427.4,278.6 430.4,277.2 433.5,275.9 436.5,274.6 439.6,273.3 442.7,272.0 445.7,270.8 448.8,269.5 451.8,268.3 454.9,267.2 457.9,266.0 461.0,264.9 464.0,263.8 467.1,262.8 470.2,261.7 473.2,260.8 476.3,259.8 479.3,258.9 482.4,258.0 485.4,257.1 488.5,256.3 491.5,255.5 494.6,254.8 497.7,254.1 500.7,253.4 503.8,252.7 506.8,252.2 509.9,251.6 512.9,251.1 516.0,250.6 519.1,250.2 522.1,249.8 525.2,249.5 528.2,249.1 531.3,248.9 534.3,248.7 537.4,248.5 540.4,248.3 543.5,248.3 546.6,248.2 549.6,248.2 552.7,248.2 555.7,248.3 558.8,248.4 561.8,248.6 564.9,248.8 568.0,249.1 571.0,249.4 574.1,249.7 577.1,250.1 580.2,250.5 583.2,251.0 586.3,251.5 589.3,252.0 592.4,252.6" fill="none" stroke="#2364aa" stroke-width="2" stroke-linejoin="round"/>
<polyline points="167.6,311.6 170.7,311.2 173.7,310.8 176.8,310.3 179.8,309.8 182.9,309.2 185.9,308.7 189.0,308.0 192.0,307.4 195.1,306.7 198.2,305.9 201.2,305.2 204.3,304.3 207.3,303.5 210.4,302.6 213.4,301.7 216.5,300.7 219.6,299.7 222.6,298.7 225.7,297.7 228.7,296.6 231.8,295.5 234.8,294.3 237.9,293.2 240.9,292.0 244.0,290.8 247.1,289.5 250.1,288.2 253.2,286.9 256.2,285.6 259.3,284.3 262.3,282.9 265.4,281.6 268.5,280.2 271.5,278.8 274.6,277.4 277.6,275.9 280.7,274.5 283.7,273.0 286.8,271.5 289.8,270.1 292.9,268.6 296.0,267.1 299.0,265.6 302.1,264.1 305.1,262.5 308.2,261.0 311.2,259.5 314.3,258.0 317.3,256.5 320.4,255.0 323.5,253.5 326.5,252.0 329.6,250.5 332.6,249.0 335.7,247.5 338.7,246.1 341.8,244.6 344.9,243.2 347.9,241.7 351.0,240.3 354.0,238.9 357.1,237.6 360.1,236.2 363.2,234.9 366.2,233.5 369.3,232.2 372.4,231.0 375.4,229.7 378.5,228.5 381.5,227.3 384.6,226.1 387.6,224.9 390.7,223.8 393.8,222.7 396.8,221.7 399.9,220.6 402.9,219.6 406.0,218.7 409.0,217.7 412.1,216.8 415.1,216.0 418.2,215.1 421.3,214.4 424.3,213.6 427.4,212.9 430.4,212.2 433.5,211.6 436.5,211.0 439.6,210.4 442.7,209.9 445.7,209.4 448.8,209.0 451.8,208.6 454.9,208.2 457.9,207.9 461.0,207.6 464.0,207.4 467.1,207.2 470.2,207.1 473.2,207.0 476.3,206.9 479.3,206.9 482.4,206.9 485.4,207.0 488.5,207.1 491.5,207.3 494.6,207.5 497.7,207.7 500.7,208.0 503.8,208.3 506.8,208.7 509.9,209.1 512.9,209.6 516.0,210.1 519.1,210.6 522.1,211.2 525.2,211.8 528.2,212.4 531.3,213.1 534.3,213.9 537.4,214.6 540.4,215.4 543.5,216.3 546.6,217.2 549.6,218.1 552.7,219.0 555.7,220.0 558.8,221.0 561.8,222.0 564.9,223.1 568.0,224.2 571.0,225.3 574.1,226.5 577.1,227.7 580.2,228.9 583.2,230.1 586.3,231.4 589.3,232.7 592.4,234.0" fill="none" stroke="#f97316" stroke-width="2" stroke-linejoin="round"/>
<polyline points="167.6,252.1 170.7,250.9 173.7,249.7 176.8,248.4 179.8,247.2 182.9,245.9 185.9,244.6 189.0,243.2 192.0,241.9 195.1,240.5 198.2,239.1 201.2,237.7 204.3,236.3 207.3,234.9 210.4,233.4 213.4,232.0 216.5,230.5 219.6,229.0 222.6,227.5 225.7,226.0 228.7,224.5 231.8,223.0 234.8,221.5 237.9,220.0 240.9,218.5 244.0,217.0 247.1,215.5 250.1,214.0 253.2,212.5 256.2,211.0 259.3,209.5 262.3,208.0 265.4,206.5 268.5,205.0 271.5,203.6 274.6,202.1 277.6,200.7 280.7,199.3 283.7,197.9 286.8,196.5 289.8,195.1 292.9,193.8 296.0,192.5 299.0,191.2 302.1,189.9 305.1,188.6 308.2,187.4 311.2,186.2 314.3,185.0 317.3,183.8 320.4,182.7 323.5,181.6 326.5,180.6 329.6,179.5 332.6,178.5 335.7,177.5 338.7,176.6 341.8,175.7 344.9,174.8 347.9,174.0 351.0,173.2 354.0,172.4 357.1,171.7 360.1,171.0 363.2,170.4 366.2,169.8 369.3,169.2 372.4,168.7 375.4,168.2 378.5,167.7 381.5,167.3 384.6,167.0 387.6,166.7 390.7,166.4 393.8,166.1 396.8,165.9 399.9,165.8 402.9,165.7 406.0,165.6 409.0,165.6 412.1,165.6 415.1,165.7 418.2,165.8 421.3,165.9 424.3,166.1 427.4,166.4 430.4,166.7 433.5,167.0 436.5,167.3 439.6,167.7 442.7,168.2 445.7,168.7 448.8,169.2 451.8,169.8 454.9,170.4 457.9,171.0 461.0,171.7 464.0,172.4 467.1,173.2 470.2,174.0 473.2,174.8 476.3,175.7 479.3,176.6 482.4,177.5 485.4,178.5 488.5,179.5 491.5,180.5 494.6,181.6 497.7,182.7 500.7,183.8 503.8,185.0 506.8,186.2 509.9,187.4 512.9,188.6 516.0,189.9 519.1,191.2 522.1,192.5 525.2,193.8 528.2,195.1 531.3,196.5 534.3,197.9 537.4,199.3 540.4,200.7 543.5,202.1 546.6,203.6 549.6,205.0 552.7,206.5 555.7,208.0 558.8,209.5 561.8,210.9 564.9,212.4 568.0,214.0 571.0,215.5 574.1,217.0 577.1,218.5 580.2,220.0 583.2,221.5 586.3,223.0 589.3,224.5 592.4,226.0" fill="none" stroke="#2f9e44" stroke-width="2" stroke-linejoin="round"/>
<line x1="167.6" y1="260.0" x2="592.4" y2="260.0" stroke="#d8dee9" stroke-width="1" stroke-dasharray="4 4"/></g></svg>