<svg xmlns="http://www.w3.org/2000/svg" width="760" height="520" viewBox="0 0 760 520"><rect width="760" height="520" fill="#fffdf7"/><text x="28" y="38" font-size="24" font-family="DejaVu Sans, Arial" font-weight="700" fill="#1f2933">Chapter 11 experiment</text><text x="28" y="64" font-size="14" font-family="DejaVu Sans, Arial" fill="#1f2933">Perturb the model and inspect what remains invariant</text><g font-family="DejaVu Sans, Arial"><polyline points="167.6,269.7 170.7,272.0 173.7,274.5 176.8,277.0 179.8,279.6 182.9,282.3 185.9,285.0 189.0,287.8 192.0,290.6 195.1,293.4 198.2,296.3 201.2,299.2 204.3,302.1 207.3,304.9 210.4,307.8 213.4,310.7 216.5,313.5 219.6,316.3 222.6,319.0 225.7,321.7 228.7,324.4 231.8,326.9 234.8,329.4 237.9,331.8 240.9,334.1 244.0,336.4 247.1,338.5 250.1,340.5 253.2,342.4 256.2,344.1 259.3,345.8 262.3,347.3 265.4,348.7 268.5,349.9 271.5,351.0 274.6,351.9 277.6,352.7 280.7,353.4 283.7,353.9 286.8,354.2 289.8,354.4 292.9,354.4 296.0,354.3 299.0,354.0 302.1,353.5 305.1,352.9 308.2,352.1 311.2,351.2 314.3,350.2 317.3,349.0 320.4,347.6 323.5,346.2 326.5,344.5 329.6,342.8 332.6,340.9 335.7,339.0 338.7,336.9 341.8,334.7 344.9,332.4 347.9,330.0 351.0,327.5 354.0,325.0 357.1,322.4 360.1,319.7 363.2,316.9 366.2,314.2 369.3,311.3 372.4,308.5 375.4,305.6 378.5,302.7 381.5,299.9 384.6,297.0 387.6,294.1 390.7,291.3 393.8,288.4 396.8,285.7 399.9,282.9 402.9,280.2 406.0,277.6 409.0,275.1 412.1,272.6 415.1,270.2 418.2,267.9 421.3,265.7 424.3,263.6 427.4,261.7 430.4,259.8 433.5,258.1 436.5,256.4 439.6,255.0 442.7,253.6 445.7,252.4 448.8,251.4 451.8,250.5 454.9,249.7 457.9,249.1 461.0,248.6 464.0,248.3 467.1,248.2 470.2,248.2 473.2,248.4 476.3,248.7 479.3,249.2 482.4,249.9 485.4,250.7 488.5,251.6 491.5,252.7 494.6,253.9 497.7,255.3 500.7,256.8 503.8,258.5 506.8,260.2 509.9,262.1 512.9,264.1 516.0,266.2 519.1,268.5 522.1,270.8 525.2,273.2 528.2,275.7 531.3,278.2 534.3,280.9 537.4,283.6 540.4,286.3 543.5,289.1 546.6,291.9 549.6,294.8 552.7,297.7 555.7,300.5 558.8,303.4 561.8,306.3 564.9,309.2 568.0,312.0 571.0,314.8 574.1,317.6 577.1,320.3 580.2,323.0 583.2,325.6 586.3,328.1 589.3,330.6 592.4,332.9" fill="none" stroke="#2364aa" stroke-width="2" stroke-linejoin="round"/>
<polyline points="167.6,260.6 170.7,263.5 173.7,266.4 176.8,269.2 179.8,272.1 182.9,274.9 185.9,277.6 189.0,280.3 192.0,282.9 195.1,285.5 198.2,288.0 201.2,290.4 204.3,292.7 207.3,295.0 210.4,297.1 213.4,299.1 216.5,301.0 219.6,302.8 222.6,304.4 225.7,305.9 228.7,307.3 231.8,308.5 234.8,309.6 237.9,310.6 240.9,311.4 244.0,312.0 247.1,312.5 250.1,312.9 253.2,313.1 256.2,313.1 259.3,313.0 262.3,312.7 265.4,312.2 268.5,311.6 271.5,310.9 274.6,310.0 277.6,308.9 280.7,307.7 283.7,306.4 286.8,304.9 289.8,303.3 292.9,301.6 296.0,299.7 299.0,297.8 302.1,295.7 305.1,293.5 308.2,291.2 311.2,288.8 314.3,286.4 317.3,283.8 320.4,281.2 323.5,278.5 326.5,275.8 329.6,273.0 332.6,270.2 335.7,267.3 338.7,264.5 341.8,261.6 344.9,258.7 347.9,255.8 351.0,252.9 354.0,250.1 357.1,247.3 360.1,244.5 363.2,241.7 366.2,239.1 369.3,236.4 372.4,233.9 375.4,231.4 378.5,229.0 381.5,226.7 384.6,224.5 387.6,222.4 390.7,220.4 393.8,218.6 396.8,216.8 399.9,215.2 402.9,213.7 406.0,212.4 409.0,211.2 412.1,210.1 415.1,209.2 418.2,208.4 421.3,207.8 424.3,207.4 427.4,207.1 430.4,206.9 433.5,206.9 436.5,207.1 439.6,207.4 442.7,207.9 445.7,208.5 448.8,209.3 451.8,210.3 454.9,211.3 457.9,212.6 461.0,213.9 464.0,215.4 467.1,217.1 470.2,218.8 473.2,220.7 476.3,222.7 479.3,224.8 482.4,227.0 485.4,229.4 488.5,231.8 491.5,234.2 494.6,236.8 497.7,239.4 500.7,242.1 503.8,244.9 506.8,247.7 509.9,250.5 512.9,253.3 516.0,256.2 519.1,259.1 522.1,262.0 525.2,264.9 528.2,267.7 531.3,270.6 534.3,273.4 537.4,276.2 540.4,278.9 543.5,281.6 546.6,284.2 549.6,286.7 552.7,289.2 555.7,291.5 558.8,293.8 561.8,296.0 564.9,298.1 568.0,300.0 571.0,301.8 574.1,303.6 577.1,305.1 580.2,306.6 583.2,307.9 586.3,309.1 589.3,310.1 592.4,311.0" fill="none" stroke="#f97316" stroke-width="2" stroke-linejoin="round"/>
<polyline points="167.6,251.3 170.7,253.6 173.7,255.7 176.8,257.7 179.8,259.6 182.9,261.4 185.9,263.0 189.0,264.6 192.0,265.9 195.1,267.2 198.2,268.3 201.2,269.3 204.3,270.1 207.3,270.7 210.4,271.2 213.4,271.6 216.5,271.8 219.6,271.8 222.6,271.7 225.7,271.4 228.7,271.0 231.8,270.4 234.8,269.6 237.9,268.7 240.9,267.7 244.0,266.5 247.1,265.2 250.1,263.7 253.2,262.1 256.2,260.4 259.3,258.5 262.3,256.6 265.4,254.5 268.5,252.3 271.5,250.0 274.6,247.6 277.6,245.2 280.7,242.6 283.7,240.0 286.8,237.3 289.8,234.6 292.9,231.8 296.0,229.0 299.0,226.2 302.1,223.3 305.1,220.4 308.2,217.5 311.2,214.7 314.3,211.8 317.3,208.9 320.4,206.1 323.5,203.3 326.5,200.6 329.6,197.9 332.6,195.3 335.7,192.7 338.7,190.2 341.8,187.8 344.9,185.5 347.9,183.3 351.0,181.2 354.0,179.2 357.1,177.4 360.1,175.6 363.2,174.0 366.2,172.5 369.3,171.1 372.4,169.9 375.4,168.9 378.5,167.9 381.5,167.2 384.6,166.5 387.6,166.1 390.7,165.8 393.8,165.6 396.8,165.6 399.9,165.8 402.9,166.1 406.0,166.6 409.0,167.2 412.1,168.0 415.1,168.9 418.2,170.0 421.3,171.2 424.3,172.6 427.4,174.1 430.4,175.7 433.5,177.4 436.5,179.3 439.6,181.3 442.7,183.4 445.7,185.6 448.8,187.9 451.8,190.3 454.9,192.8 457.9,195.4 461.0,198.0 464.0,200.7 467.1,203.4 470.2,206.2 473.2,209.1 476.3,211.9 479.3,214.8 482.4,217.7 485.4,220.5 488.5,223.4 491.5,226.3 494.6,229.1 497.7,232.0 500.7,234.7 503.8,237.5 506.8,240.1 509.9,242.7 512.9,245.3 516.0,247.7 519.1,250.1 522.1,252.4 525.2,254.6 528.2,256.7 531.3,258.6 534.3,260.5 537.4,262.2 540.4,263.8 543.5,265.2 546.6,266.6 549.6,267.7 552.7,268.8 555.7,269.7 558.8,270.4 561.8,271.0 564.9,271.4 568.0,271.7 571.0,271.8 574.1,271.8 577.1,271.6 580.2,271.2 583.2,270.7 586.3,270.0 589.3,269.2 592.4,268.3" fill="none" stroke="#2f9e44" stroke-width="2" stroke-linejoin="round"/>
<line x1="167.6" y1="260.0" x2="592.4" y2="260.0" stroke="#d8dee9" stroke-width="1" stroke-dasharray="4 4"/></g></svg>