<?xml version="1.0" encoding="utf-8" standalone="no"?>
<!DOCTYPE svg PUBLIC "-//W3C//DTD SVG 1.1//EN"
  "http://www.w3.org/Graphics/SVG/1.1/DTD/svg11.dtd">
<svg xmlns:xlink="http://www.w3.org/1999/xlink" width="818.51336pt" height="338.450589pt" viewBox="0 0 818.51336 338.450589" xmlns="http://www.w3.org/2000/svg" version="1.1">
 <metadata>
  <rdf:RDF xmlns:dc="http://purl.org/dc/elements/1.1/" xmlns:cc="http://creativecommons.org/ns#" xmlns:rdf="http://www.w3.org/1999/02/22-rdf-syntax-ns#">
   <cc:Work>
    <dc:type rdf:resource="http://purl.org/dc/dcmitype/StillImage"/>
    <dc:date>2026-05-12T07:25:50.388766</dc:date>
    <dc:format>image/svg+xml</dc:format>
    <dc:creator>
     <cc:Agent>
      <dc:title>Matplotlib v3.10.9, https://matplotlib.org/</dc:title>
     </cc:Agent>
    </dc:creator>
   </cc:Work>
  </rdf:RDF>
 </metadata>
 <defs>
  <style type="text/css">*{stroke-linejoin: round; stroke-linecap: butt}</style>
 </defs>
 <g id="figure_1">
  <g id="patch_1">
   <path d="M 0 338.450589 
L 818.51336 338.450589 
L 818.51336 0 
L 0 0 
z
" style="fill: #ffffff"/>
  </g>
  <g id="axes_1">
   <g id="patch_2">
    <path d="M 7.2 331.250589 
L 811.31336 331.250589 
L 811.31336 21.558281 
L 7.2 21.558281 
z
" style="fill: #ffffff"/>
   </g>
   <g id="patch_3">
    <path d="M 45.232389 266.052208 
L 153.896356 266.052208 
L 153.896356 157.388241 
L 45.232389 157.388241 
L 45.232389 266.052208 
z
" clip-path="url(#p4391621d08)" style="fill: none; stroke: #2563eb; stroke-width: 2; stroke-linejoin: miter"/>
   </g>
   <g id="patch_4">
    <path d="M 56.098785 255.185812 
L 148.463158 246.492694 
L 72.398381 173.687836 
z
" clip-path="url(#p4391621d08)" style="fill: #2563eb; opacity: 0.15; stroke: #2563eb; stroke-width: 1.8; stroke-linejoin: miter"/>
   </g>
   <g id="patch_5">
    <path d="M 213.661538 266.052208 
L 322.325506 266.052208 
L 403.823482 157.388241 
L 295.159514 157.388241 
L 213.661538 266.052208 
z
" clip-path="url(#p4391621d08)" style="fill: none; stroke: #059669; stroke-width: 2; stroke-linejoin: miter"/>
   </g>
   <g id="patch_6">
    <path d="M 232.677733 255.185812 
L 331.561943 246.492694 
L 310.10081 173.687836 
z
" clip-path="url(#p4391621d08)" style="fill: #059669; opacity: 0.15; stroke: #059669; stroke-width: 1.8; stroke-linejoin: miter"/>
   </g>
   <g id="patch_7">
    <path d="M 398.390283 266.052208 
L 555.953036 266.052208 
L 555.953036 191.111541 
L 398.390283 191.111541 
L 398.390283 266.052208 
z
" clip-path="url(#p4391621d08)" style="fill: none; stroke: #7c3aed; stroke-width: 2; stroke-linejoin: miter"/>
   </g>
   <g id="patch_8">
    <path d="M 414.146559 258.558142 
L 548.074899 252.562888 
L 437.780972 202.352641 
z
" clip-path="url(#p4391621d08)" style="fill: #7c3aed; opacity: 0.15; stroke: #7c3aed; stroke-width: 1.8; stroke-linejoin: miter"/>
   </g>
   <g id="patch_9">
    <path d="M 599.418623 249.752613 
L 735.248583 271.485407 
L 784.147368 182.380953 
L 648.317409 160.64816 
L 599.418623 249.752613 
z
" clip-path="url(#p4391621d08)" style="fill: none; stroke: #dc2626; stroke-width: 2; stroke-linejoin: miter"/>
   </g>
   <g id="patch_10">
    <path d="M 617.891498 243.015447 
L 737.258866 254.359965 
L 674.940081 179.447026 
z
" clip-path="url(#p4391621d08)" style="fill: #dc2626; opacity: 0.15; stroke: #dc2626; stroke-width: 1.8; stroke-linejoin: miter"/>
   </g>
   <g id="matplotlib.axis_1">
    <g id="xtick_1">
     <g id="line2d_1">
      <path d="M 45.232389 331.250589 
L 45.232389 21.558281 
" clip-path="url(#p4391621d08)" style="fill: none; stroke: #e5e7eb; stroke-width: 0.7; stroke-linecap: square"/>
     </g>
     <g id="line2d_2"/>
    </g>
    <g id="xtick_2">
     <g id="line2d_3">
      <path d="M 153.896356 331.250589 
L 153.896356 21.558281 
" clip-path="url(#p4391621d08)" style="fill: none; stroke: #e5e7eb; stroke-width: 0.7; stroke-linecap: square"/>
     </g>
     <g id="line2d_4"/>
    </g>
    <g id="xtick_3">
     <g id="line2d_5">
      <path d="M 262.560324 331.250589 
L 262.560324 21.558281 
" clip-path="url(#p4391621d08)" style="fill: none; stroke: #e5e7eb; stroke-width: 0.7; stroke-linecap: square"/>
     </g>
     <g id="line2d_6"/>
    </g>
    <g id="xtick_4">
     <g id="line2d_7">
      <path d="M 371.224291 331.250589 
L 371.224291 21.558281 
" clip-path="url(#p4391621d08)" style="fill: none; stroke: #e5e7eb; stroke-width: 0.7; stroke-linecap: square"/>
     </g>
     <g id="line2d_8"/>
    </g>
    <g id="xtick_5">
     <g id="line2d_9">
      <path d="M 479.888259 331.250589 
L 479.888259 21.558281 
" clip-path="url(#p4391621d08)" style="fill: none; stroke: #e5e7eb; stroke-width: 0.7; stroke-linecap: square"/>
     </g>
     <g id="line2d_10"/>
    </g>
    <g id="xtick_6">
     <g id="line2d_11">
      <path d="M 588.552227 331.250589 
L 588.552227 21.558281 
" clip-path="url(#p4391621d08)" style="fill: none; stroke: #e5e7eb; stroke-width: 0.7; stroke-linecap: square"/>
     </g>
     <g id="line2d_12"/>
    </g>
    <g id="xtick_7">
     <g id="line2d_13">
      <path d="M 697.216194 331.250589 
L 697.216194 21.558281 
" clip-path="url(#p4391621d08)" style="fill: none; stroke: #e5e7eb; stroke-width: 0.7; stroke-linecap: square"/>
     </g>
     <g id="line2d_14"/>
    </g>
    <g id="xtick_8">
     <g id="line2d_15">
      <path d="M 805.880162 331.250589 
L 805.880162 21.558281 
" clip-path="url(#p4391621d08)" style="fill: none; stroke: #e5e7eb; stroke-width: 0.7; stroke-linecap: square"/>
     </g>
     <g id="line2d_16"/>
    </g>
   </g>
   <g id="matplotlib.axis_2">
    <g id="ytick_1">
     <g id="line2d_17">
      <path d="M 7.2 320.384192 
L 811.31336 320.384192 
" clip-path="url(#p4391621d08)" style="fill: none; stroke: #e5e7eb; stroke-width: 0.7; stroke-linecap: square"/>
     </g>
     <g id="line2d_18"/>
    </g>
    <g id="ytick_2">
     <g id="line2d_19">
      <path d="M 7.2 266.052208 
L 811.31336 266.052208 
" clip-path="url(#p4391621d08)" style="fill: none; stroke: #e5e7eb; stroke-width: 0.7; stroke-linecap: square"/>
     </g>
     <g id="line2d_20"/>
    </g>
    <g id="ytick_3">
     <g id="line2d_21">
      <path d="M 7.2 211.720225 
L 811.31336 211.720225 
" clip-path="url(#p4391621d08)" style="fill: none; stroke: #e5e7eb; stroke-width: 0.7; stroke-linecap: square"/>
     </g>
     <g id="line2d_22"/>
    </g>
    <g id="ytick_4">
     <g id="line2d_23">
      <path d="M 7.2 157.388241 
L 811.31336 157.388241 
" clip-path="url(#p4391621d08)" style="fill: none; stroke: #e5e7eb; stroke-width: 0.7; stroke-linecap: square"/>
     </g>
     <g id="line2d_24"/>
    </g>
    <g id="ytick_5">
     <g id="line2d_25">
      <path d="M 7.2 103.056257 
L 811.31336 103.056257 
" clip-path="url(#p4391621d08)" style="fill: none; stroke: #e5e7eb; stroke-width: 0.7; stroke-linecap: square"/>
     </g>
     <g id="line2d_26"/>
    </g>
    <g id="ytick_6">
     <g id="line2d_27">
      <path d="M 7.2 48.724273 
L 811.31336 48.724273 
" clip-path="url(#p4391621d08)" style="fill: none; stroke: #e5e7eb; stroke-width: 0.7; stroke-linecap: square"/>
     </g>
     <g id="line2d_28"/>
    </g>
   </g>
   <g id="line2d_29">
    <path d="M 45.232389 266.052208 
L 45.232389 157.388241 
" clip-path="url(#p4391621d08)" style="fill: none; stroke: #d1d5db; stroke-width: 0.8; stroke-linecap: square"/>
   </g>
   <g id="line2d_30">
    <path d="M 45.232389 266.052208 
L 153.896356 266.052208 
" clip-path="url(#p4391621d08)" style="fill: none; stroke: #d1d5db; stroke-width: 0.8; stroke-linecap: square"/>
   </g>
   <g id="line2d_31">
    <path d="M 66.965182 266.052208 
L 66.965182 157.388241 
" clip-path="url(#p4391621d08)" style="fill: none; stroke: #d1d5db; stroke-width: 0.8; stroke-linecap: square"/>
   </g>
   <g id="line2d_32">
    <path d="M 45.232389 244.319415 
L 153.896356 244.319415 
" clip-path="url(#p4391621d08)" style="fill: none; stroke: #d1d5db; stroke-width: 0.8; stroke-linecap: square"/>
   </g>
   <g id="line2d_33">
    <path d="M 88.697976 266.052208 
L 88.697976 157.388241 
" clip-path="url(#p4391621d08)" style="fill: none; stroke: #d1d5db; stroke-width: 0.8; stroke-linecap: square"/>
   </g>
   <g id="line2d_34">
    <path d="M 45.232389 222.586621 
L 153.896356 222.586621 
" clip-path="url(#p4391621d08)" style="fill: none; stroke: #d1d5db; stroke-width: 0.8; stroke-linecap: square"/>
   </g>
   <g id="line2d_35">
    <path d="M 110.430769 266.052208 
L 110.430769 157.388241 
" clip-path="url(#p4391621d08)" style="fill: none; stroke: #d1d5db; stroke-width: 0.8; stroke-linecap: square"/>
   </g>
   <g id="line2d_36">
    <path d="M 45.232389 200.853828 
L 153.896356 200.853828 
" clip-path="url(#p4391621d08)" style="fill: none; stroke: #d1d5db; stroke-width: 0.8; stroke-linecap: square"/>
   </g>
   <g id="line2d_37">
    <path d="M 132.163563 266.052208 
L 132.163563 157.388241 
" clip-path="url(#p4391621d08)" style="fill: none; stroke: #d1d5db; stroke-width: 0.8; stroke-linecap: square"/>
   </g>
   <g id="line2d_38">
    <path d="M 45.232389 179.121034 
L 153.896356 179.121034 
" clip-path="url(#p4391621d08)" style="fill: none; stroke: #d1d5db; stroke-width: 0.8; stroke-linecap: square"/>
   </g>
   <g id="line2d_39">
    <path d="M 153.896356 266.052208 
L 153.896356 157.388241 
" clip-path="url(#p4391621d08)" style="fill: none; stroke: #d1d5db; stroke-width: 0.8; stroke-linecap: square"/>
   </g>
   <g id="line2d_40">
    <path d="M 45.232389 157.388241 
L 153.896356 157.388241 
" clip-path="url(#p4391621d08)" style="fill: none; stroke: #d1d5db; stroke-width: 0.8; stroke-linecap: square"/>
   </g>
   <g id="line2d_41">
    <path d="M 213.661538 266.052208 
L 295.159514 157.388241 
" clip-path="url(#p4391621d08)" style="fill: none; stroke: #d1d5db; stroke-width: 0.8; stroke-linecap: square"/>
   </g>
   <g id="line2d_42">
    <path d="M 213.661538 266.052208 
L 322.325506 266.052208 
" clip-path="url(#p4391621d08)" style="fill: none; stroke: #d1d5db; stroke-width: 0.8; stroke-linecap: square"/>
   </g>
   <g id="line2d_43">
    <path d="M 235.394332 266.052208 
L 316.892308 157.388241 
" clip-path="url(#p4391621d08)" style="fill: none; stroke: #d1d5db; stroke-width: 0.8; stroke-linecap: square"/>
   </g>
   <g id="line2d_44">
    <path d="M 229.961134 244.319415 
L 338.625101 244.319415 
" clip-path="url(#p4391621d08)" style="fill: none; stroke: #d1d5db; stroke-width: 0.8; stroke-linecap: square"/>
   </g>
   <g id="line2d_45">
    <path d="M 257.127126 266.052208 
L 338.625101 157.388241 
" clip-path="url(#p4391621d08)" style="fill: none; stroke: #d1d5db; stroke-width: 0.8; stroke-linecap: square"/>
   </g>
   <g id="line2d_46">
    <path d="M 246.260729 222.586621 
L 354.924696 222.586621 
" clip-path="url(#p4391621d08)" style="fill: none; stroke: #d1d5db; stroke-width: 0.8; stroke-linecap: square"/>
   </g>
   <g id="line2d_47">
    <path d="M 278.859919 266.052208 
L 360.357895 157.388241 
" clip-path="url(#p4391621d08)" style="fill: none; stroke: #d1d5db; stroke-width: 0.8; stroke-linecap: square"/>
   </g>
   <g id="line2d_48">
    <path d="M 262.560324 200.853828 
L 371.224291 200.853828 
" clip-path="url(#p4391621d08)" style="fill: none; stroke: #d1d5db; stroke-width: 0.8; stroke-linecap: square"/>
   </g>
   <g id="line2d_49">
    <path d="M 300.592713 266.052208 
L 382.090688 157.388241 
" clip-path="url(#p4391621d08)" style="fill: none; stroke: #d1d5db; stroke-width: 0.8; stroke-linecap: square"/>
   </g>
   <g id="line2d_50">
    <path d="M 278.859919 179.121034 
L 387.523887 179.121034 
" clip-path="url(#p4391621d08)" style="fill: none; stroke: #d1d5db; stroke-width: 0.8; stroke-linecap: square"/>
   </g>
   <g id="line2d_51">
    <path d="M 322.325506 266.052208 
L 403.823482 157.388241 
" clip-path="url(#p4391621d08)" style="fill: none; stroke: #d1d5db; stroke-width: 0.8; stroke-linecap: square"/>
   </g>
   <g id="line2d_52">
    <path d="M 295.159514 157.388241 
L 403.823482 157.388241 
" clip-path="url(#p4391621d08)" style="fill: none; stroke: #d1d5db; stroke-width: 0.8; stroke-linecap: square"/>
   </g>
   <g id="line2d_53">
    <path d="M 398.390283 266.052208 
L 398.390283 191.111541 
" clip-path="url(#p4391621d08)" style="fill: none; stroke: #d1d5db; stroke-width: 0.8; stroke-linecap: square"/>
   </g>
   <g id="line2d_54">
    <path d="M 398.390283 266.052208 
L 555.953036 266.052208 
" clip-path="url(#p4391621d08)" style="fill: none; stroke: #d1d5db; stroke-width: 0.8; stroke-linecap: square"/>
   </g>
   <g id="line2d_55">
    <path d="M 429.902834 266.052208 
L 429.902834 191.111541 
" clip-path="url(#p4391621d08)" style="fill: none; stroke: #d1d5db; stroke-width: 0.8; stroke-linecap: square"/>
   </g>
   <g id="line2d_56">
    <path d="M 398.390283 251.064075 
L 555.953036 251.064075 
" clip-path="url(#p4391621d08)" style="fill: none; stroke: #d1d5db; stroke-width: 0.8; stroke-linecap: square"/>
   </g>
   <g id="line2d_57">
    <path d="M 461.415385 266.052208 
L 461.415385 191.111541 
" clip-path="url(#p4391621d08)" style="fill: none; stroke: #d1d5db; stroke-width: 0.8; stroke-linecap: square"/>
   </g>
   <g id="line2d_58">
    <path d="M 398.390283 236.075941 
L 555.953036 236.075941 
" clip-path="url(#p4391621d08)" style="fill: none; stroke: #d1d5db; stroke-width: 0.8; stroke-linecap: square"/>
   </g>
   <g id="line2d_59">
    <path d="M 492.927935 266.052208 
L 492.927935 191.111541 
" clip-path="url(#p4391621d08)" style="fill: none; stroke: #d1d5db; stroke-width: 0.8; stroke-linecap: square"/>
   </g>
   <g id="line2d_60">
    <path d="M 398.390283 221.087808 
L 555.953036 221.087808 
" clip-path="url(#p4391621d08)" style="fill: none; stroke: #d1d5db; stroke-width: 0.8; stroke-linecap: square"/>
   </g>
   <g id="line2d_61">
    <path d="M 524.440486 266.052208 
L 524.440486 191.111541 
" clip-path="url(#p4391621d08)" style="fill: none; stroke: #d1d5db; stroke-width: 0.8; stroke-linecap: square"/>
   </g>
   <g id="line2d_62">
    <path d="M 398.390283 206.099675 
L 555.953036 206.099675 
" clip-path="url(#p4391621d08)" style="fill: none; stroke: #d1d5db; stroke-width: 0.8; stroke-linecap: square"/>
   </g>
   <g id="line2d_63">
    <path d="M 555.953036 266.052208 
L 555.953036 191.111541 
" clip-path="url(#p4391621d08)" style="fill: none; stroke: #d1d5db; stroke-width: 0.8; stroke-linecap: square"/>
   </g>
   <g id="line2d_64">
    <path d="M 398.390283 191.111541 
L 555.953036 191.111541 
" clip-path="url(#p4391621d08)" style="fill: none; stroke: #d1d5db; stroke-width: 0.8; stroke-linecap: square"/>
   </g>
   <g id="line2d_65">
    <path d="M 599.418623 249.752613 
L 648.317409 160.64816 
" clip-path="url(#p4391621d08)" style="fill: none; stroke: #d1d5db; stroke-width: 0.8; stroke-linecap: square"/>
   </g>
   <g id="line2d_66">
    <path d="M 599.418623 249.752613 
L 735.248583 271.485407 
" clip-path="url(#p4391621d08)" style="fill: none; stroke: #d1d5db; stroke-width: 0.8; stroke-linecap: square"/>
   </g>
   <g id="line2d_67">
    <path d="M 626.584615 254.099172 
L 675.483401 164.994718 
" clip-path="url(#p4391621d08)" style="fill: none; stroke: #d1d5db; stroke-width: 0.8; stroke-linecap: square"/>
   </g>
   <g id="line2d_68">
    <path d="M 609.198381 231.931723 
L 745.02834 253.664516 
" clip-path="url(#p4391621d08)" style="fill: none; stroke: #d1d5db; stroke-width: 0.8; stroke-linecap: square"/>
   </g>
   <g id="line2d_69">
    <path d="M 653.750607 258.445731 
L 702.649393 169.341277 
" clip-path="url(#p4391621d08)" style="fill: none; stroke: #d1d5db; stroke-width: 0.8; stroke-linecap: square"/>
   </g>
   <g id="line2d_70">
    <path d="M 618.978138 214.110832 
L 754.808097 235.843625 
" clip-path="url(#p4391621d08)" style="fill: none; stroke: #d1d5db; stroke-width: 0.8; stroke-linecap: square"/>
   </g>
   <g id="line2d_71">
    <path d="M 680.916599 262.792289 
L 729.815385 173.687836 
" clip-path="url(#p4391621d08)" style="fill: none; stroke: #d1d5db; stroke-width: 0.8; stroke-linecap: square"/>
   </g>
   <g id="line2d_72">
    <path d="M 628.757895 196.289941 
L 764.587854 218.022735 
" clip-path="url(#p4391621d08)" style="fill: none; stroke: #d1d5db; stroke-width: 0.8; stroke-linecap: square"/>
   </g>
   <g id="line2d_73">
    <path d="M 708.082591 267.138848 
L 756.981377 178.034395 
" clip-path="url(#p4391621d08)" style="fill: none; stroke: #d1d5db; stroke-width: 0.8; stroke-linecap: square"/>
   </g>
   <g id="line2d_74">
    <path d="M 638.537652 178.46905 
L 774.367611 200.201844 
" clip-path="url(#p4391621d08)" style="fill: none; stroke: #d1d5db; stroke-width: 0.8; stroke-linecap: square"/>
   </g>
   <g id="line2d_75">
    <path d="M 735.248583 271.485407 
L 784.147368 182.380953 
" clip-path="url(#p4391621d08)" style="fill: none; stroke: #d1d5db; stroke-width: 0.8; stroke-linecap: square"/>
   </g>
   <g id="line2d_76">
    <path d="M 648.317409 160.64816 
L 784.147368 182.380953 
" clip-path="url(#p4391621d08)" style="fill: none; stroke: #d1d5db; stroke-width: 0.8; stroke-linecap: square"/>
   </g>
   <g id="text_1">
    <!-- identity -->
    <g style="fill: #2563eb" transform="translate(76.961565 128.052256) scale(0.09 -0.09)">
     <defs>
      <path id="DejaVuSans-69" d="M 603 3500 
L 1178 3500 
L 1178 0 
L 603 0 
L 603 3500 
z
M 603 4863 
L 1178 4863 
L 1178 4134 
L 603 4134 
L 603 4863 
z
" transform="scale(0.015625)"/>
      <path id="DejaVuSans-64" d="M 2906 2969 
L 2906 4863 
L 3481 4863 
L 3481 0 
L 2906 0 
L 2906 525 
Q 2725 213 2448 61 
Q 2172 -91 1784 -91 
Q 1150 -91 751 415 
Q 353 922 353 1747 
Q 353 2572 751 3078 
Q 1150 3584 1784 3584 
Q 2172 3584 2448 3432 
Q 2725 3281 2906 2969 
z
M 947 1747 
Q 947 1113 1208 752 
Q 1469 391 1925 391 
Q 2381 391 2643 752 
Q 2906 1113 2906 1747 
Q 2906 2381 2643 2742 
Q 2381 3103 1925 3103 
Q 1469 3103 1208 2742 
Q 947 2381 947 1747 
z
" transform="scale(0.015625)"/>
      <path id="DejaVuSans-65" d="M 3597 1894 
L 3597 1613 
L 953 1613 
Q 991 1019 1311 708 
Q 1631 397 2203 397 
Q 2534 397 2845 478 
Q 3156 559 3463 722 
L 3463 178 
Q 3153 47 2828 -22 
Q 2503 -91 2169 -91 
Q 1331 -91 842 396 
Q 353 884 353 1716 
Q 353 2575 817 3079 
Q 1281 3584 2069 3584 
Q 2775 3584 3186 3129 
Q 3597 2675 3597 1894 
z
M 3022 2063 
Q 3016 2534 2758 2815 
Q 2500 3097 2075 3097 
Q 1594 3097 1305 2825 
Q 1016 2553 972 2059 
L 3022 2063 
z
" transform="scale(0.015625)"/>
      <path id="DejaVuSans-6e" d="M 3513 2113 
L 3513 0 
L 2938 0 
L 2938 2094 
Q 2938 2591 2744 2837 
Q 2550 3084 2163 3084 
Q 1697 3084 1428 2787 
Q 1159 2491 1159 1978 
L 1159 0 
L 581 0 
L 581 3500 
L 1159 3500 
L 1159 2956 
Q 1366 3272 1645 3428 
Q 1925 3584 2291 3584 
Q 2894 3584 3203 3211 
Q 3513 2838 3513 2113 
z
" transform="scale(0.015625)"/>
      <path id="DejaVuSans-74" d="M 1172 4494 
L 1172 3500 
L 2356 3500 
L 2356 3053 
L 1172 3053 
L 1172 1153 
Q 1172 725 1289 603 
Q 1406 481 1766 481 
L 2356 481 
L 2356 0 
L 1766 0 
Q 1100 0 847 248 
Q 594 497 594 1153 
L 594 3053 
L 172 3053 
L 172 3500 
L 594 3500 
L 594 4494 
L 1172 4494 
z
" transform="scale(0.015625)"/>
      <path id="DejaVuSans-79" d="M 2059 -325 
Q 1816 -950 1584 -1140 
Q 1353 -1331 966 -1331 
L 506 -1331 
L 506 -850 
L 844 -850 
Q 1081 -850 1212 -737 
Q 1344 -625 1503 -206 
L 1606 56 
L 191 3500 
L 800 3500 
L 1894 763 
L 2988 3500 
L 3597 3500 
L 2059 -325 
z
" transform="scale(0.015625)"/>
     </defs>
     <use xlink:href="#DejaVuSans-69"/>
     <use xlink:href="#DejaVuSans-64" transform="translate(27.783203 0)"/>
     <use xlink:href="#DejaVuSans-65" transform="translate(91.259766 0)"/>
     <use xlink:href="#DejaVuSans-6e" transform="translate(152.783203 0)"/>
     <use xlink:href="#DejaVuSans-74" transform="translate(216.162109 0)"/>
     <use xlink:href="#DejaVuSans-69" transform="translate(255.371094 0)"/>
     <use xlink:href="#DejaVuSans-74" transform="translate(283.154297 0)"/>
     <use xlink:href="#DejaVuSans-79" transform="translate(322.363281 0)"/>
    </g>
    <!-- det=1.000 -->
    <g style="fill: #2563eb" transform="translate(70.087815 138.130287) scale(0.09 -0.09)">
     <defs>
      <path id="DejaVuSans-3d" d="M 678 2906 
L 4684 2906 
L 4684 2381 
L 678 2381 
L 678 2906 
z
M 678 1631 
L 4684 1631 
L 4684 1100 
L 678 1100 
L 678 1631 
z
" transform="scale(0.015625)"/>
      <path id="DejaVuSans-31" d="M 794 531 
L 1825 531 
L 1825 4091 
L 703 3866 
L 703 4441 
L 1819 4666 
L 2450 4666 
L 2450 531 
L 3481 531 
L 3481 0 
L 794 0 
L 794 531 
z
" transform="scale(0.015625)"/>
      <path id="DejaVuSans-2e" d="M 684 794 
L 1344 794 
L 1344 0 
L 684 0 
L 684 794 
z
" transform="scale(0.015625)"/>
      <path id="DejaVuSans-30" d="M 2034 4250 
Q 1547 4250 1301 3770 
Q 1056 3291 1056 2328 
Q 1056 1369 1301 889 
Q 1547 409 2034 409 
Q 2525 409 2770 889 
Q 3016 1369 3016 2328 
Q 3016 3291 2770 3770 
Q 2525 4250 2034 4250 
z
M 2034 4750 
Q 2819 4750 3233 4129 
Q 3647 3509 3647 2328 
Q 3647 1150 3233 529 
Q 2819 -91 2034 -91 
Q 1250 -91 836 529 
Q 422 1150 422 2328 
Q 422 3509 836 4129 
Q 1250 4750 2034 4750 
z
" transform="scale(0.015625)"/>
     </defs>
     <use xlink:href="#DejaVuSans-64"/>
     <use xlink:href="#DejaVuSans-65" transform="translate(63.476562 0)"/>
     <use xlink:href="#DejaVuSans-74" transform="translate(125 0)"/>
     <use xlink:href="#DejaVuSans-3d" transform="translate(164.208984 0)"/>
     <use xlink:href="#DejaVuSans-31" transform="translate(247.998047 0)"/>
     <use xlink:href="#DejaVuSans-2e" transform="translate(311.621094 0)"/>
     <use xlink:href="#DejaVuSans-30" transform="translate(343.408203 0)"/>
     <use xlink:href="#DejaVuSans-30" transform="translate(407.03125 0)"/>
     <use xlink:href="#DejaVuSans-30" transform="translate(470.654297 0)"/>
    </g>
   </g>
   <g id="text_2">
    <!-- equiaffine shear -->
    <g style="fill: #059669" transform="translate(320.570632 128.052256) scale(0.09 -0.09)">
     <defs>
      <path id="DejaVuSans-71" d="M 947 1747 
Q 947 1113 1208 752 
Q 1469 391 1925 391 
Q 2381 391 2643 752 
Q 2906 1113 2906 1747 
Q 2906 2381 2643 2742 
Q 2381 3103 1925 3103 
Q 1469 3103 1208 2742 
Q 947 2381 947 1747 
z
M 2906 525 
Q 2725 213 2448 61 
Q 2172 -91 1784 -91 
Q 1150 -91 751 415 
Q 353 922 353 1747 
Q 353 2572 751 3078 
Q 1150 3584 1784 3584 
Q 2172 3584 2448 3432 
Q 2725 3281 2906 2969 
L 2906 3500 
L 3481 3500 
L 3481 -1331 
L 2906 -1331 
L 2906 525 
z
" transform="scale(0.015625)"/>
      <path id="DejaVuSans-75" d="M 544 1381 
L 544 3500 
L 1119 3500 
L 1119 1403 
Q 1119 906 1312 657 
Q 1506 409 1894 409 
Q 2359 409 2629 706 
Q 2900 1003 2900 1516 
L 2900 3500 
L 3475 3500 
L 3475 0 
L 2900 0 
L 2900 538 
Q 2691 219 2414 64 
Q 2138 -91 1772 -91 
Q 1169 -91 856 284 
Q 544 659 544 1381 
z
M 1991 3584 
L 1991 3584 
z
" transform="scale(0.015625)"/>
      <path id="DejaVuSans-61" d="M 2194 1759 
Q 1497 1759 1228 1600 
Q 959 1441 959 1056 
Q 959 750 1161 570 
Q 1363 391 1709 391 
Q 2188 391 2477 730 
Q 2766 1069 2766 1631 
L 2766 1759 
L 2194 1759 
z
M 3341 1997 
L 3341 0 
L 2766 0 
L 2766 531 
Q 2569 213 2275 61 
Q 1981 -91 1556 -91 
Q 1019 -91 701 211 
Q 384 513 384 1019 
Q 384 1609 779 1909 
Q 1175 2209 1959 2209 
L 2766 2209 
L 2766 2266 
Q 2766 2663 2505 2880 
Q 2244 3097 1772 3097 
Q 1472 3097 1187 3025 
Q 903 2953 641 2809 
L 641 3341 
Q 956 3463 1253 3523 
Q 1550 3584 1831 3584 
Q 2591 3584 2966 3190 
Q 3341 2797 3341 1997 
z
" transform="scale(0.015625)"/>
      <path id="DejaVuSans-66" d="M 2375 4863 
L 2375 4384 
L 1825 4384 
Q 1516 4384 1395 4259 
Q 1275 4134 1275 3809 
L 1275 3500 
L 2222 3500 
L 2222 3053 
L 1275 3053 
L 1275 0 
L 697 0 
L 697 3053 
L 147 3053 
L 147 3500 
L 697 3500 
L 697 3744 
Q 697 4328 969 4595 
Q 1241 4863 1831 4863 
L 2375 4863 
z
" transform="scale(0.015625)"/>
      <path id="DejaVuSans-20" transform="scale(0.015625)"/>
      <path id="DejaVuSans-73" d="M 2834 3397 
L 2834 2853 
Q 2591 2978 2328 3040 
Q 2066 3103 1784 3103 
Q 1356 3103 1142 2972 
Q 928 2841 928 2578 
Q 928 2378 1081 2264 
Q 1234 2150 1697 2047 
L 1894 2003 
Q 2506 1872 2764 1633 
Q 3022 1394 3022 966 
Q 3022 478 2636 193 
Q 2250 -91 1575 -91 
Q 1294 -91 989 -36 
Q 684 19 347 128 
L 347 722 
Q 666 556 975 473 
Q 1284 391 1588 391 
Q 1994 391 2212 530 
Q 2431 669 2431 922 
Q 2431 1156 2273 1281 
Q 2116 1406 1581 1522 
L 1381 1569 
Q 847 1681 609 1914 
Q 372 2147 372 2553 
Q 372 3047 722 3315 
Q 1072 3584 1716 3584 
Q 2034 3584 2315 3537 
Q 2597 3491 2834 3397 
z
" transform="scale(0.015625)"/>
      <path id="DejaVuSans-68" d="M 3513 2113 
L 3513 0 
L 2938 0 
L 2938 2094 
Q 2938 2591 2744 2837 
Q 2550 3084 2163 3084 
Q 1697 3084 1428 2787 
Q 1159 2491 1159 1978 
L 1159 0 
L 581 0 
L 581 4863 
L 1159 4863 
L 1159 2956 
Q 1366 3272 1645 3428 
Q 1925 3584 2291 3584 
Q 2894 3584 3203 3211 
Q 3513 2838 3513 2113 
z
" transform="scale(0.015625)"/>
      <path id="DejaVuSans-72" d="M 2631 2963 
Q 2534 3019 2420 3045 
Q 2306 3072 2169 3072 
Q 1681 3072 1420 2755 
Q 1159 2438 1159 1844 
L 1159 0 
L 581 0 
L 581 3500 
L 1159 3500 
L 1159 2956 
Q 1341 3275 1631 3429 
Q 1922 3584 2338 3584 
Q 2397 3584 2469 3576 
Q 2541 3569 2628 3553 
L 2631 2963 
z
" transform="scale(0.015625)"/>
     </defs>
     <use xlink:href="#DejaVuSans-65"/>
     <use xlink:href="#DejaVuSans-71" transform="translate(61.523438 0)"/>
     <use xlink:href="#DejaVuSans-75" transform="translate(125 0)"/>
     <use xlink:href="#DejaVuSans-69" transform="translate(188.378906 0)"/>
     <use xlink:href="#DejaVuSans-61" transform="translate(216.162109 0)"/>
     <use xlink:href="#DejaVuSans-66" transform="translate(277.441406 0)"/>
     <use xlink:href="#DejaVuSans-66" transform="translate(312.646484 0)"/>
     <use xlink:href="#DejaVuSans-69" transform="translate(347.851562 0)"/>
     <use xlink:href="#DejaVuSans-6e" transform="translate(375.634766 0)"/>
     <use xlink:href="#DejaVuSans-65" transform="translate(439.013672 0)"/>
     <use xlink:href="#DejaVuSans-20" transform="translate(500.537109 0)"/>
     <use xlink:href="#DejaVuSans-73" transform="translate(532.324219 0)"/>
     <use xlink:href="#DejaVuSans-68" transform="translate(584.423828 0)"/>
     <use xlink:href="#DejaVuSans-65" transform="translate(647.802734 0)"/>
     <use xlink:href="#DejaVuSans-61" transform="translate(709.326172 0)"/>
     <use xlink:href="#DejaVuSans-72" transform="translate(770.605469 0)"/>
    </g>
    <!-- det=1.000 -->
    <g style="fill: #059669" transform="translate(333.054616 138.130287) scale(0.09 -0.09)">
     <use xlink:href="#DejaVuSans-64"/>
     <use xlink:href="#DejaVuSans-65" transform="translate(63.476562 0)"/>
     <use xlink:href="#DejaVuSans-74" transform="translate(125 0)"/>
     <use xlink:href="#DejaVuSans-3d" transform="translate(164.208984 0)"/>
     <use xlink:href="#DejaVuSans-31" transform="translate(247.998047 0)"/>
     <use xlink:href="#DejaVuSans-2e" transform="translate(311.621094 0)"/>
     <use xlink:href="#DejaVuSans-30" transform="translate(343.408203 0)"/>
     <use xlink:href="#DejaVuSans-30" transform="translate(407.03125 0)"/>
     <use xlink:href="#DejaVuSans-30" transform="translate(470.654297 0)"/>
    </g>
   </g>
   <g id="text_3">
    <!-- hyperbolic stretch -->
    <g style="fill: #7c3aed" transform="translate(428.571335 167.171284) scale(0.09 -0.09)">
     <defs>
      <path id="DejaVuSans-70" d="M 1159 525 
L 1159 -1331 
L 581 -1331 
L 581 3500 
L 1159 3500 
L 1159 2969 
Q 1341 3281 1617 3432 
Q 1894 3584 2278 3584 
Q 2916 3584 3314 3078 
Q 3713 2572 3713 1747 
Q 3713 922 3314 415 
Q 2916 -91 2278 -91 
Q 1894 -91 1617 61 
Q 1341 213 1159 525 
z
M 3116 1747 
Q 3116 2381 2855 2742 
Q 2594 3103 2138 3103 
Q 1681 3103 1420 2742 
Q 1159 2381 1159 1747 
Q 1159 1113 1420 752 
Q 1681 391 2138 391 
Q 2594 391 2855 752 
Q 3116 1113 3116 1747 
z
" transform="scale(0.015625)"/>
      <path id="DejaVuSans-62" d="M 3116 1747 
Q 3116 2381 2855 2742 
Q 2594 3103 2138 3103 
Q 1681 3103 1420 2742 
Q 1159 2381 1159 1747 
Q 1159 1113 1420 752 
Q 1681 391 2138 391 
Q 2594 391 2855 752 
Q 3116 1113 3116 1747 
z
M 1159 2969 
Q 1341 3281 1617 3432 
Q 1894 3584 2278 3584 
Q 2916 3584 3314 3078 
Q 3713 2572 3713 1747 
Q 3713 922 3314 415 
Q 2916 -91 2278 -91 
Q 1894 -91 1617 61 
Q 1341 213 1159 525 
L 1159 0 
L 581 0 
L 581 4863 
L 1159 4863 
L 1159 2969 
z
" transform="scale(0.015625)"/>
      <path id="DejaVuSans-6f" d="M 1959 3097 
Q 1497 3097 1228 2736 
Q 959 2375 959 1747 
Q 959 1119 1226 758 
Q 1494 397 1959 397 
Q 2419 397 2687 759 
Q 2956 1122 2956 1747 
Q 2956 2369 2687 2733 
Q 2419 3097 1959 3097 
z
M 1959 3584 
Q 2709 3584 3137 3096 
Q 3566 2609 3566 1747 
Q 3566 888 3137 398 
Q 2709 -91 1959 -91 
Q 1206 -91 779 398 
Q 353 888 353 1747 
Q 353 2609 779 3096 
Q 1206 3584 1959 3584 
z
" transform="scale(0.015625)"/>
      <path id="DejaVuSans-6c" d="M 603 4863 
L 1178 4863 
L 1178 0 
L 603 0 
L 603 4863 
z
" transform="scale(0.015625)"/>
      <path id="DejaVuSans-63" d="M 3122 3366 
L 3122 2828 
Q 2878 2963 2633 3030 
Q 2388 3097 2138 3097 
Q 1578 3097 1268 2742 
Q 959 2388 959 1747 
Q 959 1106 1268 751 
Q 1578 397 2138 397 
Q 2388 397 2633 464 
Q 2878 531 3122 666 
L 3122 134 
Q 2881 22 2623 -34 
Q 2366 -91 2075 -91 
Q 1284 -91 818 406 
Q 353 903 353 1747 
Q 353 2603 823 3093 
Q 1294 3584 2113 3584 
Q 2378 3584 2631 3529 
Q 2884 3475 3122 3366 
z
" transform="scale(0.015625)"/>
     </defs>
     <use xlink:href="#DejaVuSans-68"/>
     <use xlink:href="#DejaVuSans-79" transform="translate(63.378906 0)"/>
     <use xlink:href="#DejaVuSans-70" transform="translate(122.558594 0)"/>
     <use xlink:href="#DejaVuSans-65" transform="translate(186.035156 0)"/>
     <use xlink:href="#DejaVuSans-72" transform="translate(247.558594 0)"/>
     <use xlink:href="#DejaVuSans-62" transform="translate(288.671875 0)"/>
     <use xlink:href="#DejaVuSans-6f" transform="translate(352.148438 0)"/>
     <use xlink:href="#DejaVuSans-6c" transform="translate(413.330078 0)"/>
     <use xlink:href="#DejaVuSans-69" transform="translate(441.113281 0)"/>
     <use xlink:href="#DejaVuSans-63" transform="translate(468.896484 0)"/>
     <use xlink:href="#DejaVuSans-20" transform="translate(523.876953 0)"/>
     <use xlink:href="#DejaVuSans-73" transform="translate(555.664062 0)"/>
     <use xlink:href="#DejaVuSans-74" transform="translate(607.763672 0)"/>
     <use xlink:href="#DejaVuSans-72" transform="translate(646.972656 0)"/>
     <use xlink:href="#DejaVuSans-65" transform="translate(685.835938 0)"/>
     <use xlink:href="#DejaVuSans-74" transform="translate(747.359375 0)"/>
     <use xlink:href="#DejaVuSans-63" transform="translate(786.568359 0)"/>
     <use xlink:href="#DejaVuSans-68" transform="translate(841.548828 0)"/>
    </g>
    <!-- det=1.000 -->
    <g style="fill: #7c3aed" transform="translate(445.250163 177.249316) scale(0.09 -0.09)">
     <use xlink:href="#DejaVuSans-64"/>
     <use xlink:href="#DejaVuSans-65" transform="translate(63.476562 0)"/>
     <use xlink:href="#DejaVuSans-74" transform="translate(125 0)"/>
     <use xlink:href="#DejaVuSans-3d" transform="translate(164.208984 0)"/>
     <use xlink:href="#DejaVuSans-31" transform="translate(247.998047 0)"/>
     <use xlink:href="#DejaVuSans-2e" transform="translate(311.621094 0)"/>
     <use xlink:href="#DejaVuSans-30" transform="translate(343.408203 0)"/>
     <use xlink:href="#DejaVuSans-30" transform="translate(407.03125 0)"/>
     <use xlink:href="#DejaVuSans-30" transform="translate(470.654297 0)"/>
    </g>
   </g>
   <g id="text_4">
    <!-- general affinity -->
    <g style="fill: #dc2626" transform="translate(683.024618 144.221454) scale(0.09 -0.09)">
     <defs>
      <path id="DejaVuSans-67" d="M 2906 1791 
Q 2906 2416 2648 2759 
Q 2391 3103 1925 3103 
Q 1463 3103 1205 2759 
Q 947 2416 947 1791 
Q 947 1169 1205 825 
Q 1463 481 1925 481 
Q 2391 481 2648 825 
Q 2906 1169 2906 1791 
z
M 3481 434 
Q 3481 -459 3084 -895 
Q 2688 -1331 1869 -1331 
Q 1566 -1331 1297 -1286 
Q 1028 -1241 775 -1147 
L 775 -588 
Q 1028 -725 1275 -790 
Q 1522 -856 1778 -856 
Q 2344 -856 2625 -561 
Q 2906 -266 2906 331 
L 2906 616 
Q 2728 306 2450 153 
Q 2172 0 1784 0 
Q 1141 0 747 490 
Q 353 981 353 1791 
Q 353 2603 747 3093 
Q 1141 3584 1784 3584 
Q 2172 3584 2450 3431 
Q 2728 3278 2906 2969 
L 2906 3500 
L 3481 3500 
L 3481 434 
z
" transform="scale(0.015625)"/>
     </defs>
     <use xlink:href="#DejaVuSans-67"/>
     <use xlink:href="#DejaVuSans-65" transform="translate(63.476562 0)"/>
     <use xlink:href="#DejaVuSans-6e" transform="translate(125 0)"/>
     <use xlink:href="#DejaVuSans-65" transform="translate(188.378906 0)"/>
     <use xlink:href="#DejaVuSans-72" transform="translate(249.902344 0)"/>
     <use xlink:href="#DejaVuSans-61" transform="translate(291.015625 0)"/>
     <use xlink:href="#DejaVuSans-6c" transform="translate(352.294922 0)"/>
     <use xlink:href="#DejaVuSans-20" transform="translate(380.078125 0)"/>
     <use xlink:href="#DejaVuSans-61" transform="translate(411.865234 0)"/>
     <use xlink:href="#DejaVuSans-66" transform="translate(473.144531 0)"/>
     <use xlink:href="#DejaVuSans-66" transform="translate(508.349609 0)"/>
     <use xlink:href="#DejaVuSans-69" transform="translate(543.554688 0)"/>
     <use xlink:href="#DejaVuSans-6e" transform="translate(571.337891 0)"/>
     <use xlink:href="#DejaVuSans-69" transform="translate(634.716797 0)"/>
     <use xlink:href="#DejaVuSans-74" transform="translate(662.5 0)"/>
     <use xlink:href="#DejaVuSans-79" transform="translate(701.708984 0)"/>
    </g>
    <!-- det=1.115 -->
    <g style="fill: #dc2626" transform="translate(693.221337 154.299486) scale(0.09 -0.09)">
     <defs>
      <path id="DejaVuSans-35" d="M 691 4666 
L 3169 4666 
L 3169 4134 
L 1269 4134 
L 1269 2991 
Q 1406 3038 1543 3061 
Q 1681 3084 1819 3084 
Q 2600 3084 3056 2656 
Q 3513 2228 3513 1497 
Q 3513 744 3044 326 
Q 2575 -91 1722 -91 
Q 1428 -91 1123 -41 
Q 819 9 494 109 
L 494 744 
Q 775 591 1075 516 
Q 1375 441 1709 441 
Q 2250 441 2565 725 
Q 2881 1009 2881 1497 
Q 2881 1984 2565 2268 
Q 2250 2553 1709 2553 
Q 1456 2553 1204 2497 
Q 953 2441 691 2322 
L 691 4666 
z
" transform="scale(0.015625)"/>
     </defs>
     <use xlink:href="#DejaVuSans-64"/>
     <use xlink:href="#DejaVuSans-65" transform="translate(63.476562 0)"/>
     <use xlink:href="#DejaVuSans-74" transform="translate(125 0)"/>
     <use xlink:href="#DejaVuSans-3d" transform="translate(164.208984 0)"/>
     <use xlink:href="#DejaVuSans-31" transform="translate(247.998047 0)"/>
     <use xlink:href="#DejaVuSans-2e" transform="translate(311.621094 0)"/>
     <use xlink:href="#DejaVuSans-31" transform="translate(343.408203 0)"/>
     <use xlink:href="#DejaVuSans-31" transform="translate(407.03125 0)"/>
     <use xlink:href="#DejaVuSans-35" transform="translate(470.654297 0)"/>
    </g>
   </g>
   <g id="text_5">
    <!-- Affinities preserve line structure; determinants measure signed area scale -->
    <g transform="translate(204.971211 15.558281) scale(0.11 -0.11)">
     <defs>
      <path id="DejaVuSans-41" d="M 2188 4044 
L 1331 1722 
L 3047 1722 
L 2188 4044 
z
M 1831 4666 
L 2547 4666 
L 4325 0 
L 3669 0 
L 3244 1197 
L 1141 1197 
L 716 0 
L 50 0 
L 1831 4666 
z
" transform="scale(0.015625)"/>
      <path id="DejaVuSans-76" d="M 191 3500 
L 800 3500 
L 1894 563 
L 2988 3500 
L 3597 3500 
L 2284 0 
L 1503 0 
L 191 3500 
z
" transform="scale(0.015625)"/>
      <path id="DejaVuSans-3b" d="M 750 3309 
L 1409 3309 
L 1409 2516 
L 750 2516 
L 750 3309 
z
M 750 794 
L 1409 794 
L 1409 256 
L 897 -744 
L 494 -744 
L 750 256 
L 750 794 
z
" transform="scale(0.015625)"/>
      <path id="DejaVuSans-6d" d="M 3328 2828 
Q 3544 3216 3844 3400 
Q 4144 3584 4550 3584 
Q 5097 3584 5394 3201 
Q 5691 2819 5691 2113 
L 5691 0 
L 5113 0 
L 5113 2094 
Q 5113 2597 4934 2840 
Q 4756 3084 4391 3084 
Q 3944 3084 3684 2787 
Q 3425 2491 3425 1978 
L 3425 0 
L 2847 0 
L 2847 2094 
Q 2847 2600 2669 2842 
Q 2491 3084 2119 3084 
Q 1678 3084 1418 2786 
Q 1159 2488 1159 1978 
L 1159 0 
L 581 0 
L 581 3500 
L 1159 3500 
L 1159 2956 
Q 1356 3278 1631 3431 
Q 1906 3584 2284 3584 
Q 2666 3584 2933 3390 
Q 3200 3197 3328 2828 
z
" transform="scale(0.015625)"/>
     </defs>
     <use xlink:href="#DejaVuSans-41"/>
     <use xlink:href="#DejaVuSans-66" transform="translate(64.783203 0)"/>
     <use xlink:href="#DejaVuSans-66" transform="translate(99.988281 0)"/>
     <use xlink:href="#DejaVuSans-69" transform="translate(135.193359 0)"/>
     <use xlink:href="#DejaVuSans-6e" transform="translate(162.976562 0)"/>
     <use xlink:href="#DejaVuSans-69" transform="translate(226.355469 0)"/>
     <use xlink:href="#DejaVuSans-74" transform="translate(254.138672 0)"/>
     <use xlink:href="#DejaVuSans-69" transform="translate(293.347656 0)"/>
     <use xlink:href="#DejaVuSans-65" transform="translate(321.130859 0)"/>
     <use xlink:href="#DejaVuSans-73" transform="translate(382.654297 0)"/>
     <use xlink:href="#DejaVuSans-20" transform="translate(434.753906 0)"/>
     <use xlink:href="#DejaVuSans-70" transform="translate(466.541016 0)"/>
     <use xlink:href="#DejaVuSans-72" transform="translate(530.017578 0)"/>
     <use xlink:href="#DejaVuSans-65" transform="translate(568.880859 0)"/>
     <use xlink:href="#DejaVuSans-73" transform="translate(630.404297 0)"/>
     <use xlink:href="#DejaVuSans-65" transform="translate(682.503906 0)"/>
     <use xlink:href="#DejaVuSans-72" transform="translate(744.027344 0)"/>
     <use xlink:href="#DejaVuSans-76" transform="translate(785.140625 0)"/>
     <use xlink:href="#DejaVuSans-65" transform="translate(844.320312 0)"/>
     <use xlink:href="#DejaVuSans-20" transform="translate(905.84375 0)"/>
     <use xlink:href="#DejaVuSans-6c" transform="translate(937.630859 0)"/>
     <use xlink:href="#DejaVuSans-69" transform="translate(965.414062 0)"/>
     <use xlink:href="#DejaVuSans-6e" transform="translate(993.197266 0)"/>
     <use xlink:href="#DejaVuSans-65" transform="translate(1056.576172 0)"/>
     <use xlink:href="#DejaVuSans-20" transform="translate(1118.099609 0)"/>
     <use xlink:href="#DejaVuSans-73" transform="translate(1149.886719 0)"/>
     <use xlink:href="#DejaVuSans-74" transform="translate(1201.986328 0)"/>
     <use xlink:href="#DejaVuSans-72" transform="translate(1241.195312 0)"/>
     <use xlink:href="#DejaVuSans-75" transform="translate(1282.308594 0)"/>
     <use xlink:href="#DejaVuSans-63" transform="translate(1345.6875 0)"/>
     <use xlink:href="#DejaVuSans-74" transform="translate(1400.667969 0)"/>
     <use xlink:href="#DejaVuSans-75" transform="translate(1439.876953 0)"/>
     <use xlink:href="#DejaVuSans-72" transform="translate(1503.255859 0)"/>
     <use xlink:href="#DejaVuSans-65" transform="translate(1542.119141 0)"/>
     <use xlink:href="#DejaVuSans-3b" transform="translate(1603.642578 0)"/>
     <use xlink:href="#DejaVuSans-20" transform="translate(1637.333984 0)"/>
     <use xlink:href="#DejaVuSans-64" transform="translate(1669.121094 0)"/>
     <use xlink:href="#DejaVuSans-65" transform="translate(1732.597656 0)"/>
     <use xlink:href="#DejaVuSans-74" transform="translate(1794.121094 0)"/>
     <use xlink:href="#DejaVuSans-65" transform="translate(1833.330078 0)"/>
     <use xlink:href="#DejaVuSans-72" transform="translate(1894.853516 0)"/>
     <use xlink:href="#DejaVuSans-6d" transform="translate(1934.216797 0)"/>
     <use xlink:href="#DejaVuSans-69" transform="translate(2031.628906 0)"/>
     <use xlink:href="#DejaVuSans-6e" transform="translate(2059.412109 0)"/>
     <use xlink:href="#DejaVuSans-61" transform="translate(2122.791016 0)"/>
     <use xlink:href="#DejaVuSans-6e" transform="translate(2184.070312 0)"/>
     <use xlink:href="#DejaVuSans-74" transform="translate(2247.449219 0)"/>
     <use xlink:href="#DejaVuSans-73" transform="translate(2286.658203 0)"/>
     <use xlink:href="#DejaVuSans-20" transform="translate(2338.757812 0)"/>
     <use xlink:href="#DejaVuSans-6d" transform="translate(2370.544922 0)"/>
     <use xlink:href="#DejaVuSans-65" transform="translate(2467.957031 0)"/>
     <use xlink:href="#DejaVuSans-61" transform="translate(2529.480469 0)"/>
     <use xlink:href="#DejaVuSans-73" transform="translate(2590.759766 0)"/>
     <use xlink:href="#DejaVuSans-75" transform="translate(2642.859375 0)"/>
     <use xlink:href="#DejaVuSans-72" transform="translate(2706.238281 0)"/>
     <use xlink:href="#DejaVuSans-65" transform="translate(2745.101562 0)"/>
     <use xlink:href="#DejaVuSans-20" transform="translate(2806.625 0)"/>
     <use xlink:href="#DejaVuSans-73" transform="translate(2838.412109 0)"/>
     <use xlink:href="#DejaVuSans-69" transform="translate(2890.511719 0)"/>
     <use xlink:href="#DejaVuSans-67" transform="translate(2918.294922 0)"/>
     <use xlink:href="#DejaVuSans-6e" transform="translate(2981.771484 0)"/>
     <use xlink:href="#DejaVuSans-65" transform="translate(3045.150391 0)"/>
     <use xlink:href="#DejaVuSans-64" transform="translate(3106.673828 0)"/>
     <use xlink:href="#DejaVuSans-20" transform="translate(3170.150391 0)"/>
     <use xlink:href="#DejaVuSans-61" transform="translate(3201.9375 0)"/>
     <use xlink:href="#DejaVuSans-72" transform="translate(3263.216797 0)"/>
     <use xlink:href="#DejaVuSans-65" transform="translate(3302.080078 0)"/>
     <use xlink:href="#DejaVuSans-61" transform="translate(3363.603516 0)"/>
     <use xlink:href="#DejaVuSans-20" transform="translate(3424.882812 0)"/>
     <use xlink:href="#DejaVuSans-73" transform="translate(3456.669922 0)"/>
     <use xlink:href="#DejaVuSans-63" transform="translate(3508.769531 0)"/>
     <use xlink:href="#DejaVuSans-61" transform="translate(3563.75 0)"/>
     <use xlink:href="#DejaVuSans-6c" transform="translate(3625.029297 0)"/>
     <use xlink:href="#DejaVuSans-65" transform="translate(3652.8125 0)"/>
    </g>
   </g>
  </g>
 </g>
 <defs>
  <clipPath id="p4391621d08">
   <rect x="7.2" y="21.558281" width="804.11336" height="309.692308"/>
  </clipPath>
 </defs>
</svg>
