<?xml version="1.0" encoding="utf-8" standalone="no"?>
<!DOCTYPE svg PUBLIC "-//W3C//DTD SVG 1.1//EN"
  "http://www.w3.org/Graphics/SVG/1.1/DTD/svg11.dtd">
<svg xmlns:xlink="http://www.w3.org/1999/xlink" width="728.64pt" height="408.181969pt" viewBox="0 0 728.64 408.181969" xmlns="http://www.w3.org/2000/svg" version="1.1">
 <metadata>
  <rdf:RDF xmlns:dc="http://purl.org/dc/elements/1.1/" xmlns:cc="http://creativecommons.org/ns#" xmlns:rdf="http://www.w3.org/1999/02/22-rdf-syntax-ns#">
   <cc:Work>
    <dc:type rdf:resource="http://purl.org/dc/dcmitype/StillImage"/>
    <dc:date>2026-05-12T07:25:49.767298</dc:date>
    <dc:format>image/svg+xml</dc:format>
    <dc:creator>
     <cc:Agent>
      <dc:title>Matplotlib v3.10.9, https://matplotlib.org/</dc:title>
     </cc:Agent>
    </dc:creator>
   </cc:Work>
  </rdf:RDF>
 </metadata>
 <defs>
  <style type="text/css">*{stroke-linejoin: round; stroke-linecap: butt}</style>
 </defs>
 <g id="figure_1">
  <g id="patch_1">
   <path d="M 0 408.181969 
L 728.64 408.181969 
L 728.64 0 
L 0 0 
z
" style="fill: #ffffff"/>
  </g>
  <g id="axes_1">
   <g id="patch_2">
    <path d="M 77.817191 269.060313 
Q 118.370833 271.734913 157.585743 269.148446 
" clip-path="url(#p155c195ee7)" style="fill: none; stroke: #6b7280; stroke-width: 1.2; stroke-linecap: round"/>
    <path d="M 152.225903 266.896312 
L 157.585743 269.148446 
L 152.568132 272.085038 
z
" clip-path="url(#p155c195ee7)" style="fill: #6b7280; stroke: #6b7280; stroke-width: 1.2; stroke-linecap: round"/>
   </g>
   <g id="patch_3">
    <path d="M 168.19128 259.795154 
Q 170.959964 218.031398 168.280211 177.606345 
" clip-path="url(#p155c195ee7)" style="fill: none; stroke: #6b7280; stroke-width: 1.2; stroke-linecap: round"/>
    <path d="M 166.029855 182.966932 
L 168.280211 177.606345 
L 171.218468 182.622982 
z
" clip-path="url(#p155c195ee7)" style="fill: #6b7280; stroke: #6b7280; stroke-width: 1.2; stroke-linecap: round"/>
   </g>
   <g id="patch_4">
    <path d="M 77.817191 168.260313 
Q 118.370833 170.934913 157.585743 168.348446 
" clip-path="url(#p155c195ee7)" style="fill: none; stroke: #6b7280; stroke-width: 1.2; stroke-linecap: round"/>
    <path d="M 152.225903 166.096312 
L 157.585743 168.348446 
L 152.568132 171.285038 
z
" clip-path="url(#p155c195ee7)" style="fill: #6b7280; stroke: #6b7280; stroke-width: 1.2; stroke-linecap: round"/>
   </g>
   <g id="patch_5">
    <path d="M 173.127248 174.262948 
Q 213.180818 221.511017 258.439694 261.808609 
" clip-path="url(#p155c195ee7)" style="fill: none; stroke: #6b7280; stroke-width: 1.2; stroke-linecap: round"/>
    <path d="M 256.285005 256.408858 
L 258.439694 261.808609 
L 252.82708 260.29251 
z
" clip-path="url(#p155c195ee7)" style="fill: #6b7280; stroke: #6b7280; stroke-width: 1.2; stroke-linecap: round"/>
   </g>
   <g id="patch_6">
    <path d="M 266.571445 259.795154 
Q 269.340129 218.031398 266.660377 177.606345 
" clip-path="url(#p155c195ee7)" style="fill: none; stroke: #6b7280; stroke-width: 1.2; stroke-linecap: round"/>
    <path d="M 264.41002 182.966932 
L 266.660377 177.606345 
L 269.598633 182.622982 
z
" clip-path="url(#p155c195ee7)" style="fill: #6b7280; stroke: #6b7280; stroke-width: 1.2; stroke-linecap: round"/>
   </g>
   <g id="patch_7">
    <path d="M 271.507414 174.262948 
Q 311.560983 221.511017 356.819859 261.808609 
" clip-path="url(#p155c195ee7)" style="fill: none; stroke: #6b7280; stroke-width: 1.2; stroke-linecap: round"/>
    <path d="M 354.66517 256.408858 
L 356.819859 261.808609 
L 351.207245 260.29251 
z
" clip-path="url(#p155c195ee7)" style="fill: #6b7280; stroke: #6b7280; stroke-width: 1.2; stroke-linecap: round"/>
   </g>
   <g id="patch_8">
    <path d="M 364.951611 259.795154 
Q 367.720295 218.031398 365.040542 177.606345 
" clip-path="url(#p155c195ee7)" style="fill: none; stroke: #6b7280; stroke-width: 1.2; stroke-linecap: round"/>
    <path d="M 362.790186 182.966932 
L 365.040542 177.606345 
L 367.978798 182.622982 
z
" clip-path="url(#p155c195ee7)" style="fill: #6b7280; stroke: #6b7280; stroke-width: 1.2; stroke-linecap: round"/>
   </g>
   <g id="patch_9">
    <path d="M 369.580428 261.551204 
Q 419.006568 196.406783 457.893273 126.001217 
" clip-path="url(#p155c195ee7)" style="fill: none; stroke: #6b7280; stroke-width: 1.2; stroke-linecap: round"/>
    <path d="M 453.103253 129.296017 
L 457.893273 126.001217 
L 457.655101 131.810113 
z
" clip-path="url(#p155c195ee7)" style="fill: #6b7280; stroke: #6b7280; stroke-width: 1.2; stroke-linecap: round"/>
   </g>
   <g id="patch_10">
    <path d="M 368.477863 175.226131 
Q 408.013179 246.80614 456.628338 310.881766 
" clip-path="url(#p155c195ee7)" style="fill: none; stroke: #6b7280; stroke-width: 1.2; stroke-linecap: round"/>
    <path d="M 455.556583 305.167631 
L 456.628338 310.881766 
L 451.413977 308.31069 
z
" clip-path="url(#p155c195ee7)" style="fill: #6b7280; stroke: #6b7280; stroke-width: 1.2; stroke-linecap: round"/>
   </g>
   <g id="patch_11">
    <path d="M 372.30553 164.284643 
Q 466.429557 124.509757 552.554074 72.054486 
" clip-path="url(#p155c195ee7)" style="fill: none; stroke: #6b7280; stroke-width: 1.2; stroke-linecap: round"/>
    <path d="M 546.760509 72.538847 
L 552.554074 72.054486 
L 549.465424 76.979955 
z
" clip-path="url(#p155c195ee7)" style="fill: #6b7280; stroke: #6b7280; stroke-width: 1.2; stroke-linecap: round"/>
   </g>
   <g id="patch_12">
    <path d="M 463.331776 310.195154 
Q 466.10046 268.431398 463.420707 228.006345 
" clip-path="url(#p155c195ee7)" style="fill: none; stroke: #6b7280; stroke-width: 1.2; stroke-linecap: round"/>
    <path d="M 461.170351 233.366932 
L 463.420707 228.006345 
L 466.358963 233.022982 
z
" clip-path="url(#p155c195ee7)" style="fill: #6b7280; stroke: #6b7280; stroke-width: 1.2; stroke-linecap: round"/>
   </g>
   <g id="patch_13">
    <path d="M 466.858029 225.626131 
Q 506.393344 297.20614 555.008504 361.281766 
" clip-path="url(#p155c195ee7)" style="fill: none; stroke: #6b7280; stroke-width: 1.2; stroke-linecap: round"/>
    <path d="M 553.936748 355.567631 
L 555.008504 361.281766 
L 549.794142 358.71069 
z
" clip-path="url(#p155c195ee7)" style="fill: #6b7280; stroke: #6b7280; stroke-width: 1.2; stroke-linecap: round"/>
   </g>
   <g id="patch_14">
    <path d="M 470.098624 222.536048 
Q 510.166247 246.599037 551.871552 264.529445 
" clip-path="url(#p155c195ee7)" style="fill: none; stroke: #6b7280; stroke-width: 1.2; stroke-linecap: round"/>
    <path d="M 548.121286 260.086978 
L 551.871552 264.529445 
L 546.06742 264.864178 
z
" clip-path="url(#p155c195ee7)" style="fill: #6b7280; stroke: #6b7280; stroke-width: 1.2; stroke-linecap: round"/>
   </g>
   <g id="patch_15">
    <path d="M 470.098624 121.736048 
Q 510.166247 145.799037 551.871552 163.729445 
" clip-path="url(#p155c195ee7)" style="fill: none; stroke: #6b7280; stroke-width: 1.2; stroke-linecap: round"/>
    <path d="M 548.121286 159.286978 
L 551.871552 163.729445 
L 546.06742 164.064178 
z
" clip-path="url(#p155c195ee7)" style="fill: #6b7280; stroke: #6b7280; stroke-width: 1.2; stroke-linecap: round"/>
   </g>
   <g id="patch_16">
    <path d="M 566.64791 174.262948 
Q 606.701479 221.511017 651.960355 261.808609 
" clip-path="url(#p155c195ee7)" style="fill: none; stroke: #6b7280; stroke-width: 1.2; stroke-linecap: round"/>
    <path d="M 649.805666 256.408858 
L 651.960355 261.808609 
L 646.347741 260.29251 
z
" clip-path="url(#p155c195ee7)" style="fill: #6b7280; stroke: #6b7280; stroke-width: 1.2; stroke-linecap: round"/>
   </g>
   <g id="patch_17">
    <path d="M 566.64791 73.462948 
Q 606.701479 120.711017 651.960355 161.008609 
" clip-path="url(#p155c195ee7)" style="fill: none; stroke: #6b7280; stroke-width: 1.2; stroke-linecap: round"/>
    <path d="M 649.805666 155.608858 
L 651.960355 161.008609 
L 646.347741 159.49251 
z
" clip-path="url(#p155c195ee7)" style="fill: #6b7280; stroke: #6b7280; stroke-width: 1.2; stroke-linecap: round"/>
   </g>
   <g id="PathCollection_1">
    <defs>
     <path id="m2f4f7b4ddb" d="M 0 22.638463 
C 6.003791 22.638463 11.76249 20.253132 16.007811 16.007811 
C 20.253132 11.76249 22.638463 6.003791 22.638463 0 
C 22.638463 -6.003791 20.253132 -11.76249 16.007811 -16.007811 
C 11.76249 -20.253132 6.003791 -22.638463 0 -22.638463 
C -6.003791 -22.638463 -11.76249 -20.253132 -16.007811 -16.007811 
C -20.253132 -11.76249 -22.638463 -6.003791 -22.638463 0 
C -22.638463 6.003791 -20.253132 11.76249 -16.007811 16.007811 
C -11.76249 20.253132 -6.003791 22.638463 0 22.638463 
z
" style="stroke: #3730a3; stroke-width: 1.2"/>
    </defs>
    <g clip-path="url(#p155c195ee7)">
     <use xlink:href="#m2f4f7b4ddb" x="69.179504" y="268.429969" style="fill: #eef2ff; stroke: #3730a3; stroke-width: 1.2"/>
     <use xlink:href="#m2f4f7b4ddb" x="167.559669" y="268.429969" style="fill: #eef2ff; stroke: #3730a3; stroke-width: 1.2"/>
     <use xlink:href="#m2f4f7b4ddb" x="69.179504" y="167.629969" style="fill: #eef2ff; stroke: #3730a3; stroke-width: 1.2"/>
     <use xlink:href="#m2f4f7b4ddb" x="167.559669" y="167.629969" style="fill: #eef2ff; stroke: #3730a3; stroke-width: 1.2"/>
     <use xlink:href="#m2f4f7b4ddb" x="265.939835" y="268.429969" style="fill: #eef2ff; stroke: #3730a3; stroke-width: 1.2"/>
     <use xlink:href="#m2f4f7b4ddb" x="265.939835" y="167.629969" style="fill: #eef2ff; stroke: #3730a3; stroke-width: 1.2"/>
     <use xlink:href="#m2f4f7b4ddb" x="364.32" y="268.429969" style="fill: #eef2ff; stroke: #3730a3; stroke-width: 1.2"/>
     <use xlink:href="#m2f4f7b4ddb" x="364.32" y="167.629969" style="fill: #eef2ff; stroke: #3730a3; stroke-width: 1.2"/>
     <use xlink:href="#m2f4f7b4ddb" x="462.700165" y="318.829969" style="fill: #eef2ff; stroke: #3730a3; stroke-width: 1.2"/>
     <use xlink:href="#m2f4f7b4ddb" x="462.700165" y="218.029969" style="fill: #eef2ff; stroke: #3730a3; stroke-width: 1.2"/>
     <use xlink:href="#m2f4f7b4ddb" x="561.080331" y="369.229969" style="fill: #eef2ff; stroke: #3730a3; stroke-width: 1.2"/>
     <use xlink:href="#m2f4f7b4ddb" x="561.080331" y="268.429969" style="fill: #eef2ff; stroke: #3730a3; stroke-width: 1.2"/>
     <use xlink:href="#m2f4f7b4ddb" x="462.700165" y="117.229969" style="fill: #eef2ff; stroke: #3730a3; stroke-width: 1.2"/>
     <use xlink:href="#m2f4f7b4ddb" x="561.080331" y="167.629969" style="fill: #eef2ff; stroke: #3730a3; stroke-width: 1.2"/>
     <use xlink:href="#m2f4f7b4ddb" x="659.460496" y="268.429969" style="fill: #eef2ff; stroke: #3730a3; stroke-width: 1.2"/>
     <use xlink:href="#m2f4f7b4ddb" x="561.080331" y="66.829969" style="fill: #eef2ff; stroke: #3730a3; stroke-width: 1.2"/>
     <use xlink:href="#m2f4f7b4ddb" x="659.460496" y="167.629969" style="fill: #eef2ff; stroke: #3730a3; stroke-width: 1.2"/>
    </g>
   </g>
   <g id="text_1">
    <g clip-path="url(#p155c195ee7)">
     <!-- 13.11 unique parallel -->
     <g transform="translate(26.587629 270.637469) scale(0.08 -0.08)">
      <defs>
       <path id="DejaVuSans-31" d="M 794 531 
L 1825 531 
L 1825 4091 
L 703 3866 
L 703 4441 
L 1819 4666 
L 2450 4666 
L 2450 531 
L 3481 531 
L 3481 0 
L 794 0 
L 794 531 
z
" transform="scale(0.015625)"/>
       <path id="DejaVuSans-33" d="M 2597 2516 
Q 3050 2419 3304 2112 
Q 3559 1806 3559 1356 
Q 3559 666 3084 287 
Q 2609 -91 1734 -91 
Q 1441 -91 1130 -33 
Q 819 25 488 141 
L 488 750 
Q 750 597 1062 519 
Q 1375 441 1716 441 
Q 2309 441 2620 675 
Q 2931 909 2931 1356 
Q 2931 1769 2642 2001 
Q 2353 2234 1838 2234 
L 1294 2234 
L 1294 2753 
L 1863 2753 
Q 2328 2753 2575 2939 
Q 2822 3125 2822 3475 
Q 2822 3834 2567 4026 
Q 2313 4219 1838 4219 
Q 1578 4219 1281 4162 
Q 984 4106 628 3988 
L 628 4550 
Q 988 4650 1302 4700 
Q 1616 4750 1894 4750 
Q 2613 4750 3031 4423 
Q 3450 4097 3450 3541 
Q 3450 3153 3228 2886 
Q 3006 2619 2597 2516 
z
" transform="scale(0.015625)"/>
       <path id="DejaVuSans-2e" d="M 684 794 
L 1344 794 
L 1344 0 
L 684 0 
L 684 794 
z
" transform="scale(0.015625)"/>
       <path id="DejaVuSans-20" transform="scale(0.015625)"/>
       <path id="DejaVuSans-75" d="M 544 1381 
L 544 3500 
L 1119 3500 
L 1119 1403 
Q 1119 906 1312 657 
Q 1506 409 1894 409 
Q 2359 409 2629 706 
Q 2900 1003 2900 1516 
L 2900 3500 
L 3475 3500 
L 3475 0 
L 2900 0 
L 2900 538 
Q 2691 219 2414 64 
Q 2138 -91 1772 -91 
Q 1169 -91 856 284 
Q 544 659 544 1381 
z
M 1991 3584 
L 1991 3584 
z
" transform="scale(0.015625)"/>
       <path id="DejaVuSans-6e" d="M 3513 2113 
L 3513 0 
L 2938 0 
L 2938 2094 
Q 2938 2591 2744 2837 
Q 2550 3084 2163 3084 
Q 1697 3084 1428 2787 
Q 1159 2491 1159 1978 
L 1159 0 
L 581 0 
L 581 3500 
L 1159 3500 
L 1159 2956 
Q 1366 3272 1645 3428 
Q 1925 3584 2291 3584 
Q 2894 3584 3203 3211 
Q 3513 2838 3513 2113 
z
" transform="scale(0.015625)"/>
       <path id="DejaVuSans-69" d="M 603 3500 
L 1178 3500 
L 1178 0 
L 603 0 
L 603 3500 
z
M 603 4863 
L 1178 4863 
L 1178 4134 
L 603 4134 
L 603 4863 
z
" transform="scale(0.015625)"/>
       <path id="DejaVuSans-71" d="M 947 1747 
Q 947 1113 1208 752 
Q 1469 391 1925 391 
Q 2381 391 2643 752 
Q 2906 1113 2906 1747 
Q 2906 2381 2643 2742 
Q 2381 3103 1925 3103 
Q 1469 3103 1208 2742 
Q 947 2381 947 1747 
z
M 2906 525 
Q 2725 213 2448 61 
Q 2172 -91 1784 -91 
Q 1150 -91 751 415 
Q 353 922 353 1747 
Q 353 2572 751 3078 
Q 1150 3584 1784 3584 
Q 2172 3584 2448 3432 
Q 2725 3281 2906 2969 
L 2906 3500 
L 3481 3500 
L 3481 -1331 
L 2906 -1331 
L 2906 525 
z
" transform="scale(0.015625)"/>
       <path id="DejaVuSans-65" d="M 3597 1894 
L 3597 1613 
L 953 1613 
Q 991 1019 1311 708 
Q 1631 397 2203 397 
Q 2534 397 2845 478 
Q 3156 559 3463 722 
L 3463 178 
Q 3153 47 2828 -22 
Q 2503 -91 2169 -91 
Q 1331 -91 842 396 
Q 353 884 353 1716 
Q 353 2575 817 3079 
Q 1281 3584 2069 3584 
Q 2775 3584 3186 3129 
Q 3597 2675 3597 1894 
z
M 3022 2063 
Q 3016 2534 2758 2815 
Q 2500 3097 2075 3097 
Q 1594 3097 1305 2825 
Q 1016 2553 972 2059 
L 3022 2063 
z
" transform="scale(0.015625)"/>
       <path id="DejaVuSans-70" d="M 1159 525 
L 1159 -1331 
L 581 -1331 
L 581 3500 
L 1159 3500 
L 1159 2969 
Q 1341 3281 1617 3432 
Q 1894 3584 2278 3584 
Q 2916 3584 3314 3078 
Q 3713 2572 3713 1747 
Q 3713 922 3314 415 
Q 2916 -91 2278 -91 
Q 1894 -91 1617 61 
Q 1341 213 1159 525 
z
M 3116 1747 
Q 3116 2381 2855 2742 
Q 2594 3103 2138 3103 
Q 1681 3103 1420 2742 
Q 1159 2381 1159 1747 
Q 1159 1113 1420 752 
Q 1681 391 2138 391 
Q 2594 391 2855 752 
Q 3116 1113 3116 1747 
z
" transform="scale(0.015625)"/>
       <path id="DejaVuSans-61" d="M 2194 1759 
Q 1497 1759 1228 1600 
Q 959 1441 959 1056 
Q 959 750 1161 570 
Q 1363 391 1709 391 
Q 2188 391 2477 730 
Q 2766 1069 2766 1631 
L 2766 1759 
L 2194 1759 
z
M 3341 1997 
L 3341 0 
L 2766 0 
L 2766 531 
Q 2569 213 2275 61 
Q 1981 -91 1556 -91 
Q 1019 -91 701 211 
Q 384 513 384 1019 
Q 384 1609 779 1909 
Q 1175 2209 1959 2209 
L 2766 2209 
L 2766 2266 
Q 2766 2663 2505 2880 
Q 2244 3097 1772 3097 
Q 1472 3097 1187 3025 
Q 903 2953 641 2809 
L 641 3341 
Q 956 3463 1253 3523 
Q 1550 3584 1831 3584 
Q 2591 3584 2966 3190 
Q 3341 2797 3341 1997 
z
" transform="scale(0.015625)"/>
       <path id="DejaVuSans-72" d="M 2631 2963 
Q 2534 3019 2420 3045 
Q 2306 3072 2169 3072 
Q 1681 3072 1420 2755 
Q 1159 2438 1159 1844 
L 1159 0 
L 581 0 
L 581 3500 
L 1159 3500 
L 1159 2956 
Q 1341 3275 1631 3429 
Q 1922 3584 2338 3584 
Q 2397 3584 2469 3576 
Q 2541 3569 2628 3553 
L 2631 2963 
z
" transform="scale(0.015625)"/>
       <path id="DejaVuSans-6c" d="M 603 4863 
L 1178 4863 
L 1178 0 
L 603 0 
L 603 4863 
z
" transform="scale(0.015625)"/>
      </defs>
      <use xlink:href="#DejaVuSans-31"/>
      <use xlink:href="#DejaVuSans-33" transform="translate(63.623047 0)"/>
      <use xlink:href="#DejaVuSans-2e" transform="translate(127.246094 0)"/>
      <use xlink:href="#DejaVuSans-31" transform="translate(159.033203 0)"/>
      <use xlink:href="#DejaVuSans-31" transform="translate(222.65625 0)"/>
      <use xlink:href="#DejaVuSans-20" transform="translate(286.279297 0)"/>
      <use xlink:href="#DejaVuSans-75" transform="translate(318.066406 0)"/>
      <use xlink:href="#DejaVuSans-6e" transform="translate(381.445312 0)"/>
      <use xlink:href="#DejaVuSans-69" transform="translate(444.824219 0)"/>
      <use xlink:href="#DejaVuSans-71" transform="translate(472.607422 0)"/>
      <use xlink:href="#DejaVuSans-75" transform="translate(536.083984 0)"/>
      <use xlink:href="#DejaVuSans-65" transform="translate(599.462891 0)"/>
      <use xlink:href="#DejaVuSans-20" transform="translate(660.986328 0)"/>
      <use xlink:href="#DejaVuSans-70" transform="translate(692.773438 0)"/>
      <use xlink:href="#DejaVuSans-61" transform="translate(756.25 0)"/>
      <use xlink:href="#DejaVuSans-72" transform="translate(817.529297 0)"/>
      <use xlink:href="#DejaVuSans-61" transform="translate(858.642578 0)"/>
      <use xlink:href="#DejaVuSans-6c" transform="translate(919.921875 0)"/>
      <use xlink:href="#DejaVuSans-6c" transform="translate(947.705078 0)"/>
      <use xlink:href="#DejaVuSans-65" transform="translate(975.488281 0)"/>
      <use xlink:href="#DejaVuSans-6c" transform="translate(1037.011719 0)"/>
     </g>
    </g>
   </g>
   <g id="text_2">
    <g clip-path="url(#p155c195ee7)">
     <!-- parallel pencils -->
     <g transform="translate(137.365919 270.637469) scale(0.08 -0.08)">
      <defs>
       <path id="DejaVuSans-63" d="M 3122 3366 
L 3122 2828 
Q 2878 2963 2633 3030 
Q 2388 3097 2138 3097 
Q 1578 3097 1268 2742 
Q 959 2388 959 1747 
Q 959 1106 1268 751 
Q 1578 397 2138 397 
Q 2388 397 2633 464 
Q 2878 531 3122 666 
L 3122 134 
Q 2881 22 2623 -34 
Q 2366 -91 2075 -91 
Q 1284 -91 818 406 
Q 353 903 353 1747 
Q 353 2603 823 3093 
Q 1294 3584 2113 3584 
Q 2378 3584 2631 3529 
Q 2884 3475 3122 3366 
z
" transform="scale(0.015625)"/>
       <path id="DejaVuSans-73" d="M 2834 3397 
L 2834 2853 
Q 2591 2978 2328 3040 
Q 2066 3103 1784 3103 
Q 1356 3103 1142 2972 
Q 928 2841 928 2578 
Q 928 2378 1081 2264 
Q 1234 2150 1697 2047 
L 1894 2003 
Q 2506 1872 2764 1633 
Q 3022 1394 3022 966 
Q 3022 478 2636 193 
Q 2250 -91 1575 -91 
Q 1294 -91 989 -36 
Q 684 19 347 128 
L 347 722 
Q 666 556 975 473 
Q 1284 391 1588 391 
Q 1994 391 2212 530 
Q 2431 669 2431 922 
Q 2431 1156 2273 1281 
Q 2116 1406 1581 1522 
L 1381 1569 
Q 847 1681 609 1914 
Q 372 2147 372 2553 
Q 372 3047 722 3315 
Q 1072 3584 1716 3584 
Q 2034 3584 2315 3537 
Q 2597 3491 2834 3397 
z
" transform="scale(0.015625)"/>
      </defs>
      <use xlink:href="#DejaVuSans-70"/>
      <use xlink:href="#DejaVuSans-61" transform="translate(63.476562 0)"/>
      <use xlink:href="#DejaVuSans-72" transform="translate(124.755859 0)"/>
      <use xlink:href="#DejaVuSans-61" transform="translate(165.869141 0)"/>
      <use xlink:href="#DejaVuSans-6c" transform="translate(227.148438 0)"/>
      <use xlink:href="#DejaVuSans-6c" transform="translate(254.931641 0)"/>
      <use xlink:href="#DejaVuSans-65" transform="translate(282.714844 0)"/>
      <use xlink:href="#DejaVuSans-6c" transform="translate(344.238281 0)"/>
      <use xlink:href="#DejaVuSans-20" transform="translate(372.021484 0)"/>
      <use xlink:href="#DejaVuSans-70" transform="translate(403.808594 0)"/>
      <use xlink:href="#DejaVuSans-65" transform="translate(467.285156 0)"/>
      <use xlink:href="#DejaVuSans-6e" transform="translate(528.808594 0)"/>
      <use xlink:href="#DejaVuSans-63" transform="translate(592.1875 0)"/>
      <use xlink:href="#DejaVuSans-69" transform="translate(647.167969 0)"/>
      <use xlink:href="#DejaVuSans-6c" transform="translate(674.951172 0)"/>
      <use xlink:href="#DejaVuSans-73" transform="translate(702.734375 0)"/>
     </g>
    </g>
   </g>
   <g id="text_3">
    <g clip-path="url(#p155c195ee7)">
     <!-- 13.12 Desargues axiom -->
     <g transform="translate(21.642004 169.837469) scale(0.08 -0.08)">
      <defs>
       <path id="DejaVuSans-32" d="M 1228 531 
L 3431 531 
L 3431 0 
L 469 0 
L 469 531 
Q 828 903 1448 1529 
Q 2069 2156 2228 2338 
Q 2531 2678 2651 2914 
Q 2772 3150 2772 3378 
Q 2772 3750 2511 3984 
Q 2250 4219 1831 4219 
Q 1534 4219 1204 4116 
Q 875 4013 500 3803 
L 500 4441 
Q 881 4594 1212 4672 
Q 1544 4750 1819 4750 
Q 2544 4750 2975 4387 
Q 3406 4025 3406 3419 
Q 3406 3131 3298 2873 
Q 3191 2616 2906 2266 
Q 2828 2175 2409 1742 
Q 1991 1309 1228 531 
z
" transform="scale(0.015625)"/>
       <path id="DejaVuSans-44" d="M 1259 4147 
L 1259 519 
L 2022 519 
Q 2988 519 3436 956 
Q 3884 1394 3884 2338 
Q 3884 3275 3436 3711 
Q 2988 4147 2022 4147 
L 1259 4147 
z
M 628 4666 
L 1925 4666 
Q 3281 4666 3915 4102 
Q 4550 3538 4550 2338 
Q 4550 1131 3912 565 
Q 3275 0 1925 0 
L 628 0 
L 628 4666 
z
" transform="scale(0.015625)"/>
       <path id="DejaVuSans-67" d="M 2906 1791 
Q 2906 2416 2648 2759 
Q 2391 3103 1925 3103 
Q 1463 3103 1205 2759 
Q 947 2416 947 1791 
Q 947 1169 1205 825 
Q 1463 481 1925 481 
Q 2391 481 2648 825 
Q 2906 1169 2906 1791 
z
M 3481 434 
Q 3481 -459 3084 -895 
Q 2688 -1331 1869 -1331 
Q 1566 -1331 1297 -1286 
Q 1028 -1241 775 -1147 
L 775 -588 
Q 1028 -725 1275 -790 
Q 1522 -856 1778 -856 
Q 2344 -856 2625 -561 
Q 2906 -266 2906 331 
L 2906 616 
Q 2728 306 2450 153 
Q 2172 0 1784 0 
Q 1141 0 747 490 
Q 353 981 353 1791 
Q 353 2603 747 3093 
Q 1141 3584 1784 3584 
Q 2172 3584 2450 3431 
Q 2728 3278 2906 2969 
L 2906 3500 
L 3481 3500 
L 3481 434 
z
" transform="scale(0.015625)"/>
       <path id="DejaVuSans-78" d="M 3513 3500 
L 2247 1797 
L 3578 0 
L 2900 0 
L 1881 1375 
L 863 0 
L 184 0 
L 1544 1831 
L 300 3500 
L 978 3500 
L 1906 2253 
L 2834 3500 
L 3513 3500 
z
" transform="scale(0.015625)"/>
       <path id="DejaVuSans-6f" d="M 1959 3097 
Q 1497 3097 1228 2736 
Q 959 2375 959 1747 
Q 959 1119 1226 758 
Q 1494 397 1959 397 
Q 2419 397 2687 759 
Q 2956 1122 2956 1747 
Q 2956 2369 2687 2733 
Q 2419 3097 1959 3097 
z
M 1959 3584 
Q 2709 3584 3137 3096 
Q 3566 2609 3566 1747 
Q 3566 888 3137 398 
Q 2709 -91 1959 -91 
Q 1206 -91 779 398 
Q 353 888 353 1747 
Q 353 2609 779 3096 
Q 1206 3584 1959 3584 
z
" transform="scale(0.015625)"/>
       <path id="DejaVuSans-6d" d="M 3328 2828 
Q 3544 3216 3844 3400 
Q 4144 3584 4550 3584 
Q 5097 3584 5394 3201 
Q 5691 2819 5691 2113 
L 5691 0 
L 5113 0 
L 5113 2094 
Q 5113 2597 4934 2840 
Q 4756 3084 4391 3084 
Q 3944 3084 3684 2787 
Q 3425 2491 3425 1978 
L 3425 0 
L 2847 0 
L 2847 2094 
Q 2847 2600 2669 2842 
Q 2491 3084 2119 3084 
Q 1678 3084 1418 2786 
Q 1159 2488 1159 1978 
L 1159 0 
L 581 0 
L 581 3500 
L 1159 3500 
L 1159 2956 
Q 1356 3278 1631 3431 
Q 1906 3584 2284 3584 
Q 2666 3584 2933 3390 
Q 3200 3197 3328 2828 
z
" transform="scale(0.015625)"/>
      </defs>
      <use xlink:href="#DejaVuSans-31"/>
      <use xlink:href="#DejaVuSans-33" transform="translate(63.623047 0)"/>
      <use xlink:href="#DejaVuSans-2e" transform="translate(127.246094 0)"/>
      <use xlink:href="#DejaVuSans-31" transform="translate(159.033203 0)"/>
      <use xlink:href="#DejaVuSans-32" transform="translate(222.65625 0)"/>
      <use xlink:href="#DejaVuSans-20" transform="translate(286.279297 0)"/>
      <use xlink:href="#DejaVuSans-44" transform="translate(318.066406 0)"/>
      <use xlink:href="#DejaVuSans-65" transform="translate(395.068359 0)"/>
      <use xlink:href="#DejaVuSans-73" transform="translate(456.591797 0)"/>
      <use xlink:href="#DejaVuSans-61" transform="translate(508.691406 0)"/>
      <use xlink:href="#DejaVuSans-72" transform="translate(569.970703 0)"/>
      <use xlink:href="#DejaVuSans-67" transform="translate(609.333984 0)"/>
      <use xlink:href="#DejaVuSans-75" transform="translate(672.810547 0)"/>
      <use xlink:href="#DejaVuSans-65" transform="translate(736.189453 0)"/>
      <use xlink:href="#DejaVuSans-73" transform="translate(797.712891 0)"/>
      <use xlink:href="#DejaVuSans-20" transform="translate(849.8125 0)"/>
      <use xlink:href="#DejaVuSans-61" transform="translate(881.599609 0)"/>
      <use xlink:href="#DejaVuSans-78" transform="translate(942.878906 0)"/>
      <use xlink:href="#DejaVuSans-69" transform="translate(1002.058594 0)"/>
      <use xlink:href="#DejaVuSans-6f" transform="translate(1029.841797 0)"/>
      <use xlink:href="#DejaVuSans-6d" transform="translate(1091.023438 0)"/>
     </g>
    </g>
   </g>
   <g id="text_4">
    <g clip-path="url(#p155c195ee7)">
     <!-- connector theorem -->
     <g transform="translate(129.327169 169.837469) scale(0.08 -0.08)">
      <defs>
       <path id="DejaVuSans-74" d="M 1172 4494 
L 1172 3500 
L 2356 3500 
L 2356 3053 
L 1172 3053 
L 1172 1153 
Q 1172 725 1289 603 
Q 1406 481 1766 481 
L 2356 481 
L 2356 0 
L 1766 0 
Q 1100 0 847 248 
Q 594 497 594 1153 
L 594 3053 
L 172 3053 
L 172 3500 
L 594 3500 
L 594 4494 
L 1172 4494 
z
" transform="scale(0.015625)"/>
       <path id="DejaVuSans-68" d="M 3513 2113 
L 3513 0 
L 2938 0 
L 2938 2094 
Q 2938 2591 2744 2837 
Q 2550 3084 2163 3084 
Q 1697 3084 1428 2787 
Q 1159 2491 1159 1978 
L 1159 0 
L 581 0 
L 581 4863 
L 1159 4863 
L 1159 2956 
Q 1366 3272 1645 3428 
Q 1925 3584 2291 3584 
Q 2894 3584 3203 3211 
Q 3513 2838 3513 2113 
z
" transform="scale(0.015625)"/>
      </defs>
      <use xlink:href="#DejaVuSans-63"/>
      <use xlink:href="#DejaVuSans-6f" transform="translate(54.980469 0)"/>
      <use xlink:href="#DejaVuSans-6e" transform="translate(116.162109 0)"/>
      <use xlink:href="#DejaVuSans-6e" transform="translate(179.541016 0)"/>
      <use xlink:href="#DejaVuSans-65" transform="translate(242.919922 0)"/>
      <use xlink:href="#DejaVuSans-63" transform="translate(304.443359 0)"/>
      <use xlink:href="#DejaVuSans-74" transform="translate(359.423828 0)"/>
      <use xlink:href="#DejaVuSans-6f" transform="translate(398.632812 0)"/>
      <use xlink:href="#DejaVuSans-72" transform="translate(459.814453 0)"/>
      <use xlink:href="#DejaVuSans-20" transform="translate(500.927734 0)"/>
      <use xlink:href="#DejaVuSans-74" transform="translate(532.714844 0)"/>
      <use xlink:href="#DejaVuSans-68" transform="translate(571.923828 0)"/>
      <use xlink:href="#DejaVuSans-65" transform="translate(635.302734 0)"/>
      <use xlink:href="#DejaVuSans-6f" transform="translate(696.826172 0)"/>
      <use xlink:href="#DejaVuSans-72" transform="translate(758.007812 0)"/>
      <use xlink:href="#DejaVuSans-65" transform="translate(796.871094 0)"/>
      <use xlink:href="#DejaVuSans-6d" transform="translate(858.394531 0)"/>
     </g>
    </g>
   </g>
   <g id="text_5">
    <g clip-path="url(#p155c195ee7)">
     <!-- unique dilatation from a segment -->
     <g transform="translate(198.941085 270.637469) scale(0.08 -0.08)">
      <defs>
       <path id="DejaVuSans-64" d="M 2906 2969 
L 2906 4863 
L 3481 4863 
L 3481 0 
L 2906 0 
L 2906 525 
Q 2725 213 2448 61 
Q 2172 -91 1784 -91 
Q 1150 -91 751 415 
Q 353 922 353 1747 
Q 353 2572 751 3078 
Q 1150 3584 1784 3584 
Q 2172 3584 2448 3432 
Q 2725 3281 2906 2969 
z
M 947 1747 
Q 947 1113 1208 752 
Q 1469 391 1925 391 
Q 2381 391 2643 752 
Q 2906 1113 2906 1747 
Q 2906 2381 2643 2742 
Q 2381 3103 1925 3103 
Q 1469 3103 1208 2742 
Q 947 2381 947 1747 
z
" transform="scale(0.015625)"/>
       <path id="DejaVuSans-66" d="M 2375 4863 
L 2375 4384 
L 1825 4384 
Q 1516 4384 1395 4259 
Q 1275 4134 1275 3809 
L 1275 3500 
L 2222 3500 
L 2222 3053 
L 1275 3053 
L 1275 0 
L 697 0 
L 697 3053 
L 147 3053 
L 147 3500 
L 697 3500 
L 697 3744 
Q 697 4328 969 4595 
Q 1241 4863 1831 4863 
L 2375 4863 
z
" transform="scale(0.015625)"/>
      </defs>
      <use xlink:href="#DejaVuSans-75"/>
      <use xlink:href="#DejaVuSans-6e" transform="translate(63.378906 0)"/>
      <use xlink:href="#DejaVuSans-69" transform="translate(126.757812 0)"/>
      <use xlink:href="#DejaVuSans-71" transform="translate(154.541016 0)"/>
      <use xlink:href="#DejaVuSans-75" transform="translate(218.017578 0)"/>
      <use xlink:href="#DejaVuSans-65" transform="translate(281.396484 0)"/>
      <use xlink:href="#DejaVuSans-20" transform="translate(342.919922 0)"/>
      <use xlink:href="#DejaVuSans-64" transform="translate(374.707031 0)"/>
      <use xlink:href="#DejaVuSans-69" transform="translate(438.183594 0)"/>
      <use xlink:href="#DejaVuSans-6c" transform="translate(465.966797 0)"/>
      <use xlink:href="#DejaVuSans-61" transform="translate(493.75 0)"/>
      <use xlink:href="#DejaVuSans-74" transform="translate(555.029297 0)"/>
      <use xlink:href="#DejaVuSans-61" transform="translate(594.238281 0)"/>
      <use xlink:href="#DejaVuSans-74" transform="translate(655.517578 0)"/>
      <use xlink:href="#DejaVuSans-69" transform="translate(694.726562 0)"/>
      <use xlink:href="#DejaVuSans-6f" transform="translate(722.509766 0)"/>
      <use xlink:href="#DejaVuSans-6e" transform="translate(783.691406 0)"/>
      <use xlink:href="#DejaVuSans-20" transform="translate(847.070312 0)"/>
      <use xlink:href="#DejaVuSans-66" transform="translate(878.857422 0)"/>
      <use xlink:href="#DejaVuSans-72" transform="translate(914.0625 0)"/>
      <use xlink:href="#DejaVuSans-6f" transform="translate(952.925781 0)"/>
      <use xlink:href="#DejaVuSans-6d" transform="translate(1014.107422 0)"/>
      <use xlink:href="#DejaVuSans-20" transform="translate(1111.519531 0)"/>
      <use xlink:href="#DejaVuSans-61" transform="translate(1143.306641 0)"/>
      <use xlink:href="#DejaVuSans-20" transform="translate(1204.585938 0)"/>
      <use xlink:href="#DejaVuSans-73" transform="translate(1236.373047 0)"/>
      <use xlink:href="#DejaVuSans-65" transform="translate(1288.472656 0)"/>
      <use xlink:href="#DejaVuSans-67" transform="translate(1349.996094 0)"/>
      <use xlink:href="#DejaVuSans-6d" transform="translate(1413.472656 0)"/>
      <use xlink:href="#DejaVuSans-65" transform="translate(1510.884766 0)"/>
      <use xlink:href="#DejaVuSans-6e" transform="translate(1572.408203 0)"/>
      <use xlink:href="#DejaVuSans-74" transform="translate(1635.787109 0)"/>
     </g>
    </g>
   </g>
   <g id="text_6">
    <g clip-path="url(#p155c195ee7)">
     <!-- central dilatations / translations -->
     <g transform="translate(202.23921 169.837469) scale(0.08 -0.08)">
      <defs>
       <path id="DejaVuSans-2f" d="M 1625 4666 
L 2156 4666 
L 531 -594 
L 0 -594 
L 1625 4666 
z
" transform="scale(0.015625)"/>
      </defs>
      <use xlink:href="#DejaVuSans-63"/>
      <use xlink:href="#DejaVuSans-65" transform="translate(54.980469 0)"/>
      <use xlink:href="#DejaVuSans-6e" transform="translate(116.503906 0)"/>
      <use xlink:href="#DejaVuSans-74" transform="translate(179.882812 0)"/>
      <use xlink:href="#DejaVuSans-72" transform="translate(219.091797 0)"/>
      <use xlink:href="#DejaVuSans-61" transform="translate(260.205078 0)"/>
      <use xlink:href="#DejaVuSans-6c" transform="translate(321.484375 0)"/>
      <use xlink:href="#DejaVuSans-20" transform="translate(349.267578 0)"/>
      <use xlink:href="#DejaVuSans-64" transform="translate(381.054688 0)"/>
      <use xlink:href="#DejaVuSans-69" transform="translate(444.53125 0)"/>
      <use xlink:href="#DejaVuSans-6c" transform="translate(472.314453 0)"/>
      <use xlink:href="#DejaVuSans-61" transform="translate(500.097656 0)"/>
      <use xlink:href="#DejaVuSans-74" transform="translate(561.376953 0)"/>
      <use xlink:href="#DejaVuSans-61" transform="translate(600.585938 0)"/>
      <use xlink:href="#DejaVuSans-74" transform="translate(661.865234 0)"/>
      <use xlink:href="#DejaVuSans-69" transform="translate(701.074219 0)"/>
      <use xlink:href="#DejaVuSans-6f" transform="translate(728.857422 0)"/>
      <use xlink:href="#DejaVuSans-6e" transform="translate(790.039062 0)"/>
      <use xlink:href="#DejaVuSans-73" transform="translate(853.417969 0)"/>
      <use xlink:href="#DejaVuSans-20" transform="translate(905.517578 0)"/>
      <use xlink:href="#DejaVuSans-2f" transform="translate(937.304688 0)"/>
      <use xlink:href="#DejaVuSans-20" transform="translate(970.996094 0)"/>
      <use xlink:href="#DejaVuSans-74" transform="translate(1002.783203 0)"/>
      <use xlink:href="#DejaVuSans-72" transform="translate(1041.992188 0)"/>
      <use xlink:href="#DejaVuSans-61" transform="translate(1083.105469 0)"/>
      <use xlink:href="#DejaVuSans-6e" transform="translate(1144.384766 0)"/>
      <use xlink:href="#DejaVuSans-73" transform="translate(1207.763672 0)"/>
      <use xlink:href="#DejaVuSans-6c" transform="translate(1259.863281 0)"/>
      <use xlink:href="#DejaVuSans-61" transform="translate(1287.646484 0)"/>
      <use xlink:href="#DejaVuSans-74" transform="translate(1348.925781 0)"/>
      <use xlink:href="#DejaVuSans-69" transform="translate(1388.134766 0)"/>
      <use xlink:href="#DejaVuSans-6f" transform="translate(1415.917969 0)"/>
      <use xlink:href="#DejaVuSans-6e" transform="translate(1477.099609 0)"/>
      <use xlink:href="#DejaVuSans-73" transform="translate(1540.478516 0)"/>
     </g>
    </g>
   </g>
   <g id="text_7">
    <g clip-path="url(#p155c195ee7)">
     <!-- half-turns and vector group -->
     <g transform="translate(309.651875 270.637469) scale(0.08 -0.08)">
      <defs>
       <path id="DejaVuSans-2d" d="M 313 2009 
L 1997 2009 
L 1997 1497 
L 313 1497 
L 313 2009 
z
" transform="scale(0.015625)"/>
       <path id="DejaVuSans-76" d="M 191 3500 
L 800 3500 
L 1894 563 
L 2988 3500 
L 3597 3500 
L 2284 0 
L 1503 0 
L 191 3500 
z
" transform="scale(0.015625)"/>
      </defs>
      <use xlink:href="#DejaVuSans-68"/>
      <use xlink:href="#DejaVuSans-61" transform="translate(63.378906 0)"/>
      <use xlink:href="#DejaVuSans-6c" transform="translate(124.658203 0)"/>
      <use xlink:href="#DejaVuSans-66" transform="translate(152.441406 0)"/>
      <use xlink:href="#DejaVuSans-2d" transform="translate(182.146484 0)"/>
      <use xlink:href="#DejaVuSans-74" transform="translate(218.230469 0)"/>
      <use xlink:href="#DejaVuSans-75" transform="translate(257.439453 0)"/>
      <use xlink:href="#DejaVuSans-72" transform="translate(320.818359 0)"/>
      <use xlink:href="#DejaVuSans-6e" transform="translate(360.181641 0)"/>
      <use xlink:href="#DejaVuSans-73" transform="translate(423.560547 0)"/>
      <use xlink:href="#DejaVuSans-20" transform="translate(475.660156 0)"/>
      <use xlink:href="#DejaVuSans-61" transform="translate(507.447266 0)"/>
      <use xlink:href="#DejaVuSans-6e" transform="translate(568.726562 0)"/>
      <use xlink:href="#DejaVuSans-64" transform="translate(632.105469 0)"/>
      <use xlink:href="#DejaVuSans-20" transform="translate(695.582031 0)"/>
      <use xlink:href="#DejaVuSans-76" transform="translate(727.369141 0)"/>
      <use xlink:href="#DejaVuSans-65" transform="translate(786.548828 0)"/>
      <use xlink:href="#DejaVuSans-63" transform="translate(848.072266 0)"/>
      <use xlink:href="#DejaVuSans-74" transform="translate(903.052734 0)"/>
      <use xlink:href="#DejaVuSans-6f" transform="translate(942.261719 0)"/>
      <use xlink:href="#DejaVuSans-72" transform="translate(1003.443359 0)"/>
      <use xlink:href="#DejaVuSans-20" transform="translate(1044.556641 0)"/>
      <use xlink:href="#DejaVuSans-67" transform="translate(1076.34375 0)"/>
      <use xlink:href="#DejaVuSans-72" transform="translate(1139.820312 0)"/>
      <use xlink:href="#DejaVuSans-6f" transform="translate(1178.683594 0)"/>
      <use xlink:href="#DejaVuSans-75" transform="translate(1239.865234 0)"/>
      <use xlink:href="#DejaVuSans-70" transform="translate(1303.244141 0)"/>
     </g>
    </g>
   </g>
   <g id="text_8">
    <g clip-path="url(#p155c195ee7)">
     <!-- affine coordinates -->
     <g transform="translate(328.255 169.837469) scale(0.08 -0.08)">
      <use xlink:href="#DejaVuSans-61"/>
      <use xlink:href="#DejaVuSans-66" transform="translate(61.279297 0)"/>
      <use xlink:href="#DejaVuSans-66" transform="translate(96.484375 0)"/>
      <use xlink:href="#DejaVuSans-69" transform="translate(131.689453 0)"/>
      <use xlink:href="#DejaVuSans-6e" transform="translate(159.472656 0)"/>
      <use xlink:href="#DejaVuSans-65" transform="translate(222.851562 0)"/>
      <use xlink:href="#DejaVuSans-20" transform="translate(284.375 0)"/>
      <use xlink:href="#DejaVuSans-63" transform="translate(316.162109 0)"/>
      <use xlink:href="#DejaVuSans-6f" transform="translate(371.142578 0)"/>
      <use xlink:href="#DejaVuSans-6f" transform="translate(432.324219 0)"/>
      <use xlink:href="#DejaVuSans-72" transform="translate(493.505859 0)"/>
      <use xlink:href="#DejaVuSans-64" transform="translate(532.869141 0)"/>
      <use xlink:href="#DejaVuSans-69" transform="translate(596.345703 0)"/>
      <use xlink:href="#DejaVuSans-6e" transform="translate(624.128906 0)"/>
      <use xlink:href="#DejaVuSans-61" transform="translate(687.507812 0)"/>
      <use xlink:href="#DejaVuSans-74" transform="translate(748.787109 0)"/>
      <use xlink:href="#DejaVuSans-65" transform="translate(787.996094 0)"/>
      <use xlink:href="#DejaVuSans-73" transform="translate(849.519531 0)"/>
     </g>
    </g>
   </g>
   <g id="text_9">
    <g clip-path="url(#p155c195ee7)">
     <!-- affinities preserve lines -->
     <g transform="translate(416.032665 321.037469) scale(0.08 -0.08)">
      <use xlink:href="#DejaVuSans-61"/>
      <use xlink:href="#DejaVuSans-66" transform="translate(61.279297 0)"/>
      <use xlink:href="#DejaVuSans-66" transform="translate(96.484375 0)"/>
      <use xlink:href="#DejaVuSans-69" transform="translate(131.689453 0)"/>
      <use xlink:href="#DejaVuSans-6e" transform="translate(159.472656 0)"/>
      <use xlink:href="#DejaVuSans-69" transform="translate(222.851562 0)"/>
      <use xlink:href="#DejaVuSans-74" transform="translate(250.634766 0)"/>
      <use xlink:href="#DejaVuSans-69" transform="translate(289.84375 0)"/>
      <use xlink:href="#DejaVuSans-65" transform="translate(317.626953 0)"/>
      <use xlink:href="#DejaVuSans-73" transform="translate(379.150391 0)"/>
      <use xlink:href="#DejaVuSans-20" transform="translate(431.25 0)"/>
      <use xlink:href="#DejaVuSans-70" transform="translate(463.037109 0)"/>
      <use xlink:href="#DejaVuSans-72" transform="translate(526.513672 0)"/>
      <use xlink:href="#DejaVuSans-65" transform="translate(565.376953 0)"/>
      <use xlink:href="#DejaVuSans-73" transform="translate(626.900391 0)"/>
      <use xlink:href="#DejaVuSans-65" transform="translate(679 0)"/>
      <use xlink:href="#DejaVuSans-72" transform="translate(740.523438 0)"/>
      <use xlink:href="#DejaVuSans-76" transform="translate(781.636719 0)"/>
      <use xlink:href="#DejaVuSans-65" transform="translate(840.816406 0)"/>
      <use xlink:href="#DejaVuSans-20" transform="translate(902.339844 0)"/>
      <use xlink:href="#DejaVuSans-6c" transform="translate(934.126953 0)"/>
      <use xlink:href="#DejaVuSans-69" transform="translate(961.910156 0)"/>
      <use xlink:href="#DejaVuSans-6e" transform="translate(989.693359 0)"/>
      <use xlink:href="#DejaVuSans-65" transform="translate(1053.072266 0)"/>
      <use xlink:href="#DejaVuSans-73" transform="translate(1114.595703 0)"/>
     </g>
    </g>
   </g>
   <g id="text_10">
    <g clip-path="url(#p155c195ee7)">
     <!-- determinant area formula -->
     <g transform="translate(411.11454 220.237469) scale(0.08 -0.08)">
      <use xlink:href="#DejaVuSans-64"/>
      <use xlink:href="#DejaVuSans-65" transform="translate(63.476562 0)"/>
      <use xlink:href="#DejaVuSans-74" transform="translate(125 0)"/>
      <use xlink:href="#DejaVuSans-65" transform="translate(164.208984 0)"/>
      <use xlink:href="#DejaVuSans-72" transform="translate(225.732422 0)"/>
      <use xlink:href="#DejaVuSans-6d" transform="translate(265.095703 0)"/>
      <use xlink:href="#DejaVuSans-69" transform="translate(362.507812 0)"/>
      <use xlink:href="#DejaVuSans-6e" transform="translate(390.291016 0)"/>
      <use xlink:href="#DejaVuSans-61" transform="translate(453.669922 0)"/>
      <use xlink:href="#DejaVuSans-6e" transform="translate(514.949219 0)"/>
      <use xlink:href="#DejaVuSans-74" transform="translate(578.328125 0)"/>
      <use xlink:href="#DejaVuSans-20" transform="translate(617.537109 0)"/>
      <use xlink:href="#DejaVuSans-61" transform="translate(649.324219 0)"/>
      <use xlink:href="#DejaVuSans-72" transform="translate(710.603516 0)"/>
      <use xlink:href="#DejaVuSans-65" transform="translate(749.466797 0)"/>
      <use xlink:href="#DejaVuSans-61" transform="translate(810.990234 0)"/>
      <use xlink:href="#DejaVuSans-20" transform="translate(872.269531 0)"/>
      <use xlink:href="#DejaVuSans-66" transform="translate(904.056641 0)"/>
      <use xlink:href="#DejaVuSans-6f" transform="translate(939.261719 0)"/>
      <use xlink:href="#DejaVuSans-72" transform="translate(1000.443359 0)"/>
      <use xlink:href="#DejaVuSans-6d" transform="translate(1039.806641 0)"/>
      <use xlink:href="#DejaVuSans-75" transform="translate(1137.21875 0)"/>
      <use xlink:href="#DejaVuSans-6c" transform="translate(1200.597656 0)"/>
      <use xlink:href="#DejaVuSans-61" transform="translate(1228.380859 0)"/>
     </g>
    </g>
   </g>
   <g id="text_11">
    <g clip-path="url(#p155c195ee7)">
     <!-- equiaffinities -->
     <g transform="translate(535.184081 371.437469) scale(0.08 -0.08)">
      <use xlink:href="#DejaVuSans-65"/>
      <use xlink:href="#DejaVuSans-71" transform="translate(61.523438 0)"/>
      <use xlink:href="#DejaVuSans-75" transform="translate(125 0)"/>
      <use xlink:href="#DejaVuSans-69" transform="translate(188.378906 0)"/>
      <use xlink:href="#DejaVuSans-61" transform="translate(216.162109 0)"/>
      <use xlink:href="#DejaVuSans-66" transform="translate(277.441406 0)"/>
      <use xlink:href="#DejaVuSans-66" transform="translate(312.646484 0)"/>
      <use xlink:href="#DejaVuSans-69" transform="translate(347.851562 0)"/>
      <use xlink:href="#DejaVuSans-6e" transform="translate(375.634766 0)"/>
      <use xlink:href="#DejaVuSans-69" transform="translate(439.013672 0)"/>
      <use xlink:href="#DejaVuSans-74" transform="translate(466.796875 0)"/>
      <use xlink:href="#DejaVuSans-69" transform="translate(506.005859 0)"/>
      <use xlink:href="#DejaVuSans-65" transform="translate(533.789062 0)"/>
      <use xlink:href="#DejaVuSans-73" transform="translate(595.3125 0)"/>
     </g>
    </g>
   </g>
   <g id="text_12">
    <g clip-path="url(#p155c195ee7)">
     <!-- Pick and Farey lattice facts -->
     <g transform="translate(507.569706 270.637469) scale(0.08 -0.08)">
      <defs>
       <path id="DejaVuSans-50" d="M 1259 4147 
L 1259 2394 
L 2053 2394 
Q 2494 2394 2734 2622 
Q 2975 2850 2975 3272 
Q 2975 3691 2734 3919 
Q 2494 4147 2053 4147 
L 1259 4147 
z
M 628 4666 
L 2053 4666 
Q 2838 4666 3239 4311 
Q 3641 3956 3641 3272 
Q 3641 2581 3239 2228 
Q 2838 1875 2053 1875 
L 1259 1875 
L 1259 0 
L 628 0 
L 628 4666 
z
" transform="scale(0.015625)"/>
       <path id="DejaVuSans-6b" d="M 581 4863 
L 1159 4863 
L 1159 1991 
L 2875 3500 
L 3609 3500 
L 1753 1863 
L 3688 0 
L 2938 0 
L 1159 1709 
L 1159 0 
L 581 0 
L 581 4863 
z
" transform="scale(0.015625)"/>
       <path id="DejaVuSans-46" d="M 628 4666 
L 3309 4666 
L 3309 4134 
L 1259 4134 
L 1259 2759 
L 3109 2759 
L 3109 2228 
L 1259 2228 
L 1259 0 
L 628 0 
L 628 4666 
z
" transform="scale(0.015625)"/>
       <path id="DejaVuSans-79" d="M 2059 -325 
Q 1816 -950 1584 -1140 
Q 1353 -1331 966 -1331 
L 506 -1331 
L 506 -850 
L 844 -850 
Q 1081 -850 1212 -737 
Q 1344 -625 1503 -206 
L 1606 56 
L 191 3500 
L 800 3500 
L 1894 763 
L 2988 3500 
L 3597 3500 
L 2059 -325 
z
" transform="scale(0.015625)"/>
      </defs>
      <use xlink:href="#DejaVuSans-50"/>
      <use xlink:href="#DejaVuSans-69" transform="translate(58.052734 0)"/>
      <use xlink:href="#DejaVuSans-63" transform="translate(85.835938 0)"/>
      <use xlink:href="#DejaVuSans-6b" transform="translate(140.816406 0)"/>
      <use xlink:href="#DejaVuSans-20" transform="translate(198.726562 0)"/>
      <use xlink:href="#DejaVuSans-61" transform="translate(230.513672 0)"/>
      <use xlink:href="#DejaVuSans-6e" transform="translate(291.792969 0)"/>
      <use xlink:href="#DejaVuSans-64" transform="translate(355.171875 0)"/>
      <use xlink:href="#DejaVuSans-20" transform="translate(418.648438 0)"/>
      <use xlink:href="#DejaVuSans-46" transform="translate(450.435547 0)"/>
      <use xlink:href="#DejaVuSans-61" transform="translate(498.830078 0)"/>
      <use xlink:href="#DejaVuSans-72" transform="translate(560.109375 0)"/>
      <use xlink:href="#DejaVuSans-65" transform="translate(598.972656 0)"/>
      <use xlink:href="#DejaVuSans-79" transform="translate(660.496094 0)"/>
      <use xlink:href="#DejaVuSans-20" transform="translate(719.675781 0)"/>
      <use xlink:href="#DejaVuSans-6c" transform="translate(751.462891 0)"/>
      <use xlink:href="#DejaVuSans-61" transform="translate(779.246094 0)"/>
      <use xlink:href="#DejaVuSans-74" transform="translate(840.525391 0)"/>
      <use xlink:href="#DejaVuSans-74" transform="translate(879.734375 0)"/>
      <use xlink:href="#DejaVuSans-69" transform="translate(918.943359 0)"/>
      <use xlink:href="#DejaVuSans-63" transform="translate(946.726562 0)"/>
      <use xlink:href="#DejaVuSans-65" transform="translate(1001.707031 0)"/>
      <use xlink:href="#DejaVuSans-20" transform="translate(1063.230469 0)"/>
      <use xlink:href="#DejaVuSans-66" transform="translate(1095.017578 0)"/>
      <use xlink:href="#DejaVuSans-61" transform="translate(1130.222656 0)"/>
      <use xlink:href="#DejaVuSans-63" transform="translate(1191.501953 0)"/>
      <use xlink:href="#DejaVuSans-74" transform="translate(1246.482422 0)"/>
      <use xlink:href="#DejaVuSans-73" transform="translate(1285.691406 0)"/>
     </g>
    </g>
   </g>
   <g id="text_13">
    <g clip-path="url(#p155c195ee7)">
     <!-- centroids -->
     <g transform="translate(444.200165 119.437469) scale(0.08 -0.08)">
      <use xlink:href="#DejaVuSans-63"/>
      <use xlink:href="#DejaVuSans-65" transform="translate(54.980469 0)"/>
      <use xlink:href="#DejaVuSans-6e" transform="translate(116.503906 0)"/>
      <use xlink:href="#DejaVuSans-74" transform="translate(179.882812 0)"/>
      <use xlink:href="#DejaVuSans-72" transform="translate(219.091797 0)"/>
      <use xlink:href="#DejaVuSans-6f" transform="translate(257.955078 0)"/>
      <use xlink:href="#DejaVuSans-69" transform="translate(319.136719 0)"/>
      <use xlink:href="#DejaVuSans-64" transform="translate(346.919922 0)"/>
      <use xlink:href="#DejaVuSans-73" transform="translate(410.396484 0)"/>
     </g>
    </g>
   </g>
   <g id="text_14">
    <g clip-path="url(#p155c195ee7)">
     <!-- barycentric coordinates -->
     <g transform="translate(513.669081 169.837469) scale(0.08 -0.08)">
      <defs>
       <path id="DejaVuSans-62" d="M 3116 1747 
Q 3116 2381 2855 2742 
Q 2594 3103 2138 3103 
Q 1681 3103 1420 2742 
Q 1159 2381 1159 1747 
Q 1159 1113 1420 752 
Q 1681 391 2138 391 
Q 2594 391 2855 752 
Q 3116 1113 3116 1747 
z
M 1159 2969 
Q 1341 3281 1617 3432 
Q 1894 3584 2278 3584 
Q 2916 3584 3314 3078 
Q 3713 2572 3713 1747 
Q 3713 922 3314 415 
Q 2916 -91 2278 -91 
Q 1894 -91 1617 61 
Q 1341 213 1159 525 
L 1159 0 
L 581 0 
L 581 4863 
L 1159 4863 
L 1159 2969 
z
" transform="scale(0.015625)"/>
      </defs>
      <use xlink:href="#DejaVuSans-62"/>
      <use xlink:href="#DejaVuSans-61" transform="translate(63.476562 0)"/>
      <use xlink:href="#DejaVuSans-72" transform="translate(124.755859 0)"/>
      <use xlink:href="#DejaVuSans-79" transform="translate(165.869141 0)"/>
      <use xlink:href="#DejaVuSans-63" transform="translate(225.048828 0)"/>
      <use xlink:href="#DejaVuSans-65" transform="translate(280.029297 0)"/>
      <use xlink:href="#DejaVuSans-6e" transform="translate(341.552734 0)"/>
      <use xlink:href="#DejaVuSans-74" transform="translate(404.931641 0)"/>
      <use xlink:href="#DejaVuSans-72" transform="translate(444.140625 0)"/>
      <use xlink:href="#DejaVuSans-69" transform="translate(485.253906 0)"/>
      <use xlink:href="#DejaVuSans-63" transform="translate(513.037109 0)"/>
      <use xlink:href="#DejaVuSans-20" transform="translate(568.017578 0)"/>
      <use xlink:href="#DejaVuSans-63" transform="translate(599.804688 0)"/>
      <use xlink:href="#DejaVuSans-6f" transform="translate(654.785156 0)"/>
      <use xlink:href="#DejaVuSans-6f" transform="translate(715.966797 0)"/>
      <use xlink:href="#DejaVuSans-72" transform="translate(777.148438 0)"/>
      <use xlink:href="#DejaVuSans-64" transform="translate(816.511719 0)"/>
      <use xlink:href="#DejaVuSans-69" transform="translate(879.988281 0)"/>
      <use xlink:href="#DejaVuSans-6e" transform="translate(907.771484 0)"/>
      <use xlink:href="#DejaVuSans-61" transform="translate(971.150391 0)"/>
      <use xlink:href="#DejaVuSans-74" transform="translate(1032.429688 0)"/>
      <use xlink:href="#DejaVuSans-65" transform="translate(1071.638672 0)"/>
      <use xlink:href="#DejaVuSans-73" transform="translate(1133.162109 0)"/>
     </g>
    </g>
   </g>
   <g id="text_15">
    <g clip-path="url(#p155c195ee7)">
     <!-- Ceva and Menelaus -->
     <g transform="translate(620.229246 270.637469) scale(0.08 -0.08)">
      <defs>
       <path id="DejaVuSans-43" d="M 4122 4306 
L 4122 3641 
Q 3803 3938 3442 4084 
Q 3081 4231 2675 4231 
Q 1875 4231 1450 3742 
Q 1025 3253 1025 2328 
Q 1025 1406 1450 917 
Q 1875 428 2675 428 
Q 3081 428 3442 575 
Q 3803 722 4122 1019 
L 4122 359 
Q 3791 134 3420 21 
Q 3050 -91 2638 -91 
Q 1578 -91 968 557 
Q 359 1206 359 2328 
Q 359 3453 968 4101 
Q 1578 4750 2638 4750 
Q 3056 4750 3426 4639 
Q 3797 4528 4122 4306 
z
" transform="scale(0.015625)"/>
       <path id="DejaVuSans-4d" d="M 628 4666 
L 1569 4666 
L 2759 1491 
L 3956 4666 
L 4897 4666 
L 4897 0 
L 4281 0 
L 4281 4097 
L 3078 897 
L 2444 897 
L 1241 4097 
L 1241 0 
L 628 0 
L 628 4666 
z
" transform="scale(0.015625)"/>
      </defs>
      <use xlink:href="#DejaVuSans-43"/>
      <use xlink:href="#DejaVuSans-65" transform="translate(69.824219 0)"/>
      <use xlink:href="#DejaVuSans-76" transform="translate(131.347656 0)"/>
      <use xlink:href="#DejaVuSans-61" transform="translate(190.527344 0)"/>
      <use xlink:href="#DejaVuSans-20" transform="translate(251.806641 0)"/>
      <use xlink:href="#DejaVuSans-61" transform="translate(283.59375 0)"/>
      <use xlink:href="#DejaVuSans-6e" transform="translate(344.873047 0)"/>
      <use xlink:href="#DejaVuSans-64" transform="translate(408.251953 0)"/>
      <use xlink:href="#DejaVuSans-20" transform="translate(471.728516 0)"/>
      <use xlink:href="#DejaVuSans-4d" transform="translate(503.515625 0)"/>
      <use xlink:href="#DejaVuSans-65" transform="translate(589.794922 0)"/>
      <use xlink:href="#DejaVuSans-6e" transform="translate(651.318359 0)"/>
      <use xlink:href="#DejaVuSans-65" transform="translate(714.697266 0)"/>
      <use xlink:href="#DejaVuSans-6c" transform="translate(776.220703 0)"/>
      <use xlink:href="#DejaVuSans-61" transform="translate(804.003906 0)"/>
      <use xlink:href="#DejaVuSans-75" transform="translate(865.283203 0)"/>
      <use xlink:href="#DejaVuSans-73" transform="translate(928.662109 0)"/>
     </g>
    </g>
   </g>
   <g id="text_16">
    <g clip-path="url(#p155c195ee7)">
     <!-- 3D affine space -->
     <g transform="translate(529.802831 69.037469) scale(0.08 -0.08)">
      <use xlink:href="#DejaVuSans-33"/>
      <use xlink:href="#DejaVuSans-44" transform="translate(63.623047 0)"/>
      <use xlink:href="#DejaVuSans-20" transform="translate(140.625 0)"/>
      <use xlink:href="#DejaVuSans-61" transform="translate(172.412109 0)"/>
      <use xlink:href="#DejaVuSans-66" transform="translate(233.691406 0)"/>
      <use xlink:href="#DejaVuSans-66" transform="translate(268.896484 0)"/>
      <use xlink:href="#DejaVuSans-69" transform="translate(304.101562 0)"/>
      <use xlink:href="#DejaVuSans-6e" transform="translate(331.884766 0)"/>
      <use xlink:href="#DejaVuSans-65" transform="translate(395.263672 0)"/>
      <use xlink:href="#DejaVuSans-20" transform="translate(456.787109 0)"/>
      <use xlink:href="#DejaVuSans-73" transform="translate(488.574219 0)"/>
      <use xlink:href="#DejaVuSans-70" transform="translate(540.673828 0)"/>
      <use xlink:href="#DejaVuSans-61" transform="translate(604.150391 0)"/>
      <use xlink:href="#DejaVuSans-63" transform="translate(665.429688 0)"/>
      <use xlink:href="#DejaVuSans-65" transform="translate(720.410156 0)"/>
     </g>
    </g>
   </g>
   <g id="text_17">
    <g clip-path="url(#p155c195ee7)">
     <!-- 3D lattices and rational planes -->
     <g transform="translate(598.168621 169.837469) scale(0.08 -0.08)">
      <use xlink:href="#DejaVuSans-33"/>
      <use xlink:href="#DejaVuSans-44" transform="translate(63.623047 0)"/>
      <use xlink:href="#DejaVuSans-20" transform="translate(140.625 0)"/>
      <use xlink:href="#DejaVuSans-6c" transform="translate(172.412109 0)"/>
      <use xlink:href="#DejaVuSans-61" transform="translate(200.195312 0)"/>
      <use xlink:href="#DejaVuSans-74" transform="translate(261.474609 0)"/>
      <use xlink:href="#DejaVuSans-74" transform="translate(300.683594 0)"/>
      <use xlink:href="#DejaVuSans-69" transform="translate(339.892578 0)"/>
      <use xlink:href="#DejaVuSans-63" transform="translate(367.675781 0)"/>
      <use xlink:href="#DejaVuSans-65" transform="translate(422.65625 0)"/>
      <use xlink:href="#DejaVuSans-73" transform="translate(484.179688 0)"/>
      <use xlink:href="#DejaVuSans-20" transform="translate(536.279297 0)"/>
      <use xlink:href="#DejaVuSans-61" transform="translate(568.066406 0)"/>
      <use xlink:href="#DejaVuSans-6e" transform="translate(629.345703 0)"/>
      <use xlink:href="#DejaVuSans-64" transform="translate(692.724609 0)"/>
      <use xlink:href="#DejaVuSans-20" transform="translate(756.201172 0)"/>
      <use xlink:href="#DejaVuSans-72" transform="translate(787.988281 0)"/>
      <use xlink:href="#DejaVuSans-61" transform="translate(829.101562 0)"/>
      <use xlink:href="#DejaVuSans-74" transform="translate(890.380859 0)"/>
      <use xlink:href="#DejaVuSans-69" transform="translate(929.589844 0)"/>
      <use xlink:href="#DejaVuSans-6f" transform="translate(957.373047 0)"/>
      <use xlink:href="#DejaVuSans-6e" transform="translate(1018.554688 0)"/>
      <use xlink:href="#DejaVuSans-61" transform="translate(1081.933594 0)"/>
      <use xlink:href="#DejaVuSans-6c" transform="translate(1143.212891 0)"/>
      <use xlink:href="#DejaVuSans-20" transform="translate(1170.996094 0)"/>
      <use xlink:href="#DejaVuSans-70" transform="translate(1202.783203 0)"/>
      <use xlink:href="#DejaVuSans-6c" transform="translate(1266.259766 0)"/>
      <use xlink:href="#DejaVuSans-61" transform="translate(1294.042969 0)"/>
      <use xlink:href="#DejaVuSans-6e" transform="translate(1355.322266 0)"/>
      <use xlink:href="#DejaVuSans-65" transform="translate(1418.701172 0)"/>
      <use xlink:href="#DejaVuSans-73" transform="translate(1480.224609 0)"/>
     </g>
    </g>
   </g>
   <g id="text_18">
    <!-- Dependency graph for Chapter 13 affine constructions -->
    <g transform="translate(186.493203 17.077969) scale(0.13 -0.13)">
     <use xlink:href="#DejaVuSans-44"/>
     <use xlink:href="#DejaVuSans-65" transform="translate(77.001953 0)"/>
     <use xlink:href="#DejaVuSans-70" transform="translate(138.525391 0)"/>
     <use xlink:href="#DejaVuSans-65" transform="translate(202.001953 0)"/>
     <use xlink:href="#DejaVuSans-6e" transform="translate(263.525391 0)"/>
     <use xlink:href="#DejaVuSans-64" transform="translate(326.904297 0)"/>
     <use xlink:href="#DejaVuSans-65" transform="translate(390.380859 0)"/>
     <use xlink:href="#DejaVuSans-6e" transform="translate(451.904297 0)"/>
     <use xlink:href="#DejaVuSans-63" transform="translate(515.283203 0)"/>
     <use xlink:href="#DejaVuSans-79" transform="translate(570.263672 0)"/>
     <use xlink:href="#DejaVuSans-20" transform="translate(629.443359 0)"/>
     <use xlink:href="#DejaVuSans-67" transform="translate(661.230469 0)"/>
     <use xlink:href="#DejaVuSans-72" transform="translate(724.707031 0)"/>
     <use xlink:href="#DejaVuSans-61" transform="translate(765.820312 0)"/>
     <use xlink:href="#DejaVuSans-70" transform="translate(827.099609 0)"/>
     <use xlink:href="#DejaVuSans-68" transform="translate(890.576172 0)"/>
     <use xlink:href="#DejaVuSans-20" transform="translate(953.955078 0)"/>
     <use xlink:href="#DejaVuSans-66" transform="translate(985.742188 0)"/>
     <use xlink:href="#DejaVuSans-6f" transform="translate(1020.947266 0)"/>
     <use xlink:href="#DejaVuSans-72" transform="translate(1082.128906 0)"/>
     <use xlink:href="#DejaVuSans-20" transform="translate(1123.242188 0)"/>
     <use xlink:href="#DejaVuSans-43" transform="translate(1155.029297 0)"/>
     <use xlink:href="#DejaVuSans-68" transform="translate(1224.853516 0)"/>
     <use xlink:href="#DejaVuSans-61" transform="translate(1288.232422 0)"/>
     <use xlink:href="#DejaVuSans-70" transform="translate(1349.511719 0)"/>
     <use xlink:href="#DejaVuSans-74" transform="translate(1412.988281 0)"/>
     <use xlink:href="#DejaVuSans-65" transform="translate(1452.197266 0)"/>
     <use xlink:href="#DejaVuSans-72" transform="translate(1513.720703 0)"/>
     <use xlink:href="#DejaVuSans-20" transform="translate(1554.833984 0)"/>
     <use xlink:href="#DejaVuSans-31" transform="translate(1586.621094 0)"/>
     <use xlink:href="#DejaVuSans-33" transform="translate(1650.244141 0)"/>
     <use xlink:href="#DejaVuSans-20" transform="translate(1713.867188 0)"/>
     <use xlink:href="#DejaVuSans-61" transform="translate(1745.654297 0)"/>
     <use xlink:href="#DejaVuSans-66" transform="translate(1806.933594 0)"/>
     <use xlink:href="#DejaVuSans-66" transform="translate(1842.138672 0)"/>
     <use xlink:href="#DejaVuSans-69" transform="translate(1877.34375 0)"/>
     <use xlink:href="#DejaVuSans-6e" transform="translate(1905.126953 0)"/>
     <use xlink:href="#DejaVuSans-65" transform="translate(1968.505859 0)"/>
     <use xlink:href="#DejaVuSans-20" transform="translate(2030.029297 0)"/>
     <use xlink:href="#DejaVuSans-63" transform="translate(2061.816406 0)"/>
     <use xlink:href="#DejaVuSans-6f" transform="translate(2116.796875 0)"/>
     <use xlink:href="#DejaVuSans-6e" transform="translate(2177.978516 0)"/>
     <use xlink:href="#DejaVuSans-73" transform="translate(2241.357422 0)"/>
     <use xlink:href="#DejaVuSans-74" transform="translate(2293.457031 0)"/>
     <use xlink:href="#DejaVuSans-72" transform="translate(2332.666016 0)"/>
     <use xlink:href="#DejaVuSans-75" transform="translate(2373.779297 0)"/>
     <use xlink:href="#DejaVuSans-63" transform="translate(2437.158203 0)"/>
     <use xlink:href="#DejaVuSans-74" transform="translate(2492.138672 0)"/>
     <use xlink:href="#DejaVuSans-69" transform="translate(2531.347656 0)"/>
     <use xlink:href="#DejaVuSans-6f" transform="translate(2559.130859 0)"/>
     <use xlink:href="#DejaVuSans-6e" transform="translate(2620.3125 0)"/>
     <use xlink:href="#DejaVuSans-73" transform="translate(2683.691406 0)"/>
    </g>
   </g>
  </g>
 </g>
 <defs>
  <clipPath id="p155c195ee7">
   <rect x="7.2" y="35.077969" width="714.24" height="365.904"/>
  </clipPath>
 </defs>
</svg>
