<?xml version="1.0" encoding="utf-8" standalone="no"?>
<!DOCTYPE svg PUBLIC "-//W3C//DTD SVG 1.1//EN"
  "http://www.w3.org/Graphics/SVG/1.1/DTD/svg11.dtd">
<svg xmlns:xlink="http://www.w3.org/1999/xlink" width="947.023841pt" height="334.08pt" viewBox="0 0 947.023841 334.08" xmlns="http://www.w3.org/2000/svg" version="1.1">
 <metadata>
  <rdf:RDF xmlns:dc="http://purl.org/dc/elements/1.1/" xmlns:cc="http://creativecommons.org/ns#" xmlns:rdf="http://www.w3.org/1999/02/22-rdf-syntax-ns#">
   <cc:Work>
    <dc:type rdf:resource="http://purl.org/dc/dcmitype/StillImage"/>
    <dc:date>2026-05-12T07:25:50.141249</dc:date>
    <dc:format>image/svg+xml</dc:format>
    <dc:creator>
     <cc:Agent>
      <dc:title>Matplotlib v3.10.9, https://matplotlib.org/</dc:title>
     </cc:Agent>
    </dc:creator>
   </cc:Work>
  </rdf:RDF>
 </metadata>
 <defs>
  <style type="text/css">*{stroke-linejoin: round; stroke-linecap: butt}</style>
 </defs>
 <g id="figure_1">
  <g id="patch_1">
   <path d="M 0 334.08 
L 947.023841 334.08 
L 947.023841 0 
L 0 0 
z
" style="fill: #ffffff"/>
  </g>
  <g id="axes_1">
   <g id="patch_2">
    <path d="M 7.2 326.88 
L 295.057072 326.88 
L 295.057072 48.018462 
L 7.2 48.018462 
z
" style="fill: #ffffff"/>
   </g>
   <g id="patch_3">
    <path d="M 124.141935 119.98273 
L 214.09727 160.46263 
L 164.621836 250.417965 
L 124.141935 119.98273 
z
" clip-path="url(#p035f03ecb0)" style="fill: none; stroke: #2563eb; stroke-width: 2; stroke-linejoin: miter"/>
   </g>
   <g id="patch_4">
    <path d="M 158.774739 80.402382 
L 298.205509 143.146228 
L 221.518586 282.576998 
L 158.774739 80.402382 
z
" clip-path="url(#p035f03ecb0)" style="fill: none; stroke: #dc2626; stroke-width: 2; stroke-linejoin: miter"/>
   </g>
   <g id="matplotlib.axis_1">
    <g id="xtick_1">
     <g id="line2d_1">
      <path d="M 25.191067 326.88 
L 25.191067 48.018462 
" clip-path="url(#p035f03ecb0)" style="fill: none; stroke: #e5e7eb; stroke-width: 0.7; stroke-linecap: square"/>
     </g>
     <g id="line2d_2"/>
    </g>
    <g id="xtick_2">
     <g id="line2d_3">
      <path d="M 70.168734 326.88 
L 70.168734 48.018462 
" clip-path="url(#p035f03ecb0)" style="fill: none; stroke: #e5e7eb; stroke-width: 0.7; stroke-linecap: square"/>
     </g>
     <g id="line2d_4"/>
    </g>
    <g id="xtick_3">
     <g id="line2d_5">
      <path d="M 115.146402 326.88 
L 115.146402 48.018462 
" clip-path="url(#p035f03ecb0)" style="fill: none; stroke: #e5e7eb; stroke-width: 0.7; stroke-linecap: square"/>
     </g>
     <g id="line2d_6"/>
    </g>
    <g id="xtick_4">
     <g id="line2d_7">
      <path d="M 160.124069 326.88 
L 160.124069 48.018462 
" clip-path="url(#p035f03ecb0)" style="fill: none; stroke: #e5e7eb; stroke-width: 0.7; stroke-linecap: square"/>
     </g>
     <g id="line2d_8"/>
    </g>
    <g id="xtick_5">
     <g id="line2d_9">
      <path d="M 205.101737 326.88 
L 205.101737 48.018462 
" clip-path="url(#p035f03ecb0)" style="fill: none; stroke: #e5e7eb; stroke-width: 0.7; stroke-linecap: square"/>
     </g>
     <g id="line2d_10"/>
    </g>
    <g id="xtick_6">
     <g id="line2d_11">
      <path d="M 250.079404 326.88 
L 250.079404 48.018462 
" clip-path="url(#p035f03ecb0)" style="fill: none; stroke: #e5e7eb; stroke-width: 0.7; stroke-linecap: square"/>
     </g>
     <g id="line2d_12"/>
    </g>
    <g id="xtick_7">
     <g id="line2d_13">
      <path d="M 295.057072 326.88 
L 295.057072 48.018462 
" clip-path="url(#p035f03ecb0)" style="fill: none; stroke: #e5e7eb; stroke-width: 0.7; stroke-linecap: square"/>
     </g>
     <g id="line2d_14"/>
    </g>
   </g>
   <g id="matplotlib.axis_2">
    <g id="ytick_1">
     <g id="line2d_15">
      <path d="M 7.2 299.8934 
L 295.057072 299.8934 
" clip-path="url(#p035f03ecb0)" style="fill: none; stroke: #e5e7eb; stroke-width: 0.7; stroke-linecap: square"/>
     </g>
     <g id="line2d_16"/>
    </g>
    <g id="ytick_2">
     <g id="line2d_17">
      <path d="M 7.2 254.915732 
L 295.057072 254.915732 
" clip-path="url(#p035f03ecb0)" style="fill: none; stroke: #e5e7eb; stroke-width: 0.7; stroke-linecap: square"/>
     </g>
     <g id="line2d_18"/>
    </g>
    <g id="ytick_3">
     <g id="line2d_19">
      <path d="M 7.2 209.938065 
L 295.057072 209.938065 
" clip-path="url(#p035f03ecb0)" style="fill: none; stroke: #e5e7eb; stroke-width: 0.7; stroke-linecap: square"/>
     </g>
     <g id="line2d_20"/>
    </g>
    <g id="ytick_4">
     <g id="line2d_21">
      <path d="M 7.2 164.960397 
L 295.057072 164.960397 
" clip-path="url(#p035f03ecb0)" style="fill: none; stroke: #e5e7eb; stroke-width: 0.7; stroke-linecap: square"/>
     </g>
     <g id="line2d_22"/>
    </g>
    <g id="ytick_5">
     <g id="line2d_23">
      <path d="M 7.2 119.98273 
L 295.057072 119.98273 
" clip-path="url(#p035f03ecb0)" style="fill: none; stroke: #e5e7eb; stroke-width: 0.7; stroke-linecap: square"/>
     </g>
     <g id="line2d_24"/>
    </g>
    <g id="ytick_6">
     <g id="line2d_25">
      <path d="M 7.2 75.005062 
L 295.057072 75.005062 
" clip-path="url(#p035f03ecb0)" style="fill: none; stroke: #e5e7eb; stroke-width: 0.7; stroke-linecap: square"/>
     </g>
     <g id="line2d_26"/>
    </g>
   </g>
   <g id="line2d_27">
    <path d="M 61.173201 191.946998 
L 158.774739 80.402382 
" clip-path="url(#p035f03ecb0)" style="fill: none; stroke-dasharray: 3.7,1.6; stroke-dashoffset: 0; stroke: #6b7280"/>
   </g>
   <g id="line2d_28">
    <path d="M 124.141935 119.98273 
L 158.774739 80.402382 
" clip-path="url(#p035f03ecb0)" style="fill: none; stroke: #9ca3af; stroke-linecap: square"/>
   </g>
   <g id="line2d_29">
    <path d="M 61.173201 191.946998 
L 298.205509 143.146228 
" clip-path="url(#p035f03ecb0)" style="fill: none; stroke-dasharray: 3.7,1.6; stroke-dashoffset: 0; stroke: #6b7280"/>
   </g>
   <g id="line2d_30">
    <path d="M 214.09727 160.46263 
L 298.205509 143.146228 
" clip-path="url(#p035f03ecb0)" style="fill: none; stroke: #9ca3af; stroke-linecap: square"/>
   </g>
   <g id="line2d_31">
    <path d="M 61.173201 191.946998 
L 221.518586 282.576998 
" clip-path="url(#p035f03ecb0)" style="fill: none; stroke-dasharray: 3.7,1.6; stroke-dashoffset: 0; stroke: #6b7280"/>
   </g>
   <g id="line2d_32">
    <path d="M 164.621836 250.417965 
L 221.518586 282.576998 
" clip-path="url(#p035f03ecb0)" style="fill: none; stroke: #9ca3af; stroke-linecap: square"/>
   </g>
   <g id="line2d_33">
    <defs>
     <path id="m6edb532bda" d="M 0 2 
C 0.530406 2 1.03916 1.789267 1.414214 1.414214 
C 1.789267 1.03916 2 0.530406 2 0 
C 2 -0.530406 1.789267 -1.03916 1.414214 -1.414214 
C 1.03916 -1.789267 0.530406 -2 0 -2 
C -0.530406 -2 -1.03916 -1.789267 -1.414214 -1.414214 
C -1.789267 -1.03916 -2 -0.530406 -2 0 
C -2 0.530406 -1.789267 1.03916 -1.414214 1.414214 
C -1.03916 1.789267 -0.530406 2 0 2 
z
" style="stroke: #17202a"/>
    </defs>
    <g clip-path="url(#p035f03ecb0)">
     <use xlink:href="#m6edb532bda" x="124.141935" y="119.98273" style="fill: #17202a; stroke: #17202a"/>
    </g>
   </g>
   <g id="line2d_34">
    <g clip-path="url(#p035f03ecb0)">
     <use xlink:href="#m6edb532bda" x="214.09727" y="160.46263" style="fill: #17202a; stroke: #17202a"/>
    </g>
   </g>
   <g id="line2d_35">
    <g clip-path="url(#p035f03ecb0)">
     <use xlink:href="#m6edb532bda" x="164.621836" y="250.417965" style="fill: #17202a; stroke: #17202a"/>
    </g>
   </g>
   <g id="line2d_36">
    <g clip-path="url(#p035f03ecb0)">
     <use xlink:href="#m6edb532bda" x="158.774739" y="80.402382" style="fill: #17202a; stroke: #17202a"/>
    </g>
   </g>
   <g id="line2d_37">
    <g clip-path="url(#p035f03ecb0)">
     <use xlink:href="#m6edb532bda" x="298.205509" y="143.146228" style="fill: #17202a; stroke: #17202a"/>
    </g>
   </g>
   <g id="line2d_38">
    <g clip-path="url(#p035f03ecb0)">
     <use xlink:href="#m6edb532bda" x="221.518586" y="282.576998" style="fill: #17202a; stroke: #17202a"/>
    </g>
   </g>
   <g id="line2d_39">
    <g clip-path="url(#p035f03ecb0)">
     <use xlink:href="#m6edb532bda" x="61.173201" y="191.946998" style="fill: #17202a; stroke: #17202a"/>
    </g>
   </g>
   <g id="text_1">
    <!-- P -->
    <g transform="translate(128.639702 115.484963) scale(0.09 -0.09)">
     <defs>
      <path id="DejaVuSans-50" d="M 1259 4147 
L 1259 2394 
L 2053 2394 
Q 2494 2394 2734 2622 
Q 2975 2850 2975 3272 
Q 2975 3691 2734 3919 
Q 2494 4147 2053 4147 
L 1259 4147 
z
M 628 4666 
L 2053 4666 
Q 2838 4666 3239 4311 
Q 3641 3956 3641 3272 
Q 3641 2581 3239 2228 
Q 2838 1875 2053 1875 
L 1259 1875 
L 1259 0 
L 628 0 
L 628 4666 
z
" transform="scale(0.015625)"/>
     </defs>
     <use xlink:href="#DejaVuSans-50"/>
    </g>
   </g>
   <g id="text_2">
    <!-- Q -->
    <g transform="translate(218.595037 155.964864) scale(0.09 -0.09)">
     <defs>
      <path id="DejaVuSans-51" d="M 2522 4238 
Q 1834 4238 1429 3725 
Q 1025 3213 1025 2328 
Q 1025 1447 1429 934 
Q 1834 422 2522 422 
Q 3209 422 3611 934 
Q 4013 1447 4013 2328 
Q 4013 3213 3611 3725 
Q 3209 4238 2522 4238 
z
M 3406 84 
L 4238 -825 
L 3475 -825 
L 2784 -78 
Q 2681 -84 2626 -87 
Q 2572 -91 2522 -91 
Q 1538 -91 948 567 
Q 359 1225 359 2328 
Q 359 3434 948 4092 
Q 1538 4750 2522 4750 
Q 3503 4750 4090 4092 
Q 4678 3434 4678 2328 
Q 4678 1516 4351 937 
Q 4025 359 3406 84 
z
" transform="scale(0.015625)"/>
     </defs>
     <use xlink:href="#DejaVuSans-51"/>
    </g>
   </g>
   <g id="text_3">
    <!-- R -->
    <g transform="translate(169.119603 245.920199) scale(0.09 -0.09)">
     <defs>
      <path id="DejaVuSans-52" d="M 2841 2188 
Q 3044 2119 3236 1894 
Q 3428 1669 3622 1275 
L 4263 0 
L 3584 0 
L 2988 1197 
Q 2756 1666 2539 1819 
Q 2322 1972 1947 1972 
L 1259 1972 
L 1259 0 
L 628 0 
L 628 4666 
L 2053 4666 
Q 2853 4666 3247 4331 
Q 3641 3997 3641 3322 
Q 3641 2881 3436 2590 
Q 3231 2300 2841 2188 
z
M 1259 4147 
L 1259 2491 
L 2053 2491 
Q 2509 2491 2742 2702 
Q 2975 2913 2975 3322 
Q 2975 3731 2742 3939 
Q 2509 4147 2053 4147 
L 1259 4147 
z
" transform="scale(0.015625)"/>
     </defs>
     <use xlink:href="#DejaVuSans-52"/>
    </g>
   </g>
   <g id="text_4">
    <!-- P' -->
    <g transform="translate(163.272506 75.904615) scale(0.09 -0.09)">
     <defs>
      <path id="DejaVuSans-27" d="M 1147 4666 
L 1147 2931 
L 616 2931 
L 616 4666 
L 1147 4666 
z
" transform="scale(0.015625)"/>
     </defs>
     <use xlink:href="#DejaVuSans-50"/>
     <use xlink:href="#DejaVuSans-27" transform="translate(60.302734 0)"/>
    </g>
   </g>
   <g id="text_5">
    <!-- Q' -->
    <g transform="translate(302.703275 138.648462) scale(0.09 -0.09)">
     <use xlink:href="#DejaVuSans-51"/>
     <use xlink:href="#DejaVuSans-27" transform="translate(78.710938 0)"/>
    </g>
   </g>
   <g id="text_6">
    <!-- R' -->
    <g transform="translate(226.016352 278.079231) scale(0.09 -0.09)">
     <use xlink:href="#DejaVuSans-52"/>
     <use xlink:href="#DejaVuSans-27" transform="translate(69.482422 0)"/>
    </g>
   </g>
   <g id="text_7">
    <!-- O -->
    <g transform="translate(65.670968 187.449231) scale(0.09 -0.09)">
     <defs>
      <path id="DejaVuSans-4f" d="M 2522 4238 
Q 1834 4238 1429 3725 
Q 1025 3213 1025 2328 
Q 1025 1447 1429 934 
Q 1834 422 2522 422 
Q 3209 422 3611 934 
Q 4013 1447 4013 2328 
Q 4013 3213 3611 3725 
Q 3209 4238 2522 4238 
z
M 2522 4750 
Q 3503 4750 4090 4092 
Q 4678 3434 4678 2328 
Q 4678 1225 4090 567 
Q 3503 -91 2522 -91 
Q 1538 -91 948 565 
Q 359 1222 359 2328 
Q 359 3434 948 4092 
Q 1538 4750 2522 4750 
z
" transform="scale(0.015625)"/>
     </defs>
     <use xlink:href="#DejaVuSans-4f"/>
    </g>
   </g>
   <g id="text_8">
    <!-- central dilatation -->
    <g transform="translate(104.191192 42.018462) scale(0.11 -0.11)">
     <defs>
      <path id="DejaVuSans-63" d="M 3122 3366 
L 3122 2828 
Q 2878 2963 2633 3030 
Q 2388 3097 2138 3097 
Q 1578 3097 1268 2742 
Q 959 2388 959 1747 
Q 959 1106 1268 751 
Q 1578 397 2138 397 
Q 2388 397 2633 464 
Q 2878 531 3122 666 
L 3122 134 
Q 2881 22 2623 -34 
Q 2366 -91 2075 -91 
Q 1284 -91 818 406 
Q 353 903 353 1747 
Q 353 2603 823 3093 
Q 1294 3584 2113 3584 
Q 2378 3584 2631 3529 
Q 2884 3475 3122 3366 
z
" transform="scale(0.015625)"/>
      <path id="DejaVuSans-65" d="M 3597 1894 
L 3597 1613 
L 953 1613 
Q 991 1019 1311 708 
Q 1631 397 2203 397 
Q 2534 397 2845 478 
Q 3156 559 3463 722 
L 3463 178 
Q 3153 47 2828 -22 
Q 2503 -91 2169 -91 
Q 1331 -91 842 396 
Q 353 884 353 1716 
Q 353 2575 817 3079 
Q 1281 3584 2069 3584 
Q 2775 3584 3186 3129 
Q 3597 2675 3597 1894 
z
M 3022 2063 
Q 3016 2534 2758 2815 
Q 2500 3097 2075 3097 
Q 1594 3097 1305 2825 
Q 1016 2553 972 2059 
L 3022 2063 
z
" transform="scale(0.015625)"/>
      <path id="DejaVuSans-6e" d="M 3513 2113 
L 3513 0 
L 2938 0 
L 2938 2094 
Q 2938 2591 2744 2837 
Q 2550 3084 2163 3084 
Q 1697 3084 1428 2787 
Q 1159 2491 1159 1978 
L 1159 0 
L 581 0 
L 581 3500 
L 1159 3500 
L 1159 2956 
Q 1366 3272 1645 3428 
Q 1925 3584 2291 3584 
Q 2894 3584 3203 3211 
Q 3513 2838 3513 2113 
z
" transform="scale(0.015625)"/>
      <path id="DejaVuSans-74" d="M 1172 4494 
L 1172 3500 
L 2356 3500 
L 2356 3053 
L 1172 3053 
L 1172 1153 
Q 1172 725 1289 603 
Q 1406 481 1766 481 
L 2356 481 
L 2356 0 
L 1766 0 
Q 1100 0 847 248 
Q 594 497 594 1153 
L 594 3053 
L 172 3053 
L 172 3500 
L 594 3500 
L 594 4494 
L 1172 4494 
z
" transform="scale(0.015625)"/>
      <path id="DejaVuSans-72" d="M 2631 2963 
Q 2534 3019 2420 3045 
Q 2306 3072 2169 3072 
Q 1681 3072 1420 2755 
Q 1159 2438 1159 1844 
L 1159 0 
L 581 0 
L 581 3500 
L 1159 3500 
L 1159 2956 
Q 1341 3275 1631 3429 
Q 1922 3584 2338 3584 
Q 2397 3584 2469 3576 
Q 2541 3569 2628 3553 
L 2631 2963 
z
" transform="scale(0.015625)"/>
      <path id="DejaVuSans-61" d="M 2194 1759 
Q 1497 1759 1228 1600 
Q 959 1441 959 1056 
Q 959 750 1161 570 
Q 1363 391 1709 391 
Q 2188 391 2477 730 
Q 2766 1069 2766 1631 
L 2766 1759 
L 2194 1759 
z
M 3341 1997 
L 3341 0 
L 2766 0 
L 2766 531 
Q 2569 213 2275 61 
Q 1981 -91 1556 -91 
Q 1019 -91 701 211 
Q 384 513 384 1019 
Q 384 1609 779 1909 
Q 1175 2209 1959 2209 
L 2766 2209 
L 2766 2266 
Q 2766 2663 2505 2880 
Q 2244 3097 1772 3097 
Q 1472 3097 1187 3025 
Q 903 2953 641 2809 
L 641 3341 
Q 956 3463 1253 3523 
Q 1550 3584 1831 3584 
Q 2591 3584 2966 3190 
Q 3341 2797 3341 1997 
z
" transform="scale(0.015625)"/>
      <path id="DejaVuSans-6c" d="M 603 4863 
L 1178 4863 
L 1178 0 
L 603 0 
L 603 4863 
z
" transform="scale(0.015625)"/>
      <path id="DejaVuSans-20" transform="scale(0.015625)"/>
      <path id="DejaVuSans-64" d="M 2906 2969 
L 2906 4863 
L 3481 4863 
L 3481 0 
L 2906 0 
L 2906 525 
Q 2725 213 2448 61 
Q 2172 -91 1784 -91 
Q 1150 -91 751 415 
Q 353 922 353 1747 
Q 353 2572 751 3078 
Q 1150 3584 1784 3584 
Q 2172 3584 2448 3432 
Q 2725 3281 2906 2969 
z
M 947 1747 
Q 947 1113 1208 752 
Q 1469 391 1925 391 
Q 2381 391 2643 752 
Q 2906 1113 2906 1747 
Q 2906 2381 2643 2742 
Q 2381 3103 1925 3103 
Q 1469 3103 1208 2742 
Q 947 2381 947 1747 
z
" transform="scale(0.015625)"/>
      <path id="DejaVuSans-69" d="M 603 3500 
L 1178 3500 
L 1178 0 
L 603 0 
L 603 3500 
z
M 603 4863 
L 1178 4863 
L 1178 4134 
L 603 4134 
L 603 4863 
z
" transform="scale(0.015625)"/>
      <path id="DejaVuSans-6f" d="M 1959 3097 
Q 1497 3097 1228 2736 
Q 959 2375 959 1747 
Q 959 1119 1226 758 
Q 1494 397 1959 397 
Q 2419 397 2687 759 
Q 2956 1122 2956 1747 
Q 2956 2369 2687 2733 
Q 2419 3097 1959 3097 
z
M 1959 3584 
Q 2709 3584 3137 3096 
Q 3566 2609 3566 1747 
Q 3566 888 3137 398 
Q 2709 -91 1959 -91 
Q 1206 -91 779 398 
Q 353 888 353 1747 
Q 353 2609 779 3096 
Q 1206 3584 1959 3584 
z
" transform="scale(0.015625)"/>
     </defs>
     <use xlink:href="#DejaVuSans-63"/>
     <use xlink:href="#DejaVuSans-65" transform="translate(54.980469 0)"/>
     <use xlink:href="#DejaVuSans-6e" transform="translate(116.503906 0)"/>
     <use xlink:href="#DejaVuSans-74" transform="translate(179.882812 0)"/>
     <use xlink:href="#DejaVuSans-72" transform="translate(219.091797 0)"/>
     <use xlink:href="#DejaVuSans-61" transform="translate(260.205078 0)"/>
     <use xlink:href="#DejaVuSans-6c" transform="translate(321.484375 0)"/>
     <use xlink:href="#DejaVuSans-20" transform="translate(349.267578 0)"/>
     <use xlink:href="#DejaVuSans-64" transform="translate(381.054688 0)"/>
     <use xlink:href="#DejaVuSans-69" transform="translate(444.53125 0)"/>
     <use xlink:href="#DejaVuSans-6c" transform="translate(472.314453 0)"/>
     <use xlink:href="#DejaVuSans-61" transform="translate(500.097656 0)"/>
     <use xlink:href="#DejaVuSans-74" transform="translate(561.376953 0)"/>
     <use xlink:href="#DejaVuSans-61" transform="translate(600.585938 0)"/>
     <use xlink:href="#DejaVuSans-74" transform="translate(661.865234 0)"/>
     <use xlink:href="#DejaVuSans-69" transform="translate(701.074219 0)"/>
     <use xlink:href="#DejaVuSans-6f" transform="translate(728.857422 0)"/>
     <use xlink:href="#DejaVuSans-6e" transform="translate(790.039062 0)"/>
    </g>
   </g>
  </g>
  <g id="axes_2">
   <g id="patch_5">
    <path d="M 323.973853 290.152628 
L 617.41213 290.152628 
L 617.41213 84.745834 
L 323.973853 84.745834 
z
" style="fill: #ffffff"/>
   </g>
   <g id="patch_6">
    <path d="M 375.325551 143.433489 
L 481.696927 132.429554 
L 415.673314 220.461037 
L 375.325551 143.433489 
z
" clip-path="url(#pc72fc64dd0)" style="fill: none; stroke: #2563eb; stroke-width: 2; stroke-linejoin: miter"/>
   </g>
   <g id="patch_7">
    <path d="M 474.36097 198.453166 
L 580.732346 187.449231 
L 514.708733 275.480714 
L 474.36097 198.453166 
z
" clip-path="url(#pc72fc64dd0)" style="fill: none; stroke: #059669; stroke-width: 2; stroke-linejoin: miter"/>
   </g>
   <g id="patch_8">
    <path d="M 459.689056 315.828477 
L 452.207479 314.189656 
L 453.258463 312.297885 
L 360.635824 260.840864 
L 360.671451 260.776736 
L 453.294089 312.233758 
L 454.345073 310.341988 
z
" clip-path="url(#pc72fc64dd0)" style="fill: #059669; stroke: #059669; stroke-width: 1.8; stroke-linejoin: miter"/>
   </g>
   <g id="matplotlib.axis_3">
    <g id="xtick_8">
     <g id="line2d_40">
      <path d="M 338.645767 290.152628 
L 338.645767 84.745834 
" clip-path="url(#pc72fc64dd0)" style="fill: none; stroke: #e5e7eb; stroke-width: 0.7; stroke-linecap: square"/>
     </g>
     <g id="line2d_41"/>
    </g>
    <g id="xtick_9">
     <g id="line2d_42">
      <path d="M 375.325551 290.152628 
L 375.325551 84.745834 
" clip-path="url(#pc72fc64dd0)" style="fill: none; stroke: #e5e7eb; stroke-width: 0.7; stroke-linecap: square"/>
     </g>
     <g id="line2d_43"/>
    </g>
    <g id="xtick_10">
     <g id="line2d_44">
      <path d="M 412.005336 290.152628 
L 412.005336 84.745834 
" clip-path="url(#pc72fc64dd0)" style="fill: none; stroke: #e5e7eb; stroke-width: 0.7; stroke-linecap: square"/>
     </g>
     <g id="line2d_45"/>
    </g>
    <g id="xtick_11">
     <g id="line2d_46">
      <path d="M 448.685121 290.152628 
L 448.685121 84.745834 
" clip-path="url(#pc72fc64dd0)" style="fill: none; stroke: #e5e7eb; stroke-width: 0.7; stroke-linecap: square"/>
     </g>
     <g id="line2d_47"/>
    </g>
    <g id="xtick_12">
     <g id="line2d_48">
      <path d="M 485.364905 290.152628 
L 485.364905 84.745834 
" clip-path="url(#pc72fc64dd0)" style="fill: none; stroke: #e5e7eb; stroke-width: 0.7; stroke-linecap: square"/>
     </g>
     <g id="line2d_49"/>
    </g>
    <g id="xtick_13">
     <g id="line2d_50">
      <path d="M 522.04469 290.152628 
L 522.04469 84.745834 
" clip-path="url(#pc72fc64dd0)" style="fill: none; stroke: #e5e7eb; stroke-width: 0.7; stroke-linecap: square"/>
     </g>
     <g id="line2d_51"/>
    </g>
    <g id="xtick_14">
     <g id="line2d_52">
      <path d="M 558.724475 290.152628 
L 558.724475 84.745834 
" clip-path="url(#pc72fc64dd0)" style="fill: none; stroke: #e5e7eb; stroke-width: 0.7; stroke-linecap: square"/>
     </g>
     <g id="line2d_53"/>
    </g>
    <g id="xtick_15">
     <g id="line2d_54">
      <path d="M 595.404259 290.152628 
L 595.404259 84.745834 
" clip-path="url(#pc72fc64dd0)" style="fill: none; stroke: #e5e7eb; stroke-width: 0.7; stroke-linecap: square"/>
     </g>
     <g id="line2d_55"/>
    </g>
   </g>
   <g id="matplotlib.axis_4">
    <g id="ytick_7">
     <g id="line2d_56">
      <path d="M 323.973853 260.8088 
L 617.41213 260.8088 
" clip-path="url(#pc72fc64dd0)" style="fill: none; stroke: #e5e7eb; stroke-width: 0.7; stroke-linecap: square"/>
     </g>
     <g id="line2d_57"/>
    </g>
    <g id="ytick_8">
     <g id="line2d_58">
      <path d="M 323.973853 224.129015 
L 617.41213 224.129015 
" clip-path="url(#pc72fc64dd0)" style="fill: none; stroke: #e5e7eb; stroke-width: 0.7; stroke-linecap: square"/>
     </g>
     <g id="line2d_59"/>
    </g>
    <g id="ytick_9">
     <g id="line2d_60">
      <path d="M 323.973853 187.449231 
L 617.41213 187.449231 
" clip-path="url(#pc72fc64dd0)" style="fill: none; stroke: #e5e7eb; stroke-width: 0.7; stroke-linecap: square"/>
     </g>
     <g id="line2d_61"/>
    </g>
    <g id="ytick_10">
     <g id="line2d_62">
      <path d="M 323.973853 150.769446 
L 617.41213 150.769446 
" clip-path="url(#pc72fc64dd0)" style="fill: none; stroke: #e5e7eb; stroke-width: 0.7; stroke-linecap: square"/>
     </g>
     <g id="line2d_63"/>
    </g>
    <g id="ytick_11">
     <g id="line2d_64">
      <path d="M 323.973853 114.089661 
L 617.41213 114.089661 
" clip-path="url(#pc72fc64dd0)" style="fill: none; stroke: #e5e7eb; stroke-width: 0.7; stroke-linecap: square"/>
     </g>
     <g id="line2d_65"/>
    </g>
   </g>
   <g id="line2d_66">
    <path d="M 375.325551 143.433489 
L 474.36097 198.453166 
" clip-path="url(#pc72fc64dd0)" style="fill: none; stroke-dasharray: 4.44,1.92; stroke-dashoffset: 0; stroke: #6b7280; stroke-width: 1.2"/>
   </g>
   <g id="line2d_67">
    <path d="M 481.696927 132.429554 
L 580.732346 187.449231 
" clip-path="url(#pc72fc64dd0)" style="fill: none; stroke-dasharray: 4.44,1.92; stroke-dashoffset: 0; stroke: #6b7280; stroke-width: 1.2"/>
   </g>
   <g id="line2d_68">
    <path d="M 415.673314 220.461037 
L 514.708733 275.480714 
" clip-path="url(#pc72fc64dd0)" style="fill: none; stroke-dasharray: 4.44,1.92; stroke-dashoffset: 0; stroke: #6b7280; stroke-width: 1.2"/>
   </g>
   <g id="line2d_69">
    <g clip-path="url(#pc72fc64dd0)">
     <use xlink:href="#m6edb532bda" x="375.325551" y="143.433489" style="fill: #17202a; stroke: #17202a"/>
    </g>
   </g>
   <g id="line2d_70">
    <g clip-path="url(#pc72fc64dd0)">
     <use xlink:href="#m6edb532bda" x="481.696927" y="132.429554" style="fill: #17202a; stroke: #17202a"/>
    </g>
   </g>
   <g id="line2d_71">
    <g clip-path="url(#pc72fc64dd0)">
     <use xlink:href="#m6edb532bda" x="415.673314" y="220.461037" style="fill: #17202a; stroke: #17202a"/>
    </g>
   </g>
   <g id="line2d_72">
    <g clip-path="url(#pc72fc64dd0)">
     <use xlink:href="#m6edb532bda" x="474.36097" y="198.453166" style="fill: #17202a; stroke: #17202a"/>
    </g>
   </g>
   <g id="line2d_73">
    <g clip-path="url(#pc72fc64dd0)">
     <use xlink:href="#m6edb532bda" x="580.732346" y="187.449231" style="fill: #17202a; stroke: #17202a"/>
    </g>
   </g>
   <g id="line2d_74">
    <g clip-path="url(#pc72fc64dd0)">
     <use xlink:href="#m6edb532bda" x="514.708733" y="275.480714" style="fill: #17202a; stroke: #17202a"/>
    </g>
   </g>
   <g id="text_9">
    <!-- t -->
    <g style="fill: #059669" transform="translate(463.357034 312.160499) scale(0.1 -0.1)">
     <defs>
      <path id="DejaVuSans-Bold-74" d="M 1759 4494 
L 1759 3500 
L 2913 3500 
L 2913 2700 
L 1759 2700 
L 1759 1216 
Q 1759 972 1856 886 
Q 1953 800 2241 800 
L 2816 800 
L 2816 0 
L 1856 0 
Q 1194 0 917 276 
Q 641 553 641 1216 
L 641 2700 
L 84 2700 
L 84 3500 
L 641 3500 
L 641 4494 
L 1759 4494 
z
" transform="scale(0.015625)"/>
     </defs>
     <use xlink:href="#DejaVuSans-Bold-74"/>
    </g>
   </g>
   <g id="text_10">
    <!-- A -->
    <g transform="translate(378.99353 139.765511) scale(0.09 -0.09)">
     <defs>
      <path id="DejaVuSans-41" d="M 2188 4044 
L 1331 1722 
L 3047 1722 
L 2188 4044 
z
M 1831 4666 
L 2547 4666 
L 4325 0 
L 3669 0 
L 3244 1197 
L 1141 1197 
L 716 0 
L 50 0 
L 1831 4666 
z
" transform="scale(0.015625)"/>
     </defs>
     <use xlink:href="#DejaVuSans-41"/>
    </g>
   </g>
   <g id="text_11">
    <!-- B -->
    <g transform="translate(485.364905 128.761575) scale(0.09 -0.09)">
     <defs>
      <path id="DejaVuSans-42" d="M 1259 2228 
L 1259 519 
L 2272 519 
Q 2781 519 3026 730 
Q 3272 941 3272 1375 
Q 3272 1813 3026 2020 
Q 2781 2228 2272 2228 
L 1259 2228 
z
M 1259 4147 
L 1259 2741 
L 2194 2741 
Q 2656 2741 2882 2914 
Q 3109 3088 3109 3444 
Q 3109 3797 2882 3972 
Q 2656 4147 2194 4147 
L 1259 4147 
z
M 628 4666 
L 2241 4666 
Q 2963 4666 3353 4366 
Q 3744 4066 3744 3513 
Q 3744 3084 3544 2831 
Q 3344 2578 2956 2516 
Q 3422 2416 3680 2098 
Q 3938 1781 3938 1306 
Q 3938 681 3513 340 
Q 3088 0 2303 0 
L 628 0 
L 628 4666 
z
" transform="scale(0.015625)"/>
     </defs>
     <use xlink:href="#DejaVuSans-42"/>
    </g>
   </g>
   <g id="text_12">
    <!-- C -->
    <g transform="translate(419.341293 216.793059) scale(0.09 -0.09)">
     <defs>
      <path id="DejaVuSans-43" d="M 4122 4306 
L 4122 3641 
Q 3803 3938 3442 4084 
Q 3081 4231 2675 4231 
Q 1875 4231 1450 3742 
Q 1025 3253 1025 2328 
Q 1025 1406 1450 917 
Q 1875 428 2675 428 
Q 3081 428 3442 575 
Q 3803 722 4122 1019 
L 4122 359 
Q 3791 134 3420 21 
Q 3050 -91 2638 -91 
Q 1578 -91 968 557 
Q 359 1206 359 2328 
Q 359 3453 968 4101 
Q 1578 4750 2638 4750 
Q 3056 4750 3426 4639 
Q 3797 4528 4122 4306 
z
" transform="scale(0.015625)"/>
     </defs>
     <use xlink:href="#DejaVuSans-43"/>
    </g>
   </g>
   <g id="text_13">
    <!-- A' -->
    <g transform="translate(478.028948 194.785188) scale(0.09 -0.09)">
     <use xlink:href="#DejaVuSans-41"/>
     <use xlink:href="#DejaVuSans-27" transform="translate(68.408203 0)"/>
    </g>
   </g>
   <g id="text_14">
    <!-- B' -->
    <g transform="translate(584.400324 183.781252) scale(0.09 -0.09)">
     <use xlink:href="#DejaVuSans-42"/>
     <use xlink:href="#DejaVuSans-27" transform="translate(68.603516 0)"/>
    </g>
   </g>
   <g id="text_15">
    <!-- C' -->
    <g transform="translate(518.376712 271.812736) scale(0.09 -0.09)">
     <use xlink:href="#DejaVuSans-43"/>
     <use xlink:href="#DejaVuSans-27" transform="translate(69.824219 0)"/>
    </g>
   </g>
   <g id="text_16">
    <!-- translation -->
    <g transform="translate(441.121038 78.745834) scale(0.11 -0.11)">
     <defs>
      <path id="DejaVuSans-73" d="M 2834 3397 
L 2834 2853 
Q 2591 2978 2328 3040 
Q 2066 3103 1784 3103 
Q 1356 3103 1142 2972 
Q 928 2841 928 2578 
Q 928 2378 1081 2264 
Q 1234 2150 1697 2047 
L 1894 2003 
Q 2506 1872 2764 1633 
Q 3022 1394 3022 966 
Q 3022 478 2636 193 
Q 2250 -91 1575 -91 
Q 1294 -91 989 -36 
Q 684 19 347 128 
L 347 722 
Q 666 556 975 473 
Q 1284 391 1588 391 
Q 1994 391 2212 530 
Q 2431 669 2431 922 
Q 2431 1156 2273 1281 
Q 2116 1406 1581 1522 
L 1381 1569 
Q 847 1681 609 1914 
Q 372 2147 372 2553 
Q 372 3047 722 3315 
Q 1072 3584 1716 3584 
Q 2034 3584 2315 3537 
Q 2597 3491 2834 3397 
z
" transform="scale(0.015625)"/>
     </defs>
     <use xlink:href="#DejaVuSans-74"/>
     <use xlink:href="#DejaVuSans-72" transform="translate(39.208984 0)"/>
     <use xlink:href="#DejaVuSans-61" transform="translate(80.322266 0)"/>
     <use xlink:href="#DejaVuSans-6e" transform="translate(141.601562 0)"/>
     <use xlink:href="#DejaVuSans-73" transform="translate(204.980469 0)"/>
     <use xlink:href="#DejaVuSans-6c" transform="translate(257.080078 0)"/>
     <use xlink:href="#DejaVuSans-61" transform="translate(284.863281 0)"/>
     <use xlink:href="#DejaVuSans-74" transform="translate(346.142578 0)"/>
     <use xlink:href="#DejaVuSans-69" transform="translate(385.351562 0)"/>
     <use xlink:href="#DejaVuSans-6f" transform="translate(413.134766 0)"/>
     <use xlink:href="#DejaVuSans-6e" transform="translate(474.316406 0)"/>
    </g>
   </g>
  </g>
  <g id="axes_3">
   <g id="patch_9">
    <path d="M 643.538308 254.860727 
L 936.976586 254.860727 
L 936.976586 120.037735 
L 643.538308 120.037735 
z
" style="fill: #ffffff"/>
   </g>
   <g id="patch_10">
    <path d="M 683.192129 191.414613 
L 794.222829 155.726174 
L 901.288146 211.241524 
L 790.257447 246.929963 
L 683.192129 191.414613 
z
" clip-path="url(#pe6c1a136c3)" style="fill: none; stroke: #7c3aed; stroke-width: 2; stroke-linejoin: miter"/>
   </g>
   <g id="patch_11">
    <path d="M 901.288146 211.241524 
L 893.174547 212.892964 
L 893.386362 210.562997 
L 683.188539 191.454104 
L 683.195719 191.375122 
L 893.393542 210.484015 
L 893.605358 208.154048 
z
" clip-path="url(#pe6c1a136c3)" style="fill: #7c3aed; stroke: #7c3aed; stroke-width: 1.8; stroke-linejoin: miter"/>
   </g>
   <g id="matplotlib.axis_5">
    <g id="xtick_16">
     <g id="line2d_75">
      <path d="M 659.399837 254.860727 
L 659.399837 120.037735 
" clip-path="url(#pe6c1a136c3)" style="fill: none; stroke: #e5e7eb; stroke-width: 0.7; stroke-linecap: square"/>
     </g>
     <g id="line2d_76"/>
    </g>
    <g id="xtick_17">
     <g id="line2d_77">
      <path d="M 699.053658 254.860727 
L 699.053658 120.037735 
" clip-path="url(#pe6c1a136c3)" style="fill: none; stroke: #e5e7eb; stroke-width: 0.7; stroke-linecap: square"/>
     </g>
     <g id="line2d_78"/>
    </g>
    <g id="xtick_18">
     <g id="line2d_79">
      <path d="M 738.707479 254.860727 
L 738.707479 120.037735 
" clip-path="url(#pe6c1a136c3)" style="fill: none; stroke: #e5e7eb; stroke-width: 0.7; stroke-linecap: square"/>
     </g>
     <g id="line2d_80"/>
    </g>
    <g id="xtick_19">
     <g id="line2d_81">
      <path d="M 778.3613 254.860727 
L 778.3613 120.037735 
" clip-path="url(#pe6c1a136c3)" style="fill: none; stroke: #e5e7eb; stroke-width: 0.7; stroke-linecap: square"/>
     </g>
     <g id="line2d_82"/>
    </g>
    <g id="xtick_20">
     <g id="line2d_83">
      <path d="M 818.015122 254.860727 
L 818.015122 120.037735 
" clip-path="url(#pe6c1a136c3)" style="fill: none; stroke: #e5e7eb; stroke-width: 0.7; stroke-linecap: square"/>
     </g>
     <g id="line2d_84"/>
    </g>
    <g id="xtick_21">
     <g id="line2d_85">
      <path d="M 857.668943 254.860727 
L 857.668943 120.037735 
" clip-path="url(#pe6c1a136c3)" style="fill: none; stroke: #e5e7eb; stroke-width: 0.7; stroke-linecap: square"/>
     </g>
     <g id="line2d_86"/>
    </g>
    <g id="xtick_22">
     <g id="line2d_87">
      <path d="M 897.322764 254.860727 
L 897.322764 120.037735 
" clip-path="url(#pe6c1a136c3)" style="fill: none; stroke: #e5e7eb; stroke-width: 0.7; stroke-linecap: square"/>
     </g>
     <g id="line2d_88"/>
    </g>
    <g id="xtick_23">
     <g id="line2d_89">
      <path d="M 936.976586 254.860727 
L 936.976586 120.037735 
" clip-path="url(#pe6c1a136c3)" style="fill: none; stroke: #e5e7eb; stroke-width: 0.7; stroke-linecap: square"/>
     </g>
     <g id="line2d_90"/>
    </g>
   </g>
   <g id="matplotlib.axis_6">
    <g id="ytick_12">
     <g id="line2d_91">
      <path d="M 643.538308 231.068434 
L 936.976586 231.068434 
" clip-path="url(#pe6c1a136c3)" style="fill: none; stroke: #e5e7eb; stroke-width: 0.7; stroke-linecap: square"/>
     </g>
     <g id="line2d_92"/>
    </g>
    <g id="ytick_13">
     <g id="line2d_93">
      <path d="M 643.538308 191.414613 
L 936.976586 191.414613 
" clip-path="url(#pe6c1a136c3)" style="fill: none; stroke: #e5e7eb; stroke-width: 0.7; stroke-linecap: square"/>
     </g>
     <g id="line2d_94"/>
    </g>
    <g id="ytick_14">
     <g id="line2d_95">
      <path d="M 643.538308 151.760792 
L 936.976586 151.760792 
" clip-path="url(#pe6c1a136c3)" style="fill: none; stroke: #e5e7eb; stroke-width: 0.7; stroke-linecap: square"/>
     </g>
     <g id="line2d_96"/>
    </g>
   </g>
   <g id="line2d_97">
    <path d="M 683.192129 191.414613 
L 794.222829 155.726174 
" clip-path="url(#pe6c1a136c3)" style="fill: none; stroke: #374151; stroke-width: 1.2; stroke-linecap: square"/>
   </g>
   <g id="line2d_98">
    <path d="M 794.222829 155.726174 
L 901.288146 211.241524 
" clip-path="url(#pe6c1a136c3)" style="fill: none; stroke: #374151; stroke-width: 1.2; stroke-linecap: square"/>
   </g>
   <g id="line2d_99">
    <path d="M 683.192129 191.414613 
L 790.257447 246.929963 
" clip-path="url(#pe6c1a136c3)" style="fill: none; stroke-dasharray: 4.44,1.92; stroke-dashoffset: 0; stroke: #374151; stroke-width: 1.2"/>
   </g>
   <g id="line2d_100">
    <g clip-path="url(#pe6c1a136c3)">
     <use xlink:href="#m6edb532bda" x="683.192129" y="191.414613" style="fill: #17202a; stroke: #17202a"/>
    </g>
   </g>
   <g id="line2d_101">
    <g clip-path="url(#pe6c1a136c3)">
     <use xlink:href="#m6edb532bda" x="794.222829" y="155.726174" style="fill: #17202a; stroke: #17202a"/>
    </g>
   </g>
   <g id="line2d_102">
    <g clip-path="url(#pe6c1a136c3)">
     <use xlink:href="#m6edb532bda" x="901.288146" y="211.241524" style="fill: #17202a; stroke: #17202a"/>
    </g>
   </g>
   <g id="line2d_103">
    <g clip-path="url(#pe6c1a136c3)">
     <use xlink:href="#m6edb532bda" x="790.257447" y="246.929963" style="fill: #17202a; stroke: #17202a"/>
    </g>
   </g>
   <g id="PathCollection_1">
    <defs>
     <path id="m30fc887119" d="M 0 3 
C 0.795609 3 1.55874 2.683901 2.12132 2.12132 
C 2.683901 1.55874 3 0.795609 3 0 
C 3 -0.795609 2.683901 -1.55874 2.12132 -2.12132 
C 1.55874 -2.683901 0.795609 -3 0 -3 
C -0.795609 -3 -1.55874 -2.683901 -2.12132 -2.12132 
C -2.683901 -1.55874 -3 -0.795609 -3 0 
C -3 0.795609 -2.683901 1.55874 -2.12132 2.12132 
C -1.55874 2.683901 -0.795609 3 0 3 
z
" style="stroke: #ef4444"/>
    </defs>
    <g clip-path="url(#pe6c1a136c3)">
     <use xlink:href="#m30fc887119" x="738.707479" y="173.570393" style="fill: #ef4444; stroke: #ef4444"/>
     <use xlink:href="#m30fc887119" x="847.755488" y="183.483849" style="fill: #ef4444; stroke: #ef4444"/>
    </g>
   </g>
   <g id="text_17">
    <!-- center AB -->
    <g style="fill: #ef4444" transform="translate(724.432104 166.432705) scale(0.08 -0.08)">
     <use xlink:href="#DejaVuSans-63"/>
     <use xlink:href="#DejaVuSans-65" transform="translate(54.980469 0)"/>
     <use xlink:href="#DejaVuSans-6e" transform="translate(116.503906 0)"/>
     <use xlink:href="#DejaVuSans-74" transform="translate(179.882812 0)"/>
     <use xlink:href="#DejaVuSans-65" transform="translate(219.091797 0)"/>
     <use xlink:href="#DejaVuSans-72" transform="translate(280.615234 0)"/>
     <use xlink:href="#DejaVuSans-20" transform="translate(321.728516 0)"/>
     <use xlink:href="#DejaVuSans-41" transform="translate(353.515625 0)"/>
     <use xlink:href="#DejaVuSans-42" transform="translate(421.923828 0)"/>
    </g>
   </g>
   <g id="text_18">
    <!-- center BC -->
    <g style="fill: #ef4444" transform="translate(839.824723 176.346161) scale(0.08 -0.08)">
     <use xlink:href="#DejaVuSans-63"/>
     <use xlink:href="#DejaVuSans-65" transform="translate(54.980469 0)"/>
     <use xlink:href="#DejaVuSans-6e" transform="translate(116.503906 0)"/>
     <use xlink:href="#DejaVuSans-74" transform="translate(179.882812 0)"/>
     <use xlink:href="#DejaVuSans-65" transform="translate(219.091797 0)"/>
     <use xlink:href="#DejaVuSans-72" transform="translate(280.615234 0)"/>
     <use xlink:href="#DejaVuSans-20" transform="translate(321.728516 0)"/>
     <use xlink:href="#DejaVuSans-42" transform="translate(353.515625 0)"/>
     <use xlink:href="#DejaVuSans-43" transform="translate(420.369141 0)"/>
    </g>
   </g>
   <g id="text_19">
    <!-- A -&gt; C -->
    <g style="fill: #7c3aed" transform="translate(905.253529 207.276141) scale(0.1 -0.1)">
     <defs>
      <path id="DejaVuSans-Bold-41" d="M 3419 850 
L 1538 850 
L 1241 0 
L 31 0 
L 1759 4666 
L 3194 4666 
L 4922 0 
L 3713 0 
L 3419 850 
z
M 1838 1716 
L 3116 1716 
L 2478 3572 
L 1838 1716 
z
" transform="scale(0.015625)"/>
      <path id="DejaVuSans-Bold-20" transform="scale(0.015625)"/>
      <path id="DejaVuSans-Bold-2d" d="M 347 2297 
L 2309 2297 
L 2309 1388 
L 347 1388 
L 347 2297 
z
" transform="scale(0.015625)"/>
      <path id="DejaVuSans-Bold-3e" d="M 678 3041 
L 678 3822 
L 4684 2375 
L 4684 1638 
L 678 191 
L 678 972 
L 3694 2003 
L 678 3041 
z
" transform="scale(0.015625)"/>
      <path id="DejaVuSans-Bold-43" d="M 4288 256 
Q 3956 84 3597 -3 
Q 3238 -91 2847 -91 
Q 1681 -91 1000 561 
Q 319 1213 319 2328 
Q 319 3447 1000 4098 
Q 1681 4750 2847 4750 
Q 3238 4750 3597 4662 
Q 3956 4575 4288 4403 
L 4288 3438 
Q 3953 3666 3628 3772 
Q 3303 3878 2944 3878 
Q 2300 3878 1931 3465 
Q 1563 3053 1563 2328 
Q 1563 1606 1931 1193 
Q 2300 781 2944 781 
Q 3303 781 3628 887 
Q 3953 994 4288 1222 
L 4288 256 
z
" transform="scale(0.015625)"/>
     </defs>
     <use xlink:href="#DejaVuSans-Bold-41"/>
     <use xlink:href="#DejaVuSans-Bold-20" transform="translate(77.392578 0)"/>
     <use xlink:href="#DejaVuSans-Bold-2d" transform="translate(112.207031 0)"/>
     <use xlink:href="#DejaVuSans-Bold-3e" transform="translate(153.710938 0)"/>
     <use xlink:href="#DejaVuSans-Bold-20" transform="translate(237.5 0)"/>
     <use xlink:href="#DejaVuSans-Bold-43" transform="translate(272.314453 0)"/>
    </g>
   </g>
   <g id="text_20">
    <!-- A -->
    <g transform="translate(687.157512 187.449231) scale(0.09 -0.09)">
     <use xlink:href="#DejaVuSans-41"/>
    </g>
   </g>
   <g id="text_21">
    <!-- B -->
    <g transform="translate(798.188211 151.760792) scale(0.09 -0.09)">
     <use xlink:href="#DejaVuSans-42"/>
    </g>
   </g>
   <g id="text_22">
    <!-- C -->
    <g transform="translate(905.253529 207.276141) scale(0.09 -0.09)">
     <use xlink:href="#DejaVuSans-43"/>
    </g>
   </g>
   <g id="text_23">
    <!-- D -->
    <g transform="translate(794.222829 242.964581) scale(0.09 -0.09)">
     <defs>
      <path id="DejaVuSans-44" d="M 1259 4147 
L 1259 519 
L 2022 519 
Q 2988 519 3436 956 
Q 3884 1394 3884 2338 
Q 3884 3275 3436 3711 
Q 2988 4147 2022 4147 
L 1259 4147 
z
M 628 4666 
L 1925 4666 
Q 3281 4666 3915 4102 
Q 4550 3538 4550 2338 
Q 4550 1131 3912 565 
Q 3275 0 1925 0 
L 628 0 
L 628 4666 
z
" transform="scale(0.015625)"/>
     </defs>
     <use xlink:href="#DejaVuSans-44"/>
    </g>
   </g>
   <g id="text_24">
    <!-- two half-turns -->
    <g transform="translate(752.33065 114.037735) scale(0.11 -0.11)">
     <defs>
      <path id="DejaVuSans-77" d="M 269 3500 
L 844 3500 
L 1563 769 
L 2278 3500 
L 2956 3500 
L 3675 769 
L 4391 3500 
L 4966 3500 
L 4050 0 
L 3372 0 
L 2619 2869 
L 1863 0 
L 1184 0 
L 269 3500 
z
" transform="scale(0.015625)"/>
      <path id="DejaVuSans-68" d="M 3513 2113 
L 3513 0 
L 2938 0 
L 2938 2094 
Q 2938 2591 2744 2837 
Q 2550 3084 2163 3084 
Q 1697 3084 1428 2787 
Q 1159 2491 1159 1978 
L 1159 0 
L 581 0 
L 581 4863 
L 1159 4863 
L 1159 2956 
Q 1366 3272 1645 3428 
Q 1925 3584 2291 3584 
Q 2894 3584 3203 3211 
Q 3513 2838 3513 2113 
z
" transform="scale(0.015625)"/>
      <path id="DejaVuSans-66" d="M 2375 4863 
L 2375 4384 
L 1825 4384 
Q 1516 4384 1395 4259 
Q 1275 4134 1275 3809 
L 1275 3500 
L 2222 3500 
L 2222 3053 
L 1275 3053 
L 1275 0 
L 697 0 
L 697 3053 
L 147 3053 
L 147 3500 
L 697 3500 
L 697 3744 
Q 697 4328 969 4595 
Q 1241 4863 1831 4863 
L 2375 4863 
z
" transform="scale(0.015625)"/>
      <path id="DejaVuSans-2d" d="M 313 2009 
L 1997 2009 
L 1997 1497 
L 313 1497 
L 313 2009 
z
" transform="scale(0.015625)"/>
      <path id="DejaVuSans-75" d="M 544 1381 
L 544 3500 
L 1119 3500 
L 1119 1403 
Q 1119 906 1312 657 
Q 1506 409 1894 409 
Q 2359 409 2629 706 
Q 2900 1003 2900 1516 
L 2900 3500 
L 3475 3500 
L 3475 0 
L 2900 0 
L 2900 538 
Q 2691 219 2414 64 
Q 2138 -91 1772 -91 
Q 1169 -91 856 284 
Q 544 659 544 1381 
z
M 1991 3584 
L 1991 3584 
z
" transform="scale(0.015625)"/>
     </defs>
     <use xlink:href="#DejaVuSans-74"/>
     <use xlink:href="#DejaVuSans-77" transform="translate(39.208984 0)"/>
     <use xlink:href="#DejaVuSans-6f" transform="translate(120.996094 0)"/>
     <use xlink:href="#DejaVuSans-20" transform="translate(182.177734 0)"/>
     <use xlink:href="#DejaVuSans-68" transform="translate(213.964844 0)"/>
     <use xlink:href="#DejaVuSans-61" transform="translate(277.34375 0)"/>
     <use xlink:href="#DejaVuSans-6c" transform="translate(338.623047 0)"/>
     <use xlink:href="#DejaVuSans-66" transform="translate(366.40625 0)"/>
     <use xlink:href="#DejaVuSans-2d" transform="translate(396.111328 0)"/>
     <use xlink:href="#DejaVuSans-74" transform="translate(432.195312 0)"/>
     <use xlink:href="#DejaVuSans-75" transform="translate(471.404297 0)"/>
     <use xlink:href="#DejaVuSans-72" transform="translate(534.783203 0)"/>
     <use xlink:href="#DejaVuSans-6e" transform="translate(574.146484 0)"/>
     <use xlink:href="#DejaVuSans-73" transform="translate(637.525391 0)"/>
    </g>
   </g>
  </g>
  <g id="text_25">
   <!-- Dilatations split into finite-center maps, translations, and half-turn products -->
   <g transform="translate(230.131663 17.077969) scale(0.13 -0.13)">
    <defs>
     <path id="DejaVuSans-70" d="M 1159 525 
L 1159 -1331 
L 581 -1331 
L 581 3500 
L 1159 3500 
L 1159 2969 
Q 1341 3281 1617 3432 
Q 1894 3584 2278 3584 
Q 2916 3584 3314 3078 
Q 3713 2572 3713 1747 
Q 3713 922 3314 415 
Q 2916 -91 2278 -91 
Q 1894 -91 1617 61 
Q 1341 213 1159 525 
z
M 3116 1747 
Q 3116 2381 2855 2742 
Q 2594 3103 2138 3103 
Q 1681 3103 1420 2742 
Q 1159 2381 1159 1747 
Q 1159 1113 1420 752 
Q 1681 391 2138 391 
Q 2594 391 2855 752 
Q 3116 1113 3116 1747 
z
" transform="scale(0.015625)"/>
     <path id="DejaVuSans-6d" d="M 3328 2828 
Q 3544 3216 3844 3400 
Q 4144 3584 4550 3584 
Q 5097 3584 5394 3201 
Q 5691 2819 5691 2113 
L 5691 0 
L 5113 0 
L 5113 2094 
Q 5113 2597 4934 2840 
Q 4756 3084 4391 3084 
Q 3944 3084 3684 2787 
Q 3425 2491 3425 1978 
L 3425 0 
L 2847 0 
L 2847 2094 
Q 2847 2600 2669 2842 
Q 2491 3084 2119 3084 
Q 1678 3084 1418 2786 
Q 1159 2488 1159 1978 
L 1159 0 
L 581 0 
L 581 3500 
L 1159 3500 
L 1159 2956 
Q 1356 3278 1631 3431 
Q 1906 3584 2284 3584 
Q 2666 3584 2933 3390 
Q 3200 3197 3328 2828 
z
" transform="scale(0.015625)"/>
     <path id="DejaVuSans-2c" d="M 750 794 
L 1409 794 
L 1409 256 
L 897 -744 
L 494 -744 
L 750 256 
L 750 794 
z
" transform="scale(0.015625)"/>
    </defs>
    <use xlink:href="#DejaVuSans-44"/>
    <use xlink:href="#DejaVuSans-69" transform="translate(77.001953 0)"/>
    <use xlink:href="#DejaVuSans-6c" transform="translate(104.785156 0)"/>
    <use xlink:href="#DejaVuSans-61" transform="translate(132.568359 0)"/>
    <use xlink:href="#DejaVuSans-74" transform="translate(193.847656 0)"/>
    <use xlink:href="#DejaVuSans-61" transform="translate(233.056641 0)"/>
    <use xlink:href="#DejaVuSans-74" transform="translate(294.335938 0)"/>
    <use xlink:href="#DejaVuSans-69" transform="translate(333.544922 0)"/>
    <use xlink:href="#DejaVuSans-6f" transform="translate(361.328125 0)"/>
    <use xlink:href="#DejaVuSans-6e" transform="translate(422.509766 0)"/>
    <use xlink:href="#DejaVuSans-73" transform="translate(485.888672 0)"/>
    <use xlink:href="#DejaVuSans-20" transform="translate(537.988281 0)"/>
    <use xlink:href="#DejaVuSans-73" transform="translate(569.775391 0)"/>
    <use xlink:href="#DejaVuSans-70" transform="translate(621.875 0)"/>
    <use xlink:href="#DejaVuSans-6c" transform="translate(685.351562 0)"/>
    <use xlink:href="#DejaVuSans-69" transform="translate(713.134766 0)"/>
    <use xlink:href="#DejaVuSans-74" transform="translate(740.917969 0)"/>
    <use xlink:href="#DejaVuSans-20" transform="translate(780.126953 0)"/>
    <use xlink:href="#DejaVuSans-69" transform="translate(811.914062 0)"/>
    <use xlink:href="#DejaVuSans-6e" transform="translate(839.697266 0)"/>
    <use xlink:href="#DejaVuSans-74" transform="translate(903.076172 0)"/>
    <use xlink:href="#DejaVuSans-6f" transform="translate(942.285156 0)"/>
    <use xlink:href="#DejaVuSans-20" transform="translate(1003.466797 0)"/>
    <use xlink:href="#DejaVuSans-66" transform="translate(1035.253906 0)"/>
    <use xlink:href="#DejaVuSans-69" transform="translate(1070.458984 0)"/>
    <use xlink:href="#DejaVuSans-6e" transform="translate(1098.242188 0)"/>
    <use xlink:href="#DejaVuSans-69" transform="translate(1161.621094 0)"/>
    <use xlink:href="#DejaVuSans-74" transform="translate(1189.404297 0)"/>
    <use xlink:href="#DejaVuSans-65" transform="translate(1228.613281 0)"/>
    <use xlink:href="#DejaVuSans-2d" transform="translate(1290.136719 0)"/>
    <use xlink:href="#DejaVuSans-63" transform="translate(1326.220703 0)"/>
    <use xlink:href="#DejaVuSans-65" transform="translate(1381.201172 0)"/>
    <use xlink:href="#DejaVuSans-6e" transform="translate(1442.724609 0)"/>
    <use xlink:href="#DejaVuSans-74" transform="translate(1506.103516 0)"/>
    <use xlink:href="#DejaVuSans-65" transform="translate(1545.3125 0)"/>
    <use xlink:href="#DejaVuSans-72" transform="translate(1606.835938 0)"/>
    <use xlink:href="#DejaVuSans-20" transform="translate(1647.949219 0)"/>
    <use xlink:href="#DejaVuSans-6d" transform="translate(1679.736328 0)"/>
    <use xlink:href="#DejaVuSans-61" transform="translate(1777.148438 0)"/>
    <use xlink:href="#DejaVuSans-70" transform="translate(1838.427734 0)"/>
    <use xlink:href="#DejaVuSans-73" transform="translate(1901.904297 0)"/>
    <use xlink:href="#DejaVuSans-2c" transform="translate(1954.003906 0)"/>
    <use xlink:href="#DejaVuSans-20" transform="translate(1985.791016 0)"/>
    <use xlink:href="#DejaVuSans-74" transform="translate(2017.578125 0)"/>
    <use xlink:href="#DejaVuSans-72" transform="translate(2056.787109 0)"/>
    <use xlink:href="#DejaVuSans-61" transform="translate(2097.900391 0)"/>
    <use xlink:href="#DejaVuSans-6e" transform="translate(2159.179688 0)"/>
    <use xlink:href="#DejaVuSans-73" transform="translate(2222.558594 0)"/>
    <use xlink:href="#DejaVuSans-6c" transform="translate(2274.658203 0)"/>
    <use xlink:href="#DejaVuSans-61" transform="translate(2302.441406 0)"/>
    <use xlink:href="#DejaVuSans-74" transform="translate(2363.720703 0)"/>
    <use xlink:href="#DejaVuSans-69" transform="translate(2402.929688 0)"/>
    <use xlink:href="#DejaVuSans-6f" transform="translate(2430.712891 0)"/>
    <use xlink:href="#DejaVuSans-6e" transform="translate(2491.894531 0)"/>
    <use xlink:href="#DejaVuSans-73" transform="translate(2555.273438 0)"/>
    <use xlink:href="#DejaVuSans-2c" transform="translate(2607.373047 0)"/>
    <use xlink:href="#DejaVuSans-20" transform="translate(2639.160156 0)"/>
    <use xlink:href="#DejaVuSans-61" transform="translate(2670.947266 0)"/>
    <use xlink:href="#DejaVuSans-6e" transform="translate(2732.226562 0)"/>
    <use xlink:href="#DejaVuSans-64" transform="translate(2795.605469 0)"/>
    <use xlink:href="#DejaVuSans-20" transform="translate(2859.082031 0)"/>
    <use xlink:href="#DejaVuSans-68" transform="translate(2890.869141 0)"/>
    <use xlink:href="#DejaVuSans-61" transform="translate(2954.248047 0)"/>
    <use xlink:href="#DejaVuSans-6c" transform="translate(3015.527344 0)"/>
    <use xlink:href="#DejaVuSans-66" transform="translate(3043.310547 0)"/>
    <use xlink:href="#DejaVuSans-2d" transform="translate(3073.015625 0)"/>
    <use xlink:href="#DejaVuSans-74" transform="translate(3109.099609 0)"/>
    <use xlink:href="#DejaVuSans-75" transform="translate(3148.308594 0)"/>
    <use xlink:href="#DejaVuSans-72" transform="translate(3211.6875 0)"/>
    <use xlink:href="#DejaVuSans-6e" transform="translate(3251.050781 0)"/>
    <use xlink:href="#DejaVuSans-20" transform="translate(3314.429688 0)"/>
    <use xlink:href="#DejaVuSans-70" transform="translate(3346.216797 0)"/>
    <use xlink:href="#DejaVuSans-72" transform="translate(3409.693359 0)"/>
    <use xlink:href="#DejaVuSans-6f" transform="translate(3448.556641 0)"/>
    <use xlink:href="#DejaVuSans-64" transform="translate(3509.738281 0)"/>
    <use xlink:href="#DejaVuSans-75" transform="translate(3573.214844 0)"/>
    <use xlink:href="#DejaVuSans-63" transform="translate(3636.59375 0)"/>
    <use xlink:href="#DejaVuSans-74" transform="translate(3691.574219 0)"/>
    <use xlink:href="#DejaVuSans-73" transform="translate(3730.783203 0)"/>
   </g>
  </g>
 </g>
 <defs>
  <clipPath id="p035f03ecb0">
   <rect x="7.2" y="48.018462" width="287.857072" height="278.861538"/>
  </clipPath>
  <clipPath id="pc72fc64dd0">
   <rect x="323.973853" y="84.745834" width="293.438278" height="205.406794"/>
  </clipPath>
  <clipPath id="pe6c1a136c3">
   <rect x="643.538308" y="120.037735" width="293.438278" height="134.822992"/>
  </clipPath>
 </defs>
</svg>
