<svg xmlns="http://www.w3.org/2000/svg" width="760" height="520" viewBox="0 0 760 520"><rect width="760" height="520" fill="#fffdf7"/><text x="28" y="38" font-size="24" font-family="DejaVu Sans, Arial" font-weight="700" fill="#1f2933">Chapter 13 experiment</text><text x="28" y="64" font-size="14" font-family="DejaVu Sans, Arial" fill="#1f2933">Perturb the model and inspect what remains invariant</text><g font-family="DejaVu Sans, Arial"><polyline points="167.6,256.7 170.7,258.5 173.7,260.4 176.8,262.5 179.8,264.7 182.9,267.1 185.9,269.5 189.0,272.1 192.0,274.8 195.1,277.6 198.2,280.5 201.2,283.4 204.3,286.4 207.3,289.5 210.4,292.6 213.4,295.7 216.5,298.9 219.6,302.1 222.6,305.2 225.7,308.4 228.7,311.5 231.8,314.6 234.8,317.6 237.9,320.6 240.9,323.5 244.0,326.3 247.1,329.1 250.1,331.7 253.2,334.3 256.2,336.7 259.3,339.0 262.3,341.1 265.4,343.2 268.5,345.0 271.5,346.7 274.6,348.3 277.6,349.7 280.7,350.9 283.7,351.9 286.8,352.8 289.8,353.5 292.9,354.0 296.0,354.3 299.0,354.4 302.1,354.3 305.1,354.1 308.2,353.6 311.2,353.0 314.3,352.2 317.3,351.2 320.4,350.0 323.5,348.7 326.5,347.2 329.6,345.5 332.6,343.7 335.7,341.7 338.7,339.5 341.8,337.3 344.9,334.9 347.9,332.4 351.0,329.8 354.0,327.1 357.1,324.2 360.1,321.4 363.2,318.4 366.2,315.4 369.3,312.3 372.4,309.2 375.4,306.0 378.5,302.9 381.5,299.7 384.6,296.6 387.6,293.4 390.7,290.3 393.8,287.2 396.8,284.2 399.9,281.2 402.9,278.4 406.0,275.5 409.0,272.8 412.1,270.2 415.1,267.7 418.2,265.3 421.3,263.1 424.3,260.9 427.4,258.9 430.4,257.1 433.5,255.4 436.5,253.9 439.6,252.6 442.7,251.4 445.7,250.4 448.8,249.6 451.8,249.0 454.9,248.5 457.9,248.3 461.0,248.2 464.0,248.3 467.1,248.6 470.2,249.1 473.2,249.8 476.3,250.7 479.3,251.7 482.4,252.9 485.4,254.3 488.5,255.9 491.5,257.6 494.6,259.4 497.7,261.5 500.7,263.6 503.8,265.9 506.8,268.3 509.9,270.9 512.9,273.5 516.0,276.3 519.1,279.1 522.1,282.0 525.2,285.0 528.2,288.0 531.3,291.1 534.3,294.2 537.4,297.4 540.4,300.5 543.5,303.7 546.6,306.9 549.6,310.0 552.7,313.1 555.7,316.2 558.8,319.2 561.8,322.1 564.9,325.0 568.0,327.8 571.0,330.5 574.1,333.1 577.1,335.5 580.2,337.9 583.2,340.1 586.3,342.2 589.3,344.1 592.4,345.9" fill="none" stroke="#2364aa" stroke-width="2" stroke-linejoin="round"/>
<polyline points="167.6,241.9 170.7,244.9 173.7,247.9 176.8,251.0 179.8,254.2 182.9,257.3 185.9,260.5 189.0,263.6 192.0,266.8 195.1,269.9 198.2,273.0 201.2,276.0 204.3,279.0 207.3,281.9 210.4,284.8 213.4,287.5 216.5,290.2 219.6,292.7 222.6,295.2 225.7,297.5 228.7,299.6 231.8,301.7 234.8,303.6 237.9,305.3 240.9,306.9 244.0,308.3 247.1,309.5 250.1,310.6 253.2,311.4 256.2,312.1 259.3,312.6 262.3,313.0 265.4,313.1 268.5,313.0 271.5,312.8 274.6,312.4 277.6,311.8 280.7,311.0 283.7,310.0 286.8,308.8 289.8,307.5 292.9,306.0 296.0,304.3 299.0,302.5 302.1,300.6 305.1,298.4 308.2,296.2 311.2,293.8 314.3,291.3 317.3,288.7 320.4,286.0 323.5,283.2 326.5,280.3 329.6,277.4 332.6,274.3 335.7,271.3 338.7,268.2 341.8,265.0 344.9,261.9 347.9,258.7 351.0,255.5 354.0,252.4 357.1,249.3 360.1,246.2 363.2,243.2 366.2,240.2 369.3,237.3 372.4,234.5 375.4,231.8 378.5,229.1 381.5,226.6 384.6,224.2 387.6,221.9 390.7,219.8 393.8,217.8 396.8,216.0 399.9,214.3 402.9,212.8 406.0,211.4 409.0,210.2 412.1,209.2 415.1,208.4 418.2,207.7 421.3,207.3 424.3,207.0 427.4,206.9 430.4,207.0 433.5,207.3 436.5,207.8 439.6,208.4 442.7,209.3 445.7,210.3 448.8,211.5 451.8,212.9 454.9,214.4 457.9,216.1 461.0,218.0 464.0,220.0 467.1,222.1 470.2,224.4 473.2,226.8 476.3,229.4 479.3,232.0 482.4,234.7 485.4,237.6 488.5,240.5 491.5,243.4 494.6,246.5 497.7,249.5 500.7,252.7 503.8,255.8 506.8,259.0 509.9,262.1 512.9,265.3 516.0,268.4 519.1,271.5 522.1,274.6 525.2,277.6 528.2,280.6 531.3,283.4 534.3,286.2 537.4,288.9 540.4,291.5 543.5,294.0 546.6,296.4 549.6,298.6 552.7,300.7 555.7,302.7 558.8,304.5 561.8,306.1 564.9,307.6 568.0,308.9 571.0,310.1 574.1,311.0 577.1,311.8 580.2,312.4 583.2,312.8 586.3,313.1 589.3,313.1 592.4,312.9" fill="none" stroke="#f97316" stroke-width="2" stroke-linejoin="round"/>
<polyline points="167.6,234.5 170.7,237.5 173.7,240.4 176.8,243.2 179.8,246.0 182.9,248.7 185.9,251.2 189.0,253.7 192.0,256.0 195.1,258.2 198.2,260.2 201.2,262.1 204.3,263.8 207.3,265.4 210.4,266.8 213.4,268.1 216.5,269.2 219.6,270.1 222.6,270.8 225.7,271.3 228.7,271.6 231.8,271.8 234.8,271.8 237.9,271.5 240.9,271.1 244.0,270.5 247.1,269.7 250.1,268.8 253.2,267.6 256.2,266.3 259.3,264.8 262.3,263.2 265.4,261.4 268.5,259.4 271.5,257.3 274.6,255.1 277.6,252.7 280.7,250.2 283.7,247.6 286.8,244.9 289.8,242.1 292.9,239.3 296.0,236.3 299.0,233.3 302.1,230.2 305.1,227.1 308.2,224.0 311.2,220.8 314.3,217.7 317.3,214.5 320.4,211.4 323.5,208.3 326.5,205.2 329.6,202.1 332.6,199.2 335.7,196.3 338.7,193.4 341.8,190.7 344.9,188.1 347.9,185.5 351.0,183.1 354.0,180.8 357.1,178.7 360.1,176.7 363.2,174.8 366.2,173.1 369.3,171.6 372.4,170.2 375.4,169.0 378.5,168.0 381.5,167.1 384.6,166.5 387.6,166.0 390.7,165.7 393.8,165.6 396.8,165.7 399.9,166.0 402.9,166.4 406.0,167.1 409.0,167.9 412.1,168.9 415.1,170.1 418.2,171.4 421.3,173.0 424.3,174.7 427.4,176.5 430.4,178.5 433.5,180.6 436.5,182.9 439.6,185.3 442.7,187.8 445.7,190.5 448.8,193.2 451.8,196.0 454.9,198.9 457.9,201.9 461.0,204.9 464.0,208.0 467.1,211.1 470.2,214.2 473.2,217.4 476.3,220.5 479.3,223.7 482.4,226.8 485.4,230.0 488.5,233.0 491.5,236.0 494.6,239.0 497.7,241.9 500.7,244.7 503.8,247.4 506.8,250.0 509.9,252.5 512.9,254.9 516.0,257.1 519.1,259.2 522.1,261.2 525.2,263.0 528.2,264.7 531.3,266.2 534.3,267.5 537.4,268.7 540.4,269.7 543.5,270.5 546.6,271.1 549.6,271.5 552.7,271.7 555.7,271.8 558.8,271.7 561.8,271.3 564.9,270.8 568.0,270.1 571.0,269.3 574.1,268.2 577.1,267.0 580.2,265.6 583.2,264.0 586.3,262.3 589.3,260.4 592.4,258.4" fill="none" stroke="#2f9e44" stroke-width="2" stroke-linejoin="round"/>
<line x1="167.6" y1="260.0" x2="592.4" y2="260.0" stroke="#d8dee9" stroke-width="1" stroke-dasharray="4 4"/></g></svg>