<?xml version="1.0" encoding="utf-8" standalone="no"?>
<!DOCTYPE svg PUBLIC "-//W3C//DTD SVG 1.1//EN"
  "http://www.w3.org/Graphics/SVG/1.1/DTD/svg11.dtd">
<svg xmlns:xlink="http://www.w3.org/1999/xlink" width="914.230769pt" height="414.864pt" viewBox="0 0 914.230769 414.864" xmlns="http://www.w3.org/2000/svg" version="1.1">
 <metadata>
  <rdf:RDF xmlns:dc="http://purl.org/dc/elements/1.1/" xmlns:cc="http://creativecommons.org/ns#" xmlns:rdf="http://www.w3.org/1999/02/22-rdf-syntax-ns#">
   <cc:Work>
    <dc:type rdf:resource="http://purl.org/dc/dcmitype/StillImage"/>
    <dc:date>2026-05-12T07:25:51.711280</dc:date>
    <dc:format>image/svg+xml</dc:format>
    <dc:creator>
     <cc:Agent>
      <dc:title>Matplotlib v3.10.9, https://matplotlib.org/</dc:title>
     </cc:Agent>
    </dc:creator>
   </cc:Work>
  </rdf:RDF>
 </metadata>
 <defs>
  <style type="text/css">*{stroke-linejoin: round; stroke-linecap: butt}</style>
 </defs>
 <g id="figure_1">
  <g id="patch_1">
   <path d="M 0 414.864 
L 914.230769 414.864 
L 914.230769 0 
L 0 0 
z
" style="fill: #ffffff"/>
  </g>
  <g id="axes_1">
   <g id="patch_2">
    <path d="M 7.2 400.121802 
L 451.8 400.121802 
L 451.8 57.144659 
L 7.2 57.144659 
z
" style="fill: #ffffff"/>
   </g>
   <g id="patch_3">
    <path d="M 299.365714 311.201802 
L 287.56914 317.262003 
L 286.886789 313.577309 
L 127.888708 343.021398 
L 127.865578 342.896493 
L 286.863658 313.452404 
L 286.181307 309.767709 
z
" clip-path="url(#p3d4cd819d0)" style="fill: #2563eb; stroke: #2563eb; stroke-width: 1.8; stroke-linejoin: miter"/>
   </g>
   <g id="patch_4">
    <path d="M 165.985714 203.227516 
L 166.319949 216.485476 
L 162.704648 215.499485 
L 127.938419 342.975657 
L 127.815867 342.942233 
L 162.582095 215.466062 
L 158.966794 214.480071 
z
" clip-path="url(#p3d4cd819d0)" style="fill: #059669; stroke: #059669; stroke-width: 1.8; stroke-linejoin: miter"/>
   </g>
   <g id="patch_5">
    <path d="M 268.878857 243.876659 
L 260.67652 254.298122 
L 258.522002 251.232077 
L 127.91366 343.010912 
L 127.840626 342.906978 
L 258.448968 251.128143 
L 256.29445 248.062098 
z
" clip-path="url(#p3d4cd819d0)" style="fill: #7c3aed; stroke: #7c3aed; stroke-width: 1.8; stroke-linejoin: miter"/>
   </g>
   <g id="PathCollection_1">
    <path d="M 58.011429 317.117882 
C 59.580391 317.117882 61.085305 316.494526 62.194729 315.385102 
C 63.304153 314.275678 63.927508 312.770765 63.927508 311.201802 
C 63.927508 309.632839 63.304153 308.127926 62.194729 307.018502 
C 61.085305 305.909078 59.580391 305.285722 58.011429 305.285722 
C 56.442466 305.285722 54.937553 305.909078 53.828128 307.018502 
C 52.718704 308.127926 52.095349 309.632839 52.095349 311.201802 
C 52.095349 312.770765 52.718704 314.275678 53.828128 315.385102 
C 54.937553 316.494526 56.442466 317.117882 58.011429 317.117882 
z
" clip-path="url(#p3d4cd819d0)" style="fill: #f97316; fill-opacity: 0.75; stroke: #f97316; stroke-opacity: 0.75"/>
    <path d="M 273.96 277.675806 
C 275.175313 277.675806 276.341014 277.192957 277.20037 276.333601 
C 278.059727 275.474245 278.542576 274.308544 278.542576 273.093231 
C 278.542576 271.877917 278.059727 270.712217 277.20037 269.85286 
C 276.341014 268.993504 275.175313 268.510655 273.96 268.510655 
C 272.744687 268.510655 271.578986 268.993504 270.71963 269.85286 
C 269.860273 270.712217 269.377424 271.877917 269.377424 273.093231 
C 269.377424 274.308544 269.860273 275.474245 270.71963 276.333601 
C 271.578986 277.192957 272.744687 277.675806 273.96 277.675806 
z
" clip-path="url(#p3d4cd819d0)" style="fill: #f97316; fill-opacity: 0.75; stroke: #f97316; stroke-opacity: 0.75"/>
    <path d="M 185.04 143.454888 
C 186.032299 143.454888 186.98409 143.060644 187.685751 142.358982 
C 188.387413 141.657321 188.781657 140.70553 188.781657 139.713231 
C 188.781657 138.720932 188.387413 137.769141 187.685751 137.067479 
C 186.98409 136.365818 186.032299 135.971573 185.04 135.971573 
C 184.047701 135.971573 183.09591 136.365818 182.394249 137.067479 
C 181.692587 137.769141 181.298343 138.720932 181.298343 139.713231 
C 181.298343 140.70553 181.692587 141.657321 182.394249 142.358982 
C 183.09591 143.060644 184.047701 143.454888 185.04 143.454888 
z
" clip-path="url(#p3d4cd819d0)" style="fill: #f97316; fill-opacity: 0.75; stroke: #f97316; stroke-opacity: 0.75"/>
    <path d="M 343.825714 161.24239 
C 344.482058 161.24239 345.111609 160.981622 345.575714 160.517516 
C 346.03982 160.053411 346.300588 159.423861 346.300588 158.767516 
C 346.300588 158.111172 346.03982 157.481622 345.575714 157.017516 
C 345.111609 156.553411 344.482058 156.292643 343.825714 156.292643 
C 343.16937 156.292643 342.53982 156.553411 342.075714 157.017516 
C 341.611609 157.481622 341.350841 158.111172 341.350841 158.767516 
C 341.350841 159.423861 341.611609 160.053411 342.075714 160.517516 
C 342.53982 160.981622 343.16937 161.24239 343.825714 161.24239 
z
" clip-path="url(#p3d4cd819d0)" style="fill: #f97316; fill-opacity: 0.75; stroke: #f97316; stroke-opacity: 0.75"/>
   </g>
   <g id="PathCollection_2">
    <defs>
     <path id="md082a2fa0d" d="M -4.743416 4.743416 
L 4.743416 -4.743416 
M -4.743416 -4.743416 
L 4.743416 4.743416 
" style="stroke: #111827; stroke-width: 1.5"/>
    </defs>
    <g clip-path="url(#p3d4cd819d0)">
     <use xlink:href="#md082a2fa0d" x="129.443249" y="275.703407" style="fill: #111827; stroke: #111827; stroke-width: 1.5"/>
    </g>
   </g>
   <g id="matplotlib.axis_1">
    <g id="xtick_1">
     <g id="line2d_1">
      <path d="M 32.605714 400.121802 
L 32.605714 57.144659 
" clip-path="url(#p3d4cd819d0)" style="fill: none; stroke: #e5e7eb; stroke-width: 0.7; stroke-linecap: square"/>
     </g>
     <g id="line2d_2"/>
    </g>
    <g id="xtick_2">
     <g id="line2d_3">
      <path d="M 96.12 400.121802 
L 96.12 57.144659 
" clip-path="url(#p3d4cd819d0)" style="fill: none; stroke: #e5e7eb; stroke-width: 0.7; stroke-linecap: square"/>
     </g>
     <g id="line2d_4"/>
    </g>
    <g id="xtick_3">
     <g id="line2d_5">
      <path d="M 159.634286 400.121802 
L 159.634286 57.144659 
" clip-path="url(#p3d4cd819d0)" style="fill: none; stroke: #e5e7eb; stroke-width: 0.7; stroke-linecap: square"/>
     </g>
     <g id="line2d_6"/>
    </g>
    <g id="xtick_4">
     <g id="line2d_7">
      <path d="M 223.148571 400.121802 
L 223.148571 57.144659 
" clip-path="url(#p3d4cd819d0)" style="fill: none; stroke: #e5e7eb; stroke-width: 0.7; stroke-linecap: square"/>
     </g>
     <g id="line2d_8"/>
    </g>
    <g id="xtick_5">
     <g id="line2d_9">
      <path d="M 286.662857 400.121802 
L 286.662857 57.144659 
" clip-path="url(#p3d4cd819d0)" style="fill: none; stroke: #e5e7eb; stroke-width: 0.7; stroke-linecap: square"/>
     </g>
     <g id="line2d_10"/>
    </g>
    <g id="xtick_6">
     <g id="line2d_11">
      <path d="M 350.177143 400.121802 
L 350.177143 57.144659 
" clip-path="url(#p3d4cd819d0)" style="fill: none; stroke: #e5e7eb; stroke-width: 0.7; stroke-linecap: square"/>
     </g>
     <g id="line2d_12"/>
    </g>
    <g id="xtick_7">
     <g id="line2d_13">
      <path d="M 413.691429 400.121802 
L 413.691429 57.144659 
" clip-path="url(#p3d4cd819d0)" style="fill: none; stroke: #e5e7eb; stroke-width: 0.7; stroke-linecap: square"/>
     </g>
     <g id="line2d_14"/>
    </g>
   </g>
   <g id="matplotlib.axis_2">
    <g id="ytick_1">
     <g id="line2d_15">
      <path d="M 7.2 374.716088 
L 451.8 374.716088 
" clip-path="url(#p3d4cd819d0)" style="fill: none; stroke: #e5e7eb; stroke-width: 0.7; stroke-linecap: square"/>
     </g>
     <g id="line2d_16"/>
    </g>
    <g id="ytick_2">
     <g id="line2d_17">
      <path d="M 7.2 311.201802 
L 451.8 311.201802 
" clip-path="url(#p3d4cd819d0)" style="fill: none; stroke: #e5e7eb; stroke-width: 0.7; stroke-linecap: square"/>
     </g>
     <g id="line2d_18"/>
    </g>
    <g id="ytick_3">
     <g id="line2d_19">
      <path d="M 7.2 247.687516 
L 451.8 247.687516 
" clip-path="url(#p3d4cd819d0)" style="fill: none; stroke: #e5e7eb; stroke-width: 0.7; stroke-linecap: square"/>
     </g>
     <g id="line2d_20"/>
    </g>
    <g id="ytick_4">
     <g id="line2d_21">
      <path d="M 7.2 184.173231 
L 451.8 184.173231 
" clip-path="url(#p3d4cd819d0)" style="fill: none; stroke: #e5e7eb; stroke-width: 0.7; stroke-linecap: square"/>
     </g>
     <g id="line2d_22"/>
    </g>
    <g id="ytick_5">
     <g id="line2d_23">
      <path d="M 7.2 120.658945 
L 451.8 120.658945 
" clip-path="url(#p3d4cd819d0)" style="fill: none; stroke: #e5e7eb; stroke-width: 0.7; stroke-linecap: square"/>
     </g>
     <g id="line2d_24"/>
    </g>
    <g id="ytick_6">
     <g id="line2d_25">
      <path d="M 7.2 57.144659 
L 451.8 57.144659 
" clip-path="url(#p3d4cd819d0)" style="fill: none; stroke: #e5e7eb; stroke-width: 0.7; stroke-linecap: square"/>
     </g>
     <g id="line2d_26"/>
    </g>
   </g>
   <g id="line2d_27">
    <path d="M 299.365714 311.201802 
L 337.474286 171.470374 
L 165.985714 203.227516 
" clip-path="url(#p3d4cd819d0)" style="fill: none; stroke-dasharray: 5.55,2.4; stroke-dashoffset: 0; stroke: #d1d5db; stroke-width: 1.5"/>
   </g>
   <g id="text_1">
    <!-- e -->
    <g style="fill: #2563eb" transform="translate(305.717143 304.850374) scale(0.1 -0.1)">
     <defs>
      <path id="DejaVuSans-Bold-65" d="M 4031 1759 
L 4031 1441 
L 1416 1441 
Q 1456 1047 1700 850 
Q 1944 653 2381 653 
Q 2734 653 3104 758 
Q 3475 863 3866 1075 
L 3866 213 
Q 3469 63 3072 -14 
Q 2675 -91 2278 -91 
Q 1328 -91 801 392 
Q 275 875 275 1747 
Q 275 2603 792 3093 
Q 1309 3584 2216 3584 
Q 3041 3584 3536 3087 
Q 4031 2591 4031 1759 
z
M 2881 2131 
Q 2881 2450 2695 2645 
Q 2509 2841 2209 2841 
Q 1884 2841 1681 2658 
Q 1478 2475 1428 2131 
L 2881 2131 
z
" transform="scale(0.015625)"/>
     </defs>
     <use xlink:href="#DejaVuSans-Bold-65"/>
    </g>
   </g>
   <g id="text_2">
    <!-- f -->
    <g style="fill: #059669" transform="translate(172.337143 196.876088) scale(0.1 -0.1)">
     <defs>
      <path id="DejaVuSans-Bold-66" d="M 2841 4863 
L 2841 4128 
L 2222 4128 
Q 1984 4128 1890 4042 
Q 1797 3956 1797 3744 
L 1797 3500 
L 2753 3500 
L 2753 2700 
L 1797 2700 
L 1797 0 
L 678 0 
L 678 2700 
L 122 2700 
L 122 3500 
L 678 3500 
L 678 3744 
Q 678 4316 997 4589 
Q 1316 4863 1984 4863 
L 2841 4863 
z
" transform="scale(0.015625)"/>
     </defs>
     <use xlink:href="#DejaVuSans-Bold-66"/>
    </g>
   </g>
   <g id="text_3">
    <!-- x e + y f -->
    <g style="fill: #7c3aed" transform="translate(275.230286 237.525231) scale(0.1 -0.1)">
     <defs>
      <path id="DejaVuSans-Bold-78" d="M 1422 1791 
L 159 3500 
L 1344 3500 
L 2059 2463 
L 2784 3500 
L 3969 3500 
L 2706 1797 
L 4031 0 
L 2847 0 
L 2059 1106 
L 1281 0 
L 97 0 
L 1422 1791 
z
" transform="scale(0.015625)"/>
      <path id="DejaVuSans-Bold-20" transform="scale(0.015625)"/>
      <path id="DejaVuSans-Bold-2b" d="M 3053 4013 
L 3053 2375 
L 4684 2375 
L 4684 1638 
L 3053 1638 
L 3053 0 
L 2309 0 
L 2309 1638 
L 678 1638 
L 678 2375 
L 2309 2375 
L 2309 4013 
L 3053 4013 
z
" transform="scale(0.015625)"/>
      <path id="DejaVuSans-Bold-79" d="M 78 3500 
L 1197 3500 
L 2138 1125 
L 2938 3500 
L 4056 3500 
L 2584 -331 
Q 2363 -916 2067 -1148 
Q 1772 -1381 1288 -1381 
L 641 -1381 
L 641 -647 
L 991 -647 
Q 1275 -647 1404 -556 
Q 1534 -466 1606 -231 
L 1638 -134 
L 78 3500 
z
" transform="scale(0.015625)"/>
     </defs>
     <use xlink:href="#DejaVuSans-Bold-78"/>
     <use xlink:href="#DejaVuSans-Bold-20" transform="translate(64.501953 0)"/>
     <use xlink:href="#DejaVuSans-Bold-65" transform="translate(99.316406 0)"/>
     <use xlink:href="#DejaVuSans-Bold-20" transform="translate(167.138672 0)"/>
     <use xlink:href="#DejaVuSans-Bold-2b" transform="translate(201.953125 0)"/>
     <use xlink:href="#DejaVuSans-Bold-20" transform="translate(285.742188 0)"/>
     <use xlink:href="#DejaVuSans-Bold-79" transform="translate(320.556641 0)"/>
     <use xlink:href="#DejaVuSans-Bold-20" transform="translate(385.742188 0)"/>
     <use xlink:href="#DejaVuSans-Bold-66" transform="translate(420.556641 0)"/>
    </g>
   </g>
   <g id="text_4">
    <!-- weighted centroid -->
    <g transform="translate(137.064963 268.081693) scale(0.08 -0.08)">
     <defs>
      <path id="DejaVuSans-77" d="M 269 3500 
L 844 3500 
L 1563 769 
L 2278 3500 
L 2956 3500 
L 3675 769 
L 4391 3500 
L 4966 3500 
L 4050 0 
L 3372 0 
L 2619 2869 
L 1863 0 
L 1184 0 
L 269 3500 
z
" transform="scale(0.015625)"/>
      <path id="DejaVuSans-65" d="M 3597 1894 
L 3597 1613 
L 953 1613 
Q 991 1019 1311 708 
Q 1631 397 2203 397 
Q 2534 397 2845 478 
Q 3156 559 3463 722 
L 3463 178 
Q 3153 47 2828 -22 
Q 2503 -91 2169 -91 
Q 1331 -91 842 396 
Q 353 884 353 1716 
Q 353 2575 817 3079 
Q 1281 3584 2069 3584 
Q 2775 3584 3186 3129 
Q 3597 2675 3597 1894 
z
M 3022 2063 
Q 3016 2534 2758 2815 
Q 2500 3097 2075 3097 
Q 1594 3097 1305 2825 
Q 1016 2553 972 2059 
L 3022 2063 
z
" transform="scale(0.015625)"/>
      <path id="DejaVuSans-69" d="M 603 3500 
L 1178 3500 
L 1178 0 
L 603 0 
L 603 3500 
z
M 603 4863 
L 1178 4863 
L 1178 4134 
L 603 4134 
L 603 4863 
z
" transform="scale(0.015625)"/>
      <path id="DejaVuSans-67" d="M 2906 1791 
Q 2906 2416 2648 2759 
Q 2391 3103 1925 3103 
Q 1463 3103 1205 2759 
Q 947 2416 947 1791 
Q 947 1169 1205 825 
Q 1463 481 1925 481 
Q 2391 481 2648 825 
Q 2906 1169 2906 1791 
z
M 3481 434 
Q 3481 -459 3084 -895 
Q 2688 -1331 1869 -1331 
Q 1566 -1331 1297 -1286 
Q 1028 -1241 775 -1147 
L 775 -588 
Q 1028 -725 1275 -790 
Q 1522 -856 1778 -856 
Q 2344 -856 2625 -561 
Q 2906 -266 2906 331 
L 2906 616 
Q 2728 306 2450 153 
Q 2172 0 1784 0 
Q 1141 0 747 490 
Q 353 981 353 1791 
Q 353 2603 747 3093 
Q 1141 3584 1784 3584 
Q 2172 3584 2450 3431 
Q 2728 3278 2906 2969 
L 2906 3500 
L 3481 3500 
L 3481 434 
z
" transform="scale(0.015625)"/>
      <path id="DejaVuSans-68" d="M 3513 2113 
L 3513 0 
L 2938 0 
L 2938 2094 
Q 2938 2591 2744 2837 
Q 2550 3084 2163 3084 
Q 1697 3084 1428 2787 
Q 1159 2491 1159 1978 
L 1159 0 
L 581 0 
L 581 4863 
L 1159 4863 
L 1159 2956 
Q 1366 3272 1645 3428 
Q 1925 3584 2291 3584 
Q 2894 3584 3203 3211 
Q 3513 2838 3513 2113 
z
" transform="scale(0.015625)"/>
      <path id="DejaVuSans-74" d="M 1172 4494 
L 1172 3500 
L 2356 3500 
L 2356 3053 
L 1172 3053 
L 1172 1153 
Q 1172 725 1289 603 
Q 1406 481 1766 481 
L 2356 481 
L 2356 0 
L 1766 0 
Q 1100 0 847 248 
Q 594 497 594 1153 
L 594 3053 
L 172 3053 
L 172 3500 
L 594 3500 
L 594 4494 
L 1172 4494 
z
" transform="scale(0.015625)"/>
      <path id="DejaVuSans-64" d="M 2906 2969 
L 2906 4863 
L 3481 4863 
L 3481 0 
L 2906 0 
L 2906 525 
Q 2725 213 2448 61 
Q 2172 -91 1784 -91 
Q 1150 -91 751 415 
Q 353 922 353 1747 
Q 353 2572 751 3078 
Q 1150 3584 1784 3584 
Q 2172 3584 2448 3432 
Q 2725 3281 2906 2969 
z
M 947 1747 
Q 947 1113 1208 752 
Q 1469 391 1925 391 
Q 2381 391 2643 752 
Q 2906 1113 2906 1747 
Q 2906 2381 2643 2742 
Q 2381 3103 1925 3103 
Q 1469 3103 1208 2742 
Q 947 2381 947 1747 
z
" transform="scale(0.015625)"/>
      <path id="DejaVuSans-20" transform="scale(0.015625)"/>
      <path id="DejaVuSans-63" d="M 3122 3366 
L 3122 2828 
Q 2878 2963 2633 3030 
Q 2388 3097 2138 3097 
Q 1578 3097 1268 2742 
Q 959 2388 959 1747 
Q 959 1106 1268 751 
Q 1578 397 2138 397 
Q 2388 397 2633 464 
Q 2878 531 3122 666 
L 3122 134 
Q 2881 22 2623 -34 
Q 2366 -91 2075 -91 
Q 1284 -91 818 406 
Q 353 903 353 1747 
Q 353 2603 823 3093 
Q 1294 3584 2113 3584 
Q 2378 3584 2631 3529 
Q 2884 3475 3122 3366 
z
" transform="scale(0.015625)"/>
      <path id="DejaVuSans-6e" d="M 3513 2113 
L 3513 0 
L 2938 0 
L 2938 2094 
Q 2938 2591 2744 2837 
Q 2550 3084 2163 3084 
Q 1697 3084 1428 2787 
Q 1159 2491 1159 1978 
L 1159 0 
L 581 0 
L 581 3500 
L 1159 3500 
L 1159 2956 
Q 1366 3272 1645 3428 
Q 1925 3584 2291 3584 
Q 2894 3584 3203 3211 
Q 3513 2838 3513 2113 
z
" transform="scale(0.015625)"/>
      <path id="DejaVuSans-72" d="M 2631 2963 
Q 2534 3019 2420 3045 
Q 2306 3072 2169 3072 
Q 1681 3072 1420 2755 
Q 1159 2438 1159 1844 
L 1159 0 
L 581 0 
L 581 3500 
L 1159 3500 
L 1159 2956 
Q 1341 3275 1631 3429 
Q 1922 3584 2338 3584 
Q 2397 3584 2469 3576 
Q 2541 3569 2628 3553 
L 2631 2963 
z
" transform="scale(0.015625)"/>
      <path id="DejaVuSans-6f" d="M 1959 3097 
Q 1497 3097 1228 2736 
Q 959 2375 959 1747 
Q 959 1119 1226 758 
Q 1494 397 1959 397 
Q 2419 397 2687 759 
Q 2956 1122 2956 1747 
Q 2956 2369 2687 2733 
Q 2419 3097 1959 3097 
z
M 1959 3584 
Q 2709 3584 3137 3096 
Q 3566 2609 3566 1747 
Q 3566 888 3137 398 
Q 2709 -91 1959 -91 
Q 1206 -91 779 398 
Q 353 888 353 1747 
Q 353 2609 779 3096 
Q 1206 3584 1959 3584 
z
" transform="scale(0.015625)"/>
     </defs>
     <use xlink:href="#DejaVuSans-77"/>
     <use xlink:href="#DejaVuSans-65" transform="translate(81.787109 0)"/>
     <use xlink:href="#DejaVuSans-69" transform="translate(143.310547 0)"/>
     <use xlink:href="#DejaVuSans-67" transform="translate(171.09375 0)"/>
     <use xlink:href="#DejaVuSans-68" transform="translate(234.570312 0)"/>
     <use xlink:href="#DejaVuSans-74" transform="translate(297.949219 0)"/>
     <use xlink:href="#DejaVuSans-65" transform="translate(337.158203 0)"/>
     <use xlink:href="#DejaVuSans-64" transform="translate(398.681641 0)"/>
     <use xlink:href="#DejaVuSans-20" transform="translate(462.158203 0)"/>
     <use xlink:href="#DejaVuSans-63" transform="translate(493.945312 0)"/>
     <use xlink:href="#DejaVuSans-65" transform="translate(548.925781 0)"/>
     <use xlink:href="#DejaVuSans-6e" transform="translate(610.449219 0)"/>
     <use xlink:href="#DejaVuSans-74" transform="translate(673.828125 0)"/>
     <use xlink:href="#DejaVuSans-72" transform="translate(713.037109 0)"/>
     <use xlink:href="#DejaVuSans-6f" transform="translate(751.900391 0)"/>
     <use xlink:href="#DejaVuSans-69" transform="translate(813.082031 0)"/>
     <use xlink:href="#DejaVuSans-64" transform="translate(840.865234 0)"/>
    </g>
   </g>
   <g id="text_5">
    <!-- Vectors and origin-independent centroid -->
    <g transform="translate(118.531484 51.144659) scale(0.11 -0.11)">
     <defs>
      <path id="DejaVuSans-56" d="M 1831 0 
L 50 4666 
L 709 4666 
L 2188 738 
L 3669 4666 
L 4325 4666 
L 2547 0 
L 1831 0 
z
" transform="scale(0.015625)"/>
      <path id="DejaVuSans-73" d="M 2834 3397 
L 2834 2853 
Q 2591 2978 2328 3040 
Q 2066 3103 1784 3103 
Q 1356 3103 1142 2972 
Q 928 2841 928 2578 
Q 928 2378 1081 2264 
Q 1234 2150 1697 2047 
L 1894 2003 
Q 2506 1872 2764 1633 
Q 3022 1394 3022 966 
Q 3022 478 2636 193 
Q 2250 -91 1575 -91 
Q 1294 -91 989 -36 
Q 684 19 347 128 
L 347 722 
Q 666 556 975 473 
Q 1284 391 1588 391 
Q 1994 391 2212 530 
Q 2431 669 2431 922 
Q 2431 1156 2273 1281 
Q 2116 1406 1581 1522 
L 1381 1569 
Q 847 1681 609 1914 
Q 372 2147 372 2553 
Q 372 3047 722 3315 
Q 1072 3584 1716 3584 
Q 2034 3584 2315 3537 
Q 2597 3491 2834 3397 
z
" transform="scale(0.015625)"/>
      <path id="DejaVuSans-61" d="M 2194 1759 
Q 1497 1759 1228 1600 
Q 959 1441 959 1056 
Q 959 750 1161 570 
Q 1363 391 1709 391 
Q 2188 391 2477 730 
Q 2766 1069 2766 1631 
L 2766 1759 
L 2194 1759 
z
M 3341 1997 
L 3341 0 
L 2766 0 
L 2766 531 
Q 2569 213 2275 61 
Q 1981 -91 1556 -91 
Q 1019 -91 701 211 
Q 384 513 384 1019 
Q 384 1609 779 1909 
Q 1175 2209 1959 2209 
L 2766 2209 
L 2766 2266 
Q 2766 2663 2505 2880 
Q 2244 3097 1772 3097 
Q 1472 3097 1187 3025 
Q 903 2953 641 2809 
L 641 3341 
Q 956 3463 1253 3523 
Q 1550 3584 1831 3584 
Q 2591 3584 2966 3190 
Q 3341 2797 3341 1997 
z
" transform="scale(0.015625)"/>
      <path id="DejaVuSans-2d" d="M 313 2009 
L 1997 2009 
L 1997 1497 
L 313 1497 
L 313 2009 
z
" transform="scale(0.015625)"/>
      <path id="DejaVuSans-70" d="M 1159 525 
L 1159 -1331 
L 581 -1331 
L 581 3500 
L 1159 3500 
L 1159 2969 
Q 1341 3281 1617 3432 
Q 1894 3584 2278 3584 
Q 2916 3584 3314 3078 
Q 3713 2572 3713 1747 
Q 3713 922 3314 415 
Q 2916 -91 2278 -91 
Q 1894 -91 1617 61 
Q 1341 213 1159 525 
z
M 3116 1747 
Q 3116 2381 2855 2742 
Q 2594 3103 2138 3103 
Q 1681 3103 1420 2742 
Q 1159 2381 1159 1747 
Q 1159 1113 1420 752 
Q 1681 391 2138 391 
Q 2594 391 2855 752 
Q 3116 1113 3116 1747 
z
" transform="scale(0.015625)"/>
     </defs>
     <use xlink:href="#DejaVuSans-56"/>
     <use xlink:href="#DejaVuSans-65" transform="translate(60.658203 0)"/>
     <use xlink:href="#DejaVuSans-63" transform="translate(122.181641 0)"/>
     <use xlink:href="#DejaVuSans-74" transform="translate(177.162109 0)"/>
     <use xlink:href="#DejaVuSans-6f" transform="translate(216.371094 0)"/>
     <use xlink:href="#DejaVuSans-72" transform="translate(277.552734 0)"/>
     <use xlink:href="#DejaVuSans-73" transform="translate(318.666016 0)"/>
     <use xlink:href="#DejaVuSans-20" transform="translate(370.765625 0)"/>
     <use xlink:href="#DejaVuSans-61" transform="translate(402.552734 0)"/>
     <use xlink:href="#DejaVuSans-6e" transform="translate(463.832031 0)"/>
     <use xlink:href="#DejaVuSans-64" transform="translate(527.210938 0)"/>
     <use xlink:href="#DejaVuSans-20" transform="translate(590.6875 0)"/>
     <use xlink:href="#DejaVuSans-6f" transform="translate(622.474609 0)"/>
     <use xlink:href="#DejaVuSans-72" transform="translate(683.65625 0)"/>
     <use xlink:href="#DejaVuSans-69" transform="translate(724.769531 0)"/>
     <use xlink:href="#DejaVuSans-67" transform="translate(752.552734 0)"/>
     <use xlink:href="#DejaVuSans-69" transform="translate(816.029297 0)"/>
     <use xlink:href="#DejaVuSans-6e" transform="translate(843.8125 0)"/>
     <use xlink:href="#DejaVuSans-2d" transform="translate(907.191406 0)"/>
     <use xlink:href="#DejaVuSans-69" transform="translate(943.275391 0)"/>
     <use xlink:href="#DejaVuSans-6e" transform="translate(971.058594 0)"/>
     <use xlink:href="#DejaVuSans-64" transform="translate(1034.4375 0)"/>
     <use xlink:href="#DejaVuSans-65" transform="translate(1097.914062 0)"/>
     <use xlink:href="#DejaVuSans-70" transform="translate(1159.4375 0)"/>
     <use xlink:href="#DejaVuSans-65" transform="translate(1222.914062 0)"/>
     <use xlink:href="#DejaVuSans-6e" transform="translate(1284.4375 0)"/>
     <use xlink:href="#DejaVuSans-64" transform="translate(1347.816406 0)"/>
     <use xlink:href="#DejaVuSans-65" transform="translate(1411.292969 0)"/>
     <use xlink:href="#DejaVuSans-6e" transform="translate(1472.816406 0)"/>
     <use xlink:href="#DejaVuSans-74" transform="translate(1536.195312 0)"/>
     <use xlink:href="#DejaVuSans-20" transform="translate(1575.404297 0)"/>
     <use xlink:href="#DejaVuSans-63" transform="translate(1607.191406 0)"/>
     <use xlink:href="#DejaVuSans-65" transform="translate(1662.171875 0)"/>
     <use xlink:href="#DejaVuSans-6e" transform="translate(1723.695312 0)"/>
     <use xlink:href="#DejaVuSans-74" transform="translate(1787.074219 0)"/>
     <use xlink:href="#DejaVuSans-72" transform="translate(1826.283203 0)"/>
     <use xlink:href="#DejaVuSans-6f" transform="translate(1865.146484 0)"/>
     <use xlink:href="#DejaVuSans-69" transform="translate(1926.328125 0)"/>
     <use xlink:href="#DejaVuSans-64" transform="translate(1954.111328 0)"/>
    </g>
   </g>
   <g id="legend_1">
    <g id="PathCollection_3">
     <defs>
      <path id="m07a71fe804" d="M 0 4.534589 
C 1.202587 4.534589 2.356081 4.056796 3.206439 3.206439 
C 4.056796 2.356081 4.534589 1.202587 4.534589 0 
C 4.534589 -1.202587 4.056796 -2.356081 3.206439 -3.206439 
C 2.356081 -4.056796 1.202587 -4.534589 0 -4.534589 
C -1.202587 -4.534589 -2.356081 -4.056796 -3.206439 -3.206439 
C -4.056796 -2.356081 -4.534589 -1.202587 -4.534589 0 
C -4.534589 1.202587 -4.056796 2.356081 -3.206439 3.206439 
C -2.356081 4.056796 -1.202587 4.534589 0 4.534589 
z
" style="stroke: #f97316; stroke-opacity: 0.75"/>
     </defs>
     <g>
      <use xlink:href="#m07a71fe804" x="26.2" y="71.118097" style="fill: #f97316; fill-opacity: 0.75; stroke: #f97316; stroke-opacity: 0.75"/>
     </g>
    </g>
    <g id="text_6">
     <!-- weighted points -->
     <g transform="translate(44.2 73.743097) scale(0.1 -0.1)">
      <use xlink:href="#DejaVuSans-77"/>
      <use xlink:href="#DejaVuSans-65" transform="translate(81.787109 0)"/>
      <use xlink:href="#DejaVuSans-69" transform="translate(143.310547 0)"/>
      <use xlink:href="#DejaVuSans-67" transform="translate(171.09375 0)"/>
      <use xlink:href="#DejaVuSans-68" transform="translate(234.570312 0)"/>
      <use xlink:href="#DejaVuSans-74" transform="translate(297.949219 0)"/>
      <use xlink:href="#DejaVuSans-65" transform="translate(337.158203 0)"/>
      <use xlink:href="#DejaVuSans-64" transform="translate(398.681641 0)"/>
      <use xlink:href="#DejaVuSans-20" transform="translate(462.158203 0)"/>
      <use xlink:href="#DejaVuSans-70" transform="translate(493.945312 0)"/>
      <use xlink:href="#DejaVuSans-6f" transform="translate(557.421875 0)"/>
      <use xlink:href="#DejaVuSans-69" transform="translate(618.603516 0)"/>
      <use xlink:href="#DejaVuSans-6e" transform="translate(646.386719 0)"/>
      <use xlink:href="#DejaVuSans-74" transform="translate(709.765625 0)"/>
      <use xlink:href="#DejaVuSans-73" transform="translate(748.974609 0)"/>
     </g>
    </g>
    <g id="PathCollection_4">
     <g>
      <use xlink:href="#md082a2fa0d" x="26.2" y="85.796222" style="fill: #111827; stroke: #111827; stroke-width: 1.5"/>
     </g>
    </g>
    <g id="text_7">
     <!-- centroid -->
     <g transform="translate(44.2 88.421222) scale(0.1 -0.1)">
      <use xlink:href="#DejaVuSans-63"/>
      <use xlink:href="#DejaVuSans-65" transform="translate(54.980469 0)"/>
      <use xlink:href="#DejaVuSans-6e" transform="translate(116.503906 0)"/>
      <use xlink:href="#DejaVuSans-74" transform="translate(179.882812 0)"/>
      <use xlink:href="#DejaVuSans-72" transform="translate(219.091797 0)"/>
      <use xlink:href="#DejaVuSans-6f" transform="translate(257.955078 0)"/>
      <use xlink:href="#DejaVuSans-69" transform="translate(319.136719 0)"/>
      <use xlink:href="#DejaVuSans-64" transform="translate(346.919922 0)"/>
     </g>
    </g>
   </g>
  </g>
  <g id="axes_2">
   <g id="patch_6">
    <path d="M 462.769231 407.664 
L 907.030769 407.664 
L 907.030769 49.602462 
L 462.769231 49.602462 
z
" style="fill: #ffffff"/>
   </g>
   <g id="patch_7">
    <path d="M 654.265846 242.557846 
L 867.246154 354.617846 
L 575.492308 89.387077 
z
" clip-path="url(#pb43d341032)" style="fill: #2563eb; fill-opacity: 0.2; stroke: #2563eb; stroke-width: 1.5; stroke-linejoin: miter"/>
   </g>
   <g id="patch_8">
    <path d="M 495.923077 387.771692 
L 654.265846 242.557846 
L 575.492308 89.387077 
z
" clip-path="url(#pb43d341032)" style="fill: #059669; fill-opacity: 0.2; stroke: #059669; stroke-width: 1.5; stroke-linejoin: miter"/>
   </g>
   <g id="patch_9">
    <path d="M 495.923077 387.771692 
L 867.246154 354.617846 
L 654.265846 242.557846 
z
" clip-path="url(#pb43d341032)" style="fill: #dc2626; fill-opacity: 0.2; stroke: #dc2626; stroke-width: 1.5; stroke-linejoin: miter"/>
   </g>
   <g id="patch_10">
    <path d="M 495.923077 387.771692 
L 867.246154 354.617846 
L 575.492308 89.387077 
L 495.923077 387.771692 
z
" clip-path="url(#pb43d341032)" style="fill: none; stroke: #111827; stroke-width: 2; stroke-linejoin: miter"/>
   </g>
   <g id="PathCollection_5">
    <defs>
     <path id="m4b165d1f15" d="M 0 2.95804 
C 0.784481 2.95804 1.536938 2.646362 2.09165 2.09165 
C 2.646362 1.536938 2.95804 0.784481 2.95804 0 
C 2.95804 -0.784481 2.646362 -1.536938 2.09165 -2.09165 
C 1.536938 -2.646362 0.784481 -2.95804 0 -2.95804 
C -0.784481 -2.95804 -1.536938 -2.646362 -2.09165 -2.09165 
C -2.646362 -1.536938 -2.95804 -0.784481 -2.95804 0 
C -2.95804 0.784481 -2.646362 1.536938 -2.09165 2.09165 
C -1.536938 2.646362 -0.784481 2.95804 0 2.95804 
z
" style="stroke: #111827"/>
    </defs>
    <g clip-path="url(#pb43d341032)">
     <use xlink:href="#m4b165d1f15" x="495.923077" y="387.771692" style="fill: #111827; stroke: #111827"/>
    </g>
   </g>
   <g id="PathCollection_6">
    <g clip-path="url(#pb43d341032)">
     <use xlink:href="#m4b165d1f15" x="867.246154" y="354.617846" style="fill: #111827; stroke: #111827"/>
    </g>
   </g>
   <g id="PathCollection_7">
    <g clip-path="url(#pb43d341032)">
     <use xlink:href="#m4b165d1f15" x="575.492308" y="89.387077" style="fill: #111827; stroke: #111827"/>
    </g>
   </g>
   <g id="PathCollection_8">
    <defs>
     <path id="m6f47e6d66e" d="M 0 3.708099 
C 0.983399 3.708099 1.926654 3.317391 2.622022 2.622022 
C 3.317391 1.926654 3.708099 0.983399 3.708099 0 
C 3.708099 -0.983399 3.317391 -1.926654 2.622022 -2.622022 
C 1.926654 -3.317391 0.983399 -3.708099 0 -3.708099 
C -0.983399 -3.708099 -1.926654 -3.317391 -2.622022 -2.622022 
C -3.317391 -1.926654 -3.708099 -0.983399 -3.708099 0 
C -3.708099 0.983399 -3.317391 1.926654 -2.622022 2.622022 
C -1.926654 3.317391 -0.983399 3.708099 0 3.708099 
z
" style="stroke: #111827"/>
    </defs>
    <g clip-path="url(#pb43d341032)">
     <use xlink:href="#m6f47e6d66e" x="654.265846" y="242.557846" style="fill: #111827; stroke: #111827"/>
    </g>
   </g>
   <g id="matplotlib.axis_3">
    <g id="xtick_8">
     <g id="line2d_28">
      <path d="M 476.030769 407.664 
L 476.030769 49.602462 
" clip-path="url(#pb43d341032)" style="fill: none; stroke: #e5e7eb; stroke-width: 0.7; stroke-linecap: square"/>
     </g>
     <g id="line2d_29"/>
    </g>
    <g id="xtick_9">
     <g id="line2d_30">
      <path d="M 542.338462 407.664 
L 542.338462 49.602462 
" clip-path="url(#pb43d341032)" style="fill: none; stroke: #e5e7eb; stroke-width: 0.7; stroke-linecap: square"/>
     </g>
     <g id="line2d_31"/>
    </g>
    <g id="xtick_10">
     <g id="line2d_32">
      <path d="M 608.646154 407.664 
L 608.646154 49.602462 
" clip-path="url(#pb43d341032)" style="fill: none; stroke: #e5e7eb; stroke-width: 0.7; stroke-linecap: square"/>
     </g>
     <g id="line2d_33"/>
    </g>
    <g id="xtick_11">
     <g id="line2d_34">
      <path d="M 674.953846 407.664 
L 674.953846 49.602462 
" clip-path="url(#pb43d341032)" style="fill: none; stroke: #e5e7eb; stroke-width: 0.7; stroke-linecap: square"/>
     </g>
     <g id="line2d_35"/>
    </g>
    <g id="xtick_12">
     <g id="line2d_36">
      <path d="M 741.261538 407.664 
L 741.261538 49.602462 
" clip-path="url(#pb43d341032)" style="fill: none; stroke: #e5e7eb; stroke-width: 0.7; stroke-linecap: square"/>
     </g>
     <g id="line2d_37"/>
    </g>
    <g id="xtick_13">
     <g id="line2d_38">
      <path d="M 807.569231 407.664 
L 807.569231 49.602462 
" clip-path="url(#pb43d341032)" style="fill: none; stroke: #e5e7eb; stroke-width: 0.7; stroke-linecap: square"/>
     </g>
     <g id="line2d_39"/>
    </g>
    <g id="xtick_14">
     <g id="line2d_40">
      <path d="M 873.876923 407.664 
L 873.876923 49.602462 
" clip-path="url(#pb43d341032)" style="fill: none; stroke: #e5e7eb; stroke-width: 0.7; stroke-linecap: square"/>
     </g>
     <g id="line2d_41"/>
    </g>
   </g>
   <g id="matplotlib.axis_4">
    <g id="ytick_7">
     <g id="line2d_42">
      <path d="M 462.769231 401.033231 
L 907.030769 401.033231 
" clip-path="url(#pb43d341032)" style="fill: none; stroke: #e5e7eb; stroke-width: 0.7; stroke-linecap: square"/>
     </g>
     <g id="line2d_43"/>
    </g>
    <g id="ytick_8">
     <g id="line2d_44">
      <path d="M 462.769231 334.725538 
L 907.030769 334.725538 
" clip-path="url(#pb43d341032)" style="fill: none; stroke: #e5e7eb; stroke-width: 0.7; stroke-linecap: square"/>
     </g>
     <g id="line2d_45"/>
    </g>
    <g id="ytick_9">
     <g id="line2d_46">
      <path d="M 462.769231 268.417846 
L 907.030769 268.417846 
" clip-path="url(#pb43d341032)" style="fill: none; stroke: #e5e7eb; stroke-width: 0.7; stroke-linecap: square"/>
     </g>
     <g id="line2d_47"/>
    </g>
    <g id="ytick_10">
     <g id="line2d_48">
      <path d="M 462.769231 202.110154 
L 907.030769 202.110154 
" clip-path="url(#pb43d341032)" style="fill: none; stroke: #e5e7eb; stroke-width: 0.7; stroke-linecap: square"/>
     </g>
     <g id="line2d_49"/>
    </g>
    <g id="ytick_11">
     <g id="line2d_50">
      <path d="M 462.769231 135.802462 
L 907.030769 135.802462 
" clip-path="url(#pb43d341032)" style="fill: none; stroke: #e5e7eb; stroke-width: 0.7; stroke-linecap: square"/>
     </g>
     <g id="line2d_51"/>
    </g>
    <g id="ytick_12">
     <g id="line2d_52">
      <path d="M 462.769231 69.494769 
L 907.030769 69.494769 
" clip-path="url(#pb43d341032)" style="fill: none; stroke: #e5e7eb; stroke-width: 0.7; stroke-linecap: square"/>
     </g>
     <g id="line2d_53"/>
    </g>
   </g>
   <g id="line2d_54">
    <path d="M 654.265846 242.557846 
L 495.923077 387.771692 
" clip-path="url(#pb43d341032)" style="fill: none; stroke: #6b7280; stroke-linecap: square"/>
   </g>
   <g id="line2d_55">
    <path d="M 654.265846 242.557846 
L 867.246154 354.617846 
" clip-path="url(#pb43d341032)" style="fill: none; stroke: #6b7280; stroke-linecap: square"/>
   </g>
   <g id="line2d_56">
    <path d="M 654.265846 242.557846 
L 575.492308 89.387077 
" clip-path="url(#pb43d341032)" style="fill: none; stroke: #6b7280; stroke-linecap: square"/>
   </g>
   <g id="text_8">
    <!-- A1 -->
    <g transform="translate(502.553846 381.140923) scale(0.09 -0.09)">
     <defs>
      <path id="DejaVuSans-41" d="M 2188 4044 
L 1331 1722 
L 3047 1722 
L 2188 4044 
z
M 1831 4666 
L 2547 4666 
L 4325 0 
L 3669 0 
L 3244 1197 
L 1141 1197 
L 716 0 
L 50 0 
L 1831 4666 
z
" transform="scale(0.015625)"/>
      <path id="DejaVuSans-31" d="M 794 531 
L 1825 531 
L 1825 4091 
L 703 3866 
L 703 4441 
L 1819 4666 
L 2450 4666 
L 2450 531 
L 3481 531 
L 3481 0 
L 794 0 
L 794 531 
z
" transform="scale(0.015625)"/>
     </defs>
     <use xlink:href="#DejaVuSans-41"/>
     <use xlink:href="#DejaVuSans-31" transform="translate(68.408203 0)"/>
    </g>
   </g>
   <g id="text_9">
    <!-- A2 -->
    <g transform="translate(873.876923 347.987077) scale(0.09 -0.09)">
     <defs>
      <path id="DejaVuSans-32" d="M 1228 531 
L 3431 531 
L 3431 0 
L 469 0 
L 469 531 
Q 828 903 1448 1529 
Q 2069 2156 2228 2338 
Q 2531 2678 2651 2914 
Q 2772 3150 2772 3378 
Q 2772 3750 2511 3984 
Q 2250 4219 1831 4219 
Q 1534 4219 1204 4116 
Q 875 4013 500 3803 
L 500 4441 
Q 881 4594 1212 4672 
Q 1544 4750 1819 4750 
Q 2544 4750 2975 4387 
Q 3406 4025 3406 3419 
Q 3406 3131 3298 2873 
Q 3191 2616 2906 2266 
Q 2828 2175 2409 1742 
Q 1991 1309 1228 531 
z
" transform="scale(0.015625)"/>
     </defs>
     <use xlink:href="#DejaVuSans-41"/>
     <use xlink:href="#DejaVuSans-32" transform="translate(68.408203 0)"/>
    </g>
   </g>
   <g id="text_10">
    <!-- A3 -->
    <g transform="translate(582.123077 82.756308) scale(0.09 -0.09)">
     <defs>
      <path id="DejaVuSans-33" d="M 2597 2516 
Q 3050 2419 3304 2112 
Q 3559 1806 3559 1356 
Q 3559 666 3084 287 
Q 2609 -91 1734 -91 
Q 1441 -91 1130 -33 
Q 819 25 488 141 
L 488 750 
Q 750 597 1062 519 
Q 1375 441 1716 441 
Q 2309 441 2620 675 
Q 2931 909 2931 1356 
Q 2931 1769 2642 2001 
Q 2353 2234 1838 2234 
L 1294 2234 
L 1294 2753 
L 1863 2753 
Q 2328 2753 2575 2939 
Q 2822 3125 2822 3475 
Q 2822 3834 2567 4026 
Q 2313 4219 1838 4219 
Q 1578 4219 1281 4162 
Q 984 4106 628 3988 
L 628 4550 
Q 988 4650 1302 4700 
Q 1616 4750 1894 4750 
Q 2613 4750 3031 4423 
Q 3450 4097 3450 3541 
Q 3450 3153 3228 2886 
Q 3006 2619 2597 2516 
z
" transform="scale(0.015625)"/>
     </defs>
     <use xlink:href="#DejaVuSans-41"/>
     <use xlink:href="#DejaVuSans-33" transform="translate(68.408203 0)"/>
    </g>
   </g>
   <g id="text_11">
    <!-- P -->
    <g transform="translate(660.896615 235.927077) scale(0.09 -0.09)">
     <defs>
      <path id="DejaVuSans-50" d="M 1259 4147 
L 1259 2394 
L 2053 2394 
Q 2494 2394 2734 2622 
Q 2975 2850 2975 3272 
Q 2975 3691 2734 3919 
Q 2494 4147 2053 4147 
L 1259 4147 
z
M 628 4666 
L 2053 4666 
Q 2838 4666 3239 4311 
Q 3641 3956 3641 3272 
Q 3641 2581 3239 2228 
Q 2838 1875 2053 1875 
L 1259 1875 
L 1259 0 
L 628 0 
L 628 4666 
z
" transform="scale(0.015625)"/>
     </defs>
     <use xlink:href="#DejaVuSans-50"/>
    </g>
   </g>
   <g id="text_12">
    <!-- Barycentric coordinates as signed area shares -->
    <g transform="translate(557.583594 43.602462) scale(0.11 -0.11)">
     <defs>
      <path id="DejaVuSans-42" d="M 1259 2228 
L 1259 519 
L 2272 519 
Q 2781 519 3026 730 
Q 3272 941 3272 1375 
Q 3272 1813 3026 2020 
Q 2781 2228 2272 2228 
L 1259 2228 
z
M 1259 4147 
L 1259 2741 
L 2194 2741 
Q 2656 2741 2882 2914 
Q 3109 3088 3109 3444 
Q 3109 3797 2882 3972 
Q 2656 4147 2194 4147 
L 1259 4147 
z
M 628 4666 
L 2241 4666 
Q 2963 4666 3353 4366 
Q 3744 4066 3744 3513 
Q 3744 3084 3544 2831 
Q 3344 2578 2956 2516 
Q 3422 2416 3680 2098 
Q 3938 1781 3938 1306 
Q 3938 681 3513 340 
Q 3088 0 2303 0 
L 628 0 
L 628 4666 
z
" transform="scale(0.015625)"/>
      <path id="DejaVuSans-79" d="M 2059 -325 
Q 1816 -950 1584 -1140 
Q 1353 -1331 966 -1331 
L 506 -1331 
L 506 -850 
L 844 -850 
Q 1081 -850 1212 -737 
Q 1344 -625 1503 -206 
L 1606 56 
L 191 3500 
L 800 3500 
L 1894 763 
L 2988 3500 
L 3597 3500 
L 2059 -325 
z
" transform="scale(0.015625)"/>
     </defs>
     <use xlink:href="#DejaVuSans-42"/>
     <use xlink:href="#DejaVuSans-61" transform="translate(68.603516 0)"/>
     <use xlink:href="#DejaVuSans-72" transform="translate(129.882812 0)"/>
     <use xlink:href="#DejaVuSans-79" transform="translate(170.996094 0)"/>
     <use xlink:href="#DejaVuSans-63" transform="translate(230.175781 0)"/>
     <use xlink:href="#DejaVuSans-65" transform="translate(285.15625 0)"/>
     <use xlink:href="#DejaVuSans-6e" transform="translate(346.679688 0)"/>
     <use xlink:href="#DejaVuSans-74" transform="translate(410.058594 0)"/>
     <use xlink:href="#DejaVuSans-72" transform="translate(449.267578 0)"/>
     <use xlink:href="#DejaVuSans-69" transform="translate(490.380859 0)"/>
     <use xlink:href="#DejaVuSans-63" transform="translate(518.164062 0)"/>
     <use xlink:href="#DejaVuSans-20" transform="translate(573.144531 0)"/>
     <use xlink:href="#DejaVuSans-63" transform="translate(604.931641 0)"/>
     <use xlink:href="#DejaVuSans-6f" transform="translate(659.912109 0)"/>
     <use xlink:href="#DejaVuSans-6f" transform="translate(721.09375 0)"/>
     <use xlink:href="#DejaVuSans-72" transform="translate(782.275391 0)"/>
     <use xlink:href="#DejaVuSans-64" transform="translate(821.638672 0)"/>
     <use xlink:href="#DejaVuSans-69" transform="translate(885.115234 0)"/>
     <use xlink:href="#DejaVuSans-6e" transform="translate(912.898438 0)"/>
     <use xlink:href="#DejaVuSans-61" transform="translate(976.277344 0)"/>
     <use xlink:href="#DejaVuSans-74" transform="translate(1037.556641 0)"/>
     <use xlink:href="#DejaVuSans-65" transform="translate(1076.765625 0)"/>
     <use xlink:href="#DejaVuSans-73" transform="translate(1138.289062 0)"/>
     <use xlink:href="#DejaVuSans-20" transform="translate(1190.388672 0)"/>
     <use xlink:href="#DejaVuSans-61" transform="translate(1222.175781 0)"/>
     <use xlink:href="#DejaVuSans-73" transform="translate(1283.455078 0)"/>
     <use xlink:href="#DejaVuSans-20" transform="translate(1335.554688 0)"/>
     <use xlink:href="#DejaVuSans-73" transform="translate(1367.341797 0)"/>
     <use xlink:href="#DejaVuSans-69" transform="translate(1419.441406 0)"/>
     <use xlink:href="#DejaVuSans-67" transform="translate(1447.224609 0)"/>
     <use xlink:href="#DejaVuSans-6e" transform="translate(1510.701172 0)"/>
     <use xlink:href="#DejaVuSans-65" transform="translate(1574.080078 0)"/>
     <use xlink:href="#DejaVuSans-64" transform="translate(1635.603516 0)"/>
     <use xlink:href="#DejaVuSans-20" transform="translate(1699.080078 0)"/>
     <use xlink:href="#DejaVuSans-61" transform="translate(1730.867188 0)"/>
     <use xlink:href="#DejaVuSans-72" transform="translate(1792.146484 0)"/>
     <use xlink:href="#DejaVuSans-65" transform="translate(1831.009766 0)"/>
     <use xlink:href="#DejaVuSans-61" transform="translate(1892.533203 0)"/>
     <use xlink:href="#DejaVuSans-20" transform="translate(1953.8125 0)"/>
     <use xlink:href="#DejaVuSans-73" transform="translate(1985.599609 0)"/>
     <use xlink:href="#DejaVuSans-68" transform="translate(2037.699219 0)"/>
     <use xlink:href="#DejaVuSans-61" transform="translate(2101.078125 0)"/>
     <use xlink:href="#DejaVuSans-72" transform="translate(2162.357422 0)"/>
     <use xlink:href="#DejaVuSans-65" transform="translate(2201.220703 0)"/>
     <use xlink:href="#DejaVuSans-73" transform="translate(2262.744141 0)"/>
    </g>
   </g>
   <g id="legend_2">
    <g id="patch_11">
     <path d="M 829.102644 66.200899 
L 849.102644 66.200899 
L 849.102644 59.200899 
L 829.102644 59.200899 
z
" style="fill: #2563eb; fill-opacity: 0.2; stroke: #2563eb; stroke-width: 1.5; stroke-linejoin: miter"/>
    </g>
    <g id="text_13">
     <!-- t1=0.22 -->
     <g transform="translate(857.102644 66.200899) scale(0.1 -0.1)">
      <defs>
       <path id="DejaVuSans-3d" d="M 678 2906 
L 4684 2906 
L 4684 2381 
L 678 2381 
L 678 2906 
z
M 678 1631 
L 4684 1631 
L 4684 1100 
L 678 1100 
L 678 1631 
z
" transform="scale(0.015625)"/>
       <path id="DejaVuSans-30" d="M 2034 4250 
Q 1547 4250 1301 3770 
Q 1056 3291 1056 2328 
Q 1056 1369 1301 889 
Q 1547 409 2034 409 
Q 2525 409 2770 889 
Q 3016 1369 3016 2328 
Q 3016 3291 2770 3770 
Q 2525 4250 2034 4250 
z
M 2034 4750 
Q 2819 4750 3233 4129 
Q 3647 3509 3647 2328 
Q 3647 1150 3233 529 
Q 2819 -91 2034 -91 
Q 1250 -91 836 529 
Q 422 1150 422 2328 
Q 422 3509 836 4129 
Q 1250 4750 2034 4750 
z
" transform="scale(0.015625)"/>
       <path id="DejaVuSans-2e" d="M 684 794 
L 1344 794 
L 1344 0 
L 684 0 
L 684 794 
z
" transform="scale(0.015625)"/>
      </defs>
      <use xlink:href="#DejaVuSans-74"/>
      <use xlink:href="#DejaVuSans-31" transform="translate(39.208984 0)"/>
      <use xlink:href="#DejaVuSans-3d" transform="translate(102.832031 0)"/>
      <use xlink:href="#DejaVuSans-30" transform="translate(186.621094 0)"/>
      <use xlink:href="#DejaVuSans-2e" transform="translate(250.244141 0)"/>
      <use xlink:href="#DejaVuSans-32" transform="translate(282.03125 0)"/>
      <use xlink:href="#DejaVuSans-32" transform="translate(345.654297 0)"/>
     </g>
    </g>
    <g id="patch_12">
     <path d="M 829.102644 80.879024 
L 849.102644 80.879024 
L 849.102644 73.879024 
L 829.102644 73.879024 
z
" style="fill: #059669; fill-opacity: 0.2; stroke: #059669; stroke-width: 1.5; stroke-linejoin: miter"/>
    </g>
    <g id="text_14">
     <!-- t2=0.33 -->
     <g transform="translate(857.102644 80.879024) scale(0.1 -0.1)">
      <use xlink:href="#DejaVuSans-74"/>
      <use xlink:href="#DejaVuSans-32" transform="translate(39.208984 0)"/>
      <use xlink:href="#DejaVuSans-3d" transform="translate(102.832031 0)"/>
      <use xlink:href="#DejaVuSans-30" transform="translate(186.621094 0)"/>
      <use xlink:href="#DejaVuSans-2e" transform="translate(250.244141 0)"/>
      <use xlink:href="#DejaVuSans-33" transform="translate(282.03125 0)"/>
      <use xlink:href="#DejaVuSans-33" transform="translate(345.654297 0)"/>
     </g>
    </g>
    <g id="patch_13">
     <path d="M 829.102644 95.557149 
L 849.102644 95.557149 
L 849.102644 88.557149 
L 829.102644 88.557149 
z
" style="fill: #dc2626; fill-opacity: 0.2; stroke: #dc2626; stroke-width: 1.5; stroke-linejoin: miter"/>
    </g>
    <g id="text_15">
     <!-- t3=0.45 -->
     <g transform="translate(857.102644 95.557149) scale(0.1 -0.1)">
      <defs>
       <path id="DejaVuSans-34" d="M 2419 4116 
L 825 1625 
L 2419 1625 
L 2419 4116 
z
M 2253 4666 
L 3047 4666 
L 3047 1625 
L 3713 1625 
L 3713 1100 
L 3047 1100 
L 3047 0 
L 2419 0 
L 2419 1100 
L 313 1100 
L 313 1709 
L 2253 4666 
z
" transform="scale(0.015625)"/>
       <path id="DejaVuSans-35" d="M 691 4666 
L 3169 4666 
L 3169 4134 
L 1269 4134 
L 1269 2991 
Q 1406 3038 1543 3061 
Q 1681 3084 1819 3084 
Q 2600 3084 3056 2656 
Q 3513 2228 3513 1497 
Q 3513 744 3044 326 
Q 2575 -91 1722 -91 
Q 1428 -91 1123 -41 
Q 819 9 494 109 
L 494 744 
Q 775 591 1075 516 
Q 1375 441 1709 441 
Q 2250 441 2565 725 
Q 2881 1009 2881 1497 
Q 2881 1984 2565 2268 
Q 2250 2553 1709 2553 
Q 1456 2553 1204 2497 
Q 953 2441 691 2322 
L 691 4666 
z
" transform="scale(0.015625)"/>
      </defs>
      <use xlink:href="#DejaVuSans-74"/>
      <use xlink:href="#DejaVuSans-33" transform="translate(39.208984 0)"/>
      <use xlink:href="#DejaVuSans-3d" transform="translate(102.832031 0)"/>
      <use xlink:href="#DejaVuSans-30" transform="translate(186.621094 0)"/>
      <use xlink:href="#DejaVuSans-2e" transform="translate(250.244141 0)"/>
      <use xlink:href="#DejaVuSans-34" transform="translate(282.03125 0)"/>
      <use xlink:href="#DejaVuSans-35" transform="translate(345.654297 0)"/>
     </g>
    </g>
   </g>
  </g>
  <g id="text_16">
   <!-- Vectors, centroids, and barycentric coordinates are one affine averaging language -->
   <g transform="translate(189.09125 17.077969) scale(0.13 -0.13)">
    <defs>
     <path id="DejaVuSans-2c" d="M 750 794 
L 1409 794 
L 1409 256 
L 897 -744 
L 494 -744 
L 750 256 
L 750 794 
z
" transform="scale(0.015625)"/>
     <path id="DejaVuSans-62" d="M 3116 1747 
Q 3116 2381 2855 2742 
Q 2594 3103 2138 3103 
Q 1681 3103 1420 2742 
Q 1159 2381 1159 1747 
Q 1159 1113 1420 752 
Q 1681 391 2138 391 
Q 2594 391 2855 752 
Q 3116 1113 3116 1747 
z
M 1159 2969 
Q 1341 3281 1617 3432 
Q 1894 3584 2278 3584 
Q 2916 3584 3314 3078 
Q 3713 2572 3713 1747 
Q 3713 922 3314 415 
Q 2916 -91 2278 -91 
Q 1894 -91 1617 61 
Q 1341 213 1159 525 
L 1159 0 
L 581 0 
L 581 4863 
L 1159 4863 
L 1159 2969 
z
" transform="scale(0.015625)"/>
     <path id="DejaVuSans-66" d="M 2375 4863 
L 2375 4384 
L 1825 4384 
Q 1516 4384 1395 4259 
Q 1275 4134 1275 3809 
L 1275 3500 
L 2222 3500 
L 2222 3053 
L 1275 3053 
L 1275 0 
L 697 0 
L 697 3053 
L 147 3053 
L 147 3500 
L 697 3500 
L 697 3744 
Q 697 4328 969 4595 
Q 1241 4863 1831 4863 
L 2375 4863 
z
" transform="scale(0.015625)"/>
     <path id="DejaVuSans-76" d="M 191 3500 
L 800 3500 
L 1894 563 
L 2988 3500 
L 3597 3500 
L 2284 0 
L 1503 0 
L 191 3500 
z
" transform="scale(0.015625)"/>
     <path id="DejaVuSans-6c" d="M 603 4863 
L 1178 4863 
L 1178 0 
L 603 0 
L 603 4863 
z
" transform="scale(0.015625)"/>
     <path id="DejaVuSans-75" d="M 544 1381 
L 544 3500 
L 1119 3500 
L 1119 1403 
Q 1119 906 1312 657 
Q 1506 409 1894 409 
Q 2359 409 2629 706 
Q 2900 1003 2900 1516 
L 2900 3500 
L 3475 3500 
L 3475 0 
L 2900 0 
L 2900 538 
Q 2691 219 2414 64 
Q 2138 -91 1772 -91 
Q 1169 -91 856 284 
Q 544 659 544 1381 
z
M 1991 3584 
L 1991 3584 
z
" transform="scale(0.015625)"/>
    </defs>
    <use xlink:href="#DejaVuSans-56"/>
    <use xlink:href="#DejaVuSans-65" transform="translate(60.658203 0)"/>
    <use xlink:href="#DejaVuSans-63" transform="translate(122.181641 0)"/>
    <use xlink:href="#DejaVuSans-74" transform="translate(177.162109 0)"/>
    <use xlink:href="#DejaVuSans-6f" transform="translate(216.371094 0)"/>
    <use xlink:href="#DejaVuSans-72" transform="translate(277.552734 0)"/>
    <use xlink:href="#DejaVuSans-73" transform="translate(318.666016 0)"/>
    <use xlink:href="#DejaVuSans-2c" transform="translate(370.765625 0)"/>
    <use xlink:href="#DejaVuSans-20" transform="translate(402.552734 0)"/>
    <use xlink:href="#DejaVuSans-63" transform="translate(434.339844 0)"/>
    <use xlink:href="#DejaVuSans-65" transform="translate(489.320312 0)"/>
    <use xlink:href="#DejaVuSans-6e" transform="translate(550.84375 0)"/>
    <use xlink:href="#DejaVuSans-74" transform="translate(614.222656 0)"/>
    <use xlink:href="#DejaVuSans-72" transform="translate(653.431641 0)"/>
    <use xlink:href="#DejaVuSans-6f" transform="translate(692.294922 0)"/>
    <use xlink:href="#DejaVuSans-69" transform="translate(753.476562 0)"/>
    <use xlink:href="#DejaVuSans-64" transform="translate(781.259766 0)"/>
    <use xlink:href="#DejaVuSans-73" transform="translate(844.736328 0)"/>
    <use xlink:href="#DejaVuSans-2c" transform="translate(896.835938 0)"/>
    <use xlink:href="#DejaVuSans-20" transform="translate(928.623047 0)"/>
    <use xlink:href="#DejaVuSans-61" transform="translate(960.410156 0)"/>
    <use xlink:href="#DejaVuSans-6e" transform="translate(1021.689453 0)"/>
    <use xlink:href="#DejaVuSans-64" transform="translate(1085.068359 0)"/>
    <use xlink:href="#DejaVuSans-20" transform="translate(1148.544922 0)"/>
    <use xlink:href="#DejaVuSans-62" transform="translate(1180.332031 0)"/>
    <use xlink:href="#DejaVuSans-61" transform="translate(1243.808594 0)"/>
    <use xlink:href="#DejaVuSans-72" transform="translate(1305.087891 0)"/>
    <use xlink:href="#DejaVuSans-79" transform="translate(1346.201172 0)"/>
    <use xlink:href="#DejaVuSans-63" transform="translate(1405.380859 0)"/>
    <use xlink:href="#DejaVuSans-65" transform="translate(1460.361328 0)"/>
    <use xlink:href="#DejaVuSans-6e" transform="translate(1521.884766 0)"/>
    <use xlink:href="#DejaVuSans-74" transform="translate(1585.263672 0)"/>
    <use xlink:href="#DejaVuSans-72" transform="translate(1624.472656 0)"/>
    <use xlink:href="#DejaVuSans-69" transform="translate(1665.585938 0)"/>
    <use xlink:href="#DejaVuSans-63" transform="translate(1693.369141 0)"/>
    <use xlink:href="#DejaVuSans-20" transform="translate(1748.349609 0)"/>
    <use xlink:href="#DejaVuSans-63" transform="translate(1780.136719 0)"/>
    <use xlink:href="#DejaVuSans-6f" transform="translate(1835.117188 0)"/>
    <use xlink:href="#DejaVuSans-6f" transform="translate(1896.298828 0)"/>
    <use xlink:href="#DejaVuSans-72" transform="translate(1957.480469 0)"/>
    <use xlink:href="#DejaVuSans-64" transform="translate(1996.84375 0)"/>
    <use xlink:href="#DejaVuSans-69" transform="translate(2060.320312 0)"/>
    <use xlink:href="#DejaVuSans-6e" transform="translate(2088.103516 0)"/>
    <use xlink:href="#DejaVuSans-61" transform="translate(2151.482422 0)"/>
    <use xlink:href="#DejaVuSans-74" transform="translate(2212.761719 0)"/>
    <use xlink:href="#DejaVuSans-65" transform="translate(2251.970703 0)"/>
    <use xlink:href="#DejaVuSans-73" transform="translate(2313.494141 0)"/>
    <use xlink:href="#DejaVuSans-20" transform="translate(2365.59375 0)"/>
    <use xlink:href="#DejaVuSans-61" transform="translate(2397.380859 0)"/>
    <use xlink:href="#DejaVuSans-72" transform="translate(2458.660156 0)"/>
    <use xlink:href="#DejaVuSans-65" transform="translate(2497.523438 0)"/>
    <use xlink:href="#DejaVuSans-20" transform="translate(2559.046875 0)"/>
    <use xlink:href="#DejaVuSans-6f" transform="translate(2590.833984 0)"/>
    <use xlink:href="#DejaVuSans-6e" transform="translate(2652.015625 0)"/>
    <use xlink:href="#DejaVuSans-65" transform="translate(2715.394531 0)"/>
    <use xlink:href="#DejaVuSans-20" transform="translate(2776.917969 0)"/>
    <use xlink:href="#DejaVuSans-61" transform="translate(2808.705078 0)"/>
    <use xlink:href="#DejaVuSans-66" transform="translate(2869.984375 0)"/>
    <use xlink:href="#DejaVuSans-66" transform="translate(2905.189453 0)"/>
    <use xlink:href="#DejaVuSans-69" transform="translate(2940.394531 0)"/>
    <use xlink:href="#DejaVuSans-6e" transform="translate(2968.177734 0)"/>
    <use xlink:href="#DejaVuSans-65" transform="translate(3031.556641 0)"/>
    <use xlink:href="#DejaVuSans-20" transform="translate(3093.080078 0)"/>
    <use xlink:href="#DejaVuSans-61" transform="translate(3124.867188 0)"/>
    <use xlink:href="#DejaVuSans-76" transform="translate(3186.146484 0)"/>
    <use xlink:href="#DejaVuSans-65" transform="translate(3245.326172 0)"/>
    <use xlink:href="#DejaVuSans-72" transform="translate(3306.849609 0)"/>
    <use xlink:href="#DejaVuSans-61" transform="translate(3347.962891 0)"/>
    <use xlink:href="#DejaVuSans-67" transform="translate(3409.242188 0)"/>
    <use xlink:href="#DejaVuSans-69" transform="translate(3472.71875 0)"/>
    <use xlink:href="#DejaVuSans-6e" transform="translate(3500.501953 0)"/>
    <use xlink:href="#DejaVuSans-67" transform="translate(3563.880859 0)"/>
    <use xlink:href="#DejaVuSans-20" transform="translate(3627.357422 0)"/>
    <use xlink:href="#DejaVuSans-6c" transform="translate(3659.144531 0)"/>
    <use xlink:href="#DejaVuSans-61" transform="translate(3686.927734 0)"/>
    <use xlink:href="#DejaVuSans-6e" transform="translate(3748.207031 0)"/>
    <use xlink:href="#DejaVuSans-67" transform="translate(3811.585938 0)"/>
    <use xlink:href="#DejaVuSans-75" transform="translate(3875.0625 0)"/>
    <use xlink:href="#DejaVuSans-61" transform="translate(3938.441406 0)"/>
    <use xlink:href="#DejaVuSans-67" transform="translate(3999.720703 0)"/>
    <use xlink:href="#DejaVuSans-65" transform="translate(4063.197266 0)"/>
   </g>
  </g>
 </g>
 <defs>
  <clipPath id="p3d4cd819d0">
   <rect x="7.2" y="57.144659" width="444.6" height="342.977143"/>
  </clipPath>
  <clipPath id="pb43d341032">
   <rect x="462.769231" y="49.602462" width="444.261538" height="358.061538"/>
  </clipPath>
 </defs>
</svg>
