<svg xmlns="http://www.w3.org/2000/svg" width="760" height="520" viewBox="0 0 760 520"><rect width="760" height="520" fill="#fffdf7"/><text x="28" y="38" font-size="24" font-family="DejaVu Sans, Arial" font-weight="700" fill="#1f2933">Chapter 15 experiment</text><text x="28" y="64" font-size="14" font-family="DejaVu Sans, Arial" fill="#1f2933">Perturb the model and inspect what remains invariant</text><g font-family="DejaVu Sans, Arial"><polyline points="167.6,249.4 170.7,250.2 173.7,251.3 176.8,252.5 179.8,254.0 182.9,255.7 185.9,257.5 189.0,259.5 192.0,261.7 195.1,264.1 198.2,266.7 201.2,269.3 204.3,272.1 207.3,275.1 210.4,278.1 213.4,281.3 216.5,284.5 219.6,287.8 222.6,291.1 225.7,294.5 228.7,297.9 231.8,301.4 234.8,304.8 237.9,308.2 240.9,311.6 244.0,315.0 247.1,318.3 250.1,321.5 253.2,324.6 256.2,327.7 259.3,330.6 262.3,333.4 265.4,336.1 268.5,338.6 271.5,340.9 274.6,343.2 277.6,345.2 280.7,347.0 283.7,348.7 286.8,350.1 289.8,351.4 292.9,352.4 296.0,353.2 299.0,353.8 302.1,354.2 305.1,354.4 308.2,354.3 311.2,354.1 314.3,353.6 317.3,352.8 320.4,351.9 323.5,350.7 326.5,349.4 329.6,347.8 332.6,346.1 335.7,344.1 338.7,342.0 341.8,339.7 344.9,337.3 347.9,334.7 351.0,331.9 354.0,329.1 357.1,326.1 360.1,323.0 363.2,319.8 366.2,316.6 369.3,313.2 372.4,309.9 375.4,306.4 378.5,303.0 381.5,299.6 384.6,296.2 387.6,292.7 390.7,289.4 393.8,286.0 396.8,282.8 399.9,279.6 402.9,276.5 406.0,273.5 409.0,270.7 412.1,267.9 415.1,265.3 418.2,262.9 421.3,260.6 424.3,258.5 427.4,256.5 430.4,254.8 433.5,253.2 436.5,251.9 439.6,250.7 442.7,249.8 445.7,249.0 448.8,248.5 451.8,248.3 454.9,248.2 457.9,248.4 461.0,248.8 464.0,249.4 467.1,250.2 470.2,251.2 473.2,252.5 476.3,253.9 479.3,255.6 482.4,257.4 485.4,259.4 488.5,261.7 491.5,264.0 494.6,266.5 497.7,269.2 500.7,272.0 503.8,274.9 506.8,278.0 509.9,281.1 512.9,284.3 516.0,287.6 519.1,291.0 522.1,294.4 525.2,297.8 528.2,301.2 531.3,304.7 534.3,308.1 537.4,311.5 540.4,314.8 543.5,318.1 546.6,321.3 549.6,324.5 552.7,327.5 555.7,330.5 558.8,333.3 561.8,335.9 564.9,338.5 568.0,340.9 571.0,343.1 574.1,345.1 577.1,346.9 580.2,348.6 583.2,350.1 586.3,351.3 589.3,352.4 592.4,353.2" fill="none" stroke="#2364aa" stroke-width="2" stroke-linejoin="round"/>
<polyline points="167.6,225.5 170.7,228.1 173.7,230.9 176.8,233.9 179.8,236.9 182.9,240.1 185.9,243.3 189.0,246.6 192.0,249.9 195.1,253.3 198.2,256.8 201.2,260.2 204.3,263.6 207.3,267.1 210.4,270.4 213.4,273.8 216.5,277.1 219.6,280.3 222.6,283.4 225.7,286.5 228.7,289.4 231.8,292.2 234.8,294.9 237.9,297.4 240.9,299.7 244.0,301.9 247.1,304.0 250.1,305.8 253.2,307.4 256.2,308.9 259.3,310.1 262.3,311.1 265.4,312.0 268.5,312.6 271.5,312.9 274.6,313.1 277.6,313.0 280.7,312.7 283.7,312.2 286.8,311.5 289.8,310.6 292.9,309.4 296.0,308.0 299.0,306.5 302.1,304.7 305.1,302.8 308.2,300.6 311.2,298.3 314.3,295.9 317.3,293.3 320.4,290.5 323.5,287.7 326.5,284.7 329.6,281.6 332.6,278.4 335.7,275.1 338.7,271.8 341.8,268.4 344.9,265.0 347.9,261.6 351.0,258.1 354.0,254.7 357.1,251.3 360.1,247.9 363.2,244.6 366.2,241.4 369.3,238.2 372.4,235.1 375.4,232.1 378.5,229.2 381.5,226.5 384.6,223.9 387.6,221.5 390.7,219.2 393.8,217.1 396.8,215.1 399.9,213.4 402.9,211.8 406.0,210.5 409.0,209.4 412.1,208.4 415.1,207.7 418.2,207.2 421.3,207.0 424.3,206.9 427.4,207.1 430.4,207.5 433.5,208.1 436.5,208.9 439.6,210.0 442.7,211.2 445.7,212.7 448.8,214.3 451.8,216.2 454.9,218.2 457.9,220.4 461.0,222.8 464.0,225.3 467.1,228.0 470.2,230.8 473.2,233.8 476.3,236.8 479.3,239.9 482.4,243.2 485.4,246.5 488.5,249.8 491.5,253.2 494.6,256.6 497.7,260.1 500.7,263.5 503.8,266.9 506.8,270.3 509.9,273.7 512.9,277.0 516.0,280.2 519.1,283.3 522.1,286.3 525.2,289.3 528.2,292.1 531.3,294.8 534.3,297.3 537.4,299.6 540.4,301.8 543.5,303.9 546.6,305.7 549.6,307.4 552.7,308.8 555.7,310.1 558.8,311.1 561.8,311.9 564.9,312.5 568.0,312.9 571.0,313.1 574.1,313.0 577.1,312.8 580.2,312.3 583.2,311.5 586.3,310.6 589.3,309.5 592.4,308.1" fill="none" stroke="#f97316" stroke-width="2" stroke-linejoin="round"/>
<polyline points="167.6,215.6 170.7,219.0 173.7,222.5 176.8,225.9 179.8,229.3 182.9,232.6 185.9,235.9 189.0,239.1 192.0,242.3 195.1,245.3 198.2,248.2 201.2,251.0 204.3,253.7 207.3,256.2 210.4,258.5 213.4,260.7 216.5,262.7 219.6,264.6 222.6,266.2 225.7,267.6 228.7,268.9 231.8,269.9 234.8,270.7 237.9,271.3 240.9,271.6 244.0,271.8 247.1,271.7 250.1,271.4 253.2,270.9 256.2,270.2 259.3,269.2 262.3,268.1 265.4,266.7 268.5,265.1 271.5,263.3 274.6,261.4 277.6,259.3 280.7,257.0 283.7,254.5 286.8,251.9 289.8,249.1 292.9,246.2 296.0,243.2 299.0,240.1 302.1,237.0 305.1,233.7 308.2,230.4 311.2,227.0 314.3,223.6 317.3,220.2 320.4,216.7 323.5,213.3 326.5,209.9 329.6,206.5 332.6,203.2 335.7,199.9 338.7,196.8 341.8,193.7 344.9,190.7 347.9,187.8 351.0,185.1 354.0,182.5 357.1,180.1 360.1,177.8 363.2,175.7 366.2,173.8 369.3,172.0 372.4,170.5 375.4,169.2 378.5,168.0 381.5,167.1 384.6,166.4 387.6,165.9 390.7,165.7 393.8,165.6 396.8,165.8 399.9,166.2 402.9,166.8 406.0,167.7 409.0,168.7 412.1,170.0 415.1,171.4 418.2,173.1 421.3,175.0 424.3,177.0 427.4,179.2 430.4,181.6 433.5,184.1 436.5,186.8 439.6,189.6 442.7,192.6 445.7,195.6 448.8,198.8 451.8,202.0 454.9,205.3 457.9,208.6 461.0,212.0 464.0,215.5 467.1,218.9 470.2,222.3 473.2,225.8 476.3,229.1 479.3,232.5 482.4,235.8 485.4,239.0 488.5,242.1 491.5,245.2 494.6,248.1 497.7,250.9 500.7,253.6 503.8,256.1 506.8,258.4 509.9,260.6 512.9,262.6 516.0,264.5 519.1,266.1 522.1,267.6 525.2,268.8 528.2,269.8 531.3,270.7 534.3,271.3 537.4,271.6 540.4,271.8 543.5,271.7 546.6,271.4 549.6,270.9 552.7,270.2 555.7,269.3 558.8,268.1 561.8,266.7 564.9,265.2 568.0,263.4 571.0,261.5 574.1,259.3 577.1,257.0 580.2,254.6 583.2,252.0 586.3,249.2 589.3,246.4 592.4,243.4" fill="none" stroke="#2f9e44" stroke-width="2" stroke-linejoin="round"/>
<line x1="167.6" y1="260.0" x2="592.4" y2="260.0" stroke="#d8dee9" stroke-width="1" stroke-dasharray="4 4"/></g></svg>