<?xml version="1.0" encoding="utf-8" standalone="no"?>
<!DOCTYPE svg PUBLIC "-//W3C//DTD SVG 1.1//EN"
  "http://www.w3.org/Graphics/SVG/1.1/DTD/svg11.dtd">
<svg xmlns:xlink="http://www.w3.org/1999/xlink" width="481.430625pt" height="295.630125pt" viewBox="0 0 481.430625 295.630125" xmlns="http://www.w3.org/2000/svg" version="1.1">
 <metadata>
  <rdf:RDF xmlns:dc="http://purl.org/dc/elements/1.1/" xmlns:cc="http://creativecommons.org/ns#" xmlns:rdf="http://www.w3.org/1999/02/22-rdf-syntax-ns#">
   <cc:Work>
    <dc:type rdf:resource="http://purl.org/dc/dcmitype/StillImage"/>
    <dc:date>2026-05-12T07:26:53.179028</dc:date>
    <dc:format>image/svg+xml</dc:format>
    <dc:creator>
     <cc:Agent>
      <dc:title>Matplotlib v3.10.9, https://matplotlib.org/</dc:title>
     </cc:Agent>
    </dc:creator>
   </cc:Work>
  </rdf:RDF>
 </metadata>
 <defs>
  <style type="text/css">*{stroke-linejoin: round; stroke-linecap: butt}</style>
 </defs>
 <g id="figure_1">
  <g id="patch_1">
   <path d="M 0 295.630125
L 481.430625 295.630125
L 481.430625 0
L 0 0
z
" style="fill: #ffffff"/>
  </g>
  <g id="patch_2">
   <path d="M 107.659313 288.430125
L 373.771312 288.430125
L 373.771312 22.318125
L 107.659313 22.318125
z
" style="fill: #ffffff"/>
  </g>
  <g id="pane3d_1">
   <g id="patch_3">
    <path d="M 125.375056 177.528615
L 181.305 152.025861
L 179.917679 73.638641
L 122.638715 96.210717
" style="fill: #f2f2f2; opacity: 0.5; stroke: #f2f2f2; stroke-linejoin: miter"/>
   </g>
  </g>
  <g id="pane3d_2">
   <g id="patch_4">
    <path d="M 181.305 152.025861
L 369.396261 208.903622
L 372.426432 124.040175
L 179.917679 73.638641
" style="fill: #e6e6e6; opacity: 0.5; stroke: #e6e6e6; stroke-linejoin: miter"/>
   </g>
  </g>
  <g id="pane3d_3">
   <g id="patch_5">
    <path d="M 125.375056 177.528615
L 316.826695 239.772566
L 369.396261 208.903622
L 181.305 152.025861
" style="fill: #ececec; opacity: 0.5; stroke: #ececec; stroke-linejoin: miter"/>
   </g>
  </g>
  <g id="grid3d_1">
   <g id="Line3DCollection_1">
    <path d="M 138.967583 181.94776
L 194.712396 156.080184
L 193.612504 77.224141
" style="fill: none; stroke: #b0b0b0; stroke-width: 0.8"/>
    <path d="M 164.098726 190.118291
L 219.479662 163.569669
L 218.921799 83.850475
" style="fill: none; stroke: #b0b0b0; stroke-width: 0.8"/>
    <path d="M 189.910722 198.510179
L 244.888797 171.253251
L 244.90194 90.652446
" style="fill: none; stroke: #b0b0b0; stroke-width: 0.8"/>
    <path d="M 216.431622 207.132543
L 270.96508 179.138575
L 271.579959 97.637131
" style="fill: none; stroke: #b0b0b0; stroke-width: 0.8"/>
    <path d="M 243.691036 215.995008
L 297.735136 187.233692
L 298.984356 104.811993
" style="fill: none; stroke: #b0b0b0; stroke-width: 0.8"/>
    <path d="M 271.720246 225.107747
L 325.227025 195.547088
L 327.145209 112.184905
" style="fill: none; stroke: #b0b0b0; stroke-width: 0.8"/>
    <path d="M 300.552327 234.481512
L 353.470341 204.087711
L 356.094277 119.764184
" style="fill: none; stroke: #b0b0b0; stroke-width: 0.8"/>
   </g>
  </g>
  <g id="grid3d_2">
   <g id="Line3DCollection_2">
    <path d="M 126.436456 94.714131
L 129.080009 175.839242
L 320.323056 237.719496
" style="fill: none; stroke: #b0b0b0; stroke-width: 0.8"/>
    <path d="M 139.29468 89.647056
L 141.6276 170.117833
L 332.149399 230.775047
" style="fill: none; stroke: #b0b0b0; stroke-width: 0.8"/>
    <path d="M 151.906656 84.67702
L 153.940181 164.503582
L 343.732059 223.973688
" style="fill: none; stroke: #b0b0b0; stroke-width: 0.8"/>
    <path d="M 164.279392 79.801263
L 166.024293 158.993508
L 355.078493 217.311041
" style="fill: none; stroke: #b0b0b0; stroke-width: 0.8"/>
    <path d="M 176.41963 75.017126
L 177.886237 153.584738
L 366.195853 210.782907
" style="fill: none; stroke: #b0b0b0; stroke-width: 0.8"/>
   </g>
  </g>
  <g id="grid3d_3">
   <g id="Line3DCollection_3">
    <path d="M 369.584813 203.623003
L 181.2185 147.138352
L 125.204597 172.462967
" style="fill: none; stroke: #b0b0b0; stroke-width: 0.8"/>
    <path d="M 370.235616 185.396533
L 180.920114 130.278813
L 124.61644 154.984254
" style="fill: none; stroke: #b0b0b0; stroke-width: 0.8"/>
    <path d="M 370.893215 166.9797
L 180.618893 113.259049
L 124.022445 137.332062
" style="fill: none; stroke: #b0b0b0; stroke-width: 0.8"/>
    <path d="M 371.557718 148.369505
L 180.314796 96.076764
L 123.422525 119.503796
" style="fill: none; stroke: #b0b0b0; stroke-width: 0.8"/>
    <path d="M 372.229236 129.562886
L 180.00778 78.72962
L 122.816591 101.496808
" style="fill: none; stroke: #b0b0b0; stroke-width: 0.8"/>
   </g>
  </g>
  <g id="axis3d_1">
   <g id="line2d_1">
    <path d="M 125.375056 177.528615
L 316.826695 239.772566
" style="fill: none; stroke: #000000; stroke-width: 0.8; stroke-linecap: square"/>
   </g>
   <g id="xtick_1">
    <g id="line2d_2">
     <path d="M 139.433081 181.731753
L 138.0356 182.380233
" style="fill: none; stroke: #000000; stroke-width: 0.8; stroke-linecap: square"/>
    </g>
    <g id="text_1">
     <!-- −3 -->
     <g transform="translate(126.956556 198.438344) scale(0.1 -0.1)">
      <defs>
       <path id="DejaVuSans-2212" d="M 678 2272
L 4684 2272
L 4684 1741
L 678 1741
L 678 2272
z
" transform="scale(0.015625)"/>
       <path id="DejaVuSans-33" d="M 2597 2516
Q 3050 2419 3304 2112
Q 3559 1806 3559 1356
Q 3559 666 3084 287
Q 2609 -91 1734 -91
Q 1441 -91 1130 -33
Q 819 25 488 141
L 488 750
Q 750 597 1062 519
Q 1375 441 1716 441
Q 2309 441 2620 675
Q 2931 909 2931 1356
Q 2931 1769 2642 2001
Q 2353 2234 1838 2234
L 1294 2234
L 1294 2753
L 1863 2753
Q 2328 2753 2575 2939
Q 2822 3125 2822 3475
Q 2822 3834 2567 4026
Q 2313 4219 1838 4219
Q 1578 4219 1281 4162
Q 984 4106 628 3988
L 628 4550
Q 988 4650 1302 4700
Q 1616 4750 1894 4750
Q 2613 4750 3031 4423
Q 3450 4097 3450 3541
Q 3450 3153 3228 2886
Q 3006 2619 2597 2516
z
" transform="scale(0.015625)"/>
      </defs>
      <use xlink:href="#DejaVuSans-2212"/>
      <use xlink:href="#DejaVuSans-33" transform="translate(83.789062 0)"/>
     </g>
    </g>
   </g>
   <g id="xtick_2">
    <g id="line2d_3">
     <path d="M 164.561444 189.896473
L 163.172294 190.562406
" style="fill: none; stroke: #000000; stroke-width: 0.8; stroke-linecap: square"/>
    </g>
    <g id="text_2">
     <!-- −2 -->
     <g transform="translate(152.071148 206.742752) scale(0.1 -0.1)">
      <defs>
       <path id="DejaVuSans-32" d="M 1228 531
L 3431 531
L 3431 0
L 469 0
L 469 531
Q 828 903 1448 1529
Q 2069 2156 2228 2338
Q 2531 2678 2651 2914
Q 2772 3150 2772 3378
Q 2772 3750 2511 3984
Q 2250 4219 1831 4219
Q 1534 4219 1204 4116
Q 875 4013 500 3803
L 500 4441
Q 881 4594 1212 4672
Q 1544 4750 1819 4750
Q 2544 4750 2975 4387
Q 3406 4025 3406 3419
Q 3406 3131 3298 2873
Q 3191 2616 2906 2266
Q 2828 2175 2409 1742
Q 1991 1309 1228 531
z
" transform="scale(0.015625)"/>
      </defs>
      <use xlink:href="#DejaVuSans-2212"/>
      <use xlink:href="#DejaVuSans-32" transform="translate(83.789062 0)"/>
     </g>
    </g>
   </g>
   <g id="xtick_3">
    <g id="line2d_4">
     <path d="M 190.370339 198.282311
L 188.990487 198.966412
" style="fill: none; stroke: #000000; stroke-width: 0.8; stroke-linecap: square"/>
    </g>
    <g id="text_3">
     <!-- −1 -->
     <g transform="translate(177.867398 215.272556) scale(0.1 -0.1)">
      <defs>
       <path id="DejaVuSans-31" d="M 794 531
L 1825 531
L 1825 4091
L 703 3866
L 703 4441
L 1819 4666
L 2450 4666
L 2450 531
L 3481 531
L 3481 0
L 794 0
L 794 531
z
" transform="scale(0.015625)"/>
      </defs>
      <use xlink:href="#DejaVuSans-2212"/>
      <use xlink:href="#DejaVuSans-31" transform="translate(83.789062 0)"/>
     </g>
    </g>
   </g>
   <g id="xtick_4">
    <g id="line2d_5">
     <path d="M 216.887791 206.898375
L 215.518276 207.601396
" style="fill: none; stroke: #000000; stroke-width: 0.8; stroke-linecap: square"/>
    </g>
    <g id="text_4">
     <!-- 0 -->
     <g transform="translate(208.563282 224.037061) scale(0.1 -0.1)">
      <defs>
       <path id="DejaVuSans-30" d="M 2034 4250
Q 1547 4250 1301 3770
Q 1056 3291 1056 2328
Q 1056 1369 1301 889
Q 1547 409 2034 409
Q 2525 409 2770 889
Q 3016 1369 3016 2328
Q 3016 3291 2770 3770
Q 2525 4250 2034 4250
z
M 2034 4750
Q 2819 4750 3233 4129
Q 3647 3509 3647 2328
Q 3647 1150 3233 529
Q 2819 -91 2034 -91
Q 1250 -91 836 529
Q 422 1150 422 2328
Q 422 3509 836 4129
Q 1250 4750 2034 4750
z
" transform="scale(0.015625)"/>
      </defs>
      <use xlink:href="#DejaVuSans-30"/>
     </g>
    </g>
   </g>
   <g id="xtick_5">
    <g id="line2d_6">
     <path d="M 244.143386 215.754275
L 242.785321 216.477013
" style="fill: none; stroke: #000000; stroke-width: 0.8; stroke-linecap: square"/>
    </g>
    <g id="text_5">
     <!-- 1 -->
     <g transform="translate(235.808816 233.046087) scale(0.1 -0.1)">
      <use xlink:href="#DejaVuSans-31"/>
     </g>
    </g>
   </g>
   <g id="xtick_6">
    <g id="line2d_7">
     <path d="M 272.168378 224.860169
L 270.822963 225.603465
" style="fill: none; stroke: #000000; stroke-width: 0.8; stroke-linecap: square"/>
    </g>
    <g id="text_6">
     <!-- 2 -->
     <g transform="translate(263.82523 242.310012) scale(0.1 -0.1)">
      <use xlink:href="#DejaVuSans-32"/>
     </g>
    </g>
   </g>
   <g id="xtick_7">
    <g id="line2d_8">
     <path d="M 300.995813 234.226794
L 299.664334 234.991537
" style="fill: none; stroke: #000000; stroke-width: 0.8; stroke-linecap: square"/>
    </g>
    <g id="text_7">
     <!-- 3 -->
     <g transform="translate(292.645709 251.839811) scale(0.1 -0.1)">
      <use xlink:href="#DejaVuSans-33"/>
     </g>
    </g>
   </g>
   <g id="text_8">
    <!-- display x -->
    <g transform="translate(184.156489 223.135868) rotate(-341.989838) scale(0.1 -0.1)">
     <defs>
      <path id="DejaVuSans-64" d="M 2906 2969
L 2906 4863
L 3481 4863
L 3481 0
L 2906 0
L 2906 525
Q 2725 213 2448 61
Q 2172 -91 1784 -91
Q 1150 -91 751 415
Q 353 922 353 1747
Q 353 2572 751 3078
Q 1150 3584 1784 3584
Q 2172 3584 2448 3432
Q 2725 3281 2906 2969
z
M 947 1747
Q 947 1113 1208 752
Q 1469 391 1925 391
Q 2381 391 2643 752
Q 2906 1113 2906 1747
Q 2906 2381 2643 2742
Q 2381 3103 1925 3103
Q 1469 3103 1208 2742
Q 947 2381 947 1747
z
" transform="scale(0.015625)"/>
      <path id="DejaVuSans-69" d="M 603 3500
L 1178 3500
L 1178 0
L 603 0
L 603 3500
z
M 603 4863
L 1178 4863
L 1178 4134
L 603 4134
L 603 4863
z
" transform="scale(0.015625)"/>
      <path id="DejaVuSans-73" d="M 2834 3397
L 2834 2853
Q 2591 2978 2328 3040
Q 2066 3103 1784 3103
Q 1356 3103 1142 2972
Q 928 2841 928 2578
Q 928 2378 1081 2264
Q 1234 2150 1697 2047
L 1894 2003
Q 2506 1872 2764 1633
Q 3022 1394 3022 966
Q 3022 478 2636 193
Q 2250 -91 1575 -91
Q 1294 -91 989 -36
Q 684 19 347 128
L 347 722
Q 666 556 975 473
Q 1284 391 1588 391
Q 1994 391 2212 530
Q 2431 669 2431 922
Q 2431 1156 2273 1281
Q 2116 1406 1581 1522
L 1381 1569
Q 847 1681 609 1914
Q 372 2147 372 2553
Q 372 3047 722 3315
Q 1072 3584 1716 3584
Q 2034 3584 2315 3537
Q 2597 3491 2834 3397
z
" transform="scale(0.015625)"/>
      <path id="DejaVuSans-70" d="M 1159 525
L 1159 -1331
L 581 -1331
L 581 3500
L 1159 3500
L 1159 2969
Q 1341 3281 1617 3432
Q 1894 3584 2278 3584
Q 2916 3584 3314 3078
Q 3713 2572 3713 1747
Q 3713 922 3314 415
Q 2916 -91 2278 -91
Q 1894 -91 1617 61
Q 1341 213 1159 525
z
M 3116 1747
Q 3116 2381 2855 2742
Q 2594 3103 2138 3103
Q 1681 3103 1420 2742
Q 1159 2381 1159 1747
Q 1159 1113 1420 752
Q 1681 391 2138 391
Q 2594 391 2855 752
Q 3116 1113 3116 1747
z
" transform="scale(0.015625)"/>
      <path id="DejaVuSans-6c" d="M 603 4863
L 1178 4863
L 1178 0
L 603 0
L 603 4863
z
" transform="scale(0.015625)"/>
      <path id="DejaVuSans-61" d="M 2194 1759
Q 1497 1759 1228 1600
Q 959 1441 959 1056
Q 959 750 1161 570
Q 1363 391 1709 391
Q 2188 391 2477 730
Q 2766 1069 2766 1631
L 2766 1759
L 2194 1759
z
M 3341 1997
L 3341 0
L 2766 0
L 2766 531
Q 2569 213 2275 61
Q 1981 -91 1556 -91
Q 1019 -91 701 211
Q 384 513 384 1019
Q 384 1609 779 1909
Q 1175 2209 1959 2209
L 2766 2209
L 2766 2266
Q 2766 2663 2505 2880
Q 2244 3097 1772 3097
Q 1472 3097 1187 3025
Q 903 2953 641 2809
L 641 3341
Q 956 3463 1253 3523
Q 1550 3584 1831 3584
Q 2591 3584 2966 3190
Q 3341 2797 3341 1997
z
" transform="scale(0.015625)"/>
      <path id="DejaVuSans-79" d="M 2059 -325
Q 1816 -950 1584 -1140
Q 1353 -1331 966 -1331
L 506 -1331
L 506 -850
L 844 -850
Q 1081 -850 1212 -737
Q 1344 -625 1503 -206
L 1606 56
L 191 3500
L 800 3500
L 1894 763
L 2988 3500
L 3597 3500
L 2059 -325
z
" transform="scale(0.015625)"/>
      <path id="DejaVuSans-20" transform="scale(0.015625)"/>
      <path id="DejaVuSans-78" d="M 3513 3500
L 2247 1797
L 3578 0
L 2900 0
L 1881 1375
L 863 0
L 184 0
L 1544 1831
L 300 3500
L 978 3500
L 1906 2253
L 2834 3500
L 3513 3500
z
" transform="scale(0.015625)"/>
     </defs>
     <use xlink:href="#DejaVuSans-64"/>
     <use xlink:href="#DejaVuSans-69" transform="translate(63.476562 0)"/>
     <use xlink:href="#DejaVuSans-73" transform="translate(91.259766 0)"/>
     <use xlink:href="#DejaVuSans-70" transform="translate(143.359375 0)"/>
     <use xlink:href="#DejaVuSans-6c" transform="translate(206.835938 0)"/>
     <use xlink:href="#DejaVuSans-61" transform="translate(234.619141 0)"/>
     <use xlink:href="#DejaVuSans-79" transform="translate(295.898438 0)"/>
     <use xlink:href="#DejaVuSans-20" transform="translate(355.078125 0)"/>
     <use xlink:href="#DejaVuSans-78" transform="translate(386.865234 0)"/>
    </g>
   </g>
  </g>
  <g id="axis3d_2">
   <g id="line2d_9">
    <path d="M 369.396261 208.903622
L 316.826695 239.772566
" style="fill: none; stroke: #000000; stroke-width: 0.8; stroke-linecap: square"/>
   </g>
   <g id="xtick_8">
    <g id="line2d_10">
     <path d="M 318.638065 237.174286
L 323.701322 238.812597
" style="fill: none; stroke: #000000; stroke-width: 0.8; stroke-linecap: square"/>
    </g>
    <g id="text_9">
     <!-- −1.0 -->
     <g transform="translate(325.628274 258.186079) scale(0.1 -0.1)">
      <defs>
       <path id="DejaVuSans-2e" d="M 684 794
L 1344 794
L 1344 0
L 684 0
L 684 794
z
" transform="scale(0.015625)"/>
      </defs>
      <use xlink:href="#DejaVuSans-2212"/>
      <use xlink:href="#DejaVuSans-31" transform="translate(83.789062 0)"/>
      <use xlink:href="#DejaVuSans-2e" transform="translate(147.412109 0)"/>
      <use xlink:href="#DejaVuSans-30" transform="translate(179.199219 0)"/>
     </g>
    </g>
   </g>
   <g id="xtick_9">
    <g id="line2d_11">
     <path d="M 330.472368 230.241124
L 335.511617 231.84549
" style="fill: none; stroke: #000000; stroke-width: 0.8; stroke-linecap: square"/>
    </g>
    <g id="text_10">
     <!-- −0.5 -->
     <g transform="translate(337.347599 251.06233) scale(0.1 -0.1)">
      <defs>
       <path id="DejaVuSans-35" d="M 691 4666
L 3169 4666
L 3169 4134
L 1269 4134
L 1269 2991
Q 1406 3038 1543 3061
Q 1681 3084 1819 3084
Q 2600 3084 3056 2656
Q 3513 2228 3513 1497
Q 3513 744 3044 326
Q 2575 -91 1722 -91
Q 1428 -91 1123 -41
Q 819 9 494 109
L 494 744
Q 775 591 1075 516
Q 1375 441 1709 441
Q 2250 441 2565 725
Q 2881 1009 2881 1497
Q 2881 1984 2565 2268
Q 2250 2553 1709 2553
Q 1456 2553 1204 2497
Q 953 2441 691 2322
L 691 4666
z
" transform="scale(0.015625)"/>
      </defs>
      <use xlink:href="#DejaVuSans-2212"/>
      <use xlink:href="#DejaVuSans-30" transform="translate(83.789062 0)"/>
      <use xlink:href="#DejaVuSans-2e" transform="translate(147.412109 0)"/>
      <use xlink:href="#DejaVuSans-35" transform="translate(179.199219 0)"/>
     </g>
    </g>
   </g>
   <g id="xtick_10">
    <g id="line2d_12">
     <path d="M 342.063021 223.450705
L 347.07817 225.022171
" style="fill: none; stroke: #000000; stroke-width: 0.8; stroke-linecap: square"/>
    </g>
    <g id="text_11">
     <!-- 0.0 -->
     <g transform="translate(353.013759 244.086297) scale(0.1 -0.1)">
      <use xlink:href="#DejaVuSans-30"/>
      <use xlink:href="#DejaVuSans-2e" transform="translate(63.623047 0)"/>
      <use xlink:href="#DejaVuSans-30" transform="translate(95.410156 0)"/>
     </g>
    </g>
   </g>
   <g id="xtick_11">
    <g id="line2d_13">
     <path d="M 353.417472 216.798666
L 358.408449 218.338233
" style="fill: none; stroke: #000000; stroke-width: 0.8; stroke-linecap: square"/>
    </g>
    <g id="text_12">
     <!-- 0.5 -->
     <g transform="translate(364.254549 237.253432) scale(0.1 -0.1)">
      <use xlink:href="#DejaVuSans-30"/>
      <use xlink:href="#DejaVuSans-2e" transform="translate(63.623047 0)"/>
      <use xlink:href="#DejaVuSans-35" transform="translate(95.410156 0)"/>
     </g>
    </g>
   </g>
   <g id="xtick_12">
    <g id="line2d_14">
     <path d="M 364.542867 210.280821
L 369.509622 211.789449
" style="fill: none; stroke: #000000; stroke-width: 0.8; stroke-linecap: square"/>
    </g>
    <g id="text_13">
     <!-- 1.0 -->
     <g transform="translate(375.26699 230.559372) scale(0.1 -0.1)">
      <use xlink:href="#DejaVuSans-31"/>
      <use xlink:href="#DejaVuSans-2e" transform="translate(63.623047 0)"/>
      <use xlink:href="#DejaVuSans-30" transform="translate(95.410156 0)"/>
     </g>
    </g>
   </g>
   <g id="text_14">
    <!-- section y -->
    <g transform="translate(363.423025 265.183399) rotate(-30.421533) scale(0.1 -0.1)">
     <defs>
      <path id="DejaVuSans-65" d="M 3597 1894
L 3597 1613
L 953 1613
Q 991 1019 1311 708
Q 1631 397 2203 397
Q 2534 397 2845 478
Q 3156 559 3463 722
L 3463 178
Q 3153 47 2828 -22
Q 2503 -91 2169 -91
Q 1331 -91 842 396
Q 353 884 353 1716
Q 353 2575 817 3079
Q 1281 3584 2069 3584
Q 2775 3584 3186 3129
Q 3597 2675 3597 1894
z
M 3022 2063
Q 3016 2534 2758 2815
Q 2500 3097 2075 3097
Q 1594 3097 1305 2825
Q 1016 2553 972 2059
L 3022 2063
z
" transform="scale(0.015625)"/>
      <path id="DejaVuSans-63" d="M 3122 3366
L 3122 2828
Q 2878 2963 2633 3030
Q 2388 3097 2138 3097
Q 1578 3097 1268 2742
Q 959 2388 959 1747
Q 959 1106 1268 751
Q 1578 397 2138 397
Q 2388 397 2633 464
Q 2878 531 3122 666
L 3122 134
Q 2881 22 2623 -34
Q 2366 -91 2075 -91
Q 1284 -91 818 406
Q 353 903 353 1747
Q 353 2603 823 3093
Q 1294 3584 2113 3584
Q 2378 3584 2631 3529
Q 2884 3475 3122 3366
z
" transform="scale(0.015625)"/>
      <path id="DejaVuSans-74" d="M 1172 4494
L 1172 3500
L 2356 3500
L 2356 3053
L 1172 3053
L 1172 1153
Q 1172 725 1289 603
Q 1406 481 1766 481
L 2356 481
L 2356 0
L 1766 0
Q 1100 0 847 248
Q 594 497 594 1153
L 594 3053
L 172 3053
L 172 3500
L 594 3500
L 594 4494
L 1172 4494
z
" transform="scale(0.015625)"/>
      <path id="DejaVuSans-6f" d="M 1959 3097
Q 1497 3097 1228 2736
Q 959 2375 959 1747
Q 959 1119 1226 758
Q 1494 397 1959 397
Q 2419 397 2687 759
Q 2956 1122 2956 1747
Q 2956 2369 2687 2733
Q 2419 3097 1959 3097
z
M 1959 3584
Q 2709 3584 3137 3096
Q 3566 2609 3566 1747
Q 3566 888 3137 398
Q 2709 -91 1959 -91
Q 1206 -91 779 398
Q 353 888 353 1747
Q 353 2609 779 3096
Q 1206 3584 1959 3584
z
" transform="scale(0.015625)"/>
      <path id="DejaVuSans-6e" d="M 3513 2113
L 3513 0
L 2938 0
L 2938 2094
Q 2938 2591 2744 2837
Q 2550 3084 2163 3084
Q 1697 3084 1428 2787
Q 1159 2491 1159 1978
L 1159 0
L 581 0
L 581 3500
L 1159 3500
L 1159 2956
Q 1366 3272 1645 3428
Q 1925 3584 2291 3584
Q 2894 3584 3203 3211
Q 3513 2838 3513 2113
z
" transform="scale(0.015625)"/>
     </defs>
     <use xlink:href="#DejaVuSans-73"/>
     <use xlink:href="#DejaVuSans-65" transform="translate(52.099609 0)"/>
     <use xlink:href="#DejaVuSans-63" transform="translate(113.623047 0)"/>
     <use xlink:href="#DejaVuSans-74" transform="translate(168.603516 0)"/>
     <use xlink:href="#DejaVuSans-69" transform="translate(207.8125 0)"/>
     <use xlink:href="#DejaVuSans-6f" transform="translate(235.595703 0)"/>
     <use xlink:href="#DejaVuSans-6e" transform="translate(296.777344 0)"/>
     <use xlink:href="#DejaVuSans-20" transform="translate(360.15625 0)"/>
     <use xlink:href="#DejaVuSans-79" transform="translate(391.943359 0)"/>
    </g>
   </g>
  </g>
  <g id="axis3d_3">
   <g id="line2d_15">
    <path d="M 369.396261 208.903622
L 372.426432 124.040175
" style="fill: none; stroke: #000000; stroke-width: 0.8; stroke-linecap: square"/>
   </g>
   <g id="xtick_13">
    <g id="line2d_16">
     <path d="M 367.931539 203.127242
L 372.899149 204.616859
" style="fill: none; stroke: #000000; stroke-width: 0.8; stroke-linecap: square"/>
    </g>
    <g id="text_15">
     <!-- −1.0 -->
     <g transform="translate(378.862077 213.952457) scale(0.1 -0.1)">
      <use xlink:href="#DejaVuSans-2212"/>
      <use xlink:href="#DejaVuSans-31" transform="translate(83.789062 0)"/>
      <use xlink:href="#DejaVuSans-2e" transform="translate(147.412109 0)"/>
      <use xlink:href="#DejaVuSans-30" transform="translate(179.199219 0)"/>
     </g>
    </g>
   </g>
   <g id="xtick_14">
    <g id="line2d_17">
     <path d="M 368.573247 184.912548
L 373.568223 186.366796
" style="fill: none; stroke: #000000; stroke-width: 0.8; stroke-linecap: square"/>
    </g>
    <g id="text_16">
     <!-- −0.5 -->
     <g transform="translate(379.627456 195.661192) scale(0.1 -0.1)">
      <use xlink:href="#DejaVuSans-2212"/>
      <use xlink:href="#DejaVuSans-30" transform="translate(83.789062 0)"/>
      <use xlink:href="#DejaVuSans-2e" transform="translate(147.412109 0)"/>
      <use xlink:href="#DejaVuSans-35" transform="translate(179.199219 0)"/>
     </g>
    </g>
   </g>
   <g id="xtick_15">
    <g id="line2d_18">
     <path d="M 369.221652 166.507763
L 374.244297 167.92582
" style="fill: none; stroke: #000000; stroke-width: 0.8; stroke-linecap: square"/>
    </g>
    <g id="text_17">
     <!-- 0.0 -->
     <g transform="translate(384.590706 177.178054) scale(0.1 -0.1)">
      <use xlink:href="#DejaVuSans-30"/>
      <use xlink:href="#DejaVuSans-2e" transform="translate(63.623047 0)"/>
      <use xlink:href="#DejaVuSans-30" transform="translate(95.410156 0)"/>
     </g>
    </g>
   </g>
   <g id="xtick_16">
    <g id="line2d_19">
     <path d="M 369.876859 147.909897
L 374.92748 149.29092
" style="fill: none; stroke: #000000; stroke-width: 0.8; stroke-linecap: square"/>
    </g>
    <g id="text_18">
     <!-- 0.5 -->
     <g transform="translate(385.372269 158.500007) scale(0.1 -0.1)">
      <use xlink:href="#DejaVuSans-30"/>
      <use xlink:href="#DejaVuSans-2e" transform="translate(63.623047 0)"/>
      <use xlink:href="#DejaVuSans-35" transform="translate(95.410156 0)"/>
     </g>
    </g>
   </g>
   <g id="xtick_17">
    <g id="line2d_20">
     <path d="M 370.538975 129.115894
L 375.617886 130.45902
" style="fill: none; stroke: #000000; stroke-width: 0.8; stroke-linecap: square"/>
    </g>
    <g id="text_19">
     <!-- 1.0 -->
     <g transform="translate(386.162117 139.623952) scale(0.1 -0.1)">
      <use xlink:href="#DejaVuSans-31"/>
      <use xlink:href="#DejaVuSans-2e" transform="translate(63.623047 0)"/>
      <use xlink:href="#DejaVuSans-30" transform="translate(95.410156 0)"/>
     </g>
    </g>
   </g>
   <g id="text_20">
    <!-- section z -->
    <g transform="translate(420.163159 194.966173) rotate(-87.955041) scale(0.1 -0.1)">
     <defs>
      <path id="DejaVuSans-7a" d="M 353 3500
L 3084 3500
L 3084 2975
L 922 459
L 3084 459
L 3084 0
L 275 0
L 275 525
L 2438 3041
L 353 3041
L 353 3500
z
" transform="scale(0.015625)"/>
     </defs>
     <use xlink:href="#DejaVuSans-73"/>
     <use xlink:href="#DejaVuSans-65" transform="translate(52.099609 0)"/>
     <use xlink:href="#DejaVuSans-63" transform="translate(113.623047 0)"/>
     <use xlink:href="#DejaVuSans-74" transform="translate(168.603516 0)"/>
     <use xlink:href="#DejaVuSans-69" transform="translate(207.8125 0)"/>
     <use xlink:href="#DejaVuSans-6f" transform="translate(235.595703 0)"/>
     <use xlink:href="#DejaVuSans-6e" transform="translate(296.777344 0)"/>
     <use xlink:href="#DejaVuSans-20" transform="translate(360.15625 0)"/>
     <use xlink:href="#DejaVuSans-7a" transform="translate(391.943359 0)"/>
    </g>
   </g>
  </g>
  <g id="axes_1">
   <g id="Poly3DCollection_1">
    <path d="M 164.094685 128.300604
L 178.902614 127.295529
L 171.786573 140.993975
z
" clip-path="url(#p058a7dff11)" style="fill: #2a6fbb; fill-opacity: 0.25; stroke: #111827; stroke-width: 0.8"/>
    <path d="M 178.902614 127.295529
L 164.094685 128.300604
L 171.358637 119.922816
z
" clip-path="url(#p058a7dff11)" style="fill: #2a6fbb; fill-opacity: 0.25; stroke: #111827; stroke-width: 0.8"/>
    <path d="M 178.902614 127.295529
L 179.110717 132.695417
L 171.786573 140.993975
z
" clip-path="url(#p058a7dff11)" style="fill: #2a6fbb; fill-opacity: 0.25; stroke: #111827; stroke-width: 0.8"/>
    <path d="M 164.159268 133.720103
L 164.094685 128.300604
L 171.786573 140.993975
z
" clip-path="url(#p058a7dff11)" style="fill: #2a6fbb; fill-opacity: 0.25; stroke: #111827; stroke-width: 0.8"/>
    <path d="M 179.110717 132.695417
L 178.902614 127.295529
L 171.358637 119.922816
z
" clip-path="url(#p058a7dff11)" style="fill: #2a6fbb; fill-opacity: 0.25; stroke: #111827; stroke-width: 0.8"/>
    <path d="M 164.094685 128.300604
L 164.159268 133.720103
L 171.358637 119.922816
z
" clip-path="url(#p058a7dff11)" style="fill: #2a6fbb; fill-opacity: 0.25; stroke: #111827; stroke-width: 0.8"/>
    <path d="M 179.110717 132.695417
L 164.159268 133.720103
L 171.786573 140.993975
z
" clip-path="url(#p058a7dff11)" style="fill: #2a6fbb; fill-opacity: 0.25; stroke: #111827; stroke-width: 0.8"/>
    <path d="M 164.159268 133.720103
L 179.110717 132.695417
L 171.358637 119.922816
z
" clip-path="url(#p058a7dff11)" style="fill: #2a6fbb; fill-opacity: 0.25; stroke: #111827; stroke-width: 0.8"/>
   </g>
   <g id="text_21">
    <!-- w = -0.70 -->
    <g style="fill: #2a6fbb" transform="translate(119.345637 169.061315) scale(0.1 -0.1)">
     <defs>
      <path id="DejaVuSans-77" d="M 269 3500
L 844 3500
L 1563 769
L 2278 3500
L 2956 3500
L 3675 769
L 4391 3500
L 4966 3500
L 4050 0
L 3372 0
L 2619 2869
L 1863 0
L 1184 0
L 269 3500
z
" transform="scale(0.015625)"/>
      <path id="DejaVuSans-3d" d="M 678 2906
L 4684 2906
L 4684 2381
L 678 2381
L 678 2906
z
M 678 1631
L 4684 1631
L 4684 1100
L 678 1100
L 678 1631
z
" transform="scale(0.015625)"/>
      <path id="DejaVuSans-2d" d="M 313 2009
L 1997 2009
L 1997 1497
L 313 1497
L 313 2009
z
" transform="scale(0.015625)"/>
      <path id="DejaVuSans-37" d="M 525 4666
L 3525 4666
L 3525 4397
L 1831 0
L 1172 0
L 2766 4134
L 525 4134
L 525 4666
z
" transform="scale(0.015625)"/>
     </defs>
     <use xlink:href="#DejaVuSans-77"/>
     <use xlink:href="#DejaVuSans-20" transform="translate(81.787109 0)"/>
     <use xlink:href="#DejaVuSans-3d" transform="translate(113.574219 0)"/>
     <use xlink:href="#DejaVuSans-20" transform="translate(197.363281 0)"/>
     <use xlink:href="#DejaVuSans-2d" transform="translate(229.150391 0)"/>
     <use xlink:href="#DejaVuSans-30" transform="translate(265.234375 0)"/>
     <use xlink:href="#DejaVuSans-2e" transform="translate(328.857422 0)"/>
     <use xlink:href="#DejaVuSans-37" transform="translate(360.644531 0)"/>
     <use xlink:href="#DejaVuSans-30" transform="translate(424.267578 0)"/>
    </g>
    <!-- volume = 0.036 -->
    <g style="fill: #2a6fbb" transform="translate(103.533918 180.259128) scale(0.1 -0.1)">
     <defs>
      <path id="DejaVuSans-76" d="M 191 3500
L 800 3500
L 1894 563
L 2988 3500
L 3597 3500
L 2284 0
L 1503 0
L 191 3500
z
" transform="scale(0.015625)"/>
      <path id="DejaVuSans-75" d="M 544 1381
L 544 3500
L 1119 3500
L 1119 1403
Q 1119 906 1312 657
Q 1506 409 1894 409
Q 2359 409 2629 706
Q 2900 1003 2900 1516
L 2900 3500
L 3475 3500
L 3475 0
L 2900 0
L 2900 538
Q 2691 219 2414 64
Q 2138 -91 1772 -91
Q 1169 -91 856 284
Q 544 659 544 1381
z
M 1991 3584
L 1991 3584
z
" transform="scale(0.015625)"/>
      <path id="DejaVuSans-6d" d="M 3328 2828
Q 3544 3216 3844 3400
Q 4144 3584 4550 3584
Q 5097 3584 5394 3201
Q 5691 2819 5691 2113
L 5691 0
L 5113 0
L 5113 2094
Q 5113 2597 4934 2840
Q 4756 3084 4391 3084
Q 3944 3084 3684 2787
Q 3425 2491 3425 1978
L 3425 0
L 2847 0
L 2847 2094
Q 2847 2600 2669 2842
Q 2491 3084 2119 3084
Q 1678 3084 1418 2786
Q 1159 2488 1159 1978
L 1159 0
L 581 0
L 581 3500
L 1159 3500
L 1159 2956
Q 1356 3278 1631 3431
Q 1906 3584 2284 3584
Q 2666 3584 2933 3390
Q 3200 3197 3328 2828
z
" transform="scale(0.015625)"/>
      <path id="DejaVuSans-36" d="M 2113 2584
Q 1688 2584 1439 2293
Q 1191 2003 1191 1497
Q 1191 994 1439 701
Q 1688 409 2113 409
Q 2538 409 2786 701
Q 3034 994 3034 1497
Q 3034 2003 2786 2293
Q 2538 2584 2113 2584
z
M 3366 4563
L 3366 3988
Q 3128 4100 2886 4159
Q 2644 4219 2406 4219
Q 1781 4219 1451 3797
Q 1122 3375 1075 2522
Q 1259 2794 1537 2939
Q 1816 3084 2150 3084
Q 2853 3084 3261 2657
Q 3669 2231 3669 1497
Q 3669 778 3244 343
Q 2819 -91 2113 -91
Q 1303 -91 875 529
Q 447 1150 447 2328
Q 447 3434 972 4092
Q 1497 4750 2381 4750
Q 2619 4750 2861 4703
Q 3103 4656 3366 4563
z
" transform="scale(0.015625)"/>
     </defs>
     <use xlink:href="#DejaVuSans-76"/>
     <use xlink:href="#DejaVuSans-6f" transform="translate(59.179688 0)"/>
     <use xlink:href="#DejaVuSans-6c" transform="translate(120.361328 0)"/>
     <use xlink:href="#DejaVuSans-75" transform="translate(148.144531 0)"/>
     <use xlink:href="#DejaVuSans-6d" transform="translate(211.523438 0)"/>
     <use xlink:href="#DejaVuSans-65" transform="translate(308.935547 0)"/>
     <use xlink:href="#DejaVuSans-20" transform="translate(370.458984 0)"/>
     <use xlink:href="#DejaVuSans-3d" transform="translate(402.246094 0)"/>
     <use xlink:href="#DejaVuSans-20" transform="translate(486.035156 0)"/>
     <use xlink:href="#DejaVuSans-30" transform="translate(517.822266 0)"/>
     <use xlink:href="#DejaVuSans-2e" transform="translate(581.445312 0)"/>
     <use xlink:href="#DejaVuSans-30" transform="translate(613.232422 0)"/>
     <use xlink:href="#DejaVuSans-33" transform="translate(676.855469 0)"/>
     <use xlink:href="#DejaVuSans-36" transform="translate(740.478516 0)"/>
    </g>
   </g>
   <g id="text_22">
    <!-- w = +0.00 -->
    <g style="fill: #15803d" transform="translate(189.520582 192.527293) scale(0.1 -0.1)">
     <defs>
      <path id="DejaVuSans-2b" d="M 2944 4013
L 2944 2272
L 4684 2272
L 4684 1741
L 2944 1741
L 2944 0
L 2419 0
L 2419 1741
L 678 1741
L 678 2272
L 2419 2272
L 2419 4013
L 2944 4013
z
" transform="scale(0.015625)"/>
     </defs>
     <use xlink:href="#DejaVuSans-77"/>
     <use xlink:href="#DejaVuSans-20" transform="translate(81.787109 0)"/>
     <use xlink:href="#DejaVuSans-3d" transform="translate(113.574219 0)"/>
     <use xlink:href="#DejaVuSans-20" transform="translate(197.363281 0)"/>
     <use xlink:href="#DejaVuSans-2b" transform="translate(229.150391 0)"/>
     <use xlink:href="#DejaVuSans-30" transform="translate(312.939453 0)"/>
     <use xlink:href="#DejaVuSans-2e" transform="translate(376.5625 0)"/>
     <use xlink:href="#DejaVuSans-30" transform="translate(408.349609 0)"/>
     <use xlink:href="#DejaVuSans-30" transform="translate(471.972656 0)"/>
    </g>
    <!-- volume = 1.333 -->
    <g style="fill: #15803d" transform="translate(176.094801 203.725105) scale(0.1 -0.1)">
     <use xlink:href="#DejaVuSans-76"/>
     <use xlink:href="#DejaVuSans-6f" transform="translate(59.179688 0)"/>
     <use xlink:href="#DejaVuSans-6c" transform="translate(120.361328 0)"/>
     <use xlink:href="#DejaVuSans-75" transform="translate(148.144531 0)"/>
     <use xlink:href="#DejaVuSans-6d" transform="translate(211.523438 0)"/>
     <use xlink:href="#DejaVuSans-65" transform="translate(308.935547 0)"/>
     <use xlink:href="#DejaVuSans-20" transform="translate(370.458984 0)"/>
     <use xlink:href="#DejaVuSans-3d" transform="translate(402.246094 0)"/>
     <use xlink:href="#DejaVuSans-20" transform="translate(486.035156 0)"/>
     <use xlink:href="#DejaVuSans-31" transform="translate(517.822266 0)"/>
     <use xlink:href="#DejaVuSans-2e" transform="translate(581.445312 0)"/>
     <use xlink:href="#DejaVuSans-33" transform="translate(613.232422 0)"/>
     <use xlink:href="#DejaVuSans-33" transform="translate(676.855469 0)"/>
     <use xlink:href="#DejaVuSans-33" transform="translate(740.478516 0)"/>
    </g>
   </g>
   <g id="text_23">
    <!-- w = +0.70 -->
    <g style="fill: #d97706" transform="translate(267.890946 217.872039) scale(0.1 -0.1)">
     <use xlink:href="#DejaVuSans-77"/>
     <use xlink:href="#DejaVuSans-20" transform="translate(81.787109 0)"/>
     <use xlink:href="#DejaVuSans-3d" transform="translate(113.574219 0)"/>
     <use xlink:href="#DejaVuSans-20" transform="translate(197.363281 0)"/>
     <use xlink:href="#DejaVuSans-2b" transform="translate(229.150391 0)"/>
     <use xlink:href="#DejaVuSans-30" transform="translate(312.939453 0)"/>
     <use xlink:href="#DejaVuSans-2e" transform="translate(376.5625 0)"/>
     <use xlink:href="#DejaVuSans-37" transform="translate(408.349609 0)"/>
     <use xlink:href="#DejaVuSans-30" transform="translate(471.972656 0)"/>
    </g>
    <!-- volume = 0.036 -->
    <g style="fill: #d97706" transform="translate(254.465164 229.069852) scale(0.1 -0.1)">
     <use xlink:href="#DejaVuSans-76"/>
     <use xlink:href="#DejaVuSans-6f" transform="translate(59.179688 0)"/>
     <use xlink:href="#DejaVuSans-6c" transform="translate(120.361328 0)"/>
     <use xlink:href="#DejaVuSans-75" transform="translate(148.144531 0)"/>
     <use xlink:href="#DejaVuSans-6d" transform="translate(211.523438 0)"/>
     <use xlink:href="#DejaVuSans-65" transform="translate(308.935547 0)"/>
     <use xlink:href="#DejaVuSans-20" transform="translate(370.458984 0)"/>
     <use xlink:href="#DejaVuSans-3d" transform="translate(402.246094 0)"/>
     <use xlink:href="#DejaVuSans-20" transform="translate(486.035156 0)"/>
     <use xlink:href="#DejaVuSans-30" transform="translate(517.822266 0)"/>
     <use xlink:href="#DejaVuSans-2e" transform="translate(581.445312 0)"/>
     <use xlink:href="#DejaVuSans-30" transform="translate(613.232422 0)"/>
     <use xlink:href="#DejaVuSans-33" transform="translate(676.855469 0)"/>
     <use xlink:href="#DejaVuSans-36" transform="translate(740.478516 0)"/>
    </g>
   </g>
   <g id="text_24">
    <!-- Sections of the 4D cross-polytope: offset copies of the resulting 3D octahedra -->
    <g transform="translate(7.2 16.318125) scale(0.12 -0.12)">
     <defs>
      <path id="DejaVuSans-53" d="M 3425 4513
L 3425 3897
Q 3066 4069 2747 4153
Q 2428 4238 2131 4238
Q 1616 4238 1336 4038
Q 1056 3838 1056 3469
Q 1056 3159 1242 3001
Q 1428 2844 1947 2747
L 2328 2669
Q 3034 2534 3370 2195
Q 3706 1856 3706 1288
Q 3706 609 3251 259
Q 2797 -91 1919 -91
Q 1588 -91 1214 -16
Q 841 59 441 206
L 441 856
Q 825 641 1194 531
Q 1563 422 1919 422
Q 2459 422 2753 634
Q 3047 847 3047 1241
Q 3047 1584 2836 1778
Q 2625 1972 2144 2069
L 1759 2144
Q 1053 2284 737 2584
Q 422 2884 422 3419
Q 422 4038 858 4394
Q 1294 4750 2059 4750
Q 2388 4750 2728 4690
Q 3069 4631 3425 4513
z
" transform="scale(0.015625)"/>
      <path id="DejaVuSans-66" d="M 2375 4863
L 2375 4384
L 1825 4384
Q 1516 4384 1395 4259
Q 1275 4134 1275 3809
L 1275 3500
L 2222 3500
L 2222 3053
L 1275 3053
L 1275 0
L 697 0
L 697 3053
L 147 3053
L 147 3500
L 697 3500
L 697 3744
Q 697 4328 969 4595
Q 1241 4863 1831 4863
L 2375 4863
z
" transform="scale(0.015625)"/>
      <path id="DejaVuSans-68" d="M 3513 2113
L 3513 0
L 2938 0
L 2938 2094
Q 2938 2591 2744 2837
Q 2550 3084 2163 3084
Q 1697 3084 1428 2787
Q 1159 2491 1159 1978
L 1159 0
L 581 0
L 581 4863
L 1159 4863
L 1159 2956
Q 1366 3272 1645 3428
Q 1925 3584 2291 3584
Q 2894 3584 3203 3211
Q 3513 2838 3513 2113
z
" transform="scale(0.015625)"/>
      <path id="DejaVuSans-34" d="M 2419 4116
L 825 1625
L 2419 1625
L 2419 4116
z
M 2253 4666
L 3047 4666
L 3047 1625
L 3713 1625
L 3713 1100
L 3047 1100
L 3047 0
L 2419 0
L 2419 1100
L 313 1100
L 313 1709
L 2253 4666
z
" transform="scale(0.015625)"/>
      <path id="DejaVuSans-44" d="M 1259 4147
L 1259 519
L 2022 519
Q 2988 519 3436 956
Q 3884 1394 3884 2338
Q 3884 3275 3436 3711
Q 2988 4147 2022 4147
L 1259 4147
z
M 628 4666
L 1925 4666
Q 3281 4666 3915 4102
Q 4550 3538 4550 2338
Q 4550 1131 3912 565
Q 3275 0 1925 0
L 628 0
L 628 4666
z
" transform="scale(0.015625)"/>
      <path id="DejaVuSans-72" d="M 2631 2963
Q 2534 3019 2420 3045
Q 2306 3072 2169 3072
Q 1681 3072 1420 2755
Q 1159 2438 1159 1844
L 1159 0
L 581 0
L 581 3500
L 1159 3500
L 1159 2956
Q 1341 3275 1631 3429
Q 1922 3584 2338 3584
Q 2397 3584 2469 3576
Q 2541 3569 2628 3553
L 2631 2963
z
" transform="scale(0.015625)"/>
      <path id="DejaVuSans-3a" d="M 750 794
L 1409 794
L 1409 0
L 750 0
L 750 794
z
M 750 3309
L 1409 3309
L 1409 2516
L 750 2516
L 750 3309
z
" transform="scale(0.015625)"/>
      <path id="DejaVuSans-67" d="M 2906 1791
Q 2906 2416 2648 2759
Q 2391 3103 1925 3103
Q 1463 3103 1205 2759
Q 947 2416 947 1791
Q 947 1169 1205 825
Q 1463 481 1925 481
Q 2391 481 2648 825
Q 2906 1169 2906 1791
z
M 3481 434
Q 3481 -459 3084 -895
Q 2688 -1331 1869 -1331
Q 1566 -1331 1297 -1286
Q 1028 -1241 775 -1147
L 775 -588
Q 1028 -725 1275 -790
Q 1522 -856 1778 -856
Q 2344 -856 2625 -561
Q 2906 -266 2906 331
L 2906 616
Q 2728 306 2450 153
Q 2172 0 1784 0
Q 1141 0 747 490
Q 353 981 353 1791
Q 353 2603 747 3093
Q 1141 3584 1784 3584
Q 2172 3584 2450 3431
Q 2728 3278 2906 2969
L 2906 3500
L 3481 3500
L 3481 434
z
" transform="scale(0.015625)"/>
     </defs>
     <use xlink:href="#DejaVuSans-53"/>
     <use xlink:href="#DejaVuSans-65" transform="translate(63.476562 0)"/>
     <use xlink:href="#DejaVuSans-63" transform="translate(125 0)"/>
     <use xlink:href="#DejaVuSans-74" transform="translate(179.980469 0)"/>
     <use xlink:href="#DejaVuSans-69" transform="translate(219.189453 0)"/>
     <use xlink:href="#DejaVuSans-6f" transform="translate(246.972656 0)"/>
     <use xlink:href="#DejaVuSans-6e" transform="translate(308.154297 0)"/>
     <use xlink:href="#DejaVuSans-73" transform="translate(371.533203 0)"/>
     <use xlink:href="#DejaVuSans-20" transform="translate(423.632812 0)"/>
     <use xlink:href="#DejaVuSans-6f" transform="translate(455.419922 0)"/>
     <use xlink:href="#DejaVuSans-66" transform="translate(516.601562 0)"/>
     <use xlink:href="#DejaVuSans-20" transform="translate(551.806641 0)"/>
     <use xlink:href="#DejaVuSans-74" transform="translate(583.59375 0)"/>
     <use xlink:href="#DejaVuSans-68" transform="translate(622.802734 0)"/>
     <use xlink:href="#DejaVuSans-65" transform="translate(686.181641 0)"/>
     <use xlink:href="#DejaVuSans-20" transform="translate(747.705078 0)"/>
     <use xlink:href="#DejaVuSans-34" transform="translate(779.492188 0)"/>
     <use xlink:href="#DejaVuSans-44" transform="translate(843.115234 0)"/>
     <use xlink:href="#DejaVuSans-20" transform="translate(920.117188 0)"/>
     <use xlink:href="#DejaVuSans-63" transform="translate(951.904297 0)"/>
     <use xlink:href="#DejaVuSans-72" transform="translate(1006.884766 0)"/>
     <use xlink:href="#DejaVuSans-6f" transform="translate(1045.748047 0)"/>
     <use xlink:href="#DejaVuSans-73" transform="translate(1106.929688 0)"/>
     <use xlink:href="#DejaVuSans-73" transform="translate(1159.029297 0)"/>
     <use xlink:href="#DejaVuSans-2d" transform="translate(1211.128906 0)"/>
     <use xlink:href="#DejaVuSans-70" transform="translate(1247.212891 0)"/>
     <use xlink:href="#DejaVuSans-6f" transform="translate(1310.689453 0)"/>
     <use xlink:href="#DejaVuSans-6c" transform="translate(1371.871094 0)"/>
     <use xlink:href="#DejaVuSans-79" transform="translate(1399.654297 0)"/>
     <use xlink:href="#DejaVuSans-74" transform="translate(1458.833984 0)"/>
     <use xlink:href="#DejaVuSans-6f" transform="translate(1498.042969 0)"/>
     <use xlink:href="#DejaVuSans-70" transform="translate(1559.224609 0)"/>
     <use xlink:href="#DejaVuSans-65" transform="translate(1622.701172 0)"/>
     <use xlink:href="#DejaVuSans-3a" transform="translate(1684.224609 0)"/>
     <use xlink:href="#DejaVuSans-20" transform="translate(1717.916016 0)"/>
     <use xlink:href="#DejaVuSans-6f" transform="translate(1749.703125 0)"/>
     <use xlink:href="#DejaVuSans-66" transform="translate(1810.884766 0)"/>
     <use xlink:href="#DejaVuSans-66" transform="translate(1846.089844 0)"/>
     <use xlink:href="#DejaVuSans-73" transform="translate(1881.294922 0)"/>
     <use xlink:href="#DejaVuSans-65" transform="translate(1933.394531 0)"/>
     <use xlink:href="#DejaVuSans-74" transform="translate(1994.917969 0)"/>
     <use xlink:href="#DejaVuSans-20" transform="translate(2034.126953 0)"/>
     <use xlink:href="#DejaVuSans-63" transform="translate(2065.914062 0)"/>
     <use xlink:href="#DejaVuSans-6f" transform="translate(2120.894531 0)"/>
     <use xlink:href="#DejaVuSans-70" transform="translate(2182.076172 0)"/>
     <use xlink:href="#DejaVuSans-69" transform="translate(2245.552734 0)"/>
     <use xlink:href="#DejaVuSans-65" transform="translate(2273.335938 0)"/>
     <use xlink:href="#DejaVuSans-73" transform="translate(2334.859375 0)"/>
     <use xlink:href="#DejaVuSans-20" transform="translate(2386.958984 0)"/>
     <use xlink:href="#DejaVuSans-6f" transform="translate(2418.746094 0)"/>
     <use xlink:href="#DejaVuSans-66" transform="translate(2479.927734 0)"/>
     <use xlink:href="#DejaVuSans-20" transform="translate(2515.132812 0)"/>
     <use xlink:href="#DejaVuSans-74" transform="translate(2546.919922 0)"/>
     <use xlink:href="#DejaVuSans-68" transform="translate(2586.128906 0)"/>
     <use xlink:href="#DejaVuSans-65" transform="translate(2649.507812 0)"/>
     <use xlink:href="#DejaVuSans-20" transform="translate(2711.03125 0)"/>
     <use xlink:href="#DejaVuSans-72" transform="translate(2742.818359 0)"/>
     <use xlink:href="#DejaVuSans-65" transform="translate(2781.681641 0)"/>
     <use xlink:href="#DejaVuSans-73" transform="translate(2843.205078 0)"/>
     <use xlink:href="#DejaVuSans-75" transform="translate(2895.304688 0)"/>
     <use xlink:href="#DejaVuSans-6c" transform="translate(2958.683594 0)"/>
     <use xlink:href="#DejaVuSans-74" transform="translate(2986.466797 0)"/>
     <use xlink:href="#DejaVuSans-69" transform="translate(3025.675781 0)"/>
     <use xlink:href="#DejaVuSans-6e" transform="translate(3053.458984 0)"/>
     <use xlink:href="#DejaVuSans-67" transform="translate(3116.837891 0)"/>
     <use xlink:href="#DejaVuSans-20" transform="translate(3180.314453 0)"/>
     <use xlink:href="#DejaVuSans-33" transform="translate(3212.101562 0)"/>
     <use xlink:href="#DejaVuSans-44" transform="translate(3275.724609 0)"/>
     <use xlink:href="#DejaVuSans-20" transform="translate(3352.726562 0)"/>
     <use xlink:href="#DejaVuSans-6f" transform="translate(3384.513672 0)"/>
     <use xlink:href="#DejaVuSans-63" transform="translate(3445.695312 0)"/>
     <use xlink:href="#DejaVuSans-74" transform="translate(3500.675781 0)"/>
     <use xlink:href="#DejaVuSans-61" transform="translate(3539.884766 0)"/>
     <use xlink:href="#DejaVuSans-68" transform="translate(3601.164062 0)"/>
     <use xlink:href="#DejaVuSans-65" transform="translate(3664.542969 0)"/>
     <use xlink:href="#DejaVuSans-64" transform="translate(3726.066406 0)"/>
     <use xlink:href="#DejaVuSans-72" transform="translate(3789.542969 0)"/>
     <use xlink:href="#DejaVuSans-61" transform="translate(3830.65625 0)"/>
    </g>
   </g>
   <g id="Path3DCollection_1">
    <defs>
     <path id="C0_0_5c2a222684" d="M 0 2.12132
C 0.562581 2.12132 1.102195 1.897805 1.5 1.5
C 1.897805 1.102195 2.12132 0.562581 2.12132 -0
C 2.12132 -0.562581 1.897805 -1.102195 1.5 -1.5
C 1.102195 -1.897805 0.562581 -2.12132 0 -2.12132
C -0.562581 -2.12132 -1.102195 -1.897805 -1.5 -1.5
C -1.897805 -1.102195 -2.12132 -0.562581 -2.12132 0
C -2.12132 0.562581 -1.897805 1.102195 -1.5 1.5
C -1.102195 1.897805 -0.562581 2.12132 0 2.12132
z
"/>
    </defs>
    <g clip-path="url(#p058a7dff11)">
     <use xlink:href="#C0_0_5c2a222684" x="178.902614" y="127.295529" style="fill: #2a6fbb; fill-opacity: 0.3; stroke: #2a6fbb; stroke-opacity: 0.3"/>
    </g>
    <g clip-path="url(#p058a7dff11)">
     <use xlink:href="#C0_0_5c2a222684" x="164.094685" y="128.300604" style="fill: #2a6fbb; fill-opacity: 0.40951; stroke: #2a6fbb; stroke-opacity: 0.40951"/>
    </g>
    <g clip-path="url(#p058a7dff11)">
     <use xlink:href="#C0_0_5c2a222684" x="171.786573" y="140.993975" style="fill: #2a6fbb; fill-opacity: 0.469073; stroke: #2a6fbb; stroke-opacity: 0.469073"/>
    </g>
    <g clip-path="url(#p058a7dff11)">
     <use xlink:href="#C0_0_5c2a222684" x="171.358637" y="119.922816" style="fill: #2a6fbb; fill-opacity: 0.827966; stroke: #2a6fbb; stroke-opacity: 0.827966"/>
    </g>
    <g clip-path="url(#p058a7dff11)">
     <use xlink:href="#C0_0_5c2a222684" x="179.110717" y="132.695417" style="fill: #2a6fbb; fill-opacity: 0.888354; stroke: #2a6fbb; stroke-opacity: 0.888354"/>
    </g>
    <g clip-path="url(#p058a7dff11)">
     <use xlink:href="#C0_0_5c2a222684" x="164.159268" y="133.720103" style="fill: #2a6fbb; stroke: #2a6fbb"/>
    </g>
   </g>
   <g id="Poly3DCollection_2">
    <path d="M 217.707008 143.991577
L 267.904831 140.465577
L 244.311421 187.649846
z
" clip-path="url(#p058a7dff11)" style="fill: #15803d; fill-opacity: 0.25; stroke: #111827; stroke-width: 0.8"/>
    <path d="M 267.904831 140.465577
L 217.707008 143.991577
L 244.311421 115.168462
z
" clip-path="url(#p058a7dff11)" style="fill: #15803d; fill-opacity: 0.25; stroke: #111827; stroke-width: 0.8"/>
    <path d="M 267.904831 140.465577
L 271.648348 159.778845
L 244.311421 187.649846
z
" clip-path="url(#p058a7dff11)" style="fill: #15803d; fill-opacity: 0.25; stroke: #111827; stroke-width: 0.8"/>
    <path d="M 219.762315 163.548689
L 217.707008 143.991577
L 244.311421 187.649846
z
" clip-path="url(#p058a7dff11)" style="fill: #15803d; fill-opacity: 0.25; stroke: #111827; stroke-width: 0.8"/>
    <path d="M 271.648348 159.778845
L 267.904831 140.465577
L 244.311421 115.168462
z
" clip-path="url(#p058a7dff11)" style="fill: #15803d; fill-opacity: 0.25; stroke: #111827; stroke-width: 0.8"/>
    <path d="M 217.707008 143.991577
L 219.762315 163.548689
L 244.311421 115.168462
z
" clip-path="url(#p058a7dff11)" style="fill: #15803d; fill-opacity: 0.25; stroke: #111827; stroke-width: 0.8"/>
    <path d="M 271.648348 159.778845
L 219.762315 163.548689
L 244.311421 187.649846
z
" clip-path="url(#p058a7dff11)" style="fill: #15803d; fill-opacity: 0.25; stroke: #111827; stroke-width: 0.8"/>
    <path d="M 219.762315 163.548689
L 271.648348 159.778845
L 244.311421 115.168462
z
" clip-path="url(#p058a7dff11)" style="fill: #15803d; fill-opacity: 0.25; stroke: #111827; stroke-width: 0.8"/>
   </g>
   <g id="Path3DCollection_2">
    <defs>
     <path id="C1_0_ca5799255b" d="M 0 2.12132
C 0.562581 2.12132 1.102195 1.897805 1.5 1.5
C 1.897805 1.102195 2.12132 0.562581 2.12132 -0
C 2.12132 -0.562581 1.897805 -1.102195 1.5 -1.5
C 1.102195 -1.897805 0.562581 -2.12132 0 -2.12132
C -0.562581 -2.12132 -1.102195 -1.897805 -1.5 -1.5
C -1.897805 -1.102195 -2.12132 -0.562581 -2.12132 0
C -2.12132 0.562581 -1.897805 1.102195 -1.5 1.5
C -1.102195 1.897805 -0.562581 2.12132 0 2.12132
z
"/>
    </defs>
    <g clip-path="url(#p058a7dff11)">
     <use xlink:href="#C1_0_ca5799255b" x="267.904831" y="140.465577" style="fill: #15803d; fill-opacity: 0.3; stroke: #15803d; stroke-opacity: 0.3"/>
    </g>
    <g clip-path="url(#p058a7dff11)">
     <use xlink:href="#C1_0_ca5799255b" x="217.707008" y="143.991577" style="fill: #15803d; fill-opacity: 0.406927; stroke: #15803d; stroke-opacity: 0.406927"/>
    </g>
    <g clip-path="url(#p058a7dff11)">
     <use xlink:href="#C1_0_ca5799255b" x="244.311421" y="187.649846" style="fill: #15803d; fill-opacity: 0.465479; stroke: #15803d; stroke-opacity: 0.465479"/>
    </g>
    <g clip-path="url(#p058a7dff11)">
     <use xlink:href="#C1_0_ca5799255b" x="244.311421" y="115.168462" style="fill: #15803d; fill-opacity: 0.824277; stroke: #15803d; stroke-opacity: 0.824277"/>
    </g>
    <g clip-path="url(#p058a7dff11)">
     <use xlink:href="#C1_0_ca5799255b" x="271.648348" y="159.778845" style="fill: #15803d; fill-opacity: 0.885679; stroke: #15803d; stroke-opacity: 0.885679"/>
    </g>
    <g clip-path="url(#p058a7dff11)">
     <use xlink:href="#C1_0_ca5799255b" x="219.762315" y="163.548689" style="fill: #15803d; stroke: #15803d"/>
    </g>
   </g>
   <g id="Poly3DCollection_3">
    <path d="M 314.094779 172.201844
L 329.774545 171.032468
L 322.551433 185.941913
z
" clip-path="url(#p058a7dff11)" style="fill: #d97706; fill-opacity: 0.25; stroke: #111827; stroke-width: 0.8"/>
    <path d="M 329.774545 171.032468
L 314.094779 172.201844
L 323.049703 163.485962
z
" clip-path="url(#p058a7dff11)" style="fill: #d97706; fill-opacity: 0.25; stroke: #111827; stroke-width: 0.8"/>
    <path d="M 329.774545 171.032468
L 331.578819 177.318981
L 322.551433 185.941913
z
" clip-path="url(#p058a7dff11)" style="fill: #d97706; fill-opacity: 0.25; stroke: #111827; stroke-width: 0.8"/>
    <path d="M 315.738111 178.512996
L 314.094779 172.201844
L 322.551433 185.941913
z
" clip-path="url(#p058a7dff11)" style="fill: #d97706; fill-opacity: 0.25; stroke: #111827; stroke-width: 0.8"/>
    <path d="M 331.578819 177.318981
L 329.774545 171.032468
L 323.049703 163.485962
z
" clip-path="url(#p058a7dff11)" style="fill: #d97706; fill-opacity: 0.25; stroke: #111827; stroke-width: 0.8"/>
    <path d="M 314.094779 172.201844
L 315.738111 178.512996
L 323.049703 163.485962
z
" clip-path="url(#p058a7dff11)" style="fill: #d97706; fill-opacity: 0.25; stroke: #111827; stroke-width: 0.8"/>
    <path d="M 331.578819 177.318981
L 315.738111 178.512996
L 322.551433 185.941913
z
" clip-path="url(#p058a7dff11)" style="fill: #d97706; fill-opacity: 0.25; stroke: #111827; stroke-width: 0.8"/>
    <path d="M 315.738111 178.512996
L 331.578819 177.318981
L 323.049703 163.485962
z
" clip-path="url(#p058a7dff11)" style="fill: #d97706; fill-opacity: 0.25; stroke: #111827; stroke-width: 0.8"/>
   </g>
   <g id="Path3DCollection_3">
    <defs>
     <path id="C2_0_c05cc24f8b" d="M 0 2.12132
C 0.562581 2.12132 1.102195 1.897805 1.5 1.5
C 1.897805 1.102195 2.12132 0.562581 2.12132 -0
C 2.12132 -0.562581 1.897805 -1.102195 1.5 -1.5
C 1.102195 -1.897805 0.562581 -2.12132 0 -2.12132
C -0.562581 -2.12132 -1.102195 -1.897805 -1.5 -1.5
C -1.897805 -1.102195 -2.12132 -0.562581 -2.12132 0
C -2.12132 0.562581 -1.897805 1.102195 -1.5 1.5
C -1.102195 1.897805 -0.562581 2.12132 0 2.12132
z
"/>
    </defs>
    <g clip-path="url(#p058a7dff11)">
     <use xlink:href="#C2_0_c05cc24f8b" x="329.774545" y="171.032468" style="fill: #d97706; fill-opacity: 0.3; stroke: #d97706; stroke-opacity: 0.3"/>
    </g>
    <g clip-path="url(#p058a7dff11)">
     <use xlink:href="#C2_0_c05cc24f8b" x="314.094779" y="172.201844" style="fill: #d97706; fill-opacity: 0.409426; stroke: #d97706; stroke-opacity: 0.409426"/>
    </g>
    <g clip-path="url(#p058a7dff11)">
     <use xlink:href="#C2_0_c05cc24f8b" x="322.551433" y="185.941913" style="fill: #d97706; fill-opacity: 0.468957; stroke: #d97706; stroke-opacity: 0.468957"/>
    </g>
    <g clip-path="url(#p058a7dff11)">
     <use xlink:href="#C2_0_c05cc24f8b" x="323.049703" y="163.485962" style="fill: #d97706; fill-opacity: 0.827849; stroke: #d97706; stroke-opacity: 0.827849"/>
    </g>
    <g clip-path="url(#p058a7dff11)">
     <use xlink:href="#C2_0_c05cc24f8b" x="331.578819" y="177.318981" style="fill: #d97706; fill-opacity: 0.888269; stroke: #d97706; stroke-opacity: 0.888269"/>
    </g>
    <g clip-path="url(#p058a7dff11)">
     <use xlink:href="#C2_0_c05cc24f8b" x="315.738111" y="178.512996" style="fill: #d97706; stroke: #d97706"/>
    </g>
   </g>
  </g>
 </g>
 <defs>
  <clipPath id="p058a7dff11">
   <rect x="107.659313" y="22.318125" width="266.112" height="266.112"/>
  </clipPath>
 </defs>
</svg>
