<svg xmlns="http://www.w3.org/2000/svg" width="760" height="520" viewBox="0 0 760 520"><rect width="760" height="520" fill="#fffdf7"/><text x="28" y="38" font-size="24" font-family="DejaVu Sans, Arial" font-weight="700" fill="#1f2933">Chapter 22 experiment</text><text x="28" y="64" font-size="14" font-family="DejaVu Sans, Arial" fill="#1f2933">Perturb the model and inspect what remains invariant</text><g font-family="DejaVu Sans, Arial"><line x1="341.1" y1="242.3" x2="315.1" y2="230.5" stroke="#6f42c1" stroke-width="1.2"/>
<line x1="341.1" y1="242.3" x2="341.1" y2="355.6" stroke="#6f42c1" stroke-width="1.2"/>
<line x1="341.1" y1="242.3" x2="291.5" y2="192.7" stroke="#6f42c1" stroke-width="1.2"/>
<line x1="341.1" y1="242.3" x2="468.5" y2="214.0" stroke="#6f42c1" stroke-width="1.2"/>
<line x1="315.1" y1="230.5" x2="315.1" y2="419.3" stroke="#6f42c1" stroke-width="1.2"/>
<line x1="315.1" y1="230.5" x2="232.5" y2="147.9" stroke="#6f42c1" stroke-width="1.2"/>
<line x1="315.1" y1="230.5" x2="527.5" y2="183.3" stroke="#6f42c1" stroke-width="1.2"/>
<line x1="341.1" y1="355.6" x2="315.1" y2="419.3" stroke="#6f42c1" stroke-width="1.2"/>
<line x1="341.1" y1="355.6" x2="291.5" y2="306.0" stroke="#6f42c1" stroke-width="1.2"/>
<line x1="341.1" y1="355.6" x2="468.5" y2="327.3" stroke="#6f42c1" stroke-width="1.2"/>
<line x1="315.1" y1="419.3" x2="232.5" y2="336.7" stroke="#6f42c1" stroke-width="1.2"/>
<line x1="315.1" y1="419.3" x2="527.5" y2="372.1" stroke="#6f42c1" stroke-width="1.2"/>
<line x1="291.5" y1="192.7" x2="232.5" y2="147.9" stroke="#6f42c1" stroke-width="1.2"/>
<line x1="291.5" y1="192.7" x2="291.5" y2="306.0" stroke="#6f42c1" stroke-width="1.2"/>
<line x1="291.5" y1="192.7" x2="418.9" y2="164.4" stroke="#6f42c1" stroke-width="1.2"/>
<line x1="232.5" y1="147.9" x2="232.5" y2="336.7" stroke="#6f42c1" stroke-width="1.2"/>
<line x1="232.5" y1="147.9" x2="444.9" y2="100.7" stroke="#6f42c1" stroke-width="1.2"/>
<line x1="291.5" y1="306.0" x2="232.5" y2="336.7" stroke="#6f42c1" stroke-width="1.2"/>
<line x1="291.5" y1="306.0" x2="418.9" y2="277.7" stroke="#6f42c1" stroke-width="1.2"/>
<line x1="232.5" y1="336.7" x2="444.9" y2="289.5" stroke="#6f42c1" stroke-width="1.2"/>
<line x1="468.5" y1="214.0" x2="527.5" y2="183.3" stroke="#6f42c1" stroke-width="1.2"/>
<line x1="468.5" y1="214.0" x2="468.5" y2="327.3" stroke="#6f42c1" stroke-width="1.2"/>
<line x1="468.5" y1="214.0" x2="418.9" y2="164.4" stroke="#6f42c1" stroke-width="1.2"/>
<line x1="527.5" y1="183.3" x2="527.5" y2="372.1" stroke="#6f42c1" stroke-width="1.2"/>
<line x1="527.5" y1="183.3" x2="444.9" y2="100.7" stroke="#6f42c1" stroke-width="1.2"/>
<line x1="468.5" y1="327.3" x2="527.5" y2="372.1" stroke="#6f42c1" stroke-width="1.2"/>
<line x1="468.5" y1="327.3" x2="418.9" y2="277.7" stroke="#6f42c1" stroke-width="1.2"/>
<line x1="527.5" y1="372.1" x2="444.9" y2="289.5" stroke="#6f42c1" stroke-width="1.2"/>
<line x1="418.9" y1="164.4" x2="444.9" y2="100.7" stroke="#6f42c1" stroke-width="1.2"/>
<line x1="418.9" y1="164.4" x2="418.9" y2="277.7" stroke="#6f42c1" stroke-width="1.2"/>
<line x1="444.9" y1="100.7" x2="444.9" y2="289.5" stroke="#6f42c1" stroke-width="1.2"/>
<line x1="418.9" y1="277.7" x2="444.9" y2="289.5" stroke="#6f42c1" stroke-width="1.2"/>
<circle cx="341.1" cy="242.3" r="3.5" fill="#d64545"/>
<circle cx="315.1" cy="230.5" r="3.5" fill="#d64545"/>
<circle cx="341.1" cy="355.6" r="3.5" fill="#d64545"/>
<circle cx="315.1" cy="419.3" r="3.5" fill="#d64545"/>
<circle cx="291.5" cy="192.7" r="3.5" fill="#d64545"/>
<circle cx="232.5" cy="147.9" r="3.5" fill="#d64545"/>
<circle cx="291.5" cy="306.0" r="3.5" fill="#d64545"/>
<circle cx="232.5" cy="336.7" r="3.5" fill="#d64545"/>
<circle cx="468.5" cy="214.0" r="3.5" fill="#d64545"/>
<circle cx="527.5" cy="183.3" r="3.5" fill="#d64545"/>
<circle cx="468.5" cy="327.3" r="3.5" fill="#d64545"/>
<circle cx="527.5" cy="372.1" r="3.5" fill="#d64545"/>
<circle cx="418.9" cy="164.4" r="3.5" fill="#d64545"/>
<circle cx="444.9" cy="100.7" r="3.5" fill="#d64545"/>
<circle cx="418.9" cy="277.7" r="3.5" fill="#d64545"/>
<circle cx="444.9" cy="289.5" r="3.5" fill="#d64545"/></g></svg>