<svg xmlns="http://www.w3.org/2000/svg" width="760" height="520" viewBox="0 0 760 520"><rect width="760" height="520" fill="#fffdf7"/><text x="28" y="38" font-size="24" font-family="DejaVu Sans, Arial" font-weight="700" fill="#1f2933">Chapter 07: Isometry and Similarity in Euclidean Space</text><text x="28" y="64" font-size="14" font-family="DejaVu Sans, Arial" fill="#1f2933">3D frames, screw motions, reflection planes, twist traces, and projected spatial orbits</text><g font-family="DejaVu Sans, Arial"><circle cx="315.1" cy="230.5" r="4" fill="#f97316"/>
<circle cx="315.1" cy="419.3" r="4" fill="#f97316"/>
<circle cx="232.5" cy="147.9" r="4" fill="#f97316"/>
<circle cx="232.5" cy="336.7" r="4" fill="#f97316"/>
<circle cx="527.5" cy="183.3" r="4" fill="#f97316"/>
<circle cx="527.5" cy="372.1" r="4" fill="#f97316"/>
<circle cx="444.9" cy="100.7" r="4" fill="#f97316"/>
<circle cx="444.9" cy="289.5" r="4" fill="#f97316"/>
<line x1="315.1" y1="230.5" x2="315.1" y2="419.3" stroke="#2364aa" stroke-width="1.5"/>
<line x1="315.1" y1="230.5" x2="232.5" y2="147.9" stroke="#2364aa" stroke-width="1.5"/>
<line x1="315.1" y1="230.5" x2="527.5" y2="183.3" stroke="#2364aa" stroke-width="1.5"/>
<line x1="315.1" y1="419.3" x2="232.5" y2="336.7" stroke="#2364aa" stroke-width="1.5"/>
<line x1="315.1" y1="419.3" x2="527.5" y2="372.1" stroke="#2364aa" stroke-width="1.5"/>
<line x1="232.5" y1="147.9" x2="232.5" y2="336.7" stroke="#2364aa" stroke-width="1.5"/>
<line x1="232.5" y1="147.9" x2="444.9" y2="100.7" stroke="#2364aa" stroke-width="1.5"/>
<line x1="232.5" y1="336.7" x2="444.9" y2="289.5" stroke="#2364aa" stroke-width="1.5"/>
<line x1="527.5" y1="183.3" x2="527.5" y2="372.1" stroke="#2364aa" stroke-width="1.5"/>
<line x1="527.5" y1="183.3" x2="444.9" y2="100.7" stroke="#2364aa" stroke-width="1.5"/>
<line x1="527.5" y1="372.1" x2="444.9" y2="289.5" stroke="#2364aa" stroke-width="1.5"/>
<line x1="444.9" y1="100.7" x2="444.9" y2="289.5" stroke="#2364aa" stroke-width="1.5"/></g></svg>