<svg xmlns="http://www.w3.org/2000/svg" width="760" height="520" viewBox="0 0 760 520"><rect width="760" height="520" fill="#fffdf7"/><text x="28" y="38" font-size="24" font-family="DejaVu Sans, Arial" font-weight="700" fill="#1f2933">Chapter 07 experiment</text><text x="28" y="64" font-size="14" font-family="DejaVu Sans, Arial" fill="#1f2933">Perturb the model and inspect what remains invariant</text><g font-family="DejaVu Sans, Arial"><polyline points="167.6,305.6 170.7,308.0 173.7,310.3 176.8,312.6 179.8,314.8 182.9,317.1 185.9,319.3 189.0,321.5 192.0,323.6 195.1,325.7 198.2,327.8 201.2,329.8 204.3,331.7 207.3,333.6 210.4,335.4 213.4,337.2 216.5,338.9 219.6,340.5 222.6,342.0 225.7,343.5 228.7,344.9 231.8,346.2 234.8,347.4 237.9,348.5 240.9,349.5 244.0,350.4 247.1,351.3 250.1,352.0 253.2,352.7 256.2,353.2 259.3,353.6 262.3,354.0 265.4,354.2 268.5,354.4 271.5,354.4 274.6,354.3 277.6,354.2 280.7,353.9 283.7,353.5 286.8,353.0 289.8,352.4 292.9,351.8 296.0,351.0 299.0,350.1 302.1,349.2 305.1,348.1 308.2,346.9 311.2,345.7 314.3,344.4 317.3,343.0 320.4,341.5 323.5,339.9 326.5,338.3 329.6,336.6 332.6,334.8 335.7,332.9 338.7,331.0 341.8,329.1 344.9,327.1 347.9,325.0 351.0,322.9 354.0,320.7 357.1,318.5 360.1,316.3 363.2,314.0 366.2,311.8 369.3,309.5 372.4,307.1 375.4,304.8 378.5,302.5 381.5,300.1 384.6,297.8 387.6,295.5 390.7,293.1 393.8,290.8 396.8,288.6 399.9,286.3 402.9,284.1 406.0,281.9 409.0,279.7 412.1,277.6 415.1,275.5 418.2,273.5 421.3,271.6 424.3,269.7 427.4,267.8 430.4,266.0 433.5,264.3 436.5,262.7 439.6,261.1 442.7,259.6 445.7,258.2 448.8,256.9 451.8,255.7 454.9,254.5 457.9,253.4 461.0,252.5 464.0,251.6 467.1,250.8 470.2,250.2 473.2,249.6 476.3,249.1 479.3,248.7 482.4,248.4 485.4,248.3 488.5,248.2 491.5,248.2 494.6,248.4 497.7,248.6 500.7,249.0 503.8,249.4 506.8,249.9 509.9,250.6 512.9,251.3 516.0,252.2 519.1,253.1 522.1,254.1 525.2,255.2 528.2,256.4 531.3,257.7 534.3,259.1 537.4,260.6 540.4,262.1 543.5,263.7 546.6,265.4 549.6,267.2 552.7,269.0 555.7,270.9 558.8,272.8 561.8,274.8 564.9,276.9 568.0,279.0 571.0,281.1 574.1,283.3 577.1,285.5 580.2,287.8 583.2,290.0 586.3,292.3 589.3,294.6 592.4,297.0" fill="none" stroke="#2364aa" stroke-width="2" stroke-linejoin="round"/>
<polyline points="167.6,295.5 170.7,297.2 173.7,298.8 176.8,300.4 179.8,301.8 182.9,303.2 185.9,304.6 189.0,305.8 192.0,306.9 195.1,308.0 198.2,308.9 201.2,309.8 204.3,310.6 207.3,311.2 210.4,311.8 213.4,312.3 216.5,312.6 219.6,312.9 222.6,313.0 225.7,313.1 228.7,313.1 231.8,312.9 234.8,312.7 237.9,312.3 240.9,311.8 244.0,311.3 247.1,310.6 250.1,309.9 253.2,309.0 256.2,308.1 259.3,307.1 262.3,305.9 265.4,304.7 268.5,303.4 271.5,302.0 274.6,300.6 277.6,299.0 280.7,297.4 283.7,295.7 286.8,293.9 289.8,292.1 292.9,290.2 296.0,288.2 299.0,286.2 302.1,284.2 305.1,282.1 308.2,279.9 311.2,277.7 314.3,275.5 317.3,273.3 320.4,271.0 323.5,268.7 326.5,266.4 329.6,264.1 332.6,261.7 335.7,259.4 338.7,257.0 341.8,254.7 344.9,252.4 347.9,250.1 351.0,247.8 354.0,245.5 357.1,243.3 360.1,241.1 363.2,238.9 366.2,236.8 369.3,234.7 372.4,232.7 375.4,230.7 378.5,228.8 381.5,226.9 384.6,225.1 387.6,223.4 390.7,221.8 393.8,220.2 396.8,218.7 399.9,217.2 402.9,215.9 406.0,214.6 409.0,213.5 412.1,212.4 415.1,211.4 418.2,210.5 421.3,209.7 424.3,209.0 427.4,208.4 430.4,207.9 433.5,207.5 436.5,207.2 439.6,207.0 442.7,206.9 445.7,206.9 448.8,207.0 451.8,207.2 454.9,207.6 457.9,208.0 461.0,208.5 464.0,209.1 467.1,209.8 470.2,210.6 473.2,211.6 476.3,212.6 479.3,213.7 482.4,214.8 485.4,216.1 488.5,217.5 491.5,218.9 494.6,220.4 497.7,222.0 500.7,223.7 503.8,225.5 506.8,227.3 509.9,229.1 512.9,231.1 516.0,233.1 519.1,235.1 522.1,237.2 525.2,239.3 528.2,241.5 531.3,243.7 534.3,245.9 537.4,248.2 540.4,250.5 543.5,252.8 546.6,255.1 549.6,257.5 552.7,259.8 555.7,262.1 558.8,264.5 561.8,266.8 564.9,269.1 568.0,271.4 571.0,273.7 574.1,275.9 577.1,278.1 580.2,280.3 583.2,282.4 586.3,284.5 589.3,286.6 592.4,288.6" fill="none" stroke="#f97316" stroke-width="2" stroke-linejoin="round"/>
<polyline points="167.6,270.9 170.7,271.2 173.7,271.5 176.8,271.7 179.8,271.8 182.9,271.8 185.9,271.7 189.0,271.4 192.0,271.1 195.1,270.7 198.2,270.1 201.2,269.5 204.3,268.8 207.3,267.9 210.4,267.0 213.4,266.0 216.5,264.9 219.6,263.7 222.6,262.4 225.7,261.1 228.7,259.6 231.8,258.1 234.8,256.5 237.9,254.8 240.9,253.0 244.0,251.2 247.1,249.3 250.1,247.4 253.2,245.4 256.2,243.4 259.3,241.3 262.3,239.1 265.4,237.0 268.5,234.7 271.5,232.5 274.6,230.2 277.6,227.9 280.7,225.6 283.7,223.3 286.8,221.0 289.8,218.6 292.9,216.3 296.0,214.0 299.0,211.6 302.1,209.3 305.1,207.0 308.2,204.8 311.2,202.5 314.3,200.3 317.3,198.1 320.4,196.0 323.5,193.9 326.5,191.9 329.6,189.9 332.6,188.0 335.7,186.1 338.7,184.3 341.8,182.5 344.9,180.8 347.9,179.2 351.0,177.7 354.0,176.3 357.1,174.9 360.1,173.6 363.2,172.4 366.2,171.3 369.3,170.3 372.4,169.4 375.4,168.6 378.5,167.9 381.5,167.2 384.6,166.7 387.6,166.3 390.7,166.0 393.8,165.7 396.8,165.6 399.9,165.6 402.9,165.7 406.0,165.9 409.0,166.2 412.1,166.6 415.1,167.1 418.2,167.7 421.3,168.4 424.3,169.1 427.4,170.0 430.4,171.0 433.5,172.1 436.5,173.3 439.6,174.5 442.7,175.8 445.7,177.3 448.8,178.8 451.8,180.4 454.9,182.0 457.9,183.7 461.0,185.5 464.0,187.4 467.1,189.3 470.2,191.3 473.2,193.3 476.3,195.4 479.3,197.5 482.4,199.7 485.4,201.9 488.5,204.1 491.5,206.4 494.6,208.6 497.7,210.9 500.7,213.3 503.8,215.6 506.8,217.9 509.9,220.3 512.9,222.6 516.0,224.9 519.1,227.2 522.1,229.5 525.2,231.8 528.2,234.1 531.3,236.3 534.3,238.5 537.4,240.6 540.4,242.7 543.5,244.8 546.6,246.8 549.6,248.8 552.7,250.7 555.7,252.5 558.8,254.3 561.8,256.0 564.9,257.6 568.0,259.2 571.0,260.6 574.1,262.0 577.1,263.3 580.2,264.6 583.2,265.7 586.3,266.7 589.3,267.7 592.4,268.5" fill="none" stroke="#2f9e44" stroke-width="2" stroke-linejoin="round"/>
<line x1="167.6" y1="260.0" x2="592.4" y2="260.0" stroke="#d8dee9" stroke-width="1" stroke-dasharray="4 4"/></g></svg>